<svg width="224" height="224" viewBox="0 0 224 224" fill="none" xmlns="http://www.w3.org/2000/svg">
<path d="M111.549 187.051C111.549 194.405 105.554 200.469 98.2831 199.367C82.0416 196.904 66.7117 189.95 54.0873 179.168C38.0681 165.486 27.4564 146.538 24.1608 125.73C20.8653 104.923 25.1022 83.6228 36.1095 65.6605C47.1168 47.6982 64.1721 34.2529 84.2077 27.743C104.243 21.233 125.944 22.0856 145.407 30.1475C164.87 38.2094 180.818 52.9514 190.382 71.7219C199.946 90.4925 202.499 112.06 197.581 132.544C193.705 148.688 185.39 163.324 173.698 174.863C168.464 180.028 160.05 178.646 155.728 172.697C151.405 166.748 152.863 158.497 157.751 153.003C164.477 145.445 169.293 136.297 171.686 126.327C175.124 112.008 173.34 96.9327 166.654 83.8119C159.969 70.691 148.821 60.3861 135.216 54.7508C121.611 49.1154 106.442 48.5194 92.4369 53.07C78.4318 57.6205 66.5099 67.019 58.8157 79.5748C51.1214 92.1307 48.1597 107.02 50.4634 121.565C52.767 136.109 60.1847 149.355 71.3824 158.918C79.1789 165.577 88.4515 170.147 98.3356 172.309C105.52 173.88 111.549 179.698 111.549 187.051Z" fill="#E7E7E7"/>
<path d="M134.775 183.373C137.047 190.367 133.22 197.987 125.965 199.185C112.058 201.481 97.7352 200.432 84.2078 196.037C66.4378 190.263 50.9518 179.012 39.9693 163.895C28.9868 148.779 23.0717 130.574 23.0717 111.89C23.0717 97.6664 26.4995 83.7208 32.9811 71.2041C36.3627 64.6739 44.7922 63.3884 50.7415 67.7109C56.6909 72.0333 57.8542 80.3305 54.9026 87.066C51.4918 94.8492 49.7021 103.297 49.7021 111.89C49.7021 124.951 53.8368 137.676 61.5137 148.242C69.1906 158.809 80.0156 166.674 92.4371 170.71C100.609 173.365 109.197 174.273 117.653 173.435C124.971 172.709 132.503 176.379 134.775 183.373Z" fill="#102FB1"/>
<path d="M79.7522 119.392V114.976L89.8642 100.512H95.9762V114.656H98.6002V119.392H95.9762V123.552H90.5042V119.392H79.7522ZM90.8882 106.528L85.5122 114.656H90.8882V106.528ZM101.28 111.552C101.28 107.882 101.984 104.992 103.392 102.88C104.822 100.768 107.115 99.7118 110.272 99.7118C113.43 99.7118 115.712 100.768 117.12 102.88C118.55 104.992 119.264 107.882 119.264 111.552C119.264 115.264 118.55 118.176 117.12 120.288C115.712 122.4 113.43 123.456 110.272 123.456C107.115 123.456 104.822 122.4 103.392 120.288C101.984 118.176 101.28 115.264 101.28 111.552ZM113.888 111.552C113.888 109.397 113.654 107.744 113.184 106.592C112.715 105.418 111.744 104.832 110.272 104.832C108.8 104.832 107.83 105.418 107.36 106.592C106.891 107.744 106.656 109.397 106.656 111.552C106.656 113.002 106.742 114.208 106.912 115.168C107.083 116.106 107.424 116.874 107.936 117.472C108.47 118.048 109.248 118.336 110.272 118.336C111.296 118.336 112.064 118.048 112.576 117.472C113.11 116.874 113.462 116.106 113.632 115.168C113.803 114.208 113.888 113.002 113.888 111.552ZM121.707 106.08C121.707 104.352 122.198 103.018 123.179 102.08C124.182 101.141 125.473 100.672 127.051 100.672C128.63 100.672 129.91 101.141 130.891 102.08C131.873 103.018 132.363 104.352 132.363 106.08C132.363 107.808 131.873 109.141 130.891 110.08C129.91 111.018 128.63 111.488 127.051 111.488C125.473 111.488 124.182 111.018 123.179 110.08C122.198 109.141 121.707 107.808 121.707 106.08ZM143.435 101.024L131.115 123.552H125.835L138.155 101.024H143.435ZM127.019 103.872C125.995 103.872 125.483 104.608 125.483 106.08C125.483 107.53 125.995 108.256 127.019 108.256C127.51 108.256 127.894 108.074 128.171 107.712C128.449 107.349 128.587 106.805 128.587 106.08C128.587 104.608 128.065 103.872 127.019 103.872ZM136.939 118.496C136.939 116.768 137.43 115.434 138.411 114.496C139.393 113.557 140.673 113.088 142.251 113.088C143.83 113.088 145.11 113.557 146.091 114.496C147.073 115.434 147.563 116.768 147.563 118.496C147.563 120.224 147.073 121.557 146.091 122.496C145.11 123.434 143.83 123.904 142.251 123.904C140.673 123.904 139.393 123.434 138.411 122.496C137.43 121.557 136.939 120.224 136.939 118.496ZM142.219 116.288C141.729 116.288 141.345 116.469 141.067 116.832C140.811 117.194 140.683 117.749 140.683 118.496C140.683 119.946 141.195 120.672 142.219 120.672C142.71 120.672 143.094 120.49 143.371 120.128C143.649 119.765 143.787 119.221 143.787 118.496C143.787 117.77 143.649 117.226 143.371 116.864C143.094 116.48 142.71 116.288 142.219 116.288Z" fill="#102FB1"/>
</svg>
