<svg width="224" height="224" viewBox="0 0 224 224" fill="none" xmlns="http://www.w3.org/2000/svg">
<path d="M112.472 187.051C112.472 194.405 106.477 200.469 99.2063 199.367C82.9648 196.904 67.6349 189.95 55.0106 179.168C38.9913 165.486 28.3796 146.538 25.0841 125.73C21.7885 104.923 26.0254 83.6228 37.0327 65.6605C48.04 47.6982 65.0953 34.2529 85.1309 27.743C105.167 21.233 126.867 22.0856 146.331 30.1475C165.794 38.2094 181.741 52.9514 191.305 71.7219C200.869 90.4925 203.422 112.06 198.504 132.544C194.629 148.688 186.314 163.324 174.622 174.863C169.388 180.028 160.973 178.646 156.651 172.697C152.328 166.748 153.786 158.497 158.675 153.003C165.4 145.445 170.216 136.297 172.61 126.327C176.047 112.008 174.263 96.9327 167.578 83.8119C160.892 70.691 149.744 60.3861 136.14 54.7508C122.535 49.1154 107.365 48.5194 93.3602 53.07C79.355 57.6205 67.4331 67.019 59.7389 79.5748C52.0446 92.1307 49.0829 107.02 51.3866 121.565C53.6902 136.109 61.108 149.355 72.3056 158.918C80.1021 165.577 89.3747 170.147 99.2589 172.309C106.443 173.88 112.472 179.698 112.472 187.051Z" fill="#E7E7E7"/>
<path d="M135.698 183.373C137.971 190.367 134.143 197.986 126.888 199.185C117.563 200.725 108.023 200.765 98.6311 199.278C84.8404 197.093 71.7624 191.676 60.4664 183.469C49.1705 175.262 39.9772 164.498 33.6383 152.058C27.2994 139.617 23.9949 125.853 23.9949 111.89C23.9949 97.9273 27.2994 84.1629 33.6383 71.7222C39.9772 59.2814 49.1705 48.5175 60.4665 40.3105C71.7624 32.1035 84.8404 26.6864 98.6311 24.5022C108.023 23.0147 117.563 23.0553 126.888 24.5952C134.143 25.7934 137.971 33.4129 135.698 40.4068C133.426 47.4006 125.894 51.0711 118.576 50.3453C113.337 49.8255 108.034 49.9753 102.797 50.8047C93.1571 52.3315 84.0154 56.1181 76.1194 61.8549C68.2234 67.5917 61.7971 75.1159 57.3662 83.8121C52.9352 92.5084 50.6253 102.13 50.6253 111.89C50.6253 121.65 52.9352 131.271 57.3662 139.968C61.7971 148.664 68.2233 156.188 76.1194 161.925C84.0154 167.662 93.1571 171.448 102.797 172.975C108.034 173.805 113.337 173.954 118.576 173.435C125.894 172.709 133.426 176.379 135.698 183.373Z" fill="#102FB1"/>
<path d="M92.0994 106.496C91.9288 105.706 91.6301 105.12 91.2034 104.736C90.7768 104.33 90.1688 104.128 89.3794 104.128C88.1634 104.128 87.2888 104.661 86.7554 105.728C86.2221 106.773 85.9448 108.437 85.9234 110.72C86.3928 109.973 87.0648 109.386 87.9394 108.96C88.8354 108.533 89.8168 108.32 90.8834 108.32C92.9741 108.32 94.6488 108.981 95.9074 110.304C97.1874 111.626 97.8274 113.472 97.8274 115.84C97.8274 117.397 97.5074 118.762 96.8674 119.936C96.2488 121.109 95.3314 122.026 94.1154 122.688C92.9208 123.349 91.5021 123.68 89.8594 123.68C86.5741 123.68 84.2914 122.656 83.0114 120.608C81.7314 118.538 81.0914 115.573 81.0914 111.712C81.0914 107.658 81.7634 104.65 83.1074 102.688C84.4728 100.704 86.6488 99.7118 89.6354 99.7118C91.2354 99.7118 92.5794 100.032 93.6674 100.672C94.7768 101.29 95.6088 102.112 96.1634 103.136C96.7394 104.16 97.0808 105.28 97.1874 106.496H92.0994ZM89.5714 112.64C88.6541 112.64 87.8861 112.917 87.2674 113.472C86.6701 114.005 86.3714 114.773 86.3714 115.776C86.3714 116.8 86.6488 117.6 87.2034 118.176C87.7794 118.752 88.5901 119.04 89.6354 119.04C90.5741 119.04 91.3101 118.762 91.8434 118.208C92.3981 117.632 92.6754 116.853 92.6754 115.872C92.6754 114.869 92.4088 114.08 91.8754 113.504C91.3421 112.928 90.5741 112.64 89.5714 112.64ZM100.922 111.552C100.922 107.882 101.626 104.992 103.034 102.88C104.464 100.768 106.757 99.7118 109.914 99.7118C113.072 99.7118 115.354 100.768 116.762 102.88C118.192 104.992 118.906 107.882 118.906 111.552C118.906 115.264 118.192 118.176 116.762 120.288C115.354 122.4 113.072 123.456 109.914 123.456C106.757 123.456 104.464 122.4 103.034 120.288C101.626 118.176 100.922 115.264 100.922 111.552ZM113.53 111.552C113.53 109.397 113.296 107.744 112.826 106.592C112.357 105.418 111.386 104.832 109.914 104.832C108.442 104.832 107.472 105.418 107.002 106.592C106.533 107.744 106.298 109.397 106.298 111.552C106.298 113.002 106.384 114.208 106.554 115.168C106.725 116.106 107.066 116.874 107.578 117.472C108.112 118.048 108.89 118.336 109.914 118.336C110.938 118.336 111.706 118.048 112.218 117.472C112.752 116.874 113.104 116.106 113.274 115.168C113.445 114.208 113.53 113.002 113.53 111.552ZM121.349 106.08C121.349 104.352 121.84 103.018 122.821 102.08C123.824 101.141 125.115 100.672 126.693 100.672C128.272 100.672 129.552 101.141 130.533 102.08C131.515 103.018 132.005 104.352 132.005 106.08C132.005 107.808 131.515 109.141 130.533 110.08C129.552 111.018 128.272 111.488 126.693 111.488C125.115 111.488 123.824 111.018 122.821 110.08C121.84 109.141 121.349 107.808 121.349 106.08ZM143.077 101.024L130.757 123.552H125.477L137.797 101.024H143.077ZM126.661 103.872C125.637 103.872 125.125 104.608 125.125 106.08C125.125 107.53 125.637 108.256 126.661 108.256C127.152 108.256 127.536 108.074 127.813 107.712C128.091 107.349 128.229 106.805 128.229 106.08C128.229 104.608 127.707 103.872 126.661 103.872ZM136.581 118.496C136.581 116.768 137.072 115.434 138.053 114.496C139.035 113.557 140.315 113.088 141.893 113.088C143.472 113.088 144.752 113.557 145.733 114.496C146.715 115.434 147.205 116.768 147.205 118.496C147.205 120.224 146.715 121.557 145.733 122.496C144.752 123.434 143.472 123.904 141.893 123.904C140.315 123.904 139.035 123.434 138.053 122.496C137.072 121.557 136.581 120.224 136.581 118.496ZM141.861 116.288C141.371 116.288 140.987 116.469 140.709 116.832C140.453 117.194 140.325 117.749 140.325 118.496C140.325 119.946 140.837 120.672 141.861 120.672C142.352 120.672 142.736 120.49 143.013 120.128C143.291 119.765 143.429 119.221 143.429 118.496C143.429 117.77 143.291 117.226 143.013 116.864C142.736 116.48 142.352 116.288 141.861 116.288Z" fill="#102FB1"/>
</svg>
