<svg width="224" height="224" viewBox="0 0 224 224" fill="none" xmlns="http://www.w3.org/2000/svg">
<path d="M112.395 187.051C112.395 194.405 106.4 200.469 99.1297 199.367C82.8881 196.904 67.5583 189.95 54.9339 179.168C38.9147 165.486 28.3029 146.538 25.0074 125.73C21.7118 104.923 25.9488 83.6228 36.9561 65.6605C47.9634 47.6982 65.0187 34.2529 85.0543 27.743C105.09 21.233 126.791 22.0856 146.254 30.1475C165.717 38.2094 181.665 52.9514 191.229 71.7219C200.793 90.4925 203.345 112.06 198.428 132.544C194.552 148.688 186.237 163.324 174.545 174.863C169.311 180.028 160.897 178.646 156.574 172.697C152.252 166.748 153.709 158.497 158.598 153.003C165.324 145.445 170.139 136.297 172.533 126.327C175.971 112.008 174.186 96.9327 167.501 83.8119C160.816 70.691 149.668 60.3861 136.063 54.7508C122.458 49.1154 107.289 48.5194 93.2835 53.07C79.2783 57.6205 67.3565 67.019 59.6622 79.5748C51.968 92.1307 49.0063 107.02 51.3099 121.565C53.6136 136.109 61.0313 149.355 72.229 158.918C80.0254 165.577 89.2981 170.147 99.1822 172.309C106.366 173.88 112.395 179.698 112.395 187.051Z" fill="#E7E7E7"/>
<path d="M135.621 183.373C137.894 190.367 134.066 197.987 126.811 199.185C110.603 201.861 93.8746 199.985 78.5362 193.632C59.0732 185.57 43.1254 170.828 33.5613 152.058C23.9972 133.287 21.4446 111.72 26.3625 91.2354C31.2804 70.7508 43.3461 52.6932 60.3894 40.3105C77.4327 27.9278 98.3351 22.0328 119.337 23.6856C140.338 25.3385 160.061 34.4308 174.958 49.3272C189.854 64.2236 198.946 83.9464 200.599 104.948C201.902 121.499 198.517 137.988 190.963 152.576C187.581 159.106 179.151 160.391 173.202 156.069C167.253 151.747 166.09 143.449 169.041 136.714C173.102 127.447 174.855 117.259 174.051 107.038C172.896 92.357 166.54 78.5705 156.127 68.1577C145.714 57.745 131.928 51.3893 117.247 50.2339C102.567 49.0785 87.9559 53.1993 76.0424 61.8549C64.1289 70.5106 55.6948 83.1331 52.2571 97.4521C48.8194 111.771 50.6037 126.847 57.2891 139.968C63.9746 153.089 75.1223 163.393 88.7272 169.029C98.1998 172.952 108.431 174.433 118.499 173.435C125.817 172.709 133.349 176.379 135.621 183.373Z" fill="#102FB1"/>
<path d="M86.3588 116.704C86.6788 118.389 87.6601 119.232 89.3028 119.232C90.4334 119.232 91.2334 118.73 91.7028 117.728C92.1721 116.725 92.4068 115.093 92.4068 112.832C91.9374 113.493 91.2974 114.005 90.4868 114.368C89.6761 114.73 88.7694 114.912 87.7668 114.912C86.4014 114.912 85.1854 114.634 84.1188 114.08C83.0521 113.504 82.2094 112.661 81.5908 111.552C80.9934 110.421 80.6948 109.056 80.6948 107.456C80.6948 105.877 81.0148 104.501 81.6548 103.328C82.3161 102.154 83.2441 101.248 84.4388 100.608C85.6548 99.9678 87.0841 99.6478 88.7268 99.6478C91.8841 99.6478 94.0921 100.629 95.3508 102.592C96.6094 104.554 97.2388 107.445 97.2388 111.264C97.2388 114.037 96.9828 116.33 96.4708 118.144C95.9801 119.936 95.1374 121.301 93.9428 122.24C92.7694 123.178 91.1588 123.648 89.1108 123.648C87.4894 123.648 86.1028 123.328 84.9508 122.688C83.8201 122.048 82.9454 121.205 82.3268 120.16C81.7294 119.114 81.3881 117.962 81.3028 116.704H86.3588ZM89.0148 110.592C89.9108 110.592 90.6254 110.325 91.1588 109.792C91.6921 109.237 91.9588 108.49 91.9588 107.552C91.9588 106.528 91.6814 105.738 91.1268 105.184C90.5721 104.629 89.8254 104.352 88.8868 104.352C87.9481 104.352 87.2014 104.64 86.6468 105.216C86.1134 105.77 85.8468 106.538 85.8468 107.52C85.8468 108.437 86.1134 109.184 86.6468 109.76C87.2014 110.314 87.9908 110.592 89.0148 110.592ZM100.158 111.552C100.158 107.882 100.862 104.992 102.27 102.88C103.7 100.768 105.993 99.7118 109.15 99.7118C112.308 99.7118 114.59 100.768 115.998 102.88C117.428 104.992 118.142 107.882 118.142 111.552C118.142 115.264 117.428 118.176 115.998 120.288C114.59 122.4 112.308 123.456 109.15 123.456C105.993 123.456 103.7 122.4 102.27 120.288C100.862 118.176 100.158 115.264 100.158 111.552ZM112.766 111.552C112.766 109.397 112.532 107.744 112.062 106.592C111.593 105.418 110.622 104.832 109.15 104.832C107.678 104.832 106.708 105.418 106.238 106.592C105.769 107.744 105.534 109.397 105.534 111.552C105.534 113.002 105.62 114.208 105.79 115.168C105.961 116.106 106.302 116.874 106.814 117.472C107.348 118.048 108.126 118.336 109.15 118.336C110.174 118.336 110.942 118.048 111.454 117.472C111.988 116.874 112.34 116.106 112.51 115.168C112.681 114.208 112.766 113.002 112.766 111.552ZM120.585 106.08C120.585 104.352 121.076 103.018 122.057 102.08C123.06 101.141 124.351 100.672 125.929 100.672C127.508 100.672 128.788 101.141 129.769 102.08C130.751 103.018 131.241 104.352 131.241 106.08C131.241 107.808 130.751 109.141 129.769 110.08C128.788 111.018 127.508 111.488 125.929 111.488C124.351 111.488 123.06 111.018 122.057 110.08C121.076 109.141 120.585 107.808 120.585 106.08ZM142.313 101.024L129.993 123.552H124.713L137.033 101.024H142.313ZM125.897 103.872C124.873 103.872 124.361 104.608 124.361 106.08C124.361 107.53 124.873 108.256 125.897 108.256C126.388 108.256 126.772 108.074 127.049 107.712C127.327 107.349 127.465 106.805 127.465 106.08C127.465 104.608 126.943 103.872 125.897 103.872ZM135.817 118.496C135.817 116.768 136.308 115.434 137.289 114.496C138.271 113.557 139.551 113.088 141.129 113.088C142.708 113.088 143.988 113.557 144.969 114.496C145.951 115.434 146.441 116.768 146.441 118.496C146.441 120.224 145.951 121.557 144.969 122.496C143.988 123.434 142.708 123.904 141.129 123.904C139.551 123.904 138.271 123.434 137.289 122.496C136.308 121.557 135.817 120.224 135.817 118.496ZM141.097 116.288C140.607 116.288 140.223 116.469 139.945 116.832C139.689 117.194 139.561 117.749 139.561 118.496C139.561 119.946 140.073 120.672 141.097 120.672C141.588 120.672 141.972 120.49 142.249 120.128C142.527 119.765 142.665 119.221 142.665 118.496C142.665 117.77 142.527 117.226 142.249 116.864C141.972 116.48 141.588 116.288 141.097 116.288Z" fill="#102FB1"/>
</svg>
