<svg width="2470" height="2741" viewBox="0 0 2470 2741" fill="none" xmlns="http://www.w3.org/2000/svg">
<path d="M887.347 166.758C797.067 64.2473 664.829 -0.319905 517.483 0.00119211C247.232 0.58987 24.2865 226.776 27.2549 497.193C27.549 523.443 29.9023 549.184 34.1275 574.31C46.5891 648.028 42.7918 723.834 19.2859 794.797C7.27885 831.134 0.566696 869.88 0.0318631 910.124C-2.69579 1122.58 170.055 1297.82 382.438 1297.82C429.797 1297.82 475.151 1289.21 517.002 1273.45C598.938 1242.59 685.902 1227.58 773.427 1228.44C775.112 1228.44 776.77 1228.44 778.455 1228.44C1050.42 1228.44 1275.29 1002.95 1274.75 730.818C1274.41 564.088 1191.96 416.651 1065.69 326.851C1000.33 280.372 940.349 226.91 887.347 166.704V166.758Z" fill="#F4F4F4"/>
<path d="M1687.9 73.3565C1648.18 28.2624 1590.01 -0.140726 1525.2 0.000524408C1406.31 0.259483 1308.24 99.7586 1309.54 218.715C1309.67 230.262 1310.71 241.586 1312.57 252.639C1318.05 285.067 1316.38 318.414 1306.04 349.63C1300.76 365.615 1297.8 382.659 1297.57 400.363C1296.37 493.823 1372.36 570.911 1465.79 570.911C1486.62 570.911 1506.57 567.121 1524.98 560.188C1561.03 546.616 1599.28 540.012 1637.79 540.389C1638.53 540.389 1639.26 540.389 1640 540.389C1759.63 540.389 1858.55 441.196 1858.32 321.486C1858.17 248.142 1821.9 183.285 1766.35 143.782C1737.6 123.336 1711.21 99.8174 1687.9 73.333V73.3565Z" fill="#F4F4F4"/>
<path d="M1582.25 1609.72C1672.53 1507.21 1804.76 1442.64 1952.11 1442.96C2222.36 1443.55 2445.31 1669.74 2442.34 1940.16C2442.04 1966.41 2439.69 1992.15 2435.47 2017.27C2423 2090.99 2426.8 2166.8 2450.31 2237.76C2462.31 2274.1 2469.03 2312.84 2469.56 2353.09C2472.29 2565.55 2299.54 2740.78 2087.16 2740.78C2039.8 2740.78 1994.44 2732.17 1952.59 2716.41C1870.65 2685.56 1783.69 2670.54 1696.17 2671.4C1694.48 2671.4 1692.82 2671.4 1691.14 2671.4C1419.18 2671.4 1194.3 2445.91 1194.84 2173.78C1195.19 2007.05 1277.63 1859.61 1403.91 1769.81C1469.26 1723.33 1529.24 1669.87 1582.25 1609.67V1609.72Z" fill="#F4F4F4"/>
</svg>
