<svg width="147" height="211" viewBox="0 0 147 211" fill="none" xmlns="http://www.w3.org/2000/svg">
<path d="M32.2734 1.36017C32.2734 1.36017 12.0734 7.19017 7.9634 34.0902C5.3334 51.0402 13.0534 66.3302 13.0534 77.3702C13.0534 88.4102 3.2034 100.56 0.573397 117.97C-2.0566 135.38 4.3534 144.41 19.9534 150.82C35.5534 157.23 77.1134 151.48 85.4834 143.76C93.8634 136.04 103.553 123.39 101.903 93.9902C100.753 80.3602 89.5634 62.8702 85.4734 48.5402C81.3734 34.2102 77.4334 18.4402 66.5934 9.57017C55.7634 0.700168 47.0534 -1.91983 32.2734 1.36017Z" fill="#23003F"/>
<path d="M25.0835 58.9101C25.0835 58.9101 31.1335 81.0901 43.2335 87.1401C55.3335 93.1901 69.3335 89.5601 73.2835 79.0501C77.2235 68.5401 76.3535 52.5501 75.4735 43.5701C75.4735 43.5701 52.9135 39.4101 42.8435 23.6401C42.8435 23.6401 38.2435 51.6701 25.0835 58.9001V58.9101Z" fill="#FFD9C0"/>
<path d="M83.0435 42.86C80.1635 39.68 76.3135 43.65 75.5535 44.5C76.0335 49.75 76.4635 57.03 76.0235 64.21C77.5035 64.15 80.3235 63.55 83.0435 60.18C86.9735 55.32 86.2535 46.4 83.0435 42.85V42.86Z" fill="#FFD9C0"/>
<path d="M25.0834 58.9099C25.0834 58.9099 18.7534 56.0599 17.4334 60.6599C16.1234 65.2599 19.4034 73.5799 25.0834 76.2099C28.8234 77.9399 31.5234 77.3899 32.9434 76.8199C27.7034 68.5299 25.0834 58.9199 25.0834 58.9199V58.9099Z" fill="#FFD9C0"/>
<path d="M20.0634 34.8102C21.8134 22.1101 33.6434 12.6901 47.4334 12.6901C59.6734 12.6901 69.6634 21.1301 73.2934 27.7801C68.5134 15.2801 63.3334 9.14015 54.9834 6.50015C42.2834 2.47015 26.4034 6.56015 20.3734 19.4801C14.3434 32.4001 20.3734 51.0301 20.3734 51.0301C19.6634 46.8101 19.1934 41.0702 20.0534 34.8102H20.0634Z" fill="#EBEEF7"/>
<path d="M42.9534 60.5099C43.6434 62.8199 43.1434 65.0099 41.8434 65.3899C40.5434 65.7799 38.9234 64.2199 38.2334 61.9099C37.5434 59.5999 38.0434 57.4099 39.3434 57.0299C40.6434 56.6499 42.2634 58.1999 42.9534 60.5099Z" fill="#23003F"/>
<path d="M65.3034 53.8503C65.9934 56.1603 65.4934 58.3503 64.1934 58.7303C62.8934 59.1203 61.2734 57.5603 60.5834 55.2503C59.8934 52.9403 60.3934 50.7503 61.6934 50.3703C62.9934 49.9803 64.6134 51.5403 65.3034 53.8503Z" fill="#23003F"/>
<path d="M51.7134 52.9302C51.7134 52.9302 52.3734 57.2602 55.2134 60.7702C58.0634 64.2702 59.1534 69.5302 54.0134 71.1702" stroke="#CC967A" stroke-miterlimit="10" stroke-linecap="round"/>
<path d="M48.4934 79.2701C48.4934 79.2701 55.7634 84.5301 60.9034 77.8501" stroke="#CC967A" stroke-miterlimit="10" stroke-linecap="round"/>
<path d="M35.1734 55.51C35.1734 55.51 34.7334 51.35 38.8934 50.04" stroke="#23003F" stroke-miterlimit="10" stroke-linecap="round"/>
<path d="M58.6034 43.9C58.6034 43.9 63.3134 42.91 65.7234 46.2" stroke="#23003F" stroke-miterlimit="10" stroke-linecap="round"/>
<path d="M51.0535 89.7001L54.6635 104.89C54.6635 104.89 65.4435 109.05 73.3035 101.82L68.6235 85.6001C64.1935 89.3101 57.7135 90.8201 51.0535 89.7001Z" fill="#FFD9C0"/>
<path d="M54.6634 104.89C54.6634 104.89 50.7234 104.45 51.7134 108.61L52.7034 112.77C52.7034 112.77 38.1734 120.22 32.9534 124.81C27.7334 129.41 25.9834 130.94 25.9834 130.94C25.9834 130.94 34.3034 134.01 38.4634 147.58C42.6234 161.16 42.8434 167.51 42.8434 167.51C42.8434 167.51 50.5034 173.2 52.9134 185.91C55.3234 198.61 56.6134 202.12 57.6034 205.4C58.5934 208.68 95.6134 209.12 113.573 199.71C117.733 196.86 116.383 197.79 116.383 197.79C116.383 197.79 112.043 176.72 113.793 159.2C115.323 143.91 113.793 130.07 98.4634 115.62C93.2034 109.05 89.4834 106.08 89.4834 106.08H77.3334C77.3334 106.08 76.2734 97.9501 72.9134 100.49L73.3034 101.83C73.3034 101.83 65.8034 108.36 54.6634 104.9V104.89Z" fill="#90D6FF"/>
<path d="M146.643 164.45V136.2L129.563 135.98L127.593 153.76C127.593 153.76 117.953 123.28 111.603 114.3C105.253 105.32 89.4834 106.08 89.4834 106.08C89.4834 106.08 93.2034 109.05 98.4634 115.62C113.793 130.07 115.323 143.91 113.793 159.2C113.473 162.37 113.363 165.65 113.383 168.9C116.293 173.16 120.453 179.36 123.653 184.6C129.123 193.58 136.793 193.14 142.483 189.2C148.173 185.26 146.643 172.56 146.643 164.45Z" fill="#90D6FF"/>
<path d="M105.143 210.27C105.9 210.27 106.513 209.657 106.513 208.9C106.513 208.144 105.9 207.53 105.143 207.53C104.387 207.53 103.773 208.144 103.773 208.9C103.773 209.657 104.387 210.27 105.143 210.27Z" fill="#071E2B"/>
<path d="M42.8434 167.52C41.5234 163.31 40.3834 159.12 39.9934 154.71C41.7034 158.76 42.8834 163.11 42.8434 167.52Z" fill="#64628E"/>
<path d="M113.383 168.9C114.333 154.06 115.263 137.68 106.513 124.83C107.763 126.28 108.833 127.88 109.783 129.54C116.203 141.5 115.493 155.89 113.383 168.9Z" fill="#64628E"/>
<path d="M127.593 153.76C127.663 159.83 127.173 165.78 127.593 171.83C125.803 165.99 126.293 159.65 127.593 153.76Z" fill="#64628E"/>
<path d="M69.9035 90.0301L68.6235 85.6001C64.1935 89.3101 57.7135 90.8201 51.0535 89.7001L52.0535 93.8901C58.7935 94.8801 65.3135 93.4701 69.9035 90.0201V90.0301Z" fill="#EEB8A9"/>
<path d="M145.483 125.23L144.073 130.78L144.783 136.18H131.433V125.72L136.223 121.76L145.483 125.23Z" fill="#EEB8A9"/>
</svg>
