<svg width="275" height="28" viewBox="0 0 275 28" fill="none" xmlns="http://www.w3.org/2000/svg">
<path d="M107.025 16.5098C107.025 16.5098 107.675 10.6682 106.59 9.8518C105.504 9.0354 103.744 9.0354 103.744 9.0354C103.744 9.0354 102.254 6.99836 100.352 6.72887C100.352 6.72887 98.9962 4.55708 95.3343 5.37348C91.6724 6.18988 88.0105 7.1331 87.4636 9.43964C86.9246 11.7462 85.4265 21.107 85.9734 22.0582C86.5124 23.0093 88.28 25.0464 89.2311 23.4136C89.2311 23.4136 90.1823 25.7201 92.0766 25.1811C93.9789 24.6421 94.1137 21.654 94.1137 21.654C94.1137 21.654 96.9592 24.4995 98.7267 20.8376C100.486 17.1756 102.103 16.5336 102.103 16.5336L107.033 16.5098H107.025Z" fill="#D99D89"/>
<path d="M100.677 10.5889C99.6938 11.1992 98.7664 11.8729 97.9263 12.6021C97.5141 12.9747 97.1019 13.3551 96.7611 13.7752C96.4044 14.1874 96.0953 14.6312 95.8813 15.1147C95.4374 16.0976 95.1283 17.2152 94.843 18.3011C94.5735 19.4028 94.3674 20.5284 94.1217 21.6618C94.0662 20.5125 94.0662 19.3394 94.2406 18.1901C94.407 17.0329 94.6765 15.8994 95.1679 14.7898C95.699 13.6563 96.5947 12.8003 97.5537 12.1186C98.5128 11.4291 99.5828 10.9297 100.685 10.5889H100.677Z" fill="#B27666"/>
<path d="M95.5879 8.86084C94.2484 9.36019 93.0436 10.1607 92.2113 11.2229C91.8071 11.7618 91.4821 12.3484 91.3077 12.9983C91.1254 13.6562 90.9669 14.3537 90.8322 15.0433C90.5468 16.4225 90.309 17.8254 90.0475 19.2283C89.8018 20.6313 89.5243 22.0263 89.2152 23.4292C89.2152 20.5599 89.5085 17.7144 90.0554 14.8848C90.206 14.1793 90.3645 13.4818 90.5944 12.7764C90.8322 12.0551 91.2205 11.3814 91.7358 10.8265C92.7582 9.70894 94.1612 9.059 95.58 8.86084H95.5879Z" fill="#B27666"/>
<path d="M0.600172 16.5098C0.600172 16.5098 -0.0497783 10.6682 1.03611 9.8518C2.12201 9.0354 3.88163 9.0354 3.88163 9.0354C3.88163 9.0354 5.37176 6.99836 7.27406 6.72887C7.27406 6.72887 8.62944 4.55708 12.2914 5.37348C15.9533 6.18988 19.6152 7.1331 20.1621 9.43964C20.7011 11.7462 22.1991 21.107 21.6522 22.0582C21.1132 23.0093 19.3457 25.0464 18.3946 23.4136C18.3946 23.4136 17.4434 25.7201 15.549 25.1811C13.6467 24.6421 13.512 21.654 13.512 21.654C13.512 21.654 10.6665 24.4995 8.89893 20.8376C7.13931 17.1756 5.52236 16.5336 5.52236 16.5336L0.592246 16.5098H0.600172Z" fill="#D99D89"/>
<path d="M6.94897 10.5889C8.05865 10.9218 9.12076 11.4291 10.0798 12.1186C11.031 12.8003 11.9346 13.6563 12.4656 14.7898C12.9491 15.8994 13.2265 17.0329 13.393 18.1901C13.5674 19.3473 13.5674 20.5125 13.5119 21.6618C13.2583 20.5284 13.0601 19.4028 12.7906 18.3011C12.5132 17.2152 12.2041 16.1055 11.7523 15.1147C11.5462 14.6312 11.2291 14.1874 10.8725 13.7752C10.5316 13.3472 10.1195 12.9747 9.7073 12.6021C8.8592 11.8729 7.93183 11.2071 6.9569 10.5889H6.94897Z" fill="#B27666"/>
<path d="M12.0376 8.86084C13.4564 9.059 14.8593 9.70894 15.8818 10.8265C16.397 11.3735 16.7854 12.0551 17.0232 12.7764C17.253 13.4818 17.4116 14.1793 17.5622 14.8848C18.1091 17.7065 18.4024 20.5599 18.4024 23.4292C18.1012 22.0263 17.8237 20.6313 17.5701 19.2283C17.3085 17.8333 17.0707 16.4304 16.7854 15.0433C16.6586 14.3537 16.5001 13.6562 16.3098 12.9983C16.1434 12.3563 15.8184 11.7618 15.4062 11.2229C14.574 10.1607 13.3692 9.35227 12.0297 8.86084H12.0376Z" fill="#B27666"/>
<path d="M248.063 14.5203C248.063 14.5203 247.243 7.15033 248.613 6.12033C249.983 5.09033 252.203 5.09033 252.203 5.09033C252.203 5.09033 254.083 2.52033 256.483 2.18033C256.483 2.18033 258.193 -0.559676 262.813 0.470324C267.433 1.50032 272.053 2.69033 272.743 5.60033C273.423 8.51033 275.313 20.3203 274.623 21.5203C273.943 22.7203 271.713 25.2903 270.513 23.2303C270.513 23.2303 269.313 26.1403 266.923 25.4603C264.523 24.7803 264.353 21.0103 264.353 21.0103C264.353 21.0103 260.763 24.6003 258.533 19.9803C256.313 15.3603 254.273 14.5503 254.273 14.5503L248.053 14.5203H248.063Z" fill="#FFD9C0"/>
<path d="M256.083 7.05029C262.953 9.07029 264.753 14.3903 264.363 21.0203C264.043 19.5903 263.793 18.1703 263.453 16.7803C262.893 14.7503 262.453 12.6703 261.033 11.0703C259.653 9.4503 257.903 8.21029 256.083 7.05029Z" fill="#CC967A"/>
<path d="M262.493 4.86035C266.593 5.40035 268.943 8.48035 269.463 12.4604C270.153 16.0203 270.523 19.6203 270.523 23.2403C270.143 21.4703 269.793 19.7103 269.473 17.9403C268.973 15.3203 268.583 12.6503 267.883 10.0903C267.163 7.54035 264.963 5.80035 262.493 4.87035V4.86035Z" fill="#CC967A"/>
<path d="M238.824 17.4526C238.824 17.4526 239.566 10.7823 238.326 9.85006C237.086 8.91784 235.077 8.91784 235.077 8.91784C235.077 8.91784 233.375 6.59181 231.203 6.28409C231.203 6.28409 229.656 3.80421 225.474 4.73643C221.293 5.66865 217.111 6.74567 216.487 9.37942C215.871 12.0132 214.161 22.702 214.785 23.7881C215.41 24.8742 217.419 27.2002 218.505 25.3358C218.505 25.3358 219.591 27.9695 221.754 27.3541C223.927 26.7386 224.08 23.3265 224.08 23.3265C224.08 23.3265 227.33 26.5757 229.348 22.3943C231.357 18.2129 233.204 17.4798 233.204 17.4798L238.833 17.4526H238.824Z" fill="#CC6F4C"/>
<path d="M231.574 10.6919C230.452 11.3888 229.393 12.1581 228.434 12.9908C227.963 13.4162 227.492 13.8506 227.103 14.3303C226.696 14.8009 226.343 15.3077 226.099 15.8598C225.592 16.9821 225.23 18.2583 224.913 19.4982C224.605 20.7563 224.37 22.0414 224.08 23.3357C224.017 22.0233 224.017 20.6839 224.216 19.3715C224.406 18.0501 224.714 16.7559 225.275 15.4888C225.881 14.1945 226.904 13.217 227.999 12.4387C229.094 11.6513 230.316 11.0811 231.574 10.6919Z" fill="#A55337"/>
<path d="M225.764 8.70947C224.234 9.27967 222.858 10.1938 221.908 11.4066C221.447 12.022 221.075 12.6918 220.876 13.4339C220.668 14.1851 220.487 14.9816 220.333 15.769C220.007 17.3438 219.736 18.9458 219.437 20.5478C219.157 22.1497 218.84 23.7426 218.487 25.3446C218.487 22.0683 218.822 18.8191 219.446 15.588C219.618 14.7825 219.799 13.986 220.062 13.1805C220.333 12.3569 220.777 11.5876 221.365 10.954C222.533 9.67789 224.135 8.93574 225.755 8.70947H225.764Z" fill="#A55337"/>
<path d="M117.3 17.4526C117.3 17.4526 116.558 10.7823 117.798 9.85006C119.038 8.91784 121.047 8.91784 121.047 8.91784C121.047 8.91784 122.749 6.59181 124.921 6.28409C124.921 6.28409 126.469 3.80421 130.65 4.73643C134.832 5.66865 139.013 6.74567 139.637 9.37942C140.253 12.0132 141.964 22.702 141.339 23.7881C140.724 24.8742 138.705 27.2002 137.619 25.3358C137.619 25.3358 136.533 27.9695 134.37 27.3541C132.198 26.7386 132.044 23.3265 132.044 23.3265C132.044 23.3265 128.795 26.5757 126.776 22.3943C124.767 18.2129 122.921 17.4798 122.921 17.4798L117.291 17.4526H117.3Z" fill="#CC6F4C"/>
<path d="M124.55 10.6919C125.817 11.072 127.03 11.6513 128.125 12.4387C129.211 13.217 130.243 14.1945 130.849 15.4888C131.401 16.7559 131.718 18.0501 131.908 19.3715C132.107 20.6929 132.107 22.0233 132.044 23.3357C131.754 22.0414 131.528 20.7563 131.211 19.4982C130.894 18.2583 130.541 16.9912 130.026 15.8598C129.79 15.3077 129.428 14.8009 129.021 14.3303C128.632 13.8415 128.161 13.4162 127.691 12.9908C126.722 12.1581 125.663 11.3978 124.55 10.6919Z" fill="#A55337"/>
<path d="M130.36 8.70947C131.98 8.93574 133.582 9.67789 134.75 10.954C135.338 11.5785 135.782 12.3569 136.053 13.1805C136.316 13.986 136.497 14.7825 136.669 15.588C137.293 18.81 137.628 22.0683 137.628 25.3446C137.284 23.7426 136.967 22.1497 136.678 20.5478C136.379 18.9548 136.108 17.3529 135.782 15.769C135.637 14.9816 135.456 14.1851 135.239 13.4339C135.049 12.7008 134.678 12.022 134.207 11.4066C133.257 10.1938 131.881 9.27061 130.351 8.70947H130.36Z" fill="#A55337"/>
</svg>
