<svg width="28" height="26" viewBox="0 0 28 26" fill="none" xmlns="http://www.w3.org/2000/svg">
<path d="M27.5234 14.49C27.5234 14.49 28.3434 7.12004 26.9734 6.09004C25.6034 5.06005 23.3834 5.06005 23.3834 5.06005C23.3834 5.06005 21.5034 2.49005 19.1034 2.15005C19.1034 2.15005 17.3934 -0.589949 12.7734 0.440051C8.15336 1.47005 3.53335 2.66005 2.84335 5.57005C2.16335 8.48005 0.273351 20.2901 0.963351 21.4901C1.64335 22.6901 3.87335 25.26 5.07335 23.2C5.07335 23.2 6.27336 26.11 8.66336 25.43C11.0634 24.75 11.2333 20.98 11.2333 20.98C11.2333 20.98 14.8234 24.57 17.0534 19.95C19.2734 15.33 21.3133 14.52 21.3133 14.52L27.5333 14.49H27.5234Z" fill="#FFD9C0"/>
<path d="M19.5134 7.01025C17.1834 8.55025 14.7134 10.1903 13.4534 12.7303C12.8934 13.9703 12.5034 15.3803 12.1434 16.7503C11.8034 18.1403 11.5434 19.5603 11.2234 20.9903C10.8334 14.3603 12.6434 9.04025 19.5034 7.02025L19.5134 7.01025Z" fill="#CC967A"/>
<path d="M13.0934 4.82983C10.6234 5.75983 8.41335 7.49983 7.70335 10.0498C7.01335 12.6098 6.62336 15.2798 6.11336 17.8998C5.80336 19.6698 5.45335 21.4298 5.06335 23.1998C5.06335 19.5798 5.43336 15.9898 6.12336 12.4198C6.63336 8.43982 8.99335 5.34982 13.0934 4.81982V4.82983Z" fill="#CC967A"/>
</svg>
