<svg width="96" height="82" viewBox="0 0 96 82" fill="none" xmlns="http://www.w3.org/2000/svg">
<path d="M17.3591 0.00999451C17.3591 0.00999451 14.5091 3.84 11.3391 19.88C8.15912 35.92 -0.810883 64.61 0.0591175 69.86C0.939117 75.12 15.6091 78.62 31.5891 79.93C47.5791 81.24 54.1591 83.31 57.4291 79.93C59.1791 77.52 59.6191 65.7 59.3991 62.85C59.1791 60 57.8691 56.72 54.7991 57.16C51.7291 57.6 31.3691 55.19 31.3691 55.19C31.3691 55.19 31.5791 52.78 29.7191 52.34L34.2091 36.57C34.2091 36.57 33.0091 26.17 29.8291 16.64C26.6491 7.11 22.4891 2.19 17.3491 0L17.3591 0.00999451Z" fill="#90D6FF"/>
<path d="M59.399 62.8602L65.6391 59.0302C65.6391 59.0302 68.2691 56.7302 70.2391 57.1702C72.2091 57.6102 76.9191 61.5502 76.9191 61.5502C76.9191 61.5502 90.4991 61.3302 92.3591 61.8802C94.2191 62.4302 95.639 63.1902 95.969 64.9502C96.299 66.7002 93.9991 67.3602 91.479 67.5802C88.959 67.8002 82.1691 68.1302 82.1691 68.1302C82.1691 68.1302 82.279 70.7602 81.619 71.6302C80.959 72.5102 81.1791 74.0302 80.5291 76.6102C79.8691 79.1902 79.1091 81.7702 75.9291 81.7902C72.7491 81.8102 63.6191 81.8502 58.2791 77.7302C58.2791 77.7302 59.509 71.2002 59.399 62.8702V62.8602Z" fill="#FFD9C0"/>
<path d="M29.7191 52.3501C28.4691 52.4501 27.2991 52.6201 26.1591 52.9501C25.0091 53.2601 23.9591 53.7601 22.8291 54.3201C23.2091 53.8201 23.6691 53.3601 24.2091 53.0201C24.7391 52.6601 25.3391 52.4101 25.9591 52.2301C27.1891 51.8901 28.5391 51.8701 29.7191 52.3501Z" fill="#64628E"/>
<path d="M31.3691 55.1902C30.5091 55.7702 29.6591 56.2302 28.8191 56.7302C27.9691 57.2102 27.1791 57.7302 26.2691 58.2502C26.7391 57.3102 27.5591 56.6002 28.4391 56.0802C29.3291 55.5702 30.3191 55.2002 31.3691 55.1802V55.1902Z" fill="#64628E"/>
</svg>
