<svg width="77" height="99" viewBox="0 0 77 99" fill="none" xmlns="http://www.w3.org/2000/svg">
<path d="M27.1534 73.7002L20.2434 74.5502C20.2434 74.5502 16.9234 74.4002 15.7234 75.8902C14.5134 77.3802 13.3534 83.1102 13.3534 83.1102C13.3534 83.1102 3.13343 91.0002 2.07343 92.5102C1.01343 94.0202 0.413431 95.4302 1.20343 96.9302C1.99343 98.4302 4.09343 97.5502 6.10343 96.2202C8.10343 94.8902 13.3434 91.1102 13.3434 91.1102C13.3434 91.1102 14.8234 93.1302 15.8234 93.3902C16.8334 93.6502 17.5734 94.9102 19.5834 96.4402C21.6034 97.9702 23.7034 99.4302 26.0734 97.5702C28.4434 95.7002 35.2634 90.3202 36.7834 84.0802C36.7834 84.0802 31.9934 79.9502 27.1434 73.7002H27.1534Z" fill="#FFD9C0"/>
<path d="M49.1135 0.0902267C49.1135 0.0902267 55.5935 -1.42977 61.0235 8.11023C64.5135 14.2402 71.9735 44.2202 74.6035 52.1002C77.2335 59.9802 76.6235 62.6102 73.3135 64.8002C70.0035 66.9902 35.8435 86.9202 35.8435 86.9202C35.8435 86.9202 29.2735 81.2302 27.0835 73.1202C27.0835 73.1202 37.5935 65.6702 42.4135 60.8602C47.2335 56.0402 53.3035 51.6602 53.3035 51.6602C53.3035 51.6602 46.7035 34.4502 45.7435 24.4102C44.7835 14.3702 45.1135 3.70023 49.1135 0.0902267Z" fill="#E13636"/>
<path d="M53.2935 51.6605C55.8535 50.5205 59.1335 50.6605 61.4535 52.3205C58.6735 52.0005 56.1135 51.9005 53.2935 51.6605Z" fill="#64628E"/>
</svg>
