<svg width="357" height="240" viewBox="0 0 357 240" fill="none" xmlns="http://www.w3.org/2000/svg">
<path d="M328.573 26.4602C328.573 26.4602 315.903 20.9902 300.793 25.2602C285.683 29.5302 280.763 50.3502 262.033 69.6702C243.313 88.9902 252.503 96.5402 257.763 99.5002C263.023 102.46 266.963 104.1 270.243 110.34C273.523 116.58 281.083 120.86 294.553 120.36C308.023 119.86 323.983 129.72 330.783 132.67C337.583 135.63 349.403 136.94 354.333 130.37C359.263 123.8 352.363 106.39 352.363 88.3202C352.363 70.2502 357.883 53.3902 346.583 40.1402C335.283 26.8902 328.573 26.4502 328.573 26.4502V26.4602Z" fill="#6E2A2C"/>
<path d="M338.653 73.06C338.653 73.06 332.604 95.24 320.503 101.29C308.403 107.34 294.403 103.71 290.453 93.2C286.513 82.69 287.383 66.7 288.263 57.72C288.263 57.72 310.823 53.56 320.893 37.79C320.893 37.79 325.493 65.82 338.653 73.05V73.06Z" fill="#FFD9C0"/>
<path d="M280.694 57.0202C283.574 53.8402 287.424 57.8102 288.184 58.6602C287.694 63.9102 287.274 71.1902 287.714 78.3702C286.234 78.3202 283.414 77.7102 280.694 74.3402C276.764 69.4802 277.484 60.5602 280.694 57.0102V57.0202Z" fill="#FFD9C0"/>
<path d="M338.653 73.0603C338.653 73.0603 344.983 70.2103 346.303 74.8103C347.613 79.4103 344.333 87.7303 338.653 90.3603C334.913 92.0903 332.213 91.5403 330.793 90.9703C336.033 82.6803 338.653 73.0703 338.653 73.0703V73.0603Z" fill="#FFD9C0"/>
<path d="M320.783 74.6701C320.093 76.9801 320.593 79.1701 321.893 79.5501C323.193 79.9401 324.813 78.3801 325.503 76.0701C326.193 73.7601 325.693 71.5701 324.393 71.1901C323.093 70.8001 321.473 72.3601 320.783 74.6701Z" fill="black"/>
<path d="M298.433 68.0105C297.743 70.3205 298.243 72.5105 299.543 72.8905C300.843 73.2805 302.463 71.7205 303.153 69.4105C303.843 67.1005 303.343 64.9105 302.043 64.5305C300.743 64.1405 299.123 65.7005 298.433 68.0105Z" fill="black"/>
<path d="M312.023 67.0903C312.023 67.0903 311.363 71.4203 308.523 74.9303C305.673 78.4303 304.583 83.6903 309.723 85.3303" stroke="#CC967A" stroke-linecap="round" stroke-linejoin="round"/>
<path d="M315.243 93.4303C315.243 93.4303 307.973 98.6903 302.833 92.0103" stroke="#CC967A" stroke-linecap="round" stroke-linejoin="round"/>
<path d="M328.564 69.6702C328.564 69.6702 329.004 65.5102 324.844 64.2002" stroke="#6E2A2C" stroke-linecap="round" stroke-linejoin="round"/>
<path d="M305.133 58.0602C305.133 58.0602 300.423 57.0702 298.013 60.3602" stroke="#6E2A2C" stroke-linecap="round" stroke-linejoin="round"/>
<path d="M323.143 121.5C312.863 118.3 311.313 118.22 310.983 115.26C310.653 112.3 310.993 104.08 310.993 104.08C304.943 104.7 299.173 103.15 295.123 99.7603C295.123 99.7603 295.363 110.99 295.123 113.78C294.883 116.57 290.453 120.35 280.433 123.8L270.413 127.25C270.413 127.25 284.853 153.69 306.123 165.35C306.123 165.35 324.613 150.4 336.103 127.08C336.103 127.08 333.563 124.74 323.133 121.5H323.143Z" fill="#FFD9C0"/>
<path d="M334.793 156.49L336.103 127.09C324.603 150.41 306.123 165.36 306.123 165.36C284.843 153.7 270.413 127.26 270.413 127.26C270.413 127.26 262.693 128.35 259.243 132.57C255.793 136.79 253.283 150.42 250.813 169.47C248.353 188.52 245.323 210.89 254.393 213.92C266.293 217.91 271.883 188.85 271.883 188.85L274.673 194.76C274.673 194.76 293.393 194.92 304.733 182.77C304.733 182.77 320.333 195.66 328.383 197.59C328.383 197.59 334.133 188.19 336.103 178.66C338.073 169.13 334.793 156.49 334.793 156.49Z" fill="#E13636"/>
<path d="M274.683 194.76C274.683 194.76 277.473 210.86 279.223 218.52C279.223 218.52 304.403 223.78 322.803 218.52L328.383 197.59C320.333 195.66 304.733 182.77 304.733 182.77C293.403 194.92 274.673 194.76 274.673 194.76H274.683Z" fill="#FFD9C0"/>
<path d="M310.093 183.14C310.093 185.5 308.173 187.42 305.813 187.42C303.453 187.42 301.533 185.5 301.533 183.14C301.533 180.78 303.453 178.86 305.813 178.86C308.173 178.86 310.093 180.78 310.093 183.14Z" fill="#133E5E"/>
<path d="M303.813 183.72C303.813 183.72 295.873 185.31 292.873 191.72C290.323 197.16 292.263 200.34 295.463 199.44C298.663 198.54 302.633 192.72 303.813 183.72Z" fill="#133E5E"/>
<path d="M306.463 183.72C306.463 183.72 314.403 185.31 317.403 191.72C319.953 197.16 318.013 200.34 314.813 199.44C311.613 198.54 307.643 192.72 306.463 183.72Z" fill="#133E5E"/>
<path d="M303.754 226.13C303.754 227.13 302.944 227.94 301.944 227.94C300.944 227.94 300.134 227.13 300.134 226.13C300.134 225.13 300.944 224.32 301.944 224.32C302.944 224.32 303.754 225.13 303.754 226.13Z" fill="#404263"/>
<path d="M310.844 112.05C310.814 108.52 310.994 104.09 310.994 104.09C304.944 104.71 299.174 103.16 295.124 99.77C295.124 99.77 295.204 103.75 295.224 107.56C298.344 108.9 303.554 110.74 310.844 112.06V112.05Z" fill="#EEB8A9"/>
<path d="M28.1713 71.52C28.1713 71.52 22.7973 65.0997 28.1713 59.0282C33.5453 52.9567 43.6512 50.3569 54.526 50.7929C65.4087 51.2288 76.4578 53.8286 80.1435 60.1141C80.1435 60.1141 86.0644 61.6914 86.2467 71.52C86.429 81.3564 82.9653 96.3291 82.9653 96.3291L33.5373 90.4716L28.1713 71.52Z" fill="#000B3D"/>
<path d="M111.524 177.715C107.354 157 104.231 151.014 99.3727 147.691C94.5139 144.367 64.4894 131.382 64.4894 131.382L55.9687 132.134L48.4071 131.085C48.4071 131.085 18.4776 144.374 13.6188 147.697C8.76007 151.021 5.63714 157 1.46794 177.722C-2.70125 198.437 2.50628 212.939 10.8447 212.028L19.1751 211.125L17.0905 236.86H95.901L93.8164 211.125L102.147 212.028C110.477 212.932 115.685 198.437 111.524 177.722V177.715Z" fill="#003071"/>
<path d="M32.9905 73.4538C32.9905 73.4538 31.326 100.355 40.8692 114.242C50.4123 128.129 67.4299 122.398 72.8039 114.94C78.1858 107.473 80.2704 88.3788 78.3602 74.1513C78.3602 74.1513 64.9966 76.7511 56.8405 65.8208C56.8405 65.8208 45.7676 74.3256 32.9905 73.4617V73.4538Z" fill="#D99D89"/>
<path d="M33.5375 90.4717C32.515 81.1664 32.9906 73.4541 32.9906 73.4541C31.0962 72.9706 29.511 72.2969 28.1794 71.5122C28.1794 71.5122 24.7869 77.9642 28.9323 91.2168C30.9932 89.5285 33.5454 90.4638 33.5454 90.4638L33.5375 90.4717Z" fill="#000B3D"/>
<path d="M33.5374 90.4716C33.5374 90.4716 29.7646 89.0766 27.68 92.7227C25.5954 96.3687 26.9825 107.489 37.3103 107.307C35.2574 101.981 34.1319 95.9566 33.5295 90.4716H33.5374Z" fill="#D99D89"/>
<path d="M85.3511 92.7227C83.2665 89.0766 79.4937 90.4716 79.4937 90.4716C79.4937 90.4716 79.2559 90.757 78.8675 91.2405C78.5029 97.0583 77.6151 102.702 76.2518 107.299C86.0883 107.085 87.404 96.3053 85.3511 92.7227Z" fill="#D99D89"/>
<path d="M47.4638 88.7277C47.4638 91.1215 46.4175 93.0634 45.1176 93.0634C43.8177 93.0634 42.7715 91.1215 42.7715 88.7277C42.7715 86.334 43.8177 84.3921 45.1176 84.3921C46.4175 84.3921 47.4638 86.334 47.4638 88.7277Z" fill="black"/>
<path d="M69.1738 88.7277C69.1738 91.1215 68.1275 93.0634 66.8276 93.0634C65.5277 93.0634 64.4814 91.1215 64.4814 88.7277C64.4814 86.334 65.5277 84.3921 66.8276 84.3921C68.1275 84.3921 69.1738 86.334 69.1738 88.7277Z" fill="black"/>
<path d="M55.9686 81.7607C55.9686 81.7607 53.3688 92.6989 52.8457 96.3371C52.3226 99.9831 56.2619 100.673 56.2619 100.673" stroke="#B27666" stroke-miterlimit="10" stroke-linecap="round"/>
<path d="M54.5261 109.518C54.5261 109.518 60.8275 112.696 62.3889 107.307" stroke="#B27666" stroke-miterlimit="10" stroke-linecap="round"/>
<path d="M40.5204 79.8743C40.5204 79.8743 41.7331 75.5386 47.4638 75.3643" stroke="#000B3D" stroke-miterlimit="10" stroke-linecap="round"/>
<path d="M63.7839 76.5771C63.7839 76.5771 68.6427 76.2601 70.7273 81.3646" stroke="#000B3D" stroke-miterlimit="10" stroke-linecap="round"/>
<path d="M64.4893 121.059C59.6385 123.025 53.7334 123.492 48.4229 120.924H48.407V131.078L48.0186 131.775C46.7029 134.145 46.7108 137.038 48.0345 139.4L49.2551 141.58C52.5366 147.43 61.0731 147.049 63.8156 140.93L65.3454 137.522C66.2569 135.493 65.924 133.123 64.4893 131.427V121.059Z" fill="#D99D89"/>
<path d="M19.175 223.077C23.0272 220.279 24.6917 215.46 26.2135 211.132C26.4275 210.49 26.6178 209.832 26.8556 209.19C26.269 214.35 24.2716 220.771 19.175 223.077Z" fill="#004197"/>
<path d="M26.8557 173.776C26.7843 179.737 26.3167 185.681 25.746 191.61C25.0168 197.515 24.4144 203.515 22.528 209.182C22.6706 208.445 22.8529 207.732 22.9797 206.995C24.7949 195.993 25.5082 184.833 26.8557 173.768V173.776Z" fill="#004197"/>
<path d="M93.9273 223.077C88.8387 220.771 86.8334 214.35 86.2468 209.19C86.4846 209.832 86.6748 210.49 86.8889 211.132C88.4107 215.46 90.0673 220.279 93.9273 223.077Z" fill="#004197"/>
<path d="M86.2468 173.776C87.5943 184.841 88.3076 196.002 90.1228 207.003C90.2575 207.732 90.4319 208.454 90.5745 209.191C88.6881 203.516 88.0857 197.523 87.3565 191.618C86.7779 185.689 86.3182 179.745 86.2468 173.784V173.776Z" fill="#004197"/>
<path d="M64.4893 125.553V121.067C59.6384 123.033 53.7334 123.5 48.4228 120.932H48.407V125.434C53.7413 127.844 59.5909 127.432 64.4972 125.561L64.4893 125.553Z" fill="#AF7768"/>
<path d="M243.534 155.783C238.774 128.595 235.208 120.739 229.66 116.376C224.112 112.014 202.598 101.705 202.598 101.705H158.793C158.793 101.705 137.288 112.014 131.731 116.376C126.183 120.739 122.617 128.586 117.857 155.783C113.096 182.971 119.042 202.005 128.564 200.81L138.076 199.624L135.696 233.402H225.686L223.306 199.624L232.818 200.81C242.331 201.996 248.277 182.971 243.525 155.783H243.534Z" fill="#576AB9"/>
<path d="M153.86 28.7837C153.86 28.7837 151.96 59.5017 162.857 75.3585C173.754 91.2153 193.185 84.6716 199.322 76.1549C205.467 67.6292 207.847 45.8261 205.666 29.5801C205.666 29.5801 190.407 32.5488 181.094 20.0679C181.094 20.0679 168.45 29.7793 153.86 28.7927V28.7837Z" fill="#CC6F4C"/>
<path d="M205.666 29.5713C206.481 35.6352 206.653 42.4685 206.236 49.0936C206.68 48.5325 206.96 48.2066 206.96 48.2066C206.96 48.2066 209.676 47.2111 211.984 48.8854C213.531 44.8579 216.871 34.9745 216.563 25.2089C216.165 12.5198 207.648 8.95384 201.503 10.9359C201.503 10.9359 194.362 -0.757546 180.089 0.0389141C165.825 0.835374 151.95 9.15295 151.95 9.15295C151.95 9.15295 144.221 7.17085 142.438 12.7189C140.655 18.267 143.072 25.9963 153.851 28.7748C168.441 29.7704 181.085 20.05 181.085 20.05C186.669 27.5349 194.389 29.4627 199.684 29.8066C203.349 29.6708 205.666 29.5622 205.666 29.5622V29.5713Z" fill="#1F1F1F"/>
<path d="M154.485 48.2068C153.317 37.5813 153.86 28.775 153.86 28.775C151.697 28.2229 149.887 27.4536 148.367 26.5576C148.367 26.5576 144.493 33.9249 149.226 49.0576C151.579 47.1298 154.494 48.1978 154.494 48.1978L154.485 48.2068Z" fill="#1F1F1F"/>
<path d="M154.485 48.2066C154.485 48.2066 150.177 46.6136 147.796 50.777C145.416 54.9403 147 67.6384 158.793 67.4302C156.449 61.3482 155.164 54.4696 154.476 48.2066H154.485Z" fill="#CC6F4C"/>
<path d="M213.649 50.777C211.269 46.6136 206.961 48.2066 206.961 48.2066C206.961 48.2066 206.689 48.5324 206.246 49.0845C205.829 55.7277 204.816 62.1718 203.259 67.4212C214.491 67.1768 215.993 54.8679 213.649 50.777Z" fill="#CC6F4C"/>
<path d="M194.769 60.9499C189.022 61.2124 183.818 64.4254 179.247 62.8415C174.686 61.2576 170.387 60.0992 165.237 60.8866C160.522 61.6106 156.15 55.8725 155.435 54.895C156.738 62.2261 158.983 69.7291 162.857 75.3496C173.754 91.2064 193.185 84.6627 199.322 76.146C202.218 72.1275 204.282 65.1494 205.422 57.1939C203.467 58.3795 199.068 60.7599 194.769 60.9499Z" fill="#1F1F1F"/>
<path d="M170.387 46.2246C170.387 48.958 169.192 51.1754 167.708 51.1754C166.223 51.1754 165.029 48.958 165.029 46.2246C165.029 43.4913 166.223 41.2739 167.708 41.2739C169.192 41.2739 170.387 43.4913 170.387 46.2246Z" fill="black"/>
<path d="M195.176 46.2246C195.176 48.958 193.982 51.1754 192.497 51.1754C191.013 51.1754 189.818 48.958 189.818 46.2246C189.818 43.4913 191.013 41.2739 192.497 41.2739C193.982 41.2739 195.176 43.4913 195.176 46.2246Z" fill="black"/>
<path d="M180.098 38.269C180.098 38.269 177.13 50.759 176.532 54.9132C175.935 59.0766 180.433 59.864 180.433 59.864" stroke="#A55337" stroke-miterlimit="10" stroke-linecap="round"/>
<path d="M178.451 69.9553C178.451 69.9553 185.646 73.5846 187.429 67.4302" stroke="#A55337" stroke-miterlimit="10" stroke-linecap="round"/>
<path d="M162.458 36.1147C162.458 36.1147 163.843 31.164 170.387 30.9648" stroke="#433832" stroke-miterlimit="10" stroke-linecap="round"/>
<path d="M189.022 32.3496C189.022 32.3496 194.57 31.9876 196.95 37.8162" stroke="#433832" stroke-miterlimit="10" stroke-linecap="round"/>
<path d="M189.827 83.1421C184.288 85.3867 177.546 85.9207 171.482 82.9883H171.464V94.5822L168.604 99.732L181.483 122.721L192.497 98.1482L189.818 94.9804V83.1421H189.827Z" fill="#CC6F4C"/>
<path d="M171.464 90.021C171.464 90.021 160.883 91.804 158.802 101.714C158.802 101.714 159.091 112.421 162.069 119.354C162.069 119.354 163.155 105.67 171.826 105.48L168.604 99.7324L171.464 94.5825V90.021Z" fill="#465697"/>
<path d="M189.828 94.9808L192.507 98.1485L188.606 106.855C188.606 106.855 197.946 111.227 198.933 119.354C198.933 119.354 202.761 111.073 202.164 101.561C202.227 97.3973 196.19 90.3649 189.837 91.1614V94.9808H189.828Z" fill="#465697"/>
<path d="M138.085 199.624C142.483 196.429 144.384 190.927 146.122 185.985C146.366 185.252 146.583 184.501 146.855 183.768C146.185 189.66 143.904 196.991 138.085 199.624Z" fill="#1E1C3F"/>
<path d="M146.855 143.338C146.774 150.144 146.24 156.932 145.588 163.702C144.755 170.445 144.068 177.296 141.913 183.768C142.076 182.926 142.285 182.111 142.429 181.27C144.502 168.707 145.317 155.964 146.855 143.329V143.338Z" fill="#1E1C3F"/>
<path d="M223.442 199.624C217.631 196.991 215.341 189.66 214.672 183.768C214.943 184.501 215.16 185.252 215.405 185.985C217.142 190.927 219.034 196.429 223.442 199.624Z" fill="#1E1C3F"/>
<path d="M214.672 143.338C216.21 155.973 217.025 168.716 219.097 181.279C219.251 182.111 219.45 182.935 219.613 183.777C217.459 177.297 216.771 170.454 215.939 163.711C215.278 156.942 214.753 150.154 214.672 143.347V143.338Z" fill="#1E1C3F"/>
<path d="M181.483 122.73V142.153H187.04V110.349L181.483 122.73Z" fill="#465697"/>
<path d="M176.233 237.927C176.233 238.615 175.681 239.167 174.993 239.167C174.306 239.167 173.753 238.615 173.753 237.927C173.753 237.239 174.306 236.687 174.993 236.687C175.681 236.687 176.233 237.239 176.233 237.927Z" fill="#873F2E"/>
<path d="M189.828 88.2648V83.1421C184.289 85.3867 177.546 85.9207 171.482 82.9883H171.464V88.1291C177.555 90.8805 184.234 90.4098 189.837 88.2739L189.828 88.2648Z" fill="#B55E43"/>
</svg>
