<svg width="371" height="134" viewBox="0 0 371 134" fill="none" xmlns="http://www.w3.org/2000/svg">
<g filter="url(#filter0_d_84_132)">
<path d="M38.3578 69.7431C57.1603 69.7431 72.4028 54.5006 72.4028 35.698C72.4028 34.9055 72.3758 34.1194 72.3225 33.3404C71.7401 24.826 77.4129 13.6045 85.9472 13.6045H339.623C347.28 13.6045 353.487 19.8116 353.487 27.4685V98.5224C353.487 106.179 347.28 112.386 339.623 112.386H31.8196C24.1627 112.386 17.9556 106.179 17.9556 98.5224V82.9506C17.9556 74.711 28.2475 69.2435 36.4749 69.6919C37.0982 69.7259 37.726 69.7431 38.3578 69.7431Z" fill="white"/>
<path d="M38.3578 70.2431C57.4365 70.2431 72.9028 54.7768 72.9028 35.698C72.9028 34.8942 72.8754 34.0966 72.8213 33.3063C72.5377 29.1603 73.7804 24.33 76.1404 20.5441C78.5032 16.7536 81.9194 14.1045 85.9472 14.1045H339.623C347.003 14.1045 352.987 20.0877 352.987 27.4685V98.5224C352.987 105.903 347.003 111.886 339.623 111.886H31.8196C24.4389 111.886 18.4556 105.903 18.4556 98.5224V82.9506C18.4556 79.0588 20.8855 75.7684 24.4025 73.4825C27.918 71.1975 32.4434 69.9729 36.4477 70.1912C37.08 70.2257 37.7169 70.2431 38.3578 70.2431Z" stroke="#F2F2F2"/>
</g>
<path d="M72.9514 65.2456C72.9514 64.2156 73.1814 63.2956 73.6414 62.4856C74.1114 61.6656 74.7464 61.0306 75.5464 60.5806C76.3564 60.1206 77.2614 59.8906 78.2614 59.8906C79.4314 59.8906 80.4564 60.1906 81.3364 60.7906C82.2164 61.3906 82.8314 62.2206 83.1814 63.2806H80.7664C80.5264 62.7806 80.1864 62.4056 79.7464 62.1556C79.3164 61.9056 78.8164 61.7806 78.2464 61.7806C77.6364 61.7806 77.0914 61.9256 76.6114 62.2156C76.1414 62.4956 75.7714 62.8956 75.5014 63.4156C75.2414 63.9356 75.1114 64.5456 75.1114 65.2456C75.1114 65.9356 75.2414 66.5456 75.5014 67.0756C75.7714 67.5956 76.1414 68.0006 76.6114 68.2906C77.0914 68.5706 77.6364 68.7106 78.2464 68.7106C78.8164 68.7106 79.3164 68.5856 79.7464 68.3356C80.1864 68.0756 80.5264 67.6956 80.7664 67.1956H83.1814C82.8314 68.2656 82.2164 69.1006 81.3364 69.7006C80.4664 70.2906 79.4414 70.5856 78.2614 70.5856C77.2614 70.5856 76.3564 70.3606 75.5464 69.9106C74.7464 69.4506 74.1114 68.8156 73.6414 68.0056C73.1814 67.1956 72.9514 66.2756 72.9514 65.2456ZM88.6651 70.6306C87.8651 70.6306 87.1451 70.4556 86.5051 70.1056C85.8651 69.7456 85.3601 69.2406 84.9901 68.5906C84.6301 67.9406 84.4501 67.1906 84.4501 66.3406C84.4501 65.4906 84.6351 64.7406 85.0051 64.0906C85.3851 63.4406 85.9001 62.9406 86.5501 62.5906C87.2001 62.2306 87.9251 62.0506 88.7251 62.0506C89.5251 62.0506 90.2501 62.2306 90.9001 62.5906C91.5501 62.9406 92.0601 63.4406 92.4301 64.0906C92.8101 64.7406 93.0001 65.4906 93.0001 66.3406C93.0001 67.1906 92.8051 67.9406 92.4151 68.5906C92.0351 69.2406 91.5151 69.7456 90.8551 70.1056C90.2051 70.4556 89.4751 70.6306 88.6651 70.6306ZM88.6651 68.8006C89.0451 68.8006 89.4001 68.7106 89.7301 68.5306C90.0701 68.3406 90.3401 68.0606 90.5401 67.6906C90.7401 67.3206 90.8401 66.8706 90.8401 66.3406C90.8401 65.5506 90.6301 64.9456 90.2101 64.5256C89.8001 64.0956 89.2951 63.8806 88.6951 63.8806C88.0951 63.8806 87.5901 64.0956 87.1801 64.5256C86.7801 64.9456 86.5801 65.5506 86.5801 66.3406C86.5801 67.1306 86.7751 67.7406 87.1651 68.1706C87.5651 68.5906 88.0651 68.8006 88.6651 68.8006ZM99.1455 62.0656C100.135 62.0656 100.935 62.3806 101.545 63.0106C102.155 63.6306 102.46 64.5006 102.46 65.6206V70.4956H100.36V65.9056C100.36 65.2456 100.195 64.7406 99.8655 64.3906C99.5355 64.0306 99.0855 63.8506 98.5155 63.8506C97.9355 63.8506 97.4755 64.0306 97.1355 64.3906C96.8055 64.7406 96.6405 65.2456 96.6405 65.9056V70.4956H94.5405V62.1856H96.6405V63.2206C96.9205 62.8606 97.2755 62.5806 97.7055 62.3806C98.1455 62.1706 98.6255 62.0656 99.1455 62.0656ZM109.062 62.0656C110.052 62.0656 110.852 62.3806 111.462 63.0106C112.072 63.6306 112.377 64.5006 112.377 65.6206V70.4956H110.277V65.9056C110.277 65.2456 110.112 64.7406 109.782 64.3906C109.452 64.0306 109.002 63.8506 108.432 63.8506C107.852 63.8506 107.392 64.0306 107.052 64.3906C106.722 64.7406 106.557 65.2456 106.557 65.9056V70.4956H104.457V62.1856H106.557V63.2206C106.837 62.8606 107.192 62.5806 107.622 62.3806C108.062 62.1706 108.542 62.0656 109.062 62.0656ZM122.099 66.1606C122.099 66.4606 122.079 66.7306 122.039 66.9706H115.964C116.014 67.5706 116.224 68.0406 116.594 68.3806C116.964 68.7206 117.419 68.8906 117.959 68.8906C118.739 68.8906 119.294 68.5556 119.624 67.8856H121.889C121.649 68.6856 121.189 69.3456 120.509 69.8656C119.829 70.3756 118.994 70.6306 118.004 70.6306C117.204 70.6306 116.484 70.4556 115.844 70.1056C115.214 69.7456 114.719 69.2406 114.359 68.5906C114.009 67.9406 113.834 67.1906 113.834 66.3406C113.834 65.4806 114.009 64.7256 114.359 64.0756C114.709 63.4256 115.199 62.9256 115.829 62.5756C116.459 62.2256 117.184 62.0506 118.004 62.0506C118.794 62.0506 119.499 62.2206 120.119 62.5606C120.749 62.9006 121.234 63.3856 121.574 64.0156C121.924 64.6356 122.099 65.3506 122.099 66.1606ZM119.924 65.5606C119.914 65.0206 119.719 64.5906 119.339 64.2706C118.959 63.9406 118.494 63.7756 117.944 63.7756C117.424 63.7756 116.984 63.9356 116.624 64.2556C116.274 64.5656 116.059 65.0006 115.979 65.5606H119.924ZM123.092 66.3406C123.092 65.4806 123.267 64.7306 123.617 64.0906C123.967 63.4406 124.452 62.9406 125.072 62.5906C125.692 62.2306 126.402 62.0506 127.202 62.0506C128.232 62.0506 129.082 62.3106 129.752 62.8306C130.432 63.3406 130.887 64.0606 131.117 64.9906H128.852C128.732 64.6306 128.527 64.3506 128.237 64.1506C127.957 63.9406 127.607 63.8356 127.187 63.8356C126.587 63.8356 126.112 64.0556 125.762 64.4956C125.412 64.9256 125.237 65.5406 125.237 66.3406C125.237 67.1306 125.412 67.7456 125.762 68.1856C126.112 68.6156 126.587 68.8306 127.187 68.8306C128.037 68.8306 128.592 68.4506 128.852 67.6906H131.117C130.887 68.5906 130.432 69.3056 129.752 69.8356C129.072 70.3656 128.222 70.6306 127.202 70.6306C126.402 70.6306 125.692 70.4556 125.072 70.1056C124.452 69.7456 123.967 69.2456 123.617 68.6056C123.267 67.9556 123.092 67.2006 123.092 66.3406ZM135.101 63.9106V67.9306C135.101 68.2106 135.166 68.4156 135.296 68.5456C135.436 68.6656 135.666 68.7256 135.986 68.7256H136.961V70.4956H135.641C133.871 70.4956 132.986 69.6356 132.986 67.9156V63.9106H131.996V62.1856H132.986V60.1306H135.101V62.1856H136.961V63.9106H135.101ZM156.04 60.0256L153.115 70.4956H150.64L148.675 63.0406L146.62 70.4956L144.16 70.5106L141.34 60.0256H143.59L145.435 68.1556L147.565 60.0256H149.905L151.915 68.1106L153.775 60.0256H156.04ZM158.477 61.1956C158.107 61.1956 157.797 61.0806 157.547 60.8506C157.307 60.6106 157.187 60.3156 157.187 59.9656C157.187 59.6156 157.307 59.3256 157.547 59.0956C157.797 58.8556 158.107 58.7356 158.477 58.7356C158.847 58.7356 159.152 58.8556 159.392 59.0956C159.642 59.3256 159.767 59.6156 159.767 59.9656C159.767 60.3156 159.642 60.6106 159.392 60.8506C159.152 61.0806 158.847 61.1956 158.477 61.1956ZM159.512 62.1856V70.4956H157.412V62.1856H159.512ZM164.031 63.9106V67.9306C164.031 68.2106 164.096 68.4156 164.226 68.5456C164.366 68.6656 164.596 68.7256 164.916 68.7256H165.891V70.4956H164.571C162.801 70.4956 161.916 69.6356 161.916 67.9156V63.9106H160.926V62.1856H161.916V60.1306H164.031V62.1856H165.891V63.9106H164.031ZM172.082 62.0656C172.712 62.0656 173.272 62.2056 173.762 62.4856C174.252 62.7556 174.632 63.1606 174.902 63.7006C175.182 64.2306 175.322 64.8706 175.322 65.6206V70.4956H173.222V65.9056C173.222 65.2456 173.057 64.7406 172.727 64.3906C172.397 64.0306 171.947 63.8506 171.377 63.8506C170.797 63.8506 170.337 64.0306 169.997 64.3906C169.667 64.7406 169.502 65.2456 169.502 65.9056V70.4956H167.402V59.3956H169.502V63.2206C169.772 62.8606 170.132 62.5806 170.582 62.3806C171.032 62.1706 171.532 62.0656 172.082 62.0656ZM189.218 60.0256L185.678 66.8506V70.4956H183.578V66.8506L180.023 60.0256H182.393L184.643 64.8106L186.878 60.0256H189.218ZM194.119 70.6306C193.319 70.6306 192.599 70.4556 191.959 70.1056C191.319 69.7456 190.814 69.2406 190.444 68.5906C190.084 67.9406 189.904 67.1906 189.904 66.3406C189.904 65.4906 190.089 64.7406 190.459 64.0906C190.839 63.4406 191.354 62.9406 192.004 62.5906C192.654 62.2306 193.379 62.0506 194.179 62.0506C194.979 62.0506 195.704 62.2306 196.354 62.5906C197.004 62.9406 197.514 63.4406 197.884 64.0906C198.264 64.7406 198.454 65.4906 198.454 66.3406C198.454 67.1906 198.259 67.9406 197.869 68.5906C197.489 69.2406 196.969 69.7456 196.309 70.1056C195.659 70.4556 194.929 70.6306 194.119 70.6306ZM194.119 68.8006C194.499 68.8006 194.854 68.7106 195.184 68.5306C195.524 68.3406 195.794 68.0606 195.994 67.6906C196.194 67.3206 196.294 66.8706 196.294 66.3406C196.294 65.5506 196.084 64.9456 195.664 64.5256C195.254 64.0956 194.749 63.8806 194.149 63.8806C193.549 63.8806 193.044 64.0956 192.634 64.5256C192.234 64.9456 192.034 65.5506 192.034 66.3406C192.034 67.1306 192.229 67.7406 192.619 68.1706C193.019 68.5906 193.519 68.8006 194.119 68.8006ZM207.84 62.1856V70.4956H205.725V69.4456C205.455 69.8056 205.1 70.0906 204.66 70.3006C204.23 70.5006 203.76 70.6006 203.25 70.6006C202.6 70.6006 202.025 70.4656 201.525 70.1956C201.025 69.9156 200.63 69.5106 200.34 68.9806C200.06 68.4406 199.92 67.8006 199.92 67.0606V62.1856H202.02V66.7606C202.02 67.4206 202.185 67.9306 202.515 68.2906C202.845 68.6406 203.295 68.8156 203.865 68.8156C204.445 68.8156 204.9 68.6406 205.23 68.2906C205.56 67.9306 205.725 67.4206 205.725 66.7606V62.1856H207.84ZM212.012 63.4756C212.282 63.0356 212.632 62.6906 213.062 62.4406C213.502 62.1906 214.002 62.0656 214.562 62.0656V64.2706H214.007C213.347 64.2706 212.847 64.4256 212.507 64.7356C212.177 65.0456 212.012 65.5856 212.012 66.3556V70.4956H209.912V62.1856H212.012V63.4756ZM227.185 63.2656C227.185 63.8256 227.05 64.3506 226.78 64.8406C226.52 65.3306 226.105 65.7256 225.535 66.0256C224.975 66.3256 224.265 66.4756 223.405 66.4756H221.65V70.4956H219.55V60.0256H223.405C224.215 60.0256 224.905 60.1656 225.475 60.4456C226.045 60.7256 226.47 61.1106 226.75 61.6006C227.04 62.0906 227.185 62.6456 227.185 63.2656ZM223.315 64.7806C223.895 64.7806 224.325 64.6506 224.605 64.3906C224.885 64.1206 225.025 63.7456 225.025 63.2656C225.025 62.2456 224.455 61.7356 223.315 61.7356H221.65V64.7806H223.315ZM236.401 66.1606C236.401 66.4606 236.381 66.7306 236.341 66.9706H230.266C230.316 67.5706 230.526 68.0406 230.896 68.3806C231.266 68.7206 231.721 68.8906 232.261 68.8906C233.041 68.8906 233.596 68.5556 233.926 67.8856H236.191C235.951 68.6856 235.491 69.3456 234.811 69.8656C234.131 70.3756 233.296 70.6306 232.306 70.6306C231.506 70.6306 230.786 70.4556 230.146 70.1056C229.516 69.7456 229.021 69.2406 228.661 68.5906C228.311 67.9406 228.136 67.1906 228.136 66.3406C228.136 65.4806 228.311 64.7256 228.661 64.0756C229.011 63.4256 229.501 62.9256 230.131 62.5756C230.761 62.2256 231.486 62.0506 232.306 62.0506C233.096 62.0506 233.801 62.2206 234.421 62.5606C235.051 62.9006 235.536 63.3856 235.876 64.0156C236.226 64.6356 236.401 65.3506 236.401 66.1606ZM234.226 65.5606C234.216 65.0206 234.021 64.5906 233.641 64.2706C233.261 63.9406 232.796 63.7756 232.246 63.7756C231.726 63.7756 231.286 63.9356 230.926 64.2556C230.576 64.5656 230.361 65.0006 230.281 65.5606H234.226ZM240.034 63.4756C240.304 63.0356 240.654 62.6906 241.084 62.4406C241.524 62.1906 242.024 62.0656 242.584 62.0656V64.2706H242.029C241.369 64.2706 240.869 64.4256 240.529 64.7356C240.199 65.0456 240.034 65.5856 240.034 66.3556V70.4956H237.934V62.1856H240.034V63.4756ZM247.179 70.6306C246.499 70.6306 245.889 70.5106 245.349 70.2706C244.809 70.0206 244.379 69.6856 244.059 69.2656C243.749 68.8456 243.579 68.3806 243.549 67.8706H245.664C245.704 68.1906 245.859 68.4556 246.129 68.6656C246.409 68.8756 246.754 68.9806 247.164 68.9806C247.564 68.9806 247.874 68.9006 248.094 68.7406C248.324 68.5806 248.439 68.3756 248.439 68.1256C248.439 67.8556 248.299 67.6556 248.019 67.5256C247.749 67.3856 247.314 67.2356 246.714 67.0756C246.094 66.9256 245.584 66.7706 245.184 66.6106C244.794 66.4506 244.454 66.2056 244.164 65.8756C243.884 65.5456 243.744 65.1006 243.744 64.5406C243.744 64.0806 243.874 63.6606 244.134 63.2806C244.404 62.9006 244.784 62.6006 245.274 62.3806C245.774 62.1606 246.359 62.0506 247.029 62.0506C248.019 62.0506 248.809 62.3006 249.399 62.8006C249.989 63.2906 250.314 63.9556 250.374 64.7956H248.364C248.334 64.4656 248.194 64.2056 247.944 64.0156C247.704 63.8156 247.379 63.7156 246.969 63.7156C246.589 63.7156 246.294 63.7856 246.084 63.9256C245.884 64.0656 245.784 64.2606 245.784 64.5106C245.784 64.7906 245.924 65.0056 246.204 65.1556C246.484 65.2956 246.919 65.4406 247.509 65.5906C248.109 65.7406 248.604 65.8956 248.994 66.0556C249.384 66.2156 249.719 66.4656 249.999 66.8056C250.289 67.1356 250.439 67.5756 250.449 68.1256C250.449 68.6056 250.314 69.0356 250.044 69.4156C249.784 69.7956 249.404 70.0956 248.904 70.3156C248.414 70.5256 247.839 70.6306 247.179 70.6306ZM255.862 70.6306C255.062 70.6306 254.342 70.4556 253.702 70.1056C253.062 69.7456 252.557 69.2406 252.187 68.5906C251.827 67.9406 251.647 67.1906 251.647 66.3406C251.647 65.4906 251.832 64.7406 252.202 64.0906C252.582 63.4406 253.097 62.9406 253.747 62.5906C254.397 62.2306 255.122 62.0506 255.922 62.0506C256.722 62.0506 257.447 62.2306 258.097 62.5906C258.747 62.9406 259.257 63.4406 259.627 64.0906C260.007 64.7406 260.197 65.4906 260.197 66.3406C260.197 67.1906 260.002 67.9406 259.612 68.5906C259.232 69.2406 258.712 69.7456 258.052 70.1056C257.402 70.4556 256.672 70.6306 255.862 70.6306ZM255.862 68.8006C256.242 68.8006 256.597 68.7106 256.927 68.5306C257.267 68.3406 257.537 68.0606 257.737 67.6906C257.937 67.3206 258.037 66.8706 258.037 66.3406C258.037 65.5506 257.827 64.9456 257.407 64.5256C256.997 64.0956 256.492 63.8806 255.892 63.8806C255.292 63.8806 254.787 64.0956 254.377 64.5256C253.977 64.9456 253.777 65.5506 253.777 66.3406C253.777 67.1306 253.972 67.7406 254.362 68.1706C254.762 68.5906 255.262 68.8006 255.862 68.8006ZM266.343 62.0656C267.333 62.0656 268.133 62.3806 268.743 63.0106C269.353 63.6306 269.658 64.5006 269.658 65.6206V70.4956H267.558V65.9056C267.558 65.2456 267.393 64.7406 267.063 64.3906C266.733 64.0306 266.283 63.8506 265.713 63.8506C265.133 63.8506 264.673 64.0306 264.333 64.3906C264.003 64.7406 263.838 65.2456 263.838 65.9056V70.4956H261.738V62.1856H263.838V63.2206C264.118 62.8606 264.473 62.5806 264.903 62.3806C265.343 62.1706 265.823 62.0656 266.343 62.0656ZM271.115 66.3106C271.115 65.4706 271.28 64.7256 271.61 64.0756C271.95 63.4256 272.405 62.9256 272.975 62.5756C273.555 62.2256 274.2 62.0506 274.91 62.0506C275.53 62.0506 276.07 62.1756 276.53 62.4256C277 62.6756 277.375 62.9906 277.655 63.3706V62.1856H279.77V70.4956H277.655V69.2806C277.385 69.6706 277.01 69.9956 276.53 70.2556C276.06 70.5056 275.515 70.6306 274.895 70.6306C274.195 70.6306 273.555 70.4506 272.975 70.0906C272.405 69.7306 271.95 69.2256 271.61 68.5756C271.28 67.9156 271.115 67.1606 271.115 66.3106ZM277.655 66.3406C277.655 65.8306 277.555 65.3956 277.355 65.0356C277.155 64.6656 276.885 64.3856 276.545 64.1956C276.205 63.9956 275.84 63.8956 275.45 63.8956C275.06 63.8956 274.7 63.9906 274.37 64.1806C274.04 64.3706 273.77 64.6506 273.56 65.0206C273.36 65.3806 273.26 65.8106 273.26 66.3106C273.26 66.8106 273.36 67.2506 273.56 67.6306C273.77 68.0006 274.04 68.2856 274.37 68.4856C274.71 68.6856 275.07 68.7856 275.45 68.7856C275.84 68.7856 276.205 68.6906 276.545 68.5006C276.885 68.3006 277.155 68.0206 277.355 67.6606C277.555 67.2906 277.655 66.8506 277.655 66.3406ZM283.921 59.3956V70.4956H281.821V59.3956H283.921ZM291.67 61.7206V64.3456H295.195V66.0106H291.67V68.7856H295.645V70.4956H289.57V60.0106H295.645V61.7206H291.67ZM302.143 70.4956L300.433 67.9156L298.918 70.4956H296.668L299.383 66.3256L296.638 62.1856H299.008L300.703 64.7506L302.233 62.1856H304.483L301.753 66.3256L304.513 70.4956H302.143ZM307.754 63.3856C308.024 63.0056 308.394 62.6906 308.864 62.4406C309.344 62.1806 309.889 62.0506 310.499 62.0506C311.209 62.0506 311.849 62.2256 312.419 62.5756C312.999 62.9256 313.454 63.4256 313.784 64.0756C314.124 64.7156 314.294 65.4606 314.294 66.3106C314.294 67.1606 314.124 67.9156 313.784 68.5756C313.454 69.2256 312.999 69.7306 312.419 70.0906C311.849 70.4506 311.209 70.6306 310.499 70.6306C309.889 70.6306 309.349 70.5056 308.879 70.2556C308.419 70.0056 308.044 69.6906 307.754 69.3106V74.4556H305.654V62.1856H307.754V63.3856ZM312.149 66.3106C312.149 65.8106 312.044 65.3806 311.834 65.0206C311.634 64.6506 311.364 64.3706 311.024 64.1806C310.694 63.9906 310.334 63.8956 309.944 63.8956C309.564 63.8956 309.204 63.9956 308.864 64.1956C308.534 64.3856 308.264 64.6656 308.054 65.0356C307.854 65.4056 307.754 65.8406 307.754 66.3406C307.754 66.8406 307.854 67.2756 308.054 67.6456C308.264 68.0156 308.534 68.3006 308.864 68.5006C309.204 68.6906 309.564 68.7856 309.944 68.7856C310.334 68.7856 310.694 68.6856 311.024 68.4856C311.364 68.2856 311.634 68.0006 311.834 67.6306C312.044 67.2606 312.149 66.8206 312.149 66.3106ZM323.545 66.1606C323.545 66.4606 323.525 66.7306 323.485 66.9706H317.41C317.46 67.5706 317.67 68.0406 318.04 68.3806C318.41 68.7206 318.865 68.8906 319.405 68.8906C320.185 68.8906 320.74 68.5556 321.07 67.8856H323.335C323.095 68.6856 322.635 69.3456 321.955 69.8656C321.275 70.3756 320.44 70.6306 319.45 70.6306C318.65 70.6306 317.93 70.4556 317.29 70.1056C316.66 69.7456 316.165 69.2406 315.805 68.5906C315.455 67.9406 315.28 67.1906 315.28 66.3406C315.28 65.4806 315.455 64.7256 315.805 64.0756C316.155 63.4256 316.645 62.9256 317.275 62.5756C317.905 62.2256 318.63 62.0506 319.45 62.0506C320.24 62.0506 320.945 62.2206 321.565 62.5606C322.195 62.9006 322.68 63.3856 323.02 64.0156C323.37 64.6356 323.545 65.3506 323.545 66.1606ZM321.37 65.5606C321.36 65.0206 321.165 64.5906 320.785 64.2706C320.405 63.9406 319.94 63.7756 319.39 63.7756C318.87 63.7756 318.43 63.9356 318.07 64.2556C317.72 64.5656 317.505 65.0006 317.425 65.5606H321.37ZM327.178 63.4756C327.448 63.0356 327.798 62.6906 328.228 62.4406C328.668 62.1906 329.168 62.0656 329.728 62.0656V64.2706H329.173C328.513 64.2706 328.013 64.4256 327.673 64.7356C327.343 65.0456 327.178 65.5856 327.178 66.3556V70.4956H325.078V62.1856H327.178V63.4756ZM333.587 63.9106V67.9306C333.587 68.2106 333.652 68.4156 333.782 68.5456C333.922 68.6656 334.152 68.7256 334.472 68.7256H335.447V70.4956H334.127C332.357 70.4956 331.472 69.6356 331.472 67.9156V63.9106H330.482V62.1856H331.472V60.1306H333.587V62.1856H335.447V63.9106H333.587ZM198.225 88.2456C198.225 87.2156 198.455 86.2956 198.915 85.4856C199.385 84.6656 200.02 84.0306 200.82 83.5806C201.63 83.1206 202.535 82.8906 203.535 82.8906C204.705 82.8906 205.73 83.1906 206.61 83.7906C207.49 84.3906 208.105 85.2206 208.455 86.2806H206.04C205.8 85.7806 205.46 85.4056 205.02 85.1556C204.59 84.9056 204.09 84.7806 203.52 84.7806C202.91 84.7806 202.365 84.9256 201.885 85.2156C201.415 85.4956 201.045 85.8956 200.775 86.4156C200.515 86.9356 200.385 87.5456 200.385 88.2456C200.385 88.9356 200.515 89.5456 200.775 90.0756C201.045 90.5956 201.415 91.0006 201.885 91.2906C202.365 91.5706 202.91 91.7106 203.52 91.7106C204.09 91.7106 204.59 91.5856 205.02 91.3356C205.46 91.0756 205.8 90.6956 206.04 90.1956H208.455C208.105 91.2656 207.49 92.1006 206.61 92.7006C205.74 93.2906 204.715 93.5856 203.535 93.5856C202.535 93.5856 201.63 93.3606 200.82 92.9106C200.02 92.4506 199.385 91.8156 198.915 91.0056C198.455 90.1956 198.225 89.2756 198.225 88.2456ZM209.709 89.3106C209.709 88.4706 209.874 87.7256 210.204 87.0756C210.544 86.4256 210.999 85.9256 211.569 85.5756C212.149 85.2256 212.794 85.0506 213.504 85.0506C214.124 85.0506 214.664 85.1756 215.124 85.4256C215.594 85.6756 215.969 85.9906 216.249 86.3706V85.1856H218.364V93.4956H216.249V92.2806C215.979 92.6706 215.604 92.9956 215.124 93.2556C214.654 93.5056 214.109 93.6306 213.489 93.6306C212.789 93.6306 212.149 93.4506 211.569 93.0906C210.999 92.7306 210.544 92.2256 210.204 91.5756C209.874 90.9156 209.709 90.1606 209.709 89.3106ZM216.249 89.3406C216.249 88.8306 216.149 88.3956 215.949 88.0356C215.749 87.6656 215.479 87.3856 215.139 87.1956C214.799 86.9956 214.434 86.8956 214.044 86.8956C213.654 86.8956 213.294 86.9906 212.964 87.1806C212.634 87.3706 212.364 87.6506 212.154 88.0206C211.954 88.3806 211.854 88.8106 211.854 89.3106C211.854 89.8106 211.954 90.2506 212.154 90.6306C212.364 91.0006 212.634 91.2856 212.964 91.4856C213.304 91.6856 213.664 91.7856 214.044 91.7856C214.434 91.7856 214.799 91.6906 215.139 91.5006C215.479 91.3006 215.749 91.0206 215.949 90.6606C216.149 90.2906 216.249 89.8506 216.249 89.3406ZM222.515 86.4756C222.785 86.0356 223.135 85.6906 223.565 85.4406C224.005 85.1906 224.505 85.0656 225.065 85.0656V87.2706H224.51C223.85 87.2706 223.35 87.4256 223.01 87.7356C222.68 88.0456 222.515 88.5856 222.515 89.3556V93.4956H220.415V85.1856H222.515V86.4756ZM234.204 89.1606C234.204 89.4606 234.184 89.7306 234.144 89.9706H228.069C228.119 90.5706 228.329 91.0406 228.699 91.3806C229.069 91.7206 229.524 91.8906 230.064 91.8906C230.844 91.8906 231.399 91.5556 231.729 90.8856H233.994C233.754 91.6856 233.294 92.3456 232.614 92.8656C231.934 93.3756 231.099 93.6306 230.109 93.6306C229.309 93.6306 228.589 93.4556 227.949 93.1056C227.319 92.7456 226.824 92.2406 226.464 91.5906C226.114 90.9406 225.939 90.1906 225.939 89.3406C225.939 88.4806 226.114 87.7256 226.464 87.0756C226.814 86.4256 227.304 85.9256 227.934 85.5756C228.564 85.2256 229.289 85.0506 230.109 85.0506C230.899 85.0506 231.604 85.2206 232.224 85.5606C232.854 85.9006 233.339 86.3856 233.679 87.0156C234.029 87.6356 234.204 88.3506 234.204 89.1606ZM232.029 88.5606C232.019 88.0206 231.824 87.5906 231.444 87.2706C231.064 86.9406 230.599 86.7756 230.049 86.7756C229.529 86.7756 229.089 86.9356 228.729 87.2556C228.379 87.5656 228.164 88.0006 228.084 88.5606H232.029ZM243.462 89.1606C243.462 89.4606 243.442 89.7306 243.402 89.9706H237.327C237.377 90.5706 237.587 91.0406 237.957 91.3806C238.327 91.7206 238.782 91.8906 239.322 91.8906C240.102 91.8906 240.657 91.5556 240.987 90.8856H243.252C243.012 91.6856 242.552 92.3456 241.872 92.8656C241.192 93.3756 240.357 93.6306 239.367 93.6306C238.567 93.6306 237.847 93.4556 237.207 93.1056C236.577 92.7456 236.082 92.2406 235.722 91.5906C235.372 90.9406 235.197 90.1906 235.197 89.3406C235.197 88.4806 235.372 87.7256 235.722 87.0756C236.072 86.4256 236.562 85.9256 237.192 85.5756C237.822 85.2256 238.547 85.0506 239.367 85.0506C240.157 85.0506 240.862 85.2206 241.482 85.5606C242.112 85.9006 242.597 86.3856 242.937 87.0156C243.287 87.6356 243.462 88.3506 243.462 89.1606ZM241.287 88.5606C241.277 88.0206 241.082 87.5906 240.702 87.2706C240.322 86.9406 239.857 86.7756 239.307 86.7756C238.787 86.7756 238.347 86.9356 237.987 87.2556C237.637 87.5656 237.422 88.0006 237.342 88.5606H241.287ZM247.095 86.4756C247.365 86.0356 247.715 85.6906 248.145 85.4406C248.585 85.1906 249.085 85.0656 249.645 85.0656V87.2706H249.09C248.43 87.2706 247.93 87.4256 247.59 87.7356C247.26 88.0456 247.095 88.5856 247.095 89.3556V93.4956H244.995V85.1856H247.095V86.4756ZM254.123 88.2456C254.123 87.2156 254.353 86.2956 254.813 85.4856C255.283 84.6656 255.918 84.0306 256.718 83.5806C257.528 83.1206 258.433 82.8906 259.433 82.8906C260.603 82.8906 261.628 83.1906 262.508 83.7906C263.388 84.3906 264.003 85.2206 264.353 86.2806H261.938C261.698 85.7806 261.358 85.4056 260.918 85.1556C260.488 84.9056 259.988 84.7806 259.418 84.7806C258.808 84.7806 258.263 84.9256 257.783 85.2156C257.313 85.4956 256.943 85.8956 256.673 86.4156C256.413 86.9356 256.283 87.5456 256.283 88.2456C256.283 88.9356 256.413 89.5456 256.673 90.0756C256.943 90.5956 257.313 91.0006 257.783 91.2906C258.263 91.5706 258.808 91.7106 259.418 91.7106C259.988 91.7106 260.488 91.5856 260.918 91.3356C261.358 91.0756 261.698 90.6956 261.938 90.1956H264.353C264.003 91.2656 263.388 92.1006 262.508 92.7006C261.638 93.2906 260.613 93.5856 259.433 93.5856C258.433 93.5856 257.528 93.3606 256.718 92.9106C255.918 92.4506 255.283 91.8156 254.813 91.0056C254.353 90.1956 254.123 89.2756 254.123 88.2456ZM269.837 93.6306C269.037 93.6306 268.317 93.4556 267.677 93.1056C267.037 92.7456 266.532 92.2406 266.162 91.5906C265.802 90.9406 265.622 90.1906 265.622 89.3406C265.622 88.4906 265.807 87.7406 266.177 87.0906C266.557 86.4406 267.072 85.9406 267.722 85.5906C268.372 85.2306 269.097 85.0506 269.897 85.0506C270.697 85.0506 271.422 85.2306 272.072 85.5906C272.722 85.9406 273.232 86.4406 273.602 87.0906C273.982 87.7406 274.172 88.4906 274.172 89.3406C274.172 90.1906 273.977 90.9406 273.587 91.5906C273.207 92.2406 272.687 92.7456 272.027 93.1056C271.377 93.4556 270.647 93.6306 269.837 93.6306ZM269.837 91.8006C270.217 91.8006 270.572 91.7106 270.902 91.5306C271.242 91.3406 271.512 91.0606 271.712 90.6906C271.912 90.3206 272.012 89.8706 272.012 89.3406C272.012 88.5506 271.802 87.9456 271.382 87.5256C270.972 87.0956 270.467 86.8806 269.867 86.8806C269.267 86.8806 268.762 87.0956 268.352 87.5256C267.952 87.9456 267.752 88.5506 267.752 89.3406C267.752 90.1306 267.947 90.7406 268.337 91.1706C268.737 91.5906 269.237 91.8006 269.837 91.8006ZM283.557 85.1856V93.4956H281.442V92.4456C281.172 92.8056 280.817 93.0906 280.377 93.3006C279.947 93.5006 279.477 93.6006 278.967 93.6006C278.317 93.6006 277.742 93.4656 277.242 93.1956C276.742 92.9156 276.347 92.5106 276.057 91.9806C275.777 91.4406 275.637 90.8006 275.637 90.0606V85.1856H277.737V89.7606C277.737 90.4206 277.902 90.9306 278.232 91.2906C278.562 91.6406 279.012 91.8156 279.582 91.8156C280.162 91.8156 280.617 91.6406 280.947 91.2906C281.277 90.9306 281.442 90.4206 281.442 89.7606V85.1856H283.557ZM290.234 85.0656C291.224 85.0656 292.024 85.3806 292.634 86.0106C293.244 86.6306 293.549 87.5006 293.549 88.6206V93.4956H291.449V88.9056C291.449 88.2456 291.284 87.7406 290.954 87.3906C290.624 87.0306 290.174 86.8506 289.604 86.8506C289.024 86.8506 288.564 87.0306 288.224 87.3906C287.894 87.7406 287.729 88.2456 287.729 88.9056V93.4956H285.629V85.1856H287.729V86.2206C288.009 85.8606 288.364 85.5806 288.794 85.3806C289.234 85.1706 289.714 85.0656 290.234 85.0656ZM298.726 93.6306C298.046 93.6306 297.436 93.5106 296.896 93.2706C296.356 93.0206 295.926 92.6856 295.606 92.2656C295.296 91.8456 295.126 91.3806 295.096 90.8706H297.211C297.251 91.1906 297.406 91.4556 297.676 91.6656C297.956 91.8756 298.301 91.9806 298.711 91.9806C299.111 91.9806 299.421 91.9006 299.641 91.7406C299.871 91.5806 299.986 91.3756 299.986 91.1256C299.986 90.8556 299.846 90.6556 299.566 90.5256C299.296 90.3856 298.861 90.2356 298.261 90.0756C297.641 89.9256 297.131 89.7706 296.731 89.6106C296.341 89.4506 296.001 89.2056 295.711 88.8756C295.431 88.5456 295.291 88.1006 295.291 87.5406C295.291 87.0806 295.421 86.6606 295.681 86.2806C295.951 85.9006 296.331 85.6006 296.821 85.3806C297.321 85.1606 297.906 85.0506 298.576 85.0506C299.566 85.0506 300.356 85.3006 300.946 85.8006C301.536 86.2906 301.861 86.9556 301.921 87.7956H299.911C299.881 87.4656 299.741 87.2056 299.491 87.0156C299.251 86.8156 298.926 86.7156 298.516 86.7156C298.136 86.7156 297.841 86.7856 297.631 86.9256C297.431 87.0656 297.331 87.2606 297.331 87.5106C297.331 87.7906 297.471 88.0056 297.751 88.1556C298.031 88.2956 298.466 88.4406 299.056 88.5906C299.656 88.7406 300.151 88.8956 300.541 89.0556C300.931 89.2156 301.266 89.4656 301.546 89.8056C301.836 90.1356 301.986 90.5756 301.996 91.1256C301.996 91.6056 301.861 92.0356 301.591 92.4156C301.331 92.7956 300.951 93.0956 300.451 93.3156C299.961 93.5256 299.386 93.6306 298.726 93.6306ZM311.445 89.1606C311.445 89.4606 311.425 89.7306 311.385 89.9706H305.31C305.36 90.5706 305.57 91.0406 305.94 91.3806C306.31 91.7206 306.765 91.8906 307.305 91.8906C308.085 91.8906 308.64 91.5556 308.97 90.8856H311.235C310.995 91.6856 310.535 92.3456 309.855 92.8656C309.175 93.3756 308.34 93.6306 307.35 93.6306C306.55 93.6306 305.83 93.4556 305.19 93.1056C304.56 92.7456 304.065 92.2406 303.705 91.5906C303.355 90.9406 303.18 90.1906 303.18 89.3406C303.18 88.4806 303.355 87.7256 303.705 87.0756C304.055 86.4256 304.545 85.9256 305.175 85.5756C305.805 85.2256 306.53 85.0506 307.35 85.0506C308.14 85.0506 308.845 85.2206 309.465 85.5606C310.095 85.9006 310.58 86.3856 310.92 87.0156C311.27 87.6356 311.445 88.3506 311.445 89.1606ZM309.27 88.5606C309.26 88.0206 309.065 87.5906 308.685 87.2706C308.305 86.9406 307.84 86.7756 307.29 86.7756C306.77 86.7756 306.33 86.9356 305.97 87.2556C305.62 87.5656 305.405 88.0006 305.325 88.5606H309.27ZM315.078 82.3956V93.4956H312.978V82.3956H315.078ZM319.253 82.3956V93.4956H317.153V82.3956H319.253ZM325.018 93.6306C324.218 93.6306 323.498 93.4556 322.858 93.1056C322.218 92.7456 321.713 92.2406 321.343 91.5906C320.983 90.9406 320.803 90.1906 320.803 89.3406C320.803 88.4906 320.988 87.7406 321.358 87.0906C321.738 86.4406 322.253 85.9406 322.903 85.5906C323.553 85.2306 324.278 85.0506 325.078 85.0506C325.878 85.0506 326.603 85.2306 327.253 85.5906C327.903 85.9406 328.413 86.4406 328.783 87.0906C329.163 87.7406 329.353 88.4906 329.353 89.3406C329.353 90.1906 329.158 90.9406 328.768 91.5906C328.388 92.2406 327.868 92.7456 327.208 93.1056C326.558 93.4556 325.828 93.6306 325.018 93.6306ZM325.018 91.8006C325.398 91.8006 325.753 91.7106 326.083 91.5306C326.423 91.3406 326.693 91.0606 326.893 90.6906C327.093 90.3206 327.193 89.8706 327.193 89.3406C327.193 88.5506 326.983 87.9456 326.563 87.5256C326.153 87.0956 325.648 86.8806 325.048 86.8806C324.448 86.8806 323.943 87.0956 323.533 87.5256C323.133 87.9456 322.933 88.5506 322.933 89.3406C322.933 90.1306 323.128 90.7406 323.518 91.1706C323.918 91.5906 324.418 91.8006 325.018 91.8006ZM332.993 86.4756C333.263 86.0356 333.613 85.6906 334.043 85.4406C334.483 85.1906 334.983 85.0656 335.543 85.0656V87.2706H334.988C334.328 87.2706 333.828 87.4256 333.488 87.7356C333.158 88.0456 332.993 88.5856 332.993 89.3556V93.4956H330.893V85.1856H332.993V86.4756Z" fill="black"/>
<circle cx="38.1199" cy="33.724" r="20.1195" fill="#9747FF"/>
<path d="M278.332 44.6496C277.262 44.6496 276.294 44.4663 275.428 44.0996C274.578 43.7329 273.903 43.2049 273.404 42.5156C272.906 41.8263 272.649 41.0123 272.634 40.0736H275.934C275.978 40.7043 276.198 41.2029 276.594 41.5696C277.005 41.9363 277.562 42.1196 278.266 42.1196C278.985 42.1196 279.55 41.9509 279.96 41.6136C280.371 41.2616 280.576 40.8069 280.576 40.2496C280.576 39.7949 280.437 39.4209 280.158 39.1276C279.88 38.8343 279.528 38.6069 279.102 38.4456C278.692 38.2696 278.12 38.0789 277.386 37.8736C276.389 37.5803 275.575 37.2943 274.944 37.0156C274.328 36.7223 273.793 36.2896 273.338 35.7176C272.898 35.1309 272.678 34.3536 272.678 33.3856C272.678 32.4763 272.906 31.6843 273.36 31.0096C273.815 30.3349 274.453 29.8216 275.274 29.4696C276.096 29.1029 277.034 28.9196 278.09 28.9196C279.674 28.9196 280.958 29.3083 281.94 30.0856C282.938 30.8483 283.488 31.9189 283.59 33.2976H280.202C280.173 32.7696 279.946 32.3369 279.52 31.9996C279.11 31.6476 278.56 31.4716 277.87 31.4716C277.269 31.4716 276.785 31.6256 276.418 31.9336C276.066 32.2416 275.89 32.6889 275.89 33.2756C275.89 33.6863 276.022 34.0309 276.286 34.3096C276.565 34.5736 276.902 34.7936 277.298 34.9696C277.709 35.1309 278.281 35.3216 279.014 35.5416C280.012 35.8349 280.826 36.1283 281.456 36.4216C282.087 36.7149 282.63 37.1549 283.084 37.7416C283.539 38.3283 283.766 39.0983 283.766 40.0516C283.766 40.8729 283.554 41.6356 283.128 42.3396C282.703 43.0436 282.08 43.6083 281.258 44.0336C280.437 44.4443 279.462 44.6496 278.332 44.6496ZM296.887 29.1396V31.6256H292.795V44.4956H289.715V31.6256H285.623V29.1396H296.887ZM302.214 31.6256V35.4756H307.384V37.9176H302.214V41.9876H308.044V44.4956H299.134V29.1176H308.044V31.6256H302.214ZM322.041 33.8916C322.041 34.7129 321.843 35.4829 321.447 36.2016C321.065 36.9203 320.457 37.4996 319.621 37.9396C318.799 38.3796 317.758 38.5996 316.497 38.5996H313.923V44.4956H310.843V29.1396H316.497C317.685 29.1396 318.697 29.3449 319.533 29.7556C320.369 30.1663 320.992 30.7309 321.403 31.4496C321.828 32.1683 322.041 32.9823 322.041 33.8916ZM316.365 36.1136C317.215 36.1136 317.846 35.9229 318.257 35.5416C318.667 35.1456 318.873 34.5956 318.873 33.8916C318.873 32.3956 318.037 31.6476 316.365 31.6476H313.923V36.1136H316.365ZM330.086 41.0196C331.494 39.8463 332.616 38.8709 333.452 38.0936C334.288 37.3016 334.984 36.4803 335.542 35.6296C336.099 34.7789 336.378 33.9429 336.378 33.1216C336.378 32.3736 336.202 31.7869 335.85 31.3616C335.498 30.9363 334.955 30.7236 334.222 30.7236C333.488 30.7236 332.924 30.9729 332.528 31.4716C332.132 31.9556 331.926 32.6229 331.912 33.4736H328.92C328.978 31.7136 329.499 30.3789 330.482 29.4696C331.479 28.5603 332.74 28.1056 334.266 28.1056C335.938 28.1056 337.221 28.5529 338.116 29.4476C339.01 30.3276 339.458 31.4936 339.458 32.9456C339.458 34.0896 339.15 35.1823 338.534 36.2236C337.918 37.2649 337.214 38.1743 336.422 38.9516C335.63 39.7143 334.596 40.6383 333.32 41.7236H339.81V44.2756H328.942V41.9876L330.086 41.0196Z" fill="black"/>
<path d="M234.348 36.9956C234.348 38.4684 235.542 39.6623 237.015 39.6623C238.488 39.6623 239.682 38.4684 239.682 36.9956C239.682 35.5228 238.488 34.3289 237.015 34.3289C235.542 34.3289 234.348 35.5228 234.348 36.9956ZM90.6256 37.4956H237.015V36.4956H90.6256V37.4956Z" fill="#9747FF"/>
<defs>
<filter id="filter0_d_84_132" x="0.955566" y="0.604492" width="369.531" height="132.782" filterUnits="userSpaceOnUse" color-interpolation-filters="sRGB">
<feFlood flood-opacity="0" result="BackgroundImageFix"/>
<feColorMatrix in="SourceAlpha" type="matrix" values="0 0 0 0 0 0 0 0 0 0 0 0 0 0 0 0 0 0 127 0" result="hardAlpha"/>
<feOffset dy="4"/>
<feGaussianBlur stdDeviation="8.5"/>
<feComposite in2="hardAlpha" operator="out"/>
<feColorMatrix type="matrix" values="0 0 0 0 0.880688 0 0 0 0 0.880688 0 0 0 0 0.880688 0 0 0 0.25 0"/>
<feBlend mode="normal" in2="BackgroundImageFix" result="effect1_dropShadow_84_132"/>
<feBlend mode="normal" in="SourceGraphic" in2="effect1_dropShadow_84_132" result="shape"/>
</filter>
</defs>
</svg>
