<svg width="371" height="134" viewBox="0 0 371 134" fill="none" xmlns="http://www.w3.org/2000/svg">
<g filter="url(#filter0_d_84_138)">
<path d="M38.3578 69.5249C57.1603 69.5249 72.4028 54.2824 72.4028 35.4798C72.4028 34.6873 72.3758 33.9011 72.3225 33.1222C71.7401 24.6078 77.4129 13.3862 85.9472 13.3862H339.623C347.28 13.3862 353.487 19.5933 353.487 27.2502V98.3041C353.487 105.961 347.28 112.168 339.623 112.168H31.8196C24.1627 112.168 17.9556 105.961 17.9556 98.3041V82.7323C17.9556 74.4927 28.2475 69.0252 36.4749 69.4737C37.0982 69.5076 37.726 69.5249 38.3578 69.5249Z" fill="white"/>
<path d="M38.3578 70.0249C57.4365 70.0249 72.9028 54.5585 72.9028 35.4798C72.9028 34.6759 72.8754 33.8784 72.8213 33.088C72.5377 28.9421 73.7804 24.1118 76.1404 20.3258C78.5032 16.5353 81.9194 13.8862 85.9472 13.8862H339.623C347.003 13.8862 352.987 19.8695 352.987 27.2502V98.3041C352.987 105.685 347.003 111.668 339.623 111.668H31.8196C24.4389 111.668 18.4556 105.685 18.4556 98.3041V82.7323C18.4556 78.8405 20.8855 75.5501 24.4025 73.2642C27.918 70.9792 32.4434 69.7547 36.4477 69.9729C37.08 70.0074 37.7169 70.0249 38.3578 70.0249Z" stroke="#F2F2F2"/>
</g>
<path d="M225.984 69.0273C225.984 67.9973 226.214 67.0773 226.674 66.2673C227.144 65.4473 227.779 64.8123 228.579 64.3623C229.389 63.9023 230.294 63.6723 231.294 63.6723C232.464 63.6723 233.489 63.9723 234.369 64.5723C235.249 65.1723 235.864 66.0023 236.214 67.0623H233.799C233.559 66.5623 233.219 66.1873 232.779 65.9373C232.349 65.6873 231.849 65.5623 231.279 65.5623C230.669 65.5623 230.124 65.7073 229.644 65.9973C229.174 66.2773 228.804 66.6773 228.534 67.1973C228.274 67.7173 228.144 68.3273 228.144 69.0273C228.144 69.7173 228.274 70.3273 228.534 70.8573C228.804 71.3773 229.174 71.7823 229.644 72.0723C230.124 72.3523 230.669 72.4923 231.279 72.4923C231.849 72.4923 232.349 72.3673 232.779 72.1173C233.219 71.8573 233.559 71.4773 233.799 70.9773H236.214C235.864 72.0473 235.249 72.8823 234.369 73.4823C233.499 74.0723 232.474 74.3673 231.294 74.3673C230.294 74.3673 229.389 74.1423 228.579 73.6923C227.779 73.2323 227.144 72.5973 226.674 71.7873C226.214 70.9773 225.984 70.0573 225.984 69.0273ZM237.467 70.0923C237.467 69.2523 237.632 68.5073 237.962 67.8573C238.302 67.2073 238.757 66.7073 239.327 66.3573C239.907 66.0073 240.552 65.8323 241.262 65.8323C241.882 65.8323 242.422 65.9573 242.882 66.2073C243.352 66.4573 243.727 66.7723 244.007 67.1523V65.9673H246.122V74.2773H244.007V73.0623C243.737 73.4523 243.362 73.7773 242.882 74.0373C242.412 74.2873 241.867 74.4123 241.247 74.4123C240.547 74.4123 239.907 74.2323 239.327 73.8723C238.757 73.5123 238.302 73.0073 237.962 72.3573C237.632 71.6973 237.467 70.9423 237.467 70.0923ZM244.007 70.1223C244.007 69.6123 243.907 69.1773 243.707 68.8173C243.507 68.4473 243.237 68.1673 242.897 67.9773C242.557 67.7773 242.192 67.6773 241.802 67.6773C241.412 67.6773 241.052 67.7723 240.722 67.9623C240.392 68.1523 240.122 68.4323 239.912 68.8023C239.712 69.1623 239.612 69.5923 239.612 70.0923C239.612 70.5923 239.712 71.0323 239.912 71.4123C240.122 71.7823 240.392 72.0673 240.722 72.2673C241.062 72.4673 241.422 72.5673 241.802 72.5673C242.192 72.5673 242.557 72.4723 242.897 72.2823C243.237 72.0823 243.507 71.8023 243.707 71.4423C243.907 71.0723 244.007 70.6323 244.007 70.1223ZM250.273 67.2573C250.543 66.8173 250.893 66.4723 251.323 66.2223C251.763 65.9723 252.263 65.8473 252.823 65.8473V68.0523H252.268C251.608 68.0523 251.108 68.2073 250.768 68.5173C250.438 68.8273 250.273 69.3673 250.273 70.1373V74.2773H248.173V65.9673H250.273V67.2573ZM261.963 69.9423C261.963 70.2423 261.943 70.5123 261.903 70.7523H255.828C255.878 71.3523 256.088 71.8223 256.458 72.1623C256.828 72.5023 257.283 72.6723 257.823 72.6723C258.603 72.6723 259.158 72.3373 259.488 71.6673H261.753C261.513 72.4673 261.053 73.1273 260.373 73.6473C259.693 74.1573 258.858 74.4123 257.868 74.4123C257.068 74.4123 256.348 74.2373 255.708 73.8873C255.078 73.5273 254.583 73.0223 254.223 72.3723C253.873 71.7223 253.698 70.9723 253.698 70.1223C253.698 69.2623 253.873 68.5073 254.223 67.8573C254.573 67.2073 255.063 66.7073 255.693 66.3573C256.323 66.0073 257.048 65.8323 257.868 65.8323C258.658 65.8323 259.363 66.0023 259.983 66.3423C260.613 66.6823 261.098 67.1673 261.438 67.7973C261.788 68.4173 261.963 69.1323 261.963 69.9423ZM259.788 69.3423C259.778 68.8023 259.583 68.3723 259.203 68.0523C258.823 67.7223 258.358 67.5573 257.808 67.5573C257.288 67.5573 256.848 67.7173 256.488 68.0373C256.138 68.3473 255.923 68.7823 255.843 69.3423H259.788ZM271.221 69.9423C271.221 70.2423 271.201 70.5123 271.161 70.7523H265.086C265.136 71.3523 265.346 71.8223 265.716 72.1623C266.086 72.5023 266.541 72.6723 267.081 72.6723C267.861 72.6723 268.416 72.3373 268.746 71.6673H271.011C270.771 72.4673 270.311 73.1273 269.631 73.6473C268.951 74.1573 268.116 74.4123 267.126 74.4123C266.326 74.4123 265.606 74.2373 264.966 73.8873C264.336 73.5273 263.841 73.0223 263.481 72.3723C263.131 71.7223 262.956 70.9723 262.956 70.1223C262.956 69.2623 263.131 68.5073 263.481 67.8573C263.831 67.2073 264.321 66.7073 264.951 66.3573C265.581 66.0073 266.306 65.8323 267.126 65.8323C267.916 65.8323 268.621 66.0023 269.241 66.3423C269.871 66.6823 270.356 67.1673 270.696 67.7973C271.046 68.4173 271.221 69.1323 271.221 69.9423ZM269.046 69.3423C269.036 68.8023 268.841 68.3723 268.461 68.0523C268.081 67.7223 267.616 67.5573 267.066 67.5573C266.546 67.5573 266.106 67.7173 265.746 68.0373C265.396 68.3473 265.181 68.7823 265.101 69.3423H269.046ZM274.853 67.2573C275.123 66.8173 275.473 66.4723 275.903 66.2223C276.343 65.9723 276.843 65.8473 277.403 65.8473V68.0523H276.848C276.188 68.0523 275.688 68.2073 275.348 68.5173C275.018 68.8273 274.853 69.3673 274.853 70.1373V74.2773H272.753V65.9673H274.853V67.2573ZM281.882 69.0273C281.882 67.9973 282.112 67.0773 282.572 66.2673C283.042 65.4473 283.677 64.8123 284.477 64.3623C285.287 63.9023 286.192 63.6723 287.192 63.6723C288.362 63.6723 289.387 63.9723 290.267 64.5723C291.147 65.1723 291.762 66.0023 292.112 67.0623H289.697C289.457 66.5623 289.117 66.1873 288.677 65.9373C288.247 65.6873 287.747 65.5623 287.177 65.5623C286.567 65.5623 286.022 65.7073 285.542 65.9973C285.072 66.2773 284.702 66.6773 284.432 67.1973C284.172 67.7173 284.042 68.3273 284.042 69.0273C284.042 69.7173 284.172 70.3273 284.432 70.8573C284.702 71.3773 285.072 71.7823 285.542 72.0723C286.022 72.3523 286.567 72.4923 287.177 72.4923C287.747 72.4923 288.247 72.3673 288.677 72.1173C289.117 71.8573 289.457 71.4773 289.697 70.9773H292.112C291.762 72.0473 291.147 72.8823 290.267 73.4823C289.397 74.0723 288.372 74.3673 287.192 74.3673C286.192 74.3673 285.287 74.1423 284.477 73.6923C283.677 73.2323 283.042 72.5973 282.572 71.7873C282.112 70.9773 281.882 70.0573 281.882 69.0273ZM296.006 63.1773V74.2773H293.906V63.1773H296.006ZM297.541 70.0923C297.541 69.2523 297.706 68.5073 298.036 67.8573C298.376 67.2073 298.831 66.7073 299.401 66.3573C299.981 66.0073 300.626 65.8323 301.336 65.8323C301.956 65.8323 302.496 65.9573 302.956 66.2073C303.426 66.4573 303.801 66.7723 304.081 67.1523V65.9673H306.196V74.2773H304.081V73.0623C303.811 73.4523 303.436 73.7773 302.956 74.0373C302.486 74.2873 301.941 74.4123 301.321 74.4123C300.621 74.4123 299.981 74.2323 299.401 73.8723C298.831 73.5123 298.376 73.0073 298.036 72.3573C297.706 71.6973 297.541 70.9423 297.541 70.0923ZM304.081 70.1223C304.081 69.6123 303.981 69.1773 303.781 68.8173C303.581 68.4473 303.311 68.1673 302.971 67.9773C302.631 67.7773 302.266 67.6773 301.876 67.6773C301.486 67.6773 301.126 67.7723 300.796 67.9623C300.466 68.1523 300.196 68.4323 299.986 68.8023C299.786 69.1623 299.686 69.5923 299.686 70.0923C299.686 70.5923 299.786 71.0323 299.986 71.4123C300.196 71.7823 300.466 72.0673 300.796 72.2673C301.136 72.4673 301.496 72.5673 301.876 72.5673C302.266 72.5673 302.631 72.4723 302.971 72.2823C303.311 72.0823 303.581 71.8023 303.781 71.4423C303.981 71.0723 304.081 70.6323 304.081 70.1223ZM310.347 67.2573C310.617 66.8173 310.967 66.4723 311.397 66.2223C311.837 65.9723 312.337 65.8473 312.897 65.8473V68.0523H312.342C311.682 68.0523 311.182 68.2073 310.842 68.5173C310.512 68.8273 310.347 69.3673 310.347 70.1373V74.2773H308.247V65.9673H310.347V67.2573ZM315.376 64.9773C315.006 64.9773 314.696 64.8623 314.446 64.6323C314.206 64.3923 314.086 64.0973 314.086 63.7473C314.086 63.3973 314.206 63.1073 314.446 62.8773C314.696 62.6373 315.006 62.5173 315.376 62.5173C315.746 62.5173 316.051 62.6373 316.291 62.8773C316.541 63.1073 316.666 63.3973 316.666 63.7473C316.666 64.0973 316.541 64.3923 316.291 64.6323C316.051 64.8623 315.746 64.9773 315.376 64.9773ZM316.411 65.9673V74.2773H314.311V65.9673H316.411ZM320.931 67.6923V71.7123C320.931 71.9923 320.996 72.1973 321.126 72.3273C321.266 72.4473 321.496 72.5073 321.816 72.5073H322.791V74.2773H321.471C319.701 74.2773 318.816 73.4173 318.816 71.6973V67.6923H317.826V65.9673H318.816V63.9123H320.931V65.9673H322.791V67.6923H320.931ZM332.251 65.9673L327.106 78.2073H324.871L326.671 74.0673L323.341 65.9673H325.696L327.841 71.7723L330.016 65.9673H332.251ZM75.5261 93.4443C74.8148 92.755 74.2611 91.875 73.8651 90.8043C73.4764 89.7337 73.2821 88.586 73.2821 87.3613C73.2821 86.1073 73.4874 84.9303 73.8981 83.8303C74.3088 82.723 74.9064 81.8173 75.6911 81.1133H77.2421V81.2563C76.4354 82.0263 75.8194 82.9503 75.3941 84.0283C74.9761 85.1063 74.7671 86.2173 74.7671 87.3613C74.7671 88.476 74.9651 89.554 75.3611 90.5953C75.7644 91.6293 76.3364 92.5277 77.0771 93.2903V93.4443H75.5261ZM82.559 87.3393C82.9916 87.42 83.3473 87.6363 83.626 87.9883C83.9046 88.3403 84.044 88.7437 84.044 89.1983C84.044 89.609 83.9413 89.972 83.736 90.2873C83.538 90.5953 83.2483 90.8373 82.867 91.0133C82.4856 91.1893 82.0346 91.2773 81.514 91.2773H78.203V83.5993H81.371C81.8916 83.5993 82.339 83.6837 82.713 83.8523C83.0943 84.021 83.3803 84.2557 83.571 84.5563C83.769 84.857 83.868 85.198 83.868 85.5793C83.868 86.0267 83.747 86.4007 83.505 86.7013C83.2703 87.002 82.955 87.2147 82.559 87.3393ZM79.743 86.7673H81.151C81.5176 86.7673 81.8 86.6867 81.998 86.5253C82.196 86.3567 82.295 86.1183 82.295 85.8103C82.295 85.5023 82.196 85.264 81.998 85.0953C81.8 84.9267 81.5176 84.8423 81.151 84.8423H79.743V86.7673ZM81.294 90.0233C81.668 90.0233 81.9576 89.9353 82.163 89.7593C82.3756 89.5833 82.482 89.334 82.482 89.0113C82.482 88.6813 82.372 88.4247 82.152 88.2413C81.932 88.0507 81.635 87.9553 81.261 87.9553H79.743V90.0233H81.294ZM90.9363 88.0983C90.9363 88.3183 90.9217 88.5163 90.8923 88.6923H86.4373C86.474 89.1323 86.628 89.477 86.8993 89.7263C87.1707 89.9757 87.5043 90.1003 87.9003 90.1003C88.4723 90.1003 88.8793 89.8547 89.1213 89.3633H90.7823C90.6063 89.95 90.269 90.434 89.7703 90.8153C89.2717 91.1893 88.6593 91.3763 87.9333 91.3763C87.3467 91.3763 86.8187 91.248 86.3493 90.9913C85.8873 90.7273 85.5243 90.357 85.2603 89.8803C85.0037 89.4037 84.8753 88.8537 84.8753 88.2303C84.8753 87.5997 85.0037 87.046 85.2603 86.5693C85.517 86.0927 85.8763 85.726 86.3383 85.4693C86.8003 85.2127 87.332 85.0843 87.9333 85.0843C88.5127 85.0843 89.0297 85.209 89.4843 85.4583C89.9463 85.7077 90.302 86.0633 90.5513 86.5253C90.808 86.98 90.9363 87.5043 90.9363 88.0983ZM89.3413 87.6583C89.334 87.2623 89.191 86.947 88.9123 86.7123C88.6337 86.4703 88.2927 86.3493 87.8893 86.3493C87.508 86.3493 87.1853 86.4667 86.9213 86.7013C86.6647 86.9287 86.507 87.2477 86.4483 87.6583H89.3413ZM94.3924 91.3763C93.8937 91.3763 93.4464 91.2883 93.0504 91.1123C92.6544 90.929 92.3391 90.6833 92.1044 90.3753C91.8771 90.0673 91.7524 89.7263 91.7304 89.3523H93.2814C93.3107 89.587 93.4244 89.7813 93.6224 89.9353C93.8277 90.0893 94.0807 90.1663 94.3814 90.1663C94.6747 90.1663 94.9021 90.1077 95.0634 89.9903C95.2321 89.873 95.3164 89.7227 95.3164 89.5393C95.3164 89.3413 95.2137 89.1947 95.0084 89.0993C94.8104 88.9967 94.4914 88.8867 94.0514 88.7693C93.5967 88.6593 93.2227 88.5457 92.9294 88.4283C92.6434 88.311 92.3941 88.1313 92.1814 87.8893C91.9761 87.6473 91.8734 87.321 91.8734 86.9103C91.8734 86.573 91.9687 86.265 92.1594 85.9863C92.3574 85.7077 92.6361 85.4877 92.9954 85.3263C93.3621 85.165 93.7911 85.0843 94.2824 85.0843C95.0084 85.0843 95.5877 85.2677 96.0204 85.6343C96.4531 85.9937 96.6914 86.4813 96.7354 87.0973H95.2614C95.2394 86.8553 95.1367 86.6647 94.9534 86.5253C94.7774 86.3787 94.5391 86.3053 94.2384 86.3053C93.9597 86.3053 93.7434 86.3567 93.5894 86.4593C93.4427 86.562 93.3694 86.705 93.3694 86.8883C93.3694 87.0937 93.4721 87.2513 93.6774 87.3613C93.8827 87.464 94.2017 87.5703 94.6344 87.6803C95.0744 87.7903 95.4374 87.904 95.7234 88.0213C96.0094 88.1387 96.2551 88.322 96.4604 88.5713C96.6731 88.8133 96.7831 89.136 96.7904 89.5393C96.7904 89.8913 96.6914 90.2067 96.4934 90.4853C96.3027 90.764 96.0241 90.984 95.6574 91.1453C95.2981 91.2993 94.8764 91.3763 94.3924 91.3763ZM99.8475 86.4483V89.3963C99.8475 89.6017 99.8952 89.752 99.9905 89.8473C100.093 89.9353 100.262 89.9793 100.497 89.9793H101.212V91.2773H100.244C98.9455 91.2773 98.2965 90.6467 98.2965 89.3853V86.4483H97.5705V85.1833H98.2965V83.6763H99.8475V85.1833H101.212V86.4483H99.8475ZM109.681 83.5993V84.8423H106.48V86.8113H108.933V88.0323H106.48V91.2773H104.94V83.5993H109.681ZM111.554 84.4573C111.283 84.4573 111.056 84.373 110.872 84.2043C110.696 84.0283 110.608 83.812 110.608 83.5553C110.608 83.2987 110.696 83.086 110.872 82.9173C111.056 82.7413 111.283 82.6533 111.554 82.6533C111.826 82.6533 112.049 82.7413 112.225 82.9173C112.409 83.086 112.5 83.2987 112.5 83.5553C112.5 83.812 112.409 84.0283 112.225 84.2043C112.049 84.373 111.826 84.4573 111.554 84.4573ZM112.313 85.1833V91.2773H110.773V85.1833H112.313ZM115.628 86.4483V89.3963C115.628 89.6017 115.675 89.752 115.771 89.8473C115.873 89.9353 116.042 89.9793 116.277 89.9793H116.992V91.2773H116.024C114.726 91.2773 114.077 90.6467 114.077 89.3853V86.4483H113.351V85.1833H114.077V83.6763H115.628V85.1833H116.992V86.4483H115.628ZM120.347 87.4273C120.347 86.672 120.515 85.9973 120.853 85.4033C121.197 84.802 121.663 84.3363 122.25 84.0063C122.844 83.669 123.507 83.5003 124.241 83.5003C125.099 83.5003 125.85 83.7203 126.496 84.1603C127.141 84.6003 127.592 85.209 127.849 85.9863H126.078C125.902 85.6197 125.652 85.3447 125.33 85.1613C125.014 84.978 124.648 84.8863 124.23 84.8863C123.782 84.8863 123.383 84.9927 123.031 85.2053C122.686 85.4107 122.415 85.704 122.217 86.0853C122.026 86.4667 121.931 86.914 121.931 87.4273C121.931 87.9333 122.026 88.3807 122.217 88.7693C122.415 89.1507 122.686 89.4477 123.031 89.6603C123.383 89.8657 123.782 89.9683 124.23 89.9683C124.648 89.9683 125.014 89.8767 125.33 89.6933C125.652 89.5027 125.902 89.224 126.078 88.8573H127.849C127.592 89.642 127.141 90.2543 126.496 90.6943C125.858 91.127 125.106 91.3433 124.241 91.3433C123.507 91.3433 122.844 91.1783 122.25 90.8483C121.663 90.511 121.197 90.0453 120.853 89.4513C120.515 88.8573 120.347 88.1827 120.347 87.4273ZM128.768 88.2083C128.768 87.5923 128.889 87.046 129.131 86.5693C129.38 86.0927 129.714 85.726 130.132 85.4693C130.557 85.2127 131.03 85.0843 131.551 85.0843C132.006 85.0843 132.402 85.176 132.739 85.3593C133.084 85.5427 133.359 85.7737 133.564 86.0523V85.1833H135.115V91.2773H133.564V90.3863C133.366 90.6723 133.091 90.9107 132.739 91.1013C132.394 91.2847 131.995 91.3763 131.54 91.3763C131.027 91.3763 130.557 91.2443 130.132 90.9803C129.714 90.7163 129.38 90.346 129.131 89.8693C128.889 89.3853 128.768 88.8317 128.768 88.2083ZM133.564 88.2303C133.564 87.8563 133.491 87.5373 133.344 87.2733C133.197 87.002 132.999 86.7967 132.75 86.6573C132.501 86.5107 132.233 86.4373 131.947 86.4373C131.661 86.4373 131.397 86.507 131.155 86.6463C130.913 86.7857 130.715 86.991 130.561 87.2623C130.414 87.5263 130.341 87.8417 130.341 88.2083C130.341 88.575 130.414 88.8977 130.561 89.1763C130.715 89.4477 130.913 89.6567 131.155 89.8033C131.404 89.95 131.668 90.0233 131.947 90.0233C132.233 90.0233 132.501 89.9537 132.75 89.8143C132.999 89.6677 133.197 89.4623 133.344 89.1983C133.491 88.927 133.564 88.6043 133.564 88.2303ZM138.159 86.1293C138.357 85.8067 138.614 85.5537 138.929 85.3703C139.252 85.187 139.618 85.0953 140.029 85.0953V86.7123H139.622C139.138 86.7123 138.771 86.826 138.522 87.0533C138.28 87.2807 138.159 87.6767 138.159 88.2413V91.2773H136.619V85.1833H138.159V86.1293ZM146.731 88.0983C146.731 88.3183 146.717 88.5163 146.687 88.6923H142.232C142.269 89.1323 142.423 89.477 142.694 89.7263C142.966 89.9757 143.299 90.1003 143.695 90.1003C144.267 90.1003 144.674 89.8547 144.916 89.3633H146.577C146.401 89.95 146.064 90.434 145.565 90.8153C145.067 91.1893 144.454 91.3763 143.728 91.3763C143.142 91.3763 142.614 91.248 142.144 90.9913C141.682 90.7273 141.319 90.357 141.055 89.8803C140.799 89.4037 140.67 88.8537 140.67 88.2303C140.67 87.5997 140.799 87.046 141.055 86.5693C141.312 86.0927 141.671 85.726 142.133 85.4693C142.595 85.2127 143.127 85.0843 143.728 85.0843C144.308 85.0843 144.825 85.209 145.279 85.4583C145.741 85.7077 146.097 86.0633 146.346 86.5253C146.603 86.98 146.731 87.5043 146.731 88.0983ZM145.136 87.6583C145.129 87.2623 144.986 86.947 144.707 86.7123C144.429 86.4703 144.088 86.3493 143.684 86.3493C143.303 86.3493 142.98 86.4667 142.716 86.7013C142.46 86.9287 142.302 87.2477 142.243 87.6583H145.136ZM153.52 88.0983C153.52 88.3183 153.506 88.5163 153.476 88.6923H149.021C149.058 89.1323 149.212 89.477 149.483 89.7263C149.755 89.9757 150.088 90.1003 150.484 90.1003C151.056 90.1003 151.463 89.8547 151.705 89.3633H153.366C153.19 89.95 152.853 90.434 152.354 90.8153C151.856 91.1893 151.243 91.3763 150.517 91.3763C149.931 91.3763 149.403 91.248 148.933 90.9913C148.471 90.7273 148.108 90.357 147.844 89.8803C147.588 89.4037 147.459 88.8537 147.459 88.2303C147.459 87.5997 147.588 87.046 147.844 86.5693C148.101 86.0927 148.46 85.726 148.922 85.4693C149.384 85.2127 149.916 85.0843 150.517 85.0843C151.097 85.0843 151.614 85.209 152.068 85.4583C152.53 85.7077 152.886 86.0633 153.135 86.5253C153.392 86.98 153.52 87.5043 153.52 88.0983ZM151.925 87.6583C151.918 87.2623 151.775 86.947 151.496 86.7123C151.218 86.4703 150.877 86.3493 150.473 86.3493C150.092 86.3493 149.769 86.4667 149.505 86.7013C149.249 86.9287 149.091 87.2477 149.032 87.6583H151.925ZM156.184 86.1293C156.382 85.8067 156.639 85.5537 156.954 85.3703C157.277 85.187 157.644 85.0953 158.054 85.0953V86.7123H157.647C157.163 86.7123 156.797 86.826 156.547 87.0533C156.305 87.2807 156.184 87.6767 156.184 88.2413V91.2773H154.644V85.1833H156.184V86.1293ZM166.399 86.7013V87.9993H161.735V86.7013H166.399ZM170.373 87.4273C170.373 86.672 170.542 85.9973 170.879 85.4033C171.224 84.802 171.689 84.3363 172.276 84.0063C172.87 83.669 173.534 83.5003 174.267 83.5003C175.125 83.5003 175.877 83.7203 176.522 84.1603C177.167 84.6003 177.618 85.209 177.875 85.9863H176.104C175.928 85.6197 175.679 85.3447 175.356 85.1613C175.041 84.978 174.674 84.8863 174.256 84.8863C173.809 84.8863 173.409 84.9927 173.057 85.2053C172.712 85.4107 172.441 85.704 172.243 86.0853C172.052 86.4667 171.957 86.914 171.957 87.4273C171.957 87.9333 172.052 88.3807 172.243 88.7693C172.441 89.1507 172.712 89.4477 173.057 89.6603C173.409 89.8657 173.809 89.9683 174.256 89.9683C174.674 89.9683 175.041 89.8767 175.356 89.6933C175.679 89.5027 175.928 89.224 176.104 88.8573H177.875C177.618 89.642 177.167 90.2543 176.522 90.6943C175.884 91.127 175.132 91.3433 174.267 91.3433C173.534 91.3433 172.87 91.1783 172.276 90.8483C171.689 90.511 171.224 90.0453 170.879 89.4513C170.542 88.8573 170.373 88.1827 170.373 87.4273ZM181.896 91.3763C181.31 91.3763 180.782 91.248 180.312 90.9913C179.843 90.7273 179.473 90.357 179.201 89.8803C178.937 89.4037 178.805 88.8537 178.805 88.2303C178.805 87.607 178.941 87.057 179.212 86.5803C179.491 86.1037 179.869 85.737 180.345 85.4803C180.822 85.2163 181.354 85.0843 181.94 85.0843C182.527 85.0843 183.059 85.2163 183.535 85.4803C184.012 85.737 184.386 86.1037 184.657 86.5803C184.936 87.057 185.075 87.607 185.075 88.2303C185.075 88.8537 184.932 89.4037 184.646 89.8803C184.368 90.357 183.986 90.7273 183.502 90.9913C183.026 91.248 182.49 91.3763 181.896 91.3763ZM181.896 90.0343C182.175 90.0343 182.435 89.9683 182.677 89.8363C182.927 89.697 183.125 89.4917 183.271 89.2203C183.418 88.949 183.491 88.619 183.491 88.2303C183.491 87.651 183.337 87.2073 183.029 86.8993C182.729 86.584 182.358 86.4263 181.918 86.4263C181.478 86.4263 181.108 86.584 180.807 86.8993C180.514 87.2073 180.367 87.651 180.367 88.2303C180.367 88.8097 180.51 89.257 180.796 89.5723C181.09 89.8803 181.456 90.0343 181.896 90.0343ZM191.958 85.1833V91.2773H190.407V90.5073C190.209 90.7713 189.949 90.9803 189.626 91.1343C189.311 91.281 188.966 91.3543 188.592 91.3543C188.115 91.3543 187.694 91.2553 187.327 91.0573C186.96 90.852 186.671 90.555 186.458 90.1663C186.253 89.7703 186.15 89.301 186.15 88.7583V85.1833H187.69V88.5383C187.69 89.0223 187.811 89.3963 188.053 89.6603C188.295 89.917 188.625 90.0453 189.043 90.0453C189.468 90.0453 189.802 89.917 190.044 89.6603C190.286 89.3963 190.407 89.0223 190.407 88.5383V85.1833H191.958ZM195.017 86.1293C195.215 85.8067 195.472 85.5537 195.787 85.3703C196.11 85.187 196.477 85.0953 196.887 85.0953V86.7123H196.48C195.996 86.7123 195.63 86.826 195.38 87.0533C195.138 87.2807 195.017 87.6767 195.017 88.2413V91.2773H193.477V85.1833H195.017V86.1293ZM200.257 91.3763C199.758 91.3763 199.311 91.2883 198.915 91.1123C198.519 90.929 198.203 90.6833 197.969 90.3753C197.741 90.0673 197.617 89.7263 197.595 89.3523H199.146C199.175 89.587 199.289 89.7813 199.487 89.9353C199.692 90.0893 199.945 90.1663 200.246 90.1663C200.539 90.1663 200.766 90.1077 200.928 89.9903C201.096 89.873 201.181 89.7227 201.181 89.5393C201.181 89.3413 201.078 89.1947 200.873 89.0993C200.675 88.9967 200.356 88.8867 199.916 88.7693C199.461 88.6593 199.087 88.5457 198.794 88.4283C198.508 88.311 198.258 88.1313 198.046 87.8893C197.84 87.6473 197.738 87.321 197.738 86.9103C197.738 86.573 197.833 86.265 198.024 85.9863C198.222 85.7077 198.5 85.4877 198.86 85.3263C199.226 85.165 199.655 85.0843 200.147 85.0843C200.873 85.0843 201.452 85.2677 201.885 85.6343C202.317 85.9937 202.556 86.4813 202.6 87.0973H201.126C201.104 86.8553 201.001 86.6647 200.818 86.5253C200.642 86.3787 200.403 86.3053 200.103 86.3053C199.824 86.3053 199.608 86.3567 199.454 86.4593C199.307 86.562 199.234 86.705 199.234 86.8883C199.234 87.0937 199.336 87.2513 199.542 87.3613C199.747 87.464 200.066 87.5703 200.499 87.6803C200.939 87.7903 201.302 87.904 201.588 88.0213C201.874 88.1387 202.119 88.322 202.325 88.5713C202.537 88.8133 202.647 89.136 202.655 89.5393C202.655 89.8913 202.556 90.2067 202.358 90.4853C202.167 90.764 201.888 90.984 201.522 91.1453C201.162 91.2993 200.741 91.3763 200.257 91.3763ZM209.584 88.0983C209.584 88.3183 209.569 88.5163 209.54 88.6923H205.085C205.121 89.1323 205.275 89.477 205.547 89.7263C205.818 89.9757 206.152 90.1003 206.548 90.1003C207.12 90.1003 207.527 89.8547 207.769 89.3633H209.43C209.254 89.95 208.916 90.434 208.418 90.8153C207.919 91.1893 207.307 91.3763 206.581 91.3763C205.994 91.3763 205.466 91.248 204.997 90.9913C204.535 90.7273 204.172 90.357 203.908 89.8803C203.651 89.4037 203.523 88.8537 203.523 88.2303C203.523 87.5997 203.651 87.046 203.908 86.5693C204.164 86.0927 204.524 85.726 204.986 85.4693C205.448 85.2127 205.979 85.0843 206.581 85.0843C207.16 85.0843 207.677 85.209 208.132 85.4583C208.594 85.7077 208.949 86.0633 209.199 86.5253C209.455 86.98 209.584 87.5043 209.584 88.0983ZM207.989 87.6583C207.981 87.2623 207.838 86.947 207.56 86.7123C207.281 86.4703 206.94 86.3493 206.537 86.3493C206.155 86.3493 205.833 86.4667 205.569 86.7013C205.312 86.9287 205.154 87.2477 205.096 87.6583H207.989ZM218.015 86.7013V87.9993H213.351V86.7013H218.015ZM221.989 87.4273C221.989 86.672 222.158 85.9973 222.495 85.4033C222.84 84.802 223.305 84.3363 223.892 84.0063C224.486 83.669 225.15 83.5003 225.883 83.5003C226.741 83.5003 227.493 83.7203 228.138 84.1603C228.783 84.6003 229.234 85.209 229.491 85.9863H227.72C227.544 85.6197 227.295 85.3447 226.972 85.1613C226.657 84.978 226.29 84.8863 225.872 84.8863C225.425 84.8863 225.025 84.9927 224.673 85.2053C224.328 85.4107 224.057 85.704 223.859 86.0853C223.668 86.4667 223.573 86.914 223.573 87.4273C223.573 87.9333 223.668 88.3807 223.859 88.7693C224.057 89.1507 224.328 89.4477 224.673 89.6603C225.025 89.8657 225.425 89.9683 225.872 89.9683C226.29 89.9683 226.657 89.8767 226.972 89.6933C227.295 89.5027 227.544 89.224 227.72 88.8573H229.491C229.234 89.642 228.783 90.2543 228.138 90.6943C227.5 91.127 226.748 91.3433 225.883 91.3433C225.15 91.3433 224.486 91.1783 223.892 90.8483C223.305 90.511 222.84 90.0453 222.495 89.4513C222.158 88.8573 221.989 88.1827 221.989 87.4273ZM233.512 91.3763C232.926 91.3763 232.398 91.248 231.928 90.9913C231.459 90.7273 231.089 90.357 230.817 89.8803C230.553 89.4037 230.421 88.8537 230.421 88.2303C230.421 87.607 230.557 87.057 230.828 86.5803C231.107 86.1037 231.485 85.737 231.961 85.4803C232.438 85.2163 232.97 85.0843 233.556 85.0843C234.143 85.0843 234.675 85.2163 235.151 85.4803C235.628 85.737 236.002 86.1037 236.273 86.5803C236.552 87.057 236.691 87.607 236.691 88.2303C236.691 88.8537 236.548 89.4037 236.262 89.8803C235.984 90.357 235.602 90.7273 235.118 90.9913C234.642 91.248 234.106 91.3763 233.512 91.3763ZM233.512 90.0343C233.791 90.0343 234.051 89.9683 234.293 89.8363C234.543 89.697 234.741 89.4917 234.887 89.2203C235.034 88.949 235.107 88.619 235.107 88.2303C235.107 87.651 234.953 87.2073 234.645 86.8993C234.345 86.584 233.974 86.4263 233.534 86.4263C233.094 86.4263 232.724 86.584 232.423 86.8993C232.13 87.2073 231.983 87.651 231.983 88.2303C231.983 88.8097 232.126 89.257 232.412 89.5723C232.706 89.8803 233.072 90.0343 233.512 90.0343ZM239.361 83.1373V91.2773H237.821V83.1373H239.361ZM242.423 83.1373V91.2773H240.883V83.1373H242.423ZM249.609 88.0983C249.609 88.3183 249.595 88.5163 249.565 88.6923H245.11C245.147 89.1323 245.301 89.477 245.572 89.7263C245.844 89.9757 246.177 90.1003 246.573 90.1003C247.145 90.1003 247.552 89.8547 247.794 89.3633H249.455C249.279 89.95 248.942 90.434 248.443 90.8153C247.945 91.1893 247.332 91.3763 246.606 91.3763C246.02 91.3763 245.492 91.248 245.022 90.9913C244.56 90.7273 244.197 90.357 243.933 89.8803C243.677 89.4037 243.548 88.8537 243.548 88.2303C243.548 87.5997 243.677 87.046 243.933 86.5693C244.19 86.0927 244.549 85.726 245.011 85.4693C245.473 85.2127 246.005 85.0843 246.606 85.0843C247.186 85.0843 247.703 85.209 248.157 85.4583C248.619 85.7077 248.975 86.0633 249.224 86.5253C249.481 86.98 249.609 87.5043 249.609 88.0983ZM248.014 87.6583C248.007 87.2623 247.864 86.947 247.585 86.7123C247.307 86.4703 246.966 86.3493 246.562 86.3493C246.181 86.3493 245.858 86.4667 245.594 86.7013C245.338 86.9287 245.18 87.2477 245.121 87.6583H248.014ZM253.12 85.0843C253.575 85.0843 253.975 85.176 254.319 85.3593C254.664 85.5353 254.935 85.7663 255.133 86.0523V85.1833H256.684V91.3213C256.684 91.886 256.571 92.3883 256.343 92.8283C256.116 93.2757 255.775 93.6277 255.32 93.8843C254.866 94.1483 254.316 94.2803 253.67 94.2803C252.805 94.2803 252.094 94.0787 251.536 93.6753C250.986 93.272 250.675 92.722 250.601 92.0253H252.13C252.211 92.304 252.383 92.524 252.647 92.6853C252.919 92.854 253.245 92.9383 253.626 92.9383C254.074 92.9383 254.437 92.8027 254.715 92.5313C254.994 92.2673 255.133 91.864 255.133 91.3213V90.3753C254.935 90.6613 254.66 90.8997 254.308 91.0903C253.964 91.281 253.568 91.3763 253.12 91.3763C252.607 91.3763 252.138 91.2443 251.712 90.9803C251.287 90.7163 250.95 90.346 250.7 89.8693C250.458 89.3853 250.337 88.8317 250.337 88.2083C250.337 87.5923 250.458 87.046 250.7 86.5693C250.95 86.0927 251.283 85.726 251.701 85.4693C252.127 85.2127 252.6 85.0843 253.12 85.0843ZM255.133 88.2303C255.133 87.8563 255.06 87.5373 254.913 87.2733C254.767 87.002 254.569 86.7967 254.319 86.6573C254.07 86.5107 253.802 86.4373 253.516 86.4373C253.23 86.4373 252.966 86.507 252.724 86.6463C252.482 86.7857 252.284 86.991 252.13 87.2623C251.984 87.5263 251.91 87.8417 251.91 88.2083C251.91 88.575 251.984 88.8977 252.13 89.1763C252.284 89.4477 252.482 89.6567 252.724 89.8033C252.974 89.95 253.238 90.0233 253.516 90.0233C253.802 90.0233 254.07 89.9537 254.319 89.8143C254.569 89.6677 254.767 89.4623 254.913 89.1983C255.06 88.927 255.133 88.6043 255.133 88.2303ZM263.853 88.0983C263.853 88.3183 263.839 88.5163 263.809 88.6923H259.354C259.391 89.1323 259.545 89.477 259.816 89.7263C260.088 89.9757 260.421 90.1003 260.817 90.1003C261.389 90.1003 261.796 89.8547 262.038 89.3633H263.699C263.523 89.95 263.186 90.434 262.687 90.8153C262.189 91.1893 261.576 91.3763 260.85 91.3763C260.264 91.3763 259.736 91.248 259.266 90.9913C258.804 90.7273 258.441 90.357 258.177 89.8803C257.921 89.4037 257.792 88.8537 257.792 88.2303C257.792 87.5997 257.921 87.046 258.177 86.5693C258.434 86.0927 258.793 85.726 259.255 85.4693C259.717 85.2127 260.249 85.0843 260.85 85.0843C261.43 85.0843 261.947 85.209 262.401 85.4583C262.863 85.7077 263.219 86.0633 263.468 86.5253C263.725 86.98 263.853 87.5043 263.853 88.0983ZM262.258 87.6583C262.251 87.2623 262.108 86.947 261.829 86.7123C261.551 86.4703 261.21 86.3493 260.806 86.3493C260.425 86.3493 260.102 86.4667 259.838 86.7013C259.582 86.9287 259.424 87.2477 259.365 87.6583H262.258ZM272.284 86.7013V87.9993H267.62V86.7013H272.284ZM281.11 83.5993V88.9893C281.11 89.7373 280.893 90.3203 280.461 90.7383C280.028 91.149 279.449 91.3543 278.723 91.3543C277.989 91.3543 277.395 91.1417 276.941 90.7163C276.493 90.291 276.27 89.697 276.27 88.9343H277.81C277.817 89.2643 277.894 89.521 278.041 89.7043C278.195 89.8877 278.415 89.9793 278.701 89.9793C278.979 89.9793 279.192 89.8913 279.339 89.7153C279.485 89.5393 279.559 89.2973 279.559 88.9893V83.5993H281.11ZM285.612 91.3763C285.025 91.3763 284.497 91.248 284.028 90.9913C283.559 90.7273 283.188 90.357 282.917 89.8803C282.653 89.4037 282.521 88.8537 282.521 88.2303C282.521 87.607 282.657 87.057 282.928 86.5803C283.207 86.1037 283.584 85.737 284.061 85.4803C284.538 85.2163 285.069 85.0843 285.656 85.0843C286.243 85.0843 286.774 85.2163 287.251 85.4803C287.728 85.737 288.102 86.1037 288.373 86.5803C288.652 87.057 288.791 87.607 288.791 88.2303C288.791 88.8537 288.648 89.4037 288.362 89.8803C288.083 90.357 287.702 90.7273 287.218 90.9913C286.741 91.248 286.206 91.3763 285.612 91.3763ZM285.612 90.0343C285.891 90.0343 286.151 89.9683 286.393 89.8363C286.642 89.697 286.84 89.4917 286.987 89.2203C287.134 88.949 287.207 88.619 287.207 88.2303C287.207 87.651 287.053 87.2073 286.745 86.8993C286.444 86.584 286.074 86.4263 285.634 86.4263C285.194 86.4263 284.824 86.584 284.523 86.8993C284.23 87.2073 284.083 87.651 284.083 88.2303C284.083 88.8097 284.226 89.257 284.512 89.5723C284.805 89.8803 285.172 90.0343 285.612 90.0343ZM291.461 86.0743C291.659 85.781 291.93 85.5427 292.275 85.3593C292.627 85.176 293.026 85.0843 293.474 85.0843C293.994 85.0843 294.464 85.2127 294.882 85.4693C295.307 85.726 295.641 86.0927 295.883 86.5693C296.132 87.0387 296.257 87.585 296.257 88.2083C296.257 88.8317 296.132 89.3853 295.883 89.8693C295.641 90.346 295.307 90.7163 294.882 90.9803C294.464 91.2443 293.994 91.3763 293.474 91.3763C293.019 91.3763 292.619 91.2883 292.275 91.1123C291.937 90.929 291.666 90.6943 291.461 90.4083V91.2773H289.921V83.1373H291.461V86.0743ZM294.684 88.2083C294.684 87.8417 294.607 87.5263 294.453 87.2623C294.306 86.991 294.108 86.7857 293.859 86.6463C293.617 86.507 293.353 86.4373 293.067 86.4373C292.788 86.4373 292.524 86.5107 292.275 86.6573C292.033 86.7967 291.835 87.002 291.681 87.2733C291.534 87.5447 291.461 87.8637 291.461 88.2303C291.461 88.597 291.534 88.916 291.681 89.1873C291.835 89.4587 292.033 89.6677 292.275 89.8143C292.524 89.9537 292.788 90.0233 293.067 90.0233C293.353 90.0233 293.617 89.95 293.859 89.8033C294.108 89.6567 294.306 89.4477 294.453 89.1763C294.607 88.905 294.684 88.5823 294.684 88.2083ZM304.683 86.7013V87.9993H300.019V86.7013H304.683ZM311.682 91.3543C311.147 91.3543 310.663 91.2627 310.23 91.0793C309.805 90.896 309.467 90.632 309.218 90.2873C308.969 89.9427 308.84 89.5357 308.833 89.0663H310.483C310.505 89.3817 310.615 89.631 310.813 89.8143C311.018 89.9977 311.297 90.0893 311.649 90.0893C312.008 90.0893 312.291 90.005 312.496 89.8363C312.701 89.6603 312.804 89.433 312.804 89.1543C312.804 88.927 312.734 88.74 312.595 88.5933C312.456 88.4467 312.28 88.333 312.067 88.2523C311.862 88.1643 311.576 88.069 311.209 87.9663C310.71 87.8197 310.303 87.6767 309.988 87.5373C309.68 87.3907 309.412 87.1743 309.185 86.8883C308.965 86.595 308.855 86.2063 308.855 85.7223C308.855 85.2677 308.969 84.8717 309.196 84.5343C309.423 84.197 309.742 83.9403 310.153 83.7643C310.564 83.581 311.033 83.4893 311.561 83.4893C312.353 83.4893 312.995 83.6837 313.486 84.0723C313.985 84.4537 314.26 84.989 314.311 85.6783H312.617C312.602 85.4143 312.489 85.198 312.276 85.0293C312.071 84.8533 311.796 84.7653 311.451 84.7653C311.15 84.7653 310.908 84.8423 310.725 84.9963C310.549 85.1503 310.461 85.374 310.461 85.6673C310.461 85.8727 310.527 86.045 310.659 86.1843C310.798 86.3163 310.967 86.4263 311.165 86.5143C311.37 86.595 311.656 86.6903 312.023 86.8003C312.522 86.947 312.929 87.0937 313.244 87.2403C313.559 87.387 313.831 87.607 314.058 87.9003C314.285 88.1937 314.399 88.5787 314.399 89.0553C314.399 89.466 314.293 89.8473 314.08 90.1993C313.867 90.5513 313.556 90.8337 313.145 91.0463C312.734 91.2517 312.247 91.3543 311.682 91.3543ZM319.342 91.2773L317.274 88.6813V91.2773H315.734V83.1373H317.274V87.7683L319.32 85.1833H321.322L318.638 88.2413L321.344 91.2773H319.342ZM322.939 84.4573C322.668 84.4573 322.44 84.373 322.257 84.2043C322.081 84.0283 321.993 83.812 321.993 83.5553C321.993 83.2987 322.081 83.086 322.257 82.9173C322.44 82.7413 322.668 82.6533 322.939 82.6533C323.21 82.6533 323.434 82.7413 323.61 82.9173C323.793 83.086 323.885 83.2987 323.885 83.5553C323.885 83.812 323.793 84.0283 323.61 84.2043C323.434 84.373 323.21 84.4573 322.939 84.4573ZM323.698 85.1833V91.2773H322.158V85.1833H323.698ZM326.76 83.1373V91.2773H325.22V83.1373H326.76ZM329.821 83.1373V91.2773H328.281V83.1373H329.821ZM330.947 93.4443V93.2903C331.687 92.5277 332.256 91.6293 332.652 90.5953C333.055 89.554 333.257 88.476 333.257 87.3613C333.257 86.2173 333.044 85.1063 332.619 84.0283C332.201 82.9503 331.588 82.0263 330.782 81.2563V81.1133H332.333C333.117 81.8173 333.715 82.723 334.126 83.8303C334.536 84.9303 334.742 86.1073 334.742 87.3613C334.742 88.586 334.544 89.7337 334.148 90.8043C333.759 91.875 333.209 92.755 332.498 93.4443H330.947Z" fill="black"/>
<circle cx="38.1199" cy="33.5057" r="20.1195" fill="#E13636"/>
<path d="M278.332 44.4313C277.262 44.4313 276.294 44.248 275.428 43.8813C274.578 43.5147 273.903 42.9867 273.404 42.2973C272.906 41.608 272.649 40.794 272.634 39.8553H275.934C275.978 40.486 276.198 40.9847 276.594 41.3513C277.005 41.718 277.562 41.9013 278.266 41.9013C278.985 41.9013 279.55 41.7327 279.96 41.3953C280.371 41.0433 280.576 40.5887 280.576 40.0313C280.576 39.5767 280.437 39.2027 280.158 38.9093C279.88 38.616 279.528 38.3887 279.102 38.2273C278.692 38.0513 278.12 37.8607 277.386 37.6553C276.389 37.362 275.575 37.076 274.944 36.7973C274.328 36.504 273.793 36.0713 273.338 35.4993C272.898 34.9127 272.678 34.1353 272.678 33.1673C272.678 32.258 272.906 31.466 273.36 30.7913C273.815 30.1167 274.453 29.6033 275.274 29.2513C276.096 28.8847 277.034 28.7013 278.09 28.7013C279.674 28.7013 280.958 29.09 281.94 29.8673C282.938 30.63 283.488 31.7007 283.59 33.0793H280.202C280.173 32.5513 279.946 32.1187 279.52 31.7813C279.11 31.4293 278.56 31.2533 277.87 31.2533C277.269 31.2533 276.785 31.4073 276.418 31.7153C276.066 32.0233 275.89 32.4707 275.89 33.0573C275.89 33.468 276.022 33.8127 276.286 34.0913C276.565 34.3553 276.902 34.5753 277.298 34.7513C277.709 34.9127 278.281 35.1033 279.014 35.3233C280.012 35.6167 280.826 35.91 281.456 36.2033C282.087 36.4967 282.63 36.9367 283.084 37.5233C283.539 38.11 283.766 38.88 283.766 39.8333C283.766 40.6547 283.554 41.4173 283.128 42.1213C282.703 42.8253 282.08 43.39 281.258 43.8153C280.437 44.226 279.462 44.4313 278.332 44.4313ZM296.887 28.9213V31.4073H292.795V44.2773H289.715V31.4073H285.623V28.9213H296.887ZM302.214 31.4073V35.2573H307.384V37.6993H302.214V41.7693H308.044V44.2773H299.134V28.8993H308.044V31.4073H302.214ZM322.041 33.6733C322.041 34.4947 321.843 35.2647 321.447 35.9833C321.065 36.702 320.457 37.2813 319.621 37.7213C318.799 38.1613 317.758 38.3813 316.497 38.3813H313.923V44.2773H310.843V28.9213H316.497C317.685 28.9213 318.697 29.1267 319.533 29.5373C320.369 29.948 320.992 30.5127 321.403 31.2313C321.828 31.95 322.041 32.764 322.041 33.6733ZM316.365 35.8953C317.215 35.8953 317.846 35.7047 318.257 35.3233C318.667 34.9273 318.873 34.3773 318.873 33.6733C318.873 32.1773 318.037 31.4293 316.365 31.4293H313.923V35.8953H316.365ZM329.162 32.4633C329.235 30.9967 329.748 29.8673 330.702 29.0753C331.67 28.2687 332.938 27.8653 334.508 27.8653C335.578 27.8653 336.495 28.056 337.258 28.4373C338.02 28.804 338.592 29.31 338.974 29.9553C339.37 30.586 339.568 31.3047 339.568 32.1113C339.568 33.0353 339.326 33.82 338.842 34.4653C338.372 35.096 337.808 35.5213 337.148 35.7413V35.8293C337.998 36.0933 338.658 36.5627 339.128 37.2373C339.612 37.912 339.854 38.7773 339.854 39.8333C339.854 40.7133 339.648 41.498 339.238 42.1873C338.842 42.8767 338.248 43.4193 337.456 43.8153C336.678 44.1967 335.74 44.3873 334.64 44.3873C332.982 44.3873 331.633 43.9693 330.592 43.1333C329.55 42.2973 329 41.0653 328.942 39.4373H331.934C331.963 40.156 332.205 40.7353 332.66 41.1753C333.129 41.6007 333.767 41.8133 334.574 41.8133C335.322 41.8133 335.894 41.608 336.29 41.1973C336.7 40.772 336.906 40.2293 336.906 39.5693C336.906 38.6893 336.627 38.0587 336.07 37.6773C335.512 37.296 334.647 37.1053 333.474 37.1053H332.836V34.5753H333.474C335.556 34.5753 336.598 33.8787 336.598 32.4853C336.598 31.8547 336.407 31.3633 336.026 31.0113C335.659 30.6593 335.124 30.4833 334.42 30.4833C333.73 30.4833 333.195 30.674 332.814 31.0553C332.447 31.422 332.234 31.8913 332.176 32.4633H329.162Z" fill="black"/>
<path d="M234.348 36.7773C234.348 38.2501 235.542 39.444 237.015 39.444C238.488 39.444 239.682 38.2501 239.682 36.7773C239.682 35.3046 238.488 34.1107 237.015 34.1107C235.542 34.1107 234.348 35.3046 234.348 36.7773ZM90.6256 37.2773H237.015V36.2773H90.6256V37.2773Z" fill="#E13636"/>
<defs>
<filter id="filter0_d_84_138" x="0.955566" y="0.38623" width="369.531" height="132.782" filterUnits="userSpaceOnUse" color-interpolation-filters="sRGB">
<feFlood flood-opacity="0" result="BackgroundImageFix"/>
<feColorMatrix in="SourceAlpha" type="matrix" values="0 0 0 0 0 0 0 0 0 0 0 0 0 0 0 0 0 0 127 0" result="hardAlpha"/>
<feOffset dy="4"/>
<feGaussianBlur stdDeviation="8.5"/>
<feComposite in2="hardAlpha" operator="out"/>
<feColorMatrix type="matrix" values="0 0 0 0 0.880688 0 0 0 0 0.880688 0 0 0 0 0.880688 0 0 0 0.25 0"/>
<feBlend mode="normal" in2="BackgroundImageFix" result="effect1_dropShadow_84_138"/>
<feBlend mode="normal" in="SourceGraphic" in2="effect1_dropShadow_84_138" result="shape"/>
</filter>
</defs>
</svg>
