<svg width="371" height="134" viewBox="0 0 371 134" fill="none" xmlns="http://www.w3.org/2000/svg">
<g filter="url(#filter0_d_84_126)">
<path d="M38.3578 69.9614C57.1603 69.9614 72.4028 54.7189 72.4028 35.9163C72.4028 35.1238 72.3758 34.3376 72.3225 33.5587C71.7401 25.0443 77.4129 13.8228 85.9472 13.8228H339.623C347.28 13.8228 353.487 20.0299 353.487 27.6867V98.7406C353.487 106.398 347.28 112.605 339.623 112.605H31.8196C24.1627 112.605 17.9556 106.398 17.9556 98.7406V83.1688C17.9556 74.9292 28.2475 69.4617 36.4749 69.9102C37.0982 69.9442 37.726 69.9614 38.3578 69.9614Z" fill="white"/>
<path d="M38.3578 70.4614C57.4365 70.4614 72.9028 54.995 72.9028 35.9163C72.9028 35.1124 72.8754 34.3149 72.8213 33.5246C72.5377 29.3786 73.7804 24.5483 76.1404 20.7623C78.5032 16.9719 81.9194 14.3228 85.9472 14.3228H339.623C347.003 14.3228 352.987 20.306 352.987 27.6867V98.7406C352.987 106.121 347.003 112.105 339.623 112.105H31.8196C24.4389 112.105 18.4556 106.121 18.4556 98.7406V83.1688C18.4556 79.277 20.8855 75.9866 24.4025 73.7007C27.918 71.4157 32.4434 70.1912 36.4477 70.4095C37.08 70.4439 37.7169 70.4614 38.3578 70.4614Z" stroke="#F2F2F2"/>
</g>
<path d="M90.0493 60.2439V61.9389H87.2593V70.7139H85.1593V61.9389H82.3693V60.2439H90.0493ZM91.0415 66.5289C91.0415 65.6889 91.2065 64.9439 91.5365 64.2939C91.8765 63.6439 92.3315 63.1439 92.9015 62.7939C93.4815 62.4439 94.1265 62.2689 94.8365 62.2689C95.4565 62.2689 95.9965 62.3939 96.4565 62.6439C96.9265 62.8939 97.3015 63.2089 97.5815 63.5889V62.4039H99.6965V70.7139H97.5815V69.4989C97.3115 69.8889 96.9365 70.2139 96.4565 70.4739C95.9865 70.7239 95.4415 70.8489 94.8215 70.8489C94.1215 70.8489 93.4815 70.6689 92.9015 70.3089C92.3315 69.9489 91.8765 69.4439 91.5365 68.7939C91.2065 68.1339 91.0415 67.3789 91.0415 66.5289ZM97.5815 66.5589C97.5815 66.0489 97.4815 65.6139 97.2815 65.2539C97.0815 64.8839 96.8115 64.6039 96.4715 64.4139C96.1315 64.2139 95.7665 64.1139 95.3765 64.1139C94.9865 64.1139 94.6265 64.2089 94.2965 64.3989C93.9665 64.5889 93.6965 64.8689 93.4865 65.2389C93.2865 65.5989 93.1865 66.0289 93.1865 66.5289C93.1865 67.0289 93.2865 67.4689 93.4865 67.8489C93.6965 68.2189 93.9665 68.5039 94.2965 68.7039C94.6365 68.9039 94.9965 69.0039 95.3765 69.0039C95.7665 69.0039 96.1315 68.9089 96.4715 68.7189C96.8115 68.5189 97.0815 68.2389 97.2815 67.8789C97.4815 67.5089 97.5815 67.0689 97.5815 66.5589ZM106.668 70.7139L103.848 67.1739V70.7139H101.748V59.6139H103.848V65.9289L106.638 62.4039H109.368L105.708 66.5739L109.398 70.7139H106.668ZM118.232 66.3789C118.232 66.6789 118.212 66.9489 118.172 67.1889H112.097C112.147 67.7889 112.357 68.2589 112.727 68.5989C113.097 68.9389 113.552 69.1089 114.092 69.1089C114.872 69.1089 115.427 68.7739 115.757 68.1039H118.022C117.782 68.9039 117.322 69.5639 116.642 70.0839C115.962 70.5939 115.127 70.8489 114.137 70.8489C113.337 70.8489 112.617 70.6739 111.977 70.3239C111.347 69.9639 110.852 69.4589 110.492 68.8089C110.142 68.1589 109.967 67.4089 109.967 66.5589C109.967 65.6989 110.142 64.9439 110.492 64.2939C110.842 63.6439 111.332 63.1439 111.962 62.7939C112.592 62.4439 113.317 62.2689 114.137 62.2689C114.927 62.2689 115.632 62.4389 116.252 62.7789C116.882 63.1189 117.367 63.6039 117.707 64.2339C118.057 64.8539 118.232 65.5689 118.232 66.3789ZM116.057 65.7789C116.047 65.2389 115.852 64.8089 115.472 64.4889C115.092 64.1589 114.627 63.9939 114.077 63.9939C113.557 63.9939 113.117 64.1539 112.757 64.4739C112.407 64.7839 112.192 65.2189 112.112 65.7789H116.057ZM131.664 60.2439L128.124 67.0689V70.7139H126.024V67.0689L122.469 60.2439H124.839L127.089 65.0289L129.324 60.2439H131.664ZM136.565 70.8489C135.765 70.8489 135.045 70.6739 134.405 70.3239C133.765 69.9639 133.26 69.4589 132.89 68.8089C132.53 68.1589 132.35 67.4089 132.35 66.5589C132.35 65.7089 132.535 64.9589 132.905 64.3089C133.285 63.6589 133.8 63.1589 134.45 62.8089C135.1 62.4489 135.825 62.2689 136.625 62.2689C137.425 62.2689 138.15 62.4489 138.8 62.8089C139.45 63.1589 139.96 63.6589 140.33 64.3089C140.71 64.9589 140.9 65.7089 140.9 66.5589C140.9 67.4089 140.705 68.1589 140.315 68.8089C139.935 69.4589 139.415 69.9639 138.755 70.3239C138.105 70.6739 137.375 70.8489 136.565 70.8489ZM136.565 69.0189C136.945 69.0189 137.3 68.9289 137.63 68.7489C137.97 68.5589 138.24 68.2789 138.44 67.9089C138.64 67.5389 138.74 67.0889 138.74 66.5589C138.74 65.7689 138.53 65.1639 138.11 64.7439C137.7 64.3139 137.195 64.0989 136.595 64.0989C135.995 64.0989 135.49 64.3139 135.08 64.7439C134.68 65.1639 134.48 65.7689 134.48 66.5589C134.48 67.3489 134.675 67.9589 135.065 68.3889C135.465 68.8089 135.965 69.0189 136.565 69.0189ZM150.286 62.4039V70.7139H148.171V69.6639C147.901 70.0239 147.546 70.3089 147.106 70.5189C146.676 70.7189 146.206 70.8189 145.696 70.8189C145.046 70.8189 144.471 70.6839 143.971 70.4139C143.471 70.1339 143.076 69.7289 142.786 69.1989C142.506 68.6589 142.366 68.0189 142.366 67.2789V62.4039H144.466V66.9789C144.466 67.6389 144.631 68.1489 144.961 68.5089C145.291 68.8589 145.741 69.0339 146.311 69.0339C146.891 69.0339 147.346 68.8589 147.676 68.5089C148.006 68.1489 148.171 67.6389 148.171 66.9789V62.4039H150.286ZM154.458 63.6939C154.728 63.2539 155.078 62.9089 155.508 62.6589C155.948 62.4089 156.448 62.2839 157.008 62.2839V64.4889H156.453C155.793 64.4889 155.293 64.6439 154.953 64.9539C154.623 65.2639 154.458 65.8039 154.458 66.5739V70.7139H152.358V62.4039H154.458V63.6939ZM169.632 63.4839C169.632 64.0439 169.497 64.5689 169.227 65.0589C168.967 65.5489 168.552 65.9439 167.982 66.2439C167.422 66.5439 166.712 66.6939 165.852 66.6939H164.097V70.7139H161.997V60.2439H165.852C166.662 60.2439 167.352 60.3839 167.922 60.6639C168.492 60.9439 168.917 61.3289 169.197 61.8189C169.487 62.3089 169.632 62.8639 169.632 63.4839ZM165.762 64.9989C166.342 64.9989 166.772 64.8689 167.052 64.6089C167.332 64.3389 167.472 63.9639 167.472 63.4839C167.472 62.4639 166.902 61.9539 165.762 61.9539H164.097V64.9989H165.762ZM178.848 66.3789C178.848 66.6789 178.828 66.9489 178.788 67.1889H172.713C172.763 67.7889 172.973 68.2589 173.343 68.5989C173.713 68.9389 174.168 69.1089 174.708 69.1089C175.488 69.1089 176.043 68.7739 176.373 68.1039H178.638C178.398 68.9039 177.938 69.5639 177.258 70.0839C176.578 70.5939 175.743 70.8489 174.753 70.8489C173.953 70.8489 173.233 70.6739 172.593 70.3239C171.963 69.9639 171.468 69.4589 171.108 68.8089C170.758 68.1589 170.583 67.4089 170.583 66.5589C170.583 65.6989 170.758 64.9439 171.108 64.2939C171.458 63.6439 171.948 63.1439 172.578 62.7939C173.208 62.4439 173.933 62.2689 174.753 62.2689C175.543 62.2689 176.248 62.4389 176.868 62.7789C177.498 63.1189 177.983 63.6039 178.323 64.2339C178.673 64.8539 178.848 65.5689 178.848 66.3789ZM176.673 65.7789C176.663 65.2389 176.468 64.8089 176.088 64.4889C175.708 64.1589 175.243 63.9939 174.693 63.9939C174.173 63.9939 173.733 64.1539 173.373 64.4739C173.023 64.7839 172.808 65.2189 172.728 65.7789H176.673ZM182.48 63.6939C182.75 63.2539 183.1 62.9089 183.53 62.6589C183.97 62.4089 184.47 62.2839 185.03 62.2839V64.4889H184.475C183.815 64.4889 183.315 64.6439 182.975 64.9539C182.645 65.2639 182.48 65.8039 182.48 66.5739V70.7139H180.38V62.4039H182.48V63.6939ZM189.625 70.8489C188.945 70.8489 188.335 70.7289 187.795 70.4889C187.255 70.2389 186.825 69.9039 186.505 69.4839C186.195 69.0639 186.025 68.5989 185.995 68.0889H188.11C188.15 68.4089 188.305 68.6739 188.575 68.8839C188.855 69.0939 189.2 69.1989 189.61 69.1989C190.01 69.1989 190.32 69.1189 190.54 68.9589C190.77 68.7989 190.885 68.5939 190.885 68.3439C190.885 68.0739 190.745 67.8739 190.465 67.7439C190.195 67.6039 189.76 67.4539 189.16 67.2939C188.54 67.1439 188.03 66.9889 187.63 66.8289C187.24 66.6689 186.9 66.4239 186.61 66.0939C186.33 65.7639 186.19 65.3189 186.19 64.7589C186.19 64.2989 186.32 63.8789 186.58 63.4989C186.85 63.1189 187.23 62.8189 187.72 62.5989C188.22 62.3789 188.805 62.2689 189.475 62.2689C190.465 62.2689 191.255 62.5189 191.845 63.0189C192.435 63.5089 192.76 64.1739 192.82 65.0139H190.81C190.78 64.6839 190.64 64.4239 190.39 64.2339C190.15 64.0339 189.825 63.9339 189.415 63.9339C189.035 63.9339 188.74 64.0039 188.53 64.1439C188.33 64.2839 188.23 64.4789 188.23 64.7289C188.23 65.0089 188.37 65.2239 188.65 65.3739C188.93 65.5139 189.365 65.6589 189.955 65.8089C190.555 65.9589 191.05 66.1139 191.44 66.2739C191.83 66.4339 192.165 66.6839 192.445 67.0239C192.735 67.3539 192.885 67.7939 192.895 68.3439C192.895 68.8239 192.76 69.2539 192.49 69.6339C192.23 70.0139 191.85 70.3139 191.35 70.5339C190.86 70.7439 190.285 70.8489 189.625 70.8489ZM198.309 70.8489C197.509 70.8489 196.789 70.6739 196.149 70.3239C195.509 69.9639 195.004 69.4589 194.634 68.8089C194.274 68.1589 194.094 67.4089 194.094 66.5589C194.094 65.7089 194.279 64.9589 194.649 64.3089C195.029 63.6589 195.544 63.1589 196.194 62.8089C196.844 62.4489 197.569 62.2689 198.369 62.2689C199.169 62.2689 199.894 62.4489 200.544 62.8089C201.194 63.1589 201.704 63.6589 202.074 64.3089C202.454 64.9589 202.644 65.7089 202.644 66.5589C202.644 67.4089 202.449 68.1589 202.059 68.8089C201.679 69.4589 201.159 69.9639 200.499 70.3239C199.849 70.6739 199.119 70.8489 198.309 70.8489ZM198.309 69.0189C198.689 69.0189 199.044 68.9289 199.374 68.7489C199.714 68.5589 199.984 68.2789 200.184 67.9089C200.384 67.5389 200.484 67.0889 200.484 66.5589C200.484 65.7689 200.274 65.1639 199.854 64.7439C199.444 64.3139 198.939 64.0989 198.339 64.0989C197.739 64.0989 197.234 64.3139 196.824 64.7439C196.424 65.1639 196.224 65.7689 196.224 66.5589C196.224 67.3489 196.419 67.9589 196.809 68.3889C197.209 68.8089 197.709 69.0189 198.309 69.0189ZM208.789 62.2839C209.779 62.2839 210.579 62.5989 211.189 63.2289C211.799 63.8489 212.104 64.7189 212.104 65.8389V70.7139H210.004V66.1239C210.004 65.4639 209.839 64.9589 209.509 64.6089C209.179 64.2489 208.729 64.0689 208.159 64.0689C207.579 64.0689 207.119 64.2489 206.779 64.6089C206.449 64.9589 206.284 65.4639 206.284 66.1239V70.7139H204.184V62.4039H206.284V63.4389C206.564 63.0789 206.919 62.7989 207.349 62.5989C207.789 62.3889 208.269 62.2839 208.789 62.2839ZM213.561 66.5289C213.561 65.6889 213.726 64.9439 214.056 64.2939C214.396 63.6439 214.851 63.1439 215.421 62.7939C216.001 62.4439 216.646 62.2689 217.356 62.2689C217.976 62.2689 218.516 62.3939 218.976 62.6439C219.446 62.8939 219.821 63.2089 220.101 63.5889V62.4039H222.216V70.7139H220.101V69.4989C219.831 69.8889 219.456 70.2139 218.976 70.4739C218.506 70.7239 217.961 70.8489 217.341 70.8489C216.641 70.8489 216.001 70.6689 215.421 70.3089C214.851 69.9489 214.396 69.4439 214.056 68.7939C213.726 68.1339 213.561 67.3789 213.561 66.5289ZM220.101 66.5589C220.101 66.0489 220.001 65.6139 219.801 65.2539C219.601 64.8839 219.331 64.6039 218.991 64.4139C218.651 64.2139 218.286 64.1139 217.896 64.1139C217.506 64.1139 217.146 64.2089 216.816 64.3989C216.486 64.5889 216.216 64.8689 216.006 65.2389C215.806 65.5989 215.706 66.0289 215.706 66.5289C215.706 67.0289 215.806 67.4689 216.006 67.8489C216.216 68.2189 216.486 68.5039 216.816 68.7039C217.156 68.9039 217.516 69.0039 217.896 69.0039C218.286 69.0039 218.651 68.9089 218.991 68.7189C219.331 68.5189 219.601 68.2389 219.801 67.8789C220.001 67.5089 220.101 67.0689 220.101 66.5589ZM226.367 59.6139V70.7139H224.267V59.6139H226.367ZM239.651 63.4839C239.651 64.0439 239.516 64.5689 239.246 65.0589C238.986 65.5489 238.571 65.9439 238.001 66.2439C237.441 66.5439 236.731 66.6939 235.871 66.6939H234.116V70.7139H232.016V60.2439H235.871C236.681 60.2439 237.371 60.3839 237.941 60.6639C238.511 60.9439 238.936 61.3289 239.216 61.8189C239.506 62.3089 239.651 62.8639 239.651 63.4839ZM235.781 64.9989C236.361 64.9989 236.791 64.8689 237.071 64.6089C237.351 64.3389 237.491 63.9639 237.491 63.4839C237.491 62.4639 236.921 61.9539 235.781 61.9539H234.116V64.9989H235.781ZM244.322 70.8489C243.642 70.8489 243.032 70.7289 242.492 70.4889C241.952 70.2389 241.522 69.9039 241.202 69.4839C240.892 69.0639 240.722 68.5989 240.692 68.0889H242.807C242.847 68.4089 243.002 68.6739 243.272 68.8839C243.552 69.0939 243.897 69.1989 244.307 69.1989C244.707 69.1989 245.017 69.1189 245.237 68.9589C245.467 68.7989 245.582 68.5939 245.582 68.3439C245.582 68.0739 245.442 67.8739 245.162 67.7439C244.892 67.6039 244.457 67.4539 243.857 67.2939C243.237 67.1439 242.727 66.9889 242.327 66.8289C241.937 66.6689 241.597 66.4239 241.307 66.0939C241.027 65.7639 240.887 65.3189 240.887 64.7589C240.887 64.2989 241.017 63.8789 241.277 63.4989C241.547 63.1189 241.927 62.8189 242.417 62.5989C242.917 62.3789 243.502 62.2689 244.172 62.2689C245.162 62.2689 245.952 62.5189 246.542 63.0189C247.132 63.5089 247.457 64.1739 247.517 65.0139H245.507C245.477 64.6839 245.337 64.4239 245.087 64.2339C244.847 64.0339 244.522 63.9339 244.112 63.9339C243.732 63.9339 243.437 64.0039 243.227 64.1439C243.027 64.2839 242.927 64.4789 242.927 64.7289C242.927 65.0089 243.067 65.2239 243.347 65.3739C243.627 65.5139 244.062 65.6589 244.652 65.8089C245.252 65.9589 245.747 66.1139 246.137 66.2739C246.527 66.4339 246.862 66.6839 247.142 67.0239C247.432 67.3539 247.582 67.7939 247.592 68.3439C247.592 68.8239 247.457 69.2539 247.187 69.6339C246.927 70.0139 246.547 70.3139 246.047 70.5339C245.557 70.7439 244.982 70.8489 244.322 70.8489ZM257.266 62.4039L252.121 74.6439H249.886L251.686 70.5039L248.356 62.4039H250.711L252.856 68.2089L255.031 62.4039H257.266ZM257.858 66.5589C257.858 65.6989 258.033 64.9489 258.383 64.3089C258.733 63.6589 259.218 63.1589 259.838 62.8089C260.458 62.4489 261.168 62.2689 261.968 62.2689C262.998 62.2689 263.848 62.5289 264.518 63.0489C265.198 63.5589 265.653 64.2789 265.883 65.2089H263.618C263.498 64.8489 263.293 64.5689 263.003 64.3689C262.723 64.1589 262.373 64.0539 261.953 64.0539C261.353 64.0539 260.878 64.2739 260.528 64.7139C260.178 65.1439 260.003 65.7589 260.003 66.5589C260.003 67.3489 260.178 67.9639 260.528 68.4039C260.878 68.8339 261.353 69.0489 261.953 69.0489C262.803 69.0489 263.358 68.6689 263.618 67.9089H265.883C265.653 68.8089 265.198 69.5239 264.518 70.0539C263.838 70.5839 262.988 70.8489 261.968 70.8489C261.168 70.8489 260.458 70.6739 259.838 70.3239C259.218 69.9639 258.733 69.4639 258.383 68.8239C258.033 68.1739 257.858 67.4189 257.858 66.5589ZM272.101 62.2839C272.731 62.2839 273.291 62.4239 273.781 62.7039C274.271 62.9739 274.651 63.3789 274.921 63.9189C275.201 64.4489 275.341 65.0889 275.341 65.8389V70.7139H273.241V66.1239C273.241 65.4639 273.076 64.9589 272.746 64.6089C272.416 64.2489 271.966 64.0689 271.396 64.0689C270.816 64.0689 270.356 64.2489 270.016 64.6089C269.686 64.9589 269.521 65.4639 269.521 66.1239V70.7139H267.421V59.6139H269.521V63.4389C269.791 63.0789 270.151 62.7989 270.601 62.5989C271.051 62.3889 271.551 62.2839 272.101 62.2839ZM281.028 70.8489C280.228 70.8489 279.508 70.6739 278.868 70.3239C278.228 69.9639 277.723 69.4589 277.353 68.8089C276.993 68.1589 276.813 67.4089 276.813 66.5589C276.813 65.7089 276.998 64.9589 277.368 64.3089C277.748 63.6589 278.263 63.1589 278.913 62.8089C279.563 62.4489 280.288 62.2689 281.088 62.2689C281.888 62.2689 282.613 62.4489 283.263 62.8089C283.913 63.1589 284.423 63.6589 284.793 64.3089C285.173 64.9589 285.363 65.7089 285.363 66.5589C285.363 67.4089 285.168 68.1589 284.778 68.8089C284.398 69.4589 283.878 69.9639 283.218 70.3239C282.568 70.6739 281.838 70.8489 281.028 70.8489ZM281.028 69.0189C281.408 69.0189 281.763 68.9289 282.093 68.7489C282.433 68.5589 282.703 68.2789 282.903 67.9089C283.103 67.5389 283.203 67.0889 283.203 66.5589C283.203 65.7689 282.993 65.1639 282.573 64.7439C282.163 64.3139 281.658 64.0989 281.058 64.0989C280.458 64.0989 279.953 64.3139 279.543 64.7439C279.143 65.1639 278.943 65.7689 278.943 66.5589C278.943 67.3489 279.138 67.9589 279.528 68.3889C279.928 68.8089 280.428 69.0189 281.028 69.0189ZM297.224 62.2839C298.244 62.2839 299.064 62.5989 299.684 63.2289C300.314 63.8489 300.629 64.7189 300.629 65.8389V70.7139H298.529V66.1239C298.529 65.4739 298.364 64.9789 298.034 64.6389C297.704 64.2889 297.254 64.1139 296.684 64.1139C296.114 64.1139 295.659 64.2889 295.319 64.6389C294.989 64.9789 294.824 65.4739 294.824 66.1239V70.7139H292.724V66.1239C292.724 65.4739 292.559 64.9789 292.229 64.6389C291.899 64.2889 291.449 64.1139 290.879 64.1139C290.299 64.1139 289.839 64.2889 289.499 64.6389C289.169 64.9789 289.004 65.4739 289.004 66.1239V70.7139H286.904V62.4039H289.004V63.4089C289.274 63.0589 289.619 62.7839 290.039 62.5839C290.469 62.3839 290.939 62.2839 291.449 62.2839C292.099 62.2839 292.679 62.4239 293.189 62.7039C293.699 62.9739 294.094 63.3639 294.374 63.8739C294.644 63.3939 295.034 63.0089 295.544 62.7189C296.064 62.4289 296.624 62.2839 297.224 62.2839ZM310.347 66.3789C310.347 66.6789 310.327 66.9489 310.287 67.1889H304.212C304.262 67.7889 304.472 68.2589 304.842 68.5989C305.212 68.9389 305.667 69.1089 306.207 69.1089C306.987 69.1089 307.542 68.7739 307.872 68.1039H310.137C309.897 68.9039 309.437 69.5639 308.757 70.0839C308.077 70.5939 307.242 70.8489 306.252 70.8489C305.452 70.8489 304.732 70.6739 304.092 70.3239C303.462 69.9639 302.967 69.4589 302.607 68.8089C302.257 68.1589 302.082 67.4089 302.082 66.5589C302.082 65.6989 302.257 64.9439 302.607 64.2939C302.957 63.6439 303.447 63.1439 304.077 62.7939C304.707 62.4439 305.432 62.2689 306.252 62.2689C307.042 62.2689 307.747 62.4389 308.367 62.7789C308.997 63.1189 309.482 63.6039 309.822 64.2339C310.172 64.8539 310.347 65.5689 310.347 66.3789ZM308.172 65.7789C308.162 65.2389 307.967 64.8089 307.587 64.4889C307.207 64.1589 306.742 63.9939 306.192 63.9939C305.672 63.9939 305.232 64.1539 304.872 64.4739C304.522 64.7839 304.307 65.2189 304.227 65.7789H308.172ZM314.324 64.1289V68.1489C314.324 68.4289 314.389 68.6339 314.519 68.7639C314.659 68.8839 314.889 68.9439 315.209 68.9439H316.184V70.7139H314.864C313.094 70.7139 312.209 69.8539 312.209 68.1339V64.1289H311.219V62.4039H312.209V60.3489H314.324V62.4039H316.184V64.1289H314.324ZM319.795 63.6939C320.065 63.2539 320.415 62.9089 320.845 62.6589C321.285 62.4089 321.785 62.2839 322.345 62.2839V64.4889H321.79C321.13 64.4889 320.63 64.6439 320.29 64.9539C319.96 65.2639 319.795 65.8039 319.795 66.5739V70.7139H317.695V62.4039H319.795V63.6939ZM324.824 61.4139C324.454 61.4139 324.144 61.2989 323.894 61.0689C323.654 60.8289 323.534 60.5339 323.534 60.1839C323.534 59.8339 323.654 59.5439 323.894 59.3139C324.144 59.0739 324.454 58.9539 324.824 58.9539C325.194 58.9539 325.499 59.0739 325.739 59.3139C325.989 59.5439 326.114 59.8339 326.114 60.1839C326.114 60.5339 325.989 60.8289 325.739 61.0689C325.499 61.2989 325.194 61.4139 324.824 61.4139ZM325.859 62.4039V70.7139H323.759V62.4039H325.859ZM327.394 66.5589C327.394 65.6989 327.569 64.9489 327.919 64.3089C328.269 63.6589 328.754 63.1589 329.374 62.8089C329.994 62.4489 330.704 62.2689 331.504 62.2689C332.534 62.2689 333.384 62.5289 334.054 63.0489C334.734 63.5589 335.189 64.2789 335.419 65.2089H333.154C333.034 64.8489 332.829 64.5689 332.539 64.3689C332.259 64.1589 331.909 64.0539 331.489 64.0539C330.889 64.0539 330.414 64.2739 330.064 64.7139C329.714 65.1439 329.539 65.7589 329.539 66.5589C329.539 67.3489 329.714 67.9639 330.064 68.4039C330.414 68.8339 330.889 69.0489 331.489 69.0489C332.339 69.0489 332.894 68.6689 333.154 67.9089H335.419C335.189 68.8089 334.734 69.5239 334.054 70.0539C333.374 70.5839 332.524 70.8489 331.504 70.8489C330.704 70.8489 329.994 70.6739 329.374 70.3239C328.754 69.9639 328.269 69.4639 327.919 68.8239C327.569 68.1739 327.394 67.4189 327.394 66.5589ZM187.151 88.4639C187.151 87.4339 187.381 86.5139 187.841 85.7039C188.311 84.8839 188.946 84.2489 189.746 83.7989C190.556 83.3389 191.461 83.1089 192.461 83.1089C193.631 83.1089 194.656 83.4089 195.536 84.0089C196.416 84.6089 197.031 85.4389 197.381 86.4989H194.966C194.726 85.9989 194.386 85.6239 193.946 85.3739C193.516 85.1239 193.016 84.9989 192.446 84.9989C191.836 84.9989 191.291 85.1439 190.811 85.4339C190.341 85.7139 189.971 86.1139 189.701 86.6339C189.441 87.1539 189.311 87.7639 189.311 88.4639C189.311 89.1539 189.441 89.7639 189.701 90.2939C189.971 90.8139 190.341 91.2189 190.811 91.5089C191.291 91.7889 191.836 91.9289 192.446 91.9289C193.016 91.9289 193.516 91.8039 193.946 91.5539C194.386 91.2939 194.726 90.9139 194.966 90.4139H197.381C197.031 91.4839 196.416 92.3189 195.536 92.9189C194.666 93.5089 193.641 93.8039 192.461 93.8039C191.461 93.8039 190.556 93.5789 189.746 93.1289C188.946 92.6689 188.311 92.0339 187.841 91.2239C187.381 90.4139 187.151 89.4939 187.151 88.4639ZM198.634 89.5289C198.634 88.6889 198.799 87.9439 199.129 87.2939C199.469 86.6439 199.924 86.1439 200.494 85.7939C201.074 85.4439 201.719 85.2689 202.429 85.2689C203.049 85.2689 203.589 85.3939 204.049 85.6439C204.519 85.8939 204.894 86.2089 205.174 86.5889V85.4039H207.289V93.7139H205.174V92.4989C204.904 92.8889 204.529 93.2139 204.049 93.4739C203.579 93.7239 203.034 93.8489 202.414 93.8489C201.714 93.8489 201.074 93.6689 200.494 93.3089C199.924 92.9489 199.469 92.4439 199.129 91.7939C198.799 91.1339 198.634 90.3789 198.634 89.5289ZM205.174 89.5589C205.174 89.0489 205.074 88.6139 204.874 88.2539C204.674 87.8839 204.404 87.6039 204.064 87.4139C203.724 87.2139 203.359 87.1139 202.969 87.1139C202.579 87.1139 202.219 87.2089 201.889 87.3989C201.559 87.5889 201.289 87.8689 201.079 88.2389C200.879 88.5989 200.779 89.0289 200.779 89.5289C200.779 90.0289 200.879 90.4689 201.079 90.8489C201.289 91.2189 201.559 91.5039 201.889 91.7039C202.229 91.9039 202.589 92.0039 202.969 92.0039C203.359 92.0039 203.724 91.9089 204.064 91.7189C204.404 91.5189 204.674 91.2389 204.874 90.8789C205.074 90.5089 205.174 90.0689 205.174 89.5589ZM211.44 86.6939C211.71 86.2539 212.06 85.9089 212.49 85.6589C212.93 85.4089 213.43 85.2839 213.99 85.2839V87.4889H213.435C212.775 87.4889 212.275 87.6439 211.935 87.9539C211.605 88.2639 211.44 88.8039 211.44 89.5739V93.7139H209.34V85.4039H211.44V86.6939ZM223.13 89.3789C223.13 89.6789 223.11 89.9489 223.07 90.1889H216.995C217.045 90.7889 217.255 91.2589 217.625 91.5989C217.995 91.9389 218.45 92.1089 218.99 92.1089C219.77 92.1089 220.325 91.7739 220.655 91.1039H222.92C222.68 91.9039 222.22 92.5639 221.54 93.0839C220.86 93.5939 220.025 93.8489 219.035 93.8489C218.235 93.8489 217.515 93.6739 216.875 93.3239C216.245 92.9639 215.75 92.4589 215.39 91.8089C215.04 91.1589 214.865 90.4089 214.865 89.5589C214.865 88.6989 215.04 87.9439 215.39 87.2939C215.74 86.6439 216.23 86.1439 216.86 85.7939C217.49 85.4439 218.215 85.2689 219.035 85.2689C219.825 85.2689 220.53 85.4389 221.15 85.7789C221.78 86.1189 222.265 86.6039 222.605 87.2339C222.955 87.8539 223.13 88.5689 223.13 89.3789ZM220.955 88.7789C220.945 88.2389 220.75 87.8089 220.37 87.4889C219.99 87.1589 219.525 86.9939 218.975 86.9939C218.455 86.9939 218.015 87.1539 217.655 87.4739C217.305 87.7839 217.09 88.2189 217.01 88.7789H220.955ZM232.388 89.3789C232.388 89.6789 232.368 89.9489 232.328 90.1889H226.253C226.303 90.7889 226.513 91.2589 226.883 91.5989C227.253 91.9389 227.708 92.1089 228.248 92.1089C229.028 92.1089 229.583 91.7739 229.913 91.1039H232.178C231.938 91.9039 231.478 92.5639 230.798 93.0839C230.118 93.5939 229.283 93.8489 228.293 93.8489C227.493 93.8489 226.773 93.6739 226.133 93.3239C225.503 92.9639 225.008 92.4589 224.648 91.8089C224.298 91.1589 224.123 90.4089 224.123 89.5589C224.123 88.6989 224.298 87.9439 224.648 87.2939C224.998 86.6439 225.488 86.1439 226.118 85.7939C226.748 85.4439 227.473 85.2689 228.293 85.2689C229.083 85.2689 229.788 85.4389 230.408 85.7789C231.038 86.1189 231.523 86.6039 231.863 87.2339C232.213 87.8539 232.388 88.5689 232.388 89.3789ZM230.213 88.7789C230.203 88.2389 230.008 87.8089 229.628 87.4889C229.248 87.1589 228.783 86.9939 228.233 86.9939C227.713 86.9939 227.273 87.1539 226.913 87.4739C226.563 87.7839 226.348 88.2189 226.268 88.7789H230.213ZM236.02 86.6939C236.29 86.2539 236.64 85.9089 237.07 85.6589C237.51 85.4089 238.01 85.2839 238.57 85.2839V87.4889H238.015C237.355 87.4889 236.855 87.6439 236.515 87.9539C236.185 88.2639 236.02 88.8039 236.02 89.5739V93.7139H233.92V85.4039H236.02V86.6939ZM249.979 91.7189H245.809L245.119 93.7139H242.914L246.679 83.2289H249.124L252.889 93.7139H250.669L249.979 91.7189ZM249.409 90.0389L247.894 85.6589L246.379 90.0389H249.409ZM257.476 93.8489C256.796 93.8489 256.186 93.7289 255.646 93.4889C255.106 93.2389 254.676 92.9039 254.356 92.4839C254.046 92.0639 253.876 91.5989 253.846 91.0889H255.961C256.001 91.4089 256.156 91.6739 256.426 91.8839C256.706 92.0939 257.051 92.1989 257.461 92.1989C257.861 92.1989 258.171 92.1189 258.391 91.9589C258.621 91.7989 258.736 91.5939 258.736 91.3439C258.736 91.0739 258.596 90.8739 258.316 90.7439C258.046 90.6039 257.611 90.4539 257.011 90.2939C256.391 90.1439 255.881 89.9889 255.481 89.8289C255.091 89.6689 254.751 89.4239 254.461 89.0939C254.181 88.7639 254.041 88.3189 254.041 87.7589C254.041 87.2989 254.171 86.8789 254.431 86.4989C254.701 86.1189 255.081 85.8189 255.571 85.5989C256.071 85.3789 256.656 85.2689 257.326 85.2689C258.316 85.2689 259.106 85.5189 259.696 86.0189C260.286 86.5089 260.611 87.1739 260.671 88.0139H258.661C258.631 87.6839 258.491 87.4239 258.241 87.2339C258.001 87.0339 257.676 86.9339 257.266 86.9339C256.886 86.9339 256.591 87.0039 256.381 87.1439C256.181 87.2839 256.081 87.4789 256.081 87.7289C256.081 88.0089 256.221 88.2239 256.501 88.3739C256.781 88.5139 257.216 88.6589 257.806 88.8089C258.406 88.9589 258.901 89.1139 259.291 89.2739C259.681 89.4339 260.016 89.6839 260.296 90.0239C260.586 90.3539 260.736 90.7939 260.746 91.3439C260.746 91.8239 260.611 92.2539 260.341 92.6339C260.081 93.0139 259.701 93.3139 259.201 93.5339C258.711 93.7439 258.136 93.8489 257.476 93.8489ZM265.65 93.8489C264.97 93.8489 264.36 93.7289 263.82 93.4889C263.28 93.2389 262.85 92.9039 262.53 92.4839C262.22 92.0639 262.05 91.5989 262.02 91.0889H264.135C264.175 91.4089 264.33 91.6739 264.6 91.8839C264.88 92.0939 265.225 92.1989 265.635 92.1989C266.035 92.1989 266.345 92.1189 266.565 91.9589C266.795 91.7989 266.91 91.5939 266.91 91.3439C266.91 91.0739 266.77 90.8739 266.49 90.7439C266.22 90.6039 265.785 90.4539 265.185 90.2939C264.565 90.1439 264.055 89.9889 263.655 89.8289C263.265 89.6689 262.925 89.4239 262.635 89.0939C262.355 88.7639 262.215 88.3189 262.215 87.7589C262.215 87.2989 262.345 86.8789 262.605 86.4989C262.875 86.1189 263.255 85.8189 263.745 85.5989C264.245 85.3789 264.83 85.2689 265.5 85.2689C266.49 85.2689 267.28 85.5189 267.87 86.0189C268.46 86.5089 268.785 87.1739 268.845 88.0139H266.835C266.805 87.6839 266.665 87.4239 266.415 87.2339C266.175 87.0339 265.85 86.9339 265.44 86.9339C265.06 86.9339 264.765 87.0039 264.555 87.1439C264.355 87.2839 264.255 87.4789 264.255 87.7289C264.255 88.0089 264.395 88.2239 264.675 88.3739C264.955 88.5139 265.39 88.6589 265.98 88.8089C266.58 88.9589 267.075 89.1139 267.465 89.2739C267.855 89.4339 268.19 89.6839 268.47 90.0239C268.76 90.3539 268.91 90.7939 268.92 91.3439C268.92 91.8239 268.785 92.2539 268.515 92.6339C268.255 93.0139 267.875 93.3139 267.375 93.5339C266.885 93.7439 266.31 93.8489 265.65 93.8489ZM278.369 89.3789C278.369 89.6789 278.349 89.9489 278.309 90.1889H272.234C272.284 90.7889 272.494 91.2589 272.864 91.5989C273.234 91.9389 273.689 92.1089 274.229 92.1089C275.009 92.1089 275.564 91.7739 275.894 91.1039H278.159C277.919 91.9039 277.459 92.5639 276.779 93.0839C276.099 93.5939 275.264 93.8489 274.274 93.8489C273.474 93.8489 272.754 93.6739 272.114 93.3239C271.484 92.9639 270.989 92.4589 270.629 91.8089C270.279 91.1589 270.104 90.4089 270.104 89.5589C270.104 88.6989 270.279 87.9439 270.629 87.2939C270.979 86.6439 271.469 86.1439 272.099 85.7939C272.729 85.4439 273.454 85.2689 274.274 85.2689C275.064 85.2689 275.769 85.4389 276.389 85.7789C277.019 86.1189 277.504 86.6039 277.844 87.2339C278.194 87.8539 278.369 88.5689 278.369 89.3789ZM276.194 88.7789C276.184 88.2389 275.989 87.8089 275.609 87.4889C275.229 87.1589 274.764 86.9939 274.214 86.9939C273.694 86.9939 273.254 87.1539 272.894 87.4739C272.544 87.7839 272.329 88.2189 272.249 88.7789H276.194ZM283.082 93.8489C282.402 93.8489 281.792 93.7289 281.252 93.4889C280.712 93.2389 280.282 92.9039 279.962 92.4839C279.652 92.0639 279.482 91.5989 279.452 91.0889H281.567C281.607 91.4089 281.762 91.6739 282.032 91.8839C282.312 92.0939 282.657 92.1989 283.067 92.1989C283.467 92.1989 283.777 92.1189 283.997 91.9589C284.227 91.7989 284.342 91.5939 284.342 91.3439C284.342 91.0739 284.202 90.8739 283.922 90.7439C283.652 90.6039 283.217 90.4539 282.617 90.2939C281.997 90.1439 281.487 89.9889 281.087 89.8289C280.697 89.6689 280.357 89.4239 280.067 89.0939C279.787 88.7639 279.647 88.3189 279.647 87.7589C279.647 87.2989 279.777 86.8789 280.037 86.4989C280.307 86.1189 280.687 85.8189 281.177 85.5989C281.677 85.3789 282.262 85.2689 282.932 85.2689C283.922 85.2689 284.712 85.5189 285.302 86.0189C285.892 86.5089 286.217 87.1739 286.277 88.0139H284.267C284.237 87.6839 284.097 87.4239 283.847 87.2339C283.607 87.0339 283.282 86.9339 282.872 86.9339C282.492 86.9339 282.197 87.0039 281.987 87.1439C281.787 87.2839 281.687 87.4789 281.687 87.7289C281.687 88.0089 281.827 88.2239 282.107 88.3739C282.387 88.5139 282.822 88.6589 283.412 88.8089C284.012 88.9589 284.507 89.1139 284.897 89.2739C285.287 89.4339 285.622 89.6839 285.902 90.0239C286.192 90.3539 286.342 90.7939 286.352 91.3439C286.352 91.8239 286.217 92.2539 285.947 92.6339C285.687 93.0139 285.307 93.3139 284.807 93.5339C284.317 93.7439 283.742 93.8489 283.082 93.8489ZM291.256 93.8489C290.576 93.8489 289.966 93.7289 289.426 93.4889C288.886 93.2389 288.456 92.9039 288.136 92.4839C287.826 92.0639 287.656 91.5989 287.626 91.0889H289.741C289.781 91.4089 289.936 91.6739 290.206 91.8839C290.486 92.0939 290.831 92.1989 291.241 92.1989C291.641 92.1989 291.951 92.1189 292.171 91.9589C292.401 91.7989 292.516 91.5939 292.516 91.3439C292.516 91.0739 292.376 90.8739 292.096 90.7439C291.826 90.6039 291.391 90.4539 290.791 90.2939C290.171 90.1439 289.661 89.9889 289.261 89.8289C288.871 89.6689 288.531 89.4239 288.241 89.0939C287.961 88.7639 287.821 88.3189 287.821 87.7589C287.821 87.2989 287.951 86.8789 288.211 86.4989C288.481 86.1189 288.861 85.8189 289.351 85.5989C289.851 85.3789 290.436 85.2689 291.106 85.2689C292.096 85.2689 292.886 85.5189 293.476 86.0189C294.066 86.5089 294.391 87.1739 294.451 88.0139H292.441C292.411 87.6839 292.271 87.4239 292.021 87.2339C291.781 87.0339 291.456 86.9339 291.046 86.9339C290.666 86.9339 290.371 87.0039 290.161 87.1439C289.961 87.2839 289.861 87.4789 289.861 87.7289C289.861 88.0089 290.001 88.2239 290.281 88.3739C290.561 88.5139 290.996 88.6589 291.586 88.8089C292.186 88.9589 292.681 89.1139 293.071 89.2739C293.461 89.4339 293.796 89.6839 294.076 90.0239C294.366 90.3539 294.516 90.7939 294.526 91.3439C294.526 91.8239 294.391 92.2539 294.121 92.6339C293.861 93.0139 293.481 93.3139 292.981 93.5339C292.491 93.7439 291.916 93.8489 291.256 93.8489ZM306.569 85.2839C307.589 85.2839 308.409 85.5989 309.029 86.2289C309.659 86.8489 309.974 87.7189 309.974 88.8389V93.7139H307.874V89.1239C307.874 88.4739 307.709 87.9789 307.379 87.6389C307.049 87.2889 306.599 87.1139 306.029 87.1139C305.459 87.1139 305.004 87.2889 304.664 87.6389C304.334 87.9789 304.169 88.4739 304.169 89.1239V93.7139H302.069V89.1239C302.069 88.4739 301.904 87.9789 301.574 87.6389C301.244 87.2889 300.794 87.1139 300.224 87.1139C299.644 87.1139 299.184 87.2889 298.844 87.6389C298.514 87.9789 298.349 88.4739 298.349 89.1239V93.7139H296.249V85.4039H298.349V86.4089C298.619 86.0589 298.964 85.7839 299.384 85.5839C299.814 85.3839 300.284 85.2839 300.794 85.2839C301.444 85.2839 302.024 85.4239 302.534 85.7039C303.044 85.9739 303.439 86.3639 303.719 86.8739C303.989 86.3939 304.379 86.0089 304.889 85.7189C305.409 85.4289 305.969 85.2839 306.569 85.2839ZM319.692 89.3789C319.692 89.6789 319.672 89.9489 319.632 90.1889H313.557C313.607 90.7889 313.817 91.2589 314.187 91.5989C314.557 91.9389 315.012 92.1089 315.552 92.1089C316.332 92.1089 316.887 91.7739 317.217 91.1039H319.482C319.242 91.9039 318.782 92.5639 318.102 93.0839C317.422 93.5939 316.587 93.8489 315.597 93.8489C314.797 93.8489 314.077 93.6739 313.437 93.3239C312.807 92.9639 312.312 92.4589 311.952 91.8089C311.602 91.1589 311.427 90.4089 311.427 89.5589C311.427 88.6989 311.602 87.9439 311.952 87.2939C312.302 86.6439 312.792 86.1439 313.422 85.7939C314.052 85.4439 314.777 85.2689 315.597 85.2689C316.387 85.2689 317.092 85.4389 317.712 85.7789C318.342 86.1189 318.827 86.6039 319.167 87.2339C319.517 87.8539 319.692 88.5689 319.692 89.3789ZM317.517 88.7789C317.507 88.2389 317.312 87.8089 316.932 87.4889C316.552 87.1589 316.087 86.9939 315.537 86.9939C315.017 86.9939 314.577 87.1539 314.217 87.4739C313.867 87.7839 313.652 88.2189 313.572 88.7789H317.517ZM325.83 85.2839C326.82 85.2839 327.62 85.5989 328.23 86.2289C328.84 86.8489 329.145 87.7189 329.145 88.8389V93.7139H327.045V89.1239C327.045 88.4639 326.88 87.9589 326.55 87.6089C326.22 87.2489 325.77 87.0689 325.2 87.0689C324.62 87.0689 324.16 87.2489 323.82 87.6089C323.49 87.9589 323.325 88.4639 323.325 89.1239V93.7139H321.225V85.4039H323.325V86.4389C323.605 86.0789 323.96 85.7989 324.39 85.5989C324.83 85.3889 325.31 85.2839 325.83 85.2839ZM333.587 87.1289V91.1489C333.587 91.4289 333.652 91.6339 333.782 91.7639C333.922 91.8839 334.152 91.9439 334.472 91.9439H335.447V93.7139H334.127C332.357 93.7139 331.472 92.8539 331.472 91.1339V87.1289H330.482V85.4039H331.472V83.3489H333.587V85.4039H335.447V87.1289H333.587Z" fill="black"/>
<circle cx="38.1199" cy="33.9422" r="20.1195" fill="#FFD600"/>
<path d="M278.332 44.8679C277.262 44.8679 276.294 44.6845 275.428 44.3179C274.578 43.9512 273.903 43.4232 273.404 42.7339C272.906 42.0445 272.649 41.2305 272.634 40.2919H275.934C275.978 40.9225 276.198 41.4212 276.594 41.7879C277.005 42.1545 277.562 42.3379 278.266 42.3379C278.985 42.3379 279.55 42.1692 279.96 41.8319C280.371 41.4799 280.576 41.0252 280.576 40.4679C280.576 40.0132 280.437 39.6392 280.158 39.3459C279.88 39.0525 279.528 38.8252 279.102 38.6639C278.692 38.4879 278.12 38.2972 277.386 38.0919C276.389 37.7985 275.575 37.5125 274.944 37.2339C274.328 36.9405 273.793 36.5079 273.338 35.9359C272.898 35.3492 272.678 34.5719 272.678 33.6039C272.678 32.6945 272.906 31.9025 273.36 31.2279C273.815 30.5532 274.453 30.0399 275.274 29.6879C276.096 29.3212 277.034 29.1379 278.09 29.1379C279.674 29.1379 280.958 29.5265 281.94 30.3039C282.938 31.0665 283.488 32.1372 283.59 33.5159H280.202C280.173 32.9879 279.946 32.5552 279.52 32.2179C279.11 31.8659 278.56 31.6899 277.87 31.6899C277.269 31.6899 276.785 31.8439 276.418 32.1519C276.066 32.4599 275.89 32.9072 275.89 33.4939C275.89 33.9045 276.022 34.2492 276.286 34.5279C276.565 34.7919 276.902 35.0119 277.298 35.1879C277.709 35.3492 278.281 35.5399 279.014 35.7599C280.012 36.0532 280.826 36.3465 281.456 36.6399C282.087 36.9332 282.63 37.3732 283.084 37.9599C283.539 38.5465 283.766 39.3165 283.766 40.2699C283.766 41.0912 283.554 41.8539 283.128 42.5579C282.703 43.2619 282.08 43.8265 281.258 44.2519C280.437 44.6625 279.462 44.8679 278.332 44.8679ZM296.887 29.3579V31.8439H292.795V44.7139H289.715V31.8439H285.623V29.3579H296.887ZM302.214 31.8439V35.6939H307.384V38.1359H302.214V42.2059H308.044V44.7139H299.134V29.3359H308.044V31.8439H302.214ZM322.041 34.1099C322.041 34.9312 321.843 35.7012 321.447 36.4199C321.065 37.1385 320.457 37.7179 319.621 38.1579C318.799 38.5979 317.758 38.8179 316.497 38.8179H313.923V44.7139H310.843V29.3579H316.497C317.685 29.3579 318.697 29.5632 319.533 29.9739C320.369 30.3845 320.992 30.9492 321.403 31.6679C321.828 32.3865 322.041 33.2005 322.041 34.1099ZM316.365 36.3319C317.215 36.3319 317.846 36.1412 318.257 35.7599C318.667 35.3639 318.873 34.8139 318.873 34.1099C318.873 32.6139 318.037 31.8659 316.365 31.8659H313.923V36.3319H316.365ZM328.744 31.5139V28.6759H334.046V44.7139H330.878V31.5139H328.744Z" fill="black"/>
<path d="M234.348 37.2139C234.348 38.6866 235.542 39.8805 237.015 39.8805C238.488 39.8805 239.682 38.6866 239.682 37.2139C239.682 35.7411 238.488 34.5472 237.015 34.5472C235.542 34.5472 234.348 35.7411 234.348 37.2139ZM90.6256 37.7139H237.015V36.7139H90.6256V37.7139Z" fill="#FFD600"/>
<defs>
<filter id="filter0_d_84_126" x="0.955566" y="0.822754" width="369.531" height="132.782" filterUnits="userSpaceOnUse" color-interpolation-filters="sRGB">
<feFlood flood-opacity="0" result="BackgroundImageFix"/>
<feColorMatrix in="SourceAlpha" type="matrix" values="0 0 0 0 0 0 0 0 0 0 0 0 0 0 0 0 0 0 127 0" result="hardAlpha"/>
<feOffset dy="4"/>
<feGaussianBlur stdDeviation="8.5"/>
<feComposite in2="hardAlpha" operator="out"/>
<feColorMatrix type="matrix" values="0 0 0 0 0.880688 0 0 0 0 0.880688 0 0 0 0 0.880688 0 0 0 0.25 0"/>
<feBlend mode="normal" in2="BackgroundImageFix" result="effect1_dropShadow_84_126"/>
<feBlend mode="normal" in="SourceGraphic" in2="effect1_dropShadow_84_126" result="shape"/>
</filter>
</defs>
</svg>
