<svg width="270" height="250" viewBox="0 0 270 250" fill="none" xmlns="http://www.w3.org/2000/svg">
<g filter="url(#filter0_d_1_2544)">
<path d="M47.1111 94.4849C74.2355 94.4849 96.2241 72.4963 96.2241 45.3719C96.2241 40.9249 95.6331 36.6159 94.5253 32.5193C92.2975 24.2809 97.6308 13.5 106.165 13.5H232.145C243.19 13.5 252.145 22.4543 252.145 33.5V208.131C252.145 219.177 243.19 228.131 232.145 228.131H37.6792C26.6335 228.131 17.6792 219.177 17.6792 208.131V104.688C17.6792 96.4486 27.6353 91.2244 35.649 93.1402C39.3264 94.0194 43.1644 94.4849 47.1111 94.4849Z" fill="white"/>
<path d="M47.1111 94.9849C74.5116 94.9849 96.7241 72.7724 96.7241 45.3719C96.7241 40.8804 96.1272 36.5276 95.0079 32.3888C93.9321 28.4104 94.6804 23.7907 96.7439 20.1677C98.8064 16.5465 102.131 14 106.165 14H232.145C242.914 14 251.645 22.7304 251.645 33.5V208.131C251.645 218.901 242.914 227.631 232.145 227.631H37.6792C26.9096 227.631 18.1792 218.901 18.1792 208.131V104.688C18.1792 100.79 20.5316 97.5674 23.9164 95.5345C27.3042 93.4998 31.6634 92.7015 35.5328 93.6265C39.2479 94.5147 43.1249 94.9849 47.1111 94.9849Z" stroke="#F2F2F2"/>
</g>
<path d="M95.2939 134.016C95.2939 132.78 95.5699 131.676 96.1219 130.704C96.6859 129.72 97.4479 128.958 98.4079 128.418C99.3799 127.866 100.466 127.59 101.666 127.59C103.07 127.59 104.3 127.95 105.356 128.67C106.412 129.39 107.15 130.386 107.57 131.658H104.672C104.384 131.058 103.976 130.608 103.448 130.308C102.932 130.008 102.332 129.858 101.648 129.858C100.916 129.858 100.262 130.032 99.6859 130.38C99.1219 130.716 98.6779 131.196 98.3539 131.82C98.0419 132.444 97.8859 133.176 97.8859 134.016C97.8859 134.844 98.0419 135.576 98.3539 136.212C98.6779 136.836 99.1219 137.322 99.6859 137.67C100.262 138.006 100.916 138.174 101.648 138.174C102.332 138.174 102.932 138.024 103.448 137.724C103.976 137.412 104.384 136.956 104.672 136.356H107.57C107.15 137.64 106.412 138.642 105.356 139.362C104.312 140.07 103.082 140.424 101.666 140.424C100.466 140.424 99.3799 140.154 98.4079 139.614C97.4479 139.062 96.6859 138.3 96.1219 137.328C95.5699 136.356 95.2939 135.252 95.2939 134.016ZM109.074 135.294C109.074 134.286 109.272 133.392 109.668 132.612C110.076 131.832 110.622 131.232 111.306 130.812C112.002 130.392 112.776 130.182 113.628 130.182C114.372 130.182 115.02 130.332 115.572 130.632C116.136 130.932 116.586 131.31 116.922 131.766V130.344H119.46V140.316H116.922V138.858C116.598 139.326 116.148 139.716 115.572 140.028C115.008 140.328 114.354 140.478 113.61 140.478C112.77 140.478 112.002 140.262 111.306 139.83C110.622 139.398 110.076 138.792 109.668 138.012C109.272 137.22 109.074 136.314 109.074 135.294ZM116.922 135.33C116.922 134.718 116.802 134.196 116.562 133.764C116.322 133.32 115.998 132.984 115.59 132.756C115.182 132.516 114.744 132.396 114.276 132.396C113.808 132.396 113.376 132.51 112.98 132.738C112.584 132.966 112.26 133.302 112.008 133.746C111.768 134.178 111.648 134.694 111.648 135.294C111.648 135.894 111.768 136.422 112.008 136.878C112.26 137.322 112.584 137.664 112.98 137.904C113.388 138.144 113.82 138.264 114.276 138.264C114.744 138.264 115.182 138.15 115.59 137.922C115.998 137.682 116.322 137.346 116.562 136.914C116.802 136.47 116.922 135.942 116.922 135.33ZM124.442 131.892C124.766 131.364 125.186 130.95 125.702 130.65C126.23 130.35 126.83 130.2 127.502 130.2V132.846H126.836C126.044 132.846 125.444 133.032 125.036 133.404C124.64 133.776 124.442 134.424 124.442 135.348V140.316H121.922V130.344H124.442V131.892ZM138.469 135.114C138.469 135.474 138.445 135.798 138.397 136.086H131.107C131.167 136.806 131.419 137.37 131.863 137.778C132.307 138.186 132.853 138.39 133.501 138.39C134.437 138.39 135.103 137.988 135.499 137.184H138.217C137.929 138.144 137.377 138.936 136.561 139.56C135.745 140.172 134.743 140.478 133.555 140.478C132.595 140.478 131.731 140.268 130.963 139.848C130.207 139.416 129.613 138.81 129.181 138.03C128.761 137.25 128.551 136.35 128.551 135.33C128.551 134.298 128.761 133.392 129.181 132.612C129.601 131.832 130.189 131.232 130.945 130.812C131.701 130.392 132.571 130.182 133.555 130.182C134.503 130.182 135.349 130.386 136.093 130.794C136.849 131.202 137.431 131.784 137.839 132.54C138.259 133.284 138.469 134.142 138.469 135.114ZM135.859 134.394C135.847 133.746 135.613 133.23 135.157 132.846C134.701 132.45 134.143 132.252 133.483 132.252C132.859 132.252 132.331 132.444 131.899 132.828C131.479 133.2 131.221 133.722 131.125 134.394H135.859ZM149.578 135.114C149.578 135.474 149.554 135.798 149.506 136.086H142.216C142.276 136.806 142.528 137.37 142.972 137.778C143.416 138.186 143.962 138.39 144.61 138.39C145.546 138.39 146.212 137.988 146.608 137.184H149.326C149.038 138.144 148.486 138.936 147.67 139.56C146.854 140.172 145.852 140.478 144.664 140.478C143.704 140.478 142.84 140.268 142.072 139.848C141.316 139.416 140.722 138.81 140.29 138.03C139.87 137.25 139.66 136.35 139.66 135.33C139.66 134.298 139.87 133.392 140.29 132.612C140.71 131.832 141.298 131.232 142.054 130.812C142.81 130.392 143.68 130.182 144.664 130.182C145.612 130.182 146.458 130.386 147.202 130.794C147.958 131.202 148.54 131.784 148.948 132.54C149.368 133.284 149.578 134.142 149.578 135.114ZM146.968 134.394C146.956 133.746 146.722 133.23 146.266 132.846C145.81 132.45 145.252 132.252 144.592 132.252C143.968 132.252 143.44 132.444 143.008 132.828C142.588 133.2 142.33 133.722 142.234 134.394H146.968ZM153.938 131.892C154.262 131.364 154.682 130.95 155.198 130.65C155.726 130.35 156.326 130.2 156.998 130.2V132.846H156.332C155.54 132.846 154.94 133.032 154.532 133.404C154.136 133.776 153.938 134.424 153.938 135.348V140.316H151.418V130.344H153.938V131.892ZM162.372 134.016C162.372 132.78 162.648 131.676 163.2 130.704C163.764 129.72 164.526 128.958 165.486 128.418C166.458 127.866 167.544 127.59 168.744 127.59C170.148 127.59 171.378 127.95 172.434 128.67C173.49 129.39 174.228 130.386 174.648 131.658H171.75C171.462 131.058 171.054 130.608 170.526 130.308C170.01 130.008 169.41 129.858 168.726 129.858C167.994 129.858 167.34 130.032 166.764 130.38C166.2 130.716 165.756 131.196 165.432 131.82C165.12 132.444 164.964 133.176 164.964 134.016C164.964 134.844 165.12 135.576 165.432 136.212C165.756 136.836 166.2 137.322 166.764 137.67C167.34 138.006 167.994 138.174 168.726 138.174C169.41 138.174 170.01 138.024 170.526 137.724C171.054 137.412 171.462 136.956 171.75 136.356H174.648C174.228 137.64 173.49 138.642 172.434 139.362C171.39 140.07 170.16 140.424 168.744 140.424C167.544 140.424 166.458 140.154 165.486 139.614C164.526 139.062 163.764 138.3 163.2 137.328C162.648 136.356 162.372 135.252 162.372 134.016ZM179.32 126.996V140.316H176.8V126.996H179.32ZM181.162 135.294C181.162 134.286 181.36 133.392 181.756 132.612C182.164 131.832 182.71 131.232 183.394 130.812C184.09 130.392 184.864 130.182 185.716 130.182C186.46 130.182 187.108 130.332 187.66 130.632C188.224 130.932 188.674 131.31 189.01 131.766V130.344H191.548V140.316H189.01V138.858C188.686 139.326 188.236 139.716 187.66 140.028C187.096 140.328 186.442 140.478 185.698 140.478C184.858 140.478 184.09 140.262 183.394 139.83C182.71 139.398 182.164 138.792 181.756 138.012C181.36 137.22 181.162 136.314 181.162 135.294ZM189.01 135.33C189.01 134.718 188.89 134.196 188.65 133.764C188.41 133.32 188.086 132.984 187.678 132.756C187.27 132.516 186.832 132.396 186.364 132.396C185.896 132.396 185.464 132.51 185.068 132.738C184.672 132.966 184.348 133.302 184.096 133.746C183.856 134.178 183.736 134.694 183.736 135.294C183.736 135.894 183.856 136.422 184.096 136.878C184.348 137.322 184.672 137.664 185.068 137.904C185.476 138.144 185.908 138.264 186.364 138.264C186.832 138.264 187.27 138.15 187.678 137.922C188.086 137.682 188.41 137.346 188.65 136.914C188.89 136.47 189.01 135.942 189.01 135.33ZM196.529 131.892C196.853 131.364 197.273 130.95 197.789 130.65C198.317 130.35 198.917 130.2 199.589 130.2V132.846H198.923C198.131 132.846 197.531 133.032 197.123 133.404C196.727 133.776 196.529 134.424 196.529 135.348V140.316H194.009V130.344H196.529V131.892ZM202.565 129.156C202.121 129.156 201.749 129.018 201.449 128.742C201.161 128.454 201.017 128.1 201.017 127.68C201.017 127.26 201.161 126.912 201.449 126.636C201.749 126.348 202.121 126.204 202.565 126.204C203.009 126.204 203.375 126.348 203.663 126.636C203.963 126.912 204.113 127.26 204.113 127.68C204.113 128.1 203.963 128.454 203.663 128.742C203.375 129.018 203.009 129.156 202.565 129.156ZM203.807 130.344V140.316H201.287V130.344H203.807ZM209.231 132.414V137.238C209.231 137.574 209.309 137.82 209.465 137.976C209.633 138.12 209.909 138.192 210.293 138.192H211.463V140.316H209.879C207.755 140.316 206.693 139.284 206.693 137.22V132.414H205.505V130.344H206.693V127.878H209.231V130.344H211.463V132.414H209.231ZM222.815 130.344L216.641 145.032H213.959L216.119 140.064L212.123 130.344H214.949L217.523 137.31L220.133 130.344H222.815ZM43.9168 166.271C42.9468 165.331 42.1918 164.131 41.6518 162.671C41.1218 161.211 40.8568 159.646 40.8568 157.976C40.8568 156.266 41.1368 154.661 41.6968 153.161C42.2568 151.651 43.0718 150.416 44.1418 149.456H46.2568V149.651C45.1568 150.701 44.3168 151.961 43.7368 153.431C43.1668 154.901 42.8818 156.416 42.8818 157.976C42.8818 159.496 43.1518 160.966 43.6918 162.386C44.2418 163.796 45.0218 165.021 46.0318 166.061V166.271H43.9168ZM53.5071 157.946C54.0971 158.056 54.5821 158.351 54.9621 158.831C55.3421 159.311 55.5321 159.861 55.5321 160.481C55.5321 161.041 55.3921 161.536 55.1121 161.966C54.8421 162.386 54.4471 162.716 53.9271 162.956C53.4071 163.196 52.7921 163.316 52.0821 163.316H47.5671V152.846H51.8871C52.5971 152.846 53.2071 152.961 53.7171 153.191C54.2371 153.421 54.6271 153.741 54.8871 154.151C55.1571 154.561 55.2921 155.026 55.2921 155.546C55.2921 156.156 55.1271 156.666 54.7971 157.076C54.4771 157.486 54.0471 157.776 53.5071 157.946ZM49.6671 157.166H51.5871C52.0871 157.166 52.4721 157.056 52.7421 156.836C53.0121 156.606 53.1471 156.281 53.1471 155.861C53.1471 155.441 53.0121 155.116 52.7421 154.886C52.4721 154.656 52.0871 154.541 51.5871 154.541H49.6671V157.166ZM51.7821 161.606C52.2921 161.606 52.6871 161.486 52.9671 161.246C53.2571 161.006 53.4021 160.666 53.4021 160.226C53.4021 159.776 53.2521 159.426 52.9521 159.176C52.6521 158.916 52.2471 158.786 51.7371 158.786H49.6671V161.606H51.7821ZM64.9308 158.981C64.9308 159.281 64.9108 159.551 64.8708 159.791H58.7958C58.8458 160.391 59.0558 160.861 59.4258 161.201C59.7958 161.541 60.2508 161.711 60.7908 161.711C61.5708 161.711 62.1258 161.376 62.4558 160.706H64.7208C64.4808 161.506 64.0208 162.166 63.3408 162.686C62.6608 163.196 61.8258 163.451 60.8358 163.451C60.0358 163.451 59.3158 163.276 58.6758 162.926C58.0458 162.566 57.5508 162.061 57.1908 161.411C56.8408 160.761 56.6658 160.011 56.6658 159.161C56.6658 158.301 56.8408 157.546 57.1908 156.896C57.5408 156.246 58.0308 155.746 58.6608 155.396C59.2908 155.046 60.0158 154.871 60.8358 154.871C61.6258 154.871 62.3308 155.041 62.9508 155.381C63.5808 155.721 64.0658 156.206 64.4058 156.836C64.7558 157.456 64.9308 158.171 64.9308 158.981ZM62.7558 158.381C62.7458 157.841 62.5508 157.411 62.1708 157.091C61.7908 156.761 61.3258 156.596 60.7758 156.596C60.2558 156.596 59.8158 156.756 59.4558 157.076C59.1058 157.386 58.8908 157.821 58.8108 158.381H62.7558ZM69.6436 163.451C68.9636 163.451 68.3536 163.331 67.8136 163.091C67.2736 162.841 66.8436 162.506 66.5236 162.086C66.2136 161.666 66.0436 161.201 66.0136 160.691H68.1286C68.1686 161.011 68.3236 161.276 68.5936 161.486C68.8736 161.696 69.2186 161.801 69.6286 161.801C70.0286 161.801 70.3386 161.721 70.5586 161.561C70.7886 161.401 70.9036 161.196 70.9036 160.946C70.9036 160.676 70.7636 160.476 70.4836 160.346C70.2136 160.206 69.7786 160.056 69.1786 159.896C68.5586 159.746 68.0486 159.591 67.6486 159.431C67.2586 159.271 66.9186 159.026 66.6286 158.696C66.3486 158.366 66.2086 157.921 66.2086 157.361C66.2086 156.901 66.3386 156.481 66.5986 156.101C66.8686 155.721 67.2486 155.421 67.7386 155.201C68.2386 154.981 68.8236 154.871 69.4936 154.871C70.4836 154.871 71.2736 155.121 71.8636 155.621C72.4536 156.111 72.7786 156.776 72.8386 157.616H70.8286C70.7986 157.286 70.6586 157.026 70.4086 156.836C70.1686 156.636 69.8436 156.536 69.4336 156.536C69.0536 156.536 68.7586 156.606 68.5486 156.746C68.3486 156.886 68.2486 157.081 68.2486 157.331C68.2486 157.611 68.3886 157.826 68.6686 157.976C68.9486 158.116 69.3836 158.261 69.9736 158.411C70.5736 158.561 71.0686 158.716 71.4586 158.876C71.8486 159.036 72.1836 159.286 72.4636 159.626C72.7536 159.956 72.9036 160.396 72.9136 160.946C72.9136 161.426 72.7786 161.856 72.5086 162.236C72.2486 162.616 71.8686 162.916 71.3686 163.136C70.8786 163.346 70.3036 163.451 69.6436 163.451ZM77.0824 156.731V160.751C77.0824 161.031 77.1474 161.236 77.2774 161.366C77.4174 161.486 77.6474 161.546 77.9674 161.546H78.9424V163.316H77.6224C75.8524 163.316 74.9674 162.456 74.9674 160.736V156.731H73.9774V155.006H74.9674V152.951H77.0824V155.006H78.9424V156.731H77.0824ZM90.4921 152.846V154.541H86.1271V157.226H89.4721V158.891H86.1271V163.316H84.0271V152.846H90.4921ZM93.0462 154.016C92.6762 154.016 92.3662 153.901 92.1162 153.671C91.8762 153.431 91.7562 153.136 91.7562 152.786C91.7562 152.436 91.8762 152.146 92.1162 151.916C92.3662 151.676 92.6762 151.556 93.0462 151.556C93.4162 151.556 93.7212 151.676 93.9612 151.916C94.2112 152.146 94.3362 152.436 94.3362 152.786C94.3362 153.136 94.2112 153.431 93.9612 153.671C93.7212 153.901 93.4162 154.016 93.0462 154.016ZM94.0812 155.006V163.316H91.9812V155.006H94.0812ZM98.601 156.731V160.751C98.601 161.031 98.666 161.236 98.796 161.366C98.936 161.486 99.166 161.546 99.486 161.546H100.461V163.316H99.141C97.371 163.316 96.486 162.456 96.486 160.736V156.731H95.496V155.006H96.486V152.951H98.601V155.006H100.461V156.731H98.601ZM105.036 158.066C105.036 157.036 105.266 156.116 105.726 155.306C106.196 154.486 106.831 153.851 107.631 153.401C108.441 152.941 109.346 152.711 110.346 152.711C111.516 152.711 112.541 153.011 113.421 153.611C114.301 154.211 114.916 155.041 115.266 156.101H112.851C112.611 155.601 112.271 155.226 111.831 154.976C111.401 154.726 110.901 154.601 110.331 154.601C109.721 154.601 109.176 154.746 108.696 155.036C108.226 155.316 107.856 155.716 107.586 156.236C107.326 156.756 107.196 157.366 107.196 158.066C107.196 158.756 107.326 159.366 107.586 159.896C107.856 160.416 108.226 160.821 108.696 161.111C109.176 161.391 109.721 161.531 110.331 161.531C110.901 161.531 111.401 161.406 111.831 161.156C112.271 160.896 112.611 160.516 112.851 160.016H115.266C114.916 161.086 114.301 161.921 113.421 162.521C112.551 163.111 111.526 163.406 110.346 163.406C109.346 163.406 108.441 163.181 107.631 162.731C106.831 162.271 106.196 161.636 105.726 160.826C105.266 160.016 105.036 159.096 105.036 158.066ZM116.519 159.131C116.519 158.291 116.684 157.546 117.014 156.896C117.354 156.246 117.809 155.746 118.379 155.396C118.959 155.046 119.604 154.871 120.314 154.871C120.934 154.871 121.474 154.996 121.934 155.246C122.404 155.496 122.779 155.811 123.059 156.191V155.006H125.174V163.316H123.059V162.101C122.789 162.491 122.414 162.816 121.934 163.076C121.464 163.326 120.919 163.451 120.299 163.451C119.599 163.451 118.959 163.271 118.379 162.911C117.809 162.551 117.354 162.046 117.014 161.396C116.684 160.736 116.519 159.981 116.519 159.131ZM123.059 159.161C123.059 158.651 122.959 158.216 122.759 157.856C122.559 157.486 122.289 157.206 121.949 157.016C121.609 156.816 121.244 156.716 120.854 156.716C120.464 156.716 120.104 156.811 119.774 157.001C119.444 157.191 119.174 157.471 118.964 157.841C118.764 158.201 118.664 158.631 118.664 159.131C118.664 159.631 118.764 160.071 118.964 160.451C119.174 160.821 119.444 161.106 119.774 161.306C120.114 161.506 120.474 161.606 120.854 161.606C121.244 161.606 121.609 161.511 121.949 161.321C122.289 161.121 122.559 160.841 122.759 160.481C122.959 160.111 123.059 159.671 123.059 159.161ZM129.325 156.296C129.595 155.856 129.945 155.511 130.375 155.261C130.815 155.011 131.315 154.886 131.875 154.886V157.091H131.32C130.66 157.091 130.16 157.246 129.82 157.556C129.49 157.866 129.325 158.406 129.325 159.176V163.316H127.225V155.006H129.325V156.296ZM141.015 158.981C141.015 159.281 140.995 159.551 140.955 159.791H134.88C134.93 160.391 135.14 160.861 135.51 161.201C135.88 161.541 136.335 161.711 136.875 161.711C137.655 161.711 138.21 161.376 138.54 160.706H140.805C140.565 161.506 140.105 162.166 139.425 162.686C138.745 163.196 137.91 163.451 136.92 163.451C136.12 163.451 135.4 163.276 134.76 162.926C134.13 162.566 133.635 162.061 133.275 161.411C132.925 160.761 132.75 160.011 132.75 159.161C132.75 158.301 132.925 157.546 133.275 156.896C133.625 156.246 134.115 155.746 134.745 155.396C135.375 155.046 136.1 154.871 136.92 154.871C137.71 154.871 138.415 155.041 139.035 155.381C139.665 155.721 140.15 156.206 140.49 156.836C140.84 157.456 141.015 158.171 141.015 158.981ZM138.84 158.381C138.83 157.841 138.635 157.411 138.255 157.091C137.875 156.761 137.41 156.596 136.86 156.596C136.34 156.596 135.9 156.756 135.54 157.076C135.19 157.386 134.975 157.821 134.895 158.381H138.84ZM150.273 158.981C150.273 159.281 150.253 159.551 150.213 159.791H144.138C144.188 160.391 144.398 160.861 144.768 161.201C145.138 161.541 145.593 161.711 146.133 161.711C146.913 161.711 147.468 161.376 147.798 160.706H150.063C149.823 161.506 149.363 162.166 148.683 162.686C148.003 163.196 147.168 163.451 146.178 163.451C145.378 163.451 144.658 163.276 144.018 162.926C143.388 162.566 142.893 162.061 142.533 161.411C142.183 160.761 142.008 160.011 142.008 159.161C142.008 158.301 142.183 157.546 142.533 156.896C142.883 156.246 143.373 155.746 144.003 155.396C144.633 155.046 145.358 154.871 146.178 154.871C146.968 154.871 147.673 155.041 148.293 155.381C148.923 155.721 149.408 156.206 149.748 156.836C150.098 157.456 150.273 158.171 150.273 158.981ZM148.098 158.381C148.088 157.841 147.893 157.411 147.513 157.091C147.133 156.761 146.668 156.596 146.118 156.596C145.598 156.596 145.158 156.756 144.798 157.076C144.448 157.386 144.233 157.821 144.153 158.381H148.098ZM153.905 156.296C154.175 155.856 154.525 155.511 154.955 155.261C155.395 155.011 155.895 154.886 156.455 154.886V157.091H155.9C155.24 157.091 154.74 157.246 154.4 157.556C154.07 157.866 153.905 158.406 153.905 159.176V163.316H151.805V155.006H153.905V156.296ZM167.834 157.076V158.846H161.474V157.076H167.834ZM173.253 158.066C173.253 157.036 173.483 156.116 173.943 155.306C174.413 154.486 175.048 153.851 175.848 153.401C176.658 152.941 177.563 152.711 178.563 152.711C179.733 152.711 180.758 153.011 181.638 153.611C182.518 154.211 183.133 155.041 183.483 156.101H181.068C180.828 155.601 180.488 155.226 180.048 154.976C179.618 154.726 179.118 154.601 178.548 154.601C177.938 154.601 177.393 154.746 176.913 155.036C176.443 155.316 176.073 155.716 175.803 156.236C175.543 156.756 175.413 157.366 175.413 158.066C175.413 158.756 175.543 159.366 175.803 159.896C176.073 160.416 176.443 160.821 176.913 161.111C177.393 161.391 177.938 161.531 178.548 161.531C179.118 161.531 179.618 161.406 180.048 161.156C180.488 160.896 180.828 160.516 181.068 160.016H183.483C183.133 161.086 182.518 161.921 181.638 162.521C180.768 163.111 179.743 163.406 178.563 163.406C177.563 163.406 176.658 163.181 175.848 162.731C175.048 162.271 174.413 161.636 173.943 160.826C173.483 160.016 173.253 159.096 173.253 158.066ZM188.967 163.451C188.167 163.451 187.447 163.276 186.807 162.926C186.167 162.566 185.662 162.061 185.292 161.411C184.932 160.761 184.752 160.011 184.752 159.161C184.752 158.311 184.937 157.561 185.307 156.911C185.687 156.261 186.202 155.761 186.852 155.411C187.502 155.051 188.227 154.871 189.027 154.871C189.827 154.871 190.552 155.051 191.202 155.411C191.852 155.761 192.362 156.261 192.732 156.911C193.112 157.561 193.302 158.311 193.302 159.161C193.302 160.011 193.107 160.761 192.717 161.411C192.337 162.061 191.817 162.566 191.157 162.926C190.507 163.276 189.777 163.451 188.967 163.451ZM188.967 161.621C189.347 161.621 189.702 161.531 190.032 161.351C190.372 161.161 190.642 160.881 190.842 160.511C191.042 160.141 191.142 159.691 191.142 159.161C191.142 158.371 190.932 157.766 190.512 157.346C190.102 156.916 189.597 156.701 188.997 156.701C188.397 156.701 187.892 156.916 187.482 157.346C187.082 157.766 186.882 158.371 186.882 159.161C186.882 159.951 187.077 160.561 187.467 160.991C187.867 161.411 188.367 161.621 188.967 161.621ZM202.687 155.006V163.316H200.572V162.266C200.302 162.626 199.947 162.911 199.507 163.121C199.077 163.321 198.607 163.421 198.097 163.421C197.447 163.421 196.872 163.286 196.372 163.016C195.872 162.736 195.477 162.331 195.187 161.801C194.907 161.261 194.767 160.621 194.767 159.881V155.006H196.867V159.581C196.867 160.241 197.032 160.751 197.362 161.111C197.692 161.461 198.142 161.636 198.712 161.636C199.292 161.636 199.747 161.461 200.077 161.111C200.407 160.751 200.572 160.241 200.572 159.581V155.006H202.687ZM206.859 156.296C207.129 155.856 207.479 155.511 207.909 155.261C208.349 155.011 208.849 154.886 209.409 154.886V157.091H208.854C208.194 157.091 207.694 157.246 207.354 157.556C207.024 157.866 206.859 158.406 206.859 159.176V163.316H204.759V155.006H206.859V156.296ZM214.004 163.451C213.324 163.451 212.714 163.331 212.174 163.091C211.634 162.841 211.204 162.506 210.884 162.086C210.574 161.666 210.404 161.201 210.374 160.691H212.489C212.529 161.011 212.684 161.276 212.954 161.486C213.234 161.696 213.579 161.801 213.989 161.801C214.389 161.801 214.699 161.721 214.919 161.561C215.149 161.401 215.264 161.196 215.264 160.946C215.264 160.676 215.124 160.476 214.844 160.346C214.574 160.206 214.139 160.056 213.539 159.896C212.919 159.746 212.409 159.591 212.009 159.431C211.619 159.271 211.279 159.026 210.989 158.696C210.709 158.366 210.569 157.921 210.569 157.361C210.569 156.901 210.699 156.481 210.959 156.101C211.229 155.721 211.609 155.421 212.099 155.201C212.599 154.981 213.184 154.871 213.854 154.871C214.844 154.871 215.634 155.121 216.224 155.621C216.814 156.111 217.139 156.776 217.199 157.616H215.189C215.159 157.286 215.019 157.026 214.769 156.836C214.529 156.636 214.204 156.536 213.794 156.536C213.414 156.536 213.119 156.606 212.909 156.746C212.709 156.886 212.609 157.081 212.609 157.331C212.609 157.611 212.749 157.826 213.029 157.976C213.309 158.116 213.744 158.261 214.334 158.411C214.934 158.561 215.429 158.716 215.819 158.876C216.209 159.036 216.544 159.286 216.824 159.626C217.114 159.956 217.264 160.396 217.274 160.946C217.274 161.426 217.139 161.856 216.869 162.236C216.609 162.616 216.229 162.916 215.729 163.136C215.239 163.346 214.664 163.451 214.004 163.451ZM226.723 158.981C226.723 159.281 226.703 159.551 226.663 159.791H220.588C220.638 160.391 220.848 160.861 221.218 161.201C221.588 161.541 222.043 161.711 222.583 161.711C223.363 161.711 223.918 161.376 224.248 160.706H226.513C226.273 161.506 225.813 162.166 225.133 162.686C224.453 163.196 223.618 163.451 222.628 163.451C221.828 163.451 221.108 163.276 220.468 162.926C219.838 162.566 219.343 162.061 218.983 161.411C218.633 160.761 218.458 160.011 218.458 159.161C218.458 158.301 218.633 157.546 218.983 156.896C219.333 156.246 219.823 155.746 220.453 155.396C221.083 155.046 221.808 154.871 222.628 154.871C223.418 154.871 224.123 155.041 224.743 155.381C225.373 155.721 225.858 156.206 226.198 156.836C226.548 157.456 226.723 158.171 226.723 158.981ZM224.548 158.381C224.538 157.841 224.343 157.411 223.963 157.091C223.583 156.761 223.118 156.596 222.568 156.596C222.048 156.596 221.608 156.756 221.248 157.076C220.898 157.386 220.683 157.821 220.603 158.381H224.548ZM66.4376 180.076V181.846H60.0776V180.076H66.4376ZM71.8569 181.066C71.8569 180.036 72.0869 179.116 72.5469 178.306C73.0169 177.486 73.6519 176.851 74.4519 176.401C75.2619 175.941 76.1669 175.711 77.1669 175.711C78.3369 175.711 79.3619 176.011 80.2419 176.611C81.1219 177.211 81.7369 178.041 82.0869 179.101H79.6719C79.4319 178.601 79.0919 178.226 78.6519 177.976C78.2219 177.726 77.7219 177.601 77.1519 177.601C76.5419 177.601 75.9969 177.746 75.5169 178.036C75.0469 178.316 74.6769 178.716 74.4069 179.236C74.1469 179.756 74.0169 180.366 74.0169 181.066C74.0169 181.756 74.1469 182.366 74.4069 182.896C74.6769 183.416 75.0469 183.821 75.5169 184.111C75.9969 184.391 76.5419 184.531 77.1519 184.531C77.7219 184.531 78.2219 184.406 78.6519 184.156C79.0919 183.896 79.4319 183.516 79.6719 183.016H82.0869C81.7369 184.086 81.1219 184.921 80.2419 185.521C79.3719 186.111 78.3469 186.406 77.1669 186.406C76.1669 186.406 75.2619 186.181 74.4519 185.731C73.6519 185.271 73.0169 184.636 72.5469 183.826C72.0869 183.016 71.8569 182.096 71.8569 181.066ZM87.5706 186.451C86.7706 186.451 86.0506 186.276 85.4106 185.926C84.7706 185.566 84.2656 185.061 83.8956 184.411C83.5356 183.761 83.3556 183.011 83.3556 182.161C83.3556 181.311 83.5406 180.561 83.9106 179.911C84.2906 179.261 84.8056 178.761 85.4556 178.411C86.1056 178.051 86.8306 177.871 87.6306 177.871C88.4306 177.871 89.1556 178.051 89.8056 178.411C90.4556 178.761 90.9656 179.261 91.3356 179.911C91.7156 180.561 91.9056 181.311 91.9056 182.161C91.9056 183.011 91.7106 183.761 91.3206 184.411C90.9406 185.061 90.4206 185.566 89.7606 185.926C89.1106 186.276 88.3806 186.451 87.5706 186.451ZM87.5706 184.621C87.9506 184.621 88.3056 184.531 88.6356 184.351C88.9756 184.161 89.2456 183.881 89.4456 183.511C89.6456 183.141 89.7456 182.691 89.7456 182.161C89.7456 181.371 89.5356 180.766 89.1156 180.346C88.7056 179.916 88.2006 179.701 87.6006 179.701C87.0006 179.701 86.4956 179.916 86.0856 180.346C85.6856 180.766 85.4856 181.371 85.4856 182.161C85.4856 182.951 85.6806 183.561 86.0706 183.991C86.4706 184.411 86.9706 184.621 87.5706 184.621ZM95.546 175.216V186.316H93.446V175.216H95.546ZM99.7208 175.216V186.316H97.6208V175.216H99.7208ZM109.521 181.981C109.521 182.281 109.501 182.551 109.461 182.791H103.386C103.436 183.391 103.646 183.861 104.016 184.201C104.386 184.541 104.841 184.711 105.381 184.711C106.161 184.711 106.716 184.376 107.046 183.706H109.311C109.071 184.506 108.611 185.166 107.931 185.686C107.251 186.196 106.416 186.451 105.426 186.451C104.626 186.451 103.906 186.276 103.266 185.926C102.636 185.566 102.141 185.061 101.781 184.411C101.431 183.761 101.256 183.011 101.256 182.161C101.256 181.301 101.431 180.546 101.781 179.896C102.131 179.246 102.621 178.746 103.251 178.396C103.881 178.046 104.606 177.871 105.426 177.871C106.216 177.871 106.921 178.041 107.541 178.381C108.171 178.721 108.656 179.206 108.996 179.836C109.346 180.456 109.521 181.171 109.521 181.981ZM107.346 181.381C107.336 180.841 107.141 180.411 106.761 180.091C106.381 179.761 105.916 179.596 105.366 179.596C104.846 179.596 104.406 179.756 104.046 180.076C103.696 180.386 103.481 180.821 103.401 181.381H107.346ZM114.308 177.871C114.928 177.871 115.473 177.996 115.943 178.246C116.413 178.486 116.783 178.801 117.053 179.191V178.006H119.168V186.376C119.168 187.146 119.013 187.831 118.703 188.431C118.393 189.041 117.928 189.521 117.308 189.871C116.688 190.231 115.938 190.411 115.058 190.411C113.878 190.411 112.908 190.136 112.148 189.586C111.398 189.036 110.973 188.286 110.873 187.336H112.958C113.068 187.716 113.303 188.016 113.663 188.236C114.033 188.466 114.478 188.581 114.998 188.581C115.608 188.581 116.103 188.396 116.483 188.026C116.863 187.666 117.053 187.116 117.053 186.376V185.086C116.783 185.476 116.408 185.801 115.928 186.061C115.458 186.321 114.918 186.451 114.308 186.451C113.608 186.451 112.968 186.271 112.388 185.911C111.808 185.551 111.348 185.046 111.008 184.396C110.678 183.736 110.513 182.981 110.513 182.131C110.513 181.291 110.678 180.546 111.008 179.896C111.348 179.246 111.803 178.746 112.373 178.396C112.953 178.046 113.598 177.871 114.308 177.871ZM117.053 182.161C117.053 181.651 116.953 181.216 116.753 180.856C116.553 180.486 116.283 180.206 115.943 180.016C115.603 179.816 115.238 179.716 114.848 179.716C114.458 179.716 114.098 179.811 113.768 180.001C113.438 180.191 113.168 180.471 112.958 180.841C112.758 181.201 112.658 181.631 112.658 182.131C112.658 182.631 112.758 183.071 112.958 183.451C113.168 183.821 113.438 184.106 113.768 184.306C114.108 184.506 114.468 184.606 114.848 184.606C115.238 184.606 115.603 184.511 115.943 184.321C116.283 184.121 116.553 183.841 116.753 183.481C116.953 183.111 117.053 182.671 117.053 182.161ZM128.944 181.981C128.944 182.281 128.924 182.551 128.884 182.791H122.809C122.859 183.391 123.069 183.861 123.439 184.201C123.809 184.541 124.264 184.711 124.804 184.711C125.584 184.711 126.139 184.376 126.469 183.706H128.734C128.494 184.506 128.034 185.166 127.354 185.686C126.674 186.196 125.839 186.451 124.849 186.451C124.049 186.451 123.329 186.276 122.689 185.926C122.059 185.566 121.564 185.061 121.204 184.411C120.854 183.761 120.679 183.011 120.679 182.161C120.679 181.301 120.854 180.546 121.204 179.896C121.554 179.246 122.044 178.746 122.674 178.396C123.304 178.046 124.029 177.871 124.849 177.871C125.639 177.871 126.344 178.041 126.964 178.381C127.594 178.721 128.079 179.206 128.419 179.836C128.769 180.456 128.944 181.171 128.944 181.981ZM126.769 181.381C126.759 180.841 126.564 180.411 126.184 180.091C125.804 179.761 125.339 179.596 124.789 179.596C124.269 179.596 123.829 179.756 123.469 180.076C123.119 180.386 122.904 180.821 122.824 181.381H126.769ZM140.441 180.076V181.846H134.081V180.076H140.441ZM152.476 175.846V183.196C152.476 184.216 152.181 185.011 151.591 185.581C151.001 186.141 150.211 186.421 149.221 186.421C148.221 186.421 147.411 186.131 146.791 185.551C146.181 184.971 145.876 184.161 145.876 183.121H147.976C147.986 183.571 148.091 183.921 148.291 184.171C148.501 184.421 148.801 184.546 149.191 184.546C149.571 184.546 149.861 184.426 150.061 184.186C150.261 183.946 150.361 183.616 150.361 183.196V175.846H152.476ZM158.616 186.451C157.816 186.451 157.096 186.276 156.456 185.926C155.816 185.566 155.311 185.061 154.941 184.411C154.581 183.761 154.401 183.011 154.401 182.161C154.401 181.311 154.586 180.561 154.956 179.911C155.336 179.261 155.851 178.761 156.501 178.411C157.151 178.051 157.876 177.871 158.676 177.871C159.476 177.871 160.201 178.051 160.851 178.411C161.501 178.761 162.011 179.261 162.381 179.911C162.761 180.561 162.951 181.311 162.951 182.161C162.951 183.011 162.756 183.761 162.366 184.411C161.986 185.061 161.466 185.566 160.806 185.926C160.156 186.276 159.426 186.451 158.616 186.451ZM158.616 184.621C158.996 184.621 159.351 184.531 159.681 184.351C160.021 184.161 160.291 183.881 160.491 183.511C160.691 183.141 160.791 182.691 160.791 182.161C160.791 181.371 160.581 180.766 160.161 180.346C159.751 179.916 159.246 179.701 158.646 179.701C158.046 179.701 157.541 179.916 157.131 180.346C156.731 180.766 156.531 181.371 156.531 182.161C156.531 182.951 156.726 183.561 157.116 183.991C157.516 184.411 158.016 184.621 158.616 184.621ZM166.591 179.221C166.861 178.821 167.231 178.496 167.701 178.246C168.181 177.996 168.726 177.871 169.336 177.871C170.046 177.871 170.686 178.046 171.256 178.396C171.836 178.746 172.291 179.246 172.621 179.896C172.961 180.536 173.131 181.281 173.131 182.131C173.131 182.981 172.961 183.736 172.621 184.396C172.291 185.046 171.836 185.551 171.256 185.911C170.686 186.271 170.046 186.451 169.336 186.451C168.716 186.451 168.171 186.331 167.701 186.091C167.241 185.841 166.871 185.521 166.591 185.131V186.316H164.491V175.216H166.591V179.221ZM170.986 182.131C170.986 181.631 170.881 181.201 170.671 180.841C170.471 180.471 170.201 180.191 169.861 180.001C169.531 179.811 169.171 179.716 168.781 179.716C168.401 179.716 168.041 179.816 167.701 180.016C167.371 180.206 167.101 180.486 166.891 180.856C166.691 181.226 166.591 181.661 166.591 182.161C166.591 182.661 166.691 183.096 166.891 183.466C167.101 183.836 167.371 184.121 167.701 184.321C168.041 184.511 168.401 184.606 168.781 184.606C169.171 184.606 169.531 184.506 169.861 184.306C170.201 184.106 170.471 183.821 170.671 183.451C170.881 183.081 170.986 182.641 170.986 182.131ZM184.621 180.076V181.846H178.261V180.076H184.621ZM194.166 186.421C193.436 186.421 192.776 186.296 192.186 186.046C191.606 185.796 191.146 185.436 190.806 184.966C190.466 184.496 190.291 183.941 190.281 183.301H192.531C192.561 183.731 192.711 184.071 192.981 184.321C193.261 184.571 193.641 184.696 194.121 184.696C194.611 184.696 194.996 184.581 195.276 184.351C195.556 184.111 195.696 183.801 195.696 183.421C195.696 183.111 195.601 182.856 195.411 182.656C195.221 182.456 194.981 182.301 194.691 182.191C194.411 182.071 194.021 181.941 193.521 181.801C192.841 181.601 192.286 181.406 191.856 181.216C191.436 181.016 191.071 180.721 190.761 180.331C190.461 179.931 190.311 179.401 190.311 178.741C190.311 178.121 190.466 177.581 190.776 177.121C191.086 176.661 191.521 176.311 192.081 176.071C192.641 175.821 193.281 175.696 194.001 175.696C195.081 175.696 195.956 175.961 196.626 176.491C197.306 177.011 197.681 177.741 197.751 178.681H195.441C195.421 178.321 195.266 178.026 194.976 177.796C194.696 177.556 194.321 177.436 193.851 177.436C193.441 177.436 193.111 177.541 192.861 177.751C192.621 177.961 192.501 178.266 192.501 178.666C192.501 178.946 192.591 179.181 192.771 179.371C192.961 179.551 193.191 179.701 193.461 179.821C193.741 179.931 194.131 180.061 194.631 180.211C195.311 180.411 195.866 180.611 196.296 180.811C196.726 181.011 197.096 181.311 197.406 181.711C197.716 182.111 197.871 182.636 197.871 183.286C197.871 183.846 197.726 184.366 197.436 184.846C197.146 185.326 196.721 185.711 196.161 186.001C195.601 186.281 194.936 186.421 194.166 186.421ZM204.611 186.316L201.791 182.776V186.316H199.691V175.216H201.791V181.531L204.581 178.006H207.311L203.651 182.176L207.341 186.316H204.611ZM209.516 177.016C209.146 177.016 208.836 176.901 208.586 176.671C208.346 176.431 208.226 176.136 208.226 175.786C208.226 175.436 208.346 175.146 208.586 174.916C208.836 174.676 209.146 174.556 209.516 174.556C209.886 174.556 210.191 174.676 210.431 174.916C210.681 175.146 210.806 175.436 210.806 175.786C210.806 176.136 210.681 176.431 210.431 176.671C210.191 176.901 209.886 177.016 209.516 177.016ZM210.551 178.006V186.316H208.451V178.006H210.551ZM214.726 175.216V186.316H212.626V175.216H214.726ZM218.901 175.216V186.316H216.801V175.216H218.901ZM220.435 189.271V189.061C221.445 188.021 222.22 186.796 222.76 185.386C223.31 183.966 223.585 182.496 223.585 180.976C223.585 179.416 223.295 177.901 222.715 176.431C222.145 174.961 221.31 173.701 220.21 172.651V172.456H222.325C223.395 173.416 224.21 174.651 224.77 176.161C225.33 177.661 225.61 179.266 225.61 180.976C225.61 182.646 225.34 184.211 224.8 185.671C224.27 187.131 223.52 188.331 222.55 189.271H220.435Z" fill="black"/>
<circle cx="39.3853" cy="37.8523" r="35.46" fill="#E13636"/>
<path d="M127.328 66.3405C125.625 66.3405 124.085 66.0488 122.708 65.4655C121.355 64.8821 120.282 64.0421 119.488 62.9455C118.695 61.8488 118.287 60.5538 118.263 59.0605H123.513C123.583 60.0638 123.933 60.8571 124.563 61.4405C125.217 62.0238 126.103 62.3155 127.223 62.3155C128.367 62.3155 129.265 62.0471 129.918 61.5105C130.572 60.9505 130.898 60.2271 130.898 59.3405C130.898 58.6171 130.677 58.0221 130.233 57.5555C129.79 57.0888 129.23 56.7271 128.553 56.4705C127.9 56.1905 126.99 55.8871 125.823 55.5605C124.237 55.0938 122.942 54.6388 121.938 54.1955C120.958 53.7288 120.107 53.0405 119.383 52.1305C118.683 51.1971 118.333 49.9605 118.333 48.4205C118.333 46.9738 118.695 45.7138 119.418 44.6405C120.142 43.5671 121.157 42.7505 122.463 42.1905C123.77 41.6071 125.263 41.3155 126.943 41.3155C129.463 41.3155 131.505 41.9338 133.068 43.1705C134.655 44.3838 135.53 46.0871 135.693 48.2805H130.303C130.257 47.4405 129.895 46.7521 129.218 46.2155C128.565 45.6555 127.69 45.3755 126.593 45.3755C125.637 45.3755 124.867 45.6205 124.283 46.1105C123.723 46.6005 123.443 47.3121 123.443 48.2455C123.443 48.8988 123.653 49.4471 124.073 49.8905C124.517 50.3105 125.053 50.6605 125.683 50.9405C126.337 51.1971 127.247 51.5005 128.413 51.8505C130 52.3171 131.295 52.7838 132.298 53.2505C133.302 53.7171 134.165 54.4171 134.888 55.3505C135.612 56.2838 135.973 57.5088 135.973 59.0255C135.973 60.3321 135.635 61.5455 134.958 62.6655C134.282 63.7855 133.29 64.6838 131.983 65.3605C130.677 66.0138 129.125 66.3405 127.328 66.3405ZM156.847 41.6655V45.6205H150.337V66.0955H145.437V45.6205H138.927V41.6655H156.847ZM165.322 45.6205V51.7455H173.547V55.6305H165.322V62.1055H174.597V66.0955H160.422V41.6305H174.597V45.6205H165.322ZM196.865 49.2255C196.865 50.5321 196.55 51.7571 195.92 52.9005C195.313 54.0438 194.345 54.9655 193.015 55.6655C191.708 56.3655 190.051 56.7155 188.045 56.7155H183.95V66.0955H179.05V41.6655H188.045C189.935 41.6655 191.545 41.9921 192.875 42.6455C194.205 43.2988 195.196 44.1971 195.85 45.3405C196.526 46.4838 196.865 47.7788 196.865 49.2255ZM187.835 52.7605C189.188 52.7605 190.191 52.4571 190.845 51.8505C191.498 51.2205 191.825 50.3455 191.825 49.2255C191.825 46.8455 190.495 45.6555 187.835 45.6555H183.95V52.7605H187.835ZM208.193 47.3005C208.31 44.9671 209.127 43.1705 210.643 41.9105C212.183 40.6271 214.202 39.9855 216.698 39.9855C218.402 39.9855 219.86 40.2888 221.073 40.8955C222.287 41.4788 223.197 42.2838 223.803 43.3105C224.433 44.3138 224.748 45.4571 224.748 46.7405C224.748 48.2105 224.363 49.4588 223.593 50.4855C222.847 51.4888 221.948 52.1655 220.898 52.5155V52.6555C222.252 53.0755 223.302 53.8221 224.048 54.8955C224.818 55.9688 225.203 57.3455 225.203 59.0255C225.203 60.4255 224.877 61.6738 224.223 62.7705C223.593 63.8671 222.648 64.7305 221.388 65.3605C220.152 65.9671 218.658 66.2705 216.908 66.2705C214.272 66.2705 212.125 65.6055 210.468 64.2755C208.812 62.9455 207.937 60.9855 207.843 58.3955H212.603C212.65 59.5388 213.035 60.4605 213.758 61.1605C214.505 61.8371 215.52 62.1755 216.803 62.1755C217.993 62.1755 218.903 61.8488 219.533 61.1955C220.187 60.5188 220.513 59.6555 220.513 58.6055C220.513 57.2055 220.07 56.2021 219.183 55.5955C218.297 54.9888 216.92 54.6855 215.053 54.6855H214.038V50.6605H215.053C218.367 50.6605 220.023 49.5521 220.023 47.3355C220.023 46.3321 219.72 45.5505 219.113 44.9905C218.53 44.4305 217.678 44.1505 216.558 44.1505C215.462 44.1505 214.61 44.4538 214.003 45.0605C213.42 45.6438 213.082 46.3905 212.988 47.3005H208.193Z" fill="black"/>
<path d="M224.554 96.8265C224.554 98.2993 225.748 99.4932 227.221 99.4932C228.693 99.4932 229.887 98.2993 229.887 96.8265C229.887 95.3538 228.693 94.1599 227.221 94.1599C225.748 94.1599 224.554 95.3538 224.554 96.8265ZM112.81 97.3265H227.221V96.3265H112.81V97.3265Z" fill="#E13636"/>
<defs>
<filter id="filter0_d_1_2544" x="0.679199" y="0.5" width="268.465" height="248.631" filterUnits="userSpaceOnUse" color-interpolation-filters="sRGB">
<feFlood flood-opacity="0" result="BackgroundImageFix"/>
<feColorMatrix in="SourceAlpha" type="matrix" values="0 0 0 0 0 0 0 0 0 0 0 0 0 0 0 0 0 0 127 0" result="hardAlpha"/>
<feOffset dy="4"/>
<feGaussianBlur stdDeviation="8.5"/>
<feComposite in2="hardAlpha" operator="out"/>
<feColorMatrix type="matrix" values="0 0 0 0 0.880688 0 0 0 0 0.880688 0 0 0 0 0.880688 0 0 0 0.25 0"/>
<feBlend mode="normal" in2="BackgroundImageFix" result="effect1_dropShadow_1_2544"/>
<feBlend mode="normal" in="SourceGraphic" in2="effect1_dropShadow_1_2544" result="shape"/>
</filter>
</defs>
</svg>
