<svg width="269" height="250" viewBox="0 0 269 250" fill="none" xmlns="http://www.w3.org/2000/svg">
<g filter="url(#filter0_d_1_2538)">
<path d="M46.8918 94.4849C74.0162 94.4849 96.0049 72.4963 96.0049 45.3719C96.0049 40.9249 95.4138 36.6159 94.306 32.5193C92.0782 24.2809 97.4116 13.5 105.946 13.5H231.925C242.971 13.5 251.925 22.4543 251.925 33.5V208.131C251.925 219.177 242.971 228.131 231.925 228.131H37.46C26.4142 228.131 17.46 219.177 17.46 208.131V104.688C17.46 96.4486 27.416 91.2244 35.4298 93.1402C39.1071 94.0194 42.9451 94.4849 46.8918 94.4849Z" fill="white"/>
<path d="M46.8918 94.9849C74.2924 94.9849 96.5049 72.7724 96.5049 45.3719C96.5049 40.8804 95.9079 36.5276 94.7887 32.3888C93.7129 28.4104 94.4611 23.7907 96.5246 20.1677C98.5872 16.5465 101.911 14 105.946 14H231.925C242.695 14 251.425 22.7304 251.425 33.5V208.131C251.425 218.901 242.695 227.631 231.925 227.631H37.46C26.6904 227.631 17.96 218.901 17.96 208.131V104.688C17.96 100.79 20.3124 97.5674 23.6972 95.5345C27.085 93.4998 31.4441 92.7015 35.3135 93.6265C39.0287 94.5147 42.9057 94.9849 46.8918 94.9849Z" stroke="#F2F2F2"/>
</g>
<path d="M56.6138 134.016C56.6138 132.78 56.8898 131.676 57.4418 130.704C58.0058 129.72 58.7678 128.958 59.7278 128.418C60.6998 127.866 61.7858 127.59 62.9858 127.59C64.3898 127.59 65.6198 127.95 66.6758 128.67C67.7318 129.39 68.4698 130.386 68.8898 131.658H65.9918C65.7038 131.058 65.2958 130.608 64.7678 130.308C64.2518 130.008 63.6518 129.858 62.9678 129.858C62.2358 129.858 61.5818 130.032 61.0058 130.38C60.4418 130.716 59.9978 131.196 59.6738 131.82C59.3618 132.444 59.2058 133.176 59.2058 134.016C59.2058 134.844 59.3618 135.576 59.6738 136.212C59.9978 136.836 60.4418 137.322 61.0058 137.67C61.5818 138.006 62.2358 138.174 62.9678 138.174C63.6518 138.174 64.2518 138.024 64.7678 137.724C65.2958 137.412 65.7038 136.956 65.9918 136.356H68.8898C68.4698 137.64 67.7318 138.642 66.6758 139.362C65.6318 140.07 64.4018 140.424 62.9858 140.424C61.7858 140.424 60.6998 140.154 59.7278 139.614C58.7678 139.062 58.0058 138.3 57.4418 137.328C56.8898 136.356 56.6138 135.252 56.6138 134.016ZM75.4702 140.478C74.5102 140.478 73.6462 140.268 72.8782 139.848C72.1102 139.416 71.5042 138.81 71.0602 138.03C70.6282 137.25 70.4122 136.35 70.4122 135.33C70.4122 134.31 70.6342 133.41 71.0782 132.63C71.5342 131.85 72.1522 131.25 72.9322 130.83C73.7122 130.398 74.5822 130.182 75.5422 130.182C76.5022 130.182 77.3722 130.398 78.1522 130.83C78.9322 131.25 79.5442 131.85 79.9882 132.63C80.4442 133.41 80.6722 134.31 80.6722 135.33C80.6722 136.35 80.4382 137.25 79.9702 138.03C79.5142 138.81 78.8902 139.416 78.0982 139.848C77.3182 140.268 76.4422 140.478 75.4702 140.478ZM75.4702 138.282C75.9262 138.282 76.3522 138.174 76.7482 137.958C77.1562 137.73 77.4802 137.394 77.7202 136.95C77.9602 136.506 78.0802 135.966 78.0802 135.33C78.0802 134.382 77.8282 133.656 77.3242 133.152C76.8322 132.636 76.2262 132.378 75.5062 132.378C74.7862 132.378 74.1802 132.636 73.6882 133.152C73.2082 133.656 72.9682 134.382 72.9682 135.33C72.9682 136.278 73.2022 137.01 73.6702 137.526C74.1502 138.03 74.7502 138.282 75.4702 138.282ZM88.0467 130.2C89.2347 130.2 90.1947 130.578 90.9267 131.334C91.6587 132.078 92.0247 133.122 92.0247 134.466V140.316H89.5047V134.808C89.5047 134.016 89.3067 133.41 88.9107 132.99C88.5147 132.558 87.9747 132.342 87.2907 132.342C86.5947 132.342 86.0427 132.558 85.6347 132.99C85.2387 133.41 85.0407 134.016 85.0407 134.808V140.316H82.5207V130.344H85.0407V131.586C85.3767 131.154 85.8027 130.818 86.3187 130.578C86.8467 130.326 87.4227 130.2 88.0467 130.2ZM99.9471 130.2C101.135 130.2 102.095 130.578 102.827 131.334C103.559 132.078 103.925 133.122 103.925 134.466V140.316H101.405V134.808C101.405 134.016 101.207 133.41 100.811 132.99C100.415 132.558 99.8751 132.342 99.1911 132.342C98.4951 132.342 97.9431 132.558 97.5351 132.99C97.1391 133.41 96.9411 134.016 96.9411 134.808V140.316H94.4211V130.344H96.9411V131.586C97.2771 131.154 97.7031 130.818 98.2191 130.578C98.7471 130.326 99.3231 130.2 99.9471 130.2ZM115.591 135.114C115.591 135.474 115.567 135.798 115.519 136.086H108.229C108.289 136.806 108.541 137.37 108.985 137.778C109.429 138.186 109.975 138.39 110.623 138.39C111.559 138.39 112.225 137.988 112.621 137.184H115.339C115.051 138.144 114.499 138.936 113.683 139.56C112.867 140.172 111.865 140.478 110.677 140.478C109.717 140.478 108.853 140.268 108.085 139.848C107.329 139.416 106.735 138.81 106.303 138.03C105.883 137.25 105.673 136.35 105.673 135.33C105.673 134.298 105.883 133.392 106.303 132.612C106.723 131.832 107.311 131.232 108.067 130.812C108.823 130.392 109.693 130.182 110.677 130.182C111.625 130.182 112.471 130.386 113.215 130.794C113.971 131.202 114.553 131.784 114.961 132.54C115.381 133.284 115.591 134.142 115.591 135.114ZM112.981 134.394C112.969 133.746 112.735 133.23 112.279 132.846C111.823 132.45 111.265 132.252 110.605 132.252C109.981 132.252 109.453 132.444 109.021 132.828C108.601 133.2 108.343 133.722 108.247 134.394H112.981ZM116.783 135.33C116.783 134.298 116.993 133.398 117.413 132.63C117.833 131.85 118.415 131.25 119.159 130.83C119.903 130.398 120.755 130.182 121.715 130.182C122.951 130.182 123.971 130.494 124.775 131.118C125.591 131.73 126.137 132.594 126.413 133.71H123.695C123.551 133.278 123.305 132.942 122.957 132.702C122.621 132.45 122.201 132.324 121.697 132.324C120.977 132.324 120.407 132.588 119.987 133.116C119.567 133.632 119.357 134.37 119.357 135.33C119.357 136.278 119.567 137.016 119.987 137.544C120.407 138.06 120.977 138.318 121.697 138.318C122.717 138.318 123.383 137.862 123.695 136.95H126.413C126.137 138.03 125.591 138.888 124.775 139.524C123.959 140.16 122.939 140.478 121.715 140.478C120.755 140.478 119.903 140.268 119.159 139.848C118.415 139.416 117.833 138.816 117.413 138.048C116.993 137.268 116.783 136.362 116.783 135.33ZM131.193 132.414V137.238C131.193 137.574 131.271 137.82 131.427 137.976C131.595 138.12 131.871 138.192 132.255 138.192H133.425V140.316H131.841C129.717 140.316 128.655 139.284 128.655 137.22V132.414H127.467V130.344H128.655V127.878H131.193V130.344H133.425V132.414H131.193ZM156.321 127.752L152.811 140.316H149.841L147.483 131.37L145.017 140.316L142.065 140.334L138.681 127.752H141.381L143.595 137.508L146.151 127.752H148.959L151.371 137.454L153.603 127.752H156.321ZM159.244 129.156C158.8 129.156 158.428 129.018 158.128 128.742C157.84 128.454 157.696 128.1 157.696 127.68C157.696 127.26 157.84 126.912 158.128 126.636C158.428 126.348 158.8 126.204 159.244 126.204C159.688 126.204 160.054 126.348 160.342 126.636C160.642 126.912 160.792 127.26 160.792 127.68C160.792 128.1 160.642 128.454 160.342 128.742C160.054 129.018 159.688 129.156 159.244 129.156ZM160.486 130.344V140.316H157.966V130.344H160.486ZM165.91 132.414V137.238C165.91 137.574 165.988 137.82 166.144 137.976C166.312 138.12 166.588 138.192 166.972 138.192H168.142V140.316H166.558C164.434 140.316 163.372 139.284 163.372 137.22V132.414H162.184V130.344H163.372V127.878H165.91V130.344H168.142V132.414H165.91ZM175.57 130.2C176.326 130.2 176.998 130.368 177.586 130.704C178.174 131.028 178.63 131.514 178.954 132.162C179.29 132.798 179.458 133.566 179.458 134.466V140.316H176.938V134.808C176.938 134.016 176.74 133.41 176.344 132.99C175.948 132.558 175.408 132.342 174.724 132.342C174.028 132.342 173.476 132.558 173.068 132.99C172.672 133.41 172.474 134.016 172.474 134.808V140.316H169.954V126.996H172.474V131.586C172.798 131.154 173.23 130.818 173.77 130.578C174.31 130.326 174.91 130.2 175.57 130.2ZM196.134 127.752L191.886 135.942V140.316H189.366V135.942L185.1 127.752H187.944L190.644 133.494L193.326 127.752H196.134ZM202.015 140.478C201.055 140.478 200.191 140.268 199.423 139.848C198.655 139.416 198.049 138.81 197.605 138.03C197.173 137.25 196.957 136.35 196.957 135.33C196.957 134.31 197.179 133.41 197.623 132.63C198.079 131.85 198.697 131.25 199.477 130.83C200.257 130.398 201.127 130.182 202.087 130.182C203.047 130.182 203.917 130.398 204.697 130.83C205.477 131.25 206.089 131.85 206.533 132.63C206.989 133.41 207.217 134.31 207.217 135.33C207.217 136.35 206.983 137.25 206.515 138.03C206.059 138.81 205.435 139.416 204.643 139.848C203.863 140.268 202.987 140.478 202.015 140.478ZM202.015 138.282C202.471 138.282 202.897 138.174 203.293 137.958C203.701 137.73 204.025 137.394 204.265 136.95C204.505 136.506 204.625 135.966 204.625 135.33C204.625 134.382 204.373 133.656 203.869 133.152C203.377 132.636 202.771 132.378 202.051 132.378C201.331 132.378 200.725 132.636 200.233 133.152C199.753 133.656 199.513 134.382 199.513 135.33C199.513 136.278 199.747 137.01 200.215 137.526C200.695 138.03 201.295 138.282 202.015 138.282ZM218.48 130.344V140.316H215.942V139.056C215.618 139.488 215.192 139.83 214.664 140.082C214.148 140.322 213.584 140.442 212.972 140.442C212.192 140.442 211.502 140.28 210.902 139.956C210.302 139.62 209.828 139.134 209.48 138.498C209.144 137.85 208.976 137.082 208.976 136.194V130.344H211.496V135.834C211.496 136.626 211.694 137.238 212.09 137.67C212.486 138.09 213.026 138.3 213.71 138.3C214.406 138.3 214.952 138.09 215.348 137.67C215.744 137.238 215.942 136.626 215.942 135.834V130.344H218.48ZM223.486 131.892C223.81 131.364 224.23 130.95 224.746 130.65C225.274 130.35 225.874 130.2 226.546 130.2V132.846H225.88C225.088 132.846 224.488 133.032 224.08 133.404C223.684 133.776 223.486 134.424 223.486 135.348V140.316H220.966V130.344H223.486V131.892ZM96.5167 158.64C96.5167 159.312 96.3547 159.942 96.0307 160.53C95.7187 161.118 95.2207 161.592 94.5367 161.952C93.8647 162.312 93.0127 162.492 91.9807 162.492H89.8747V167.316H87.3547V154.752H91.9807C92.9527 154.752 93.7807 154.92 94.4647 155.256C95.1487 155.592 95.6587 156.054 95.9947 156.642C96.3427 157.23 96.5167 157.896 96.5167 158.64ZM91.8727 160.458C92.5687 160.458 93.0847 160.302 93.4207 159.99C93.7567 159.666 93.9247 159.216 93.9247 158.64C93.9247 157.416 93.2407 156.804 91.8727 156.804H89.8747V160.458H91.8727ZM107.576 162.114C107.576 162.474 107.552 162.798 107.504 163.086H100.214C100.274 163.806 100.526 164.37 100.97 164.778C101.414 165.186 101.96 165.39 102.608 165.39C103.544 165.39 104.21 164.988 104.606 164.184H107.324C107.036 165.144 106.484 165.936 105.668 166.56C104.852 167.172 103.85 167.478 102.662 167.478C101.702 167.478 100.838 167.268 100.07 166.848C99.3138 166.416 98.7198 165.81 98.2878 165.03C97.8678 164.25 97.6578 163.35 97.6578 162.33C97.6578 161.298 97.8678 160.392 98.2878 159.612C98.7078 158.832 99.2958 158.232 100.052 157.812C100.808 157.392 101.678 157.182 102.662 157.182C103.61 157.182 104.456 157.386 105.2 157.794C105.956 158.202 106.538 158.784 106.946 159.54C107.366 160.284 107.576 161.142 107.576 162.114ZM104.966 161.394C104.954 160.746 104.72 160.23 104.264 159.846C103.808 159.45 103.25 159.252 102.59 159.252C101.966 159.252 101.438 159.444 101.006 159.828C100.586 160.2 100.328 160.722 100.232 161.394H104.966ZM111.935 158.892C112.259 158.364 112.679 157.95 113.195 157.65C113.723 157.35 114.323 157.2 114.995 157.2V159.846H114.329C113.537 159.846 112.937 160.032 112.529 160.404C112.133 160.776 111.935 161.424 111.935 162.348V167.316H109.415V157.344H111.935V158.892ZM120.509 167.478C119.693 167.478 118.961 167.334 118.313 167.046C117.665 166.746 117.149 166.344 116.765 165.84C116.393 165.336 116.189 164.778 116.153 164.166H118.691C118.739 164.55 118.925 164.868 119.249 165.12C119.585 165.372 119.999 165.498 120.491 165.498C120.971 165.498 121.343 165.402 121.607 165.21C121.883 165.018 122.021 164.772 122.021 164.472C122.021 164.148 121.853 163.908 121.517 163.752C121.193 163.584 120.671 163.404 119.951 163.212C119.207 163.032 118.595 162.846 118.115 162.654C117.647 162.462 117.239 162.168 116.891 161.772C116.555 161.376 116.387 160.842 116.387 160.17C116.387 159.618 116.543 159.114 116.855 158.658C117.179 158.202 117.635 157.842 118.223 157.578C118.823 157.314 119.525 157.182 120.329 157.182C121.517 157.182 122.465 157.482 123.173 158.082C123.881 158.67 124.271 159.468 124.343 160.476H121.931C121.895 160.08 121.727 159.768 121.427 159.54C121.139 159.3 120.749 159.18 120.257 159.18C119.801 159.18 119.447 159.264 119.195 159.432C118.955 159.6 118.835 159.834 118.835 160.134C118.835 160.47 119.003 160.728 119.339 160.908C119.675 161.076 120.197 161.25 120.905 161.43C121.625 161.61 122.219 161.796 122.687 161.988C123.155 162.18 123.557 162.48 123.893 162.888C124.241 163.284 124.421 163.812 124.433 164.472C124.433 165.048 124.271 165.564 123.947 166.02C123.635 166.476 123.179 166.836 122.579 167.1C121.991 167.352 121.301 167.478 120.509 167.478ZM130.929 167.478C129.969 167.478 129.105 167.268 128.337 166.848C127.569 166.416 126.963 165.81 126.519 165.03C126.087 164.25 125.871 163.35 125.871 162.33C125.871 161.31 126.093 160.41 126.537 159.63C126.993 158.85 127.611 158.25 128.391 157.83C129.171 157.398 130.041 157.182 131.001 157.182C131.961 157.182 132.831 157.398 133.611 157.83C134.391 158.25 135.003 158.85 135.447 159.63C135.903 160.41 136.131 161.31 136.131 162.33C136.131 163.35 135.897 164.25 135.429 165.03C134.973 165.81 134.349 166.416 133.557 166.848C132.777 167.268 131.901 167.478 130.929 167.478ZM130.929 165.282C131.385 165.282 131.811 165.174 132.207 164.958C132.615 164.73 132.939 164.394 133.179 163.95C133.419 163.506 133.539 162.966 133.539 162.33C133.539 161.382 133.287 160.656 132.783 160.152C132.291 159.636 131.685 159.378 130.965 159.378C130.245 159.378 129.639 159.636 129.147 160.152C128.667 160.656 128.427 161.382 128.427 162.33C128.427 163.278 128.661 164.01 129.129 164.526C129.609 165.03 130.209 165.282 130.929 165.282ZM143.506 157.2C144.694 157.2 145.654 157.578 146.386 158.334C147.118 159.078 147.484 160.122 147.484 161.466V167.316H144.964V161.808C144.964 161.016 144.766 160.41 144.37 159.99C143.974 159.558 143.434 159.342 142.75 159.342C142.054 159.342 141.502 159.558 141.094 159.99C140.698 160.41 140.5 161.016 140.5 161.808V167.316H137.98V157.344H140.5V158.586C140.836 158.154 141.262 157.818 141.778 157.578C142.306 157.326 142.882 157.2 143.506 157.2ZM149.232 162.294C149.232 161.286 149.43 160.392 149.826 159.612C150.234 158.832 150.78 158.232 151.464 157.812C152.16 157.392 152.934 157.182 153.786 157.182C154.53 157.182 155.178 157.332 155.73 157.632C156.294 157.932 156.744 158.31 157.08 158.766V157.344H159.618V167.316H157.08V165.858C156.756 166.326 156.306 166.716 155.73 167.028C155.166 167.328 154.512 167.478 153.768 167.478C152.928 167.478 152.16 167.262 151.464 166.83C150.78 166.398 150.234 165.792 149.826 165.012C149.43 164.22 149.232 163.314 149.232 162.294ZM157.08 162.33C157.08 161.718 156.96 161.196 156.72 160.764C156.48 160.32 156.156 159.984 155.748 159.756C155.34 159.516 154.902 159.396 154.434 159.396C153.966 159.396 153.534 159.51 153.138 159.738C152.742 159.966 152.418 160.302 152.166 160.746C151.926 161.178 151.806 161.694 151.806 162.294C151.806 162.894 151.926 163.422 152.166 163.878C152.418 164.322 152.742 164.664 153.138 164.904C153.546 165.144 153.978 165.264 154.434 165.264C154.902 165.264 155.34 165.15 155.748 164.922C156.156 164.682 156.48 164.346 156.72 163.914C156.96 163.47 157.08 162.942 157.08 162.33ZM164.599 153.996V167.316H162.079V153.996H164.599ZM173.898 156.786V159.936H178.128V161.934H173.898V165.264H178.668V167.316H171.378V154.734H178.668V156.786H173.898ZM186.466 167.316L184.414 164.22L182.596 167.316H179.896L183.154 162.312L179.86 157.344H182.704L184.738 160.422L186.574 157.344H189.274L185.998 162.312L189.31 167.316H186.466ZM193.199 158.784C193.523 158.328 193.967 157.95 194.531 157.65C195.107 157.338 195.761 157.182 196.493 157.182C197.345 157.182 198.113 157.392 198.797 157.812C199.493 158.232 200.039 158.832 200.435 159.612C200.843 160.38 201.047 161.274 201.047 162.294C201.047 163.314 200.843 164.22 200.435 165.012C200.039 165.792 199.493 166.398 198.797 166.83C198.113 167.262 197.345 167.478 196.493 167.478C195.761 167.478 195.113 167.328 194.549 167.028C193.997 166.728 193.547 166.35 193.199 165.894V172.068H190.679V157.344H193.199V158.784ZM198.473 162.294C198.473 161.694 198.347 161.178 198.095 160.746C197.855 160.302 197.531 159.966 197.123 159.738C196.727 159.51 196.295 159.396 195.827 159.396C195.371 159.396 194.939 159.516 194.531 159.756C194.135 159.984 193.811 160.32 193.559 160.764C193.319 161.208 193.199 161.73 193.199 162.33C193.199 162.93 193.319 163.452 193.559 163.896C193.811 164.34 194.135 164.682 194.531 164.922C194.939 165.15 195.371 165.264 195.827 165.264C196.295 165.264 196.727 165.144 197.123 164.904C197.531 164.664 197.855 164.322 198.095 163.878C198.347 163.434 198.473 162.906 198.473 162.294ZM212.148 162.114C212.148 162.474 212.124 162.798 212.076 163.086H204.786C204.846 163.806 205.098 164.37 205.542 164.778C205.986 165.186 206.532 165.39 207.18 165.39C208.116 165.39 208.782 164.988 209.178 164.184H211.896C211.608 165.144 211.056 165.936 210.24 166.56C209.424 167.172 208.422 167.478 207.234 167.478C206.274 167.478 205.41 167.268 204.642 166.848C203.886 166.416 203.292 165.81 202.86 165.03C202.44 164.25 202.23 163.35 202.23 162.33C202.23 161.298 202.44 160.392 202.86 159.612C203.28 158.832 203.868 158.232 204.624 157.812C205.38 157.392 206.25 157.182 207.234 157.182C208.182 157.182 209.028 157.386 209.772 157.794C210.528 158.202 211.11 158.784 211.518 159.54C211.938 160.284 212.148 161.142 212.148 162.114ZM209.538 161.394C209.526 160.746 209.292 160.23 208.836 159.846C208.38 159.45 207.822 159.252 207.162 159.252C206.538 159.252 206.01 159.444 205.578 159.828C205.158 160.2 204.9 160.722 204.804 161.394H209.538ZM216.507 158.892C216.831 158.364 217.251 157.95 217.767 157.65C218.295 157.35 218.895 157.2 219.567 157.2V159.846H218.901C218.109 159.846 217.509 160.032 217.101 160.404C216.705 160.776 216.507 161.424 216.507 162.348V167.316H213.987V157.344H216.507V158.892ZM224.199 159.414V164.238C224.199 164.574 224.277 164.82 224.433 164.976C224.601 165.12 224.877 165.192 225.261 165.192H226.431V167.316H224.847C222.723 167.316 221.661 166.284 221.661 164.22V159.414H220.473V157.344H221.661V154.878H224.199V157.344H226.431V159.414H224.199ZM61.7642 188.016C61.7642 186.78 62.0402 185.676 62.5922 184.704C63.1562 183.72 63.9182 182.958 64.8782 182.418C65.8502 181.866 66.9362 181.59 68.1362 181.59C69.5402 181.59 70.7702 181.95 71.8262 182.67C72.8822 183.39 73.6202 184.386 74.0402 185.658H71.1422C70.8542 185.058 70.4462 184.608 69.9182 184.308C69.4022 184.008 68.8022 183.858 68.1182 183.858C67.3862 183.858 66.7322 184.032 66.1562 184.38C65.5922 184.716 65.1482 185.196 64.8242 185.82C64.5122 186.444 64.3562 187.176 64.3562 188.016C64.3562 188.844 64.5122 189.576 64.8242 190.212C65.1482 190.836 65.5922 191.322 66.1562 191.67C66.7322 192.006 67.3862 192.174 68.1182 192.174C68.8022 192.174 69.4022 192.024 69.9182 191.724C70.4462 191.412 70.8542 190.956 71.1422 190.356H74.0402C73.6202 191.64 72.8822 192.642 71.8262 193.362C70.7822 194.07 69.5522 194.424 68.1362 194.424C66.9362 194.424 65.8502 194.154 64.8782 193.614C63.9182 193.062 63.1562 192.3 62.5922 191.328C62.0402 190.356 61.7642 189.252 61.7642 188.016ZM75.5446 189.294C75.5446 188.286 75.7426 187.392 76.1386 186.612C76.5466 185.832 77.0926 185.232 77.7766 184.812C78.4726 184.392 79.2466 184.182 80.0986 184.182C80.8426 184.182 81.4906 184.332 82.0426 184.632C82.6066 184.932 83.0566 185.31 83.3926 185.766V184.344H85.9306V194.316H83.3926V192.858C83.0686 193.326 82.6186 193.716 82.0426 194.028C81.4786 194.328 80.8246 194.478 80.0806 194.478C79.2406 194.478 78.4726 194.262 77.7766 193.83C77.0926 193.398 76.5466 192.792 76.1386 192.012C75.7426 191.22 75.5446 190.314 75.5446 189.294ZM83.3926 189.33C83.3926 188.718 83.2726 188.196 83.0326 187.764C82.7926 187.32 82.4686 186.984 82.0606 186.756C81.6526 186.516 81.2146 186.396 80.7466 186.396C80.2786 186.396 79.8466 186.51 79.4506 186.738C79.0546 186.966 78.7306 187.302 78.4786 187.746C78.2386 188.178 78.1186 188.694 78.1186 189.294C78.1186 189.894 78.2386 190.422 78.4786 190.878C78.7306 191.322 79.0546 191.664 79.4506 191.904C79.8586 192.144 80.2906 192.264 80.7466 192.264C81.2146 192.264 81.6526 192.15 82.0606 191.922C82.4686 191.682 82.7926 191.346 83.0326 190.914C83.2726 190.47 83.3926 189.942 83.3926 189.33ZM90.9118 185.892C91.2358 185.364 91.6558 184.95 92.1718 184.65C92.6998 184.35 93.2998 184.2 93.9718 184.2V186.846H93.3058C92.5138 186.846 91.9138 187.032 91.5058 187.404C91.1098 187.776 90.9118 188.424 90.9118 189.348V194.316H88.3918V184.344H90.9118V185.892ZM104.939 189.114C104.939 189.474 104.915 189.798 104.867 190.086H97.5771C97.6371 190.806 97.8891 191.37 98.3331 191.778C98.7771 192.186 99.3231 192.39 99.9711 192.39C100.907 192.39 101.573 191.988 101.969 191.184H104.687C104.399 192.144 103.847 192.936 103.031 193.56C102.215 194.172 101.213 194.478 100.025 194.478C99.0651 194.478 98.2011 194.268 97.4331 193.848C96.6771 193.416 96.0831 192.81 95.6511 192.03C95.2311 191.25 95.0211 190.35 95.0211 189.33C95.0211 188.298 95.2311 187.392 95.6511 186.612C96.0711 185.832 96.6591 185.232 97.4151 184.812C98.1711 184.392 99.0411 184.182 100.025 184.182C100.973 184.182 101.819 184.386 102.563 184.794C103.319 185.202 103.901 185.784 104.309 186.54C104.729 187.284 104.939 188.142 104.939 189.114ZM102.329 188.394C102.317 187.746 102.083 187.23 101.627 186.846C101.171 186.45 100.613 186.252 99.9531 186.252C99.3291 186.252 98.8011 186.444 98.3691 186.828C97.9491 187.2 97.6911 187.722 97.5951 188.394H102.329ZM116.048 189.114C116.048 189.474 116.024 189.798 115.976 190.086H108.686C108.746 190.806 108.998 191.37 109.442 191.778C109.886 192.186 110.432 192.39 111.08 192.39C112.016 192.39 112.682 191.988 113.078 191.184H115.796C115.508 192.144 114.956 192.936 114.14 193.56C113.324 194.172 112.322 194.478 111.134 194.478C110.174 194.478 109.31 194.268 108.542 193.848C107.786 193.416 107.192 192.81 106.76 192.03C106.34 191.25 106.13 190.35 106.13 189.33C106.13 188.298 106.34 187.392 106.76 186.612C107.18 185.832 107.768 185.232 108.524 184.812C109.28 184.392 110.15 184.182 111.134 184.182C112.082 184.182 112.928 184.386 113.672 184.794C114.428 185.202 115.01 185.784 115.418 186.54C115.838 187.284 116.048 188.142 116.048 189.114ZM113.438 188.394C113.426 187.746 113.192 187.23 112.736 186.846C112.28 186.45 111.722 186.252 111.062 186.252C110.438 186.252 109.91 186.444 109.478 186.828C109.058 187.2 108.8 187.722 108.704 188.394H113.438ZM120.408 185.892C120.732 185.364 121.152 184.95 121.668 184.65C122.196 184.35 122.796 184.2 123.468 184.2V186.846H122.802C122.01 186.846 121.41 187.032 121.002 187.404C120.606 187.776 120.408 188.424 120.408 189.348V194.316H117.888V184.344H120.408V185.892ZM128.842 188.016C128.842 186.78 129.118 185.676 129.67 184.704C130.234 183.72 130.996 182.958 131.956 182.418C132.928 181.866 134.014 181.59 135.214 181.59C136.618 181.59 137.848 181.95 138.904 182.67C139.96 183.39 140.698 184.386 141.118 185.658H138.22C137.932 185.058 137.524 184.608 136.996 184.308C136.48 184.008 135.88 183.858 135.196 183.858C134.464 183.858 133.81 184.032 133.234 184.38C132.67 184.716 132.226 185.196 131.902 185.82C131.59 186.444 131.434 187.176 131.434 188.016C131.434 188.844 131.59 189.576 131.902 190.212C132.226 190.836 132.67 191.322 133.234 191.67C133.81 192.006 134.464 192.174 135.196 192.174C135.88 192.174 136.48 192.024 136.996 191.724C137.524 191.412 137.932 190.956 138.22 190.356H141.118C140.698 191.64 139.96 192.642 138.904 193.362C137.86 194.07 136.63 194.424 135.214 194.424C134.014 194.424 132.928 194.154 131.956 193.614C130.996 193.062 130.234 192.3 129.67 191.328C129.118 190.356 128.842 189.252 128.842 188.016ZM147.699 194.478C146.739 194.478 145.875 194.268 145.107 193.848C144.339 193.416 143.733 192.81 143.289 192.03C142.857 191.25 142.641 190.35 142.641 189.33C142.641 188.31 142.863 187.41 143.307 186.63C143.763 185.85 144.381 185.25 145.161 184.83C145.941 184.398 146.811 184.182 147.771 184.182C148.731 184.182 149.601 184.398 150.381 184.83C151.161 185.25 151.773 185.85 152.217 186.63C152.673 187.41 152.901 188.31 152.901 189.33C152.901 190.35 152.667 191.25 152.199 192.03C151.743 192.81 151.119 193.416 150.327 193.848C149.547 194.268 148.671 194.478 147.699 194.478ZM147.699 192.282C148.155 192.282 148.581 192.174 148.977 191.958C149.385 191.73 149.709 191.394 149.949 190.95C150.189 190.506 150.309 189.966 150.309 189.33C150.309 188.382 150.057 187.656 149.553 187.152C149.061 186.636 148.455 186.378 147.735 186.378C147.015 186.378 146.409 186.636 145.917 187.152C145.437 187.656 145.197 188.382 145.197 189.33C145.197 190.278 145.431 191.01 145.899 191.526C146.379 192.03 146.979 192.282 147.699 192.282ZM164.163 184.344V194.316H161.625V193.056C161.301 193.488 160.875 193.83 160.347 194.082C159.831 194.322 159.267 194.442 158.655 194.442C157.875 194.442 157.185 194.28 156.585 193.956C155.985 193.62 155.511 193.134 155.163 192.498C154.827 191.85 154.659 191.082 154.659 190.194V184.344H157.179V189.834C157.179 190.626 157.377 191.238 157.773 191.67C158.169 192.09 158.709 192.3 159.393 192.3C160.089 192.3 160.635 192.09 161.031 191.67C161.427 191.238 161.625 190.626 161.625 189.834V184.344H164.163ZM172.176 184.2C173.364 184.2 174.324 184.578 175.056 185.334C175.788 186.078 176.154 187.122 176.154 188.466V194.316H173.634V188.808C173.634 188.016 173.436 187.41 173.04 186.99C172.644 186.558 172.104 186.342 171.42 186.342C170.724 186.342 170.172 186.558 169.764 186.99C169.368 187.41 169.17 188.016 169.17 188.808V194.316H166.65V184.344H169.17V185.586C169.506 185.154 169.932 184.818 170.448 184.578C170.976 184.326 171.552 184.2 172.176 184.2ZM182.366 194.478C181.55 194.478 180.818 194.334 180.17 194.046C179.522 193.746 179.006 193.344 178.622 192.84C178.25 192.336 178.046 191.778 178.01 191.166H180.548C180.596 191.55 180.782 191.868 181.106 192.12C181.442 192.372 181.856 192.498 182.348 192.498C182.828 192.498 183.2 192.402 183.464 192.21C183.74 192.018 183.878 191.772 183.878 191.472C183.878 191.148 183.71 190.908 183.374 190.752C183.05 190.584 182.528 190.404 181.808 190.212C181.064 190.032 180.452 189.846 179.972 189.654C179.504 189.462 179.096 189.168 178.748 188.772C178.412 188.376 178.244 187.842 178.244 187.17C178.244 186.618 178.4 186.114 178.712 185.658C179.036 185.202 179.492 184.842 180.08 184.578C180.68 184.314 181.382 184.182 182.186 184.182C183.374 184.182 184.322 184.482 185.03 185.082C185.738 185.67 186.128 186.468 186.2 187.476H183.788C183.752 187.08 183.584 186.768 183.284 186.54C182.996 186.3 182.606 186.18 182.114 186.18C181.658 186.18 181.304 186.264 181.052 186.432C180.812 186.6 180.692 186.834 180.692 187.134C180.692 187.47 180.86 187.728 181.196 187.908C181.532 188.076 182.054 188.25 182.762 188.43C183.482 188.61 184.076 188.796 184.544 188.988C185.012 189.18 185.414 189.48 185.75 189.888C186.098 190.284 186.278 190.812 186.29 191.472C186.29 192.048 186.128 192.564 185.804 193.02C185.492 193.476 185.036 193.836 184.436 194.1C183.848 194.352 183.158 194.478 182.366 194.478ZM197.629 189.114C197.629 189.474 197.605 189.798 197.557 190.086H190.267C190.327 190.806 190.579 191.37 191.023 191.778C191.467 192.186 192.013 192.39 192.661 192.39C193.597 192.39 194.263 191.988 194.659 191.184H197.377C197.089 192.144 196.537 192.936 195.721 193.56C194.905 194.172 193.903 194.478 192.715 194.478C191.755 194.478 190.891 194.268 190.123 193.848C189.367 193.416 188.773 192.81 188.341 192.03C187.921 191.25 187.711 190.35 187.711 189.33C187.711 188.298 187.921 187.392 188.341 186.612C188.761 185.832 189.349 185.232 190.105 184.812C190.861 184.392 191.731 184.182 192.715 184.182C193.663 184.182 194.509 184.386 195.253 184.794C196.009 185.202 196.591 185.784 196.999 186.54C197.419 187.284 197.629 188.142 197.629 189.114ZM195.019 188.394C195.007 187.746 194.773 187.23 194.317 186.846C193.861 186.45 193.303 186.252 192.643 186.252C192.019 186.252 191.491 186.444 191.059 186.828C190.639 187.2 190.381 187.722 190.285 188.394H195.019ZM201.988 180.996V194.316H199.468V180.996H201.988ZM206.998 180.996V194.316H204.478V180.996H206.998ZM213.915 194.478C212.955 194.478 212.091 194.268 211.323 193.848C210.555 193.416 209.949 192.81 209.505 192.03C209.073 191.25 208.857 190.35 208.857 189.33C208.857 188.31 209.079 187.41 209.523 186.63C209.979 185.85 210.597 185.25 211.377 184.83C212.157 184.398 213.027 184.182 213.987 184.182C214.947 184.182 215.817 184.398 216.597 184.83C217.377 185.25 217.989 185.85 218.433 186.63C218.889 187.41 219.117 188.31 219.117 189.33C219.117 190.35 218.883 191.25 218.415 192.03C217.959 192.81 217.335 193.416 216.543 193.848C215.763 194.268 214.887 194.478 213.915 194.478ZM213.915 192.282C214.371 192.282 214.797 192.174 215.193 191.958C215.601 191.73 215.925 191.394 216.165 190.95C216.405 190.506 216.525 189.966 216.525 189.33C216.525 188.382 216.273 187.656 215.769 187.152C215.277 186.636 214.671 186.378 213.951 186.378C213.231 186.378 212.625 186.636 212.133 187.152C211.653 187.656 211.413 188.382 211.413 189.33C211.413 190.278 211.647 191.01 212.115 191.526C212.595 192.03 213.195 192.282 213.915 192.282ZM223.486 185.892C223.81 185.364 224.23 184.95 224.746 184.65C225.274 184.35 225.874 184.2 226.546 184.2V186.846H225.88C225.088 186.846 224.488 187.032 224.08 187.404C223.684 187.776 223.486 188.424 223.486 189.348V194.316H220.966V184.344H223.486V185.892Z" fill="black"/>
<circle cx="39.1661" cy="37.8523" r="35.46" fill="#9747FF"/>
<path d="M127.964 66.3405C126.26 66.3405 124.72 66.0488 123.344 65.4655C121.99 64.8821 120.917 64.0421 120.124 62.9455C119.33 61.8488 118.922 60.5538 118.899 59.0605H124.149C124.219 60.0638 124.569 60.8571 125.199 61.4405C125.852 62.0238 126.739 62.3155 127.859 62.3155C129.002 62.3155 129.9 62.0471 130.554 61.5105C131.207 60.9505 131.534 60.2271 131.534 59.3405C131.534 58.6171 131.312 58.0221 130.869 57.5555C130.425 57.0888 129.865 56.7271 129.189 56.4705C128.535 56.1905 127.625 55.8871 126.459 55.5605C124.872 55.0938 123.577 54.6388 122.574 54.1955C121.594 53.7288 120.742 53.0405 120.019 52.1305C119.319 51.1971 118.969 49.9605 118.969 48.4205C118.969 46.9738 119.33 45.7138 120.054 44.6405C120.777 43.5671 121.792 42.7505 123.099 42.1905C124.405 41.6071 125.899 41.3155 127.579 41.3155C130.099 41.3155 132.14 41.9338 133.704 43.1705C135.29 44.3838 136.165 46.0871 136.329 48.2805H130.939C130.892 47.4405 130.53 46.7521 129.854 46.2155C129.2 45.6555 128.325 45.3755 127.229 45.3755C126.272 45.3755 125.502 45.6205 124.919 46.1105C124.359 46.6005 124.079 47.3121 124.079 48.2455C124.079 48.8988 124.289 49.4471 124.709 49.8905C125.152 50.3105 125.689 50.6605 126.319 50.9405C126.972 51.1971 127.882 51.5005 129.049 51.8505C130.635 52.3171 131.93 52.7838 132.934 53.2505C133.937 53.7171 134.8 54.4171 135.524 55.3505C136.247 56.2838 136.609 57.5088 136.609 59.0255C136.609 60.3321 136.27 61.5455 135.594 62.6655C134.917 63.7855 133.925 64.6838 132.619 65.3605C131.312 66.0138 129.76 66.3405 127.964 66.3405ZM157.482 41.6655V45.6205H150.972V66.0955H146.072V45.6205H139.562V41.6655H157.482ZM165.957 45.6205V51.7455H174.182V55.6305H165.957V62.1055H175.232V66.0955H161.057V41.6305H175.232V45.6205H165.957ZM197.5 49.2255C197.5 50.5321 197.185 51.7571 196.555 52.9005C195.948 54.0438 194.98 54.9655 193.65 55.6655C192.343 56.3655 190.687 56.7155 188.68 56.7155H184.585V66.0955H179.685V41.6655H188.68C190.57 41.6655 192.18 41.9921 193.51 42.6455C194.84 43.2988 195.832 44.1971 196.485 45.3405C197.162 46.4838 197.5 47.7788 197.5 49.2255ZM188.47 52.7605C189.823 52.7605 190.827 52.4571 191.48 51.8505C192.133 51.2205 192.46 50.3455 192.46 49.2255C192.46 46.8455 191.13 45.6555 188.47 45.6555H184.585V52.7605H188.47ZM210.299 60.5655C212.539 58.6988 214.324 57.1471 215.654 55.9105C216.984 54.6505 218.092 53.3438 218.979 51.9905C219.865 50.6371 220.309 49.3071 220.309 48.0005C220.309 46.8105 220.029 45.8771 219.469 45.2005C218.909 44.5238 218.045 44.1855 216.879 44.1855C215.712 44.1855 214.814 44.5821 214.184 45.3755C213.554 46.1455 213.227 47.2071 213.204 48.5605H208.444C208.537 45.7605 209.365 43.6371 210.929 42.1905C212.515 40.7438 214.522 40.0205 216.949 40.0205C219.609 40.0205 221.65 40.7321 223.074 42.1555C224.497 43.5555 225.209 45.4105 225.209 47.7205C225.209 49.5405 224.719 51.2788 223.739 52.9355C222.759 54.5921 221.639 56.0388 220.379 57.2755C219.119 58.4888 217.474 59.9588 215.444 61.6855H225.769V65.7455H208.479V62.1055L210.299 60.5655Z" fill="black"/>
<path d="M224.335 96.8265C224.335 98.2993 225.529 99.4932 227.001 99.4932C228.474 99.4932 229.668 98.2993 229.668 96.8265C229.668 95.3538 228.474 94.1599 227.001 94.1599C225.529 94.1599 224.335 95.3538 224.335 96.8265ZM112.591 97.3265H227.001V96.3265H112.591V97.3265Z" fill="#9747FF"/>
<defs>
<filter id="filter0_d_1_2538" x="0.459961" y="0.5" width="268.465" height="248.631" filterUnits="userSpaceOnUse" color-interpolation-filters="sRGB">
<feFlood flood-opacity="0" result="BackgroundImageFix"/>
<feColorMatrix in="SourceAlpha" type="matrix" values="0 0 0 0 0 0 0 0 0 0 0 0 0 0 0 0 0 0 127 0" result="hardAlpha"/>
<feOffset dy="4"/>
<feGaussianBlur stdDeviation="8.5"/>
<feComposite in2="hardAlpha" operator="out"/>
<feColorMatrix type="matrix" values="0 0 0 0 0.880688 0 0 0 0 0.880688 0 0 0 0 0.880688 0 0 0 0.25 0"/>
<feBlend mode="normal" in2="BackgroundImageFix" result="effect1_dropShadow_1_2538"/>
<feBlend mode="normal" in="SourceGraphic" in2="effect1_dropShadow_1_2538" result="shape"/>
</filter>
</defs>
</svg>
