<svg width="269" height="250" viewBox="0 0 269 250" fill="none" xmlns="http://www.w3.org/2000/svg">
<g filter="url(#filter0_d_1_2532)">
<path d="M46.6726 94.4849C73.797 94.4849 95.7856 72.4963 95.7856 45.3719C95.7856 40.9249 95.1946 36.6159 94.0868 32.5193C91.859 24.2809 97.1923 13.5 105.727 13.5H231.706C242.752 13.5 251.706 22.4543 251.706 33.5V208.131C251.706 219.177 242.752 228.131 231.706 228.131H37.2407C26.195 228.131 17.2407 219.177 17.2407 208.131V104.688C17.2407 96.4486 27.1968 91.2244 35.2106 93.1402C38.8879 94.0194 42.7259 94.4849 46.6726 94.4849Z" fill="white"/>
<path d="M46.6726 94.9849C74.0731 94.9849 96.2856 72.7724 96.2856 45.3719C96.2856 40.8804 95.6887 36.5276 94.5695 32.3888C93.4936 28.4104 94.2419 23.7907 96.3054 20.1677C98.3679 16.5465 101.692 14 105.727 14H231.706C242.476 14 251.206 22.7304 251.206 33.5V208.131C251.206 218.901 242.476 227.631 231.706 227.631H37.2407C26.4711 227.631 17.7407 218.901 17.7407 208.131V104.688C17.7407 100.79 20.0931 97.5674 23.4779 95.5345C26.8657 93.4998 31.2249 92.7015 35.0943 93.6265C38.8094 94.5147 42.6864 94.9849 46.6726 94.9849Z" stroke="#F2F2F2"/>
</g>
<path d="M61.953 127.752V129.786H58.605V140.316H56.085V129.786H52.737V127.752H61.953ZM63.1437 135.294C63.1437 134.286 63.3417 133.392 63.7377 132.612C64.1457 131.832 64.6917 131.232 65.3757 130.812C66.0717 130.392 66.8457 130.182 67.6977 130.182C68.4417 130.182 69.0897 130.332 69.6417 130.632C70.2057 130.932 70.6557 131.31 70.9917 131.766V130.344H73.5297V140.316H70.9917V138.858C70.6677 139.326 70.2177 139.716 69.6417 140.028C69.0777 140.328 68.4237 140.478 67.6797 140.478C66.8397 140.478 66.0717 140.262 65.3757 139.83C64.6917 139.398 64.1457 138.792 63.7377 138.012C63.3417 137.22 63.1437 136.314 63.1437 135.294ZM70.9917 135.33C70.9917 134.718 70.8717 134.196 70.6317 133.764C70.3917 133.32 70.0677 132.984 69.6597 132.756C69.2517 132.516 68.8137 132.396 68.3457 132.396C67.8777 132.396 67.4457 132.51 67.0497 132.738C66.6537 132.966 66.3297 133.302 66.0777 133.746C65.8377 134.178 65.7177 134.694 65.7177 135.294C65.7177 135.894 65.8377 136.422 66.0777 136.878C66.3297 137.322 66.6537 137.664 67.0497 137.904C67.4577 138.144 67.8897 138.264 68.3457 138.264C68.8137 138.264 69.2517 138.15 69.6597 137.922C70.0677 137.682 70.3917 137.346 70.6317 136.914C70.8717 136.47 70.9917 135.942 70.9917 135.33ZM81.8949 140.316L78.5109 136.068V140.316H75.9909V126.996H78.5109V134.574L81.8589 130.344H85.1349L80.7429 135.348L85.1709 140.316H81.8949ZM95.7726 135.114C95.7726 135.474 95.7486 135.798 95.7006 136.086H88.4106C88.4706 136.806 88.7226 137.37 89.1666 137.778C89.6106 138.186 90.1566 138.39 90.8046 138.39C91.7406 138.39 92.4066 137.988 92.8026 137.184H95.5206C95.2326 138.144 94.6806 138.936 93.8646 139.56C93.0486 140.172 92.0466 140.478 90.8586 140.478C89.8986 140.478 89.0346 140.268 88.2666 139.848C87.5106 139.416 86.9166 138.81 86.4846 138.03C86.0646 137.25 85.8546 136.35 85.8546 135.33C85.8546 134.298 86.0646 133.392 86.4846 132.612C86.9046 131.832 87.4926 131.232 88.2486 130.812C89.0046 130.392 89.8746 130.182 90.8586 130.182C91.8066 130.182 92.6526 130.386 93.3966 130.794C94.1526 131.202 94.7346 131.784 95.1426 132.54C95.5626 133.284 95.7726 134.142 95.7726 135.114ZM93.1626 134.394C93.1506 133.746 92.9166 133.23 92.4606 132.846C92.0046 132.45 91.4466 132.252 90.7866 132.252C90.1626 132.252 89.6346 132.444 89.2026 132.828C88.7826 133.2 88.5246 133.722 88.4286 134.394H93.1626ZM111.891 127.752L107.643 135.942V140.316H105.123V135.942L100.857 127.752H103.701L106.401 133.494L109.083 127.752H111.891ZM117.772 140.478C116.812 140.478 115.948 140.268 115.18 139.848C114.412 139.416 113.806 138.81 113.362 138.03C112.93 137.25 112.714 136.35 112.714 135.33C112.714 134.31 112.936 133.41 113.38 132.63C113.836 131.85 114.454 131.25 115.234 130.83C116.014 130.398 116.884 130.182 117.844 130.182C118.804 130.182 119.674 130.398 120.454 130.83C121.234 131.25 121.846 131.85 122.29 132.63C122.746 133.41 122.974 134.31 122.974 135.33C122.974 136.35 122.74 137.25 122.272 138.03C121.816 138.81 121.192 139.416 120.4 139.848C119.62 140.268 118.744 140.478 117.772 140.478ZM117.772 138.282C118.228 138.282 118.654 138.174 119.05 137.958C119.458 137.73 119.782 137.394 120.022 136.95C120.262 136.506 120.382 135.966 120.382 135.33C120.382 134.382 120.13 133.656 119.626 133.152C119.134 132.636 118.528 132.378 117.808 132.378C117.088 132.378 116.482 132.636 115.99 133.152C115.51 133.656 115.27 134.382 115.27 135.33C115.27 136.278 115.504 137.01 115.972 137.526C116.452 138.03 117.052 138.282 117.772 138.282ZM134.237 130.344V140.316H131.699V139.056C131.375 139.488 130.949 139.83 130.421 140.082C129.905 140.322 129.341 140.442 128.729 140.442C127.949 140.442 127.259 140.28 126.659 139.956C126.059 139.62 125.585 139.134 125.237 138.498C124.901 137.85 124.733 137.082 124.733 136.194V130.344H127.253V135.834C127.253 136.626 127.451 137.238 127.847 137.67C128.243 138.09 128.783 138.3 129.467 138.3C130.163 138.3 130.709 138.09 131.105 137.67C131.501 137.238 131.699 136.626 131.699 135.834V130.344H134.237ZM139.243 131.892C139.567 131.364 139.987 130.95 140.503 130.65C141.031 130.35 141.631 130.2 142.303 130.2V132.846H141.637C140.845 132.846 140.245 133.032 139.837 133.404C139.441 133.776 139.243 134.424 139.243 135.348V140.316H136.723V130.344H139.243V131.892ZM157.452 131.64C157.452 132.312 157.29 132.942 156.966 133.53C156.654 134.118 156.156 134.592 155.472 134.952C154.8 135.312 153.948 135.492 152.916 135.492H150.81V140.316H148.29V127.752H152.916C153.888 127.752 154.716 127.92 155.4 128.256C156.084 128.592 156.594 129.054 156.93 129.642C157.278 130.23 157.452 130.896 157.452 131.64ZM152.808 133.458C153.504 133.458 154.02 133.302 154.356 132.99C154.692 132.666 154.86 132.216 154.86 131.64C154.86 130.416 154.176 129.804 152.808 129.804H150.81V133.458H152.808ZM168.511 135.114C168.511 135.474 168.487 135.798 168.439 136.086H161.149C161.209 136.806 161.461 137.37 161.905 137.778C162.349 138.186 162.895 138.39 163.543 138.39C164.479 138.39 165.145 137.988 165.541 137.184H168.259C167.971 138.144 167.419 138.936 166.603 139.56C165.787 140.172 164.785 140.478 163.597 140.478C162.637 140.478 161.773 140.268 161.005 139.848C160.249 139.416 159.655 138.81 159.223 138.03C158.803 137.25 158.593 136.35 158.593 135.33C158.593 134.298 158.803 133.392 159.223 132.612C159.643 131.832 160.231 131.232 160.987 130.812C161.743 130.392 162.613 130.182 163.597 130.182C164.545 130.182 165.391 130.386 166.135 130.794C166.891 131.202 167.473 131.784 167.881 132.54C168.301 133.284 168.511 134.142 168.511 135.114ZM165.901 134.394C165.889 133.746 165.655 133.23 165.199 132.846C164.743 132.45 164.185 132.252 163.525 132.252C162.901 132.252 162.373 132.444 161.941 132.828C161.521 133.2 161.263 133.722 161.167 134.394H165.901ZM172.87 131.892C173.194 131.364 173.614 130.95 174.13 130.65C174.658 130.35 175.258 130.2 175.93 130.2V132.846H175.264C174.472 132.846 173.872 133.032 173.464 133.404C173.068 133.776 172.87 134.424 172.87 135.348V140.316H170.35V130.344H172.87V131.892ZM181.444 140.478C180.628 140.478 179.896 140.334 179.248 140.046C178.6 139.746 178.084 139.344 177.7 138.84C177.328 138.336 177.124 137.778 177.088 137.166H179.626C179.674 137.55 179.86 137.868 180.184 138.12C180.52 138.372 180.934 138.498 181.426 138.498C181.906 138.498 182.278 138.402 182.542 138.21C182.818 138.018 182.956 137.772 182.956 137.472C182.956 137.148 182.788 136.908 182.452 136.752C182.128 136.584 181.606 136.404 180.886 136.212C180.142 136.032 179.53 135.846 179.05 135.654C178.582 135.462 178.174 135.168 177.826 134.772C177.49 134.376 177.322 133.842 177.322 133.17C177.322 132.618 177.478 132.114 177.79 131.658C178.114 131.202 178.57 130.842 179.158 130.578C179.758 130.314 180.46 130.182 181.264 130.182C182.452 130.182 183.4 130.482 184.108 131.082C184.816 131.67 185.206 132.468 185.278 133.476H182.866C182.83 133.08 182.662 132.768 182.362 132.54C182.074 132.3 181.684 132.18 181.192 132.18C180.736 132.18 180.382 132.264 180.13 132.432C179.89 132.6 179.77 132.834 179.77 133.134C179.77 133.47 179.938 133.728 180.274 133.908C180.61 134.076 181.132 134.25 181.84 134.43C182.56 134.61 183.154 134.796 183.622 134.988C184.09 135.18 184.492 135.48 184.828 135.888C185.176 136.284 185.356 136.812 185.368 137.472C185.368 138.048 185.206 138.564 184.882 139.02C184.57 139.476 184.114 139.836 183.514 140.1C182.926 140.352 182.236 140.478 181.444 140.478ZM191.864 140.478C190.904 140.478 190.04 140.268 189.272 139.848C188.504 139.416 187.898 138.81 187.454 138.03C187.022 137.25 186.806 136.35 186.806 135.33C186.806 134.31 187.028 133.41 187.472 132.63C187.928 131.85 188.546 131.25 189.326 130.83C190.106 130.398 190.976 130.182 191.936 130.182C192.896 130.182 193.766 130.398 194.546 130.83C195.326 131.25 195.938 131.85 196.382 132.63C196.838 133.41 197.066 134.31 197.066 135.33C197.066 136.35 196.832 137.25 196.364 138.03C195.908 138.81 195.284 139.416 194.492 139.848C193.712 140.268 192.836 140.478 191.864 140.478ZM191.864 138.282C192.32 138.282 192.746 138.174 193.142 137.958C193.55 137.73 193.874 137.394 194.114 136.95C194.354 136.506 194.474 135.966 194.474 135.33C194.474 134.382 194.222 133.656 193.718 133.152C193.226 132.636 192.62 132.378 191.9 132.378C191.18 132.378 190.574 132.636 190.082 133.152C189.602 133.656 189.362 134.382 189.362 135.33C189.362 136.278 189.596 137.01 190.064 137.526C190.544 138.03 191.144 138.282 191.864 138.282ZM204.441 130.2C205.629 130.2 206.589 130.578 207.321 131.334C208.053 132.078 208.419 133.122 208.419 134.466V140.316H205.899V134.808C205.899 134.016 205.701 133.41 205.305 132.99C204.909 132.558 204.369 132.342 203.685 132.342C202.989 132.342 202.437 132.558 202.029 132.99C201.633 133.41 201.435 134.016 201.435 134.808V140.316H198.915V130.344H201.435V131.586C201.771 131.154 202.197 130.818 202.713 130.578C203.241 130.326 203.817 130.2 204.441 130.2ZM210.167 135.294C210.167 134.286 210.365 133.392 210.761 132.612C211.169 131.832 211.715 131.232 212.399 130.812C213.095 130.392 213.869 130.182 214.721 130.182C215.465 130.182 216.113 130.332 216.665 130.632C217.229 130.932 217.679 131.31 218.015 131.766V130.344H220.553V140.316H218.015V138.858C217.691 139.326 217.241 139.716 216.665 140.028C216.101 140.328 215.447 140.478 214.703 140.478C213.863 140.478 213.095 140.262 212.399 139.83C211.715 139.398 211.169 138.792 210.761 138.012C210.365 137.22 210.167 136.314 210.167 135.294ZM218.015 135.33C218.015 134.718 217.895 134.196 217.655 133.764C217.415 133.32 217.091 132.984 216.683 132.756C216.275 132.516 215.837 132.396 215.369 132.396C214.901 132.396 214.469 132.51 214.073 132.738C213.677 132.966 213.353 133.302 213.101 133.746C212.861 134.178 212.741 134.694 212.741 135.294C212.741 135.894 212.861 136.422 213.101 136.878C213.353 137.322 213.677 137.664 214.073 137.904C214.481 138.144 214.913 138.264 215.369 138.264C215.837 138.264 216.275 138.15 216.683 137.922C217.091 137.682 217.415 137.346 217.655 136.914C217.895 136.47 218.015 135.942 218.015 135.33ZM225.534 126.996V140.316H223.014V126.996H225.534ZM44.1783 158.64C44.1783 159.312 44.0163 159.942 43.6923 160.53C43.3803 161.118 42.8823 161.592 42.1983 161.952C41.5263 162.312 40.6743 162.492 39.6423 162.492H37.5363V167.316H35.0163V154.752H39.6423C40.6143 154.752 41.4423 154.92 42.1263 155.256C42.8103 155.592 43.3203 156.054 43.6563 156.642C44.0043 157.23 44.1783 157.896 44.1783 158.64ZM39.5343 160.458C40.2303 160.458 40.7463 160.302 41.0823 159.99C41.4183 159.666 41.5863 159.216 41.5863 158.64C41.5863 157.416 40.9023 156.804 39.5343 156.804H37.5363V160.458H39.5343ZM49.7835 167.478C48.9675 167.478 48.2355 167.334 47.5875 167.046C46.9395 166.746 46.4235 166.344 46.0395 165.84C45.6675 165.336 45.4635 164.778 45.4275 164.166H47.9655C48.0135 164.55 48.1995 164.868 48.5235 165.12C48.8595 165.372 49.2735 165.498 49.7655 165.498C50.2455 165.498 50.6175 165.402 50.8815 165.21C51.1575 165.018 51.2955 164.772 51.2955 164.472C51.2955 164.148 51.1275 163.908 50.7915 163.752C50.4675 163.584 49.9455 163.404 49.2255 163.212C48.4815 163.032 47.8695 162.846 47.3895 162.654C46.9215 162.462 46.5135 162.168 46.1655 161.772C45.8295 161.376 45.6615 160.842 45.6615 160.17C45.6615 159.618 45.8175 159.114 46.1295 158.658C46.4535 158.202 46.9095 157.842 47.4975 157.578C48.0975 157.314 48.7995 157.182 49.6035 157.182C50.7915 157.182 51.7395 157.482 52.4475 158.082C53.1555 158.67 53.5455 159.468 53.6175 160.476H51.2055C51.1695 160.08 51.0015 159.768 50.7015 159.54C50.4135 159.3 50.0235 159.18 49.5315 159.18C49.0755 159.18 48.7215 159.264 48.4695 159.432C48.2295 159.6 48.1095 159.834 48.1095 160.134C48.1095 160.47 48.2775 160.728 48.6135 160.908C48.9495 161.076 49.4715 161.25 50.1795 161.43C50.8995 161.61 51.4935 161.796 51.9615 161.988C52.4295 162.18 52.8315 162.48 53.1675 162.888C53.5155 163.284 53.6955 163.812 53.7075 164.472C53.7075 165.048 53.5455 165.564 53.2215 166.02C52.9095 166.476 52.4535 166.836 51.8535 167.1C51.2655 167.352 50.5755 167.478 49.7835 167.478ZM65.3161 157.344L59.1421 172.032H56.4601L58.6201 167.064L54.6241 157.344H57.4501L60.0241 164.31L62.6341 157.344H65.3161ZM66.0265 162.33C66.0265 161.298 66.2365 160.398 66.6565 159.63C67.0765 158.85 67.6585 158.25 68.4025 157.83C69.1465 157.398 69.9985 157.182 70.9585 157.182C72.1945 157.182 73.2145 157.494 74.0185 158.118C74.8345 158.73 75.3805 159.594 75.6565 160.71H72.9385C72.7945 160.278 72.5485 159.942 72.2005 159.702C71.8645 159.45 71.4445 159.324 70.9405 159.324C70.2205 159.324 69.6505 159.588 69.2305 160.116C68.8105 160.632 68.6005 161.37 68.6005 162.33C68.6005 163.278 68.8105 164.016 69.2305 164.544C69.6505 165.06 70.2205 165.318 70.9405 165.318C71.9605 165.318 72.6265 164.862 72.9385 163.95H75.6565C75.3805 165.03 74.8345 165.888 74.0185 166.524C73.2025 167.16 72.1825 167.478 70.9585 167.478C69.9985 167.478 69.1465 167.268 68.4025 166.848C67.6585 166.416 67.0765 165.816 66.6565 165.048C66.2365 164.268 66.0265 163.362 66.0265 162.33ZM83.1186 157.2C83.8746 157.2 84.5466 157.368 85.1346 157.704C85.7226 158.028 86.1786 158.514 86.5026 159.162C86.8386 159.798 87.0066 160.566 87.0066 161.466V167.316H84.4866V161.808C84.4866 161.016 84.2886 160.41 83.8926 159.99C83.4966 159.558 82.9566 159.342 82.2726 159.342C81.5766 159.342 81.0246 159.558 80.6166 159.99C80.2206 160.41 80.0226 161.016 80.0226 161.808V167.316H77.5026V153.996H80.0226V158.586C80.3466 158.154 80.7786 157.818 81.3186 157.578C81.8586 157.326 82.4586 157.2 83.1186 157.2ZM93.831 167.478C92.871 167.478 92.007 167.268 91.239 166.848C90.471 166.416 89.865 165.81 89.421 165.03C88.989 164.25 88.773 163.35 88.773 162.33C88.773 161.31 88.995 160.41 89.439 159.63C89.895 158.85 90.513 158.25 91.293 157.83C92.073 157.398 92.943 157.182 93.903 157.182C94.863 157.182 95.733 157.398 96.513 157.83C97.293 158.25 97.905 158.85 98.349 159.63C98.805 160.41 99.033 161.31 99.033 162.33C99.033 163.35 98.799 164.25 98.331 165.03C97.875 165.81 97.251 166.416 96.459 166.848C95.679 167.268 94.803 167.478 93.831 167.478ZM93.831 165.282C94.287 165.282 94.713 165.174 95.109 164.958C95.517 164.73 95.841 164.394 96.081 163.95C96.321 163.506 96.441 162.966 96.441 162.33C96.441 161.382 96.189 160.656 95.685 160.152C95.193 159.636 94.587 159.378 93.867 159.378C93.147 159.378 92.541 159.636 92.049 160.152C91.569 160.656 91.329 161.382 91.329 162.33C91.329 163.278 91.563 164.01 92.031 164.526C92.511 165.03 93.111 165.282 93.831 165.282ZM113.266 157.2C114.49 157.2 115.474 157.578 116.218 158.334C116.974 159.078 117.352 160.122 117.352 161.466V167.316H114.832V161.808C114.832 161.028 114.634 160.434 114.238 160.026C113.842 159.606 113.302 159.396 112.618 159.396C111.934 159.396 111.388 159.606 110.98 160.026C110.584 160.434 110.386 161.028 110.386 161.808V167.316H107.866V161.808C107.866 161.028 107.668 160.434 107.272 160.026C106.876 159.606 106.336 159.396 105.652 159.396C104.956 159.396 104.404 159.606 103.996 160.026C103.6 160.434 103.402 161.028 103.402 161.808V167.316H100.882V157.344H103.402V158.55C103.726 158.13 104.14 157.8 104.644 157.56C105.16 157.32 105.724 157.2 106.336 157.2C107.116 157.2 107.812 157.368 108.424 157.704C109.036 158.028 109.51 158.496 109.846 159.108C110.17 158.532 110.638 158.07 111.25 157.722C111.874 157.374 112.546 157.2 113.266 157.2ZM129.013 162.114C129.013 162.474 128.989 162.798 128.941 163.086H121.651C121.711 163.806 121.963 164.37 122.407 164.778C122.851 165.186 123.397 165.39 124.045 165.39C124.981 165.39 125.647 164.988 126.043 164.184H128.761C128.473 165.144 127.921 165.936 127.105 166.56C126.289 167.172 125.287 167.478 124.099 167.478C123.139 167.478 122.275 167.268 121.507 166.848C120.751 166.416 120.157 165.81 119.725 165.03C119.305 164.25 119.095 163.35 119.095 162.33C119.095 161.298 119.305 160.392 119.725 159.612C120.145 158.832 120.733 158.232 121.489 157.812C122.245 157.392 123.115 157.182 124.099 157.182C125.047 157.182 125.893 157.386 126.637 157.794C127.393 158.202 127.975 158.784 128.383 159.54C128.803 160.284 129.013 161.142 129.013 162.114ZM126.403 161.394C126.391 160.746 126.157 160.23 125.701 159.846C125.245 159.45 124.687 159.252 124.027 159.252C123.403 159.252 122.875 159.444 122.443 159.828C122.023 160.2 121.765 160.722 121.669 161.394H126.403ZM133.786 159.414V164.238C133.786 164.574 133.864 164.82 134.02 164.976C134.188 165.12 134.464 165.192 134.848 165.192H136.018V167.316H134.434C132.31 167.316 131.248 166.284 131.248 164.22V159.414H130.06V157.344H131.248V154.878H133.786V157.344H136.018V159.414H133.786ZM140.351 158.892C140.675 158.364 141.095 157.95 141.611 157.65C142.139 157.35 142.739 157.2 143.411 157.2V159.846H142.745C141.953 159.846 141.353 160.032 140.945 160.404C140.549 160.776 140.351 161.424 140.351 162.348V167.316H137.831V157.344H140.351V158.892ZM146.386 156.156C145.942 156.156 145.57 156.018 145.27 155.742C144.982 155.454 144.838 155.1 144.838 154.68C144.838 154.26 144.982 153.912 145.27 153.636C145.57 153.348 145.942 153.204 146.386 153.204C146.83 153.204 147.196 153.348 147.484 153.636C147.784 153.912 147.934 154.26 147.934 154.68C147.934 155.1 147.784 155.454 147.484 155.742C147.196 156.018 146.83 156.156 146.386 156.156ZM147.628 157.344V167.316H145.108V157.344H147.628ZM149.47 162.33C149.47 161.298 149.68 160.398 150.1 159.63C150.52 158.85 151.102 158.25 151.846 157.83C152.59 157.398 153.442 157.182 154.402 157.182C155.638 157.182 156.658 157.494 157.462 158.118C158.278 158.73 158.824 159.594 159.1 160.71H156.382C156.238 160.278 155.992 159.942 155.644 159.702C155.308 159.45 154.888 159.324 154.384 159.324C153.664 159.324 153.094 159.588 152.674 160.116C152.254 160.632 152.044 161.37 152.044 162.33C152.044 163.278 152.254 164.016 152.674 164.544C153.094 165.06 153.664 165.318 154.384 165.318C155.404 165.318 156.07 164.862 156.382 163.95H159.1C158.824 165.03 158.278 165.888 157.462 166.524C156.646 167.16 155.626 167.478 154.402 167.478C153.442 167.478 152.59 167.268 151.846 166.848C151.102 166.416 150.52 165.816 150.1 165.048C149.68 164.268 149.47 163.362 149.47 162.33ZM164.623 161.016C164.623 159.78 164.899 158.676 165.451 157.704C166.015 156.72 166.777 155.958 167.737 155.418C168.709 154.866 169.795 154.59 170.995 154.59C172.399 154.59 173.629 154.95 174.685 155.67C175.741 156.39 176.479 157.386 176.899 158.658H174.001C173.713 158.058 173.305 157.608 172.777 157.308C172.261 157.008 171.661 156.858 170.977 156.858C170.245 156.858 169.591 157.032 169.015 157.38C168.451 157.716 168.007 158.196 167.683 158.82C167.371 159.444 167.215 160.176 167.215 161.016C167.215 161.844 167.371 162.576 167.683 163.212C168.007 163.836 168.451 164.322 169.015 164.67C169.591 165.006 170.245 165.174 170.977 165.174C171.661 165.174 172.261 165.024 172.777 164.724C173.305 164.412 173.713 163.956 174.001 163.356H176.899C176.479 164.64 175.741 165.642 174.685 166.362C173.641 167.07 172.411 167.424 170.995 167.424C169.795 167.424 168.709 167.154 167.737 166.614C166.777 166.062 166.015 165.3 165.451 164.328C164.899 163.356 164.623 162.252 164.623 161.016ZM178.403 162.294C178.403 161.286 178.601 160.392 178.997 159.612C179.405 158.832 179.951 158.232 180.635 157.812C181.331 157.392 182.105 157.182 182.957 157.182C183.701 157.182 184.349 157.332 184.901 157.632C185.465 157.932 185.915 158.31 186.251 158.766V157.344H188.789V167.316H186.251V165.858C185.927 166.326 185.477 166.716 184.901 167.028C184.337 167.328 183.683 167.478 182.939 167.478C182.099 167.478 181.331 167.262 180.635 166.83C179.951 166.398 179.405 165.792 178.997 165.012C178.601 164.22 178.403 163.314 178.403 162.294ZM186.251 162.33C186.251 161.718 186.131 161.196 185.891 160.764C185.651 160.32 185.327 159.984 184.919 159.756C184.511 159.516 184.073 159.396 183.605 159.396C183.137 159.396 182.705 159.51 182.309 159.738C181.913 159.966 181.589 160.302 181.337 160.746C181.097 161.178 180.977 161.694 180.977 162.294C180.977 162.894 181.097 163.422 181.337 163.878C181.589 164.322 181.913 164.664 182.309 164.904C182.717 165.144 183.149 165.264 183.605 165.264C184.073 165.264 184.511 165.15 184.919 164.922C185.327 164.682 185.651 164.346 185.891 163.914C186.131 163.47 186.251 162.942 186.251 162.33ZM193.771 158.892C194.095 158.364 194.515 157.95 195.031 157.65C195.559 157.35 196.159 157.2 196.831 157.2V159.846H196.165C195.373 159.846 194.773 160.032 194.365 160.404C193.969 160.776 193.771 161.424 193.771 162.348V167.316H191.251V157.344H193.771V158.892ZM207.798 162.114C207.798 162.474 207.774 162.798 207.726 163.086H200.436C200.496 163.806 200.748 164.37 201.192 164.778C201.636 165.186 202.182 165.39 202.83 165.39C203.766 165.39 204.432 164.988 204.828 164.184H207.546C207.258 165.144 206.706 165.936 205.89 166.56C205.074 167.172 204.072 167.478 202.884 167.478C201.924 167.478 201.06 167.268 200.292 166.848C199.536 166.416 198.942 165.81 198.51 165.03C198.09 164.25 197.88 163.35 197.88 162.33C197.88 161.298 198.09 160.392 198.51 159.612C198.93 158.832 199.518 158.232 200.274 157.812C201.03 157.392 201.9 157.182 202.884 157.182C203.832 157.182 204.678 157.386 205.422 157.794C206.178 158.202 206.76 158.784 207.168 159.54C207.588 160.284 207.798 161.142 207.798 162.114ZM205.188 161.394C205.176 160.746 204.942 160.23 204.486 159.846C204.03 159.45 203.472 159.252 202.812 159.252C202.188 159.252 201.66 159.444 201.228 159.828C200.808 160.2 200.55 160.722 200.454 161.394H205.188ZM218.907 162.114C218.907 162.474 218.883 162.798 218.835 163.086H211.545C211.605 163.806 211.857 164.37 212.301 164.778C212.745 165.186 213.291 165.39 213.939 165.39C214.875 165.39 215.541 164.988 215.937 164.184H218.655C218.367 165.144 217.815 165.936 216.999 166.56C216.183 167.172 215.181 167.478 213.993 167.478C213.033 167.478 212.169 167.268 211.401 166.848C210.645 166.416 210.051 165.81 209.619 165.03C209.199 164.25 208.989 163.35 208.989 162.33C208.989 161.298 209.199 160.392 209.619 159.612C210.039 158.832 210.627 158.232 211.383 157.812C212.139 157.392 213.009 157.182 213.993 157.182C214.941 157.182 215.787 157.386 216.531 157.794C217.287 158.202 217.869 158.784 218.277 159.54C218.697 160.284 218.907 161.142 218.907 162.114ZM216.297 161.394C216.285 160.746 216.051 160.23 215.595 159.846C215.139 159.45 214.581 159.252 213.921 159.252C213.297 159.252 212.769 159.444 212.337 159.828C211.917 160.2 211.659 160.722 211.563 161.394H216.297ZM223.267 158.892C223.591 158.364 224.011 157.95 224.527 157.65C225.055 157.35 225.655 157.2 226.327 157.2V159.846H225.661C224.869 159.846 224.269 160.032 223.861 160.404C223.465 160.776 223.267 161.424 223.267 162.348V167.316H220.747V157.344H223.267V158.892ZM123.65 191.922H118.646L117.818 194.316H115.172L119.69 181.734H122.624L127.142 194.316H124.478L123.65 191.922ZM122.966 189.906L121.148 184.65L119.33 189.906H122.966ZM132.647 194.478C131.831 194.478 131.099 194.334 130.451 194.046C129.803 193.746 129.287 193.344 128.903 192.84C128.531 192.336 128.327 191.778 128.291 191.166H130.829C130.877 191.55 131.063 191.868 131.387 192.12C131.723 192.372 132.137 192.498 132.629 192.498C133.109 192.498 133.481 192.402 133.745 192.21C134.021 192.018 134.159 191.772 134.159 191.472C134.159 191.148 133.991 190.908 133.655 190.752C133.331 190.584 132.809 190.404 132.089 190.212C131.345 190.032 130.733 189.846 130.253 189.654C129.785 189.462 129.377 189.168 129.029 188.772C128.693 188.376 128.525 187.842 128.525 187.17C128.525 186.618 128.681 186.114 128.993 185.658C129.317 185.202 129.773 184.842 130.361 184.578C130.961 184.314 131.663 184.182 132.467 184.182C133.655 184.182 134.603 184.482 135.311 185.082C136.019 185.67 136.409 186.468 136.481 187.476H134.069C134.033 187.08 133.865 186.768 133.565 186.54C133.277 186.3 132.887 186.18 132.395 186.18C131.939 186.18 131.585 186.264 131.333 186.432C131.093 186.6 130.973 186.834 130.973 187.134C130.973 187.47 131.141 187.728 131.477 187.908C131.813 188.076 132.335 188.25 133.043 188.43C133.763 188.61 134.357 188.796 134.825 188.988C135.293 189.18 135.695 189.48 136.031 189.888C136.379 190.284 136.559 190.812 136.571 191.472C136.571 192.048 136.409 192.564 136.085 193.02C135.773 193.476 135.317 193.836 134.717 194.1C134.129 194.352 133.439 194.478 132.647 194.478ZM142.455 194.478C141.639 194.478 140.907 194.334 140.259 194.046C139.611 193.746 139.095 193.344 138.711 192.84C138.339 192.336 138.135 191.778 138.099 191.166H140.637C140.685 191.55 140.871 191.868 141.195 192.12C141.531 192.372 141.945 192.498 142.437 192.498C142.917 192.498 143.289 192.402 143.553 192.21C143.829 192.018 143.967 191.772 143.967 191.472C143.967 191.148 143.799 190.908 143.463 190.752C143.139 190.584 142.617 190.404 141.897 190.212C141.153 190.032 140.541 189.846 140.061 189.654C139.593 189.462 139.185 189.168 138.837 188.772C138.501 188.376 138.333 187.842 138.333 187.17C138.333 186.618 138.489 186.114 138.801 185.658C139.125 185.202 139.581 184.842 140.169 184.578C140.769 184.314 141.471 184.182 142.275 184.182C143.463 184.182 144.411 184.482 145.119 185.082C145.827 185.67 146.217 186.468 146.289 187.476H143.877C143.841 187.08 143.673 186.768 143.373 186.54C143.085 186.3 142.695 186.18 142.203 186.18C141.747 186.18 141.393 186.264 141.141 186.432C140.901 186.6 140.781 186.834 140.781 187.134C140.781 187.47 140.949 187.728 141.285 187.908C141.621 188.076 142.143 188.25 142.851 188.43C143.571 188.61 144.165 188.796 144.633 188.988C145.101 189.18 145.503 189.48 145.839 189.888C146.187 190.284 146.367 190.812 146.379 191.472C146.379 192.048 146.217 192.564 145.893 193.02C145.581 193.476 145.125 193.836 144.525 194.1C143.937 194.352 143.247 194.478 142.455 194.478ZM157.718 189.114C157.718 189.474 157.694 189.798 157.646 190.086H150.356C150.416 190.806 150.668 191.37 151.112 191.778C151.556 192.186 152.102 192.39 152.75 192.39C153.686 192.39 154.352 191.988 154.748 191.184H157.466C157.178 192.144 156.626 192.936 155.81 193.56C154.994 194.172 153.992 194.478 152.804 194.478C151.844 194.478 150.98 194.268 150.212 193.848C149.456 193.416 148.862 192.81 148.43 192.03C148.01 191.25 147.8 190.35 147.8 189.33C147.8 188.298 148.01 187.392 148.43 186.612C148.85 185.832 149.438 185.232 150.194 184.812C150.95 184.392 151.82 184.182 152.804 184.182C153.752 184.182 154.598 184.386 155.342 184.794C156.098 185.202 156.68 185.784 157.088 186.54C157.508 187.284 157.718 188.142 157.718 189.114ZM155.108 188.394C155.096 187.746 154.862 187.23 154.406 186.846C153.95 186.45 153.392 186.252 152.732 186.252C152.108 186.252 151.58 186.444 151.148 186.828C150.728 187.2 150.47 187.722 150.374 188.394H155.108ZM163.373 194.478C162.557 194.478 161.825 194.334 161.177 194.046C160.529 193.746 160.013 193.344 159.629 192.84C159.257 192.336 159.053 191.778 159.017 191.166H161.555C161.603 191.55 161.789 191.868 162.113 192.12C162.449 192.372 162.863 192.498 163.355 192.498C163.835 192.498 164.207 192.402 164.471 192.21C164.747 192.018 164.885 191.772 164.885 191.472C164.885 191.148 164.717 190.908 164.381 190.752C164.057 190.584 163.535 190.404 162.815 190.212C162.071 190.032 161.459 189.846 160.979 189.654C160.511 189.462 160.103 189.168 159.755 188.772C159.419 188.376 159.251 187.842 159.251 187.17C159.251 186.618 159.407 186.114 159.719 185.658C160.043 185.202 160.499 184.842 161.087 184.578C161.687 184.314 162.389 184.182 163.193 184.182C164.381 184.182 165.329 184.482 166.037 185.082C166.745 185.67 167.135 186.468 167.207 187.476H164.795C164.759 187.08 164.591 186.768 164.291 186.54C164.003 186.3 163.613 186.18 163.121 186.18C162.665 186.18 162.311 186.264 162.059 186.432C161.819 186.6 161.699 186.834 161.699 187.134C161.699 187.47 161.867 187.728 162.203 187.908C162.539 188.076 163.061 188.25 163.769 188.43C164.489 188.61 165.083 188.796 165.551 188.988C166.019 189.18 166.421 189.48 166.757 189.888C167.105 190.284 167.285 190.812 167.297 191.472C167.297 192.048 167.135 192.564 166.811 193.02C166.499 193.476 166.043 193.836 165.443 194.1C164.855 194.352 164.165 194.478 163.373 194.478ZM173.182 194.478C172.366 194.478 171.634 194.334 170.986 194.046C170.338 193.746 169.822 193.344 169.438 192.84C169.066 192.336 168.862 191.778 168.826 191.166H171.364C171.412 191.55 171.598 191.868 171.922 192.12C172.258 192.372 172.672 192.498 173.164 192.498C173.644 192.498 174.016 192.402 174.28 192.21C174.556 192.018 174.694 191.772 174.694 191.472C174.694 191.148 174.526 190.908 174.19 190.752C173.866 190.584 173.344 190.404 172.624 190.212C171.88 190.032 171.268 189.846 170.788 189.654C170.32 189.462 169.912 189.168 169.564 188.772C169.228 188.376 169.06 187.842 169.06 187.17C169.06 186.618 169.216 186.114 169.528 185.658C169.852 185.202 170.308 184.842 170.896 184.578C171.496 184.314 172.198 184.182 173.002 184.182C174.19 184.182 175.138 184.482 175.846 185.082C176.554 185.67 176.944 186.468 177.016 187.476H174.604C174.568 187.08 174.4 186.768 174.1 186.54C173.812 186.3 173.422 186.18 172.93 186.18C172.474 186.18 172.12 186.264 171.868 186.432C171.628 186.6 171.508 186.834 171.508 187.134C171.508 187.47 171.676 187.728 172.012 187.908C172.348 188.076 172.87 188.25 173.578 188.43C174.298 188.61 174.892 188.796 175.36 188.988C175.828 189.18 176.23 189.48 176.566 189.888C176.914 190.284 177.094 190.812 177.106 191.472C177.106 192.048 176.944 192.564 176.62 193.02C176.308 193.476 175.852 193.836 175.252 194.1C174.664 194.352 173.974 194.478 173.182 194.478ZM191.558 184.2C192.782 184.2 193.766 184.578 194.51 185.334C195.266 186.078 195.644 187.122 195.644 188.466V194.316H193.124V188.808C193.124 188.028 192.926 187.434 192.53 187.026C192.134 186.606 191.594 186.396 190.91 186.396C190.226 186.396 189.68 186.606 189.272 187.026C188.876 187.434 188.678 188.028 188.678 188.808V194.316H186.158V188.808C186.158 188.028 185.96 187.434 185.564 187.026C185.168 186.606 184.628 186.396 183.944 186.396C183.248 186.396 182.696 186.606 182.288 187.026C181.892 187.434 181.694 188.028 181.694 188.808V194.316H179.174V184.344H181.694V185.55C182.018 185.13 182.432 184.8 182.936 184.56C183.452 184.32 184.016 184.2 184.628 184.2C185.408 184.2 186.104 184.368 186.716 184.704C187.328 185.028 187.802 185.496 188.138 186.108C188.462 185.532 188.93 185.07 189.542 184.722C190.166 184.374 190.838 184.2 191.558 184.2ZM207.306 189.114C207.306 189.474 207.282 189.798 207.234 190.086H199.944C200.004 190.806 200.256 191.37 200.7 191.778C201.144 192.186 201.69 192.39 202.338 192.39C203.274 192.39 203.94 191.988 204.336 191.184H207.054C206.766 192.144 206.214 192.936 205.398 193.56C204.582 194.172 203.58 194.478 202.392 194.478C201.432 194.478 200.568 194.268 199.8 193.848C199.044 193.416 198.45 192.81 198.018 192.03C197.598 191.25 197.388 190.35 197.388 189.33C197.388 188.298 197.598 187.392 198.018 186.612C198.438 185.832 199.026 185.232 199.782 184.812C200.538 184.392 201.408 184.182 202.392 184.182C203.34 184.182 204.186 184.386 204.93 184.794C205.686 185.202 206.268 185.784 206.676 186.54C207.096 187.284 207.306 188.142 207.306 189.114ZM204.696 188.394C204.684 187.746 204.45 187.23 203.994 186.846C203.538 186.45 202.98 186.252 202.32 186.252C201.696 186.252 201.168 186.444 200.736 186.828C200.316 187.2 200.058 187.722 199.962 188.394H204.696ZM214.671 184.2C215.859 184.2 216.819 184.578 217.551 185.334C218.283 186.078 218.649 187.122 218.649 188.466V194.316H216.129V188.808C216.129 188.016 215.931 187.41 215.535 186.99C215.139 186.558 214.599 186.342 213.915 186.342C213.219 186.342 212.667 186.558 212.259 186.99C211.863 187.41 211.665 188.016 211.665 188.808V194.316H209.145V184.344H211.665V185.586C212.001 185.154 212.427 184.818 212.943 184.578C213.471 184.326 214.047 184.2 214.671 184.2ZM223.98 186.414V191.238C223.98 191.574 224.058 191.82 224.214 191.976C224.382 192.12 224.658 192.192 225.042 192.192H226.212V194.316H224.628C222.504 194.316 221.442 193.284 221.442 191.22V186.414H220.254V184.344H221.442V181.878H223.98V184.344H226.212V186.414H223.98Z" fill="black"/>
<circle cx="38.9468" cy="37.8523" r="35.46" fill="#FFD600"/>
<path d="M134.632 66.3405C132.929 66.3405 131.389 66.0488 130.012 65.4655C128.659 64.8821 127.585 64.0421 126.792 62.9455C125.999 61.8488 125.59 60.5538 125.567 59.0605H130.817C130.887 60.0638 131.237 60.8571 131.867 61.4405C132.52 62.0238 133.407 62.3155 134.527 62.3155C135.67 62.3155 136.569 62.0471 137.222 61.5105C137.875 60.9505 138.202 60.2271 138.202 59.3405C138.202 58.6171 137.98 58.0221 137.537 57.5555C137.094 57.0888 136.534 56.7271 135.857 56.4705C135.204 56.1905 134.294 55.8871 133.127 55.5605C131.54 55.0938 130.245 54.6388 129.242 54.1955C128.262 53.7288 127.41 53.0405 126.687 52.1305C125.987 51.1971 125.637 49.9605 125.637 48.4205C125.637 46.9738 125.999 45.7138 126.722 44.6405C127.445 43.5671 128.46 42.7505 129.767 42.1905C131.074 41.6071 132.567 41.3155 134.247 41.3155C136.767 41.3155 138.809 41.9338 140.372 43.1705C141.959 44.3838 142.834 46.0871 142.997 48.2805H137.607C137.56 47.4405 137.199 46.7521 136.522 46.2155C135.869 45.6555 134.994 45.3755 133.897 45.3755C132.94 45.3755 132.17 45.6205 131.587 46.1105C131.027 46.6005 130.747 47.3121 130.747 48.2455C130.747 48.8988 130.957 49.4471 131.377 49.8905C131.82 50.3105 132.357 50.6605 132.987 50.9405C133.64 51.1971 134.55 51.5005 135.717 51.8505C137.304 52.3171 138.599 52.7838 139.602 53.2505C140.605 53.7171 141.469 54.4171 142.192 55.3505C142.915 56.2838 143.277 57.5088 143.277 59.0255C143.277 60.3321 142.939 61.5455 142.262 62.6655C141.585 63.7855 140.594 64.6838 139.287 65.3605C137.98 66.0138 136.429 66.3405 134.632 66.3405ZM164.15 41.6655V45.6205H157.64V66.0955H152.74V45.6205H146.23V41.6655H164.15ZM172.625 45.6205V51.7455H180.85V55.6305H172.625V62.1055H181.9V66.0955H167.725V41.6305H181.9V45.6205H172.625ZM204.168 49.2255C204.168 50.5321 203.853 51.7571 203.223 52.9005C202.617 54.0438 201.648 54.9655 200.318 55.6655C199.012 56.3655 197.355 56.7155 195.348 56.7155H191.253V66.0955H186.353V41.6655H195.348C197.238 41.6655 198.848 41.9921 200.178 42.6455C201.508 43.2988 202.5 44.1971 203.153 45.3405C203.83 46.4838 204.168 47.7788 204.168 49.2255ZM195.138 52.7605C196.492 52.7605 197.495 52.4571 198.148 51.8505C198.802 51.2205 199.128 50.3455 199.128 49.2255C199.128 46.8455 197.798 45.6555 195.138 45.6555H191.253V52.7605H195.138ZM214.832 45.0955V40.5805H223.267V66.0955H218.227V45.0955H214.832Z" fill="black"/>
<path d="M224.115 96.8265C224.115 98.2993 225.309 99.4932 226.782 99.4932C228.255 99.4932 229.449 98.2993 229.449 96.8265C229.449 95.3538 228.255 94.1599 226.782 94.1599C225.309 94.1599 224.115 95.3538 224.115 96.8265ZM112.372 97.3265H226.782V96.3265H112.372V97.3265Z" fill="#FFD600"/>
<defs>
<filter id="filter0_d_1_2532" x="0.240723" y="0.5" width="268.465" height="248.631" filterUnits="userSpaceOnUse" color-interpolation-filters="sRGB">
<feFlood flood-opacity="0" result="BackgroundImageFix"/>
<feColorMatrix in="SourceAlpha" type="matrix" values="0 0 0 0 0 0 0 0 0 0 0 0 0 0 0 0 0 0 127 0" result="hardAlpha"/>
<feOffset dy="4"/>
<feGaussianBlur stdDeviation="8.5"/>
<feComposite in2="hardAlpha" operator="out"/>
<feColorMatrix type="matrix" values="0 0 0 0 0.880688 0 0 0 0 0.880688 0 0 0 0 0.880688 0 0 0 0.25 0"/>
<feBlend mode="normal" in2="BackgroundImageFix" result="effect1_dropShadow_1_2532"/>
<feBlend mode="normal" in="SourceGraphic" in2="effect1_dropShadow_1_2532" result="shape"/>
</filter>
</defs>
</svg>
