<svg width="599" height="553" viewBox="0 0 599 553" fill="none" xmlns="http://www.w3.org/2000/svg">
<g opacity="0.6" filter="url(#filter0_f_1869_2627)">
<path fill-rule="evenodd" clip-rule="evenodd" d="M269.017 221.273C358.475 200.584 467.046 158.016 515.292 215.805C569.569 280.816 523.146 374.395 449.169 437.057C383.331 492.826 285.685 504.721 203.552 479.865C118.644 454.169 44.3335 395.662 63.4088 320.312C80.5641 252.547 185.743 240.532 269.017 221.273Z" fill="#4281FD"/>
</g>
<g filter="url(#filter1_i_1869_2627)">
<path fill-rule="evenodd" clip-rule="evenodd" d="M268.938 215.206C358.396 194.517 466.967 151.949 515.213 209.738C569.49 274.749 523.067 368.328 449.09 430.99C383.252 486.759 285.606 498.654 203.473 473.798C118.565 448.102 44.2543 389.595 63.3296 314.246C80.4849 246.481 185.664 234.465 268.938 215.206Z" fill="white"/>
</g>
<path d="M338.702 215.505L503.649 311.741C509.018 314.874 509.035 322.653 503.683 325.813L284.038 455.408C280.358 457.578 276.276 458.756 272.157 458.937C267.356 459.15 262.511 458.009 258.201 455.517L93.7331 360.337C88.3223 357.207 88.3149 349.368 93.7183 346.226L318.513 215.492C324.758 211.859 332.461 211.864 338.702 215.505Z" fill="#003DFF"/>
<path d="M503.683 320.753L494.171 326.365L491.639 327.858L445.794 354.895L443.263 356.388L397.42 383.425L394.889 384.916L349.047 411.953L346.515 413.446L300.675 440.483L298.144 441.976L284.016 450.308C280.338 452.478 276.254 453.654 272.135 453.835C267.336 454.046 262.488 452.905 258.179 450.413L219.632 428.095L217.078 426.614L170.806 399.825L168.252 398.345L121.98 371.553L119.426 370.075L93.7282 355.198C88.3198 352.068 88.3124 344.229 93.7158 341.089L108.775 332.335L111.321 330.852L157.5 304.008L160.046 302.525L206.224 275.679L208.77 274.199L254.954 247.363L257.502 245.882L303.681 219.038L306.227 217.555L318.53 210.403C324.776 206.772 332.478 206.777 338.719 210.42L366.845 226.836L369.388 228.321L415.473 255.219L418.017 256.705L464.101 283.603L466.645 285.086L503.649 306.684C509.02 309.816 509.037 317.599 503.683 320.753Z" fill="#C7D7FF"/>
<g opacity="0.4">
<path d="M219.797 385.911C238.211 385.911 253.139 377.181 253.139 366.413C253.139 355.644 238.211 346.915 219.797 346.915C201.383 346.915 186.455 355.644 186.455 366.413C186.455 377.181 201.383 385.911 219.797 385.911Z" fill="#3BAAD8"/>
</g>
<g opacity="0.4">
<path d="M466.383 338.091L424.885 313.973L435.467 307.999L363.669 266.273L353.252 272.344L290.039 235.607L280.941 240.91L344.154 277.648L316.137 293.979L387.601 335.036L415.646 319.193L457.144 343.311L466.383 338.091Z" fill="#3BAAD8"/>
</g>
<path d="M344.485 255.403L416.281 286.777V297.126L368.418 324.163L296.954 283.107V272.758L344.485 255.403Z" fill="#2D2B64"/>
<path d="M344.485 245.054L416.281 286.777L368.418 313.817L296.954 272.758L344.485 245.054Z" fill="#D9DDF6"/>
<path d="M383.416 260.767V288.672L383.364 288.702L373.646 294.369L373.656 294.389L373.646 294.384L331.72 270.199V230.948L383.416 260.767Z" fill="#B4BAEC"/>
<path d="M383.364 288.702L373.646 294.369V255.157L383.364 260.767V288.702Z" fill="#242454"/>
<path d="M253.946 51.8693V193.319C253.946 197.676 256.265 201.701 260.029 203.871L455.752 316.773C460.333 319.414 465.553 318.678 469.218 315.838C472.019 313.668 473.908 310.273 473.908 306.221V164.769C473.908 160.411 471.589 156.386 467.825 154.216L272.102 41.3144C264.022 36.6545 253.946 42.5123 253.946 51.8693Z" fill="#D9DDF6"/>
<path d="M467.823 154.216L272.1 41.3143C267.845 38.8591 263.037 39.3253 259.436 41.6813L454.522 154.216C458.285 156.386 460.604 160.411 460.604 164.769V306.218C460.604 310.27 458.715 313.665 455.915 315.835C455.655 316.036 455.386 316.225 455.112 316.403L455.749 316.77C460.33 319.412 465.551 318.675 469.216 315.835C472.016 313.665 473.905 310.27 473.905 306.218V164.769C473.905 160.411 471.586 156.386 467.823 154.216Z" fill="#003DFF"/>
<path d="M446.352 163.856V298.657L380.529 260.688L375.589 257.838L369.302 254.215L327.727 230.231L268.781 196.228V61.4272L346.854 106.462L356.984 112.304L357.527 112.619L370.297 119.987L371.774 120.838L384.07 127.928L446.352 163.856Z" fill="white"/>
<path d="M317.362 131.837V103.897L276.464 80.3052V108.245L317.362 131.837Z" fill="#F8F7F5"/>
<path d="M317.362 165.622V137.68L276.464 114.087V142.03L317.362 165.622Z" fill="#F8F7F5"/>
<path d="M437.19 197.17V169.23L396.292 145.638V173.578L437.19 197.17Z" fill="#F8F7F5"/>
<path d="M437.19 230.953V203.013L396.292 179.421V207.361L437.19 230.953Z" fill="#F8F7F5"/>
<path d="M463.723 94.7139L414.544 66.3452L411.057 68.359L414.544 174.496L460.266 204.608L463.723 202.864V94.7139Z" fill="#F57E12"/>
<path d="M460.108 96.668L410.929 68.2993V176.45L460.108 204.818V96.668Z" fill="#FEC144"/>
<path d="M415.125 102.918V107.523L455.915 131.054V126.448L415.125 102.918Z" fill="white"/>
<path d="M415.125 122.259V126.865L455.915 150.392V145.787L415.125 122.259Z" fill="white"/>
<path d="M444.631 100.138L415.125 83.1177V87.723L444.631 104.743V100.138Z" fill="white"/>
<path d="M427.665 100.482L415.125 93.248V97.8534L427.665 105.088V100.482Z" fill="white"/>
<path d="M430.876 102.333V106.938L455.915 121.384V116.779L430.876 102.333Z" fill="#F80492"/>
<path d="M434.084 123.527L415.125 112.59V117.193L434.084 128.13V123.527Z" fill="white"/>
<path d="M437.294 125.377V129.982L455.915 140.723V136.118L437.294 125.377Z" fill="white"/>
<path d="M415.125 154.492V159.097L455.915 182.627V178.022L415.125 154.492Z" fill="white"/>
<path d="M427.665 152.056L415.125 144.822V149.428L427.665 156.662V152.056Z" fill="#F80492"/>
<path d="M430.876 153.907V158.512L455.915 172.956V168.353L430.876 153.907Z" fill="white"/>
<path d="M434.084 175.098L415.125 164.161V168.766L434.084 179.703V175.098Z" fill="white"/>
<path d="M437.294 176.951V181.556L455.915 192.297V187.692L437.294 176.951Z" fill="#F80492"/>
<path d="M282.452 229.737V159.209L233.273 130.84L229.784 132.854L232.157 205.056L278.718 231.969L282.452 229.737Z" fill="#F57E12"/>
<path d="M278.837 231.982V161.163L229.658 132.794V203.613L278.837 231.982Z" fill="#FEC144"/>
<path d="M233.854 167.413V172.018L274.644 195.548V190.943L233.854 167.413Z" fill="white"/>
<path d="M233.854 186.754V191.359L274.644 214.887V210.282L233.854 186.754Z" fill="white"/>
<path d="M263.358 164.633L233.854 147.612V152.218L263.358 169.238V164.633Z" fill="white"/>
<path d="M246.392 164.977L233.854 157.743V162.348L246.392 169.582V164.977Z" fill="white"/>
<path d="M249.602 166.83V171.432L274.644 185.878V181.273L249.602 166.83Z" fill="#F80492"/>
<path d="M252.813 188.021L233.854 177.084V181.687L252.813 192.624V188.021Z" fill="white"/>
<path d="M256.023 189.872V194.477L274.644 205.218V200.612L256.023 189.872Z" fill="white"/>
<path d="M415.483 248.62L513.092 308.47L516.291 306.781V277.046L415.483 218.51L412.169 220.244L415.483 248.62Z" fill="#F57E12"/>
<path d="M412.147 220.184V243.499C408.472 244.555 403.765 245.929 404.106 245.929C404.437 245.929 408.739 248.32 412.147 250.244V250.294L512.954 308.455V278.72L412.147 220.184Z" fill="#FEC144"/>
<path d="M448.59 245.961L416.081 227.083V232.388L448.59 251.266V245.961Z" fill="#F80492"/>
<path d="M439.136 248.848V254.153L508.366 294.351V289.046L439.136 248.848Z" fill="white"/>
<path d="M435.8 246.911L416.081 235.461V240.766L435.8 252.216V246.911Z" fill="white"/>
<path d="M467.773 274.132L416.081 244.116V249.421L467.773 279.436V274.132Z" fill="white"/>
<path d="M471.11 276.068V281.373L508.366 303.006V297.701L471.11 276.068Z" fill="#F80492"/>
<path d="M260.733 181.794C260.733 181.794 259.918 178.548 262.311 177.873C264.141 177.357 265.988 181.271 268.139 182.444C270.216 183.575 266.785 192.25 266.785 192.25C249.824 195.119 250.723 181.958 260.733 181.794Z" fill="#F4A590"/>
<path d="M329.391 159.752L326.902 183.967L326.381 189.036L325.786 194.844V194.849C325.786 194.849 317.004 212.308 310.057 212.308C304.928 212.308 293.314 207.17 283.312 202.21C273.992 197.587 266.059 193.123 266.059 193.123L268.549 181.273L304.268 193.123C304.268 193.123 315.91 170.642 324.566 162.949C324.578 162.936 324.583 162.931 324.595 162.926C326.425 161.292 328.083 160.146 329.391 159.752Z" fill="#8CD337"/>
<g opacity="0.56">
<path d="M326.902 183.967L326.381 189.036L325.786 194.844V194.849C325.786 194.849 317.004 212.308 310.057 212.308C304.928 212.308 293.314 207.17 283.312 202.21C297.759 206.855 317.13 206.336 326.902 183.967Z" fill="#2BA150"/>
</g>
<path d="M371.08 229.603C370.744 234.015 372.053 236.488 373.826 239.61C374.133 240.143 374.451 240.699 374.775 241.289C374.901 241.507 375.022 241.731 375.147 241.961C375.328 242.299 375.515 242.648 375.698 243.01C375.888 243.38 376.076 243.764 376.266 244.164C377.145 246.029 378.022 248.246 378.783 251.051C379 251.849 379.205 252.692 379.4 253.588C379.403 253.602 379.405 253.612 379.407 253.627C379.452 253.833 379.496 254.041 379.538 254.252C379.931 256.152 380.267 258.282 380.531 260.688L375.59 257.838C372.574 259.133 369.87 257.32 369.304 254.215L327.729 230.231C327.836 228.651 327.831 227.007 327.678 225.273C326.621 213.327 321.158 214.657 319.676 204.759C319.642 204.563 319.614 204.362 319.59 204.156C319.113 200.424 319.545 197.267 320.326 194.541C321.76 189.554 324.363 186.015 324.709 183.039C325.247 178.439 324.709 163.273 327.944 160.565C328.236 160.322 328.722 160.064 329.384 159.819C332.108 158.797 337.818 157.887 345.199 158.318C345.219 158.318 345.239 158.318 345.256 158.321C345.584 158.341 345.918 158.361 346.251 158.388H346.256C348.824 158.579 351.583 158.933 354.475 159.494C355.917 159.779 357.396 160.114 358.903 160.506L358.908 160.508C360.007 160.796 361.12 161.113 362.246 161.465C362.303 161.483 362.36 161.503 362.419 161.518C367.479 163.115 372.784 165.394 378.104 168.566C378.212 168.63 378.323 168.695 378.434 168.764C378.662 168.901 378.891 169.039 379.119 169.183C379.447 169.384 379.778 169.59 380.106 169.803C381.391 170.862 382.699 172.025 384.023 173.278V174.647C383.067 183.297 381.047 189.604 377.4 197.728C377.103 198.39 376.795 199.062 376.474 199.752C376.298 200.131 376.118 200.516 375.935 200.907C371.349 210.651 371.888 219.044 371.08 229.603Z" fill="#8CD337"/>
<path d="M379.408 253.628C379.405 253.616 379.403 253.603 379.4 253.59C379.405 253.616 379.405 253.626 379.405 253.626L379.408 253.628Z" fill="#3186FB"/>
<g opacity="0.56">
<path d="M348.165 220.128C348.165 220.128 347.896 229.604 362.992 235.561C373.747 239.804 377.508 247.167 378.78 251.053C378.02 248.246 377.143 246.029 376.264 244.166C375.429 242.396 374.584 240.945 373.824 239.613C372.051 236.491 370.742 234.016 371.08 229.606C371.89 219.046 371.349 210.654 375.933 200.908C376.449 199.812 376.935 198.755 377.397 197.726C381.045 189.601 383.065 183.295 384.021 174.645V173.278C382.697 172.028 381.386 170.863 380.104 169.804C379.548 169.446 378.99 169.099 378.432 168.764C378.321 168.697 378.21 168.633 378.101 168.566C377.38 168.482 376.743 168.516 376.202 168.688C370.27 170.582 368.922 196.032 363.531 204.697C358.14 213.36 354.094 218.235 341.961 214.987H340.075C343.851 219.857 348.165 220.128 348.165 220.128Z" fill="#2BA150"/>
</g>
<path d="M382.307 248.409C382.267 248.526 382.228 248.64 382.188 248.756C381.395 251.04 380.492 252.848 379.538 254.255C378.262 256.134 376.896 257.278 375.59 257.841C372.574 259.135 369.87 257.322 369.304 254.217C369.018 252.667 369.265 250.795 370.275 248.828C370.275 248.828 367.04 248.015 367.578 245.582C367.961 243.843 371.638 243.759 373.878 242.804C374.305 242.621 374.681 242.408 374.97 242.142C375.034 242.085 375.096 242.026 375.147 241.964C375.372 241.711 375.52 241.416 375.575 241.068L382.307 248.409Z" fill="#F4A590"/>
<path d="M409.26 208.211C405.523 198.904 394.894 176.34 376.982 168.112L373.414 167.388C364.716 170.768 363.595 184.291 363.595 184.291C365.603 188.644 387.92 212.015 387.92 212.015L374.604 241.666C378.079 246.316 384.156 250.096 384.156 250.096L408.378 215.725C409.924 213.533 410.26 210.703 409.26 208.211Z" fill="#8CD337"/>
<path d="M362.738 161.146L348.844 177.425L342.475 169.866L336.106 172.772C336.106 172.772 337.842 163.47 345.369 158.237L362.738 161.146Z" fill="white"/>
<path d="M375.185 130.334C384.936 130.334 392.842 122.395 392.842 112.602C392.842 102.809 384.936 94.8701 375.185 94.8701C365.433 94.8701 357.527 102.809 357.527 112.602C357.527 122.395 365.433 130.334 375.185 130.334Z" fill="#2D2862"/>
<path d="M342.771 170.039L362.454 161.376L361.106 145.402L360.076 145.807L345.199 151.63V158.398C345.199 158.398 344.651 158.869 343.925 159.635C341.714 161.969 342.771 170.039 342.771 170.039Z" fill="#F4A590"/>
<g opacity="0.55">
<path d="M343.925 159.635C347.276 166.13 357.031 162.046 360.836 146.756L360.076 145.807L345.199 151.63V158.398C345.199 158.398 344.651 158.869 343.925 159.635Z" fill="#F86C7D"/>
</g>
<path d="M364.944 126.638C369.682 125.866 372.899 121.383 372.13 116.625C371.361 111.868 366.897 108.637 362.16 109.409C357.422 110.181 354.205 114.664 354.974 119.422C355.742 124.179 360.206 127.41 364.944 126.638Z" fill="#CE0576"/>
<path d="M346.955 119.878L339.581 118.291L334.316 124.637C334.316 124.637 328.492 155.528 345.903 157.956C364.862 160.6 364.862 131.512 364.862 131.512L346.955 119.878Z" fill="#F4A590"/>
<path d="M330.103 120.938C332.735 103.486 361.175 101.37 367.494 115.648C377.501 126.753 364.862 139.977 364.862 139.977C364.862 139.977 337.879 140.413 335.642 127.262C332.523 130.679 333.38 133.63 333.38 133.63C333.38 133.63 328.525 132.571 330.103 120.938Z" fill="#2D2862"/>
<path d="M358.962 143.91C361.725 143.91 363.965 141.66 363.965 138.885C363.965 136.11 361.725 133.861 358.962 133.861C356.199 133.861 353.959 136.11 353.959 138.885C353.959 141.66 356.199 143.91 358.962 143.91Z" fill="#2D2862"/>
<path d="M360.913 145.264C363.676 145.264 365.916 143.014 365.916 140.239C365.916 137.464 363.676 135.215 360.913 135.215C358.15 135.215 355.91 137.464 355.91 140.239C355.91 143.014 358.15 145.264 360.913 145.264Z" fill="#F4A590"/>
<path d="M354.448 330.976L411.275 351.379L411.502 364.007L322.2 415.963L264.669 382.999L264.627 381.402L264.378 371.948L264.338 370.438L354.448 330.976Z" fill="#D80080"/>
<path d="M354.07 318.363L411.282 351.391L321.847 403.392L264.316 370.428L354.07 318.363Z" fill="#F80492"/>
<path d="M376.684 362.792L334.864 338.83L346.733 331.946L388.382 355.992L376.684 362.792Z" fill="white"/>
<path d="M322.778 414.783L322.625 412.93L321.968 404.977L264.378 371.948L264.58 379.641L264.627 381.402L322.778 414.783Z" fill="white"/>
<path d="M360.562 315.9L417.392 336.303L417.619 348.929L328.315 400.885L270.786 367.92L270.744 366.323L270.495 356.869L270.455 355.359L360.562 315.9Z" fill="#7EB232"/>
<path d="M360.184 303.284L417.399 336.315L327.964 388.316L270.433 355.352L360.184 303.284Z" fill="#8CD337"/>
<path d="M382.798 347.716L340.979 323.754L352.847 316.87L394.499 340.913L382.798 347.716Z" fill="#7EB232"/>
<path d="M328.895 399.704L328.742 397.854L328.082 389.898L270.495 356.87L270.697 364.565L270.744 366.323L328.895 399.704Z" fill="white"/>
<path d="M176.459 300.539V301.219L216.5 324.28L280.385 287.174V286.492L247.844 267.793L240.198 264.081L228.055 270.476L176.459 300.539Z" fill="#B5A9AD"/>
<path d="M176.459 300.539L216.5 323.6L280.385 286.492L247.844 267.793L240.198 263.401L228.055 270.476L176.459 300.539Z" fill="#D9DDF6"/>
<path d="M182.467 298.302L234.977 267.706L272.937 289.52L220.343 320.069L182.467 298.302Z" fill="#F8F7F5"/>
<path d="M234.917 267.744L234.806 267.94L272.764 289.755L272.876 289.56L234.917 267.744Z" fill="#B5A9AD"/>
<path d="M230.535 270.274L230.423 270.47L268.382 292.285L268.493 292.089L230.535 270.274Z" fill="#B5A9AD"/>
<path d="M226.153 272.807L226.041 273.002L264 294.818L264.111 294.622L226.153 272.807Z" fill="#B5A9AD"/>
<path d="M221.77 275.335L221.658 275.531L259.617 297.347L259.728 297.151L221.77 275.335Z" fill="#B5A9AD"/>
<path d="M217.388 277.868L217.276 278.064L255.235 299.879L255.347 299.684L217.388 277.868Z" fill="#B5A9AD"/>
<path d="M213.005 280.397L212.894 280.593L250.852 302.409L250.964 302.213L213.005 280.397Z" fill="#B5A9AD"/>
<path d="M208.625 282.927L208.513 283.123L246.471 304.939L246.583 304.743L208.625 282.927Z" fill="#B5A9AD"/>
<path d="M204.241 285.459L204.129 285.655L242.087 307.471L242.199 307.275L204.241 285.459Z" fill="#B5A9AD"/>
<path d="M199.86 287.99L199.748 288.186L237.707 310.001L237.818 309.805L199.86 287.99Z" fill="#B5A9AD"/>
<path d="M195.476 290.52L195.364 290.716L233.323 312.532L233.434 312.336L195.476 290.52Z" fill="#B5A9AD"/>
<path d="M191.095 293.051L190.983 293.247L228.942 315.063L229.054 314.867L191.095 293.051Z" fill="#B5A9AD"/>
<path d="M186.712 295.581L186.601 295.776L224.559 317.592L224.671 317.396L186.712 295.581Z" fill="#B5A9AD"/>
<path d="M182.328 298.112L182.217 298.308L220.175 320.123L220.287 319.927L182.328 298.112Z" fill="#B5A9AD"/>
<g opacity="0.4">
<path d="M249.338 266.072L241.104 261.34L228.026 268.961L172.465 301.332V302.066L215.584 326.899L284.379 286.941V286.207L249.338 266.072Z" fill="#3BAAD8"/>
</g>
<path d="M177.743 306.062L177.814 306.736L220.076 325.381L279.659 281.651L279.588 280.974L245.248 265.864L237.252 262.989L225.855 270.65L177.743 306.062Z" fill="#B5A9AD"/>
<path d="M177.743 306.062L220.002 324.706L279.588 280.974L245.248 265.863L237.18 262.312L225.855 270.65L177.743 306.062Z" fill="#D9DDF6"/>
<path d="M183.48 303.195L232.444 267.153L272.505 284.781L223.449 320.783L183.48 303.195Z" fill="#F8F7F5"/>
<path d="M232.373 267.171L232.283 267.377L272.341 285.003L272.431 284.796L232.373 267.171Z" fill="#B5A9AD"/>
<path d="M228.283 270.156L228.193 270.363L268.251 287.988L268.341 287.781L228.283 270.156Z" fill="#B5A9AD"/>
<path d="M224.196 273.141L224.106 273.348L264.163 290.973L264.254 290.766L224.196 273.141Z" fill="#B5A9AD"/>
<path d="M220.107 276.126L220.017 276.333L260.075 293.958L260.165 293.752L220.107 276.126Z" fill="#B5A9AD"/>
<path d="M216.019 279.113L215.929 279.32L255.987 296.945L256.077 296.739L216.019 279.113Z" fill="#B5A9AD"/>
<path d="M211.93 282.096L211.839 282.303L251.897 299.928L251.987 299.721L211.93 282.096Z" fill="#B5A9AD"/>
<path d="M207.841 285.082L207.751 285.289L247.809 302.914L247.899 302.707L207.841 285.082Z" fill="#B5A9AD"/>
<path d="M203.754 288.066L203.664 288.273L243.722 305.898L243.812 305.692L203.754 288.066Z" fill="#B5A9AD"/>
<path d="M199.664 291.052L199.573 291.258L239.631 308.884L239.721 308.677L199.664 291.052Z" fill="#B5A9AD"/>
<path d="M195.576 294.035L195.486 294.242L235.544 311.867L235.634 311.66L195.576 294.035Z" fill="#B5A9AD"/>
<path d="M191.488 297.022L191.398 297.229L231.456 314.854L231.546 314.647L191.488 297.022Z" fill="#B5A9AD"/>
<path d="M187.401 300.006L187.311 300.213L227.368 317.838L227.459 317.632L187.401 300.006Z" fill="#B5A9AD"/>
<path d="M183.31 302.991L183.22 303.197L223.278 320.823L223.368 320.616L183.31 302.991Z" fill="#B5A9AD"/>
<path d="M176.18 297.188V297.868L216.221 320.929L280.106 283.824V283.144L247.567 264.443L239.921 260.73L227.776 267.126L176.18 297.188Z" fill="#B5A9AD"/>
<path d="M176.18 297.188L216.221 320.25L280.106 283.144L247.567 264.442L239.921 260.05L227.776 267.126L176.18 297.188Z" fill="#D9DDF6"/>
<path d="M182.188 294.951L234.698 264.355L272.661 286.17L220.066 316.718L182.188 294.951Z" fill="#F8F7F5"/>
<path d="M234.64 264.393L234.529 264.588L272.487 286.404L272.599 286.208L234.64 264.393Z" fill="#B5A9AD"/>
<path d="M230.256 266.924L230.145 267.12L268.103 288.936L268.215 288.74L230.256 266.924Z" fill="#B5A9AD"/>
<path d="M225.876 269.455L225.764 269.651L263.722 291.466L263.834 291.27L225.876 269.455Z" fill="#B5A9AD"/>
<path d="M221.491 271.986L221.38 272.182L259.338 293.997L259.45 293.801L221.491 271.986Z" fill="#B5A9AD"/>
<path d="M217.111 274.517L216.999 274.712L254.958 296.528L255.069 296.332L217.111 274.517Z" fill="#B5A9AD"/>
<path d="M212.728 277.046L212.616 277.242L250.575 299.057L250.686 298.861L212.728 277.046Z" fill="#B5A9AD"/>
<path d="M208.346 279.578L208.234 279.773L246.193 301.589L246.304 301.393L208.346 279.578Z" fill="#B5A9AD"/>
<path d="M203.963 282.108L203.852 282.304L241.81 304.119L241.922 303.923L203.963 282.108Z" fill="#B5A9AD"/>
<path d="M199.581 284.641L199.47 284.836L237.428 306.652L237.54 306.456L199.581 284.641Z" fill="#B5A9AD"/>
<path d="M195.199 287.169L195.087 287.365L233.045 309.18L233.157 308.984L195.199 287.169Z" fill="#B5A9AD"/>
<path d="M190.817 289.702L190.705 289.898L228.663 311.713L228.775 311.518L190.817 289.702Z" fill="#B5A9AD"/>
<path d="M186.434 292.231L186.322 292.427L224.281 314.243L224.392 314.047L186.434 292.231Z" fill="#B5A9AD"/>
<path d="M182.053 294.761L181.942 294.957L219.9 316.772L220.012 316.577L182.053 294.761Z" fill="#B5A9AD"/>
<path d="M178.533 276.324C174.125 285.671 185.156 288.161 185.45 274.358L180.03 271.987C174.463 276.379 178.533 276.324 178.533 276.324Z" fill="#F4A590"/>
<path d="M260.125 276.714C260.125 276.714 263.617 274.616 256.586 273.81L253.21 278.685C260.671 290.282 268.761 282.348 260.125 276.714Z" fill="#F4A590"/>
<path d="M186.71 248.888C186.71 248.888 190.468 226.863 200.416 221.889L201.878 221.303C209.642 226.283 201.139 241.597 196.566 254.054C194.17 260.579 185.791 276.203 185.791 276.203L179.123 271.91L186.71 248.888Z" fill="#FAC03B"/>
<path d="M228.537 367.435C229.52 368.56 241.023 370.252 240.46 375.465C239.759 378.141 223.346 377.861 220.4 376.591C217.453 375.321 217.876 368.56 217.876 368.56L228.537 367.435Z" fill="#FAC03B"/>
<path d="M200.154 357.854C199.734 365.039 201.698 365.46 204.221 365.322C206.745 365.18 214.737 358.571 214.529 357.016C214.322 355.461 207.308 355.741 207.308 355.741L200.154 357.854Z" fill="#FAC03B"/>
<path d="M216.473 307.421C216.053 308.408 210.302 353.628 210.302 353.628C210.302 353.628 209.741 361.376 199.64 359.263V318.549C199.64 318.549 196.694 292.628 198.378 281.639C200.063 270.65 213.67 284.174 213.67 284.174L216.473 307.421Z" fill="#2D2862"/>
<path d="M229.517 277.979L205.669 282.629C207.632 290.376 212.403 299.535 212.403 299.535L217.873 368.563C224.887 370.817 229.517 368.563 229.517 368.563C229.517 368.563 231.061 315.593 229.517 277.979Z" fill="#2D2862"/>
<path d="M230.641 281.924C216.051 295.73 200.06 287.841 196.413 281.924C196.415 281.12 196.418 280.324 196.425 279.541C196.618 254.587 198.709 239.02 197.749 236.614C197.331 235.568 197.008 234.487 196.791 233.388C196.489 231.86 196.393 230.295 196.526 228.735C197.159 221.367 201.73 218.987 209.316 223.604C218.575 229.239 229.236 230.367 231.201 237.973C231.567 239.389 231.807 241.55 231.947 244.173C232.567 255.633 231.325 275.962 230.641 281.924Z" fill="#FAC03B"/>
<g opacity="0.5">
<path d="M230.917 281.617C216.584 295.691 200.45 288.099 196.694 282.252C196.682 281.448 196.67 280.652 196.662 279.868C207.187 284.531 223.289 277.991 221.4 271.508C218.703 262.258 217.977 253.255 220.886 243.621L231.527 243.846C232.362 255.296 231.493 275.645 230.917 281.617Z" fill="#F57E12"/>
</g>
<path d="M243.075 255.748C243.075 255.748 236.284 234.467 225.744 230.938L224.215 230.563C217.219 236.585 225.067 252.492 234.037 262.248C243.008 272.002 253.144 279.953 253.144 279.953L257.905 273.934L243.075 255.748Z" fill="#FAC03B"/>
<path d="M216.295 228.2C216.295 228.2 207.222 232.471 207.222 225.638V219.374C207.222 219.374 201.836 215.388 202.685 207.986C203.535 200.583 215.443 195.174 221.116 202.292C224.235 206.847 223.548 220.185 222.533 222.223C221.116 225.07 216.011 222.508 216.011 222.508L216.295 228.2Z" fill="#F4A590"/>
<path d="M216.011 222.506L216.174 225.762C213.23 223.659 213.035 220.502 213.035 220.502C213.035 220.502 214.515 221.638 216.574 222.756C216.224 222.612 216.011 222.506 216.011 222.506Z" fill="#FFBD8B"/>
<path d="M217.429 213.109C217.429 210.262 221.965 208.553 223.383 205.992C224.8 203.43 224.516 198.874 224.516 198.874C224.516 198.874 221.965 198.304 221.113 197.736C220.264 197.165 208.356 191.756 202.683 203.144C197.013 208.553 201.833 217.382 207.22 219.374C207.22 222.221 214.875 221.368 215.159 219.374C215.446 217.38 217.429 213.109 217.429 213.109Z" fill="#2D2862"/>
<path d="M218.907 216.019C219.959 214.963 219.959 213.249 218.907 212.193C217.855 211.136 216.149 211.136 215.097 212.193C214.045 213.249 214.045 214.963 215.097 216.019C216.149 217.076 217.855 217.076 218.907 216.019Z" fill="#F4A590"/>
<path d="M216.085 226.997C206.33 230.695 207.224 222.466 207.224 222.466C207.224 222.466 203.883 226.271 207.311 229.467C210.739 232.664 217.735 229.948 218.886 228.232L216.085 226.997Z" fill="#FFFDFF"/>
<g opacity="0.4">
<path d="M411.613 364.032L322.089 415.963L331.263 421.268L420.232 369.336L411.613 364.032Z" fill="#3BAAD8"/>
</g>
<defs>
<filter id="filter0_f_1869_2627" x="0.391724" y="126.684" width="598.537" height="425.527" filterUnits="userSpaceOnUse" color-interpolation-filters="sRGB">
<feFlood flood-opacity="0" result="BackgroundImageFix"/>
<feBlend mode="normal" in="SourceGraphic" in2="BackgroundImageFix" result="shape"/>
<feGaussianBlur stdDeviation="30" result="effect1_foregroundBlur_1869_2627"/>
</filter>
<filter id="filter1_i_1869_2627" x="60.3126" y="173.617" width="478.537" height="312.527" filterUnits="userSpaceOnUse" color-interpolation-filters="sRGB">
<feFlood flood-opacity="0" result="BackgroundImageFix"/>
<feBlend mode="normal" in="SourceGraphic" in2="BackgroundImageFix" result="shape"/>
<feColorMatrix in="SourceAlpha" type="matrix" values="0 0 0 0 0 0 0 0 0 0 0 0 0 0 0 0 0 0 127 0" result="hardAlpha"/>
<feOffset dy="-7"/>
<feGaussianBlur stdDeviation="7.5"/>
<feComposite in2="hardAlpha" operator="arithmetic" k2="-1" k3="1"/>
<feColorMatrix type="matrix" values="0 0 0 0 0.25098 0 0 0 0 0.482353 0 0 0 0 1 0 0 0 0.74 0"/>
<feBlend mode="normal" in2="shape" result="effect1_innerShadow_1869_2627"/>
</filter>
</defs>
</svg>
