<svg width="599" height="521" viewBox="0 0 599 521" fill="none" xmlns="http://www.w3.org/2000/svg" xmlns:xlink="http://www.w3.org/1999/xlink">
<g opacity="0.6" filter="url(#filter0_f_1147_4067)">
<path fill-rule="evenodd" clip-rule="evenodd" d="M269.017 189.273C358.475 168.584 467.046 126.016 515.292 183.805C569.569 248.816 523.146 342.395 449.169 405.057C383.331 460.826 285.685 472.721 203.552 447.865C118.644 422.169 44.3335 363.662 63.4088 288.312C80.5641 220.547 185.743 208.532 269.017 189.273Z" fill="#4281FD"/>
</g>
<g filter="url(#filter1_i_1147_4067)">
<path fill-rule="evenodd" clip-rule="evenodd" d="M268.938 183.206C358.396 162.517 466.967 119.95 515.213 177.738C569.489 242.75 523.067 336.328 449.09 398.991C383.252 454.759 285.606 466.655 203.473 441.798C118.565 416.102 44.2543 357.595 63.3296 282.246C80.4849 214.481 185.664 202.465 268.938 183.206Z" fill="white"/>
</g>
<rect x="84.5" y="0.867676" width="434" height="425" fill="url(#pattern0)"/>
<defs>
<filter id="filter0_f_1147_4067" x="0.391724" y="94.6833" width="598.537" height="425.527" filterUnits="userSpaceOnUse" color-interpolation-filters="sRGB">
<feFlood flood-opacity="0" result="BackgroundImageFix"/>
<feBlend mode="normal" in="SourceGraphic" in2="BackgroundImageFix" result="shape"/>
<feGaussianBlur stdDeviation="30" result="effect1_foregroundBlur_1147_4067"/>
</filter>
<filter id="filter1_i_1147_4067" x="60.3126" y="141.617" width="478.537" height="312.527" filterUnits="userSpaceOnUse" color-interpolation-filters="sRGB">
<feFlood flood-opacity="0" result="BackgroundImageFix"/>
<feBlend mode="normal" in="SourceGraphic" in2="BackgroundImageFix" result="shape"/>
<feColorMatrix in="SourceAlpha" type="matrix" values="0 0 0 0 0 0 0 0 0 0 0 0 0 0 0 0 0 0 127 0" result="hardAlpha"/>
<feOffset dy="-7"/>
<feGaussianBlur stdDeviation="7.5"/>
<feComposite in2="hardAlpha" operator="arithmetic" k2="-1" k3="1"/>
<feColorMatrix type="matrix" values="0 0 0 0 0.25098 0 0 0 0 0.482353 0 0 0 0 1 0 0 0 0.74 0"/>
<feBlend mode="normal" in2="shape" result="effect1_innerShadow_1147_4067"/>
</filter>
<pattern id="pattern0" patternContentUnits="objectBoundingBox" width="1" height="1">
<use xlink:href="#Layer_2" transform="scale(0.00121655 0.00124231)"/>
</pattern>

<style type="text/css">
	.st0{fill:#003DFF;}
	.st1{fill:#C7D7FF;}
	.st2{opacity:0.4;}
	.st3{fill:#3BAAD8;}
	.st4{fill:#2D2B64;}
	.st5{fill:#D9DDF6;}
	.st6{fill:#B4BAEC;}
	.st7{fill:#242454;}
	.st8{fill:#FFFFFF;}
	.st9{fill:#F8F7F5;}
	.st10{fill:#F57E12;}
	.st11{fill:#FEC144;}
	.st12{fill:#F80492;}
	.st13{fill:#F4A590;}
	.st14{fill:#8CD337;}
	.st15{opacity:0.56;}
	.st16{fill:#2BA150;}
	.st17{fill:#3186FB;}
	.st18{fill:#2D2862;}
	.st19{opacity:0.55;}
	.st20{fill:#F86C7D;}
	.st21{fill:#CE0576;}
	.st22{fill:#D80080;}
	.st23{fill:#7EB232;}
	.st24{fill:#B5A9AD;}
	.st25{fill:#FAC03B;}
	.st26{opacity:0.5;}
	.st27{fill:#FFBD8B;}
	.st28{fill:#FFFDFF;}
</style>
<g id="background">
</g>
<g id="Layer_2">
	<g>
		<path class="st0" d="M1274.32,868.97l667.92,388.05c21.74,12.63,21.81,44,0.14,56.74l-889.41,522.56
			c-14.9,8.75-31.43,13.5-48.11,14.23c-19.44,0.86-39.06-3.74-56.51-13.79l-665.98-383.79c-21.91-12.62-21.94-44.23-0.06-56.9
			l910.26-527.15C1217.86,854.27,1249.05,854.29,1274.32,868.97z"/>
		<path class="st1" d="M1942.38,1293.36l-38.52,22.63l-10.25,6.02l-185.64,109.02l-10.25,6.02l-185.63,109.02l-10.25,6.01
			l-185.63,109.02l-10.25,6.02l-185.62,109.02l-10.25,6.02l-57.21,33.6c-14.89,8.75-31.43,13.49-48.11,14.22
			c-19.43,0.85-39.06-3.75-56.51-13.8l-156.09-89.99l-10.34-5.97l-187.37-108.02l-10.34-5.97l-187.37-108.03l-10.34-5.96
			l-104.06-59.99c-21.9-12.62-21.93-44.23-0.05-56.89l60.98-35.3l10.31-5.98l186.99-108.24l10.31-5.98l186.99-108.25l10.31-5.97
			L935.2,997.43l10.32-5.97l186.99-108.24l10.31-5.98l49.82-28.84c25.29-14.64,56.48-14.62,81.75,0.07l113.89,66.19l10.3,5.99
			l186.61,108.46l10.3,5.99l186.61,108.46l10.3,5.98l149.84,87.09C1963.99,1249.26,1964.06,1280.64,1942.38,1293.36z"/>
		<g class="st2">
			<ellipse class="st3" cx="792.84" cy="1477.47" rx="135.01" ry="78.62"/>
		</g>
		<g class="st2">
			<polygon class="st3" points="1791.34,1363.27 1623.3,1266.02 1666.15,1241.93 1375.42,1073.68 1333.24,1098.16 1077.27,950.03 
				1040.43,971.41 1296.4,1119.55 1182.95,1185.4 1472.33,1350.95 1585.89,1287.07 1753.93,1384.32 			"/>
		</g>
		<polygon class="st4" points="1297.74,1029.85 1588.46,1156.36 1588.46,1198.09 1394.65,1307.11 1105.27,1141.56 1105.27,1099.83 
					"/>
		<polygon class="st5" points="1297.74,988.12 1588.46,1156.36 1394.65,1265.39 1105.27,1099.83 		"/>
		<polygon class="st6" points="1455.38,1051.48 1455.38,1164 1455.17,1164.12 1415.82,1186.97 1415.86,1187.05 1415.82,1187.03 
			1246.05,1089.51 1246.05,931.24 		"/>
		<polygon class="st7" points="1455.17,1164.12 1415.82,1186.97 1415.82,1028.86 1455.17,1051.48 		"/>
		<path class="st5" d="M931.12,209.15v570.36c0,17.57,9.39,33.8,24.63,42.55l792.54,455.25c18.55,10.65,39.69,7.68,54.53-3.77
			c11.34-8.75,18.99-22.44,18.99-38.78V664.39c0-17.57-9.39-33.8-24.63-42.55l-792.54-455.25
			C971.92,147.8,931.12,171.42,931.12,209.15z"/>
		<path class="st0" d="M1797.17,621.84l-792.54-455.25c-17.23-9.9-36.7-8.02-51.28,1.48l789.96,453.77
			c15.24,8.75,24.63,24.98,24.63,42.55v570.36c0,16.34-7.65,30.03-18.99,38.78c-1.05,0.81-2.14,1.57-3.25,2.29l2.58,1.48
			c18.55,10.65,39.69,7.68,54.53-3.77c11.34-8.75,18.99-22.44,18.99-38.78V664.39C1821.8,646.82,1812.41,630.59,1797.17,621.84z"/>
		<polygon class="st8" points="1710.23,660.71 1710.23,1204.26 1443.69,1051.16 1423.69,1039.67 1398.23,1025.06 1229.88,928.35 
			991.19,791.24 991.19,247.69 1307.33,429.28 1348.35,452.84 1350.55,454.11 1402.26,483.82 1408.24,487.25 1458.03,515.84 		"/>
		<polygon class="st9" points="1187.91,531.6 1187.91,418.94 1022.3,323.81 1022.3,436.47 		"/>
		<polygon class="st9" points="1187.91,667.83 1187.91,555.16 1022.3,460.03 1022.3,572.7 		"/>
		<polygon class="st9" points="1673.13,795.04 1673.13,682.38 1507.52,587.25 1507.52,699.91 		"/>
		<polygon class="st9" points="1673.13,931.26 1673.13,818.6 1507.52,723.47 1507.52,836.13 		"/>
		<g>
			<polygon class="st10" points="1780.57,381.91 1581.43,267.52 1567.31,275.64 1581.43,703.61 1766.57,825.03 1780.57,818 			"/>
			<polygon class="st11" points="1765.93,389.79 1566.79,275.4 1566.79,711.49 1765.93,825.88 			"/>
			<polygon class="st8" points="1583.78,414.99 1583.78,433.56 1748.95,528.44 1748.95,509.87 			"/>
			<polygon class="st8" points="1583.78,492.98 1583.78,511.55 1748.95,606.42 1748.95,587.85 			"/>
			<polygon class="st8" points="1703.26,403.78 1583.78,335.15 1583.78,353.72 1703.26,422.35 			"/>
			<polygon class="st8" points="1634.56,405.17 1583.78,376 1583.78,394.57 1634.56,423.74 			"/>
			<polygon class="st12" points="1647.56,412.63 1647.56,431.2 1748.95,489.45 1748.95,470.88 			"/>
			<g>
				<polygon class="st8" points="1660.55,498.09 1583.78,453.99 1583.78,472.55 1660.55,516.65 				"/>
				<polygon class="st8" points="1673.55,505.55 1673.55,524.12 1748.95,567.43 1748.95,548.86 				"/>
			</g>
			<polygon class="st8" points="1583.78,622.95 1583.78,641.52 1748.95,736.4 1748.95,717.83 			"/>
			<polygon class="st12" points="1634.56,613.13 1583.78,583.96 1583.78,602.53 1634.56,631.7 			"/>
			<polygon class="st8" points="1647.56,620.59 1647.56,639.16 1748.95,697.4 1748.95,678.84 			"/>
			<g>
				<g>
					<polygon class="st8" points="1660.55,706.04 1583.78,661.94 1583.78,680.51 1660.55,724.61 					"/>
				</g>
				<g>
					<polygon class="st12" points="1673.55,713.51 1673.55,732.08 1748.95,775.39 1748.95,756.82 					"/>
				</g>
			</g>
		</g>
		<g>
			<polygon class="st10" points="1046.55,926.36 1046.55,641.97 847.41,527.58 833.28,535.7 842.89,826.84 1031.43,935.36 			"/>
			<polygon class="st11" points="1031.91,935.41 1031.91,649.85 832.77,535.46 832.77,821.02 			"/>
			<polygon class="st8" points="849.76,675.05 849.76,693.62 1014.93,788.5 1014.93,769.93 			"/>
			<polygon class="st8" points="849.76,753.04 849.76,771.61 1014.93,866.48 1014.93,847.91 			"/>
			<polygon class="st8" points="969.23,663.84 849.76,595.21 849.76,613.78 969.23,682.41 			"/>
			<polygon class="st8" points="900.53,665.23 849.76,636.06 849.76,654.63 900.53,683.8 			"/>
			<polygon class="st12" points="913.53,672.7 913.53,691.26 1014.93,749.51 1014.93,730.94 			"/>
			<g>
				<polygon class="st8" points="926.53,758.15 849.76,714.05 849.76,732.61 926.53,776.71 				"/>
				<polygon class="st8" points="939.53,765.61 939.53,784.18 1014.93,827.49 1014.93,808.92 				"/>
			</g>
		</g>
		<g>
			<polygon class="st10" points="1585.23,1002.5 1980.48,1243.83 1993.43,1237.02 1993.43,1117.12 1585.23,881.09 1571.81,888.08 
							"/>
			<path class="st11" d="M1571.72,887.84v94.01c-14.88,4.26-33.94,9.8-32.56,9.8c1.34,0,18.76,9.64,32.56,17.4v0.2l408.2,234.52
				v-119.9L1571.72,887.84z"/>
			<polygon class="st12" points="1719.29,991.78 1587.65,915.66 1587.65,937.05 1719.29,1013.17 			"/>
			<g>
				<polygon class="st8" points="1681.01,1003.42 1681.01,1024.81 1961.34,1186.9 1961.34,1165.51 				"/>
				<polygon class="st8" points="1667.5,995.61 1587.65,949.44 1587.65,970.83 1667.5,1017 				"/>
			</g>
			<g>
				<polygon class="st8" points="1796.97,1105.37 1587.65,984.34 1587.65,1005.73 1796.97,1126.76 				"/>
				<polygon class="st12" points="1810.48,1113.18 1810.48,1134.57 1961.34,1221.8 1961.34,1200.41 				"/>
			</g>
		</g>
		<g>
			<path class="st13" d="M958.6,733.04c0,0-3.3-13.09,6.39-15.81c7.41-2.08,14.89,13.7,23.6,18.43c8.41,4.56-5.48,39.54-5.48,39.54
				C914.43,786.77,918.07,733.7,958.6,733.04z"/>
			<path class="st14" d="M1236.62,644.16l-10.08,97.64l-2.11,20.44l-2.41,23.42v0.02c0,0-35.56,70.4-63.69,70.4
				c-20.77,0-67.8-20.72-108.3-40.72c-37.74-18.64-69.86-36.64-69.86-36.64l10.08-47.78l144.64,47.78c0,0,47.14-90.65,82.19-121.67
				c0.05-0.05,0.07-0.07,0.12-0.09C1224.61,650.37,1231.32,645.75,1236.62,644.16z"/>
			<g class="st15">
				<path class="st16" d="M1226.54,741.8l-2.11,20.44l-2.41,23.42v0.02c0,0-35.56,70.4-63.69,70.4c-20.77,0-67.8-20.72-108.3-40.72
					C1108.53,834.09,1186.97,832,1226.54,741.8z"/>
			</g>
			<path class="st14" d="M1405.43,925.82c-1.36,17.79,3.94,27.76,11.12,40.35c1.24,2.15,2.53,4.39,3.84,6.77
				c0.51,0.88,1,1.78,1.51,2.71c0.73,1.36,1.49,2.77,2.23,4.23c0.77,1.49,1.53,3.04,2.3,4.65c3.56,7.52,7.11,16.46,10.19,27.77
				c0.88,3.22,1.71,6.62,2.5,10.23c0.01,0.06,0.02,0.1,0.03,0.16c0.18,0.83,0.36,1.67,0.53,2.52c1.59,7.66,2.95,16.25,4.02,25.95
				l-20.01-11.49c-12.21,5.22-23.16-2.09-25.45-14.61l-168.35-96.71c0.43-6.37,0.41-13-0.21-19.99
				c-4.28-48.17-26.4-42.81-32.4-82.72c-0.14-0.79-0.25-1.6-0.35-2.43c-1.93-15.05-0.18-27.78,2.98-38.77
				c5.81-20.11,16.35-34.38,17.75-46.38c2.18-18.55,0-79.7,13.1-90.62c1.18-0.98,3.15-2.02,5.83-3.01
				c11.03-4.12,34.15-7.79,64.04-6.05c0.08,0,0.16,0,0.23,0.01c1.33,0.08,2.68,0.16,4.03,0.27h0.02c10.4,0.77,21.57,2.2,33.28,4.46
				c5.84,1.15,11.83,2.5,17.93,4.08l0.02,0.01c4.45,1.16,8.96,2.44,13.52,3.86c0.23,0.07,0.46,0.15,0.7,0.21
				c20.49,6.44,41.97,15.63,63.51,28.42c0.44,0.26,0.89,0.52,1.34,0.8c0.92,0.55,1.85,1.11,2.77,1.69c1.33,0.81,2.67,1.64,4,2.5
				c5.2,4.27,10.5,8.96,15.86,14.01v5.52c-3.87,34.88-12.05,60.31-26.82,93.07c-1.2,2.67-2.45,5.38-3.75,8.16
				c-0.71,1.53-1.44,3.08-2.18,4.66C1406.52,849.4,1408.7,883.24,1405.43,925.82z"/>
			<path class="st17" d="M1439.15,1022.69c-0.01-0.05-0.02-0.1-0.03-0.15c0.02,0.1,0.02,0.14,0.02,0.14L1439.15,1022.69z"/>
			<g class="st15">
				<path class="st16" d="M1312.64,887.61c0,0-1.09,38.21,60.04,62.23c43.55,17.11,58.78,46.8,63.93,62.47
					c-3.08-11.32-6.63-20.26-10.19-27.77c-3.38-7.14-6.8-12.99-9.88-18.36c-7.18-12.59-12.48-22.57-11.11-40.35
					c3.28-42.58,1.09-76.42,19.65-115.72c2.09-4.42,4.06-8.68,5.93-12.83c14.77-32.76,22.95-58.19,26.82-93.07v-5.51
					c-5.36-5.04-10.67-9.74-15.86-14.01c-2.25-1.44-4.51-2.84-6.77-4.19c-0.45-0.27-0.9-0.53-1.34-0.8c-2.92-0.34-5.5-0.2-7.69,0.49
					c-24.02,7.64-29.48,110.26-51.31,145.2c-21.83,34.93-38.21,54.59-87.34,41.49h-7.64
					C1295.17,886.52,1312.64,887.61,1312.64,887.61z"/>
			</g>
			<path class="st13" d="M1450.89,1001.65c-0.16,0.47-0.32,0.93-0.48,1.4c-3.21,9.21-6.87,16.5-10.73,22.17
				c-5.17,7.58-10.7,12.19-15.99,14.46c-12.21,5.22-23.16-2.09-25.45-14.61c-1.16-6.25-0.16-13.8,3.93-21.73
				c0,0-13.1-3.28-10.92-13.09c1.55-7.01,16.44-7.35,25.51-11.2c1.73-0.74,3.25-1.6,4.42-2.67c0.26-0.23,0.51-0.47,0.72-0.72
				c0.91-1.02,1.51-2.21,1.73-3.61L1450.89,1001.65z"/>
			<path class="st14" d="M1560.03,839.56c-15.13-37.53-58.17-128.51-130.7-161.69l-14.45-2.92c-35.22,13.63-39.76,68.16-39.76,68.16
				c8.13,17.55,98.5,111.79,98.5,111.79l-53.92,119.56c14.07,18.75,38.68,33.99,38.68,33.99l98.08-138.59
				C1562.72,861.02,1564.08,849.61,1560.03,839.56z"/>
			<path class="st8" d="M1371.65,649.78l-56.26,65.64l-25.79-30.48l-25.79,11.72c0,0,7.03-37.51,37.51-58.61L1371.65,649.78z"/>
			<circle class="st18" cx="1422.05" cy="454.04" r="71.5"/>
			<path class="st13" d="M1290.8,685.64l79.7-34.93l-5.46-64.41l-4.17,1.63l-60.24,23.48v27.29c0,0-2.22,1.9-5.16,4.99
				C1286.52,653.1,1290.8,685.64,1290.8,685.64z"/>
			<g class="st19">
				<path class="st20" d="M1295.47,643.69c13.57,26.19,53.07,9.72,68.48-51.93l-3.08-3.83l-60.24,23.48v27.29
					C1300.63,638.7,1298.41,640.6,1295.47,643.69z"/>
			</g>
			
				<ellipse transform="matrix(0.9871 -0.1602 0.1602 0.9871 -58.4799 226.3829)" class="st21" cx="1374.92" cy="475.92" rx="35.19" ry="35.19"/>
			<path class="st13" d="M1307.74,483.38l-29.86-6.4l-21.32,25.59c0,0-23.58,124.56,46.92,134.35
				c76.77,10.66,76.77-106.63,76.77-106.63L1307.74,483.38z"/>
			<path class="st18" d="M1239.5,487.65c10.66-70.37,125.82-78.9,151.41-21.33c40.52,44.78-10.66,98.1-10.66,98.1
				s-109.26,1.76-118.32-51.27c-12.63,13.78-9.16,25.68-9.16,25.68S1233.11,534.56,1239.5,487.65z"/>
			<circle class="st18" cx="1356.36" cy="560.02" r="20.26"/>
			<circle class="st13" cx="1364.26" cy="565.48" r="20.26"/>
		</g>
		<g>
			<polygon class="st22" points="1338.08,1334.58 1568.19,1416.85 1569.11,1467.77 1207.5,1677.27 974.54,1544.35 974.37,1537.91 
				973.36,1499.79 973.2,1493.7 			"/>
			<polygon class="st12" points="1336.55,1283.72 1568.22,1416.9 1206.07,1626.58 973.11,1493.66 			"/>
			<polygon class="st8" points="1428.12,1462.87 1258.78,1366.25 1306.84,1338.49 1475.49,1435.45 			"/>
			<polygon class="st8" points="1209.84,1672.51 1209.22,1665.04 1206.56,1632.97 973.36,1499.79 974.18,1530.81 974.37,1537.91 			
				"/>
		</g>
		<g>
			<polygon class="st23" points="1362.84,1273.79 1592.96,1356.06 1593.88,1406.97 1232.26,1616.47 999.31,1483.55 999.14,1477.11 
				998.13,1438.99 997.97,1432.9 			"/>
			<polygon class="st14" points="1361.31,1222.92 1592.99,1356.11 1230.84,1565.79 997.88,1432.87 			"/>
			<polygon class="st23" points="1452.88,1402.08 1283.54,1305.46 1331.6,1277.7 1500.26,1374.65 			"/>
			<polygon class="st8" points="1234.61,1611.71 1233.99,1604.25 1231.32,1572.17 998.13,1438.99 998.95,1470.02 999.14,1477.11 			
				"/>
		</g>
		<g>
			<g>
				<g>
					<polygon class="st24" points="617.35,1211.85 617.35,1214.59 779.49,1307.58 1038.18,1157.96 1038.18,1155.21 906.41,1079.81 
						875.45,1064.84 826.28,1090.63 					"/>
				</g>
				<g>
					<polygon class="st5" points="617.35,1211.85 779.49,1304.84 1038.18,1155.21 906.41,1079.81 875.45,1062.1 826.28,1090.63 
											"/>
				</g>
				<polygon class="st9" points="641.68,1202.83 854.31,1079.46 1008.02,1167.42 795.05,1290.6 				"/>
				<g>
					
						<rect x="930.25" y="1035.35" transform="matrix(0.4967 -0.8679 0.8679 0.4967 -507.0204 1373.5088)" class="st24" width="0.91" height="177.1"/>
					
						<rect x="912.51" y="1045.55" transform="matrix(0.4967 -0.8679 0.8679 0.4967 -524.8086 1363.2462)" class="st24" width="0.91" height="177.1"/>
					
						<rect x="894.76" y="1055.76" transform="matrix(0.4967 -0.8679 0.8679 0.4967 -542.597 1352.9823)" class="st24" width="0.91" height="177.1"/>
					
						<rect x="877.02" y="1065.96" transform="matrix(0.4967 -0.8679 0.8679 0.4967 -560.3857 1342.7158)" class="st24" width="0.91" height="177.1"/>
					
						<rect x="859.27" y="1076.17" transform="matrix(0.4967 -0.8679 0.8679 0.4967 -578.174 1332.4525)" class="st24" width="0.91" height="177.1"/>
					
						<rect x="841.53" y="1086.37" transform="matrix(0.4967 -0.8679 0.8679 0.4967 -595.9624 1322.1892)" class="st24" width="0.91" height="177.1"/>
					
						<rect x="823.79" y="1096.58" transform="matrix(0.4967 -0.8679 0.8679 0.4967 -613.751 1311.9222)" class="st24" width="0.91" height="177.1"/>
					
						<rect x="806.04" y="1106.78" transform="matrix(0.4967 -0.8679 0.8679 0.4967 -631.5393 1301.6598)" class="st24" width="0.91" height="177.1"/>
					
						<rect x="788.3" y="1116.99" transform="matrix(0.4967 -0.8679 0.8679 0.4967 -649.3277 1291.3958)" class="st24" width="0.91" height="177.1"/>
					
						<rect x="770.55" y="1127.19" transform="matrix(0.4967 -0.8679 0.8679 0.4967 -667.1163 1281.1283)" class="st24" width="0.91" height="177.1"/>
					
						<rect x="752.81" y="1137.4" transform="matrix(0.4967 -0.8679 0.8679 0.4967 -684.9047 1270.8655)" class="st24" width="0.91" height="177.1"/>
					
						<rect x="735.07" y="1147.6" transform="matrix(0.4967 -0.8679 0.8679 0.4967 -702.6931 1260.6013)" class="st24" width="0.91" height="177.1"/>
					
						<rect x="717.32" y="1157.8" transform="matrix(0.4967 -0.8679 0.8679 0.4967 -720.4815 1250.3357)" class="st24" width="0.91" height="177.1"/>
				</g>
			</g>
			<g class="st2">
				<polygon class="st3" points="912.46,1072.87 879.12,1053.79 826.16,1084.52 601.18,1215.05 601.18,1218.01 775.78,1318.14 
					1054.35,1157.02 1054.35,1154.06 				"/>
			</g>
			<g>
				<g>
					<polygon class="st24" points="622.55,1234.12 622.84,1236.84 793.97,1312.02 1035.24,1135.69 1034.95,1132.96 895.9,1072.03 
						863.52,1060.44 817.37,1091.33 					"/>
				</g>
				<g>
					<polygon class="st5" points="622.55,1234.12 793.67,1309.3 1034.95,1132.96 895.9,1072.03 863.23,1057.71 817.37,1091.33 					
						"/>
				</g>
				<polygon class="st9" points="645.78,1222.56 844.05,1077.23 1006.27,1148.31 807.63,1293.48 				"/>
				<g>
					
						<rect x="924.3" y="1024.73" transform="matrix(0.4013 -0.9159 0.9159 0.4013 -466.0712 1513.4785)" class="st24" width="0.91" height="177.1"/>
					
						<rect x="907.74" y="1036.76" transform="matrix(0.4013 -0.9159 0.9159 0.4013 -487.0076 1505.5212)" class="st24" width="0.91" height="177.1"/>
					
						<rect x="891.19" y="1048.8" transform="matrix(0.4013 -0.9159 0.9159 0.4013 -507.9437 1497.5656)" class="st24" width="0.91" height="177.1"/>
					
						<rect x="874.63" y="1060.84" transform="matrix(0.4013 -0.9159 0.9159 0.4013 -528.8807 1489.6061)" class="st24" width="0.91" height="177.1"/>
					
						<rect x="858.07" y="1072.88" transform="matrix(0.4013 -0.9159 0.9159 0.4013 -549.8171 1481.6492)" class="st24" width="0.91" height="177.1"/>
					
						<rect x="841.52" y="1084.91" transform="matrix(0.4013 -0.9159 0.9159 0.4013 -570.7536 1473.6915)" class="st24" width="0.91" height="177.1"/>
					
						<rect x="824.96" y="1096.95" transform="matrix(0.4013 -0.9159 0.9159 0.4013 -591.6904 1465.7319)" class="st24" width="0.91" height="177.1"/>
					
						<rect x="808.41" y="1108.99" transform="matrix(0.4013 -0.9159 0.9159 0.4013 -612.6263 1457.7775)" class="st24" width="0.91" height="177.1"/>
					
						<rect x="791.85" y="1121.02" transform="matrix(0.4013 -0.9159 0.9159 0.4013 -633.5629 1449.8202)" class="st24" width="0.91" height="177.1"/>
					
						<rect x="775.3" y="1133.06" transform="matrix(0.4013 -0.9159 0.9159 0.4013 -654.4998 1441.8596)" class="st24" width="0.91" height="177.1"/>
					
						<rect x="758.74" y="1145.1" transform="matrix(0.4013 -0.9159 0.9159 0.4013 -675.436 1433.9047)" class="st24" width="0.91" height="177.1"/>
					
						<rect x="742.19" y="1157.14" transform="matrix(0.4013 -0.9159 0.9159 0.4013 -696.3724 1425.9475)" class="st24" width="0.91" height="177.1"/>
					
						<rect x="725.63" y="1169.17" transform="matrix(0.4013 -0.9159 0.9159 0.4013 -717.3091 1417.9874)" class="st24" width="0.91" height="177.1"/>
				</g>
			</g>
			<g>
				<g>
					<polygon class="st24" points="616.22,1198.34 616.22,1201.08 778.36,1294.07 1037.05,1144.45 1037.05,1141.71 905.29,1066.3 
						874.33,1051.33 825.15,1077.12 					"/>
				</g>
				<g>
					<polygon class="st5" points="616.22,1198.34 778.36,1291.33 1037.05,1141.71 905.29,1066.3 874.33,1048.59 825.15,1077.12 
											"/>
				</g>
				<polygon class="st9" points="640.55,1189.32 853.18,1065.95 1006.9,1153.91 793.93,1277.09 				"/>
				<g>
					
						<rect x="929.13" y="1021.84" transform="matrix(0.4967 -0.8679 0.8679 0.4967 -495.8614 1365.7321)" class="st24" width="0.91" height="177.1"/>
					
						<rect x="911.38" y="1032.04" transform="matrix(0.4967 -0.8679 0.8679 0.4967 -513.6497 1355.4685)" class="st24" width="0.91" height="177.1"/>
					
						<rect x="893.64" y="1042.25" transform="matrix(0.4967 -0.8679 0.8679 0.4967 -531.4381 1345.205)" class="st24" width="0.91" height="177.1"/>
					
						<rect x="875.89" y="1052.45" transform="matrix(0.4967 -0.8679 0.8679 0.4967 -549.2266 1334.9395)" class="st24" width="0.91" height="177.1"/>
					
						<rect x="858.15" y="1062.66" transform="matrix(0.4967 -0.8679 0.8679 0.4967 -567.0151 1324.6755)" class="st24" width="0.91" height="177.1"/>
					
						<rect x="840.41" y="1072.86" transform="matrix(0.4967 -0.8679 0.8679 0.4967 -584.8035 1314.4113)" class="st24" width="0.91" height="177.1"/>
					
						<rect x="822.66" y="1083.07" transform="matrix(0.4967 -0.8679 0.8679 0.4967 -602.5922 1304.144)" class="st24" width="0.91" height="177.1"/>
					
						<rect x="804.92" y="1093.27" transform="matrix(0.4967 -0.8679 0.8679 0.4967 -620.3804 1293.8828)" class="st24" width="0.91" height="177.1"/>
					
						<rect x="787.17" y="1103.48" transform="matrix(0.4967 -0.8679 0.8679 0.4967 -638.1688 1283.6185)" class="st24" width="0.91" height="177.1"/>
					
						<rect x="769.43" y="1113.68" transform="matrix(0.4967 -0.8679 0.8679 0.4967 -655.9573 1273.3519)" class="st24" width="0.91" height="177.1"/>
					
						<rect x="751.68" y="1123.89" transform="matrix(0.4967 -0.8679 0.8679 0.4967 -673.7457 1263.0903)" class="st24" width="0.91" height="177.1"/>
					
						<rect x="733.94" y="1134.09" transform="matrix(0.4967 -0.8679 0.8679 0.4967 -691.5341 1252.8258)" class="st24" width="0.91" height="177.1"/>
					
						<rect x="716.2" y="1144.3" transform="matrix(0.4967 -0.8679 0.8679 0.4967 -709.3225 1242.5585)" class="st24" width="0.91" height="177.1"/>
				</g>
			</g>
		</g>
		<g>
			<g>
				<path class="st13" d="M625.75,1114.21c-17.85,37.69,26.82,47.73,28.01-7.93l-21.95-9.56
					C609.27,1114.43,625.75,1114.21,625.75,1114.21z"/>
				<path class="st13" d="M956.14,1115.78c0,0,14.14-8.46-14.33-11.71l-13.67,19.66C958.35,1170.49,991.11,1138.5,956.14,1115.78z"
					/>
			</g>
			<path class="st25" d="M658.86,1003.58c0,0,15.22-88.81,55.5-108.87l5.92-2.36c31.44,20.08-2.99,81.83-21.51,132.06
				c-9.7,26.31-43.63,89.31-43.63,89.31l-27-17.31L658.86,1003.58z"/>
			<path class="st25" d="M828.23,1481.59c3.98,4.54,50.56,11.36,48.28,32.38c-2.84,10.79-69.3,9.66-81.23,4.54
				s-10.22-32.38-10.22-32.38L828.23,1481.59z"/>
			<path class="st25" d="M713.3,1442.96c-1.7,28.97,6.25,30.67,16.47,30.11c10.22-0.57,42.58-27.22,41.74-33.49
				c-0.84-6.27-29.24-5.14-29.24-5.14L713.3,1442.96z"/>
			<path class="st18" d="M779.38,1239.6c-1.7,3.98-24.99,186.32-24.99,186.32s-2.27,31.24-43.17,22.72v-164.17
				c0,0-11.93-104.52-5.11-148.83c6.82-44.31,61.92,10.22,61.92,10.22L779.38,1239.6z"/>
			<path class="st18" d="M832.2,1120.88l-96.57,18.75c7.95,31.24,27.27,68.17,27.27,68.17l22.15,278.34c28.4,9.09,47.15,0,47.15,0
				S838.45,1272.55,832.2,1120.88z"/>
			<path class="st25" d="M836.75,1136.79c-59.08,55.67-123.83,23.86-138.6,0c0.01-3.24,0.02-6.45,0.05-9.61
				c0.78-100.62,9.25-163.39,5.36-173.09c-1.69-4.22-3-8.58-3.88-13.01c-1.22-6.16-1.61-12.47-1.07-18.76
				c2.56-29.71,21.07-39.31,51.79-20.69c37.49,22.72,80.66,27.27,88.62,57.94c1.48,5.71,2.45,14.42,3.02,25
				C844.55,1030.78,839.52,1112.75,836.75,1136.79z"/>
			<g class="st26">
				<path class="st10" d="M837.87,1135.55c-58.04,56.75-123.37,26.14-138.58,2.56c-0.05-3.24-0.1-6.45-0.13-9.61
					c42.62,18.8,107.82-7.57,100.17-33.71c-10.92-37.3-13.86-73.6-2.08-112.45l43.09,0.91
					C843.72,1029.42,840.2,1111.47,837.87,1135.55z"/>
			</g>
			<path class="st25" d="M887.1,1031.24c0,0-27.5-85.81-70.18-100.04l-6.19-1.51c-28.33,24.28,3.45,88.42,39.77,127.76
				c36.33,39.33,77.37,71.39,77.37,71.39l19.28-24.27L887.1,1031.24z"/>
			<path class="st13" d="M778.66,920.16c0,0-36.74,17.22-36.74-10.33v-25.26c0,0-21.81-16.07-18.37-45.92
				c3.44-29.85,51.66-51.66,74.63-22.96c12.63,18.37,9.85,72.15,5.74,80.37c-5.74,11.48-26.41,1.15-26.41,1.15L778.66,920.16z"/>
			<path class="st27" d="M777.51,897.2l0.66,13.13c-11.92-8.48-12.71-21.21-12.71-21.21s5.99,4.58,14.33,9.09
				C778.37,897.63,777.51,897.2,777.51,897.2z"/>
			<path class="st18" d="M783.25,859.31c0-11.48,18.37-18.37,24.11-28.7s4.59-28.7,4.59-28.7s-10.33-2.3-13.78-4.59
				c-3.44-2.3-51.66-24.11-74.63,21.81c-22.96,21.81-3.44,57.41,18.37,65.44c0,11.48,31,8.04,32.15,0
				C775.22,876.53,783.25,859.31,783.25,859.31z"/>
			
				<ellipse transform="matrix(0.7071 -0.7071 0.7071 0.7071 -381.5585 805.4891)" class="st13" cx="781.53" cy="863.33" rx="10.91" ry="10.91"/>
			<path class="st28" d="M777.81,915.31c-39.5,14.91-35.88-18.27-35.88-18.27s-13.53,15.34,0.35,28.23
				c13.88,12.89,42.21,1.94,46.87-4.98L777.81,915.31z"/>
		</g>
		<g class="st2">
			<polygon class="st3" points="1569.56,1467.87 1207.05,1677.27 1244.2,1698.66 1604.46,1489.26 			"/>
		</g>
	</g>
</g>
</defs>
</svg>
