<svg width="1440" height="755" viewBox="0 0 1440 755" fill="none" xmlns="http://www.w3.org/2000/svg">
<g opacity="0.15" clip-path="url(#clip0_1147_4005)">
<rect width="2475" height="755" transform="translate(-585)" fill="white"/>
<path opacity="0.3" d="M470.066 755C442.552 755 408.241 735.988 365.773 697.4C319.892 655.719 271.027 597.583 223.771 541.358C146.236 449.115 72.9923 362.014 35.4352 378.181C6.68268 390.553 0.450677 463 16.3953 599.508L15.3635 599.631C6.97158 527.679 4.72916 474.685 8.48487 437.595C12.0067 403.118 20.6737 383.363 34.995 377.191C52.5216 369.63 77.8349 382.47 114.677 417.621C147.322 448.771 184.838 493.394 224.541 540.629C316.715 650.33 421.269 774.658 487.565 750.958C509.164 743.246 525.989 719.822 537.559 681.344C550.257 639.127 557.163 577.114 558.071 497.065C559.859 338.012 574.579 257.674 602.891 251.461C638.578 243.638 688.998 349.807 742.389 462.216C793.291 569.319 845.885 680.065 880.732 672.408C908.549 666.304 922.952 586.297 924.755 427.794C925.759 338.85 932.844 270.431 945.803 224.448C957.565 182.725 974.693 157.981 996.484 150.915C1024.54 141.842 1060.96 160.854 1107.82 209.065C1148.58 250.993 1191.95 309.514 1230.26 361.162C1287.15 437.925 1336.27 504.227 1359.33 494.783C1376.35 487.827 1378.15 438.75 1364.83 344.762L1365.86 344.61C1379.43 440.455 1377.48 488.473 1359.72 495.745C1335.92 505.478 1286.58 438.887 1229.43 361.767C1191.19 310.16 1147.85 251.653 1107.15 209.78C1060.58 161.885 1024.51 142.955 996.856 151.891C975.34 158.847 958.515 183.358 946.862 224.75C933.917 270.651 926.846 338.974 925.841 427.835C924.039 586.888 909.333 667.225 881.02 673.439C879.778 673.713 878.51 673.852 877.237 673.851C841.799 673.851 793.043 571.175 741.523 462.683C690.621 355.622 638.096 244.834 603.139 252.533C575.308 258.623 560.918 338.63 559.116 497.134C557.355 652.117 534.078 735.493 487.923 751.99C482.19 754.018 476.148 755.037 470.066 755Z" fill="#50F060"/>
<path opacity="0.3" d="M461.688 742.642C433.857 742.642 399.244 724.317 356.652 687.172C310.097 646.564 260.599 589.692 212.724 534.69C134.157 444.428 60.0193 359.182 21.623 376.036C-7.47341 388.821 -14.2282 459.893 0.987258 593.363L-0.0445309 593.473C-8.03745 523.184 -9.96347 471.317 -5.9051 434.887C-2.12188 401.014 6.75148 381.452 21.2378 375.088C39.1221 367.224 64.8206 379.514 102.171 413.758C135.285 444.125 173.296 487.786 213.605 534.017C306.919 641.34 412.809 762.987 480.563 738.353C502.464 730.407 519.661 707.174 531.643 669.315C544.795 627.799 552.279 567.037 553.737 488.762C556.722 332.651 572.241 253.688 601.144 247.309C637.573 239.281 688.2 343.195 741.784 453.198C792.851 558.005 845.678 666.387 881.282 658.537C909.663 652.282 924.906 573.636 927.891 418.088C929.556 331.001 937.232 263.915 950.714 218.674C962.931 177.625 980.402 153.114 1002.61 145.815C1031.25 136.412 1068.27 154.695 1115.76 201.71C1157.03 242.594 1200.92 299.864 1239.57 350.384C1297.11 425.512 1346.78 490.384 1370.27 480.568C1387.5 473.365 1389.65 425.195 1376.82 333.31L1377.83 333.173C1390.92 426.873 1388.65 474.011 1370.67 481.517C1368.95 482.221 1367.11 482.577 1365.26 482.562C1339.46 482.562 1292.5 421.25 1238.69 351.017C1200.02 300.51 1156.15 243.281 1114.88 202.439C1067.69 155.699 1030.96 137.525 1002.77 146.791C980.911 153.953 963.674 178.23 951.554 218.949C938.099 264.094 930.436 331.097 928.772 418.074C925.773 574.172 910.268 653.148 881.351 659.513C880.023 659.811 878.667 659.959 877.306 659.953C841.235 659.953 792.356 559.6 740.711 453.624C689.644 348.817 636.844 240.463 601.213 248.285C572.846 254.54 557.589 333.2 554.618 488.748C551.701 640.364 527.543 722.31 480.755 739.287C474.644 741.508 468.191 742.643 461.688 742.642Z" fill="#260488"/>
<path opacity="0.3" d="M453.213 730.558C425.011 730.558 390.164 712.92 347.476 677.192C300.22 637.642 250.047 582.008 201.526 528.216C121.872 439.905 46.6473 356.474 7.54943 374.015C-21.8772 387.212 -29.1547 456.992 -14.7235 587.355L-15.7415 587.465C-30.2415 456.607 -22.7577 386.47 7.13668 373.012C25.3512 364.846 51.4761 376.586 89.3634 409.936C122.972 439.506 161.506 482.232 202.31 527.473C296.918 632.5 404.293 751.508 473.519 725.98C495.737 717.801 513.291 694.761 525.7 657.506C539.292 616.664 547.258 557.153 549.349 480.61C553.476 327.399 569.902 249.756 599.37 243.226C616.332 239.473 637.119 258.032 664.758 301.637C688.956 339.826 715.522 392.959 741.22 444.331C792.507 546.898 845.527 652.956 881.915 644.887C910.805 638.48 926.956 561.153 931.138 408.438C933.463 323.206 941.731 257.427 955.722 212.928C968.406 172.525 986.277 148.234 1008.82 140.742C1038.1 131.023 1075.73 148.578 1123.86 194.355C1165.74 234.222 1210.12 290.255 1249.27 339.689C1307.48 413.194 1357.78 476.678 1381.73 466.464C1399.2 459.027 1401.68 411.751 1389.31 321.928L1390.33 321.79C1402.94 413.387 1400.34 459.659 1382.07 467.413C1357.39 477.929 1306.87 414.17 1248.39 340.335C1209.27 290.915 1164.91 234.923 1123.09 195.112C1075.24 149.568 1037.95 132.095 1009.09 141.677C986.868 149.073 969.19 173.13 956.63 213.161C942.68 257.564 934.426 323.261 932.101 408.369C927.974 561.58 911.465 639.223 882.066 645.753C865.103 649.505 844.33 630.947 816.692 587.341C792.479 549.152 765.914 496.02 740.229 444.647C688.998 342.273 635.964 236.215 599.576 244.271C570.686 250.677 554.521 328.018 550.353 480.72C546.226 628.995 521.27 709.566 473.849 727.025C467.235 729.419 460.247 730.616 453.213 730.558Z" fill="#18E6DA"/>
<path opacity="0.3" d="M444.629 718.749C416.083 718.749 381.002 701.799 338.203 667.473C290.218 628.981 239.344 574.557 190.149 521.947C109.366 435.533 33.0553 353.903 -6.82681 372.104C-36.5698 385.714 -44.3702 454.215 -30.6818 581.526L-31.6998 581.636C-45.457 453.789 -37.4641 385.054 -7.25328 371.169C11.3052 362.688 37.8703 373.85 76.3217 406.321C110.439 435.121 149.524 476.939 190.905 521.204C286.917 623.895 395.75 740.291 466.475 713.869C489.01 705.456 506.921 682.594 519.743 645.931C533.775 605.762 542.25 547.461 544.933 472.636C550.325 322.313 567.549 245.962 597.595 239.336C614.902 235.486 635.936 253.536 663.795 296.138C688.186 333.461 714.875 385.494 740.697 435.725C792.232 536.079 845.472 639.855 882.672 631.593C912.194 625.022 929.157 548.987 934.522 399.145C937.508 315.741 946.367 251.24 960.854 207.47C974.005 167.714 992.275 143.643 1015.17 135.985C1045.06 125.923 1083.32 142.735 1132.1 187.399C1174.57 226.248 1219.49 281.058 1259.12 329.434C1318.06 401.358 1368.96 463.467 1393.39 452.84C1411.07 445.156 1413.88 398.76 1401.99 310.985L1403.01 310.848C1415.14 400.368 1412.21 445.788 1393.81 453.817C1368.63 464.814 1317.52 402.348 1258.33 330.093C1218.72 281.759 1173.81 226.991 1131.4 188.169C1082.88 143.78 1044.95 127.036 1015.44 136.975C992.88 144.577 974.817 168.428 961.789 207.855C947.344 251.543 938.498 315.934 935.513 399.255C930.12 549.633 912.896 625.984 882.85 632.665C865.53 636.514 844.495 618.465 816.651 575.849C792.259 538.539 765.557 486.493 739.734 436.262C688.2 335.908 634.918 232.146 597.774 240.408C568.251 246.979 551.288 323.014 545.923 472.842C540.723 617.832 514.846 697.043 466.805 714.996C459.699 717.568 452.187 718.839 444.629 718.749Z" fill="#4E71EC"/>
<path opacity="0.3" d="M435.934 707.229C407.044 707.229 371.743 690.952 328.862 658.014C280.12 620.54 228.517 567.284 178.62 515.87C96.6272 431.326 19.188 351.47 -21.4782 370.441C-51.5377 384.463 -59.847 451.713 -46.874 576.014L-47.9058 576.124C-60.9201 451.328 -52.4319 383.748 -21.9185 369.506C-2.98859 360.68 24.003 371.307 63.0459 402.925C97.6727 430.955 137.335 471.866 179.335 515.183C276.75 615.619 387.138 729.471 459.432 702.142C482.255 693.495 500.538 670.813 513.745 634.782C528.218 595.273 537.215 538.168 540.475 465.048C547.065 317.46 565.156 242.346 595.793 235.472C613.471 231.417 634.767 248.958 662.859 290.612C687.457 327.069 714.297 377.947 740.257 427.133C792.053 525.328 845.651 626.864 883.552 618.382C913.653 611.646 931.482 536.876 938.044 389.81C941.69 308.18 951.141 244.958 966.122 201.888C979.728 162.751 998.411 138.9 1021.65 130.968C1052.19 120.534 1091.11 136.618 1140.66 180.141C1183.75 217.986 1229.23 271.613 1269.37 318.986C1329.05 389.357 1380.63 450.132 1405.57 439.079C1423.45 431.147 1426.59 385.604 1415.2 299.836L1416.23 299.712C1427.9 387.171 1424.66 431.766 1406.04 440.028C1380.41 451.397 1328.62 390.346 1268.67 319.659C1228.57 272.369 1183.1 218.77 1140.07 180.966C1090.71 137.607 1052.19 121.647 1021.92 131.944C999.002 139.766 980.54 163.411 967.044 202.218C952.09 245.205 942.667 308.332 939.021 389.851C932.445 537.453 914.354 612.553 883.717 619.427C866.067 623.386 844.757 605.831 816.664 564.191C792.067 527.72 765.24 476.856 739.28 427.656C687.526 329.42 633.969 227.87 596.027 236.38C565.912 243.116 548.083 317.872 541.521 464.938C535.193 606.697 508.504 684.574 459.803 703.008C452.173 705.863 444.082 707.294 435.934 707.229Z" fill="#1019F4"/>
<path opacity="0.3" d="M427.13 695.984C397.91 695.984 362.389 680.381 319.452 648.79C269.926 612.347 217.553 560.315 166.899 509.946C83.6679 427.244 5.05939 349.105 -36.4323 368.86C-66.7944 383.308 -75.599 449.307 -63.3551 570.639L-64.3869 570.749C-76.672 448.923 -67.6748 382.579 -36.8725 367.925C-17.6125 358.742 9.90191 368.791 49.5364 399.543C84.7135 426.817 124.995 466.904 167.628 509.217C266.487 607.453 378.539 718.79 452.402 690.389C475.541 681.495 494.169 658.991 507.788 623.468C522.687 584.606 532.193 528.683 536.032 457.24C543.818 312.373 562.776 238.524 594.005 231.5C612.013 227.458 633.598 244.504 661.924 285.113C686.687 320.745 713.719 370.51 739.831 418.652C791.915 514.716 845.761 614.052 884.515 605.336C915.235 598.463 933.931 524.902 941.69 380.545C945.982 300.688 955.997 238.717 971.488 196.335C985.548 157.843 1004.64 134.157 1028.21 125.991C1059.42 115.2 1099.03 130.555 1149.27 172.937C1193.02 209.807 1239.09 262.293 1279.76 308.552C1340.29 377.397 1392.47 436.853 1417.88 425.401C1435.97 417.153 1439.42 372.517 1428.45 288.742L1429.46 288.605C1440.68 374.056 1437.13 417.827 1418.31 426.336C1416.01 427.359 1413.53 427.875 1411.02 427.848C1383.14 427.848 1334.53 372.503 1278.95 309.28C1238.31 263.022 1192.28 210.591 1148.57 173.776C1098.58 131.641 1059.29 116.341 1028.47 127.036C1005.21 135.092 986.332 158.544 972.368 196.761C956.919 239.033 946.917 300.922 942.639 380.669C934.935 525.59 915.991 599.507 884.749 606.463C866.727 610.505 845.142 593.459 816.816 552.781C792.053 517.149 765.02 467.371 738.923 419.243C686.824 323.179 632.992 223.843 594.225 232.558C563.519 239.432 544.823 312.992 537.063 457.336C529.621 595.892 502.051 672.449 452.773 691.393C444.584 694.499 435.889 696.056 427.13 695.984Z" fill="#A02E54"/>
<path opacity="0.3" d="M418.188 685.014C388.651 685.014 352.937 670.057 309.96 639.827C259.595 604.401 206.423 553.51 155.013 504.295C70.4748 423.394 -9.37189 346.975 -51.7028 367.513C-82.34 382.373 -91.5986 447.163 -80.0976 565.566L-81.1293 565.662C-92.6991 446.778 -83.2205 381.658 -52.143 366.578C-32.484 357.037 -4.55688 366.578 35.7379 396.423C71.5066 422.954 112.407 462.106 155.714 503.553C256.142 599.617 369.859 708.494 445.372 679.061C468.759 669.933 487.771 647.581 501.776 612.622C517.102 574.405 527.117 519.637 531.519 449.843C540.517 307.644 560.409 235.019 592.175 227.815C610.554 223.691 632.428 240.188 660.961 279.958C685.985 314.752 713.142 363.443 739.377 410.554C791.778 504.529 845.981 601.734 885.519 592.771C916.844 585.692 936.421 513.368 945.377 371.678C950.316 293.554 960.909 232.833 976.881 191.097C991.408 153.183 1010.9 129.717 1034.81 121.331C1066.7 110.141 1107.02 124.768 1158.08 166.036C1202.5 201.93 1249.2 253.247 1290.42 298.516C1351.74 365.877 1404.69 424.04 1430.58 412.08C1448.88 403.626 1452.59 359.759 1442.09 277.951L1443.13 277.813C1453.87 361.271 1450 404.286 1431.02 413.015C1404.44 425.291 1351.23 366.866 1289.65 299.217C1248.47 253.962 1201.78 202.686 1157.43 166.834C1106.67 125.812 1066.63 111.254 1035.16 122.293C1011.55 130.541 992.261 153.911 977.844 191.468C961.913 233.067 951.333 293.719 946.395 371.747C937.411 513.946 917.505 586.585 885.753 593.775C867.346 597.899 845.486 581.402 816.967 541.632C791.929 506.825 764.786 458.147 738.551 411.036C686.136 317.047 631.933 219.87 592.409 228.819C561.083 235.899 541.507 308.222 532.551 449.912C523.994 585.32 495.599 660.585 445.729 680.024C436.944 683.4 427.6 685.093 418.188 685.014Z" fill="#B07CCE"/>
<path opacity="0.3" d="M409.122 674.305C379.282 674.305 343.376 659.995 300.44 631.085C249.222 596.717 195.225 546.911 142.989 498.797C57.089 419.669 -24.0371 344.927 -67.2071 366.276C-98.1195 381.576 -107.887 445.156 -97.0602 560.659L-98.092 560.755C-108.96 444.771 -99 380.861 -67.6749 365.355C-47.6306 355.443 -19.2083 364.351 21.7468 393.412C58.1071 419.202 99.6813 457.501 143.69 498.041C245.576 591.974 361.15 698.486 438.328 667.927C462.045 658.551 481.374 636.308 495.792 601.941C511.53 564.343 522.041 510.716 527.021 442.558C537.215 302.971 557.933 231.527 590.304 224.145C609.069 219.884 631.231 235.968 660.08 274.762C685.338 308.758 712.66 356.392 739.088 402.444C791.846 494.384 846.394 589.404 886.771 580.276C918.701 573.003 939.172 501.917 949.325 362.784C954.828 286.378 966.081 226.826 982.549 185.791C997.53 148.468 1017.41 125.18 1041.7 116.561C1074.3 104.986 1115.35 118.884 1167.21 159.039C1212.33 193.971 1259.7 244.161 1301.5 288.44C1363.68 354.33 1417.37 411.228 1443.77 398.774C1462.25 390.072 1466.32 347.016 1456.24 267.146L1457.25 267.022C1467.56 348.501 1463.4 390.663 1444.21 399.708C1441.57 400.935 1438.68 401.551 1435.77 401.509C1406.79 401.509 1357.25 349.023 1300.74 289.141C1258.97 244.889 1211.63 194.74 1166.58 159.85C1115 119.984 1074.28 106.086 1042.06 117.523C1018.1 126.047 998.411 149.142 983.539 186.176C967.113 227.115 956.025 286.529 950.398 362.853C940.204 502.454 919.486 573.897 887.115 581.279C868.35 585.554 846.174 569.457 817.325 530.649C792.067 496.652 764.731 449.033 738.304 402.966C685.559 311.026 630.997 216.007 590.634 225.149C558.703 232.421 538.247 303.507 528.094 442.64C518.464 574.928 489.202 648.928 438.755 668.875C429.312 672.549 419.255 674.392 409.122 674.305Z" fill="#2D10DC"/>
<path opacity="0.3" d="M399.918 663.857C369.776 663.857 333.718 650.179 290.7 622.616C238.588 589.183 183.724 540.546 130.649 493.518C43.3319 416.136 -39.1562 343.029 -83.1929 365.231C-114.339 380.93 -124.575 443.314 -114.422 555.957L-115.44 556.053C-125.606 442.943 -115.206 380.215 -83.6194 364.282C-63.19 353.986 -34.2724 362.33 7.38435 390.553C44.3499 415.6 86.6119 453.06 131.364 492.721C234.983 584.551 352.414 688.629 431.271 657.025C455.263 647.402 474.936 625.407 489.739 591.493C505.89 554.513 516.895 502.027 522.426 435.464C533.83 298.448 555.443 228.159 588.46 220.585C607.596 216.199 630.089 231.816 659.213 269.703C684.719 302.902 712.234 349.435 738.84 394.539C791.956 484.472 846.875 577.471 888.105 568.027C920.682 560.576 942.034 490.59 953.383 354.054C959.602 279.339 971.35 220.983 988.299 180.608C1003.73 143.862 1024.07 120.74 1048.61 111.873C1081.9 99.8858 1123.72 113.055 1176.43 152.124C1222.28 186.107 1270.34 235.184 1312.72 278.487C1375.83 342.933 1430.3 398.581 1457.17 385.631C1475.81 376.654 1480.2 334.41 1470.54 256.409L1471.56 256.286C1481.41 335.826 1476.98 377.259 1457.61 386.525C1454.77 387.863 1451.66 388.536 1448.52 388.491C1418.97 388.491 1368.95 337.407 1311.94 279.161C1269.56 235.885 1221.55 186.836 1175.74 152.908C1123.31 114.059 1081.82 100.944 1048.89 112.808C1024.58 121.551 1004.48 144.426 989.179 180.952C972.258 221.231 960.537 279.477 954.333 354.164C942.928 491.181 921.315 561.469 888.298 569.044C869.162 573.416 846.669 557.813 817.545 519.926C792.039 486.727 764.525 440.193 737.918 395.089C684.802 305.156 629.883 212.171 588.653 221.602C556.09 229.066 534.738 299.053 523.375 435.574C512.631 564.796 482.599 637.559 431.573 657.987C421.496 661.954 410.749 663.947 399.918 663.857Z" fill="#565CEC"/>
<path opacity="0.3" d="M390.563 653.657C360.16 653.657 323.937 640.611 280.946 614.313C227.912 581.856 172.14 534.333 118.198 488.377C29.3821 412.699 -54.5093 341.283 -99.4265 364.296C-130.82 380.435 -141.496 441.664 -132.059 551.489L-133.09 551.572C-142.555 441.293 -131.715 379.734 -99.8942 363.389C-79.0658 352.68 -49.6255 360.447 -7.25333 387.845C30.3588 412.163 73.35 448.799 118.873 487.593C224.198 577.333 343.582 679.075 424.282 646.33C448.55 636.487 468.553 614.588 483.741 581.251C500.249 544.877 511.791 493.49 517.886 428.522C530.487 294.007 552.994 224.846 586.672 217.093C605.932 212.653 629.415 228.242 658.429 264.726C684.197 297.128 711.904 342.699 738.716 386.759C792.204 474.739 847.494 565.662 889.646 555.971C922.856 548.327 945.102 479.468 957.662 345.449C964.54 272.397 976.826 215.209 994.256 175.467C1010.13 139.285 1030.82 116.355 1055.75 107.254C1089.79 94.8818 1132.38 107.254 1185.96 145.265C1232.57 178.258 1281.34 226.372 1324.36 268.644C1388.41 331.688 1443.73 386.112 1471.16 372.64C1489.98 363.402 1494.65 321.941 1485.43 245.879L1486.45 245.755C1495.73 322.299 1490.88 364.117 1471.62 373.603C1443.52 387.35 1387.97 332.719 1323.64 269.414C1280.64 227.101 1231.91 179.137 1185.37 146.144C1132.08 108.354 1089.8 95.9679 1056.05 108.244C1031.41 117.235 1010.92 140 995.164 175.907C977.816 215.526 965.517 272.603 958.639 345.545C946.023 480.06 923.516 549.221 889.853 556.974C870.593 561.414 847.109 545.825 818.095 509.341C792.328 476.939 764.607 431.368 737.808 387.295C684.307 299.314 629.003 208.405 586.878 218.096C553.668 225.74 531.423 294.599 518.863 428.618C507.045 554.83 476.215 626.355 424.626 647.292C413.793 651.602 402.223 653.764 390.563 653.657Z" fill="#06CABE"/>
<path opacity="0.3" d="M381.057 643.718C350.378 643.718 314.046 631.346 271.096 606.271C217.126 574.763 160.378 528.353 105.528 483.442C15.1572 409.441 -70.1924 339.552 -115.963 363.554C-147.604 380.119 -158.679 440.193 -149.929 547.228L-150.961 547.31C-159.82 439.822 -148.498 379.418 -116.485 362.647C-95.2442 351.511 -65.2811 358.715 -22.1661 385.302C16.1202 408.891 59.868 444.716 106.188 482.644C213.302 570.35 334.723 669.769 417.225 635.869C441.781 625.778 462.114 604.03 477.674 571.258C494.636 535.515 506.564 485.187 513.236 421.786C526.993 289.732 550.463 221.671 584.773 213.725C604.446 209.175 628.26 224.269 657.576 259.888C683.605 291.506 711.532 336.074 738.551 379.17C792.452 465.186 848.21 554.129 891.256 544.135C925.112 536.299 948.266 468.526 962.037 336.967C969.507 265.551 982.384 209.519 1000.3 170.408C1016.61 134.79 1037.7 111.997 1062.95 102.677C1097.75 89.837 1141.16 101.536 1195.65 138.419C1243.05 170.532 1292.57 217.451 1336.25 258.843C1401.29 320.484 1457.46 373.727 1485.43 359.705C1504.4 350.205 1509.35 309.514 1500.56 235.308L1501.58 235.198C1510.43 309.872 1505.29 350.907 1485.87 360.639C1482.59 362.229 1478.98 363.029 1475.33 362.976C1444.62 362.976 1393.6 314.628 1335.53 259.599C1291.88 218.22 1242.39 171.329 1195.06 139.271C1140.85 102.553 1097.75 90.8817 1063.29 103.598C1038.31 112.822 1017.42 135.436 1001.22 170.793C983.333 209.807 970.511 265.73 963.041 337.036C949.284 469.09 925.814 537.151 891.504 545.097C871.845 549.647 848.031 534.553 818.714 498.934C792.672 467.316 764.745 422.735 737.74 379.638C683.839 293.623 628.095 204.693 585.035 214.674C551.178 222.509 528.025 290.282 514.268 421.841C501.364 545.069 469.75 615.385 417.624 636.803C406.011 641.497 393.583 643.847 381.057 643.718Z" fill="#000AFF"/>
<path opacity="0.3" d="M371.386 634.04C340.473 634.04 303.975 622.232 261.149 598.435C206.121 567.89 148.464 522.524 92.6651 478.685C0.670822 406.348 -86.1783 338.026 -132.953 362.963C-164.746 379.94 -176.329 438.888 -168.199 543.145L-169.23 543.227C-177.333 438.503 -165.626 379.239 -133.462 362.042C-111.808 350.494 -81.2808 357.107 -37.3954 382.882C1.57875 405.757 46.1108 440.785 93.2979 477.86C202.282 563.559 325.794 660.696 410.195 625.6C434.958 615.276 455.593 593.665 471.607 561.36C488.955 526.181 501.391 476.967 508.572 415.105C523.609 285.457 547.932 218.523 582.861 210.275C627.517 199.896 683.894 287.162 738.427 371.582C792.768 455.686 848.953 542.65 892.879 532.422C927.41 524.38 951.457 457.693 966.439 328.526C974.542 258.733 987.969 203.827 1006.33 165.336C1023.09 130.267 1044.57 107.598 1070.14 98.0715C1105.73 84.7781 1149.93 95.7482 1205.42 131.614C1253.57 162.806 1303.93 208.68 1348.3 249.137C1414.33 309.418 1471.45 361.478 1499.94 346.906C1519.06 337.132 1524.31 297.197 1515.94 224.846L1516.96 224.736C1525.38 297.596 1519.97 337.819 1500.45 347.827C1496.94 349.572 1493.05 350.448 1489.13 350.384C1457.82 350.384 1406.26 303.369 1347.65 249.907C1303.34 209.546 1253.04 163.727 1204.89 132.563C1149.74 96.8892 1105.84 85.9466 1070.55 99.1162C1045.23 108.588 1023.94 131.037 1007.27 165.872C988.932 204.253 975.532 259.049 967.457 328.733C952.42 458.367 928.098 525.315 893.168 533.563C848.526 543.942 792.149 456.662 737.616 372.256C683.275 288.151 627.09 201.188 583.15 211.416C548.674 219.389 524.572 286.076 509.59 415.298C502.409 477.297 489.931 526.648 472.529 561.91C456.474 594.435 435.646 616.224 410.621 626.631C398.168 631.688 384.828 634.208 371.386 634.04Z" fill="#A4707C"/>
<path opacity="0.3" d="M361.577 624.596C330.444 624.596 293.933 613.392 251.148 590.819C195.115 561.277 136.372 517.025 79.5545 474.107C-14.1182 403.406 -102.618 336.637 -150.19 362.55C-182.176 379.94 -194.103 437.76 -186.702 539.309L-187.72 539.391C-195.176 437.389 -183.056 379.239 -150.686 361.643C-128.674 349.641 -97.528 355.676 -52.8309 380.641C-13.1414 402.815 32.216 437.004 80.2424 473.282C191.18 557.001 316.866 651.87 403.206 615.577C428.272 605.02 449.251 583.547 465.554 551.75C483.287 517.149 496.191 468.993 503.909 408.644C520.156 281.36 545.4 215.429 581.059 207.085C626.623 196.417 683.495 281.759 738.482 364.282C793.277 446.53 849.916 531.569 894.819 520.998C930.01 512.75 954.979 447.122 971.171 320.292C979.88 252.093 993.871 198.301 1012.72 160.414C1029.93 125.867 1051.77 103.391 1077.69 93.6032C1114.07 79.8562 1159.19 90.084 1215.61 124.891C1264.69 155.135 1315.79 200.005 1360.88 239.555C1428.06 298.489 1486.08 349.38 1515.1 334.245C1534.36 324.196 1539.87 285.017 1531.91 214.494L1532.95 214.385C1540.94 285.374 1535.26 324.883 1515.57 335.152C1511.8 337.045 1507.62 337.989 1503.4 337.901C1471.47 337.901 1419.38 292.193 1360.2 240.298C1315.14 200.775 1264.08 155.973 1215.07 125.73C1158.94 91.1013 1114.12 80.8873 1078.05 94.5243C1052.39 104.147 1030.73 126.527 1013.65 160.84C994.834 198.617 980.898 252.285 972.203 320.388C955.942 447.658 930.712 513.588 895.053 521.933C892.451 522.543 889.787 522.848 887.115 522.84C842.968 522.84 789.439 442.544 737.629 364.749C682.834 282.501 626.196 197.462 581.293 208.033C546.102 216.282 521.119 281.924 504.927 408.74C497.209 469.227 484.291 517.479 466.475 552.19C450.063 584.221 428.904 605.803 403.605 616.499C390.283 621.994 375.989 624.748 361.577 624.596Z" fill="#00FFB3"/>
<path opacity="0.3" d="M351.507 615.399C320.181 615.399 283.615 604.786 240.968 583.423C183.875 554.829 124.031 511.554 66.2513 469.708C-29.196 400.629 -119.333 335.372 -167.937 362.289C-200.06 380.077 -212.4 436.798 -205.646 535.666L-206.664 535.735C-213.46 436.426 -200.954 379.39 -168.432 361.381C-145.939 348.927 -114.27 354.384 -68.7342 378.538C-28.3018 399.997 17.9361 433.457 66.8567 468.869C179.844 550.623 307.924 643.292 396.121 605.735C421.448 594.957 442.744 573.622 459.404 542.32C477.522 508.296 490.88 461.212 499.121 402.32C516.593 277.36 542.745 212.46 579.092 203.896C625.618 192.898 682.972 276.37 738.455 357.065C793.731 437.471 850.892 520.654 896.662 509.808C932.541 501.354 958.446 436.743 975.849 312.263C985.176 245.618 999.69 192.925 1019.02 155.644C1036.66 121.62 1058.91 99.2808 1085.05 89.2592C1122.2 75.0311 1168.27 84.5302 1225.72 118.307C1275.69 147.684 1327.63 191.496 1373.47 230.152C1441.78 287.766 1500.77 337.517 1530.3 321.776C1549.69 311.452 1555.44 273.029 1547.91 204.308L1548.95 204.184C1556.53 273.387 1550.58 312.14 1530.79 322.684C1500.52 338.754 1441.36 288.797 1372.74 230.936C1326.95 192.307 1275.07 148.536 1225.14 119.2C1167.98 85.5888 1122.27 76.1171 1085.37 90.2215C1059.38 100.161 1037.32 122.335 1019.8 156.111C1000.54 193.228 986.057 245.879 976.743 312.401C959.271 437.347 933.119 502.247 896.772 510.812C893.995 511.466 891.151 511.794 888.298 511.788C843.381 511.788 789.563 433.512 737.409 357.642C682.133 277.25 624.986 194.053 579.133 204.899C543.254 213.354 517.349 277.978 499.947 402.458C491.692 461.446 478.293 508.667 460.051 542.801C443.281 574.323 421.819 595.809 396.272 606.683C382.093 612.579 366.864 615.544 351.507 615.399Z" fill="#92021A"/>
<path opacity="0.3" d="M341.299 606.45C309.795 606.45 273.214 596.414 230.732 576.206C172.539 548.561 111.65 506.316 52.783 465.474C-44.4941 398.017 -136.433 334.259 -185.959 362.206C-218.22 380.394 -230.931 436.014 -224.823 532.229L-225.855 532.298C-231.991 435.643 -219.114 379.706 -186.468 361.299C-163.535 348.377 -131.261 353.243 -84.8576 376.599C-43.5861 397.357 3.46352 430.048 53.347 464.58C168.398 544.519 298.789 634.92 389.091 596.098C414.666 585.1 436.251 563.902 453.282 533.095C471.758 499.621 485.57 453.555 494.32 396.148C513.03 273.469 540.117 209.573 577.138 200.789C624.642 189.53 682.532 271.105 738.524 349.971C794.309 428.577 851.993 509.849 898.822 498.755C935.389 490.081 962.229 426.46 980.856 304.249C990.789 239.157 1005.84 187.537 1025.62 150.846C1043.69 117.344 1066.3 95.1567 1092.85 84.8602C1130.92 70.1509 1177.86 78.9077 1236.37 111.667C1287.27 140.151 1340.08 182.945 1386.68 220.708C1456.18 277.071 1516.19 325.653 1546.26 309.294C1565.76 298.709 1571.78 261.014 1564.66 194.067L1565.69 193.957C1572.86 261.317 1566.66 299.396 1546.76 310.188C1542.42 312.471 1537.58 313.616 1532.68 313.514C1499.52 313.514 1446.3 270.39 1385.96 221.506C1339.4 183.77 1286.61 141.003 1235.79 112.56C1177.57 79.9663 1130.92 71.2232 1093.16 85.8225C1066.84 95.9953 1044.4 118.032 1026.46 151.313C1006.75 187.894 991.711 239.404 981.806 304.373C963.11 427.051 936.022 490.961 899.001 499.731C896.034 500.428 892.997 500.779 889.949 500.776C844.247 500.776 790.099 424.48 737.616 350.549C681.817 271.943 624.133 190.685 577.303 201.765C540.737 210.439 513.91 274.06 495.269 396.285C486.506 453.803 472.652 499.993 454.108 533.563C436.98 564.576 415.216 585.925 389.449 597.019C374.214 603.423 357.826 606.633 341.299 606.45Z" fill="#4030F8"/>
<path opacity="0.3" d="M330.871 597.734C299.229 597.734 262.663 588.262 220.387 569.236C161.038 542.526 99.0209 501.312 39.0396 461.446C-60.136 395.543 -153.822 333.269 -204.366 362.275C-236.737 380.847 -249.765 435.382 -244.331 528.985H-245.363C-250.866 434.955 -237.617 380.105 -204.875 361.271C-181.488 347.868 -148.595 352.13 -101.311 374.702C-59.2968 394.869 -11.2429 426.79 39.6586 460.662C156.87 538.553 289.723 626.836 382.102 586.723C436.416 563.133 471.524 498.852 489.532 390.14C509.48 269.689 537.504 206.769 575.226 197.778C623.72 186.217 682.174 265.936 738.702 343.029C795.024 419.861 853.259 499.291 901.106 487.895C938.374 479.015 966.15 416.411 986.002 296.358C996.526 232.792 1012.14 182.258 1032.35 146.131C1050.84 113.138 1073.84 91.1425 1100.7 80.5848C1139.64 65.3669 1187.54 73.3951 1247.14 105.123C1298.99 132.714 1352.73 174.518 1400.13 211.415C1470.86 266.403 1531.94 313.954 1562.65 296.963C1582.24 286.116 1588.5 249.151 1581.78 183.962L1582.82 183.852C1589.57 249.508 1583.15 286.79 1563.16 297.856C1558.51 300.346 1553.3 301.591 1548.02 301.472C1514.21 301.472 1460.42 259.626 1399.45 212.226C1352.09 175.357 1298.44 133.566 1246.6 105.989C1187.28 74.3712 1139.67 66.3979 1101.01 81.5059C1074.38 91.9124 1051.57 113.798 1033.2 146.584C1013.02 182.601 997.434 233.025 986.964 296.427C967.03 416.878 939.007 479.798 901.285 488.789C898.13 489.539 894.898 489.917 891.655 489.916C845.156 489.916 790.663 415.572 737.836 343.524C681.486 266.829 623.238 187.358 575.405 198.768C538.136 207.648 510.361 270.252 490.509 390.305C481.223 446.379 466.929 491.552 448.013 524.572C430.542 555.091 408.475 576.302 382.46 587.602C366.152 594.515 348.584 597.966 330.871 597.734Z" fill="#5055C2"/>
<path opacity="0.3" d="M320.305 589.211C231.915 589.211 123.11 519.994 25.0073 457.583C-76.1493 393.233 -171.72 332.485 -223.241 362.522C-255.708 381.466 -269.121 434.914 -264.279 525.947H-265.297C-270.126 434.543 -256.534 380.778 -223.709 361.684C-199.895 347.786 -166.341 351.456 -118.122 373.231C-75.2689 392.587 -26.2658 423.765 25.6263 456.772C145.08 532.765 280.478 618.891 375.059 577.457C429.84 553.441 465.677 490.26 484.649 384.298C505.821 266.073 534.793 204.06 573.217 194.85C622.743 182.973 681.775 260.836 738.867 336.238C795.753 411.324 854.565 488.967 903.458 477.241C941.442 468.127 970.153 406.43 991.257 288.605C1002.36 226.523 1018.48 177.02 1039.16 141.512C1058.08 109.014 1081.44 87.1009 1108.61 76.3782C1148.5 60.6516 1197.34 67.9375 1258.09 98.6484C1310.92 125.359 1365.6 166.187 1413.85 202.205C1485.86 255.969 1548.07 302.407 1579.34 284.687C1599.01 273.579 1605.47 237.328 1599.17 173.872L1600.2 173.776C1606.57 237.686 1599.9 274.253 1579.84 285.58C1574.87 288.279 1569.28 289.63 1563.62 289.498C1529.15 289.498 1474.77 248.903 1413.23 202.974C1365.01 166.971 1310.37 126.17 1257.62 99.5007C1197.09 68.9273 1148.54 61.6551 1109.05 77.2717C1082.1 87.8982 1058.91 109.66 1040.12 141.951C1019.49 177.391 1003.43 226.784 992.33 288.742C971.02 407.049 942.13 468.911 903.61 478.19C854.084 490.053 795.052 412.204 737.96 336.802C681.101 261.715 622.289 184.072 573.437 195.799C535.454 204.899 506.729 266.609 485.639 384.421C475.858 439.093 461.124 483.276 441.864 515.733C423.979 545.77 401.693 566.844 375.444 578.351C358.289 585.856 339.813 589.211 320.305 589.211Z" fill="#9C3AD2"/>
<path opacity="0.3" d="M309.506 580.963C219.685 580.963 109.917 514.166 10.8511 453.885C-92.3278 391.075 -189.866 331.743 -242.419 362.935C-274.954 382.181 -288.698 434.626 -284.461 523.115H-285.492C-289.743 434.213 -275.862 381.521 -242.941 361.986C-218.674 347.58 -184.46 350.659 -135.278 371.609C-91.5711 390.36 -41.5087 420.796 11.3877 453.005C133.18 527.116 271.22 611.096 367.946 568.343C423.181 543.914 459.721 481.819 479.655 378.51C502.065 262.389 531.932 201.339 571.14 191.908C621.711 179.701 681.363 255.846 738.978 329.475C796.455 402.843 855.914 478.712 905.811 466.67C944.524 457.336 974.198 396.56 996.526 280.865C1008.22 220.255 1024.85 171.783 1046.05 136.797C1065.31 104.793 1089.1 83.0182 1116.58 72.0756C1157.36 55.8266 1207.29 62.3702 1269.21 92.0775C1323.05 117.922 1378.73 157.774 1427.84 192.939C1501.19 245.453 1564.55 290.818 1596.41 272.48C1616.15 261.125 1622.86 225.589 1616.93 163.878L1617.97 163.782C1623.94 225.973 1617.04 261.839 1596.92 273.414C1591.6 276.351 1585.6 277.822 1579.53 277.676C1544.38 277.676 1489.39 238.305 1427.25 193.819C1378.16 158.682 1322.53 118.843 1268.75 93.0535C1207.11 63.3737 1157.46 56.8989 1116.96 72.9966C1089.7 83.8568 1066.14 105.495 1046.93 137.305C1025.87 172.181 1009.28 220.543 997.599 281.03C975.188 397.165 945.322 458.202 906.127 467.646C902.522 468.506 898.828 468.94 895.122 468.938C846.971 468.938 791.792 398.43 738.29 330.093C680.812 256.726 621.354 180.856 571.443 192.884C532.73 202.232 503.056 262.994 480.728 378.689C470.451 431.973 455.291 475.166 435.673 507.086C417.513 536.642 394.883 557.565 368.414 569.278C350.076 577.375 330.32 580.963 309.506 580.963Z" fill="#4281FD"/>
<path opacity="0.3" d="M298.418 572.948C207.152 572.948 96.4208 508.544 -3.5939 450.366C-108.919 389.082 -208.48 331.193 -262.064 363.513C-294.641 383.143 -308.701 434.543 -305.069 520.476H-306.101C-309.746 434.076 -295.521 382.442 -262.6 362.578C-237.837 347.662 -202.963 350.123 -152.791 370.331C-108.19 388.298 -57.1369 417.992 -3.0849 449.431C121.129 521.672 261.906 603.549 360.889 559.408C416.606 534.649 453.75 473.626 474.675 372.916C498.323 258.815 529.208 198.741 569.09 189.077C620.748 176.539 681.019 250.938 739.321 322.876C797.418 394.567 857.496 468.677 908.535 456.319C947.977 446.696 978.614 386.869 1002.18 273.277C1014.45 214.165 1031.61 166.642 1053.16 132.219C1072.89 100.683 1096.99 79.0455 1124.7 67.883C1166.44 51.1116 1217.41 56.8853 1280.56 85.6166C1335.48 110.581 1392.17 149.485 1442.18 183.798C1516.93 235.088 1581.48 279.381 1613.93 260.355C1633.73 248.752 1640.65 213.918 1635.12 153.857L1636.14 153.761C1641.72 214.247 1634.63 249.412 1614.46 261.249C1608.77 264.437 1602.32 266.033 1595.8 265.868C1560.03 265.868 1504.36 227.72 1441.6 184.65C1391.62 150.351 1334.97 111.488 1280.13 86.5514C1217.27 57.9714 1166.59 52.1701 1125.1 68.8727C1066.73 92.3251 1026.83 159.259 1003.13 273.511C979.481 387.611 948.596 447.672 908.714 457.35C857.069 469.859 796.785 395.488 738.482 323.55C680.399 251.859 620.322 177.722 569.269 190.108C529.813 199.731 499.176 259.544 475.61 373.149C464.838 425.058 449.265 467.303 429.303 498.687C410.814 527.762 387.908 548.547 361.233 560.439C341.794 569.113 320.677 572.948 298.418 572.948Z" fill="#A21492"/>
<path opacity="0.3" d="M287.068 565.14C194.358 565.14 82.6774 503.086 -18.3416 446.998C-125.923 387.226 -227.533 330.781 -282.177 364.241C-314.726 384.215 -329.034 434.543 -326.049 518.029H-327.08C-330.134 434.172 -315.607 383.514 -282.672 363.334C-257.455 347.882 -221.865 349.738 -170.661 369.162C-125.125 386.429 -72.9851 415.394 -17.8051 446.063C108.899 516.448 252.51 596.236 353.804 550.733C409.906 525.548 447.793 465.57 469.626 367.403C494.526 255.433 526.388 196.184 566.999 186.286C619.744 173.405 680.702 246.085 739.652 316.36C798.395 386.387 859.133 458.807 911.259 446.091C951.457 436.289 983.058 377.287 1007.88 265.743C1020.71 208.006 1038.38 161.527 1060.36 127.641C1080.5 96.5864 1104.96 75.0723 1133.04 63.7036C1175.69 46.3961 1227.83 51.455 1292.22 79.1552C1348.24 103.254 1405.99 141.209 1456.94 174.683C1533.14 224.764 1598.94 267.998 1631.98 248.271C1651.82 236.421 1658.95 202.273 1653.79 143.89L1654.82 143.794C1660.02 202.617 1652.72 237.081 1632.52 249.151C1626.44 252.615 1619.53 254.346 1612.53 254.155C1576.01 254.155 1519.77 217.203 1456.37 175.549C1405.47 142.089 1347.69 104.175 1291.81 80.1038C1227.67 52.5547 1175.86 47.4958 1133.42 64.7483C1074.43 88.6544 1033.7 154.503 1008.88 266.06C983.979 378.029 952.118 437.279 911.507 447.19C858.775 460.058 797.803 387.391 738.854 317.116C680.124 247.006 619.373 174.669 567.247 187.372C527.048 197.187 495.448 256.176 470.63 367.733C459.39 418.308 443.391 459.59 423.099 490.452C404.293 519.06 381.112 539.694 354.23 551.778C333.43 561.016 310.868 565.14 287.068 565.14Z" fill="#00FFB3"/>
<path opacity="0.3" d="M275.457 557.593C181.316 557.593 68.6863 497.876 -33.2544 443.823C-89.6588 413.95 -142.83 385.728 -189.247 369.176C-241.194 350.645 -277.224 349.381 -302.634 365.176C-335.225 385.453 -349.862 434.722 -347.4 515.802H-348.431C-350.908 434.323 -336.05 384.752 -303.184 364.282C-277.472 348.295 -241.167 349.532 -188.903 368.173C-142.418 384.752 -89.1636 412.988 -32.7729 442.888C96.5446 511.417 243.031 589.101 346.719 542.238C403.234 516.696 441.767 457.776 464.536 362.152C490.674 252.175 523.526 193.819 564.894 183.66C618.767 170.449 680.454 241.398 740.037 310.133C799.454 378.538 860.88 449.266 914.162 436.207C955.117 426.171 987.707 368.035 1013.76 258.485C1027.18 202.123 1045.41 156.634 1067.75 123.283C1088.29 92.6963 1113.15 71.3197 1141.46 59.7447C1185.19 41.8736 1238.39 46.2039 1304.1 72.9144C1361.26 96.1606 1420.1 133.168 1472.02 165.817C1549.7 214.674 1616.8 256.877 1650.46 236.421C1670.31 224.352 1677.64 190.891 1672.86 134.144L1673.89 134.061C1678.7 191.235 1671.22 224.998 1651 237.301C1644.5 241.054 1637.09 242.929 1629.59 242.718C1592.36 242.718 1535.5 206.975 1471.47 166.683C1419.59 134.061 1360.77 97.0816 1303.71 73.8767C1238.27 47.2624 1185.32 42.9459 1141.86 60.6933C1082.25 85.0255 1040.69 149.801 1014.77 258.719C988.629 368.695 955.777 427.065 914.34 437.21C909.955 438.285 905.456 438.826 900.941 438.819C850.37 438.819 793.924 373.823 739.184 310.807C679.849 242.305 618.41 171.577 565.183 184.636C524.228 194.685 491.637 252.822 465.581 362.372C453.86 411.627 437.461 451.988 416.839 482.328C397.703 510.482 374.275 530.965 347.173 543.214C324.983 553.221 300.88 557.579 275.457 557.593Z" fill="#09F404"/>
<path opacity="0.3" d="M263.557 550.252C167.999 550.252 54.4477 492.831 -48.4698 440.798C-106.057 411.696 -160.453 384.188 -207.847 368.324C-260.894 350.577 -297.667 349.917 -323.572 366.276C-356.149 386.896 -371.048 435.011 -369.15 513.754H-370.182C-372.094 434.667 -357.03 386.126 -324.122 365.368C-297.984 348.872 -260.839 349.463 -207.517 367.32C-160.054 383.212 -105.631 410.72 -47.9333 439.85C83.9981 506.564 233.539 582.159 339.662 533.921C396.589 508.035 435.769 450.146 459.445 356.928C486.767 248.959 520.61 191.414 562.748 181.021C617.777 167.453 680.166 236.765 740.477 303.795C800.596 370.606 862.751 439.685 917.202 426.254C958.928 415.971 992.495 358.66 1019.82 251.089C1033.78 196.101 1052.44 151.561 1075.26 118.733C1096.21 88.6134 1121.36 67.3605 1150.03 55.5793C1194.79 37.1858 1249.16 40.7463 1316.22 66.4807C1374.55 88.8609 1434.53 124.933 1487.44 156.757C1566.69 204.432 1635.15 245.604 1669.4 224.393C1689.27 212.103 1696.78 179.33 1692.36 124.204L1693.38 124.122C1697.84 179.674 1690.18 212.763 1669.99 225.273C1635.19 246.814 1566.5 205.491 1486.94 157.637C1434.06 125.84 1374.13 89.7819 1315.89 67.443C1249.08 41.8048 1194.97 38.2443 1150.46 56.5416C1090.25 81.2862 1047.85 145.004 1020.86 251.337C993.43 359.32 959.615 416.865 917.491 427.299C862.462 440.867 800.073 371.555 739.748 304.524C679.602 237.686 617.46 168.607 562.996 182.024C521.256 192.321 487.689 249.618 460.367 357.203C448.192 405.18 431.395 444.634 410.456 474.451C391.017 502.137 367.314 522.469 340.033 534.938C316.44 545.605 290.727 550.238 263.557 550.252Z" fill="#5A7CF4"/>
<path opacity="0.3" d="M251.368 543.145C154.394 543.145 39.8925 487.978 -63.9604 437.966C-122.827 409.62 -178.42 382.841 -226.832 367.664C-281.021 350.686 -318.551 350.686 -344.965 367.527C-377.487 388.34 -392.647 435.574 -391.299 511.87H-392.317C-393.693 435.148 -378.353 387.625 -345.542 366.605C-318.854 349.532 -281.035 349.532 -226.543 366.605C-178.049 381.81 -122.428 408.603 -63.5339 436.963C71.1626 501.904 223.826 575.423 332.453 525.796C389.779 499.608 429.592 442.723 454.163 351.896C482.846 245.838 517.652 189.104 560.561 178.478C616.786 164.538 679.918 232.215 740.972 297.664C801.82 362.894 864.787 430.337 920.366 416.548C962.89 406.004 997.406 349.532 1026.03 243.872C1040.55 190.259 1059.68 146.626 1082.93 114.32C1104.27 84.6541 1129.71 63.5387 1158.72 51.5651C1204.56 32.6079 1260.13 35.4123 1328.58 60.1707C1388.11 81.6985 1449.26 116.836 1503.22 147.849C1584.1 194.342 1653.94 234.455 1688.83 212.529C1708.68 200.033 1716.34 167.934 1712.3 114.403L1713.33 114.334C1717.46 168.277 1709.59 200.679 1689.38 213.409C1653.98 235.693 1583.87 195.4 1502.69 148.798C1448.79 117.812 1387.68 82.6883 1328.23 61.188C1260.03 36.5396 1204.71 33.6939 1159.12 52.5686C1098.32 77.7119 1055.1 140.398 1027.05 244.188C998.369 350.247 963.564 406.967 920.655 417.607C915.662 418.834 910.54 419.453 905.398 419.449C853.121 419.449 795.836 358.014 740.312 298.475C679.464 233.246 616.497 165.789 560.905 179.577C518.395 190.121 483.864 246.608 455.25 352.267C442.607 399.007 425.424 437.499 404.183 466.849C384.414 494.095 360.462 514.276 332.989 526.841C307.786 538.196 280.409 543.145 251.368 543.145Z" fill="#44E254"/>
<path opacity="0.3" d="M238.876 536.271C140.485 536.271 25.0623 483.359 -79.7262 435.313C-139.9 407.723 -196.745 381.7 -246.188 367.169C-301.533 350.962 -339.861 351.553 -366.784 369.011C-399.195 390.003 -414.659 436.221 -413.847 510.248H-414.879C-415.704 435.918 -400.158 389.357 -367.375 368.09C-340.177 350.453 -301.588 349.834 -245.913 366.125C-196.387 380.641 -139.515 406.706 -79.2997 434.323C58.2722 497.367 214.086 568.824 325.285 517.809C383.065 491.332 423.415 435.451 448.88 346.961C478.829 242.8 514.639 186.877 558.346 175.989C615.782 161.679 679.712 227.747 741.523 291.629C803.334 355.512 866.823 421.14 923.695 406.981C967.003 396.203 1002.58 340.5 1032.38 236.724C1047.48 184.348 1067.11 141.732 1090.71 109.921C1112.44 80.7089 1138.29 59.7309 1167.53 47.5648C1214.47 28.0441 1271.27 30.1199 1341.16 53.8885C1401.94 74.509 1464.3 108.794 1519.31 138.983C1601.86 184.348 1673.17 223.43 1708.68 200.707C1728.52 188.018 1736.36 156.579 1732.66 104.629L1733.68 104.56C1737.42 156.922 1729.43 188.664 1709.24 201.573C1701.91 206.274 1693.09 208.377 1683.02 208.377C1643.61 208.377 1584.8 176.099 1518.82 139.89C1463.79 109.646 1401.52 75.5125 1340.83 54.8645C1271.17 31.1784 1214.62 29.1026 1167.93 48.5134C1106.53 74.0416 1062.52 135.711 1033.38 237.012C1003.42 341.174 967.608 397.097 923.902 407.984C866.465 422.295 802.549 356.227 740.738 292.344C678.927 228.462 615.424 162.82 558.552 176.993C515.245 187.784 479.668 243.474 449.87 347.25C436.773 392.752 419.206 430.419 397.593 459.219C377.535 486.026 353.336 506.055 325.657 518.744C299.023 530.992 269.789 536.271 238.876 536.271Z" fill="#1B08FA"/>
<path opacity="0.3" d="M226.041 529.535C126.26 529.535 9.95691 478.822 -95.767 432.728C-157.317 405.894 -215.455 380.49 -265.985 366.743C-322.554 351.305 -361.693 352.515 -389.139 370.537C-421.496 391.804 -437.097 437.017 -436.821 508.777H-437.853C-438.128 436.646 -422.376 391.144 -389.703 369.671C-362.051 351.484 -322.595 350.233 -265.751 365.808C-215.124 379.624 -156.959 404.987 -95.3818 431.794C45.0515 493.023 204.208 562.39 318.063 510.028C376.146 483.29 417.183 428.384 443.501 342.177C474.743 239.871 511.558 184.718 556.062 173.583C614.764 158.902 679.492 223.361 742.087 285.718C804.682 348.074 869.01 412.19 927.135 397.591C971.254 386.593 1007.83 331.605 1038.97 229.699C1054.55 178.629 1074.65 136.865 1098.7 105.591C1120.82 76.8044 1147 55.9639 1176.52 43.6328C1224.61 23.5484 1282.68 24.8681 1353.99 47.6607C1416.06 67.4839 1479.66 100.793 1535.79 130.143C1620.1 174.284 1692.9 212.419 1729.04 188.911C1748.82 176.03 1756.82 145.265 1753.46 94.8542H1754.49C1757.88 145.718 1749.73 176.731 1729.6 189.832C1721.82 194.905 1712.39 197.16 1701.58 197.16C1661.41 197.16 1601.95 166.023 1535.31 131.174C1479.22 101.81 1415.62 68.5149 1353.72 48.6917C1282.58 25.9816 1224.76 24.6482 1176.91 44.6363C1115 70.522 1070.13 131.243 1039.93 230.056C1008.7 332.361 971.873 387.501 927.368 398.65C921.69 400.064 915.859 400.775 910.007 400.767C856.051 400.767 797.831 342.768 741.344 286.501C678.955 224.351 614.42 160.029 556.296 174.642C512.177 185.64 475.596 240.628 444.478 342.534C430.954 386.827 413.001 423.642 391.141 451.961C370.78 478.327 346.334 498.192 318.475 511.073C290.149 523.995 258.989 529.535 226.041 529.535Z" fill="#74FA9A"/>
<path opacity="0.3" d="M212.862 523.06C111.705 523.06 -5.46484 474.533 -112.097 430.364C-175.05 404.245 -234.536 379.665 -286.18 366.564C-343.96 351.896 -383.953 353.724 -411.935 372.338C-444.181 393.783 -459.988 438.007 -460.222 507.526H-461.254C-461.02 437.636 -445.062 393.123 -412.499 371.43C-384.269 352.652 -344.043 350.81 -285.933 365.519C-234.192 378.648 -174.692 403.282 -111.698 429.374C31.7208 488.775 194.289 556.108 310.84 502.343C369.308 475.372 410.938 421.428 438.122 337.379C470.644 236.888 508.49 182.505 553.792 171.109C613.773 155.987 679.354 218.935 742.775 279.779C806.195 340.623 871.377 403.145 930.794 388.202C975.725 376.902 1013.34 322.739 1045.74 222.605C1061.86 172.786 1082.43 131.875 1106.87 101.137C1129.38 72.7903 1155.9 52.0735 1185.71 39.5775C1234.95 18.957 1294.31 19.5069 1367.23 41.3234C1430.62 60.308 1495.51 92.696 1552.77 121.29C1638.88 164.277 1713.25 201.407 1750.02 177.103C1769.75 164.057 1777.88 133.951 1774.87 85.0664H1775.9C1778.94 134.349 1770.66 164.799 1750.58 178.024C1742.33 183.523 1732.27 185.901 1720.65 185.901C1679.74 185.901 1619.6 155.877 1552.32 122.28C1495.17 93.7545 1430.25 61.3803 1366.92 42.4231C1294.31 20.6754 1235.16 20.0842 1186.11 40.636C1123.55 66.8791 1077.94 126.61 1046.68 223.031C1014.16 323.522 976.33 377.919 931.014 389.37C924.954 390.884 918.73 391.641 912.483 391.625C857.675 391.625 798.986 335.331 742.032 280.686C678.749 220.048 613.457 157.334 554.026 172.264C509.081 183.564 471.483 237.741 439.071 337.86C425.121 380.998 406.797 416.974 384.648 444.798C364.012 470.725 339.249 490.438 311.239 503.374C281.152 517.218 247.956 523.06 212.862 523.06Z" fill="#4281FD"/>
<path opacity="0.3" d="M199.325 516.819C96.806 516.819 -21.2031 470.423 -128.716 428.165C-193.127 402.843 -253.975 378.937 -306.788 366.523C-365.944 352.625 -406.707 355.086 -435.212 374.263C-467.335 395.887 -483.362 439.121 -484.064 506.468H-485.095C-484.352 438.764 -468.215 395.241 -435.79 373.424C-407.023 354.082 -365.958 351.566 -306.555 365.533C-253.672 377.906 -192.796 401.894 -128.33 427.23C18.17 484.816 184.233 550.087 303.549 494.948C362.388 467.756 404.623 414.775 432.646 332.967C466.461 234.236 505.326 180.595 551.467 168.937C612.755 153.458 679.216 214.839 743.49 274.184C807.763 333.53 873.812 394.539 934.563 379.198C980.333 367.637 1018.96 314.202 1052.66 215.842C1069.3 167.246 1090.34 127.242 1115.17 96.9441C1138.06 69.0239 1164.93 48.4446 1194.96 35.7973C1245.38 14.5857 1306.1 14.407 1380.58 35.2612C1445.35 53.3935 1511.58 84.8879 1569.99 112.671C1658.04 154.517 1733.95 190.644 1771.37 165.528C1791.03 152.331 1799.3 122.912 1796.62 75.4987H1797.65C1800.4 123.27 1791.94 153.018 1771.94 166.449C1734.03 191.881 1657.75 155.63 1569.55 113.66C1511.17 85.8915 1445 54.4245 1380.31 36.306C1306.02 15.5205 1245.49 15.6854 1195.36 36.8009C1132.21 63.3601 1085.84 122.032 1053.58 216.227C1019.82 314.944 980.953 368.558 934.811 380.188C873.523 395.653 807.062 334.286 742.788 274.927C678.721 215.815 612.467 154.585 551.715 169.927C505.945 181.488 467.314 234.923 433.623 333.283C419.233 375.28 400.606 410.445 378.099 437.76C357.161 463.261 332.219 482.809 303.989 495.855C272.004 510.647 236.689 516.819 199.325 516.819Z" fill="#8E2A50"/>
<path opacity="0.3" d="M185.361 510.771C81.5355 510.771 -37.2853 466.505 -145.651 426.13C-211.575 401.564 -273.84 378.373 -327.837 366.647C-388.272 353.532 -429.943 356.625 -458.984 376.38C-490.97 398.128 -507.134 440.386 -508.345 505.602H-509.377C-508.139 440.042 -491.85 397.509 -459.576 375.569C-430.273 355.636 -388.341 352.501 -327.617 365.685C-273.551 377.411 -211.245 400.63 -145.293 425.209C4.38525 480.967 174.039 544.176 296.203 487.689C355.358 460.305 398.24 408.259 427.088 328.554C462.211 231.569 502.106 178.711 549.087 166.738C611.724 150.86 679.093 210.728 744.247 268.589C809.401 326.451 876.384 385.975 938.484 370.221C985.094 358.412 1024.77 305.61 1059.75 209.051C1076.92 161.651 1098.41 122.445 1123.64 92.6826C1146.92 65.1886 1174.12 44.7468 1204.48 31.9346C1256.14 10.173 1318.24 9.25197 1394.33 29.1851C1460.5 46.4789 1528.08 77.0523 1587.71 104.038C1677.62 144.729 1755.26 179.88 1793.33 153.939C1812.92 140.605 1821.3 111.805 1818.94 65.9584H1819.98C1822.34 112.258 1813.83 141.361 1793.92 154.915C1755.4 181.172 1677.48 145.925 1587.29 105.11C1468.4 51.3041 1320.4 -15.6439 1204.84 33.0618C1141.1 59.9372 1093.95 117.675 1060.68 209.574C1025.55 306.559 985.658 359.499 938.677 371.403C931.791 373.139 924.716 374.012 917.615 374.002C861.086 374.002 801.421 320.993 743.517 269.524C678.556 211.787 611.449 152.152 549.28 167.893C502.67 179.715 462.995 232.504 428.01 329.063C413.194 369.96 394.154 404.328 371.413 431.189C350.998 455.638 325.453 475.302 296.588 488.789C262.704 504.282 225.133 510.771 185.361 510.771Z" fill="#BA4AB8"/>
<path opacity="0.3" d="M170.902 505.024C66.1276 505.024 -55.4584 462.147 -162.875 424.247C-230.285 400.451 -294.091 377.974 -349.312 366.935C-411.109 354.563 -453.674 358.316 -483.266 378.648C-515.086 400.506 -531.416 441.802 -533.08 504.9H-534.112C-532.406 441.444 -515.953 399.887 -483.857 377.837C-454.004 357.326 -411.192 353.559 -349.037 365.959C-293.747 376.957 -229.982 399.488 -162.462 423.312C-49.9418 462.999 66.389 504.034 170.82 504.034H174.534C294.937 502.907 375.733 444.097 421.544 324.265C457.96 228.984 498.915 176.745 546.735 164.579C610.761 148.289 679.079 206.645 745.141 263.09C811.203 319.536 879.122 377.534 942.625 361.382C990.101 349.298 1030.81 297.265 1067.1 202.315C1084.78 156.084 1106.73 117.757 1132.35 88.407C1156 61.3254 1183.54 41.021 1214.19 28.0851C1267.1 5.75992 1330.62 4.09653 1408.39 22.9987C1476.01 39.4951 1545 69.1337 1605.87 95.3217C1697.78 134.872 1777.16 169.019 1815.88 142.268C1835.36 128.796 1843.84 100.642 1841.81 56.184H1842.84C1844.89 101.027 1836.26 129.469 1816.45 143.161C1806.7 149.897 1794.44 152.784 1780.09 152.784C1736.84 152.784 1674.7 126.046 1605.46 96.2565C1484.08 44.0179 1333.07 -20.9643 1214.59 29.0199C1150.29 56.1702 1102.36 112.973 1068.06 202.672C1031.65 297.953 990.693 350.191 942.873 362.358C935.539 364.211 928 365.135 920.435 365.107C863.04 365.107 802.88 313.721 744.467 263.833C678.611 207.566 610.486 149.375 546.996 165.542C499.52 177.611 458.799 229.644 422.507 324.594C376.462 444.853 295.35 503.869 174.479 505.01L170.902 505.024Z" fill="#1E1ACA"/>
<path opacity="0.3" d="M-558.297 504.419H-559.315C-557.142 443.025 -540.564 402.43 -508.648 380.297C-478.244 359.223 -434.524 354.81 -371.076 366.427C-314.534 376.778 -249.242 398.553 -180.126 421.607C-64.3869 460.195 55.2594 500.075 162.703 498.371C285.417 496.377 368.194 438.062 415.739 320.072C453.475 226.441 495.531 174.889 544.176 162.462C609.633 145.76 678.914 202.631 745.925 257.647C812.936 312.662 881.819 369.204 946.78 352.625C995.123 340.252 1036.9 288.935 1074.52 195.634C1092.69 150.53 1115.1 113.014 1141.1 84.1317C1165.13 57.4487 1192.99 37.2956 1223.95 24.2222C1278.14 1.3334 1343.11 -1.05858 1422.6 16.8813C1491.7 32.4979 1562.13 61.2704 1624.27 86.6611C1718.24 125.057 1799.4 158.228 1838.78 130.652C1858.15 117.07 1866.74 89.5618 1865 46.5198H1866.04C1867.78 89.9329 1859.06 117.743 1839.37 131.531C1799.48 159.438 1718.13 126.17 1623.88 87.6509C1499.93 37.0069 1345.66 -26.0232 1224.34 25.212C1159.45 52.6235 1110.75 108.505 1075.46 196.06C1037.73 289.691 995.673 341.242 947.028 353.669C939.214 355.657 931.181 356.655 923.118 356.639C864.856 356.639 804.187 306.833 745.292 258.485C678.474 203.634 609.385 146.928 544.437 163.493C496.081 175.866 454.3 227.197 416.702 320.498C369.006 438.832 285.912 497.367 162.744 499.36C160.571 499.36 158.369 499.36 156.168 499.36C50.0867 499.36 -72.201 458.559 -180.429 422.487C-249.504 399.447 -314.754 377.685 -371.227 367.348C-434.428 355.786 -477.9 360.144 -508.056 381.095C-539.684 403.035 -556.124 443.369 -558.297 504.419Z" fill="#B488C0"/>
<path opacity="0.3" d="M-583.968 504.117H-585C-582.372 444.73 -565.74 405.139 -533.961 382.91C-502.993 361.258 -458.296 356.213 -393.431 367.046C-335.651 376.669 -268.75 397.743 -197.983 420.027C-80.3177 457.144 41.3921 495.415 150.817 492.886C275.897 490.026 360.669 432.165 409.988 315.975C449.045 223.967 492.132 173.006 541.7 160.387C608.587 143.258 678.9 198.686 746.888 252.286C814.876 305.885 884.776 360.983 951.182 343.992C1000.42 331.386 1043.27 280.687 1082.18 189.008C1135.31 63.9101 1218.37 2.04856 1336.26 0.0552425C1437.68 -1.64939 1546.87 40.6639 1643.18 78.0008C1739.5 115.338 1822.29 147.437 1862.32 119.022C1881.58 105.371 1890.25 78.482 1888.82 36.8423H1889.85C1891.22 78.8669 1882.47 106.031 1862.93 119.915C1852.06 127.628 1838.16 130.913 1821.65 130.913C1776.81 130.913 1713.34 106.306 1642.81 78.9769C1546.59 41.6812 1437.54 -0.590867 1336.29 1.10002C1218.9 3.07959 1136.09 64.68 1083.15 189.434C1044.11 281.429 1001.02 332.321 951.457 345.023C943.136 347.141 934.58 348.204 925.993 348.185C866.837 348.185 805.686 299.96 746.269 253.124C678.474 199.676 608.381 144.413 541.975 161.418C492.738 174.024 449.884 224.723 410.965 316.402C361.439 433.004 276.392 491.071 150.872 493.944C41.1857 496.405 -86.0269 456.333 -198.341 420.975C-269.08 398.705 -335.912 377.658 -393.693 368.022C-458.351 357.244 -502.732 362.22 -533.466 383.707C-564.804 405.675 -581.354 445.074 -583.968 504.117Z" fill="#C01802"/>
</g>
<defs>
<clipPath id="clip0_1147_4005">
<rect width="2475" height="755" fill="white" transform="translate(-585)"/>
</clipPath>
</defs>
</svg>
