<svg width="68" height="69" viewBox="0 0 68 69" fill="none" xmlns="http://www.w3.org/2000/svg">
<g filter="url(#filter0_d_1374_4952)">
<circle cx="34" cy="30.5" r="24" transform="rotate(-180 34 30.5)" fill="white"/>
<path d="M39.4751 38.392L31.2815 30.5074L39.4751 22.6229C39.5965 22.5069 39.6929 22.3689 39.7587 22.2168C39.8245 22.0648 39.8584 21.9017 39.8584 21.737C39.8584 21.5723 39.8245 21.4092 39.7587 21.2571C39.6929 21.1051 39.5965 20.967 39.4751 20.851C39.2309 20.6161 38.8999 20.4841 38.5547 20.4841C38.2095 20.4841 37.8784 20.6161 37.6343 20.851L28.5217 29.6228C28.2784 29.8576 28.1418 30.1758 28.1418 30.5074C28.1418 30.8391 28.2784 31.1572 28.5217 31.3921L37.6343 40.1639C37.8798 40.3921 38.2087 40.5184 38.55 40.5156C38.8913 40.5127 39.2178 40.3809 39.4592 40.1486C39.7006 39.9163 39.8375 39.602 39.8404 39.2734C39.8434 38.9449 39.7122 38.6283 39.4751 38.392Z" fill="#4281FD"/>
</g>
<defs>
<filter id="filter0_d_1374_4952" x="0" y="0.5" width="68" height="68" filterUnits="userSpaceOnUse" color-interpolation-filters="sRGB">
<feFlood flood-opacity="0" result="BackgroundImageFix"/>
<feColorMatrix in="SourceAlpha" type="matrix" values="0 0 0 0 0 0 0 0 0 0 0 0 0 0 0 0 0 0 127 0" result="hardAlpha"/>
<feOffset dy="4"/>
<feGaussianBlur stdDeviation="5"/>
<feComposite in2="hardAlpha" operator="out"/>
<feColorMatrix type="matrix" values="0 0 0 0 0 0 0 0 0 0 0 0 0 0 0 0 0 0 0.15 0"/>
<feBlend mode="normal" in2="BackgroundImageFix" result="effect1_dropShadow_1374_4952"/>
<feBlend mode="normal" in="SourceGraphic" in2="effect1_dropShadow_1374_4952" result="shape"/>
</filter>
</defs>
</svg>
