<svg id="visual" viewBox="0 0 900 600" width="900" height="600" xmlns="http://www.w3.org/2000/svg" xmlns:xlink="http://www.w3.org/1999/xlink" version="1.1"><rect x="0" y="0" width="900" height="600" fill="#ECF2FF"></rect><path d="M0 279L37.5 289.7C75 300.3 150 321.7 225 322.2C300 322.7 375 302.3 450 285.2C525 268 600 254 675 254.8C750 255.7 825 271.3 862.5 279.2L900 287L900 601L862.5 601C825 601 750 601 675 601C600 601 525 601 450 601C375 601 300 601 225 601C150 601 75 601 37.5 601L0 601Z" fill="#fff" stroke-linecap="round" stroke-linejoin="miter"></path></svg>