<svg width="68" height="69" viewBox="0 0 68 69" fill="none" xmlns="http://www.w3.org/2000/svg">
<g filter="url(#filter0_d_1532_482)">
<circle cx="34" cy="29.5" r="24" fill="white"/>
<path d="M28.5249 21.607L36.7185 29.4916L28.5249 37.3761C28.4035 37.4921 28.3071 37.6301 28.2413 37.7822C28.1755 37.9343 28.1416 38.0973 28.1416 38.2621C28.1416 38.4268 28.1755 38.5899 28.2413 38.7419C28.3071 38.894 28.4035 39.032 28.5249 39.148C28.7691 39.3829 29.1001 39.5149 29.4453 39.5149C29.7905 39.5149 30.1216 39.3829 30.3657 39.148L39.4783 30.3763C39.7216 30.1414 39.8582 29.8232 39.8582 29.4916C39.8582 29.1599 39.7216 28.8418 39.4783 28.6069L30.3657 19.8352C30.1202 19.6069 29.7913 19.4806 29.45 19.4834C29.1087 19.4863 28.7822 19.6181 28.5408 19.8504C28.2994 20.0828 28.1625 20.3971 28.1596 20.7256C28.1566 21.0542 28.2878 21.3707 28.5249 21.607Z" fill="#4281FD"/>
</g>
<defs>
<filter id="filter0_d_1532_482" x="0" y="0.5" width="68" height="68" filterUnits="userSpaceOnUse" color-interpolation-filters="sRGB">
<feFlood flood-opacity="0" result="BackgroundImageFix"/>
<feColorMatrix in="SourceAlpha" type="matrix" values="0 0 0 0 0 0 0 0 0 0 0 0 0 0 0 0 0 0 127 0" result="hardAlpha"/>
<feOffset dy="5"/>
<feGaussianBlur stdDeviation="5"/>
<feComposite in2="hardAlpha" operator="out"/>
<feColorMatrix type="matrix" values="0 0 0 0 0 0 0 0 0 0 0 0 0 0 0 0 0 0 0.15 0"/>
<feBlend mode="normal" in2="BackgroundImageFix" result="effect1_dropShadow_1532_482"/>
<feBlend mode="normal" in="SourceGraphic" in2="effect1_dropShadow_1532_482" result="shape"/>
</filter>
</defs>
</svg>
