<svg width="216" height="65" viewBox="0 0 216 65" fill="none" xmlns="http://www.w3.org/2000/svg">
<path d="M13 56.5326C14.8516 55.5642 16.9209 54.9472 18.9132 54.3521C35.9003 49.2774 53.6516 46.608 71.206 44.4304C87.0815 42.4611 103.024 41.6046 119.006 41.1148C139.787 40.4779 160.62 40.4208 181.359 42.0997C187.674 42.611 194.398 43.0998 200.381 45.4123C201.259 45.7516 202.961 46.4568 203.438 47.4226C203.687 47.9257 203.439 48.9122 203.417 49.4724" stroke="#4281FD" stroke-width="3" stroke-linecap="round"/>
<path d="M18.5859 36.5156C18.5859 38 18.2344 39.2565 17.5312 40.2852C16.8411 41.3008 15.806 42.0755 14.4258 42.6094C13.0456 43.1302 11.3268 43.3906 9.26953 43.3906C7.74609 43.3906 6.4375 43.293 5.34375 43.0977C4.26302 42.9023 3.16927 42.5768 2.0625 42.1211V37.1992C3.2474 37.7331 4.51693 38.1758 5.87109 38.5273C7.23828 38.8659 8.4362 39.0352 9.46484 39.0352C10.6237 39.0352 11.4505 38.8659 11.9453 38.5273C12.4531 38.1758 12.707 37.7201 12.707 37.1602C12.707 36.7956 12.6029 36.4701 12.3945 36.1836C12.1992 35.8841 11.7695 35.5521 11.1055 35.1875C10.4414 34.8099 9.39974 34.3216 7.98047 33.7227C6.61328 33.1497 5.48698 32.5703 4.60156 31.9844C3.72917 31.3984 3.07812 30.7083 2.64844 29.9141C2.23177 29.1068 2.02344 28.0846 2.02344 26.8477C2.02344 24.8294 2.80469 23.3125 4.36719 22.2969C5.94271 21.2682 8.04557 20.7539 10.6758 20.7539C12.0299 20.7539 13.319 20.8906 14.543 21.1641C15.7799 21.4375 17.0495 21.8737 18.3516 22.4727L16.5547 26.7695C15.474 26.3008 14.4518 25.9167 13.4883 25.6172C12.5378 25.3177 11.5677 25.168 10.5781 25.168C9.70573 25.168 9.04818 25.2852 8.60547 25.5195C8.16276 25.7539 7.94141 26.112 7.94141 26.5938C7.94141 26.9453 8.05208 27.2578 8.27344 27.5312C8.50781 27.8047 8.95052 28.1107 9.60156 28.4492C10.2656 28.7747 11.2357 29.1979 12.5117 29.7188C13.7487 30.2266 14.8229 30.7604 15.7344 31.3203C16.6458 31.8672 17.349 32.5508 17.8438 33.3711C18.3385 34.1784 18.5859 35.2266 18.5859 36.5156ZM32.1797 20.7148C35.1094 20.7148 37.3555 21.3529 38.918 22.6289C40.4805 23.9049 41.2617 25.8451 41.2617 28.4492V43H37.1016L35.9492 40.0312H35.793C35.168 40.8125 34.5299 41.4505 33.8789 41.9453C33.2279 42.4401 32.4792 42.8047 31.6328 43.0391C30.7865 43.2734 29.7578 43.3906 28.5469 43.3906C27.2578 43.3906 26.099 43.1432 25.0703 42.6484C24.0547 42.1536 23.2539 41.3984 22.668 40.3828C22.082 39.3542 21.7891 38.0521 21.7891 36.4766C21.7891 34.1589 22.6029 32.4531 24.2305 31.3594C25.8581 30.2526 28.2995 29.6406 31.5547 29.5234L35.3438 29.4062V28.4492C35.3438 27.3034 35.0443 26.4635 34.4453 25.9297C33.8464 25.3958 33.013 25.1289 31.9453 25.1289C30.8906 25.1289 29.8555 25.2786 28.8398 25.5781C27.8242 25.8776 26.8086 26.2552 25.793 26.7109L23.8203 22.6875C24.9792 22.0755 26.2747 21.5938 27.707 21.2422C29.1523 20.8906 30.6432 20.7148 32.1797 20.7148ZM35.3438 32.8828L33.0391 32.9609C31.112 33.013 29.7708 33.3581 29.0156 33.9961C28.2734 34.6341 27.9023 35.474 27.9023 36.5156C27.9023 37.4271 28.1693 38.0781 28.7031 38.4688C29.237 38.8464 29.9336 39.0352 30.793 39.0352C32.069 39.0352 33.1432 38.6576 34.0156 37.9023C34.901 37.1471 35.3438 36.0729 35.3438 34.6797V32.8828ZM59.4844 25.6367H54.3281V43H48.3711V25.6367H45.0898V22.7656L48.3711 21.1641V19.5625C48.3711 17.7005 48.6836 16.2552 49.3086 15.2266C49.9466 14.1849 50.8385 13.4557 51.9844 13.0391C53.1432 12.6094 54.5104 12.3945 56.0859 12.3945C57.2448 12.3945 58.2995 12.4922 59.25 12.6875C60.2005 12.8698 60.9753 13.0781 61.5742 13.3125L60.0508 17.6875C59.5951 17.5443 59.1003 17.4141 58.5664 17.2969C58.0326 17.1797 57.4206 17.1211 56.7305 17.1211C55.8971 17.1211 55.2852 17.375 54.8945 17.8828C54.5169 18.3776 54.3281 19.0156 54.3281 19.7969V21.1641H59.4844V25.6367ZM71.9258 20.7539C73.944 20.7539 75.6823 21.1445 77.1406 21.9258C78.599 22.694 79.7253 23.8138 80.5195 25.2852C81.3138 26.7565 81.7109 28.5534 81.7109 30.6758V33.5664H67.6289C67.694 35.2461 68.1953 36.5677 69.1328 37.5312C70.0833 38.4818 71.3984 38.957 73.0781 38.957C74.4714 38.957 75.7474 38.8138 76.9062 38.5273C78.0651 38.2409 79.2565 37.8112 80.4805 37.2383V41.8477C79.3997 42.3815 78.2669 42.7721 77.082 43.0195C75.9102 43.2669 74.4844 43.3906 72.8047 43.3906C70.6172 43.3906 68.6771 42.987 66.9844 42.1797C65.3047 41.3724 63.9831 40.1419 63.0195 38.4883C62.069 36.8346 61.5938 34.7513 61.5938 32.2383C61.5938 29.6862 62.0234 27.5638 62.8828 25.8711C63.7552 24.1654 64.9661 22.8893 66.5156 22.043C68.0651 21.1836 69.8685 20.7539 71.9258 20.7539ZM71.9648 24.9922C70.806 24.9922 69.8424 25.3633 69.0742 26.1055C68.319 26.8477 67.8828 28.013 67.7656 29.6016H76.125C76.112 28.7161 75.9492 27.9284 75.6367 27.2383C75.3372 26.5482 74.8815 26.0013 74.2695 25.5977C73.6706 25.194 72.9023 24.9922 71.9648 24.9922ZM102.902 12.6094V18.8008C102.902 19.8815 102.863 20.9102 102.785 21.8867C102.72 22.8633 102.668 23.5534 102.629 23.957H102.941C103.41 23.2018 103.964 22.5898 104.602 22.1211C105.253 21.6523 105.969 21.3073 106.75 21.0859C107.531 20.8646 108.371 20.7539 109.27 20.7539C110.845 20.7539 112.219 21.0339 113.391 21.5938C114.562 22.1406 115.474 23.0065 116.125 24.1914C116.776 25.3633 117.102 26.8867 117.102 28.7617V43H111.145V30.2461C111.145 28.6836 110.858 27.5052 110.285 26.7109C109.712 25.9167 108.827 25.5195 107.629 25.5195C106.431 25.5195 105.487 25.7995 104.797 26.3594C104.107 26.9062 103.618 27.7201 103.332 28.8008C103.046 29.8685 102.902 31.1771 102.902 32.7266V43H96.9453V12.6094H102.902ZM132.18 20.7148C135.109 20.7148 137.355 21.3529 138.918 22.6289C140.48 23.9049 141.262 25.8451 141.262 28.4492V43H137.102L135.949 40.0312H135.793C135.168 40.8125 134.53 41.4505 133.879 41.9453C133.228 42.4401 132.479 42.8047 131.633 43.0391C130.786 43.2734 129.758 43.3906 128.547 43.3906C127.258 43.3906 126.099 43.1432 125.07 42.6484C124.055 42.1536 123.254 41.3984 122.668 40.3828C122.082 39.3542 121.789 38.0521 121.789 36.4766C121.789 34.1589 122.603 32.4531 124.23 31.3594C125.858 30.2526 128.299 29.6406 131.555 29.5234L135.344 29.4062V28.4492C135.344 27.3034 135.044 26.4635 134.445 25.9297C133.846 25.3958 133.013 25.1289 131.945 25.1289C130.891 25.1289 129.855 25.2786 128.84 25.5781C127.824 25.8776 126.809 26.2552 125.793 26.7109L123.82 22.6875C124.979 22.0755 126.275 21.5938 127.707 21.2422C129.152 20.8906 130.643 20.7148 132.18 20.7148ZM135.344 32.8828L133.039 32.9609C131.112 33.013 129.771 33.3581 129.016 33.9961C128.273 34.6341 127.902 35.474 127.902 36.5156C127.902 37.4271 128.169 38.0781 128.703 38.4688C129.237 38.8464 129.934 39.0352 130.793 39.0352C132.069 39.0352 133.143 38.6576 134.016 37.9023C134.901 37.1471 135.344 36.0729 135.344 34.6797V32.8828ZM159.816 20.7539C162.147 20.7539 164.022 21.3919 165.441 22.668C166.861 23.931 167.57 25.9622 167.57 28.7617V43H161.613V30.2461C161.613 28.6836 161.327 27.5052 160.754 26.7109C160.194 25.9167 159.309 25.5195 158.098 25.5195C156.275 25.5195 155.031 26.138 154.367 27.375C153.703 28.612 153.371 30.3958 153.371 32.7266V43H147.414V21.1641H151.965L152.766 23.957H153.098C153.566 23.2018 154.146 22.5898 154.836 22.1211C155.539 21.6523 156.314 21.3073 157.16 21.0859C158.02 20.8646 158.905 20.7539 159.816 20.7539ZM180.617 43.3906C178.182 43.3906 176.197 42.4401 174.66 40.5391C173.137 38.625 172.375 35.819 172.375 32.1211C172.375 28.3841 173.15 25.5586 174.699 23.6445C176.249 21.7174 178.273 20.7539 180.773 20.7539C181.815 20.7539 182.733 20.8971 183.527 21.1836C184.322 21.4701 185.005 21.8542 185.578 22.3359C186.164 22.8177 186.659 23.3581 187.062 23.957H187.258C187.18 23.5404 187.082 22.9284 186.965 22.1211C186.861 21.3008 186.809 20.4609 186.809 19.6016V12.6094H192.785V43H188.215L187.062 40.168H186.809C186.431 40.7669 185.956 41.3138 185.383 41.8086C184.823 42.2904 184.152 42.6745 183.371 42.9609C182.59 43.2474 181.672 43.3906 180.617 43.3906ZM182.707 38.6445C184.335 38.6445 185.48 38.1628 186.145 37.1992C186.822 36.2227 187.18 34.7578 187.219 32.8047V32.1602C187.219 30.0378 186.893 28.4167 186.242 27.2969C185.591 26.1641 184.38 25.5977 182.609 25.5977C181.294 25.5977 180.266 26.1641 179.523 27.2969C178.781 28.4297 178.41 30.0638 178.41 32.1992C178.41 34.3346 178.781 35.9427 179.523 37.0234C180.279 38.1042 181.34 38.6445 182.707 38.6445ZM214.25 36.5156C214.25 38 213.898 39.2565 213.195 40.2852C212.505 41.3008 211.47 42.0755 210.09 42.6094C208.71 43.1302 206.991 43.3906 204.934 43.3906C203.41 43.3906 202.102 43.293 201.008 43.0977C199.927 42.9023 198.833 42.5768 197.727 42.1211V37.1992C198.911 37.7331 200.181 38.1758 201.535 38.5273C202.902 38.8659 204.1 39.0352 205.129 39.0352C206.288 39.0352 207.115 38.8659 207.609 38.5273C208.117 38.1758 208.371 37.7201 208.371 37.1602C208.371 36.7956 208.267 36.4701 208.059 36.1836C207.863 35.8841 207.434 35.5521 206.77 35.1875C206.105 34.8099 205.064 34.3216 203.645 33.7227C202.277 33.1497 201.151 32.5703 200.266 31.9844C199.393 31.3984 198.742 30.7083 198.312 29.9141C197.896 29.1068 197.688 28.0846 197.688 26.8477C197.688 24.8294 198.469 23.3125 200.031 22.2969C201.607 21.2682 203.71 20.7539 206.34 20.7539C207.694 20.7539 208.983 20.8906 210.207 21.1641C211.444 21.4375 212.714 21.8737 214.016 22.4727L212.219 26.7695C211.138 26.3008 210.116 25.9167 209.152 25.6172C208.202 25.3177 207.232 25.168 206.242 25.168C205.37 25.168 204.712 25.2852 204.27 25.5195C203.827 25.7539 203.605 26.112 203.605 26.5938C203.605 26.9453 203.716 27.2578 203.938 27.5312C204.172 27.8047 204.615 28.1107 205.266 28.4492C205.93 28.7747 206.9 29.1979 208.176 29.7188C209.413 30.2266 210.487 30.7604 211.398 31.3203C212.31 31.8672 213.013 32.5508 213.508 33.3711C214.003 34.1784 214.25 35.2266 214.25 36.5156Z" fill="black"/>
</svg>
