<svg width="134" height="145" viewBox="0 0 134 145" fill="none" xmlns="http://www.w3.org/2000/svg">
<mask id="mask0_3211_7096" style="mask-type:luminance" maskUnits="userSpaceOnUse" x="0" y="23" width="134" height="103">
<path d="M121.476 125.652H17.5813C3.15541 125.652 -1.29823 103.793 1.26661 89.8018C5.97346 64.1249 26.2571 42.6799 42.3537 32.1003C53.2431 24.9435 65.5148 22.4861 77.0838 23.151C92.0379 24.0109 106.925 30.3502 116.915 43.9832C128.605 59.9222 140.162 91.9116 128.524 115.856C126.606 119.804 124.21 123.025 121.476 125.652Z" fill="white"/>
</mask>
<g mask="url(#mask0_3211_7096)">
<path d="M121.476 125.652H17.5813C3.15541 125.652 -1.29823 103.793 1.26661 89.8018C5.97346 64.1249 26.2571 42.6799 42.3537 32.1003C53.2431 24.9435 65.5148 22.4861 77.0838 23.151C92.0379 24.0109 106.925 30.3502 116.915 43.9832C128.605 59.9222 140.162 91.9116 128.524 115.856C126.606 119.804 124.21 123.025 121.476 125.652Z" fill="#E0ECFF"/>
<path d="M1.5271 58.2532C4.21188 57.9553 6.92089 58.6408 8.14576 60.8439C8.60864 60.673 9.09228 60.5646 9.58386 60.5217C12.7581 60.2722 15.8839 62.8956 16.2207 66.0822C18.0998 64.9752 21.4303 66.8271 20.7495 68.9091C21.0947 67.8663 23.0308 65.8521 26.5843 66.7471C28.2126 67.1577 29.3357 68.8158 29.8033 70.182H-4.0557C-4.0557 70.182 -5.63919 59.0477 1.5271 58.2532Z" fill="white"/>
<path d="M94.8972 34.3579C94.9166 33.2606 94.484 31.8144 92.9005 31.0126C92.1954 30.6493 90.0122 30.3974 88.9945 31.29C88.7353 30.3489 86.4079 26.082 81.6356 27.3561C77.8883 28.3517 77.5878 31.9501 77.6726 32.1633C77.3616 31.298 76.7766 30.5578 76.0065 30.055C75.2363 29.5523 74.3232 29.3144 73.4056 29.3776C72.5279 29.4395 71.6913 29.7736 71.0124 30.3333C70.3336 30.8929 69.8462 31.6503 69.6183 32.5C69.407 32.5024 69.1962 32.5227 68.9883 32.5605C67.4194 32.8403 66.541 33.6857 66.0733 34.3579H94.8972Z" fill="white"/>
<path d="M113.629 74.7784C113.96 74.2653 114.386 73.8204 114.885 73.4679C115.09 73.3237 115.307 73.1977 115.533 73.0912C116.141 72.8117 116.803 72.669 117.472 72.6733C117.771 71.836 118.322 71.1117 119.05 70.5996C119.777 70.0875 120.645 69.8126 121.534 69.8126C122.229 69.81 122.914 69.9763 123.53 70.297C124.719 68.8594 126.426 67.8529 128.285 67.7051C131.889 67.4205 135.444 70.4 135.821 74.0177C137.673 72.9277 140.771 74.369 141.046 76.319H106.372C108.32 74.4211 111.512 74.1546 113.629 74.7784Z" fill="white"/>
<path d="M-11.096 97.4504C-9.17568 98.2727 -5.78335 101.408 -6.71745 104.384C-5.18122 100.414 0.222267 97.1536 6.45445 99.3337C7.9083 99.8424 9.18891 101.018 10.1969 102.483C11.0889 101.892 12.0552 101.421 13.0707 101.084C19.5973 98.9195 26.6812 102.621 29.0219 109.286C29.6132 110.963 29.8657 112.741 29.7646 114.516C34.8119 114.231 39.6823 116.09 42.2217 121.428C45.0082 119.099 51.2646 118.521 54.2535 122C55.5983 119.577 60.8807 117.063 63.8877 116.913C74.1131 116.41 76.6961 122.139 76.6961 122.139C76.6961 122.139 77.7478 119.127 82.7611 116.784C90.2812 113.272 96.351 115.985 98.4615 116.98C98.911 106.583 114.712 100.167 122.163 109.613C123.038 102.425 130.222 99.5166 136.597 104.264C138.186 99.1254 144.73 96.9974 148.955 98.1771C150.757 98.6851 152.462 99.4877 154.001 100.552V131.957H-14V96.9538C-13.006 96.8806 -12.0092 97.0511 -11.096 97.4504Z" fill="white"/>
</g>
<path d="M48.4417 104.347L91.8489 48.1182" stroke="#BFCDD6" stroke-width="6.21" stroke-miterlimit="10"/>
<path d="M90.2037 47.1116L91.8477 48.1181C107.523 59.8446 110.721 82.0527 98.9958 97.7228C87.2705 113.393 65.0508 116.59 49.3758 104.869L47.67 103.151" stroke="#BFCDD6" stroke-width="18.62" stroke-miterlimit="10"/>
<path d="M72.6787 115.779H68.5546V123.373H72.6787V115.779Z" fill="#BFCDD6"/>
<path d="M71.3181 112.39H69.9151V119.984H71.3181V112.39Z" fill="#BFCDD6"/>
<path d="M60.8661 123.373H80.372C80.7605 123.376 81.1321 123.532 81.4058 123.808C81.6795 124.084 81.8331 124.456 81.8331 124.845V125.76H59.3953V124.845C59.3951 124.651 59.4331 124.46 59.5069 124.282C59.5808 124.103 59.6891 123.941 59.8257 123.804C59.9623 123.667 60.1245 123.559 60.303 123.485C60.4815 123.411 60.6729 123.373 60.8661 123.373Z" fill="#BFCDD6"/>
<mask id="mask1_3211_7096" style="mask-type:luminance" maskUnits="userSpaceOnUse" x="39" y="45" width="63" height="63">
<path d="M92.4321 98.6046C104.481 86.5598 104.481 67.0315 92.4321 54.9867C80.3836 42.942 60.8492 42.942 48.8008 54.9867C36.7523 67.0315 36.7523 86.5598 48.8008 98.6046C60.8492 110.649 80.3836 110.649 92.4321 98.6046Z" fill="white"/>
</mask>
<g mask="url(#mask1_3211_7096)">
<path d="M92.4321 98.6046C104.481 86.5598 104.481 67.0315 92.4321 54.9867C80.3836 42.942 60.8492 42.942 48.8008 54.9867C36.7523 67.0315 36.7523 86.5598 48.8008 98.6046C60.8492 110.649 80.3836 110.649 92.4321 98.6046Z" fill="#65A7D4"/>
<path d="M92.4321 98.6046C104.481 86.5598 104.481 67.0315 92.4321 54.9867C80.3836 42.942 60.8492 42.942 48.8008 54.9867C36.7523 67.0315 36.7523 86.5598 48.8008 98.6046C60.8492 110.649 80.3836 110.649 92.4321 98.6046Z" fill="#6BB2C9"/>
<path d="M62.131 84.6302C60.6771 83.6673 58.7726 85.1025 57.1636 84.4376C55.7279 83.8453 55.5196 81.7028 54.0378 81.2377C53.4769 81.0609 52.8578 80.9761 52.418 80.5873C51.7577 80.0035 51.4839 78.7705 50.6007 78.8262C49.8604 78.8711 49.1965 79.9163 48.5968 79.4766C48.048 79.077 47.2956 79.1533 46.6292 79.2841C45.9629 79.4149 45.2493 79.5796 44.6253 79.3119C44.0014 79.0443 44.1819 78.3527 44.1492 77.6744C44.1238 77.1451 43.0455 77.8282 42.6336 77.494C42.1138 77.0725 42.9898 76.0999 42.7026 75.4955C42.4664 74.9953 41.8618 75.9279 41.3699 76.1677C40.9035 76.393 40.3534 76.0175 40.0881 75.5718C39.4145 74.4357 39.9403 72.7655 41.1446 72.2217C42.3489 71.6779 43.5677 72.5766 44.3588 73.64C44.6896 74.0881 45.2699 73.1737 45.1693 72.6263C45.0688 72.0788 44.8616 71.3787 45.3256 71.0711C46.6035 70.2206 47.6235 69.0359 48.2745 67.6459C48.5168 67.1263 49.1105 66.4796 49.5103 66.8901C49.9101 67.3007 50.5389 66.7618 50.8733 66.3015C51.2077 65.8413 51.994 65.4416 52.2326 65.9575C52.4616 66.4505 53.3049 66.1114 53.3957 65.5748C53.4866 65.0383 53.1607 64.5356 52.9438 64.0366C52.8416 63.7949 52.8032 63.5309 52.8323 63.2701C52.8614 63.0093 52.9569 62.7602 53.1098 62.5469C53.1631 62.4641 53.2344 62.3944 53.3184 62.343C53.4024 62.2917 53.4969 62.26 53.5949 62.2503C53.6929 62.2406 53.7918 62.2532 53.8843 62.2872C53.9767 62.3211 54.0603 62.3756 54.1287 62.4464C54.4171 62.7552 54.4922 63.2021 54.686 63.574C54.8799 63.9458 55.4735 64.377 55.7098 64.0281C57.1479 61.911 56.0429 58.8734 55.1646 56.4692C55.0022 56.0259 54.3068 56.399 54.159 56.8471C54.0112 57.2952 53.6744 58.332 53.4127 57.9372C53.0868 57.4357 53.5338 56.6884 53.0601 56.319C52.8193 56.1397 52.5253 56.0462 52.2251 56.0535C51.9249 56.0607 51.6358 56.1683 51.4039 56.359C51.1616 56.5698 49.3128 58.8564 49.1626 59.1447C48.0807 61.1964 49.2995 62.4246 48.2975 62.4573C47.5585 62.4815 47.8638 61.8238 47.699 61.1032C47.5343 60.3825 46.9963 59.6934 46.2646 59.5856C45.5522 59.4802 45.7497 58.3356 46.3167 57.8899C46.8837 57.4442 47.6942 57.0978 47.7572 56.3808C47.7972 55.929 48.4005 55.7655 48.8379 55.8842C49.2753 56.0029 49.6751 56.2839 50.1282 56.2815C50.5813 56.2791 51.0417 55.7328 50.7412 55.3949C50.3705 54.9795 50.6661 54.3049 51.0805 53.933C51.4948 53.5612 52.0339 53.2838 52.2593 52.7739C52.4737 52.2895 52.3405 51.7239 52.4107 51.1994C52.481 50.675 52.9717 50.0997 53.4587 50.3141C53.7216 50.4291 53.8513 50.7283 53.9021 51.0105C54.1372 52.3137 52.1091 53.2415 52.3829 54.5374C52.6082 55.602 54.3371 55.4979 55.3136 55.9787C55.4557 56.0626 55.6154 56.1123 55.78 56.124C56.3046 56.124 56.507 55.4179 56.4222 54.8995C56.3374 54.3812 56.152 53.7962 56.4621 53.3723C56.7045 53.0319 57.1891 52.9423 57.475 52.6286C58.0287 52.0097 57.4919 51.0456 56.9249 50.4388C56.3579 49.832 55.7134 49.0036 56.0938 48.2696C56.5373 47.4278 55.4784 46.4383 54.5334 46.5534C53.5884 46.6684 52.8699 47.4206 52.2217 48.117C51.5736 48.8134 50.8139 49.5425 49.8629 49.5849C49.3782 49.6067 49.1977 50.2462 49.3019 50.715C49.4061 51.1837 49.6654 51.6488 49.5563 52.1175C49.411 52.7461 48.678 53.0477 48.0334 53.0695C47.3889 53.0913 46.7322 52.9326 46.1047 53.0816C44.6508 53.4243 44.0729 55.1163 43.5325 56.5056C42.7594 58.4903 41.6072 60.3057 40.1402 61.8505C39.0099 63.0386 37.688 64.073 36.8157 65.461C35.7932 67.0876 35.4612 69.0945 35.483 70.9863C35.4976 72.6577 36.1458 73.3215 36.7467 74.764C37.7268 77.1161 37.6372 76.806 40.1717 77.0361C41.7249 77.1766 43.1594 78.1637 43.6561 79.6801C44.0002 80.7314 45.8914 80.4371 46.2997 81.4654C46.6414 82.3241 45.5994 83.1283 45.5352 84.05C45.5061 84.4679 45.6842 84.87 45.8769 85.2418C46.5097 86.4638 47.3375 87.5745 48.3278 88.5302C48.7495 88.9371 49.2026 89.3186 49.5394 89.797C50.1997 90.7321 50.3451 91.9214 50.545 93.0478C51.3379 97.4807 53.2542 101.636 56.1108 105.118C56.6184 105.737 57.6083 107.145 58.025 106.462C59.4183 104.175 53.2625 101.065 55.0422 99.0625C56.0272 97.9555 56.2259 96.1206 57.687 95.8686C58.5193 95.7245 58.7447 94.6575 58.8356 93.8205C58.9264 92.9836 59.3347 91.9166 60.1779 91.9759C60.7752 92.0183 61.1872 91.3522 61.2405 90.7551C61.2938 90.158 61.1387 89.5439 61.2877 88.9637C61.6209 87.669 63.3752 86.7037 62.893 85.4574C62.744 85.1013 62.4472 84.8397 62.131 84.6302Z" fill="#F2D591"/>
<path d="M68.534 50.5392C68.4649 50.2255 68.3026 49.9252 68.322 49.6042C68.3644 48.9259 69.1785 48.4948 69.2342 47.8177C69.2585 47.5234 69.1301 47.2279 69.1737 46.936C69.2548 46.3716 69.8897 46.0942 70.2641 45.6606C70.5778 45.2973 70.7051 44.8055 70.991 44.4143C71.4465 43.7797 72.3128 43.3727 72.4 42.5976C72.5006 41.7001 71.4308 41.0897 70.5318 41.1127C69.6328 41.1357 68.7581 41.5269 67.8555 41.4833C67.0074 41.4409 66.2102 41.0158 65.3609 40.9698C63.7302 40.8801 62.3151 42.1809 60.6868 42.302C60.4312 42.3214 60.1683 42.3142 59.9272 42.4014C58.7556 42.8241 59.3844 44.0243 59.6582 45.5298C59.7309 45.9295 58.9725 45.9792 58.6284 46.1984C58.5699 46.2294 58.5202 46.2748 58.4842 46.3304C58.3534 46.5847 58.8016 46.7095 59.0827 46.6574C59.4462 46.5896 59.8436 46.5581 60.1828 46.7119C60.522 46.8657 60.7765 47.263 60.6565 47.6155C60.6044 47.7668 60.493 47.8928 60.4481 48.0466C60.3088 48.5202 60.8491 48.9841 60.745 49.4673C60.6771 49.7786 60.373 49.9663 60.1537 50.194C59.9344 50.4217 59.8109 50.8481 60.075 51.0249C60.43 51.2599 61.1375 50.8226 61.2296 51.2381C61.2938 51.5215 60.8903 51.6353 60.6056 51.6935C59.7054 51.8764 59.0924 52.7738 58.9482 53.681C58.8041 54.5882 59.027 55.5074 59.2499 56.3977C59.3444 56.7804 59.4692 57.2031 59.8109 57.4005C60.1525 57.5979 60.3391 57.2322 60.6044 56.9415C61.1278 56.3637 61.9517 56.2899 62.2788 55.5825C62.6059 54.8752 63.0772 54.0335 63.8538 54.0516C64.0319 54.0516 64.2112 54.1098 64.3869 54.0758C64.8521 53.9862 64.9926 53.3927 65.321 53.0524C65.8613 52.4965 66.7966 52.7096 67.5199 52.4323C67.8802 52.2806 68.1775 52.0098 68.3621 51.6652C68.5467 51.3206 68.6074 50.9231 68.534 50.5392Z" fill="#F2D591"/>
<path d="M73.6164 62.2476C73.5643 62.5383 73.5643 62.9368 73.849 63.0143C73.931 63.027 74.015 63.0167 74.0916 62.9847C74.1681 62.9526 74.2343 62.9 74.2828 62.8326C74.3894 62.7054 74.4596 62.5516 74.5675 62.4257C74.7989 62.1556 75.1732 62.055 75.458 61.8455C75.7427 61.636 75.9365 61.183 75.676 60.9408C75.4846 60.7639 75.1636 60.8196 74.9588 60.6525C74.628 60.3909 74.8376 57.7457 73.5788 58.9363C73.0942 59.3917 73.5364 59.4207 73.7182 59.9052C73.9823 60.5992 73.746 61.5379 73.6164 62.2476Z" fill="#F2D591"/>
<path d="M70.9559 54.2829C71.031 53.056 69.3009 54.146 68.8514 54.1206C68.5316 54.1036 68.2141 53.991 67.8967 54.0382C67.5793 54.0854 67.2631 54.3943 67.3782 54.6935C67.4812 54.9635 67.8628 55.0568 67.9306 55.3414C67.9335 55.4426 67.9465 55.5432 67.9694 55.6418C68.0639 55.8538 68.3753 55.8041 68.5909 55.7181L70.0169 55.1561C70.4385 54.9902 70.928 54.7346 70.9559 54.2829Z" fill="#F2D591"/>
<path d="M100.916 69.0375C100.634 66.9615 101.361 64.8553 101.139 62.7721C100.829 59.8592 98.7547 57.4841 96.7775 55.321C96.3474 54.8498 95.9016 54.3666 95.3236 54.0965C94.7457 53.8264 93.991 53.824 93.5281 54.2588C93.2858 54.4889 93.0435 54.8522 92.7176 54.7687C92.5823 54.7191 92.4652 54.6296 92.382 54.5119C91.9265 53.9887 91.4713 53.4659 91.0166 52.9434C90.9229 52.8113 90.7922 52.7097 90.641 52.6515C90.2412 52.5425 89.9468 53.0428 89.9141 53.4558C89.8814 53.8688 89.9238 54.352 89.6112 54.6245C89.4125 54.7977 89.1266 54.8232 88.8722 54.874C88.2834 54.9952 87.7454 55.2822 87.2184 55.568C86.7471 55.8236 86.4079 56.2209 86.065 56.6327C85.8142 56.9343 85.3381 56.4801 85.0958 56.1724C84.7759 55.7667 84.0866 55.4687 84.1375 54.9613C84.1968 54.369 85.3042 55.5269 85.7997 55.1962C86.0287 55.0436 86.0275 54.6839 85.87 54.4574C85.7125 54.2309 85.452 54.1062 85.2012 53.9899L84.0672 53.4533C83.7037 53.2826 83.3209 53.1021 83.0725 52.7836C82.8665 52.5183 82.7708 52.178 82.5564 51.9224C82.0718 51.3471 81.1365 51.3762 80.5052 51.7807C79.874 52.1852 79.4803 52.8599 79.1096 53.5103C78.6625 54.2927 78.3063 55.2544 77.8314 55.9859C77.5733 56.382 76.4357 56.7586 76.5835 57.3182C76.6271 57.4853 76.7737 57.6016 76.8646 57.7469C77.0015 57.9637 76.8282 58.2314 76.8827 58.4736C77.0039 59.0344 77.9404 58.6323 78.5014 58.5076C78.5886 58.4882 78.6661 58.5633 78.7437 58.5536C78.9775 58.5245 79.0102 58.5415 79.1677 58.7147C79.3906 58.9569 79.3967 59.1398 79.4657 59.4038C79.5348 59.6679 79.8619 59.7672 80.1236 59.8132C80.3107 59.8406 80.5017 59.8169 80.6763 59.7446C80.851 59.6723 81.0029 59.5542 81.1159 59.4026C81.2685 59.1919 81.323 58.8721 81.1413 58.6868C81.0202 58.5657 80.8142 58.5306 80.6906 58.401C80.3768 58.0703 80.8372 57.5229 80.7112 57.0844C80.6652 56.9233 80.5392 56.7877 80.5234 56.6218C80.5077 56.4558 80.6204 56.273 80.7306 56.1264C80.876 55.9326 81.0323 55.7291 81.2552 55.6335C81.4781 55.5378 81.7883 55.5983 81.884 55.8224C82.0148 56.13 81.678 56.428 81.6308 56.7635C81.5702 57.1971 82.01 57.5314 82.4207 57.6803C82.8314 57.8293 83.3088 57.9226 83.562 58.2786C83.6272 58.3815 83.6699 58.4969 83.6872 58.6175C83.7046 58.738 83.6962 58.8608 83.6627 58.9778C83.6292 59.0949 83.5712 59.2035 83.4927 59.2965C83.4141 59.3896 83.3168 59.465 83.207 59.5177C82.9356 59.6303 82.6145 59.594 82.3529 59.7296C82.0148 59.904 81.8682 60.3098 81.586 60.5653C81.0601 61.0401 80.2266 60.8766 79.5833 60.5811C79.4621 60.5254 79.341 60.3473 79.2271 60.4103C79.1132 60.4733 79.3119 60.6525 79.2537 60.741C79.0429 61.0716 78.4662 60.1475 78.1633 60.397C77.8605 60.6465 78.2082 61.1431 77.9501 61.4107C77.692 61.6784 77.3443 61.8334 77.0257 62.026C75.9159 62.697 74.7553 63.1245 73.6794 63.85C72.9307 64.3539 75.298 65.1823 74.9382 66.0096C74.7286 66.494 74.0235 66.3608 73.5316 66.1815C73.0397 66.0023 72.2873 65.9914 72.1989 66.5086C72.1517 66.798 72.3806 67.0718 72.3625 67.3649C72.3491 67.595 72.1868 67.7851 72.1044 68.0019C71.8718 68.6196 72.4049 69.3342 73.053 69.4553C73.7012 69.5765 74.3664 69.2385 74.8219 68.7601C75.2774 68.2817 75.5706 67.6773 75.8929 67.1008C75.9917 66.8978 76.1296 66.7163 76.2988 66.5667C76.89 66.1077 77.881 66.4831 78.4165 65.9611C78.4842 65.8737 78.5661 65.7984 78.6589 65.7383C78.8915 65.6305 79.1544 65.8473 79.2525 66.0834C79.3507 66.3196 79.3664 66.5921 79.5045 66.8101C79.8341 67.3225 80.7245 67.3261 80.9099 67.9002C81.0311 68.2769 80.8845 68.8776 81.2734 68.9297C81.3484 68.9327 81.4229 68.915 81.4885 68.8784C81.5541 68.8419 81.6084 68.788 81.6453 68.7226C81.9191 68.312 81.7047 67.7536 81.403 67.3576C81.1013 66.9615 80.5549 66.6309 80.5852 66.1355C80.6155 65.6947 81.3715 65.9381 81.7216 66.2094C82.3977 66.7326 83.1319 67.3564 83.2009 68.209C83.2264 68.5179 83.1573 68.8316 83.2009 69.138C83.2446 69.4444 83.5147 69.9204 83.7813 69.7618C84.1387 69.5486 83.9485 68.9479 84.0975 68.5603C84.2465 68.1727 84.7735 67.8602 85.0667 68.1582C85.3199 68.4162 85.137 68.8425 85.1552 69.2034C85.183 69.7521 85.727 70.1615 86.2722 70.2317C86.8174 70.302 87.3626 69.7472 87.8787 69.9374C88.3633 70.1179 88.201 70.9366 88.0604 71.432C88.0052 71.5805 87.9697 71.7356 87.955 71.8934C87.3105 71.6815 86.672 71.409 86.002 71.4623C85.6592 71.4877 85.3151 71.5979 84.9771 71.5361C84.4016 71.432 83.6516 70.6459 83.3318 71.1352C83.0798 71.518 82.9683 72.0085 82.5297 72.1587C82.3131 72.2306 82.0808 72.241 81.8585 72.1888C81.6363 72.1367 81.4329 72.0239 81.2709 71.8632C81.1086 71.6948 80.9826 71.4695 80.7621 71.392C80.5828 71.3302 80.3865 71.3835 80.1975 71.392C79.7686 71.415 78.9 71.2152 79.1071 70.8361C79.3955 70.2935 79.9467 69.8938 79.5421 69.4323C79.1374 68.9709 78.4347 68.9188 77.8277 69.0157C77.253 69.1082 76.6993 69.3017 76.1922 69.5874C75.7245 69.8502 75.2799 70.1929 74.7492 70.2717C74.1192 70.3613 73.4553 70.05 72.8531 70.2596C71.7094 70.652 71.8306 72.3779 70.9825 73.2269C70.682 73.5273 70.2762 73.6957 69.9345 73.9536C69.5929 74.2116 69.2997 74.6125 69.3893 75.0279C69.439 75.2593 69.6001 75.4506 69.6704 75.6771C69.8461 76.2391 69.4366 76.795 69.2306 77.3473C68.9374 78.1322 69.061 79.0248 69.3869 79.7963C69.7128 80.5678 70.2277 81.2497 70.7366 81.911C70.9365 82.1739 71.2442 82.467 71.5459 82.3349C71.6852 82.2744 71.7724 82.1363 71.8851 82.0346C72.5139 81.4653 73.5013 82.1726 74.3421 82.0673C74.8267 82.0079 75.2205 81.6821 75.6421 81.4459C76.0637 81.2098 76.621 81.0644 77.0099 81.3527C77.3201 81.5828 77.4679 82.0527 77.8495 82.1193C78.1815 82.1775 78.5086 81.8771 78.8345 81.9643C79.2695 82.0854 79.2561 82.714 79.0587 83.1174C78.8612 83.5207 78.574 83.9749 78.7643 84.3794C78.9545 84.7839 79.4912 84.8723 79.6935 85.2551C79.9516 85.7589 79.4512 86.3282 79.4403 86.895C79.4294 87.3795 79.7735 87.8058 79.7856 88.2854C79.8001 88.8995 79.2828 89.3912 79.118 89.9811C78.9242 90.6726 79.2271 91.3909 79.4585 92.0691C79.874 93.2803 80.0642 94.5593 80.2036 95.8347C80.2738 96.4947 79.8062 97.4588 80.3635 97.821C81.6332 98.6482 82.9271 96.2271 84.0345 95.1903C84.4779 94.7749 84.9468 94.3158 85.0534 93.7175C85.1115 93.3929 85.0764 93.0078 85.3236 92.7898C85.4617 92.6687 85.6567 92.636 85.8191 92.5475C86.5799 92.1394 86.2601 90.9573 86.655 90.1906C87.1288 89.2677 88.6056 89.0388 88.7777 88.0105C88.8358 87.6653 88.7159 87.3177 88.6565 86.9713C88.4433 85.5942 89.2999 84.2474 90.3915 83.3826C91.0178 82.886 91.7496 82.4766 92.1639 81.7948C92.359 81.4726 92.4777 81.0995 92.7346 80.8258C93.0556 80.4818 93.5378 80.351 93.9558 80.1318C94.3738 79.9126 95.0086 79.3821 94.6888 79.0418C94.2042 78.5234 93.2253 78.6905 92.6377 79.0817C92.4583 79.2028 92.3093 79.3664 92.1155 79.4584C91.6309 79.6897 91.042 79.3821 90.7125 78.9582C90.383 78.5343 90.2134 78.0074 89.9153 77.5605C89.6173 77.1136 88.9812 77.2105 88.5826 76.8568C87.5589 75.9642 86.9676 74.2322 88.2192 72.998C88.3149 72.9035 88.4312 72.78 88.5608 72.6468C89.1908 73.3275 88.9897 74.5168 89.5034 75.3235C89.9626 76.0441 90.9415 76.3711 91.242 77.1717C91.3171 77.3716 91.3474 77.5968 91.4843 77.7579C91.6757 77.9759 92.0016 78.0002 92.2912 77.9929C93.7586 77.9597 95.1941 77.5573 96.4649 76.8229C96.7557 76.6545 97.0453 76.4595 97.2209 76.1737C97.3966 75.8879 97.4257 75.487 97.2076 75.2314C96.9895 74.9759 96.6127 74.9419 96.2796 74.8935C95.4619 74.7656 94.6887 74.4367 94.0296 73.9363C93.3705 73.4359 92.846 72.7797 92.5032 72.0267C92.4268 71.8547 92.3602 71.6633 92.4196 71.4816C92.4789 71.3 92.783 71.1473 92.8654 71.3157C93.35 72.2653 93.9037 73.2887 94.9602 73.4558C95.566 73.5515 96.2614 73.4401 96.7472 73.8192C96.8798 73.9487 97.0202 74.0701 97.1676 74.1825C97.6522 74.472 98.258 74.1365 98.8165 74.1716C99.2927 74.2007 99.7022 74.4987 100.125 74.7179C100.548 74.9371 101.087 75.0812 101.481 74.8111C101.855 74.5568 101.937 74.042 101.925 73.5903C101.883 72.0315 101.125 70.5805 100.916 69.0375Z" fill="#F2D591"/>
<path d="M92.6691 85.3774C91.8732 85.9394 91.6357 87.6641 90.7476 87.9851C90.4716 88.0906 90.233 88.2754 90.0616 88.5161C89.8902 88.7567 89.7938 89.0427 89.7845 89.338C89.7845 89.6214 89.8584 89.9193 89.7481 90.1858C89.6673 90.3397 89.5617 90.4792 89.4355 90.5988C89.047 91.0338 88.7877 91.5686 88.6868 92.143C88.6753 92.1896 88.6753 92.2382 88.6868 92.2847C88.6988 92.3141 88.7167 92.3406 88.7394 92.3627C88.7621 92.3848 88.7892 92.402 88.8189 92.4131C89.152 92.5645 89.5034 92.2593 89.7433 91.9832L90.4799 91.1353C90.7899 90.8065 91.0577 90.4404 91.2771 90.0453C91.4116 89.7788 91.5036 89.4857 91.689 89.2507C91.9216 88.9589 92.2778 88.7881 92.5177 88.5022C92.8133 88.1498 92.8969 87.6726 92.9708 87.2196C93.0205 86.9144 93.0714 86.614 93.121 86.3028C93.1877 85.9006 93.0823 85.088 92.6691 85.3774Z" fill="#F2D591"/>
<path d="M72.1347 61.0511C71.9578 61.1177 71.7518 61.0002 71.6428 61.1553C71.5483 61.3201 71.506 61.5097 71.5216 61.6991C71.5216 61.9619 71.5362 62.2393 71.684 62.4561C71.8318 62.6729 72.1529 62.7916 72.3649 62.6365C72.4311 62.5772 72.4938 62.5141 72.5527 62.4476C72.7138 62.2974 72.9488 62.2538 73.1197 62.1157C73.4044 61.8856 73.4359 61.4641 73.3947 61.0983C73.3656 60.8367 73.2929 60.5485 73.07 60.4055C72.8834 60.2844 72.5854 60.3765 72.5163 60.563C72.3915 60.7205 72.3358 60.976 72.1347 61.0511Z" fill="#F2D591"/>
<path d="M86.6296 51.3943C86.7096 51.771 86.3134 52.1755 86.5012 52.511C86.6684 52.8053 87.1191 52.7424 87.4038 52.9277C87.5395 53.0353 87.653 53.1681 87.7382 53.3189C87.8238 53.4706 87.9583 53.5889 88.1198 53.6544C88.2858 53.704 88.5027 53.6144 88.522 53.4424C88.5378 53.3116 88.4433 53.2002 88.3694 53.0888C88.0059 52.5534 88.0798 51.8449 88.1368 51.1993C88.1937 50.5538 88.1889 49.8186 87.7248 49.3656C86.5303 48.2029 85.7633 50.0003 86.4091 50.9934C86.5059 51.1129 86.5806 51.2486 86.6296 51.3943Z" fill="#F2D591"/>
<path d="M77.1129 47.1722C77.377 47.4435 77.8265 47.4387 78.047 47.7778C78.1597 47.951 78.1779 48.1714 78.2821 48.3507C78.3863 48.5299 78.6589 48.6462 78.7945 48.49C78.8389 48.4286 78.8664 48.3568 78.8745 48.2816C78.9285 48.1034 78.9251 47.9128 78.8648 47.7366C78.7582 47.5065 78.459 47.3733 78.448 47.1165C78.4371 46.8597 78.6904 46.7277 78.8636 46.563C80.2714 45.2307 77.5818 43.1366 76.26 44.2945C75.458 44.9969 76.2321 45.4112 76.6114 46.0289C76.844 46.414 76.7979 46.8416 77.1129 47.1722Z" fill="#F2D591"/>
</g>
<g style="mix-blend-mode:multiply">
<path d="M81.2649 52.7582C82.1541 52.7582 82.875 52.4832 82.875 52.1441C82.875 51.805 82.1541 51.53 81.2649 51.53C80.3756 51.53 79.6547 51.805 79.6547 52.1441C79.6547 52.4832 80.3756 52.7582 81.2649 52.7582Z" fill="#F1D7B2"/>
</g>
<path d="M81.2649 38.1309C79.8597 38.1309 78.5122 38.6889 77.5186 39.6822C76.525 40.6754 75.9668 42.0226 75.9668 43.4273C75.9668 48.209 81.2649 52.1017 81.2649 52.1017C81.2649 52.1017 86.563 48.209 86.563 43.4273C86.563 42.0226 86.0048 40.6754 85.0112 39.6822C84.0176 38.6889 82.67 38.1309 81.2649 38.1309ZM81.2649 46.3487C80.8812 46.3487 80.5012 46.2731 80.1468 46.1263C79.7923 45.9794 79.4702 45.7642 79.199 45.4929C78.9277 45.2217 78.7126 44.8996 78.5658 44.5452C78.4191 44.1907 78.3437 43.8109 78.3438 43.4273C78.3438 42.6528 78.6516 41.9101 79.1994 41.3625C79.7472 40.8148 80.4902 40.5072 81.2649 40.5072C81.6487 40.5069 82.0288 40.5822 82.3835 40.7288C82.7381 40.8754 83.0604 41.0904 83.3319 41.3616C83.6034 41.6328 83.8188 41.9548 83.9658 42.3093C84.1127 42.6637 84.1883 43.0436 84.1883 43.4273C84.1885 43.8111 84.113 44.1911 83.9661 44.5457C83.8192 44.9003 83.6039 45.2225 83.3324 45.4938C83.0608 45.7651 82.7385 45.9803 82.3837 46.127C82.029 46.2736 81.6488 46.349 81.2649 46.3487Z" fill="#E47384"/>
<path d="M133.293 96.118C124.449 85.5699 108.653 73.4437 80.4556 63.965C54.1081 55.1077 30.4273 50.8662 30.4273 50.8662L33.5664 52.534C33.5664 52.534 56.0018 56.7816 77.3104 65.8084C107.479 78.5875 118.822 96.7696 123.079 109.18C123.368 110.028 124.191 115.556 125.051 121.601C126.388 119.799 127.553 117.876 128.53 115.856C131.526 109.675 132.984 102.956 133.293 96.118Z" fill="white"/>
<path d="M11.9488 48.1567L14.9522 48.2391L16.2171 50.8286L5.38829 51.9307L4.00955 51.2925L11.9488 48.1567Z" fill="#48769E"/>
<path d="M4.00956 51.2925L3.93565 50.8322L11.9488 48.1567L14.9522 48.2391L4.00956 51.2925Z" fill="#CFEAFF"/>
<path d="M7.94706 50.0462C8.05731 49.5242 8.40503 49.1487 8.72609 49.2081L9.37305 49.3292L9.50874 49.3546L9.76438 49.4019L10.0067 49.4455H10.0164C10.1707 49.4746 10.3203 49.5247 10.461 49.5944L10.9287 49.8258L11.1867 49.9469C11.4121 49.9893 11.532 50.3199 11.4545 50.6857C11.4206 50.8881 11.3158 51.0718 11.1589 51.2041C11.1108 51.2423 11.0536 51.2673 10.9929 51.2768C10.9648 51.281 10.9362 51.281 10.9081 51.2768L10.6803 51.2973L10.0903 51.3518C9.93298 51.3663 9.77444 51.3594 9.619 51.3313L9.25553 51.2622L9.09803 51.2344L8.96597 51.2089L8.34203 51.0939C8.00764 51.0394 7.83681 50.5682 7.94706 50.0462Z" fill="#78A8D1"/>
<path d="M8.92843 50.2267C8.8412 50.6421 8.57587 50.9412 8.33598 50.8976C8.0961 50.854 7.97251 50.481 8.05853 50.0668C8.14455 49.6526 8.41109 49.3522 8.65098 49.397C8.89087 49.4418 9.01566 49.8124 8.92843 50.2267Z" fill="#48769E"/>
<path d="M10.2975 48.9793C10.4295 48.3556 10.8463 47.9062 11.2304 47.9765L12.0033 48.1194L12.1669 48.1485L12.4734 48.2054L12.7569 48.2575H12.769C12.9536 48.2916 13.1326 48.3511 13.3009 48.4343L13.8594 48.7117L14.1695 48.8643C14.4385 48.9139 14.5827 49.31 14.4906 49.7484C14.4489 49.9902 14.3238 50.2096 14.1368 50.3685C14.0784 50.4136 14.0097 50.4436 13.9369 50.4557C13.9032 50.4612 13.8689 50.4612 13.8352 50.4557L13.5638 50.4812L12.8562 50.5466C12.6682 50.5637 12.4786 50.5551 12.2929 50.5211L11.8507 50.44L11.6629 50.4049L11.503 50.3758L10.7566 50.2377C10.3702 50.1675 10.163 49.6043 10.2975 48.9793Z" fill="#78A8D1"/>
<path d="M11.4727 49.1961C11.3685 49.6915 11.051 50.0512 10.7627 49.9979C10.4744 49.9446 10.3265 49.5001 10.4307 49.0048C10.5349 48.5094 10.8536 48.1485 11.1407 48.2018C11.4278 48.255 11.5769 48.6995 11.4727 49.1961Z" fill="#48769E"/>
<path d="M30.2237 50.1189L34.5708 46.7021L36.1894 47.2629L34.5829 51.8666L30.2237 50.1189Z" fill="#CFEAFF"/>
<path d="M31.2245 50.532L34.9633 46.8064L36.1894 47.263L34.5829 51.8667L31.2245 50.532Z" fill="#48769E"/>
<path d="M30.0057 50.4859L29.561 49.3413L30.2007 49.2529L32.8964 50.9231L30.0057 50.4859Z" fill="#94C3EB"/>
<path d="M31.2741 50.0185C29.4968 49.2918 24.2472 47.3866 22.6068 46.8186C20.9663 46.2505 9.21799 41.9472 7.48912 41.9024C7.34425 41.9013 7.19967 41.9155 7.0578 41.9448L8.46198 42.399C8.49745 42.4107 8.52999 42.4299 8.55735 42.4553C8.58472 42.4807 8.60628 42.5117 8.62055 42.5462C8.63481 42.5807 8.64145 42.6179 8.64001 42.6552C8.63857 42.6925 8.62909 42.729 8.61221 42.7623L8.32145 43.3292C8.29337 43.3842 8.24668 43.4276 8.18969 43.4515C8.1327 43.4755 8.06907 43.4784 8.01007 43.46C7.57271 43.3219 6.58409 43.0094 6.4072 42.9646C6.05343 42.8726 5.5676 42.7902 5.31681 42.749L5.18597 42.8241C4.27004 43.3304 3.3008 43.8112 3.02335 44.2775C2.84213 44.5654 2.76528 44.9068 2.80564 45.2445C2.846 45.5823 3.00112 45.8959 3.24508 46.133C3.71152 46.6175 5.06239 47.8723 7.55938 48.5166C9.28826 48.9623 18.3421 51.4404 24.2157 52.8623C26.8338 53.497 30.7374 53.589 31.7043 53.3468C33.1387 52.9834 34.6374 52.5268 35.0372 52.1998C35.6987 51.662 33.0515 50.7452 31.2741 50.0185Z" fill="#94C3EB"/>
<path d="M35.0299 52.2069C34.6325 52.5351 33.1339 52.9978 31.6958 53.3539C30.7265 53.5961 26.829 53.5016 24.2096 52.8694C18.3361 51.4451 9.28097 48.9706 7.5521 48.5225C5.05026 47.8794 3.70666 46.6173 3.24022 46.1377C2.99687 45.9008 2.84194 45.5878 2.80117 45.2507C2.76039 44.9136 2.83623 44.5727 3.01609 44.2846C3.07207 44.195 3.14016 44.1134 3.21842 44.0424C3.62792 43.65 4.42147 43.2491 5.17869 42.8312L5.31196 42.7549C5.57001 42.7985 6.05463 42.876 6.40235 42.9693C6.57802 43.0189 7.56785 43.3326 8.00643 43.4671C8.06538 43.4856 8.12903 43.4825 8.1859 43.4583C8.24277 43.4341 8.28912 43.3904 8.31659 43.3351L8.60858 42.7682C8.62546 42.7349 8.63493 42.6984 8.63637 42.6611C8.6378 42.6238 8.63117 42.5866 8.6169 42.5521C8.60264 42.5176 8.58109 42.4866 8.55372 42.4611C8.52636 42.4357 8.49382 42.4165 8.45835 42.4049C8.08519 42.2838 7.44185 42.0766 7.05294 41.9495C7.19499 41.9216 7.33951 41.9082 7.48426 41.9095C9.21192 41.9507 20.9651 46.2552 22.6019 46.8232C24.2387 47.3913 29.4932 49.2977 31.2693 50.0231L31.3626 50.0619C33.1436 50.7777 35.6902 51.6703 35.0299 52.2069Z" fill="#94C3EB"/>
<path d="M31.365 50.062C29.9233 50.3781 28.4573 50.5779 27.0858 50.5549C21.9973 50.475 11.5538 46.9517 3.21841 44.0497C3.62792 43.6573 4.42147 43.2564 5.17868 42.8385L5.31195 42.7622C5.57001 42.8058 6.05463 42.8833 6.40234 42.9766C6.57801 43.0263 7.56785 43.34 8.00642 43.4744C8.06538 43.493 8.12902 43.4899 8.18589 43.4657C8.24276 43.4415 8.28912 43.3977 8.31659 43.3424L8.60857 42.7756C8.62545 42.7422 8.63492 42.7057 8.63636 42.6684C8.6378 42.6311 8.63117 42.5939 8.6169 42.5594C8.60263 42.5249 8.58109 42.4939 8.55372 42.4685C8.52635 42.4431 8.49382 42.4239 8.45834 42.4122C8.08519 42.2911 7.44185 42.084 7.05294 41.9568C7.19499 41.9289 7.3395 41.9155 7.48426 41.9168C9.21192 41.958 20.9651 46.2625 22.6019 46.8306C24.2387 47.3986 29.4932 49.305 31.2693 50.0305L31.365 50.062Z" fill="#CFEAFF"/>
<path d="M8.01007 43.4649C8.06906 43.4834 8.13269 43.4804 8.18969 43.4564C8.24668 43.4325 8.29336 43.3891 8.32144 43.3341L8.6122 42.7672C8.62908 42.7339 8.63857 42.6974 8.64001 42.6601C8.64145 42.6228 8.63481 42.5856 8.62054 42.5511C8.60628 42.5166 8.58472 42.4856 8.55735 42.4602C8.52998 42.4348 8.49745 42.4156 8.46197 42.4039L7.0578 41.9497C6.46656 42.0708 5.91046 42.4196 5.31075 42.7588C5.56759 42.8 6.05342 42.8799 6.40114 42.9744C6.58408 43.0143 7.5727 43.3268 8.01007 43.4649Z" fill="#48769E"/>
<path d="M10.4538 43.0505L9.45544 42.709C9.41292 42.6945 9.36659 42.6958 9.32497 42.7127C9.28335 42.7296 9.24923 42.761 9.22888 42.801L8.86542 43.5108C8.85333 43.535 8.84667 43.5616 8.84591 43.5887C8.84516 43.6158 8.85032 43.6428 8.86104 43.6677C8.87177 43.6926 8.8878 43.7149 8.90801 43.7329C8.92823 43.751 8.95214 43.7645 8.97809 43.7724L9.88553 44.0425C9.93517 44.0574 9.98811 44.0573 10.0377 44.0422C10.0873 44.0271 10.1313 43.9977 10.1642 43.9577L10.5664 43.4647C10.5935 43.4324 10.6123 43.394 10.6213 43.3528C10.6304 43.3116 10.6293 43.2689 10.6182 43.2282C10.6072 43.1875 10.5864 43.1501 10.5578 43.1192C10.5292 43.0883 10.4935 43.0647 10.4538 43.0505Z" fill="#48769E"/>
<path d="M33.3859 52.8489L36.3384 52.8356L37.4094 52.4068L31.7733 51.1472L33.3859 52.8489Z" fill="#48769E"/>
<path d="M13.1434 44.2483C13.2005 44.2733 13.2469 44.3176 13.2746 44.3734C13.3023 44.4292 13.3094 44.493 13.2948 44.5536L13.2561 44.7425C13.2531 44.771 13.244 44.7986 13.2292 44.8232C13.2144 44.8477 13.1944 44.8688 13.1706 44.8847C13.1467 44.9007 13.1197 44.9112 13.0913 44.9155C13.0629 44.9198 13.034 44.9178 13.0065 44.9096C12.9491 44.8846 12.9025 44.8401 12.8748 44.7841C12.8471 44.728 12.8401 44.6639 12.855 44.6032L12.8938 44.4143C12.8969 44.3858 12.9062 44.3584 12.921 44.334C12.9359 44.3096 12.9559 44.2887 12.9797 44.2729C13.0035 44.257 13.0305 44.2466 13.0588 44.2424C13.0871 44.2382 13.116 44.2402 13.1434 44.2483Z" fill="#48769E"/>
<path d="M13.8667 44.4966C13.9235 44.5222 13.9697 44.5667 13.9974 44.6226C14.025 44.6785 14.0323 44.7423 14.0181 44.803L13.9781 44.9919C13.9751 45.0204 13.9658 45.0478 13.9509 45.0722C13.9361 45.0966 13.916 45.1175 13.8922 45.1334C13.8684 45.1492 13.8414 45.1596 13.8131 45.1638C13.7848 45.1681 13.756 45.166 13.7286 45.1579C13.6718 45.1325 13.6256 45.0882 13.598 45.0325C13.5704 44.9768 13.563 44.9132 13.5771 44.8527L13.6159 44.6637C13.619 44.6351 13.6283 44.6076 13.6432 44.583C13.6581 44.5584 13.6782 44.5374 13.7022 44.5215C13.7261 44.5055 13.7532 44.495 13.7817 44.4907C13.8101 44.4864 13.8391 44.4884 13.8667 44.4966Z" fill="#48769E"/>
<path d="M14.5888 44.7475C14.6461 44.7725 14.6927 44.817 14.7204 44.873C14.7481 44.9291 14.7551 44.9932 14.7402 45.0539L14.7014 45.2428C14.6984 45.2712 14.6891 45.2986 14.6742 45.3231C14.6594 45.3475 14.6393 45.3684 14.6155 45.3842C14.5917 45.4001 14.5647 45.4105 14.5364 45.4147C14.5081 45.4189 14.4793 45.4169 14.4519 45.4088C14.3946 45.384 14.3478 45.3398 14.3199 45.2839C14.292 45.2281 14.2847 45.1642 14.2992 45.1035L14.3392 44.9146C14.3423 44.8862 14.3516 44.8587 14.3664 44.8343C14.3813 44.8098 14.4013 44.7889 14.425 44.7729C14.4488 44.757 14.4758 44.7465 14.5041 44.7421C14.5324 44.7377 14.5613 44.7395 14.5888 44.7475Z" fill="#48769E"/>
<path d="M15.3108 44.9993C15.3681 45.0241 15.4149 45.0683 15.4428 45.1241C15.4707 45.1799 15.478 45.2438 15.4635 45.3045L15.4235 45.4935C15.4204 45.5219 15.4111 45.5493 15.3963 45.5738C15.3814 45.5983 15.3614 45.6192 15.3377 45.6351C15.3139 45.651 15.2869 45.6616 15.2586 45.666C15.2303 45.6704 15.2014 45.6686 15.1739 45.6606C15.1166 45.6356 15.07 45.5911 15.0423 45.535C15.0146 45.479 15.0076 45.4149 15.0225 45.3542L15.0613 45.1652C15.0643 45.1368 15.0736 45.1094 15.0885 45.085C15.1033 45.0605 15.1234 45.0397 15.1472 45.0238C15.171 45.008 15.198 44.9976 15.2263 44.9934C15.2546 44.9891 15.2834 44.9912 15.3108 44.9993Z" fill="#48769E"/>
<path d="M16.0341 45.25C16.0909 45.2754 16.1371 45.3198 16.1647 45.3755C16.1923 45.4312 16.1997 45.4947 16.1856 45.5553L16.1468 45.7442C16.1437 45.7728 16.1344 45.8003 16.1195 45.8249C16.1046 45.8495 16.0845 45.8705 16.0605 45.8864C16.0366 45.9024 16.0095 45.9129 15.981 45.9172C15.9526 45.9215 15.9236 45.9195 15.896 45.9113C15.8391 45.8857 15.7929 45.8412 15.7653 45.7853C15.7377 45.7294 15.7303 45.6656 15.7446 45.6049L15.7845 45.416C15.7876 45.3876 15.7969 45.3602 15.8118 45.3357C15.8266 45.3113 15.8466 45.2904 15.8705 45.2746C15.8943 45.2587 15.9213 45.2483 15.9496 45.2441C15.9778 45.2399 16.0067 45.2419 16.0341 45.25Z" fill="#48769E"/>
<path d="M16.7562 45.5008C16.8135 45.5258 16.8602 45.5703 16.8879 45.6264C16.9156 45.6824 16.9226 45.7465 16.9076 45.8072L16.8689 45.9961C16.8658 46.0246 16.8565 46.052 16.8417 46.0764C16.8268 46.1008 16.8068 46.1217 16.783 46.1376C16.7591 46.1534 16.7322 46.1638 16.7039 46.168C16.6756 46.1723 16.6467 46.1702 16.6193 46.1621C16.562 46.137 16.5153 46.0926 16.4876 46.0365C16.4599 45.9804 16.4529 45.9164 16.4679 45.8557L16.5066 45.6667C16.5097 45.6383 16.519 45.6109 16.5338 45.5864C16.5487 45.562 16.5687 45.5411 16.5925 45.5253C16.6163 45.5095 16.6434 45.4991 16.6716 45.4948C16.6999 45.4906 16.7288 45.4926 16.7562 45.5008Z" fill="#48769E"/>
<path d="M18.5227 46.1148C18.5799 46.1396 18.6265 46.1839 18.6542 46.2397C18.6819 46.2956 18.689 46.3594 18.6741 46.42L18.6353 46.609C18.6322 46.6374 18.6229 46.6648 18.6081 46.6893C18.5932 46.7138 18.5732 46.7347 18.5495 46.7506C18.5257 46.7665 18.4987 46.7771 18.4704 46.7815C18.4421 46.7859 18.4132 46.784 18.3857 46.7761C18.3284 46.7511 18.2818 46.7066 18.2541 46.6505C18.2264 46.5944 18.2194 46.5304 18.2343 46.4697L18.2731 46.2807C18.2761 46.2523 18.2854 46.2249 18.3003 46.2005C18.3151 46.176 18.3352 46.1552 18.359 46.1393C18.3828 46.1235 18.4098 46.1131 18.4381 46.1088C18.4664 46.1046 18.4952 46.1066 18.5227 46.1148Z" fill="#48769E"/>
<path d="M19.2496 46.3655C19.3063 46.3909 19.3525 46.4352 19.3802 46.4909C19.4078 46.5466 19.4152 46.6102 19.401 46.6707L19.361 46.8597C19.3581 46.8882 19.349 46.9157 19.3342 46.9403C19.3194 46.9649 19.2994 46.9859 19.2755 47.0019C19.2517 47.0179 19.2247 47.0284 19.1963 47.0327C19.1679 47.037 19.139 47.035 19.1115 47.0268C19.0546 47.0012 19.0084 46.9566 18.9808 46.9007C18.9531 46.8449 18.9458 46.7811 18.96 46.7204L18.9988 46.5314C19.002 46.503 19.0115 46.4756 19.0265 46.4511C19.0414 46.4267 19.0616 46.4058 19.0855 46.39C19.1094 46.3742 19.1365 46.3638 19.1648 46.3596C19.1932 46.3553 19.2221 46.3574 19.2496 46.3655Z" fill="#48769E"/>
<path d="M19.968 46.6163C20.0249 46.6419 20.0711 46.6864 20.0987 46.7423C20.1263 46.7982 20.1337 46.862 20.1195 46.9227L20.0807 47.1116C20.0774 47.1401 20.068 47.1675 20.053 47.192C20.0381 47.2164 20.0179 47.2372 19.994 47.2531C19.9701 47.2689 19.943 47.2793 19.9147 47.2835C19.8863 47.2877 19.8574 47.2857 19.8299 47.2776C19.773 47.252 19.7268 47.2074 19.6992 47.1515C19.6716 47.0956 19.6643 47.0318 19.6785 46.9711L19.7184 46.7822C19.7215 46.7538 19.7308 46.7264 19.7456 46.7019C19.7605 46.6775 19.7805 46.6566 19.8043 46.6408C19.8282 46.6249 19.8552 46.6145 19.8835 46.6103C19.9117 46.6061 19.9406 46.6081 19.968 46.6163Z" fill="#48769E"/>
<path d="M20.6901 46.867C20.7474 46.892 20.7941 46.9365 20.8218 46.9925C20.8495 47.0486 20.8565 47.1127 20.8415 47.1734L20.8028 47.3623C20.7997 47.3907 20.7904 47.4181 20.7756 47.4426C20.7607 47.467 20.7407 47.4879 20.7169 47.5037C20.693 47.5196 20.666 47.53 20.6378 47.5342C20.6095 47.5384 20.5806 47.5364 20.5532 47.5283C20.496 47.5034 20.4494 47.4592 20.4216 47.4033C20.3939 47.3475 20.3869 47.2836 20.4018 47.223L20.4405 47.0341C20.4434 47.0056 20.4526 46.978 20.4674 46.9534C20.4822 46.9289 20.5022 46.9078 20.526 46.8919C20.5498 46.8759 20.5769 46.8654 20.6053 46.8611C20.6336 46.8568 20.6626 46.8588 20.6901 46.867Z" fill="#48769E"/>
<path d="M21.4134 47.1177C21.4703 47.1433 21.5165 47.1879 21.5441 47.2437C21.5717 47.2996 21.579 47.3634 21.5648 47.4241L21.5249 47.6131C21.522 47.6416 21.5128 47.6691 21.498 47.6937C21.4832 47.7183 21.4632 47.7393 21.4394 47.7553C21.4155 47.7712 21.3885 47.7817 21.3601 47.7861C21.3317 47.7904 21.3028 47.7884 21.2753 47.7802C21.2184 47.7546 21.1722 47.71 21.1446 47.6541C21.117 47.5982 21.1096 47.5345 21.1238 47.4738L21.1638 47.2848C21.1667 47.2563 21.1759 47.2288 21.1907 47.2042C21.2055 47.1796 21.2255 47.1586 21.2493 47.1426C21.2731 47.1266 21.3002 47.1161 21.3286 47.1118C21.3569 47.1075 21.3859 47.1095 21.4134 47.1177Z" fill="#48769E"/>
<path d="M22.1355 47.3697C22.1925 47.3947 22.239 47.439 22.2667 47.4948C22.2944 47.5506 22.3015 47.6143 22.2869 47.6749L22.2481 47.8638C22.2452 47.8924 22.2361 47.9199 22.2213 47.9445C22.2065 47.9691 22.1865 47.9901 22.1627 48.006C22.1388 48.022 22.1117 48.0325 22.0834 48.0368C22.055 48.0411 22.0261 48.0391 21.9986 48.031C21.9412 48.0059 21.8946 47.9615 21.8669 47.9054C21.8392 47.8493 21.8322 47.7853 21.8471 47.7246L21.8859 47.5356C21.889 47.5072 21.8983 47.4798 21.9131 47.4553C21.9279 47.4309 21.948 47.41 21.9718 47.3942C21.9956 47.3784 22.0226 47.368 22.0509 47.3637C22.0792 47.3595 22.108 47.3615 22.1355 47.3697Z" fill="#48769E"/>
<path d="M23.9019 47.9823C23.9592 48.0074 24.0059 48.0518 24.0336 48.1079C24.0613 48.164 24.0683 48.228 24.0533 48.2888L24.0146 48.4777C24.0115 48.5061 24.0022 48.5335 23.9874 48.558C23.9725 48.5824 23.9525 48.6033 23.9287 48.6191C23.9048 48.6349 23.8778 48.6453 23.8496 48.6496C23.8213 48.6538 23.7924 48.6518 23.765 48.6436C23.7081 48.6184 23.6618 48.5741 23.6341 48.5184C23.6064 48.4626 23.5992 48.399 23.6136 48.3384L23.6535 48.1495C23.6565 48.1211 23.6656 48.0937 23.6803 48.0692C23.695 48.0447 23.7149 48.0238 23.7386 48.0078C23.7623 47.9919 23.7892 47.9814 23.8174 47.9769C23.8456 47.9725 23.8745 47.9744 23.9019 47.9823Z" fill="#48769E"/>
<path d="M24.624 48.233C24.6812 48.2583 24.7278 48.3027 24.7557 48.3587C24.7836 48.4147 24.791 48.4786 24.7766 48.5395L24.7366 48.7284C24.7335 48.7569 24.7242 48.7843 24.7094 48.8087C24.6946 48.8332 24.6746 48.8541 24.6508 48.8701C24.627 48.886 24.6 48.8965 24.5717 48.9009C24.5435 48.9053 24.5146 48.9035 24.4871 48.8956C24.4297 48.8705 24.3831 48.8261 24.3554 48.77C24.3277 48.7139 24.3207 48.6499 24.3356 48.5891L24.3744 48.4002C24.3775 48.3718 24.3868 48.3443 24.4016 48.3199C24.4165 48.2954 24.4365 48.2745 24.4603 48.2585C24.484 48.2426 24.511 48.2321 24.5393 48.2277C24.5676 48.2233 24.5965 48.2251 24.624 48.233Z" fill="#48769E"/>
<path d="M25.3473 48.4875C25.404 48.5129 25.4502 48.5572 25.4778 48.6129C25.5055 48.6686 25.5128 48.7322 25.4987 48.7927L25.4599 48.9816C25.4569 49.0102 25.4475 49.0378 25.4326 49.0624C25.4177 49.0869 25.3976 49.1079 25.3737 49.1239C25.3498 49.1398 25.3226 49.1503 25.2942 49.1546C25.2658 49.1589 25.2367 49.1569 25.2091 49.1488C25.1523 49.1232 25.1061 49.0786 25.0785 49.0227C25.0508 48.9668 25.0435 48.9031 25.0577 48.8424L25.0977 48.6534C25.1006 48.6249 25.1097 48.5974 25.1245 48.5728C25.1393 48.5483 25.1593 48.5273 25.1832 48.5114C25.2071 48.4956 25.2342 48.4852 25.2625 48.481C25.2909 48.4769 25.3198 48.4791 25.3473 48.4875Z" fill="#48769E"/>
<path d="M26.0693 48.7359C26.1267 48.7609 26.1733 48.8054 26.201 48.8615C26.2287 48.9175 26.2357 48.9816 26.2208 49.0423L26.182 49.2313C26.1789 49.2597 26.1696 49.2871 26.1548 49.3115C26.14 49.336 26.1199 49.3568 26.0961 49.3727C26.0723 49.3885 26.0453 49.3989 26.017 49.4031C25.9887 49.4074 25.9599 49.4053 25.9324 49.3972C25.8751 49.3722 25.8285 49.3277 25.8008 49.2716C25.773 49.2155 25.7661 49.1515 25.781 49.0908L25.8198 48.9018C25.8228 48.8734 25.8321 48.846 25.847 48.8216C25.8618 48.7971 25.8819 48.7762 25.9057 48.7604C25.9295 48.7446 25.9565 48.7342 25.9848 48.7299C26.0131 48.7257 26.0419 48.7277 26.0693 48.7359Z" fill="#48769E"/>
<path d="M26.7927 48.9866C26.8495 49.0122 26.8957 49.0567 26.9233 49.1126C26.951 49.1685 26.9583 49.2323 26.9441 49.293L26.9041 49.4819C26.901 49.5104 26.8918 49.5378 26.8769 49.5622C26.8621 49.5866 26.842 49.6075 26.8182 49.6233C26.7944 49.6392 26.7674 49.6496 26.7391 49.6538C26.7108 49.6581 26.6819 49.656 26.6545 49.6479C26.5978 49.6225 26.5516 49.5782 26.524 49.5225C26.4963 49.4668 26.489 49.4032 26.5031 49.3427L26.5419 49.1537C26.5449 49.1251 26.5543 49.0976 26.5692 49.073C26.5841 49.0484 26.6042 49.0274 26.6281 49.0115C26.6521 48.9955 26.6792 48.985 26.7076 48.9807C26.7361 48.9764 26.7651 48.9784 26.7927 48.9866Z" fill="#48769E"/>
<path d="M27.5147 49.2372C27.572 49.2622 27.6187 49.3067 27.6464 49.3628C27.6741 49.4188 27.6811 49.4829 27.6662 49.5436L27.6274 49.7326C27.6243 49.761 27.615 49.7884 27.6002 49.8128C27.5853 49.8373 27.5653 49.8581 27.5415 49.874C27.5177 49.8898 27.4907 49.9002 27.4624 49.9044C27.4341 49.9087 27.4052 49.9067 27.3778 49.8985C27.3205 49.8737 27.2738 49.8295 27.2459 49.7737C27.218 49.7179 27.2106 49.654 27.2252 49.5933L27.2652 49.4043C27.2683 49.3759 27.2776 49.3485 27.2924 49.324C27.3072 49.2995 27.3272 49.2786 27.351 49.2627C27.3748 49.2468 27.4018 49.2362 27.4301 49.2318C27.4583 49.2274 27.4872 49.2293 27.5147 49.2372Z" fill="#48769E"/>
<path d="M15.5168 46.15L15.7543 47.1989L23.3712 48.5675L37.0084 43.4733L34.8991 42.2271L15.5168 46.15Z" fill="#48769E"/>
<path d="M35.5158 42.5916L34.8991 42.2271L15.5168 46.15L15.7543 47.1989L35.5158 42.5916Z" fill="#CFEAFF"/>
<path d="M17.6746 47.0631C17.8066 46.4381 18.2234 45.9887 18.6074 46.0602L19.3816 46.2019L19.544 46.2322L19.8505 46.2879L20.1352 46.3412H20.1461C20.3309 46.3752 20.51 46.4351 20.678 46.5192L21.2377 46.7954L21.5466 46.9492C21.8168 46.9989 21.9598 47.3949 21.8677 47.8334C21.8257 48.0746 21.7005 48.2936 21.5139 48.4523C21.4559 48.4982 21.3871 48.5286 21.314 48.5407C21.2803 48.5455 21.246 48.5455 21.2123 48.5407L20.9409 48.5661L20.2333 48.6303C20.0453 48.6484 19.8557 48.6402 19.67 48.6061L19.2265 48.5237L19.0388 48.4898L18.88 48.4607L18.1325 48.3227C17.7436 48.2512 17.5389 47.688 17.6746 47.0631Z" fill="#78A8D1"/>
<path d="M18.8449 47.2762C18.7407 47.7728 18.4233 48.1313 18.135 48.0793C17.8466 48.0272 17.6988 47.5815 17.8042 47.0849C17.9096 46.5883 18.2258 46.2298 18.513 46.2831C18.8001 46.3364 18.9491 46.7833 18.8449 47.2762Z" fill="#48769E"/>
<path d="M20.8512 46.0045C20.9833 45.3795 21.4001 44.9314 21.7841 45.0016L22.5583 45.1433L22.7206 45.1736L23.0272 45.2305L23.3119 45.2826H23.3228C23.507 45.3169 23.6855 45.3764 23.8534 45.4595L24.4132 45.7356L24.7221 45.8894C24.9923 45.9391 25.1352 46.3351 25.0432 46.7736C25.0015 47.015 24.8763 47.2341 24.6894 47.3925C24.6313 47.4384 24.5625 47.4688 24.4895 47.4809C24.4558 47.4864 24.4214 47.4864 24.3877 47.4809L24.1163 47.5063L23.4088 47.5705C23.2208 47.5886 23.0312 47.5805 22.8454 47.5463L22.4032 47.4639L22.2154 47.43L22.0567 47.401L21.3092 47.2629C20.9239 47.1926 20.7204 46.6294 20.8512 46.0045Z" fill="#78A8D1"/>
<path d="M22.0264 46.2213C21.9222 46.7167 21.6048 47.0764 21.3165 47.0231C21.0281 46.9698 20.8803 46.5253 20.9845 46.0287C21.0887 45.5321 21.4073 45.1736 21.6945 45.2269C21.9816 45.2802 22.1306 45.7247 22.0264 46.2213Z" fill="#48769E"/>
<path d="M37.4094 52.4068L37.4118 52.1258L31.7224 50.7681L31.7733 51.1472L37.4094 52.4068Z" fill="#94C3EB"/>
<path d="M23.1374 72.5256H27.9388C28.5898 72.5256 29.2141 72.7842 29.6744 73.2443C30.1348 73.7045 30.3934 74.3287 30.3934 74.9795V90.6387H20.6828V74.9795C20.6828 74.3287 20.9414 73.7045 21.4018 73.2443C21.8621 72.7842 22.4864 72.5256 23.1374 72.5256Z" stroke="#272C34" stroke-width="7.46" stroke-miterlimit="10"/>
<path d="M23.5578 72.5256H28.3592C29.0102 72.5256 29.6345 72.7842 30.0948 73.2443C30.5551 73.7045 30.8138 74.3287 30.8138 74.9795V90.6387H21.1057V74.9795C21.1057 74.3291 21.3639 73.7053 21.8237 73.2452C22.2835 72.7851 22.9072 72.5263 23.5578 72.5256Z" stroke="#636A75" stroke-width="7.46" stroke-miterlimit="10"/>
<path d="M15.2818 123.109L16.3564 123.123L16.2595 125.759L15.1848 125.744C14.6675 125.733 14.2701 125.139 14.2968 124.412C14.3234 123.685 14.7668 123.096 15.2818 123.109Z" fill="#555E6E"/>
<path d="M15.2818 123.109L16.3564 123.123L16.2595 125.759L15.1848 125.744C14.6675 125.733 14.2701 125.139 14.2968 124.412C14.3234 123.685 14.7668 123.096 15.2818 123.109Z" fill="#2C3856"/>
<path d="M15.3726 124.428C15.346 125.155 15.7433 125.76 16.2607 125.76C16.778 125.76 17.219 125.191 17.2457 124.463C17.2723 123.735 16.8749 123.131 16.3576 123.131C15.8403 123.131 15.3981 123.694 15.3726 124.428Z" fill="#555E6E"/>
<path d="M15.7131 124.428C15.6961 124.891 15.9481 125.276 16.2764 125.276C16.6048 125.276 16.8822 124.913 16.9028 124.452C16.9234 123.992 16.6605 123.604 16.3382 123.604C16.0159 123.604 15.7361 123.968 15.7131 124.428Z" fill="#555E6E"/>
<path d="M18.8255 123.109L19.9002 123.123L19.8032 125.759L18.7286 125.744C18.2113 125.733 17.8139 125.139 17.8405 124.412C17.8672 123.685 18.3082 123.096 18.8255 123.109Z" fill="#555E6E"/>
<path d="M18.8255 123.109L19.9002 123.123L19.8032 125.759L18.7286 125.744C18.2113 125.733 17.8139 125.139 17.8405 124.412C17.8672 123.685 18.3082 123.096 18.8255 123.109Z" fill="#2C3856"/>
<path d="M18.9152 124.428C18.8885 125.155 19.2859 125.76 19.8032 125.76C20.3206 125.76 20.7616 125.191 20.7882 124.463C20.8149 123.735 20.4175 123.131 19.9002 123.131C19.3828 123.131 18.9418 123.694 18.9152 124.428Z" fill="#555E6E"/>
<path d="M19.2568 124.428C19.2399 124.891 19.4919 125.276 19.8214 125.276C20.1509 125.276 20.4272 124.913 20.4466 124.452C20.466 123.992 20.2115 123.604 19.8832 123.604C19.5549 123.604 19.2738 123.968 19.2568 124.428Z" fill="#555E6E"/>
<path d="M29.7088 123.109L30.7835 123.123L30.6853 125.759L29.6107 125.744C29.0934 125.733 28.696 125.139 28.7238 124.412C28.7517 123.685 29.1915 123.096 29.7088 123.109Z" fill="#555E6E"/>
<path d="M29.7088 123.109L30.7835 123.123L30.6853 125.759L29.6107 125.744C29.0934 125.733 28.696 125.139 28.7238 124.412C28.7517 123.685 29.1915 123.096 29.7088 123.109Z" fill="#2C3856"/>
<path d="M29.7985 124.428C29.7706 125.155 30.1619 125.76 30.6853 125.76C31.2087 125.76 31.6437 125.191 31.6703 124.463C31.697 123.735 31.3068 123.131 30.7835 123.131C30.2601 123.131 29.8251 123.694 29.7985 124.428Z" fill="#555E6E"/>
<path d="M30.1401 124.428C30.1232 124.891 30.3752 125.276 30.7035 125.276C31.0318 125.276 31.3093 124.913 31.3287 124.452C31.348 123.992 31.0936 123.604 30.7653 123.604C30.437 123.604 30.1535 123.968 30.1401 124.428Z" fill="#555E6E"/>
<path d="M33.2526 123.109L34.3272 123.123L34.2303 125.759L33.1545 125.744C32.6383 125.733 32.2409 125.139 32.2676 124.412C32.2942 123.685 32.7352 123.096 33.2526 123.109Z" fill="#555E6E"/>
<path d="M33.2526 123.109L34.3272 123.123L34.2303 125.759L33.1545 125.744C32.6383 125.733 32.2409 125.139 32.2676 124.412C32.2942 123.685 32.7352 123.096 33.2526 123.109Z" fill="#2C3856"/>
<path d="M33.3422 124.428C33.3156 125.155 33.713 125.76 34.2303 125.76C34.7476 125.76 35.1874 125.191 35.2153 124.463C35.2432 123.735 34.8446 123.131 34.3272 123.131C33.8099 123.131 33.3689 123.694 33.3422 124.428Z" fill="#555E6E"/>
<path d="M33.6839 124.428C33.6669 124.891 33.9189 125.276 34.2473 125.276C34.5756 125.276 34.853 124.913 34.8724 124.452C34.8918 123.992 34.6374 123.604 34.3091 123.604C33.9807 123.604 33.7009 123.968 33.6839 124.428Z" fill="#555E6E"/>
<path d="M13.0077 86.3101H21.6412V123.532H13.0077C12.4123 123.532 11.8413 123.295 11.4202 122.874C10.9992 122.454 10.7627 121.883 10.7627 121.287V88.5544C10.7627 87.9591 10.9992 87.3883 11.4202 86.9674C11.8413 86.5465 12.4123 86.3101 13.0077 86.3101Z" fill="#5D91BE"/>
<path d="M13.9515 113.196H14.785V120.151H13.9515C13.8474 120.151 13.7475 120.11 13.6739 120.036C13.6003 119.963 13.5589 119.863 13.5589 119.759V113.588C13.5589 113.484 13.6003 113.384 13.6739 113.31C13.7475 113.237 13.8474 113.196 13.9515 113.196Z" fill="#91B8D9"/>
<path d="M33.7263 86.5353C34.2618 86.536 34.7751 86.7489 35.1537 87.1274C35.5323 87.5059 35.7453 88.0191 35.746 88.5544V121.287C35.7453 121.823 35.5323 122.336 35.1537 122.714C34.7751 123.093 34.2618 123.306 33.7263 123.307H16.9476C16.4123 123.306 15.8991 123.093 15.5207 122.714C15.1422 122.336 14.9295 121.823 14.9292 121.287V88.5544C14.9295 88.0192 15.1422 87.506 15.5207 87.1275C15.8991 86.7489 16.4123 86.536 16.9476 86.5353H33.7239M33.7239 86.3101H16.9476C16.3522 86.3101 15.7812 86.5465 15.3602 86.9674C14.9392 87.3883 14.7026 87.9591 14.7026 88.5544V121.287C14.7026 121.883 14.9392 122.454 15.3602 122.874C15.7812 123.295 16.3522 123.532 16.9476 123.532H33.7239C34.3193 123.532 34.8903 123.295 35.3113 122.874C35.7323 122.454 35.9689 121.883 35.9689 121.287V88.5544C35.9689 87.9591 35.7323 87.3883 35.3113 86.9674C34.8903 86.5465 34.3193 86.3101 33.7239 86.3101Z" fill="#91B8D9"/>
<path d="M36.2584 86.3101H19.4822C18.2423 86.3101 17.2372 87.3149 17.2372 88.5544V121.289C17.2372 122.528 18.2423 123.533 19.4822 123.533H36.2584C37.4983 123.533 38.5034 122.528 38.5034 121.289V88.5544C38.5034 87.3149 37.4983 86.3101 36.2584 86.3101Z" fill="#91B8D9"/>
<path d="M33.5567 99.7163H33.2768C33.1209 99.7163 32.9945 99.8427 32.9945 99.9985V115.354C32.9945 115.51 33.1209 115.636 33.2768 115.636H33.5567C33.7126 115.636 33.839 115.51 33.839 115.354V99.9985C33.839 99.8427 33.7126 99.7163 33.5567 99.7163Z" fill="#BEDAF4"/>
<path d="M33.8269 99.7163H33.547C33.3911 99.7163 33.2647 99.8427 33.2647 99.9985V115.354C33.2647 115.51 33.3911 115.636 33.547 115.636H33.8269C33.9828 115.636 34.1092 115.51 34.1092 115.354V99.9985C34.1092 99.8427 33.9828 99.7163 33.8269 99.7163Z" fill="#5D91BE"/>
<path d="M28.2792 99.7163H27.9993C27.8434 99.7163 27.7171 99.8427 27.7171 99.9985V115.354C27.7171 115.51 27.8434 115.636 27.9993 115.636H28.2792C28.4351 115.636 28.5615 115.51 28.5615 115.354V99.9985C28.5615 99.8427 28.4351 99.7163 28.2792 99.7163Z" fill="#BEDAF4"/>
<path d="M28.5506 99.7163H28.2707C28.1148 99.7163 27.9884 99.8427 27.9884 99.9985V115.354C27.9884 115.51 28.1148 115.636 28.2707 115.636H28.5506C28.7065 115.636 28.8329 115.51 28.8329 115.354V99.9985C28.8329 99.8427 28.7065 99.7163 28.5506 99.7163Z" fill="#5D91BE"/>
<path d="M25.9603 92.6868H22.717C22.4126 92.6868 22.1658 92.9335 22.1658 93.2378V95.9339C22.1658 96.2383 22.4126 96.485 22.717 96.485H25.9603C26.2648 96.485 26.5116 96.2383 26.5116 95.9339V93.2378C26.5116 92.9335 26.2648 92.6868 25.9603 92.6868Z" fill="#BEDAF4"/>
<path d="M33.8329 92.6868H23.0187C22.7142 92.6868 22.4674 92.9335 22.4674 93.2378V95.9339C22.4674 96.2383 22.7142 96.485 23.0187 96.485H33.8329C34.1374 96.485 34.3842 96.2383 34.3842 95.9339V93.2378C34.3842 92.9335 34.1374 92.6868 33.8329 92.6868Z" fill="#5D91BE"/>
<path d="M23.0029 99.7163H22.7231C22.5672 99.7163 22.4408 99.8427 22.4408 99.9985V115.354C22.4408 115.51 22.5672 115.636 22.7231 115.636H23.0029C23.1588 115.636 23.2852 115.51 23.2852 115.354V99.9985C23.2852 99.8427 23.1588 99.7163 23.0029 99.7163Z" fill="#BEDAF4"/>
<path d="M23.2731 99.7163H22.9932C22.8373 99.7163 22.711 99.8427 22.711 99.9985V115.354C22.711 115.51 22.8373 115.636 22.9932 115.636H23.2731C23.429 115.636 23.5554 115.51 23.5554 115.354V99.9985C23.5554 99.8427 23.429 99.7163 23.2731 99.7163Z" fill="#5D91BE"/>
<path d="M57.6422 47.2436C57.5113 48.7285 56.8377 49.0846 56.0745 49.517C55.9286 49.5982 55.7785 49.6718 55.625 49.7374C54.6242 50.1601 53.8573 50.068 53.8573 50.068C53.8573 50.068 50.9872 50.5053 49.1081 49.9469C48.9578 49.9036 48.8105 49.8506 48.6671 49.7883C47.3429 49.2142 46.473 49.6829 46.4863 46.8451C46.4863 45.7999 46.6256 44.0594 46.754 42.9282C47.0036 40.7287 47.3259 39.3395 48.9566 38.9313C49.3354 38.4662 49.832 38.1111 50.3947 37.903C51.6438 37.4307 53.8997 37.4392 55.2518 38.7291C56.0672 39.5054 56.4634 40.4404 56.948 41.9023C57.6131 43.9117 57.767 45.8229 57.6422 47.2436Z" fill="#34383F"/>
<path d="M42.9595 110.073C43.2975 112.721 43.3145 118.71 43.0055 120.555C42.6966 122.399 41.8194 122.898 40.8914 123.546C39.9076 124.233 39.8325 124.332 39.8325 124.332C40.1414 124.785 42.3222 124.836 43.6888 124.203C45.0555 123.569 46.0029 122.871 46.6317 122.913C47.2605 122.955 46.7989 121.373 46.3179 120.062C45.8369 118.75 46.3179 116.167 46.7831 114.197C47.4567 111.358 47.802 106.907 47.3247 103.902L43.1315 104.273C43.1315 104.273 42.7535 108.49 42.9595 110.073Z" fill="#E7B2A1"/>
<path d="M41.2282 123.313C41.1071 124.073 42.338 124.048 43.0976 123.866C43.8573 123.684 45.1572 123.336 45.8563 122.765C46.0878 122.561 46.2977 122.334 46.4827 122.087C46.6417 121.876 46.7379 121.624 46.7601 121.36C46.7601 121.36 47.4107 122.278 47.0788 123.159C46.7468 124.039 46.6341 125.663 46.6341 125.663H45.9411L45.82 124.638C45.4282 124.748 45.0451 124.887 44.6738 125.053C43.9699 125.387 43.3411 125.696 42.5076 125.741C41.525 125.794 40.9895 125.741 40.2129 125.741C38.5786 125.741 38.4901 125.388 39.5321 124.466C40.0772 123.974 41.2282 123.313 41.2282 123.313Z" fill="#1D2438"/>
<path d="M57.4374 110.073C57.1006 112.721 57.0825 118.71 57.3914 120.555C57.7003 122.399 57.3999 122.109 58.3388 123.557C58.9918 124.565 59.1251 124.675 59.1251 124.675C58.815 125.128 57.9887 125.112 56.6221 124.479C55.2554 123.845 54.1542 123.408 53.7652 122.913C53.2322 122.231 53.5993 121.373 54.079 120.062C54.5588 118.75 54.079 116.167 53.6138 114.197C52.9402 111.358 52.5961 106.907 53.0722 103.902L57.2666 104.273C57.2666 104.273 57.6386 108.49 57.4374 110.073Z" fill="#E7B2A1"/>
<path d="M58.4043 123.557C57.6325 123.974 56.5712 123.871 55.9581 123.689C55.3451 123.508 54.8496 123.336 54.285 122.765C54.0948 122.556 53.9259 122.329 53.781 122.087C53.569 121.753 53.6477 121.518 53.6477 121.518C53.6477 121.518 53.0323 122.273 53.2988 123.154C53.5654 124.034 53.6029 125.659 53.6029 125.659H54.3953L54.5261 124.535C54.7067 124.65 54.8752 124.784 55.0289 124.933C55.4873 125.396 56.0954 125.68 56.7444 125.736C57.5368 125.789 58.214 125.736 58.8404 125.736C60.1574 125.736 60.2301 125.384 59.3892 124.461C59.0845 124.135 58.7552 123.833 58.4043 123.557Z" fill="#1D2438"/>
<path d="M57.1867 67.7271C59.8957 75.0462 59.6655 73.6981 60.3609 77.9348C61.0563 82.1715 59.7939 92.1879 59.5795 98.3515C59.365 104.515 57.5089 118.079 57.5089 118.079C57.5089 118.079 55.6989 118.757 53.4612 117.971C53.4612 117.971 51.7238 88.5059 51.3664 82.536C51.009 76.5662 50.6395 67.7271 50.6395 67.7271H57.1867Z" fill="#323945"/>
<path d="M53.1062 80.9468C53.1062 80.9468 50.5401 88.5772 49.9016 94.5967C49.2632 100.616 46.702 117.167 46.8461 118.215C46.8461 118.215 44.1311 118.86 42.6057 118.311C42.6057 118.311 42.2532 106.985 42.5258 100.157C42.7984 93.3298 42.3307 84.9703 43.5326 78.0545C44.6229 71.7649 46.5881 67.177 46.5881 67.177L50.6358 67.7329L53.1062 80.9468Z" fill="#323945"/>
<path d="M50.9254 77.1426C51.3579 79.2864 51.9637 91.0262 52.1369 94.099" stroke="#272C34" stroke-width="1.84" stroke-miterlimit="10"/>
<path d="M54.68 50.3454C54.2329 49.7907 54.1045 48.5601 54.1154 47.2545C52.7391 47.33 51.3592 47.3122 49.9852 47.2012C50.0034 48.4874 49.8641 49.7531 49.3601 50.5089C49.0487 50.9764 45.2336 52.3571 45.2336 52.3571L45.1039 57.977L46.4366 63.3546L57.0813 62.7042C57.0813 62.7042 57.3429 59.5781 57.9899 57.5518C58.2249 56.8155 58.0493 52.0265 58.0493 52.0265C56.0369 51.0806 54.8799 50.5937 54.68 50.3454Z" fill="#E7B2A1"/>
<path d="M54.1118 47.2545C52.7391 47.3296 51.3629 47.3122 49.9925 47.2024C50.007 48.2052 49.9247 49.196 49.6472 49.9372C50.0859 50.0555 50.5417 50.0964 50.9945 50.0583C52.0652 50.0075 53.1176 49.7612 54.0996 49.3316L54.2559 49.259C54.143 48.5971 54.0947 47.9257 54.1118 47.2545Z" fill="#D38576"/>
<path d="M66.5858 55.855C66.6185 55.7339 66.8839 55.2046 66.9154 54.6983C66.9469 54.1921 67.3624 53.4133 67.5526 53.2546C67.7428 53.096 68.7339 52.4129 68.8938 52.3111C69.1434 52.1512 69.2573 52.2554 69.2573 52.4637C69.2573 52.672 69.1676 52.9276 68.8672 53.1565C68.659 53.3283 68.4801 53.5329 68.3377 53.7621C68.718 53.6456 69.0904 53.5044 69.4523 53.3394C69.7637 53.1686 70.2907 52.6381 70.5173 52.4286C70.7438 52.2191 71.4708 51.3628 71.6464 51.2344C71.8669 51.0733 72.0341 51.0721 72.1202 51.1314C72.2062 51.1908 72.0838 51.4948 71.9675 51.6777C71.787 51.9684 71.3617 52.5364 71.2248 52.7108L71.7203 52.2179C71.8934 52.0317 72.0529 51.8333 72.1977 51.6244C72.293 51.4904 72.4063 51.3702 72.5345 51.2671C72.7514 51.1339 72.898 51.324 72.8774 51.5093C72.8588 51.6108 72.8258 51.7091 72.7792 51.8012C72.7792 51.8012 72.9816 51.817 72.9137 52.1137C72.868 52.2671 72.802 52.4138 72.7174 52.5497C72.7174 52.5497 72.8871 52.7205 72.7429 53.0342C72.6557 53.2195 72.188 53.8554 72.0741 54.077C71.9602 54.2987 71.667 54.7928 71.5822 54.9345C71.4029 55.2397 70.5997 56.0742 69.8461 56.4424C69.4826 56.6205 68.6164 56.8639 68.4467 57.0202C68.2771 57.1764 66.7421 60.9383 66.7421 60.9383L65.1913 58.2907C65.1913 58.2907 66.5519 55.9689 66.5858 55.855Z" fill="#E7B2A1"/>
<path d="M68.4189 57.7395C67.8325 56.9523 66.4538 56.1033 66.4538 56.1033L63.0614 61.0691C63.0614 61.0691 59.9575 54.1436 59.548 53.3321C59.1385 52.5206 57.8167 51.7576 57.8167 51.7576C57.8167 51.7576 57.2024 56.2001 57.3393 57.9031C57.4762 59.606 58.1147 60.9928 58.592 62.3553C59.0694 63.7179 61.3108 67.7632 62.2642 67.7632C63.2177 67.7632 64.1106 67.5331 65.3416 64.7861C65.8286 63.6997 68.4189 57.7395 68.4189 57.7395Z" fill="#E47384"/>
<path d="M62.2037 63.6513C62.2037 63.6513 62.4133 62.0065 64.1009 59.5757" stroke="#D9465D" stroke-width="1.16" stroke-miterlimit="10"/>
<path d="M44.4497 61.0729C44.0996 63.0822 44.8846 62.9732 44.9452 64.7064C44.9985 66.2288 45.4032 67.2765 44.7429 69.4796C44.5188 70.2305 44.2413 71.2831 43.9845 72.2932C46.9939 72.9835 50.0579 73.4644 53.1558 73.2803C55.3802 73.1495 57.5065 72.5148 59.6352 71.8898C59.3797 70.8533 59.1907 69.8015 59.0694 68.7408C58.8477 66.2833 58.9022 65.6099 59.2124 63.6599C59.7648 60.1766 58.7956 58.7341 58.7277 57.2892C58.6066 54.7215 57.7912 51.7275 57.7912 51.7275C57.7912 51.7275 56.8801 51.352 55.9521 50.9765C55.5038 50.7961 55.1113 50.5623 54.3141 49.9507C53.677 50.0997 53.0286 50.1949 52.3756 50.2353C51.4997 50.2838 50.5462 50.3407 49.692 50.0827C48.9978 50.899 48.6017 51.0105 48.1631 51.1497C47.2471 51.4356 44.6496 52.2725 44.4242 52.6807C43.8827 53.6496 43.8669 55.2544 44.1432 57.093C44.4194 58.9315 44.7986 59.0648 44.4497 61.0729Z" fill="#E47384"/>
<path d="M57.7912 56.0198C57.7912 56.0198 59.2111 59.8774 59.2233 61.4131C59.2354 62.9489 59.1809 63.8561 59.0125 64.9098" stroke="#D9465D" stroke-width="1.16" stroke-miterlimit="10"/>
<path d="M54.8375 54.8523H47.1345C46.917 54.8523 46.7407 55.0285 46.7407 55.2459V66.964C46.7407 67.1814 46.917 67.3576 47.1345 67.3576H54.8375C55.0549 67.3576 55.2312 67.1814 55.2312 66.964V55.2459C55.2312 55.0285 55.0549 54.8523 54.8375 54.8523Z" fill="#B3B2AF"/>
<path d="M46.5336 57.8232C46.5336 57.8232 46.0804 57.9891 45.8503 57.8559C45.6201 57.7227 45.7618 57.3859 46.221 57.4489" stroke="white" stroke-width="1.38" stroke-linecap="round" stroke-linejoin="round"/>
<path d="M46.5336 59.3542C46.5336 59.3542 46.0804 59.5213 45.8503 59.3881C45.6201 59.2549 45.7618 58.9182 46.221 58.9812" stroke="white" stroke-width="1.38" stroke-linecap="round" stroke-linejoin="round"/>
<path d="M46.5336 60.8862C46.5336 60.8862 46.0804 61.0534 45.8503 60.9189C45.6201 60.7845 45.7618 60.449 46.221 60.5132" stroke="white" stroke-width="1.38" stroke-linecap="round" stroke-linejoin="round"/>
<path d="M46.5336 62.416C46.5336 62.416 46.0804 62.5819 45.8503 62.4487C45.6201 62.3155 45.7618 61.9788 46.221 62.043" stroke="white" stroke-width="1.38" stroke-linecap="round" stroke-linejoin="round"/>
<path d="M46.5336 63.9494C46.5336 63.9494 46.0804 64.1166 45.8503 63.9833C45.6201 63.8501 45.7618 63.5134 46.221 63.5764" stroke="white" stroke-width="1.38" stroke-linecap="round" stroke-linejoin="round"/>
<path d="M46.5336 65.4815C46.5336 65.4815 46.0804 65.6486 45.8503 65.5142C45.6201 65.3797 45.7618 65.0442 46.221 65.1084" stroke="white" stroke-width="1.38" stroke-linecap="round" stroke-linejoin="round"/>
<path d="M46.5336 67.0185C46.5336 67.0185 46.0804 67.1845 45.8503 67.0512C45.6201 66.918 45.7618 66.5813 46.221 66.6455" stroke="white" stroke-width="0.92" stroke-linecap="round" stroke-linejoin="round"/>
<path d="M55.1294 55.6299H46.6789C46.4467 55.6299 46.2585 55.818 46.2585 56.0502V68.2273C46.2585 68.4594 46.4467 68.6476 46.6789 68.6476H55.1294C55.3616 68.6476 55.5498 68.4594 55.5498 68.2273V56.0502C55.5498 55.818 55.3616 55.6299 55.1294 55.6299Z" fill="#EBEBEB"/>
<path d="M54.8859 55.751H46.4354C46.2032 55.751 46.015 55.9391 46.015 56.1713V68.3484C46.015 68.5805 46.2032 68.7687 46.4354 68.7687H54.8859C55.1181 68.7687 55.3063 68.5805 55.3063 68.3484V56.1713C55.3063 55.9391 55.1181 55.751 54.8859 55.751Z" fill="#4D4D62"/>
<path d="M46.5347 57.9602C46.6137 57.9602 46.6777 57.8962 46.6777 57.8172C46.6777 57.7383 46.6137 57.6743 46.5347 57.6743C46.4558 57.6743 46.3918 57.7383 46.3918 57.8172C46.3918 57.8962 46.4558 57.9602 46.5347 57.9602Z" stroke="white" stroke-width="1.84" stroke-miterlimit="10"/>
<path d="M46.5335 57.8232C46.5335 57.8232 46.0804 57.9892 45.8502 57.8559" stroke="white" stroke-width="1.38" stroke-linecap="round" stroke-linejoin="round"/>
<path d="M46.5347 59.4921C46.6137 59.4921 46.6777 59.4282 46.6777 59.3492C46.6777 59.2703 46.6137 59.2063 46.5347 59.2063C46.4558 59.2063 46.3918 59.2703 46.3918 59.3492C46.3918 59.4282 46.4558 59.4921 46.5347 59.4921Z" stroke="white" stroke-width="1.84" stroke-miterlimit="10"/>
<path d="M46.5335 59.3542C46.5335 59.3542 46.0804 59.5214 45.8502 59.3882" stroke="white" stroke-width="1.38" stroke-linecap="round" stroke-linejoin="round"/>
<path d="M46.5347 61.0244C46.6137 61.0244 46.6777 60.9604 46.6777 60.8814C46.6777 60.8025 46.6137 60.7385 46.5347 60.7385C46.4558 60.7385 46.3918 60.8025 46.3918 60.8814C46.3918 60.9604 46.4558 61.0244 46.5347 61.0244Z" stroke="white" stroke-width="1.84" stroke-miterlimit="10"/>
<path d="M46.5335 60.8862C46.5335 60.8862 46.0804 61.0534 45.8502 60.9189" stroke="white" stroke-width="1.38" stroke-linecap="round" stroke-linejoin="round"/>
<path d="M46.5347 62.5554C46.6137 62.5554 46.6777 62.4914 46.6777 62.4124C46.6777 62.3335 46.6137 62.2695 46.5347 62.2695C46.4558 62.2695 46.3918 62.3335 46.3918 62.4124C46.3918 62.4914 46.4558 62.5554 46.5347 62.5554Z" stroke="white" stroke-width="1.84" stroke-miterlimit="10"/>
<path d="M46.5335 62.416C46.5335 62.416 46.0804 62.5819 45.8502 62.4487" stroke="white" stroke-width="1.38" stroke-linecap="round" stroke-linejoin="round"/>
<path fill-rule="evenodd" clip-rule="evenodd" d="M46.6777 63.9444C46.6777 63.9633 46.674 63.982 46.6667 63.9994C46.6595 64.0168 46.6488 64.0326 46.6354 64.0459C46.622 64.0592 46.6061 64.0697 46.5886 64.0768C46.5712 64.0839 46.5524 64.0875 46.5335 64.0874C46.4956 64.0874 46.4593 64.0723 46.4325 64.0455C46.4057 64.0187 46.3906 63.9823 46.3906 63.9444C46.3906 63.9257 46.3943 63.9071 46.4015 63.8897C46.4087 63.8724 46.4192 63.8566 46.4325 63.8434C46.4457 63.8301 46.4615 63.8196 46.4788 63.8124C46.4962 63.8052 46.5148 63.8015 46.5335 63.8015C46.5524 63.8014 46.5712 63.8049 46.5886 63.812C46.6061 63.8192 46.622 63.8297 46.6354 63.8429C46.6488 63.8562 46.6595 63.872 46.6667 63.8895C46.674 63.9069 46.6777 63.9256 46.6777 63.9444Z" stroke="white" stroke-width="1.84" stroke-miterlimit="10"/>
<path d="M46.5335 63.9492C46.5335 63.9492 46.0804 64.1164 45.8502 63.9831" stroke="white" stroke-width="1.38" stroke-linecap="round" stroke-linejoin="round"/>
<path d="M46.5347 65.6196C46.6137 65.6196 46.6777 65.5556 46.6777 65.4767C46.6777 65.3977 46.6137 65.3337 46.5347 65.3337C46.4558 65.3337 46.3918 65.3977 46.3918 65.4767C46.3918 65.5556 46.4558 65.6196 46.5347 65.6196Z" stroke="white" stroke-width="1.84" stroke-miterlimit="10"/>
<path d="M46.5335 65.4814C46.5335 65.4814 46.0804 65.6486 45.8502 65.5141" stroke="white" stroke-width="1.38" stroke-linecap="round" stroke-linejoin="round"/>
<path fill-rule="evenodd" clip-rule="evenodd" d="M46.6777 67.0074C46.6777 67.0263 46.674 67.045 46.6667 67.0624C46.6595 67.0798 46.6488 67.0956 46.6354 67.1089C46.622 67.1222 46.6061 67.1327 46.5886 67.1398C46.5712 67.1469 46.5524 67.1505 46.5335 67.1503C46.4956 67.1503 46.4593 67.1353 46.4325 67.1085C46.4057 67.0817 46.3906 67.0453 46.3906 67.0074C46.3906 66.9887 46.3943 66.9701 46.4015 66.9527C46.4087 66.9354 46.4192 66.9196 46.4325 66.9064C46.4457 66.8931 46.4615 66.8826 46.4788 66.8754C46.4962 66.8682 46.5148 66.8645 46.5335 66.8645C46.5524 66.8643 46.5712 66.8679 46.5886 66.875C46.6061 66.8821 46.622 66.8926 46.6354 66.9059C46.6488 66.9192 46.6595 66.935 46.6667 66.9525C46.674 66.9699 46.6777 66.9886 46.6777 67.0074Z" stroke="white" stroke-width="1.84" stroke-miterlimit="10"/>
<path d="M46.5335 67.0183C46.5335 67.0183 46.0804 67.1842 45.8502 67.051" stroke="white" stroke-width="1.84" stroke-linecap="round" stroke-linejoin="round"/>
<path d="M53.3497 57.22H48.6283C48.3727 57.22 48.1655 57.4271 48.1655 57.6826V61.4554C48.1655 61.711 48.3727 61.9181 48.6283 61.9181H53.3497C53.6053 61.9181 53.8125 61.711 53.8125 61.4554V57.6826C53.8125 57.4271 53.6053 57.22 53.3497 57.22Z" fill="#EBEBEB"/>
<path d="M50.8563 62.4402C51.1689 62.3106 51.7602 61.8468 51.9746 61.6796C52.189 61.5125 52.7354 60.7531 53.0444 60.6344C53.3533 60.5157 54.0427 60.4442 54.4001 60.3921C54.7575 60.3401 55.1137 60.179 55.1367 60.271C55.1597 60.3631 55.0422 60.7228 54.6618 60.8899C54.2814 61.0571 53.8052 61.1322 53.7107 61.1746C53.5599 61.2834 53.4166 61.4024 53.2819 61.5307C53.6705 61.5443 54.0596 61.5366 54.4474 61.5076C54.8247 61.4431 55.1948 61.3416 55.5523 61.2048V61.0837C55.6219 61.0803 55.6912 61.0936 55.7546 61.1225C55.8818 61.1915 56.0442 61.4665 55.8091 61.8007C55.8707 61.8433 55.9204 61.901 55.9535 61.9682C55.9866 62.0354 56.0019 62.1099 55.9981 62.1847C55.9966 62.3303 55.9617 62.4736 55.8964 62.6037C55.9522 62.6509 55.9913 62.7148 56.0079 62.7859C56.0245 62.857 56.0177 62.9316 55.9884 62.9986C55.9211 63.1849 55.8082 63.3514 55.6601 63.4831C55.6601 63.4831 55.8927 63.5376 55.6856 63.8464C55.4784 64.1553 55.0931 64.3079 54.6412 64.4738C54.1893 64.6397 53.3085 64.3321 52.2629 64.5453C51.2174 64.7584 50.0519 65.0212 50.0519 65.0212L49.434 62.9526C49.434 62.9526 50.5426 62.5723 50.8563 62.4402Z" fill="#E7B2A1"/>
<path d="M50.0894 62.6388C48.8779 63.1608 47.7051 63.5666 47.3913 63.6707C44.6132 64.5876 44.3297 64.7475 44.3297 64.7475C44.3297 64.7475 45.4347 59.9415 45.7836 58.3743C46.1325 56.807 45.7836 51.9829 45.7836 51.9829C45.1633 52.1137 43.6779 52.8973 42.825 54.2769C41.5093 56.4025 40.328 61.0982 40.0978 62.4075C39.7344 64.4483 39.1528 68.3713 39.5659 69.3656C39.9791 70.36 40.8562 70.2922 41.7201 70.1892C42.4821 70.0984 47.4907 67.6458 51.0017 65.4051C50.6506 64.4992 50.3462 63.5758 50.0894 62.6388Z" fill="#E47384"/>
<path d="M39.5623 69.3657C39.9755 70.3588 40.8526 70.2922 41.7164 70.1892C42.4785 70.0984 47.487 67.6458 50.9981 65.4051C50.6482 64.4991 50.345 63.5758 50.0894 62.6388C48.8779 63.1608 47.7051 63.5666 47.3913 63.6707C44.6132 64.5876 44.3297 64.7475 44.3297 64.7475C44.3297 64.7475 45.1887 61.0897 45.534 59.5225" stroke="#D9465D" stroke-width="1.16" stroke-miterlimit="10"/>
<path d="M43.0843 65.1702C43.0843 65.1702 44.6823 64.5815 47.5403 63.6199" stroke="#D9465D" stroke-width="1.16" stroke-miterlimit="10"/>
<path d="M49.3625 48.9018C49.1626 49.5704 49.1408 50.2038 49.2959 50.3698C49.4509 50.5357 50.5849 50.7464 51.7626 50.7065C52.9402 50.6665 54.451 50.3589 54.7842 50.1614C55.1173 49.964 54.9998 49.2434 54.8653 48.6862C54.8486 48.5865 54.8092 48.492 54.7502 48.4099C54.6911 48.3278 54.6141 48.2603 54.5249 48.2127C54.389 48.1569 54.2441 48.1262 54.0972 48.1218C54.0693 48.1218 54.142 48.4852 54.142 48.4852C53.9106 48.616 53.6841 48.6184 53.3691 48.6923C52.6627 48.8582 50.7994 48.7964 50.2809 48.7698C50.1714 48.7637 50.0625 48.7499 49.9549 48.7286C49.9222 48.7286 49.944 48.4864 49.9137 48.4791C49.6593 48.4319 49.4413 48.639 49.3625 48.9018Z" fill="#D9465D"/>
<path d="M55.1719 43.5217C55.5147 42.7744 56.3567 42.7163 56.5045 43.6428C56.6257 44.4277 56.341 44.6505 55.9872 45.4063C55.7449 45.9222 55.3815 45.7793 55.3148 45.5662C55.1113 44.9678 54.9586 43.9856 55.1719 43.5217Z" fill="#E7B2A1"/>
<path d="M55.6952 43.5653C55.8685 43.3231 56.0975 43.4866 56.2041 43.7228C56.3107 43.959 56.2041 43.8342 56.0211 43.7228C55.8382 43.6113 55.7316 44.0195 55.7897 44.2593C55.8697 44.5912 55.8406 45.032 55.6032 45.0999C55.3657 45.1677 55.4747 45.0417 55.4493 44.6772C55.4239 44.3126 55.436 44.6772 55.4493 44.3138C55.4455 44.0439 55.5321 43.7804 55.6952 43.5653Z" fill="#D38576"/>
<path d="M48.678 43.85C48.2612 43.1414 47.418 43.1693 47.3707 44.1116C47.3319 44.9037 47.636 45.0963 48.0649 45.8072C48.3581 46.2917 48.7022 46.1185 48.7507 45.8993C48.8851 45.284 48.9385 44.292 48.678 43.85Z" fill="#E7B2A1"/>
<path d="M48.1631 43.9493C47.9644 43.7204 47.7536 43.9118 47.6724 44.1576C47.5912 44.4035 47.6797 44.2679 47.8529 44.1371C48.0262 44.0063 48.1715 44.4035 48.1388 44.6482C48.0928 44.9861 48.1667 45.4221 48.409 45.4645C48.6513 45.5069 48.5302 45.3943 48.5193 45.0285C48.5083 44.6627 48.5338 45.0285 48.4793 44.6651C48.456 44.3981 48.3448 44.1464 48.1631 43.9493Z" fill="#D38576"/>
<path d="M54.9901 46.8695C54.7745 47.3661 53.5859 48.9224 52.6627 49.3403C52.3409 49.4453 51.9986 49.4719 51.6644 49.4178C50.4529 49.2095 49.4255 47.8263 48.9845 47.1311C48.6574 46.6139 48.4345 45.886 48.3327 44.9728C48.2309 44.0596 48.0032 42.8581 48.0153 42.1483C48.0359 41.0498 48.7422 39.7938 49.5612 39.4765C51.7856 38.6129 55.3657 40.5399 55.4129 41.3078C55.4578 42.0345 55.602 43.454 55.6201 44.4023C55.6371 45.1169 55.1937 46.4092 54.9901 46.8695Z" fill="#E7B2A1"/>
<path d="M48.0043 42.3504C48.0043 42.3504 48.6392 42.2923 49.3068 41.694C49.7914 41.2604 49.9949 39.7113 49.9949 39.7113C49.9949 39.7113 50.3923 41.2168 50.9957 41.4965C51.0623 41.5268 53.0916 41.5304 54.239 41.6285C54.5915 41.6588 55.5717 42.0185 55.5717 42.0185C55.5717 42.0185 55.2857 38.8429 53.8282 37.9417C52.3708 37.0406 49.8883 37.1666 49.0875 38.6006C48.2866 40.0346 48.0043 42.3504 48.0043 42.3504Z" fill="#34383F"/>
<path d="M54.1481 39.8374L55.0677 41.5718C55.0677 41.5718 54.9332 42.8932 55.6904 43.1669L56.45 41.4604L55.2118 39.9537L54.1481 39.8374Z" fill="#34383F"/>
<path d="M49.417 40.0092C49.417 40.0092 48.1231 42.7949 48.111 43.5531C48.111 43.5531 47.4325 43.2854 47.4907 41.746C47.5488 40.2066 48.4441 39.687 48.4441 39.687L49.417 40.0092Z" fill="#34383F"/>
<path d="M48.3981 42.962V43.1752C48.3985 43.1969 48.4043 43.2182 48.4148 43.2372C48.4254 43.2562 48.4405 43.2724 48.4587 43.2842C48.5464 43.3595 48.615 43.4545 48.6586 43.5616C48.7046 43.6827 48.8839 44.3464 49.2038 44.5777C49.5236 44.8091 50.5365 44.7618 50.7921 44.6552C51.3785 44.413 51.5118 43.4441 51.6014 43.3847C51.6583 43.358 51.7203 43.3441 51.7832 43.3441C51.846 43.3441 51.9081 43.358 51.9649 43.3847C52.0558 43.438 52.2072 44.4142 52.7948 44.6431C53.0565 44.7449 54.0669 44.7788 54.3819 44.5414C54.6969 44.304 54.8665 43.6354 54.9102 43.5155C54.9524 43.408 55.0197 43.3121 55.1064 43.2358C55.1242 43.2233 55.1389 43.2068 55.1492 43.1877C55.1595 43.1686 55.1652 43.1473 55.1658 43.1255V42.9124C55.1659 42.8794 55.1534 42.8477 55.1309 42.8236C55.1084 42.7995 55.0775 42.7849 55.0446 42.7828C54.5879 42.7561 53.3279 42.6411 52.2666 42.8433L52.0957 42.876C51.8896 42.9154 51.6779 42.9154 51.4718 42.876L51.301 42.8458C50.236 42.6605 48.9772 42.7949 48.5217 42.8288C48.5048 42.8294 48.4882 42.8334 48.4729 42.8404C48.4576 42.8474 48.4437 42.8574 48.4323 42.8698C48.4208 42.8822 48.4119 42.8967 48.406 42.9125C48.4001 42.9283 48.3975 42.9452 48.3981 42.962ZM52.2532 43.197C52.3029 43.0347 52.3744 43.0008 52.853 42.9354C53.3315 42.87 54.5285 42.853 54.663 43.065C54.7296 43.1716 54.7684 43.5676 54.5249 44.1114C54.2814 44.6553 53.6453 44.5959 53.2915 44.5898C52.836 44.5802 52.6409 44.4179 52.4907 44.1211C52.3405 43.8244 52.2036 43.3823 52.2532 43.197ZM48.9009 43.1098C49.0317 42.8954 50.2239 42.8954 50.7085 42.9523C51.1931 43.0093 51.2598 43.0432 51.3143 43.2043C51.3737 43.3884 51.2368 43.8317 51.0914 44.132C50.946 44.4324 50.7534 44.5959 50.299 44.6165C49.944 44.6298 49.3092 44.6976 49.0572 44.1562C48.8052 43.6149 48.8355 43.2164 48.9009 43.1098Z" fill="#323945"/>
<path d="M54.4352 42.7478C54.3856 42.4898 54.1929 42.1192 53.9179 42.0405C53.6429 41.9617 53.3606 41.8152 52.9862 41.8152C52.8529 41.8152 52.5598 42.1168 52.5598 42.1168C52.999 42.1507 53.4346 42.2212 53.8622 42.3275C54.0941 42.4009 54.2955 42.5486 54.4352 42.7478Z" fill="#363636"/>
<path d="M50.711 41.8262C50.3366 41.8262 50.0567 41.9655 49.7768 42.0418C49.497 42.1181 49.3056 42.4863 49.2535 42.743C49.395 42.5457 49.5977 42.4005 49.8302 42.33C50.2587 42.2269 50.6952 42.1605 51.135 42.1314C51.135 42.1314 50.8442 41.8262 50.711 41.8262Z" fill="#363636"/>
<path d="M51.9782 43.4976C51.9849 43.7639 51.9375 44.0288 51.8389 44.2763C51.7326 44.5281 51.6066 44.7711 51.4621 45.003C51.3938 45.1135 51.3374 45.2308 51.2937 45.3531C51.261 45.4742 51.2622 45.5735 51.3579 45.6425C51.5518 45.7843 51.8861 45.8303 52.1757 45.8533V46.0071C52.0128 46.0048 51.8506 45.987 51.6911 45.9538C51.5229 45.9265 51.3639 45.8583 51.2283 45.7552C51.1592 45.7012 51.1137 45.6227 51.1011 45.536C51.093 45.4599 51.1051 45.383 51.1362 45.3131C51.192 45.1847 51.2619 45.0628 51.3446 44.9498C51.5042 44.7304 51.6467 44.4992 51.7711 44.2582C51.8847 44.0189 51.9549 43.7614 51.9782 43.4976Z" fill="#D38576"/>
<path d="M50.9351 46.6611C51.2889 46.936 52.6955 46.8525 52.8736 46.5957C52.8736 46.5957 52.6458 47.389 51.9298 47.4435C51.1822 47.4932 50.9351 46.6611 50.9351 46.6611Z" fill="#363636"/>
<path d="M53.0117 43.6233C53.0189 43.891 53.1619 44.1078 53.3315 44.0993C53.5011 44.0908 53.632 43.874 53.6247 43.6064C53.6174 43.3387 53.4733 43.1219 53.3049 43.1304C53.1365 43.1388 53.0032 43.3556 53.0117 43.6233Z" fill="#363636"/>
<path d="M50.7158 43.6877C50.7231 43.9553 50.5946 44.1721 50.4226 44.1806C50.2506 44.1891 50.11 43.9735 50.1028 43.7058C50.0955 43.4382 50.2239 43.2214 50.3959 43.2129C50.568 43.2044 50.7085 43.4212 50.7158 43.6877Z" fill="#363636"/>
<path d="M129.814 110.608V124.88C129.814 125.448 129.281 125.907 128.624 125.907H86.1365C85.4835 125.907 84.9504 125.448 84.9504 124.88V110.608C84.9504 110.04 85.4835 109.581 86.1365 109.581H128.624C129.281 109.581 129.814 110.04 129.814 110.608Z" fill="#E8B852"/>
<path d="M84.9504 124.539V124.88C84.9504 125.448 85.4835 125.907 86.1365 125.907H128.624C129.281 125.907 129.814 125.448 129.814 124.88V124.539H84.9504Z" fill="#DCAE4E"/>
<path d="M84.9528 114.134H129.813V113.572H84.9528V114.134Z" fill="#FFCA5A"/>
<path d="M84.9528 116.414H129.813V114.133H84.9528V116.414Z" fill="#C18835"/>
<path d="M104.894 117.383H103.328C103.069 117.383 102.858 117.593 102.858 117.853V118.712C102.858 118.972 103.069 119.182 103.328 119.182H104.894C105.153 119.182 105.364 118.972 105.364 118.712V117.853C105.364 117.593 105.153 117.383 104.894 117.383Z" fill="#F1D7B2"/>
<path d="M112.313 117.383H110.748C110.488 117.383 110.278 117.593 110.278 117.853V118.712C110.278 118.972 110.488 119.182 110.748 119.182H112.313C112.573 119.182 112.783 118.972 112.783 118.712V117.853C112.783 117.593 112.573 117.383 112.313 117.383Z" fill="#F1D7B2"/>
<path d="M109.925 121.528H105.728C105.156 121.527 104.608 121.299 104.204 120.895C103.8 120.49 103.573 119.941 103.573 119.369V118.56C103.573 118.419 103.629 118.284 103.728 118.185C103.828 118.085 103.963 118.029 104.104 118.029C104.244 118.029 104.379 118.085 104.479 118.185C104.578 118.284 104.634 118.419 104.634 118.56V119.369C104.634 119.513 104.663 119.656 104.718 119.789C104.773 119.922 104.854 120.043 104.956 120.145C105.058 120.247 105.179 120.328 105.313 120.383C105.446 120.438 105.589 120.466 105.733 120.466H109.929C110.22 120.466 110.499 120.351 110.705 120.145C110.911 119.939 111.026 119.66 111.026 119.369V118.56C111.026 118.419 111.082 118.284 111.182 118.185C111.281 118.085 111.416 118.029 111.557 118.029C111.698 118.029 111.833 118.085 111.932 118.185C112.032 118.284 112.088 118.419 112.088 118.56V119.369C112.088 119.653 112.032 119.934 111.923 120.196C111.815 120.458 111.655 120.696 111.455 120.897C111.254 121.098 111.015 121.257 110.753 121.365C110.49 121.473 110.209 121.529 109.925 121.528Z" fill="#AE7B30"/>
<path d="M91.3764 115.938H95.4848C95.6668 115.938 95.8143 115.79 95.8143 115.608V114.939C95.8143 114.757 95.6668 114.609 95.4848 114.609H91.3764C91.1944 114.609 91.0469 114.757 91.0469 114.939V115.608C91.0469 115.79 91.1944 115.938 91.3764 115.938Z" fill="#F1D7B2"/>
<path d="M92.2306 115.274C92.2306 115.403 92.1795 115.526 92.0886 115.617C91.9977 115.707 91.8745 115.758 91.746 115.758C91.6174 115.758 91.4942 115.707 91.4033 115.617C91.3124 115.526 91.2613 115.403 91.2613 115.274C91.2613 115.146 91.3124 115.022 91.4033 114.931C91.4942 114.841 91.6174 114.79 91.746 114.79C91.8745 114.79 91.9977 114.841 92.0886 114.931C92.1795 115.022 92.2306 115.146 92.2306 115.274Z" fill="#C18835"/>
<path d="M122.774 114.609H118.665C118.483 114.609 118.336 114.756 118.336 114.938V115.608C118.336 115.79 118.483 115.938 118.665 115.938H122.774C122.956 115.938 123.103 115.79 123.103 115.608V114.938C123.103 114.756 122.956 114.609 122.774 114.609Z" fill="#F1D7B2"/>
<path d="M121.918 115.274C121.918 115.146 121.969 115.022 122.06 114.931C122.151 114.841 122.274 114.79 122.403 114.79C122.531 114.79 122.655 114.841 122.746 114.931C122.836 115.022 122.887 115.146 122.887 115.274C122.887 115.403 122.836 115.526 122.746 115.617C122.655 115.707 122.531 115.758 122.403 115.758C122.274 115.758 122.151 115.707 122.06 115.617C121.969 115.526 121.918 115.403 121.918 115.274Z" fill="#C18835"/>
<path d="M109.65 101.752V98.4167H99.7494C99.3073 98.4171 98.8833 98.5927 98.5705 98.9052C98.2578 99.2176 98.0817 99.6413 98.0811 100.083C98.0811 100.302 98.1243 100.519 98.2081 100.722C98.2919 100.924 98.4148 101.108 98.5697 101.263C98.7247 101.417 98.9086 101.54 99.111 101.624C99.3134 101.708 99.5303 101.751 99.7494 101.751L109.65 101.752Z" fill="#707070"/>
<path d="M100.866 98.4084H107.158C106.716 98.4088 106.291 98.5846 105.979 98.8973C105.666 99.21 105.49 99.634 105.49 100.076C105.49 100.519 105.665 100.943 105.978 101.256C106.291 101.568 106.716 101.744 107.158 101.744H100.866C100.424 101.744 99.9997 101.568 99.6868 101.256C99.3739 100.943 99.1982 100.519 99.1982 100.076C99.1985 99.634 99.3743 99.21 99.6871 98.8973C99.9999 98.5846 100.424 98.4088 100.866 98.4084Z" fill="#999999"/>
<path d="M121.426 101.752V98.4167H108.606C108.164 98.4171 107.74 98.5927 107.427 98.9052C107.114 99.2176 106.938 99.6413 106.938 100.083C106.938 100.302 106.981 100.519 107.064 100.722C107.148 100.924 107.271 101.108 107.426 101.263C107.581 101.417 107.765 101.54 107.967 101.624C108.17 101.708 108.387 101.751 108.606 101.751L121.426 101.752Z" fill="#707070"/>
<mask id="mask2_3211_7096" style="mask-type:luminance" maskUnits="userSpaceOnUse" x="106" y="98" width="16" height="4">
<path d="M121.426 101.752V98.4167H108.606C108.164 98.4171 107.74 98.5927 107.427 98.9052C107.114 99.2176 106.938 99.6413 106.938 100.083C106.937 100.302 106.981 100.519 107.064 100.722C107.148 100.924 107.271 101.108 107.426 101.263C107.581 101.417 107.765 101.54 107.967 101.624C108.17 101.708 108.387 101.751 108.606 101.751L121.426 101.752Z" fill="white"/>
</mask>
<g mask="url(#mask2_3211_7096)">
<path d="M121.426 101.752V98.4167H108.606C108.164 98.4171 107.74 98.5927 107.427 98.9052C107.114 99.2176 106.938 99.6413 106.938 100.083C106.938 100.302 106.981 100.519 107.065 100.722C107.148 100.924 107.271 101.108 107.426 101.263C107.581 101.417 107.765 101.54 107.967 101.624C108.17 101.708 108.387 101.751 108.606 101.751L121.426 101.752Z" fill="#8A8A8A"/>
</g>
<mask id="mask3_3211_7096" style="mask-type:luminance" maskUnits="userSpaceOnUse" x="107" y="98" width="15" height="4">
<path d="M121.43 98.7898H108.715C108.546 98.7896 108.378 98.8228 108.222 98.8874C108.066 98.952 107.924 99.0467 107.805 99.1662C107.685 99.2857 107.59 99.4275 107.526 99.5836C107.461 99.7398 107.428 99.9071 107.428 100.076C107.428 100.245 107.461 100.412 107.526 100.569C107.59 100.725 107.685 100.867 107.805 100.986C107.924 101.106 108.066 101.201 108.222 101.266C108.378 101.33 108.546 101.364 108.715 101.364H121.43V98.7898Z" fill="white"/>
</mask>
<g mask="url(#mask3_3211_7096)">
<path d="M121.43 98.7898H107.428V101.364H121.43V98.7898Z" fill="#F1E7DB"/>
<path d="M107.488 101.63H107.22V98.5222H107.515C108.04 99.4887 108.056 100.718 107.488 101.63Z" fill="#39354F"/>
</g>
<path d="M122.692 109.58H103.778V105.238H122.692C122.801 105.238 122.906 105.281 122.983 105.358C123.06 105.435 123.103 105.54 123.103 105.649V109.165C123.104 109.219 123.094 109.273 123.073 109.323C123.053 109.374 123.023 109.419 122.985 109.458C122.946 109.497 122.901 109.527 122.851 109.548C122.801 109.569 122.747 109.58 122.692 109.58Z" fill="#898996"/>
<path d="M96.1984 105.239V105.684H100.833V109.123H96.1984V109.581H103.913C104.185 109.581 104.407 109.247 104.407 108.836V105.984C104.407 105.572 104.185 105.239 103.913 105.239H96.1984Z" fill="#64646E"/>
<path d="M96.5182 109.124H104.015V105.684H96.5182V109.124Z" fill="#F1E7DB"/>
<path d="M104.014 105.721C103.886 105.995 103.671 106.271 103.671 107.52C103.671 108.695 103.906 108.952 103.963 109.124H104.014V105.721Z" fill="#3D3D4E"/>
<path d="M96.8878 93.5686H112.318V98.4133H96.8878C96.7991 98.4133 96.714 98.3781 96.6513 98.3154C96.5886 98.2527 96.5534 98.1677 96.5534 98.079V93.8968C96.555 93.8092 96.5909 93.7258 96.6534 93.6644C96.716 93.603 96.8001 93.5686 96.8878 93.5686Z" fill="#679AB6"/>
<path d="M109.688 94.6294H98.3779C98.0768 94.6294 97.8327 94.8734 97.8327 95.1744V96.8846C97.8327 97.1856 98.0768 97.4296 98.3779 97.4296H109.688C109.989 97.4296 110.233 97.1856 110.233 96.8846V95.1744C110.233 94.8734 109.989 94.6294 109.688 94.6294Z" fill="#76B2D2"/>
<path d="M119.895 93.5698V93.8641H115.262V98.1032H119.895V98.406H112.181C112.051 98.4054 111.927 98.3535 111.835 98.2617C111.743 98.1698 111.691 98.0454 111.69 97.9155V94.0628C111.69 93.998 111.703 93.9339 111.728 93.8741C111.753 93.8143 111.789 93.76 111.835 93.7142C111.881 93.6684 111.935 93.6321 111.995 93.6073C112.055 93.5826 112.119 93.5698 112.183 93.5698H119.895Z" fill="#76B2D2"/>
<path d="M119.576 93.864H112.079V98.1055H119.576V93.864Z" fill="#F1E7DB"/>
<path d="M112.079 93.8882C112.208 94.0699 112.571 94.994 112.571 96.0683C112.577 96.772 112.426 97.4682 112.13 98.1067H112.079V93.8882Z" fill="#3A5666"/>
<path d="M96.6745 104.414V102.498C96.6745 102.278 96.7621 102.067 96.9179 101.911C97.0738 101.755 97.2852 101.668 97.5056 101.668H109.972V105.245H97.5056C97.2852 105.245 97.0738 105.158 96.9179 105.002C96.7621 104.846 96.6745 104.635 96.6745 104.414Z" fill="#E3B84C"/>
<mask id="mask4_3211_7096" style="mask-type:luminance" maskUnits="userSpaceOnUse" x="108" y="101" width="13" height="5">
<path d="M108.458 104.188V102.719C108.458 102.439 108.569 102.171 108.767 101.973C108.965 101.775 109.233 101.664 109.513 101.664H120.92V105.24H109.512C109.233 105.239 108.965 105.128 108.768 104.931C108.57 104.734 108.459 104.467 108.458 104.188Z" fill="white"/>
</mask>
<g mask="url(#mask4_3211_7096)">
<path d="M108.458 101.665V105.243H120.919V101.665H108.458Z" fill="#F1CF71"/>
</g>
<mask id="mask5_3211_7096" style="mask-type:luminance" maskUnits="userSpaceOnUse" x="109" y="102" width="12" height="3">
<path d="M109.809 102.087H120.924V104.769H109.809C109.622 104.769 109.442 104.695 109.309 104.563C109.177 104.43 109.103 104.251 109.103 104.063V102.793C109.103 102.606 109.177 102.426 109.309 102.293C109.442 102.161 109.622 102.087 109.809 102.087Z" fill="white"/>
</mask>
<g mask="url(#mask5_3211_7096)">
<path d="M120.924 102.087H109.103V104.769H120.924V102.087Z" fill="#F1E7DB"/>
<path d="M108.987 104.769V102.087C108.987 102.087 109.865 102.087 109.733 103.652C109.638 104.759 108.987 104.769 108.987 104.769Z" fill="#684416"/>
</g>
<path d="M109.254 90.7986V93.6448H100.806C100.428 93.6448 100.066 93.4949 99.7993 93.228C99.5323 92.9611 99.3823 92.5991 99.3823 92.2217C99.3823 91.8443 99.5323 91.4823 99.7993 91.2154C100.066 90.9485 100.428 90.7986 100.806 90.7986H109.254Z" fill="#86AD9A"/>
<mask id="mask6_3211_7096" style="mask-type:luminance" maskUnits="userSpaceOnUse" x="106" y="90" width="13" height="4">
<path d="M118.659 93.6448V90.7986H108.361C107.984 90.7986 107.621 90.9485 107.354 91.2154C107.087 91.4823 106.938 91.8443 106.938 92.2217C106.938 92.5991 107.087 92.9611 107.354 93.228C107.621 93.4949 107.984 93.6448 108.361 93.6448H118.659Z" fill="white"/>
</mask>
<g mask="url(#mask6_3211_7096)">
<path d="M118.659 93.6448V90.7986H108.361C107.984 90.7986 107.621 90.9485 107.355 91.2154C107.088 91.4823 106.938 91.8443 106.938 92.2217C106.938 92.5991 107.088 92.9611 107.355 93.228C107.621 93.4949 107.984 93.6448 108.361 93.6448H118.659Z" fill="#96BEAC"/>
</g>
<mask id="mask7_3211_7096" style="mask-type:luminance" maskUnits="userSpaceOnUse" x="107" y="91" width="12" height="3">
<path d="M118.663 91.1208H108.456C108.166 91.1208 107.888 91.2355 107.682 91.4397C107.476 91.6439 107.36 91.9211 107.358 92.2109C107.358 92.3551 107.386 92.4979 107.441 92.6312C107.496 92.7645 107.577 92.8856 107.679 92.9876C107.781 93.0896 107.902 93.1706 108.035 93.2258C108.168 93.281 108.311 93.3094 108.456 93.3094H118.663V91.1208Z" fill="white"/>
</mask>
<g mask="url(#mask7_3211_7096)">
<path d="M118.663 91.116H107.358V93.3118H118.663V91.116Z" fill="#F1E7DB"/>
<path d="M118.663 91.116H107.358V91.5205H118.663V91.116Z" fill="#E6D9CA"/>
<path d="M107.409 93.5431H107.18V90.8882H107.433C107.88 91.713 107.89 92.7619 107.409 93.5431Z" fill="#39354F"/>
</g>
</svg>
