<svg width="150" height="47" viewBox="0 0 150 47" fill="none" xmlns="http://www.w3.org/2000/svg">
<path d="M24.44 23.7708C24.44 22.9258 24.3642 22.1133 24.2233 21.3333H13V25.9428H19.4133C19.1371 27.4324 18.2975 28.6945 17.0354 29.5395V32.5295H20.8867C23.14 30.4549 24.44 27.3999 24.44 23.7708Z" fill="#4285F4"/>
<path d="M13 35.4167C16.2175 35.4167 18.915 34.3496 20.8867 32.5296L17.0354 29.5396C15.9683 30.2546 14.6033 30.6771 13 30.6771C9.89625 30.6771 7.26916 28.5808 6.33208 25.7642H2.35083V28.8517C4.31166 32.7462 8.34166 35.4167 13 35.4167Z" fill="#34A853"/>
<path d="M6.33212 25.7643C6.09379 25.0493 5.95837 24.2855 5.95837 23.5001C5.95837 22.7147 6.09379 21.9509 6.33212 21.2359V18.1484H2.35087C1.51671 19.809 1.08264 21.6418 1.08337 23.5001C1.08337 25.423 1.54379 27.243 2.35087 28.8518L6.33212 25.7643Z" fill="#FBBC05"/>
<path d="M13 16.3228C14.7496 16.3228 16.3204 16.9241 17.5554 18.1049L20.9733 14.687C18.9096 12.7641 16.2121 11.5833 13 11.5833C8.34166 11.5833 4.31166 14.2537 2.35083 18.1483L6.33208 21.2358C7.26916 18.4191 9.89625 16.3228 13 16.3228Z" fill="#EA4335"/>
<path d="M39.5 16L41.1839 21.1824H46.6329L42.2245 24.3853L43.9084 29.5676L39.5 26.3647L35.0916 29.5676L36.7755 24.3853L32.3671 21.1824H37.8161L39.5 16Z" fill="#00C938"/>
<path d="M58.5 16L60.1839 21.1824H65.6329L61.2245 24.3853L62.9084 29.5676L58.5 26.3647L54.0916 29.5676L55.7755 24.3853L51.3671 21.1824H56.8161L58.5 16Z" fill="#00C938"/>
<path d="M77.5 16L79.1839 21.1824H84.6329L80.2245 24.3853L81.9084 29.5676L77.5 26.3647L73.0916 29.5676L74.7755 24.3853L70.3671 21.1824H75.8161L77.5 16Z" fill="#00C938"/>
<path d="M96.5 16L98.1839 21.1824H103.633L99.2245 24.3853L100.908 29.5676L96.5 26.3647L92.0916 29.5676L93.7755 24.3853L89.3671 21.1824H94.8161L96.5 16Z" fill="#00C938"/>
<path d="M115 16L116.684 21.1824H122.133L117.725 24.3853L119.408 29.5676L115 26.3647V16Z" fill="#D9D9D9"/>
<path d="M115.133 16L113.449 21.1824H108L112.408 24.3853L110.725 29.5676L115.133 26.3647V16Z" fill="#00C938"/>
</svg>
