<svg id="visual" viewBox="0 0 900 600" width="900" height="600" xmlns="http://www.w3.org/2000/svg" xmlns:xlink="http://www.w3.org/1999/xlink" version="1.1"><rect x="0" y="0" width="900" height="600" fill="#fff"></rect><path d="M0 260L37.5 257.2C75 254.3 150 248.7 225 262.7C300 276.7 375 310.3 450 314.5C525 318.7 600 293.3 675 294C750 294.7 825 321.3 862.5 334.7L900 348L900 601L862.5 601C825 601 750 601 675 601C600 601 525 601 450 601C375 601 300 601 225 601C150 601 75 601 37.5 601L0 601Z" fill="#ECF2FF" stroke-linecap="round" stroke-linejoin="miter"></path></svg>