<svg xmlns="http://www.w3.org/2000/svg" xmlns:xlink="http://www.w3.org/1999/xlink" version="1.1" width="1000" height="1000" viewBox="0 0 1000 1000" xml:space="preserve">
<desc>Created with Fabric.js 3.5.0</desc>
<defs>
</defs>
<rect x="0" y="0" width="100%" height="100%" fill="#ffffff"/>
<g transform="matrix(0.672 0 0 0.4823 486.0857 500.0094)" id="302287">
<path style="stroke: none; stroke-width: 1; stroke-dasharray: none; stroke-linecap: butt; stroke-dashoffset: 0; stroke-linejoin: miter; stroke-miterlimit: 4; is-custom-font: none; font-file-url: none; fill: rgb(236,242,255); fill-rule: evenodd; opacity: 1;" vector-effect="non-scaling-stroke" transform=" translate(-918.6435, -412.6782)" d="M 908.921 100.111 C 1124.31 124.921 1352.7 90.4184 1541.37 147.152 C 1730.1 203.904 1772.95 299.388 1842.95 380.982 C 1909.39 458.424 1993.4 541.403 1936.64 607.887 C 1881.37 672.622 1687.41 691.957 1545.53 729.337 C 1409.61 765.148 1299.32 814.294 1121.73 822.594 C 930.796 831.518 720.542 812.175 519.458 777.292 C 299.594 739.151 38.0368 696.826 -75.9994 614.819 C -190.66 532.362 -34.3103 458.936 -38.7964 375.833 C -42.7822 301.998 -155.935 220.267 -100.819 155.04 C -40.6769 83.8632 75.414 12.557 277.45 1.56651 C 478.278 -9.3583 691.638 75.0834 908.921 100.111 Z" stroke-linecap="round"/>
</g>
</svg>