<svg width="24" height="23" viewBox="0 0 24 23" fill="none" xmlns="http://www.w3.org/2000/svg">
<path d="M20.8125 21.5312V5.375H16.4062V0.96875H3.1875V21.5312H0.25V23H10.5312V18.5938H13.4688V23H23.75V21.5312H20.8125ZM9.0625 15.6562H6.125V12.7188H9.0625V15.6562ZM9.0625 11.25H6.125V8.3125H9.0625V11.25ZM9.0625 6.84375H6.125V3.90625H9.0625V6.84375ZM13.4688 15.6562H10.5312V12.7188H13.4688V15.6562ZM13.4688 11.25H10.5312V8.3125H13.4688V11.25ZM13.4688 6.84375H10.5312V3.90625H13.4688V6.84375ZM19.3438 15.6562H16.4062V12.7188H19.3438V15.6562ZM19.3438 11.25H16.4062V8.3125H19.3438V11.25Z" fill="#4281FD"/>
</svg>
