<svg width="24" height="23" viewBox="0 0 24 23" fill="none" xmlns="http://www.w3.org/2000/svg">
<path d="M22.8586 3.60484L12.4137 0.0687793C12.1463 -0.0229264 11.8565 -0.0229264 11.589 0.0687793L1.14415 3.60484C0.894923 3.68867 0.676371 3.84687 0.517022 4.05878C0.357672 4.27069 0.264927 4.52647 0.250893 4.79274C0.249702 4.81593 0.249702 4.83916 0.250893 4.86235V13.7025C0.250893 14.0542 0.388448 14.3915 0.633297 14.6401C0.878147 14.8888 1.21023 15.0285 1.5565 15.0285C1.90277 15.0285 2.23486 14.8888 2.47971 14.6401C2.72456 14.3915 2.86211 14.0542 2.86211 13.7025V6.70221L5.44178 7.57517C4.64118 9.13159 4.40327 10.9238 4.76945 12.64C5.13563 14.3562 6.08272 15.8877 7.4459 16.9678C5.66202 17.8613 4.1523 19.2326 3.07972 20.9338C2.98313 21.0796 2.91603 21.2434 2.88234 21.4158C2.84865 21.5881 2.84903 21.7656 2.88345 21.9378C2.91788 22.11 2.98566 22.2736 3.08287 22.419C3.18008 22.5643 3.30477 22.6886 3.4497 22.7846C3.59462 22.8806 3.75689 22.9464 3.92707 22.9782C4.09725 23.0099 4.27195 23.007 4.441 22.9696C4.61006 22.9322 4.77011 22.861 4.91184 22.7602C5.05358 22.6594 5.17417 22.531 5.26661 22.3824C6.8192 19.9558 9.28137 18.5646 12.0014 18.5646C14.7214 18.5646 17.1836 19.9558 18.7416 22.3824C18.834 22.531 18.9546 22.6594 19.0964 22.7602C19.2381 22.861 19.3982 22.9322 19.5672 22.9696C19.7363 23.007 19.911 23.0099 20.0811 22.9782C20.2513 22.9464 20.4136 22.8806 20.5585 22.7846C20.7034 22.6886 20.8281 22.5643 20.9253 22.419C21.0226 22.2736 21.0903 22.11 21.1248 21.9378C21.1592 21.7656 21.1596 21.5881 21.1259 21.4158C21.0922 21.2434 21.0251 21.0796 20.9285 20.9338C19.8549 19.2306 18.3432 17.858 16.5569 16.9645C17.9201 15.8843 18.8671 14.3529 19.2333 12.6367C19.5995 10.9205 19.3616 9.12827 18.561 7.57186L22.8586 6.11655C23.1183 6.02833 23.344 5.85944 23.504 5.63378C23.6639 5.40812 23.75 5.1371 23.75 4.85904C23.75 4.58098 23.6639 4.30995 23.504 4.08429C23.344 3.85863 23.1183 3.68975 22.8586 3.60153V3.60484ZM12.0014 2.72082L18.3173 4.86235L12.0014 7.00056L5.69094 4.86235L12.0014 2.72082ZM16.7886 11.0505C16.7888 11.8057 16.6157 12.5505 16.2831 13.226C15.9505 13.9014 15.4676 14.4889 14.8726 14.9419C14.2776 15.3948 13.5869 15.7008 12.8553 15.8355C12.1236 15.9702 11.3711 15.9299 10.6574 15.7179C9.94376 15.5059 9.28852 15.128 8.74366 14.614C8.19881 14.1001 7.77931 13.4644 7.51844 12.7572C7.25756 12.05 7.16248 11.2908 7.24073 10.5397C7.31897 9.78873 7.5684 9.06655 7.96923 8.43046L11.589 9.65592C11.8566 9.7473 12.1462 9.7473 12.4137 9.65592L16.0335 8.43046C16.5273 9.21224 16.7894 10.1217 16.7886 11.0505Z" fill="white"/>
</svg>
