<svg width="28" height="24" viewBox="0 0 28 24" fill="none" xmlns="http://www.w3.org/2000/svg">
<path d="M14.4771 0.253125C14.0143 -0.084375 13.4143 -0.084375 12.9514 0.253125L7.12714 4.5H2.05714C0.921429 4.5 0 5.50781 0 6.75V21.75C0 22.9922 0.921429 24 2.05714 24H25.3714C26.5071 24 27.4286 22.9922 27.4286 21.75V6.75C27.4286 5.50781 26.5071 4.5 25.3714 4.5H20.3014L14.4771 0.253125ZM10.9714 19.5C10.9714 17.8453 12.2014 16.5 13.7143 16.5C15.2271 16.5 16.4571 17.8453 16.4571 19.5V24H10.9714V19.5ZM4.11429 9H5.48571C5.86286 9 6.17143 9.3375 6.17143 9.75V12.75C6.17143 13.1625 5.86286 13.5 5.48571 13.5H4.11429C3.73714 13.5 3.42857 13.1625 3.42857 12.75V9.75C3.42857 9.3375 3.73714 9 4.11429 9ZM21.2571 9.75C21.2571 9.3375 21.5657 9 21.9429 9H23.3143C23.6914 9 24 9.3375 24 9.75V12.75C24 13.1625 23.6914 13.5 23.3143 13.5H21.9429C21.5657 13.5 21.2571 13.1625 21.2571 12.75V9.75ZM4.11429 15H5.48571C5.86286 15 6.17143 15.3375 6.17143 15.75V18.75C6.17143 19.1625 5.86286 19.5 5.48571 19.5H4.11429C3.73714 19.5 3.42857 19.1625 3.42857 18.75V15.75C3.42857 15.3375 3.73714 15 4.11429 15ZM21.2571 15.75C21.2571 15.3375 21.5657 15 21.9429 15H23.3143C23.6914 15 24 15.3375 24 15.75V18.75C24 19.1625 23.6914 19.5 23.3143 19.5H21.9429C21.5657 19.5 21.2571 19.1625 21.2571 18.75V15.75ZM9.94286 8.25C9.94286 7.15598 10.3402 6.10677 11.0475 5.33318C11.7548 4.5596 12.714 4.125 13.7143 4.125C14.7145 4.125 15.6738 4.5596 16.3811 5.33318C17.0884 6.10677 17.4857 7.15598 17.4857 8.25C17.4857 9.34402 17.0884 10.3932 16.3811 11.1668C15.6738 11.9404 14.7145 12.375 13.7143 12.375C12.714 12.375 11.7548 11.9404 11.0475 11.1668C10.3402 10.3932 9.94286 9.34402 9.94286 8.25ZM13.7143 6C13.3371 6 13.0286 6.3375 13.0286 6.75V8.25C13.0286 8.6625 13.3371 9 13.7143 9H15.0857C15.4629 9 15.7714 8.6625 15.7714 8.25C15.7714 7.8375 15.4629 7.5 15.0857 7.5H14.4V6.75C14.4 6.3375 14.0914 6 13.7143 6Z" fill="#4281FD"/>
</svg>
