<svg width="1440" height="2336" viewBox="0 0 1440 2336" fill="none" xmlns="http://www.w3.org/2000/svg">
<mask id="mask0_1461_2266" style="mask-type:alpha" maskUnits="userSpaceOnUse" x="0" y="0" width="1440" height="2336">
<rect width="1440" height="2336" fill="#D9D9D9"/>
</mask>
<g mask="url(#mask0_1461_2266)">
<path fill-rule="evenodd" clip-rule="evenodd" d="M670.652 475.476C926.074 476.466 1188.88 348.157 1417.25 423.482C1645.69 498.831 1708.49 691.645 1801.23 848.386C1889.25 997.15 1998.58 1153.47 1940.92 1308.54C1884.79 1459.54 1660.29 1547.3 1499.15 1660.93C1344.78 1769.79 1222.17 1900.85 1015.37 1961.21C793.034 2026.1 544.343 2035.5 304.331 2009.65C41.9015 1981.37 -269.888 1954.22 -414.234 1807.19C-559.37 1659.36 -386.056 1465.57 -402.303 1289.87C-416.738 1133.76 -560.013 987.102 -504.124 835.097C-443.136 669.227 -316.67 489.629 -81.6127 417.674C152.04 346.148 412.981 474.478 670.652 475.476Z" fill="#ECF2FF"/>
</g>
</svg>
