<svg width="26" height="26" viewBox="0 0 26 26" fill="none" xmlns="http://www.w3.org/2000/svg">
<path d="M3.4 5.8L13 1L22.6 5.8M20.2 10.6L25 13V22.6C25 23.2365 24.7471 23.847 24.2971 24.2971C23.847 24.7471 23.2365 25 22.6 25H3.4C2.76348 25 2.15303 24.7471 1.70294 24.2971C1.25286 23.847 1 23.2365 1 22.6V13L5.8 10.6" stroke="white" stroke-width="2" stroke-linecap="round" stroke-linejoin="round"/>
<path d="M15.4 25.0001V20.2001C15.4 19.5636 15.1472 18.9531 14.6971 18.503C14.247 18.053 13.6366 17.8001 13 17.8001C12.3635 17.8001 11.7531 18.053 11.303 18.503C10.8529 18.9531 10.6 19.5636 10.6 20.2001V25.0001M20.2 4.6001V25.0001M5.80005 4.6001V25.0001" stroke="white" stroke-width="2" stroke-linecap="round" stroke-linejoin="round"/>
<path d="M13.0001 11.8C14.3256 11.8 15.4001 10.7255 15.4001 9.4C15.4001 8.07452 14.3256 7 13.0001 7C11.6746 7 10.6001 8.07452 10.6001 9.4C10.6001 10.7255 11.6746 11.8 13.0001 11.8Z" stroke="white" stroke-width="2" stroke-linecap="round" stroke-linejoin="round"/>
</svg>
