<svg width="18" height="21" viewBox="0 0 18 21" fill="none" xmlns="http://www.w3.org/2000/svg">
<path d="M9 2.41659C8.09108 2.41659 7.21939 2.77765 6.57669 3.42035C5.93398 4.06306 5.57292 4.93475 5.57292 5.84367C5.57292 6.75259 5.93398 7.62428 6.57669 8.26698C7.21939 8.90969 8.09108 9.27075 9 9.27075C9.90892 9.27075 10.7806 8.90969 11.4233 8.26698C12.066 7.62428 12.4271 6.75259 12.4271 5.84367C12.4271 4.93475 12.066 4.06306 11.4233 3.42035C10.7806 2.77765 9.90892 2.41659 9 2.41659ZM3.61458 5.84367C3.61458 4.41537 4.18197 3.04557 5.19194 2.0356C6.2019 1.02564 7.5717 0.458252 9 0.458252C10.4283 0.458252 11.7981 1.02564 12.8081 2.0356C13.818 3.04557 14.3854 4.41537 14.3854 5.84367C14.3854 7.27197 13.818 8.64177 12.8081 9.65173C11.7981 10.6617 10.4283 11.2291 9 11.2291C7.5717 11.2291 6.2019 10.6617 5.19194 9.65173C4.18197 8.64177 3.61458 7.27197 3.61458 5.84367ZM0.1875 17.1041C0.1875 15.8056 0.70331 14.5604 1.62146 13.6422C2.5396 12.7241 3.78488 12.2083 5.08333 12.2083H12.9167C14.2151 12.2083 15.4604 12.7241 16.3785 13.6422C17.2967 14.5604 17.8125 15.8056 17.8125 17.1041V20.0416H0.1875V17.1041ZM5.08333 14.1666C4.30426 14.1666 3.5571 14.4761 3.00621 15.027C2.45532 15.5778 2.14583 16.325 2.14583 17.1041V18.0833H7.6419L6.33569 14.1666H5.08333ZM8.39977 14.1666L9 15.9663L9.60023 14.1666H8.39977ZM11.6643 14.1666L10.3581 18.0833H15.8542V17.1041C15.8542 16.325 15.5447 15.5778 14.9938 15.027C14.4429 14.4761 13.6957 14.1666 12.9167 14.1666H11.6643Z" fill="white"/>
</svg>
