<svg width="637" height="433" viewBox="0 0 637 433" fill="none" xmlns="http://www.w3.org/2000/svg">
<g filter="url(#filter0_f_1147_4314)">
<rect x="38" y="153" width="111.534" height="28.4769" rx="14.2384" fill="#5388FF" fill-opacity="0.5"/>
</g>
<g filter="url(#filter1_f_1147_4314)">
<rect x="384" y="81" width="111.534" height="28.4769" rx="14.2384" fill="#5388FF" fill-opacity="0.5"/>
</g>
<g filter="url(#filter2_f_1147_4314)">
<rect x="492" y="207" width="111.534" height="28.4769" rx="14.2384" fill="#5388FF" fill-opacity="0.5"/>
</g>
<g filter="url(#filter3_f_1147_4314)">
<ellipse cx="322.194" cy="329.735" rx="222.833" ry="17.495" fill="#B6B6B6" fill-opacity="0.15"/>
</g>
<g clip-path="url(#clip0_1147_4314)">
<g filter="url(#filter4_f_1147_4314)">
<ellipse cx="455.5" cy="383.5" rx="149.5" ry="17.5" fill="#B6B6B6" fill-opacity="0.2"/>
</g>
<g filter="url(#filter5_f_1147_4314)">
<ellipse cx="213.5" cy="375.5" rx="149.5" ry="17.5" fill="#B6B6B6" fill-opacity="0.2"/>
</g>
<path d="M570.08 399.248H531.62V399.538H570.08V399.248Z" fill="#EBEBEB"/>
<path d="M432.266 402.409H422.175V402.699H432.266V402.409Z" fill="#EBEBEB"/>
<path d="M530.459 388.463H508.175V388.753H530.459V388.463Z" fill="#EBEBEB"/>
<path d="M158.716 390.415H108.563V390.706H158.716V390.415Z" fill="#EBEBEB"/>
<path d="M176.413 390.415H169.063V390.706H176.413V390.415Z" fill="#EBEBEB"/>
<path d="M309.095 395.319H200.311V395.61H309.095V395.319Z" fill="#EBEBEB"/>
<path d="M628.257 380.549H47.645V380.839H628.257V380.549Z" fill="#EBEBEB"/>
<path d="M338.636 67.4396C351.931 67.4396 362.708 56.6535 362.708 43.3481C362.708 30.0427 351.931 19.2566 338.636 19.2566C325.341 19.2566 314.564 30.0427 314.564 43.3481C314.564 56.6535 325.341 67.4396 338.636 67.4396Z" fill="#E0E0E0"/>
<path d="M360.79 46.2048C362.92 33.0713 354.009 20.6963 340.886 18.5644C327.763 16.4326 315.398 25.3511 313.268 38.4846C311.138 51.6181 320.049 63.9931 333.172 66.125C346.295 68.2568 358.66 59.3383 360.79 46.2048Z" fill="#EBEBEB"/>
<path opacity="0.8" d="M356.333 42.5002C356.333 53.1804 347.682 61.8385 337.01 61.8385C326.339 61.8385 317.688 53.1804 317.688 42.5002C317.688 31.8199 326.339 23.1619 337.01 23.1619C347.682 23.1619 356.333 31.8199 356.333 42.5002Z" fill="white"/>
<path d="M335.965 44.3247C335.199 43.5577 335.199 42.3142 335.965 41.5472C336.732 40.7802 337.974 40.7802 338.741 41.5472C339.507 42.3142 339.507 43.5577 338.741 44.3247C337.974 45.0918 336.732 45.0918 335.965 44.3247Z" fill="#E0E0E0"/>
<path d="M336.999 42.2676L348.414 41.9189L348.448 43.0927L338.114 43.4065L336.999 61.4083L335.826 61.3386L336.999 42.2676Z" fill="#E0E0E0"/>
<path d="M547.378 357.887L553.277 263.914C555.472 229.015 527.777 199.496 492.824 199.496C460.693 199.496 434.159 224.599 432.359 256.697L426.17 366.452H538.251C543.082 366.452 547.065 362.698 547.367 357.875L547.378 357.887Z" fill="#407BFF"/>
<path opacity="0.1" d="M547.587 354.481L553.265 263.914C555.46 229.015 527.765 199.496 492.812 199.496C460.681 199.496 434.147 224.599 432.347 256.697L426.158 366.452H534.837C541.572 366.452 547.157 361.21 547.575 354.47L547.587 354.481Z" fill="black"/>
<path d="M529.193 366.463L535.626 263.926C537.821 229.026 510.126 199.508 475.185 199.508C443.053 199.508 416.519 224.61 414.72 256.709L408.53 366.463H529.193Z" fill="#407BFF"/>
<path d="M531.121 384.116H532.665C533.455 384.116 534.186 383.454 534.314 382.536L536.602 366.463H527.184L529.472 382.536C529.599 383.442 530.331 384.116 531.121 384.116Z" fill="#407BFF"/>
<path opacity="0.7" d="M531.121 384.116H532.665C533.455 384.116 534.186 383.454 534.314 382.536L536.602 366.463H527.184L529.472 382.536C529.599 383.442 530.331 384.116 531.121 384.116Z" fill="white"/>
<path d="M379.407 384.116H380.812C381.532 384.116 382.194 383.454 382.31 382.536L384.377 366.463H375.842L377.909 382.536C378.025 383.442 378.687 384.116 379.407 384.116Z" fill="#407BFF"/>
<path opacity="0.5" d="M379.407 384.116H380.812C381.532 384.116 382.194 383.454 382.31 382.536L384.377 366.463H375.842L377.909 382.536C378.025 383.442 378.687 384.116 379.407 384.116Z" fill="white"/>
<path d="M423.08 384.116H424.485C425.205 384.116 425.867 383.454 425.983 382.536L428.05 366.463H419.515L421.582 382.536C421.698 383.442 422.36 384.116 423.08 384.116Z" fill="#407BFF"/>
<path opacity="0.7" d="M423.08 384.116H424.485C425.205 384.116 425.867 383.454 425.983 382.536L428.05 366.463H419.515L421.582 382.536C421.698 383.442 422.36 384.116 423.08 384.116Z" fill="white"/>
<path d="M484.091 384.116H485.636C486.425 384.116 487.157 383.454 487.284 382.536L489.572 366.463H480.155L482.442 382.536C482.57 383.442 483.301 384.116 484.091 384.116Z" fill="#407BFF"/>
<path opacity="0.5" d="M484.091 384.116H485.636C486.425 384.116 487.157 383.454 487.284 382.536L489.572 366.463H480.155L482.442 382.536C482.57 383.442 483.301 384.116 484.091 384.116Z" fill="white"/>
<path d="M432.962 327.74H391.669L388.929 287.901L388.348 279.348L388.081 275.397C388 274.339 387.872 273.316 387.675 272.317C387.628 272.096 387.57 271.864 387.524 271.631C387.5 271.457 387.454 271.294 387.396 271.131C386.223 266.948 384.017 263.264 381.102 260.44C377.618 257.058 373.148 254.919 368.213 254.617H407.044C407.474 254.594 407.892 254.582 408.321 254.582C413.709 254.582 418.633 256.802 422.395 260.44C425.31 263.264 427.505 266.948 428.689 271.131C428.747 271.294 428.794 271.457 428.817 271.631C429.084 272.84 429.281 274.095 429.363 275.397L429.63 279.336L432.951 327.74H432.962Z" fill="#407BFF"/>
<path opacity="0.1" d="M432.962 327.74H391.669L388.929 287.901L388.348 279.348L388.081 275.397C388 274.339 387.872 273.316 387.675 272.317C387.628 272.096 387.57 271.864 387.524 271.631C387.5 271.457 387.454 271.294 387.396 271.131C386.223 266.948 384.017 263.264 381.102 260.44C377.618 257.058 373.148 254.919 368.213 254.617H407.044C407.474 254.594 407.892 254.582 408.321 254.582C413.709 254.582 418.633 256.802 422.395 260.44C425.31 263.264 427.505 266.948 428.689 271.131C428.747 271.294 428.794 271.457 428.817 271.631C429.084 272.84 429.281 274.095 429.363 275.397L429.63 279.336L432.951 327.74H432.962Z" fill="black"/>
<g opacity="0.1">
<path d="M465.686 306.519H482.268C486.297 306.519 489.572 309.076 489.572 312.225V322.045C489.572 325.195 486.309 327.752 482.268 327.752H465.686V306.519Z" fill="black"/>
</g>
<path d="M397.975 327.74H471.016C474.492 327.74 477.309 324.92 477.309 321.441V312.806C477.309 309.327 474.492 306.507 471.016 306.507H397.975C394.499 306.507 391.681 309.327 391.681 312.806V321.441C391.681 324.92 394.499 327.74 397.975 327.74Z" fill="#407BFF"/>
<path d="M570.231 278.128C570.231 289.761 561.8 299.442 550.71 301.336L546.426 357.956C546.054 362.768 542.57 366.463 538.39 366.463H492.847C497.027 366.463 500.511 362.779 500.882 357.956L503.17 327.728L505.156 301.324C512.529 300.058 518.719 295.374 522.04 288.936C522.26 288.529 522.458 288.099 522.644 287.657C523.956 284.74 524.676 281.521 524.676 278.116C524.676 276.466 524.502 274.862 524.176 273.316C524.049 272.689 523.898 272.05 523.724 271.445C522.888 268.633 521.552 266.053 519.81 263.787H519.799C517.639 260.951 514.852 258.661 511.658 257.069C508.488 255.477 504.923 254.582 501.149 254.582H546.693C549.108 254.582 551.442 254.954 553.648 255.64C554.891 256.023 556.075 256.511 557.213 257.081C560.407 258.673 563.182 260.963 565.353 263.787H565.365C568.407 267.773 570.231 272.735 570.231 278.128Z" fill="#407BFF"/>
<path opacity="0.1" d="M570.231 278.128C570.231 289.761 561.8 299.442 550.71 301.336L546.426 357.956C546.054 362.768 542.57 366.463 538.39 366.463H492.847C497.027 366.463 500.511 362.779 500.882 357.956L503.17 327.728L505.156 301.324C512.529 300.058 518.719 295.374 522.04 288.936C522.26 288.529 522.458 288.099 522.644 287.657C523.956 284.74 524.676 281.521 524.676 278.116C524.676 276.466 524.502 274.862 524.176 273.316C524.049 272.689 523.898 272.05 523.724 271.445C522.888 268.633 521.552 266.053 519.81 263.787H519.799C517.639 260.951 514.852 258.661 511.658 257.069C508.488 255.477 504.923 254.582 501.149 254.582H546.693C549.108 254.582 551.442 254.954 553.648 255.64C554.891 256.023 556.075 256.511 557.213 257.081C560.407 258.673 563.182 260.963 565.353 263.787H565.365C568.407 267.773 570.231 272.735 570.231 278.128Z" fill="black"/>
<path d="M524.687 278.128C524.687 289.761 517.035 299.442 506.99 301.336L503.112 357.956C502.775 362.779 499.617 366.463 495.819 366.463H374.193C370.407 366.463 367.249 362.768 366.9 357.956L363.01 301.243C353.163 299.174 345.72 289.61 345.72 278.128C345.72 273.049 347.183 268.354 349.645 264.519C351.665 261.381 354.371 258.801 357.518 257.069C360.386 255.466 363.626 254.571 367.051 254.571C372.439 254.571 377.363 256.79 381.125 260.428C384.04 263.24 386.235 266.936 387.419 271.12C387.466 271.283 387.524 271.445 387.535 271.62C387.814 272.828 387.988 274.083 388.081 275.373L388.36 279.313L391.669 327.717H478.343L481.931 275.373C482.442 267.982 486.042 261.823 491.035 258.906C494.182 256.419 497.979 254.884 502.078 254.617C502.508 254.571 502.926 254.559 503.356 254.559C506.677 254.559 509.824 255.396 512.622 256.918C512.715 256.953 512.797 257.011 512.889 257.058C515.781 258.662 518.312 260.951 520.275 263.763C523.027 267.75 524.676 272.712 524.676 278.104L524.687 278.128Z" fill="#407BFF"/>
<path opacity="0.1" d="M476.334 366.463H374.193C370.407 366.463 367.249 362.768 366.9 357.956L363.01 301.243C353.163 299.174 345.72 289.61 345.72 278.128C345.72 273.049 347.183 268.354 349.645 264.519C351.665 261.381 354.371 258.801 357.518 257.069C360.386 255.466 363.626 254.571 367.051 254.571C372.439 254.571 377.363 256.791 381.125 260.428C384.04 263.24 386.235 266.936 387.419 271.12C387.466 271.283 387.524 271.445 387.535 271.62C387.814 272.828 387.988 274.083 388.081 275.373L388.36 279.313L391.669 327.717H478.343L476.334 366.452V366.463Z" fill="white"/>
<path d="M463.084 205.435C461.064 206.55 459.218 207.561 457.313 208.538C455.409 209.514 453.47 210.443 451.542 211.338C447.64 213.128 443.692 214.813 439.616 216.301C435.517 217.835 431.348 219.148 427.121 220.264C422.72 221.449 418.238 222.251 413.698 222.669L412.745 222.762L412.281 222.727C408.182 222.251 404.547 221.507 400.901 220.752C397.255 219.996 393.643 219.136 390.067 218.23C386.49 217.323 382.937 216.37 379.395 215.348C375.853 214.325 372.312 213.268 368.805 212.07L370.419 204.005C377.723 204.482 385.015 205.214 392.238 205.923L403.026 207.003C406.579 207.341 410.214 207.654 413.396 207.771L411.991 207.805C415.637 207.155 419.225 206.248 422.744 205.086C426.39 203.889 430.024 202.599 433.647 201.03C437.27 199.461 440.882 197.869 444.47 196.172C446.293 195.335 448.081 194.441 449.823 193.581C451.565 192.709 453.423 191.779 455.014 190.954L463.108 205.458L463.084 205.435Z" fill="#263238"/>
<path opacity="0.1" d="M463.084 205.435C461.064 206.55 459.218 207.561 457.313 208.538C455.409 209.514 453.47 210.443 451.542 211.338C447.64 213.128 443.692 214.813 439.616 216.301C435.517 217.835 431.348 219.148 427.121 220.264C422.72 221.449 418.238 222.251 413.698 222.669L412.745 222.762L412.281 222.727C408.182 222.251 404.547 221.507 400.901 220.752C397.255 219.996 393.643 219.136 390.067 218.23C386.49 217.323 382.937 216.37 379.395 215.348C375.853 214.325 372.312 213.268 368.805 212.07L370.419 204.005C377.723 204.482 385.015 205.214 392.238 205.923L403.026 207.003C406.579 207.341 410.214 207.654 413.396 207.771L411.991 207.805C415.637 207.155 419.225 206.248 422.744 205.086C426.39 203.889 430.024 202.599 433.647 201.03C437.27 199.461 440.882 197.869 444.47 196.172C446.293 195.335 448.081 194.441 449.823 193.581C451.565 192.709 453.423 191.779 455.014 190.954L463.108 205.458L463.084 205.435Z" fill="black"/>
<path d="M368.874 199.601C366.157 197.648 363.254 196.858 363.254 196.858L360.246 208.608L369.258 212.396L370.279 211.141C373.171 207.596 372.59 202.274 368.874 199.601Z" fill="#FFC3BD"/>
<path d="M360.246 208.607L363.254 196.858L354.847 192.267L352.315 200.542L360.246 208.607Z" fill="#FFC3BD"/>
<path opacity="0.2" d="M434.809 217.324H435.134L435.273 217.335C439.709 216.859 452.738 214.662 462.179 205.353C460.762 202.634 458.834 200.53 456.477 200.054C449.974 198.869 442.008 203.529 434.797 217.324H434.809Z" fill="black"/>
<path d="M442.438 278.116C453.562 248.051 446.247 220.403 447.64 205.109C448.36 197.369 454.097 191.024 461.726 189.559C469.332 188.083 478.714 186.445 487.679 185.236C488.538 185.12 489.409 185.062 490.269 185.073C499.965 185.201 507.71 193.174 507.583 202.878C506.793 248.237 492.278 278.116 492.278 278.116L468.832 278.011L442.438 278.116Z" fill="#407BFF"/>
<path opacity="0.8" d="M442.438 278.116C453.562 248.051 446.247 220.403 447.64 205.109C448.36 197.369 454.097 191.024 461.726 189.559C469.332 188.083 478.714 186.445 487.679 185.236C488.538 185.12 489.409 185.062 490.269 185.073C499.965 185.201 507.71 193.174 507.583 202.878C506.793 248.237 492.278 278.116 492.278 278.116L468.832 278.011L442.438 278.116Z" fill="white"/>
<path d="M353.465 380.712L350.492 400.271H359.933L366.145 380.712H353.465Z" fill="#FFC3BD"/>
<path d="M349.285 395.912L361.907 395.622C362.348 395.598 362.697 395.912 362.697 396.319L362.72 405.593C362.662 406.604 361.733 407.452 360.641 407.487C356.252 407.522 354.162 407.324 348.611 407.452C342.666 407.429 336.766 407.046 330.949 406.29C326.455 405.523 327.662 401.293 329.706 401.223C338.892 400.886 344.013 398.969 347.31 396.598C347.879 396.168 348.588 395.924 349.285 395.912Z" fill="#263238"/>
<path opacity="0.2" d="M352.269 388.556L353.465 380.712H366.146L363.092 390.485L352.269 388.556Z" fill="black"/>
<path d="M436.62 271.085C436.62 271.085 359.805 271.852 358.621 296.199C356.925 331.203 351.015 384.57 351.015 384.57L365.507 388.556C365.507 388.556 386.165 335.643 386.978 308.297C408.577 303.986 464.129 308.297 470.656 294.096C473.849 286.704 474.697 278.802 473.117 271.085H436.632H436.62Z" fill="#407BFF"/>
<path opacity="0.6" d="M436.62 271.085C436.62 271.085 359.805 271.852 358.621 296.199C356.925 331.203 351.015 384.57 351.015 384.57L365.507 388.556C365.507 388.556 386.165 335.643 386.978 308.297C408.577 303.986 464.129 308.297 470.656 294.096C473.849 286.704 474.697 278.802 473.117 271.085H436.632H436.62Z" fill="black"/>
<path d="M421.048 388.265L426.169 401.549H436.527L432.962 387.58L421.048 388.265Z" fill="#FFC3BD"/>
<path opacity="0.2" d="M433.926 391.357L431.917 381.141L418.83 382.768L422.186 391.647L433.926 391.357Z" fill="black"/>
<path d="M423.359 397.144H436.574C437.038 397.121 437.422 397.458 437.445 397.9C437.445 397.9 437.445 397.9 437.445 397.911L438.095 407.825C438.095 408.905 437.178 409.8 436.028 409.812C431.43 409.742 429.223 409.475 423.406 409.475C419.841 409.475 412.618 409.824 407.683 409.824C402.747 409.824 402.887 405.198 404.977 404.815C414.371 402.932 418.006 400.34 421.327 397.853C421.908 397.412 422.616 397.156 423.359 397.144Z" fill="#263238"/>
<path d="M457.313 271.085C457.313 271.085 387.651 275.815 389.358 300.151C391.228 326.787 419.132 388.556 419.132 388.556H433.218C433.218 388.556 423.858 332.494 419.608 305.357C439.256 305.357 484.799 308.321 491.337 294.084C494.53 286.693 495.378 278.779 493.787 271.073H457.325L457.313 271.085Z" fill="#407BFF"/>
<path opacity="0.5" d="M457.313 271.085C457.313 271.085 387.651 275.815 389.358 300.151C391.228 326.787 419.132 388.556 419.132 388.556H433.218C433.218 388.556 423.858 332.494 419.608 305.357C439.256 305.357 484.799 308.321 491.337 294.084C494.53 286.693 495.378 278.779 493.787 271.073H457.325L457.313 271.085Z" fill="black"/>
<path d="M467.869 172.546C469.471 178.752 469.982 186.468 461.319 189.688C458.916 193.523 457.743 197.555 466.998 196.126C474.36 195.173 481.072 191.373 485.682 185.55C480.143 180.704 481.153 165.805 482.558 157.403L467.88 172.557L467.869 172.546Z" fill="#FFC3BD"/>
<path d="M466.882 183.83C458.939 185.201 452.389 191.349 448.883 198.613C445.376 205.876 444.528 214.151 444.598 222.228C444.667 230.293 445.585 238.359 445.376 246.424C445.132 255.744 442.879 262.311 439.674 271.073C439.674 273.154 442.821 274.327 445.492 274.874C451.042 262.752 454.689 251.165 454.306 237.836C454.027 228.166 453.887 217.149 455.467 207.608C457.023 198.206 468.438 185.631 467.892 183.911L466.882 183.842V183.83Z" fill="#263238"/>
<path opacity="0.3" d="M474.627 177.09C472.746 178.322 470.516 178.984 468.751 178.519C468.763 177.008 468.658 175.498 468.426 174.01L478.041 166.107C478.25 167.13 478.389 168.176 478.447 169.222C478.622 172.325 477.228 175.393 474.627 177.101V177.09Z" fill="black"/>
<path d="M460.251 135.845C450.079 141.586 449.974 157.856 453.109 167.246C454.003 170.024 455.734 172.453 458.056 174.196C464.269 178.868 473.094 177.613 477.762 171.384C482.732 165.096 482.012 158.751 481.768 147.827C481.501 136.926 470.412 130.092 460.239 135.833L460.251 135.845Z" fill="#FFC3BD"/>
<path opacity="0.2" d="M463.526 165.061C460.251 166.468 456.663 168.292 453.353 167.897C454.294 170.396 455.92 172.592 458.068 174.208C464.28 178.879 473.106 177.624 477.774 171.395C481.838 166.247 483.115 162.76 481.919 153.37C475.579 160.831 470.528 162.063 463.526 165.061Z" fill="black"/>
<path d="M473.35 139.459C471.155 142.829 471.608 147.675 474.383 150.581C475.3 151.545 476.427 152.289 477.309 153.289C478.668 154.811 479.411 156.891 479.307 158.937C479.655 156.275 482.14 154.056 484.823 154.021C483.441 158.286 482.07 162.539 480.689 166.805C486.158 164.329 490.129 158.832 490.78 152.859C491.662 144.642 481.49 126.966 473.361 139.459H473.35Z" fill="#263238"/>
<path d="M449.637 140.087C448.906 140.982 448.221 141.969 448.023 143.108C447.814 144.247 448.232 145.572 449.243 146.118C450.067 146.56 451.077 146.409 452.006 146.246C455.095 145.712 458.184 145.165 461.273 144.631C466.591 143.701 471.91 142.783 477.158 141.516C479.516 140.947 482.163 140.063 483.092 137.82C486.1 130.557 473.245 129.616 468.96 129.825C461.598 130.173 454.201 134.404 449.637 140.075V140.087Z" fill="#263238"/>
<path d="M483.429 152.208C480.375 152.893 479.086 157.275 479.167 160.087C479.191 163.271 481.525 165.352 484.172 163.434C486.17 161.947 487.54 159.75 487.981 157.298C488.527 154.276 486.471 151.522 483.417 152.208H483.429Z" fill="#FFC3BD"/>
<path d="M461.935 163.307C461.935 163.307 460.193 164.446 458.776 163.783C459.949 161.157 459.798 161.749 460.158 157.275L461.946 163.295L461.935 163.307Z" fill="#ED847E"/>
<path d="M467.288 148.757C466.417 147.78 464.037 147.408 462.748 147.594C462.748 147.594 462.725 147.594 462.713 147.594C462.446 147.641 462.19 147.455 462.144 147.176C462.109 146.885 462.295 146.618 462.585 146.56C464.211 146.316 466.917 146.804 468.02 148.024C468.02 148.024 468.02 148.024 468.02 148.036C468.206 148.257 468.194 148.582 467.973 148.768C467.904 148.826 467.834 148.884 467.741 148.919C467.567 148.954 467.393 148.884 467.277 148.745L467.288 148.757Z" fill="#263238"/>
<path d="M452.262 150.988C452.262 150.988 452.238 150.976 452.227 150.964C451.995 150.813 451.937 150.499 452.088 150.279C452.912 148.791 454.387 147.78 456.071 147.548C456.082 147.548 456.094 147.548 456.105 147.548C456.372 147.548 456.593 147.768 456.593 148.036C456.593 148.326 456.384 148.57 456.094 148.594C454.77 148.803 453.609 149.616 452.958 150.802C452.866 150.953 452.715 151.046 452.54 151.069C452.436 151.069 452.343 151.057 452.25 150.999L452.262 150.988Z" fill="#263238"/>
<path d="M461.018 168.025C462.283 169.512 464.095 172.499 464.095 172.499C464.339 172.406 464.583 172.302 464.815 172.197C468.089 170.779 469.018 168.803 469.053 167.049C469.076 166.084 468.809 165.177 468.531 164.48C468.206 163.667 467.822 163.132 467.822 163.132C466.649 165.143 463.735 166.746 462.132 167.525C461.47 167.862 461.029 168.025 461.029 168.025H461.018Z" fill="#2E353A"/>
<path d="M462.121 167.525L462.585 168.176C462.852 168.548 463.363 168.687 463.781 168.49C466.197 167.351 467.799 166.142 468.38 164.852C468.496 164.608 468.461 164.318 468.345 164.062C468.066 163.481 467.811 163.121 467.811 163.121C466.638 165.131 463.723 166.735 462.121 167.514V167.525Z" fill="white"/>
<path d="M464.815 172.197C468.089 170.779 469.018 168.803 469.053 167.049C467.962 167.583 466.719 168.373 465.813 169.501C465.117 170.349 464.873 171.314 464.815 172.197Z" fill="#DE5753"/>
<path d="M455.989 154.672C455.42 154.776 455.095 155.578 455.269 156.462C455.444 157.345 456.047 157.961 456.616 157.844C457.185 157.728 457.51 156.938 457.336 156.055C457.185 155.195 456.558 154.567 455.989 154.672Z" fill="#263238"/>
<path d="M465.953 153.021C465.384 153.126 465.058 153.928 465.233 154.811C465.407 155.683 466.011 156.31 466.58 156.194C467.149 156.078 467.474 155.288 467.3 154.404C467.149 153.544 466.522 152.917 465.953 153.021Z" fill="#263238"/>
<path opacity="0.9" d="M451.6 159.344L458.927 157.693L459.043 160.808L452.239 162.435L451.6 159.344Z" fill="white"/>
<g opacity="0.8">
<path opacity="0.9" d="M461.157 157.205L462.028 160.064L471.433 158.042L470.876 154.73L461.157 157.205Z" fill="white"/>
</g>
<path d="M458.974 158.844L458.927 157.694L461.157 157.206L461.493 158.286L458.974 158.844Z" fill="#263238"/>
<path d="M456.303 276.779C456.303 276.779 469.529 281.904 472.548 282.916C476.113 284.101 479.725 285.298 483.441 285.414C487.157 285.53 491.047 284.426 493.741 281.567C496.899 278.197 497.875 273.084 498.699 268.284C501.126 254.187 503.553 240.09 505.969 225.993C507.165 219.043 510.184 208.596 509.928 204.621C509.452 197.299 504.796 188.665 492.94 183.9C488.33 182.052 483.789 182.761 479.899 187.409C477.577 190.187 470.818 196.846 469.158 208.596C467.822 218.009 465.767 230.2 465.895 239.765C466.057 252.316 461.064 268.168 456.303 276.768V276.779Z" fill="#263238"/>
<path d="M509.29 200.762C510.637 213.012 503.867 243.89 502.566 245.75C497.015 263.67 481.78 254.013 479.562 253.187C475.719 251.77 471.805 248.992 468.147 247.144C461.052 243.623 454.329 240.776 447.733 236.383L451.449 229.038C458.672 231.513 479.156 236.801 482.523 237.626C483.987 238.01 489.688 241.008 489.63 237.057C490.443 235.743 491.558 210.164 494.008 201.134C494.287 200.112 494.774 199.182 495.436 198.357L495.657 198.078C499.617 193.115 507.513 194.684 509.29 200.774V200.762Z" fill="#263238"/>
<path opacity="0.1" d="M509.29 200.762C510.637 213.012 503.867 243.89 502.566 245.75C497.015 263.67 481.78 254.013 479.562 253.187C475.719 251.77 471.805 248.992 468.147 247.144C461.052 243.623 454.329 240.776 447.733 236.383L451.449 229.038C458.672 231.513 479.156 236.801 482.523 237.626C483.987 238.01 489.688 241.008 489.63 237.057C490.443 235.743 491.558 210.164 494.008 201.134C494.287 200.112 494.774 199.182 495.436 198.357L495.657 198.078C499.617 193.115 507.513 194.684 509.29 200.774V200.762Z" fill="white"/>
<path d="M448.534 247.017H414.173L410.248 202.134H444.621L448.534 247.017Z" fill="#263238"/>
<path opacity="0.5" d="M448.534 247.017H414.173L410.248 202.134H444.621L448.534 247.017Z" fill="white"/>
<path d="M447.326 246.796H412.954L409.029 201.902H443.401L447.326 246.796Z" fill="#407BFF"/>
<path opacity="0.8" d="M447.326 246.796H412.954L409.029 201.902H443.401L447.326 246.796Z" fill="white"/>
<path d="M433.694 204.714H419.236L418.749 199.101H433.206L433.694 204.714Z" fill="#407BFF"/>
<path d="M418.749 199.101L420.165 198.613H435.134L435.343 200.995L434.228 202.285L434.158 204.238L433.694 204.714L433.206 199.101H418.749Z" fill="#407BFF"/>
<path opacity="0.5" d="M418.749 199.101L420.165 198.613H435.134L435.343 200.995L434.228 202.285L434.158 204.238L433.694 204.714L433.206 199.101H418.749Z" fill="black"/>
<path d="M454.189 231.467L454.979 235.662C453.121 240.497 442.461 239.219 442.461 239.219L442.438 226.818L451.832 229.003C453.028 229.282 453.946 230.247 454.178 231.455L454.189 231.467Z" fill="#FFC3BD"/>
<path d="M442.438 226.83L442.496 239.254L433.055 239.486L430.895 228.55L442.438 226.83Z" fill="#FFC3BD"/>
<path d="M478.343 327.74L481.931 275.397C482.442 268.005 486.042 261.846 491.035 258.929C494.182 256.442 497.979 254.908 502.078 254.64C502.508 254.594 502.926 254.582 503.356 254.582C506.677 254.582 509.824 255.419 512.622 256.941C512.715 256.976 512.797 257.034 512.889 257.081C515.781 258.685 518.312 260.974 520.275 263.787C523.027 267.773 524.676 272.735 524.676 278.128C524.676 289.761 517.023 299.442 506.979 301.336L503.1 357.956C502.764 362.779 499.605 366.463 495.808 366.463H476.334L478.343 327.728V327.74Z" fill="#407BFF"/>
<path opacity="0.1" d="M478.343 327.74L481.931 275.397C482.442 268.005 486.042 261.846 491.035 258.929C494.182 256.442 497.979 254.908 502.078 254.64C502.508 254.594 502.926 254.582 503.356 254.582C506.677 254.582 509.824 255.419 512.622 256.941C512.715 256.976 512.797 257.034 512.889 257.081C515.781 258.685 518.312 260.974 520.275 263.787C523.027 267.773 524.676 272.735 524.676 278.128C524.676 289.761 517.023 299.442 506.979 301.336L503.1 357.956C502.764 362.779 499.605 366.463 495.808 366.463H476.334L478.343 327.728V327.74Z" fill="white"/>
<path d="M301.14 84.4309V133.021C301.14 135.554 299.085 137.611 296.553 137.611H246.772L229.005 151.359C228.424 151.801 227.704 152.045 226.973 152.045C225.092 152.045 223.571 150.523 223.571 148.64V137.611H220.795C218.264 137.611 216.208 135.554 216.208 133.021V84.4192C216.208 81.8973 218.275 79.852 220.795 79.8636H296.577C299.097 79.8636 301.14 81.909 301.14 84.4309Z" stroke="#407BFF" stroke-width="0.791024" stroke-miterlimit="10"/>
<path d="M254.575 73.0186H245.088V74.1807H254.575V73.0186Z" fill="#407BFF"/>
<path d="M210.193 86.7087H209.032V80.9792C209.032 76.5747 212.609 73.0068 217.01 73.0068H238.179V74.169H217.01C213.247 74.169 210.205 77.2138 210.193 80.9792V86.7087Z" fill="#407BFF"/>
<path d="M277.3 115.46C275.164 115.46 273.445 113.659 273.631 111.532C273.631 111.521 273.631 111.497 273.631 111.486C274.873 97.3191 286.091 96.0175 287.496 79.8984C287.902 75.273 286.207 73.5065 282.967 73.5065C279.727 73.5065 277.718 75.2614 277.324 79.8984L277.091 82.5597C276.871 85.0351 274.804 86.9411 272.319 86.9411C269.508 86.9411 267.302 84.5238 267.546 81.723L267.651 80.5492C268.556 70.1711 274.165 64.2441 284.07 64.2441C293.975 64.2441 298.539 70.1711 297.633 80.5492C296.159 97.4121 283.908 100.004 282.863 111.858C282.863 111.916 282.863 111.974 282.851 112.032C282.7 113.961 281.121 115.472 279.181 115.472H277.312L277.3 115.46ZM282.328 125.316V125.35C282.108 127.872 279.994 129.813 277.463 129.813C274.595 129.813 272.342 127.349 272.597 124.502V124.467C272.818 121.945 274.931 120.004 277.463 120.004C280.331 120.004 282.584 122.468 282.328 125.316Z" fill="#407BFF"/>
<path d="M264.213 104.083H237.552C236.274 104.083 235.229 103.037 235.229 101.759C235.229 100.48 236.274 99.4343 237.552 99.4343H264.213C265.491 99.4343 266.536 100.48 266.536 101.759C266.536 103.037 265.491 104.083 264.213 104.083Z" fill="#407BFF"/>
<path d="M260.521 113.276H237.552C236.274 113.276 235.229 112.23 235.229 110.952C235.229 109.673 236.274 108.627 237.552 108.627H260.521C261.798 108.627 262.843 109.673 262.843 110.952C262.843 112.23 261.798 113.276 260.521 113.276Z" fill="#407BFF"/>
<path d="M256.828 122.48H237.552C236.274 122.48 235.229 121.434 235.229 120.156C235.229 118.877 236.274 117.831 237.552 117.831H256.828C258.105 117.831 259.15 118.877 259.15 120.156C259.15 121.434 258.105 122.48 256.828 122.48Z" fill="#407BFF"/>
<path d="M202.181 312.109H185.203C181.081 312.109 177.737 314.724 177.737 317.943V327.984C177.737 331.203 181.081 333.818 185.203 333.818H202.181V312.097V312.109Z" fill="#407BFF"/>
<path d="M123.334 359.397L117.435 265.425C115.24 230.526 142.935 201.007 177.888 201.007C210.007 201.007 236.553 226.109 238.353 258.208L244.542 367.962H132.461C127.63 367.962 123.647 364.209 123.345 359.386L123.334 359.397Z" fill="#407BFF"/>
<path opacity="0.1" d="M123.113 355.992L117.435 265.425C115.24 230.526 142.935 201.007 177.888 201.007C210.007 201.007 236.553 226.109 238.353 258.208L244.542 367.962H135.863C129.128 367.962 123.543 362.721 123.125 355.981L123.113 355.992Z" fill="black"/>
<path d="M141.518 367.962L135.085 265.425C132.89 230.526 160.586 201.007 195.538 201.007C227.658 201.007 254.203 226.109 256.003 258.208L262.193 367.962H141.53H141.518Z" fill="#407BFF"/>
<path d="M139.591 385.616H138.046C137.257 385.616 136.525 384.953 136.397 384.035L134.11 367.962H143.527L141.24 384.035C141.112 384.942 140.38 385.616 139.591 385.616Z" fill="#407BFF"/>
<path opacity="0.7" d="M139.591 385.616H138.046C137.257 385.616 136.525 384.953 136.397 384.035L134.11 367.962H143.527L141.24 384.035C141.112 384.942 140.38 385.616 139.591 385.616Z" fill="white"/>
<path d="M291.305 385.616H289.899C289.179 385.616 288.518 384.953 288.401 384.035L286.334 367.962H294.869L292.802 384.035C292.686 384.942 292.024 385.616 291.305 385.616Z" fill="#407BFF"/>
<path opacity="0.5" d="M291.305 385.616H289.899C289.179 385.616 288.518 384.953 288.401 384.035L286.334 367.962H294.869L292.802 384.035C292.686 384.942 292.024 385.616 291.305 385.616Z" fill="white"/>
<path d="M247.631 385.616H246.226C245.506 385.616 244.844 384.953 244.728 384.035L242.661 367.962H251.196L249.129 384.035C249.013 384.942 248.351 385.616 247.631 385.616Z" fill="#407BFF"/>
<path opacity="0.7" d="M247.631 385.616H246.226C245.506 385.616 244.844 384.953 244.728 384.035L242.661 367.962H251.196L249.129 384.035C249.013 384.942 248.351 385.616 247.631 385.616Z" fill="white"/>
<path d="M186.62 385.616H185.076C184.286 385.616 183.555 384.953 183.427 384.035L181.139 367.962H190.557L188.269 384.035C188.141 384.942 187.41 385.616 186.62 385.616Z" fill="#407BFF"/>
<path opacity="0.5" d="M186.62 385.616H185.076C184.286 385.616 183.555 384.953 183.427 384.035L181.139 367.962H190.557L188.269 384.035C188.141 384.942 187.41 385.616 186.62 385.616Z" fill="white"/>
<path d="M237.749 329.239H279.042L281.783 289.4L282.363 280.847L282.63 276.896C282.712 275.838 282.839 274.815 283.037 273.816C283.083 273.595 283.141 273.363 283.188 273.13C283.211 272.956 283.257 272.793 283.315 272.63C284.488 268.447 286.695 264.763 289.609 261.939C293.093 258.557 297.564 256.418 302.499 256.116H263.668C263.238 256.093 262.82 256.081 262.39 256.081C257.002 256.081 252.079 258.301 248.316 261.939C245.401 264.763 243.207 268.447 242.022 272.63C241.964 272.793 241.918 272.956 241.895 273.13C241.628 274.339 241.43 275.594 241.349 276.896L241.082 280.835L237.761 329.239H237.749Z" fill="#407BFF"/>
<path opacity="0.1" d="M237.749 329.239H279.042L281.783 289.4L282.363 280.847L282.63 276.896C282.712 275.838 282.839 274.815 283.037 273.816C283.083 273.595 283.141 273.363 283.188 273.13C283.211 272.956 283.257 272.793 283.315 272.63C284.488 268.447 286.695 264.763 289.609 261.939C293.093 258.557 297.564 256.418 302.499 256.116H263.668C263.238 256.093 262.82 256.081 262.39 256.081C257.002 256.081 252.079 258.301 248.316 261.939C245.401 264.763 243.207 268.447 242.022 272.63C241.964 272.793 241.918 272.956 241.895 273.13C241.628 274.339 241.43 275.594 241.349 276.896L241.082 280.835L237.761 329.239H237.749Z" fill="black"/>
<g opacity="0.1">
<path d="M205.026 308.018H188.443C184.414 308.018 181.139 310.575 181.139 313.724V323.544C181.139 326.694 184.402 329.251 188.443 329.251H205.026V308.018Z" fill="black"/>
</g>
<path d="M272.737 308.018H199.696C196.22 308.018 193.402 310.838 193.402 314.317V322.952C193.402 326.431 196.22 329.251 199.696 329.251H272.737C276.213 329.251 279.031 326.431 279.031 322.952V314.317C279.031 310.838 276.213 308.018 272.737 308.018Z" fill="#407BFF"/>
<path d="M100.481 279.627C100.481 291.26 108.911 300.941 120.001 302.835L124.274 359.455C124.646 364.267 128.129 367.962 132.31 367.962H177.853C173.673 367.962 170.189 364.278 169.817 359.455L167.53 329.227L165.544 302.823C158.17 301.557 151.981 296.873 148.66 290.435C148.439 290.028 148.242 289.598 148.056 289.156C146.744 286.239 146.024 283.02 146.024 279.615C146.024 277.965 146.198 276.361 146.523 274.815C146.651 274.188 146.802 273.549 146.976 272.944C147.812 270.132 149.148 267.552 150.889 265.286H150.901C153.061 262.45 155.848 260.16 159.041 258.568C162.211 256.976 165.776 256.081 169.55 256.081H124.007C121.592 256.081 119.258 256.453 117.051 257.139C115.82 257.522 114.624 258.01 113.486 258.58C110.293 260.172 107.518 262.462 105.346 265.286H105.335C102.292 269.272 100.469 274.234 100.469 279.627H100.481Z" fill="#407BFF"/>
<path opacity="0.1" d="M100.481 279.627C100.481 291.26 108.911 300.941 120.001 302.835L124.274 359.455C124.646 364.267 128.129 367.962 132.31 367.962H177.853C173.673 367.962 170.189 364.278 169.817 359.455L167.53 329.227L165.544 302.823C158.17 301.557 151.981 296.873 148.66 290.435C148.439 290.028 148.242 289.598 148.056 289.156C146.744 286.239 146.024 283.02 146.024 279.615C146.024 277.965 146.198 276.361 146.523 274.815C146.651 274.188 146.802 273.549 146.976 272.944C147.812 270.132 149.148 267.552 150.889 265.286H150.901C153.061 262.45 155.848 260.16 159.041 258.568C162.211 256.976 165.776 256.081 169.55 256.081H124.007C121.592 256.081 119.258 256.453 117.051 257.139C115.82 257.522 114.624 258.01 113.486 258.58C110.293 260.172 107.518 262.462 105.346 265.286H105.335C102.292 269.272 100.469 274.234 100.469 279.627H100.481Z" fill="black"/>
<path d="M146.024 279.638C146.024 291.272 153.676 300.952 163.721 302.847L167.599 359.467C167.936 364.29 171.095 367.974 174.892 367.974H296.519C300.304 367.974 303.463 364.278 303.811 359.467L307.701 302.754C317.548 300.685 324.992 291.12 324.992 279.638C324.992 274.56 323.529 269.865 321.067 266.03C319.046 262.892 316.341 260.312 313.194 258.58C310.326 256.976 307.086 256.081 303.66 256.081C298.272 256.081 293.348 258.301 289.586 261.939C286.671 264.751 284.477 268.447 283.292 272.631C283.246 272.793 283.188 272.956 283.176 273.13C282.897 274.339 282.723 275.594 282.63 276.884L282.352 280.824L279.042 329.228H192.368L188.78 276.884C188.269 269.493 184.669 263.333 179.676 260.416C176.529 257.929 172.732 256.395 168.633 256.128C168.203 256.081 167.785 256.07 167.356 256.07C164.035 256.07 160.888 256.907 158.089 258.429C157.996 258.464 157.915 258.522 157.822 258.568C154.931 260.172 152.399 262.462 150.437 265.274C147.684 269.26 146.036 274.223 146.036 279.615L146.024 279.638Z" fill="#407BFF"/>
<path opacity="0.1" d="M194.366 367.974H296.507C300.292 367.974 303.451 364.278 303.799 359.467L307.689 302.754C317.537 300.685 324.98 291.12 324.98 279.638C324.98 274.56 323.517 269.864 321.055 266.029C319.035 262.892 316.329 260.312 313.182 258.58C310.314 256.976 307.074 256.081 303.648 256.081C298.26 256.081 293.337 258.301 289.574 261.939C286.66 264.751 284.465 268.447 283.281 272.63C283.234 272.793 283.176 272.956 283.164 273.13C282.886 274.339 282.712 275.594 282.619 276.884L282.34 280.824L279.03 329.227H192.357L194.366 367.962V367.974Z" fill="white"/>
<path d="M225.463 387.975L235.368 390.718L244.263 367.416L234.358 364.662L225.463 387.975Z" fill="#FFC3BD"/>
<path d="M239.804 387.626C239.038 386.603 237.888 385.941 236.634 385.697L226.427 383.709C225.951 383.593 225.475 383.872 225.324 384.337L222.165 393.646C221.794 394.703 222.351 395.877 223.408 396.249C223.431 396.249 223.454 396.261 223.478 396.272C227.24 397.76 229.783 397.249 235.67 398.387C239.293 399.096 246.911 401.502 251.997 401.304C257.083 401.095 257.072 396.063 254.935 395.691C247.341 394.494 241.535 389.939 239.804 387.638V387.626Z" fill="#263238"/>
<g opacity="0.2">
<path d="M244.263 367.416L239.677 379.433L229.771 376.679L234.347 364.662L244.263 367.416Z" fill="black"/>
</g>
<path d="M211.203 279.023C211.203 279.023 270.844 278.697 268.974 298.686C267.72 312.179 261.241 326.381 256.189 340.082C248.862 359.944 242.522 377.237 242.522 377.237L228.935 372.53C228.935 372.53 241.14 315.096 249.361 309.215H198.941C182.254 309.215 175.043 290.877 191.288 269.493C201.217 269.493 211.215 279.011 211.215 279.011L211.203 279.023Z" fill="#407BFF"/>
<path opacity="0.6" d="M211.203 279.022C211.203 279.022 270.844 278.697 268.974 298.686C269.903 311.098 242.522 377.248 242.522 377.248L228.935 372.541C228.935 372.541 241.14 315.107 249.361 309.227H198.941C182.254 309.227 175.043 290.888 191.288 269.504C201.217 269.504 211.215 279.022 211.215 279.022H211.203Z" fill="black"/>
<path d="M253.263 242.682C245.924 249.399 231.513 233.512 229.191 231.63C224.221 227.574 209.601 213.918 210.379 209.177C212.655 195.219 235.554 214.988 242.15 228.608L253.263 242.682Z" fill="#263238"/>
<path d="M189.036 200.716C185.354 201.495 181.371 200.17 178.794 202.901C176.204 205.632 175.124 209.467 174.741 213.221C174.218 218.428 174.88 223.669 175.554 228.864C176.367 235.151 177.168 241.45 177.981 247.737C178.538 252.037 178.271 259.033 177.388 263.275V263.31C177.168 264.391 177.795 265.576 178.805 266.018C178.805 266.018 207.36 267.006 215.662 266.692C220.075 266.529 217.044 254.908 218.403 248.132C218.705 246.633 221.654 240.416 222.096 238.823C224.151 231.328 222.792 226.168 220.888 218.637C219.506 213.163 218.937 205.272 216.15 204.668C211.192 203.587 199.289 198.543 189.036 200.728V200.716Z" fill="#407BFF"/>
<path opacity="0.8" d="M189.036 200.716C185.354 201.495 181.371 200.17 178.794 202.901C176.204 205.632 175.124 209.467 174.741 213.221C174.218 218.428 174.88 223.669 175.554 228.864C176.367 235.151 177.168 241.45 177.981 247.737C178.538 252.037 178.271 259.033 177.388 263.275V263.31C177.168 264.391 177.795 265.576 178.805 266.018C178.805 266.018 207.36 267.006 215.662 266.692C220.075 266.529 217.044 254.908 218.403 248.132C218.705 246.633 221.654 240.416 222.096 238.823C224.151 231.328 222.792 226.168 220.888 218.637C219.506 213.163 218.937 205.272 216.15 204.668C211.192 203.587 199.289 198.543 189.036 200.728V200.716Z" fill="white"/>
<path d="M184.96 206.074C184.577 205.493 174.544 197.032 172.709 206.806C170.166 220.415 175.426 233.803 175.426 233.803C175.426 233.803 176.634 248.527 180.907 250.003C185.18 251.479 189.245 251.84 190.685 249.318C192.124 246.796 192.124 243.03 192.124 243.03C192.124 243.03 191.614 216.243 184.96 206.074Z" fill="#263238"/>
<path d="M191.915 182.04C192.961 188.304 193.831 199.752 189.349 203.784C189.349 203.784 200.288 209.514 207.453 219.508C211.598 216.231 211.621 212.071 210.774 208.933C210.112 206.504 208.37 204.575 206.164 203.366C201.914 201.03 202.32 196.649 203.493 192.535L191.915 182.029V182.04Z" fill="#E8BFBF"/>
<path opacity="0.2" d="M193.344 192.674L197.42 194.243C199.161 194.917 201.031 195.219 202.901 195.126C202.796 196.033 202.436 197.927 202.901 198.996C200.381 199.914 196.386 198.706 194.795 196.393C194.133 195.486 193.646 193.743 193.344 192.662V192.674Z" fill="black"/>
<path d="M294.521 367.927H305.622L293.999 340.071L286.474 352.866L294.521 367.927Z" fill="#FFC3BD"/>
<path d="M304.705 365.301L291.688 362.338C291.223 362.21 290.747 362.466 290.596 362.919L286.962 372.937C286.66 373.994 287.264 375.11 288.32 375.412C288.343 375.412 288.367 375.424 288.378 375.424C292.942 376.377 295.183 376.609 300.908 377.911C304.438 378.713 313.356 381.06 318.21 382.164C323.076 383.268 324.353 378.503 322.414 377.597C313.728 373.576 309.025 369.729 306.505 366.452C306.052 365.871 305.413 365.452 304.694 365.29L304.705 365.301Z" fill="#263238"/>
<g opacity="0.2">
<path d="M293.999 340.082L298.945 351.948L288.959 357.526L286.474 352.877L293.999 340.082Z" fill="black"/>
</g>
<path d="M177.168 266.111L175.972 269.899C175.809 270.19 176.146 270.504 176.645 270.515L219.657 271.817C220.04 271.817 220.365 271.654 220.4 271.398L220.9 267.598C220.9 267.331 220.609 267.098 220.191 267.087L177.923 265.808C177.632 265.762 177.354 265.878 177.168 266.111Z" fill="#263238"/>
<path d="M230.909 297.198C216.777 303.23 201.437 309.25 193.111 309.25C176.413 309.25 161.584 297.187 177.4 269.748C187.328 269.713 204.596 270.027 204.596 270.027C204.596 270.027 237.157 260.776 260.776 263.473C272.295 264.786 281.608 273.444 283.873 284.821C289.865 315.014 299.096 347.717 299.096 347.717L287.217 355.806C287.217 355.806 268.695 316.827 258.035 285.902C252.403 287.704 242.034 292.445 230.921 297.187L230.909 297.198Z" fill="#407BFF"/>
<path opacity="0.5" d="M283.873 284.833C281.608 273.456 272.295 264.798 260.776 263.485C237.157 260.788 204.596 270.039 204.596 270.039C204.596 270.039 187.329 269.725 177.4 269.76C161.329 297.106 176.425 309.262 193.111 309.262C201.449 309.262 216.777 303.23 230.909 297.21C242.022 292.469 252.392 287.739 258.024 285.926C268.684 316.851 287.205 355.83 287.205 355.83L299.085 347.741C299.085 347.741 289.853 315.038 283.861 284.845L283.873 284.833Z" fill="black"/>
<path d="M268.986 298.686C268.638 302.405 268.034 306.287 267.244 310.249C267.186 310.122 267.14 310.005 267.093 309.889C267.07 309.854 267.07 309.831 267.047 309.796C266.989 309.668 266.954 309.541 266.896 309.424C263.726 301.568 260.648 293.514 258.036 285.926C258.059 285.926 258.082 285.949 258.117 285.949C264.922 288.831 269.532 292.898 268.986 298.686Z" fill="#407BFF"/>
<path opacity="0.6" d="M268.986 298.686C268.638 302.405 268.034 306.287 267.244 310.249C267.186 310.122 267.14 310.005 267.093 309.889C267.07 309.854 267.07 309.831 267.047 309.796C266.989 309.668 266.954 309.541 266.896 309.424C263.726 301.568 260.648 293.514 258.036 285.926C258.059 285.926 258.082 285.949 258.117 285.949C264.922 288.831 269.532 292.898 268.986 298.686Z" fill="black"/>
<path d="M184.298 176.021C187.781 185.841 189.047 190.071 195.573 193.755C205.409 199.31 216.673 192.849 216.185 182.18C215.744 172.581 210.112 158.123 199.196 156.961C191.393 156.09 184.367 161.714 183.497 169.512C183.253 171.709 183.52 173.94 184.286 176.009L184.298 176.021Z" fill="#E8BFBF"/>
<path d="M201.937 174.742C202.181 175.602 202.796 176.102 203.33 175.939C203.864 175.777 204.073 175.01 203.864 174.184C203.655 173.359 203.017 172.836 202.471 172.987C201.937 173.138 201.704 173.929 201.937 174.742Z" fill="#263238"/>
<path d="M211.052 171.86C211.285 172.72 211.912 173.22 212.434 173.057C212.957 172.894 213.177 172.127 212.968 171.302C212.759 170.477 212.121 169.954 211.586 170.105C211.052 170.256 210.808 171.046 211.052 171.86Z" fill="#263238"/>
<path d="M211.354 170.233L213.143 169.106C213.143 169.106 212.597 170.919 211.354 170.233Z" fill="#263238"/>
<path d="M207.789 173.719C209.043 175.37 210.518 176.834 212.179 178.089C211.401 179.391 209.427 179.426 209.427 179.426L207.789 173.719Z" fill="#ED847E"/>
<path d="M177.888 182.563C178.434 184.388 179.328 186.143 179.502 188.037C179.839 191.779 176.796 195.51 173.069 195.94C176.274 196.893 180.048 195.184 181.453 192.151C180.57 194.487 178.747 196.451 176.483 197.52C179.711 197.578 182.928 196.033 184.902 193.464C184.356 194.882 183.798 196.288 183.253 197.706C185.993 196.056 188.292 193.65 189.814 190.826C190.441 189.676 190.905 188.153 190.092 187.13C189.361 186.201 187.99 186.178 186.794 186.154C185.61 186.131 184.193 185.852 183.752 184.748C183.334 183.691 184.112 182.54 184.971 181.785C185.831 181.029 186.864 180.332 187.178 179.239C187.398 178.461 187.212 177.636 187.015 176.845C186.492 174.707 185.97 172.557 185.447 170.419C185.262 169.663 185.076 168.896 184.646 168.257C182.312 164.782 179.734 169.884 178.875 171.616C177.214 174.974 176.819 178.972 177.888 182.575V182.563Z" fill="#263238"/>
<path d="M183.613 185.631C184.925 187.351 186.864 188.479 189.012 188.757C191.857 189.106 192.856 186.456 191.718 184.004C190.684 181.785 187.967 178.937 185.285 179.681C182.602 180.425 182.022 183.493 183.624 185.631H183.613Z" fill="#E8BFBF"/>
<path d="M202.088 167.723C202.053 167.943 201.879 168.118 201.658 168.153C199.301 168.594 197.989 171.407 197.977 171.43C197.861 171.686 197.547 171.802 197.292 171.686C197.036 171.569 196.92 171.256 197.036 171C197.141 170.895 198.581 167.676 201.461 167.13C201.739 167.083 202.006 167.269 202.064 167.548C202.088 167.606 202.099 167.665 202.088 167.723Z" fill="#263238"/>
<path d="M208.289 165.398C208.103 165.375 207.94 165.421 207.847 165.514C207.72 165.654 207.302 165.898 207.534 166.014C208.951 166.746 210.913 167.92 212.423 167.687C212.678 167.641 213.282 167.42 213.154 167.234C213.026 167.06 212.713 166.955 212.457 167.002C211.261 167.176 209.659 166.049 208.544 165.468C208.463 165.433 208.37 165.41 208.277 165.398H208.289Z" fill="#263238"/>
<path d="M202.25 173.103L204.039 171.976C204.039 171.976 203.47 173.789 202.25 173.103Z" fill="#263238"/>
<path d="M202.088 152.626C198.116 151.906 197.617 151.638 193.588 151.894C189.558 152.138 185.505 153.3 182.335 155.799C179.246 158.239 177.179 161.819 176.192 165.631C175.205 169.443 175.252 173.464 175.89 177.345C176.192 179.158 176.703 181.099 178.143 182.238C178.352 180.158 178.573 178.054 179.212 176.067C179.85 174.08 180.953 172.174 182.649 170.942C183.322 170.454 184.124 170.035 184.507 169.292C184.843 168.652 184.809 167.897 184.925 167.176C185.203 165.549 186.307 164.166 187.63 163.19C188.954 162.214 190.499 161.586 192.008 160.936C196.897 158.821 202.227 157.624 206.733 154.788C205.618 153.823 202.076 152.615 202.076 152.615L202.088 152.626Z" fill="#263238"/>
<path d="M181.824 168.176C182.881 169.454 184.356 170.384 185.97 170.756C187.898 171.198 192.717 171.093 193.007 170.582C193.355 169.977 191.59 164.666 189.639 164.341C191.068 165.538 192.554 166.77 194.354 167.27C196.154 167.769 199.185 167.525 200.392 167.246C201.403 167.014 199.127 162.784 197.466 161.575C202.471 162.621 207.754 163.818 211.447 167.363C215.244 171.012 216.638 176.59 216.452 181.843C218.171 180.495 219.193 178.31 219.134 176.125C220.923 181.541 220.377 187.689 217.66 192.709C222.99 188.34 224.975 180.704 223.57 173.952C222.165 167.2 217.787 161.354 212.411 157.043C207.813 153.359 202.239 150.604 196.351 150.465C188.583 150.279 174.276 159.076 181.824 168.176Z" fill="#263238"/>
<path d="M188.083 199.24C188.13 198.856 188.176 198.357 188.223 197.811C188.432 195.265 186.69 192.976 184.193 192.523C184.17 192.523 184.147 192.523 184.135 192.523C183.404 192.383 182.8 191.872 182.556 191.175C181.65 188.571 181.314 187.781 180.443 185.224C178.097 184.655 175.333 185.527 172.895 185.782C172.221 188.688 172.175 191.732 172.767 194.661C172.895 195.312 173.069 195.986 173.51 196.486C173.951 196.985 178.689 200.332 180.756 200.948C182.904 201.588 185.854 199.472 188.095 199.263L188.083 199.24Z" fill="#E8BFBF"/>
<path d="M181.046 200.995C181.046 200.995 174.648 242.31 181.244 248.597C185.122 252.293 188.455 250.259 190.557 247.947C192.113 246.227 192.821 243.891 192.577 241.578L188.084 199.24C188.084 199.24 183.648 196.66 181.046 200.995Z" fill="#E8BFBF"/>
<path d="M249.791 238.266C252.357 236.29 254.633 232.188 255.202 229.584C255.388 228.748 255.458 227.493 255.434 225.97C255.376 218.486 253.263 204.761 253.263 204.761L247.19 202.75C247.19 202.75 245.297 213.186 244.879 218.927C244.798 220.055 244.67 221.38 244.53 222.786C244.263 225.343 243.927 228.155 243.636 230.491L249.779 238.266H249.791Z" fill="#E8BFBF"/>
<path d="M253.263 242.682C255.121 240.973 255.446 238.905 256.41 234.5C257.327 230.34 256.294 225.249 255.434 225.981C255.353 226.04 255.272 226.167 255.202 226.342C253.727 229.828 247.991 226.772 246.365 225.028C245.727 224.343 244.972 223.587 244.542 222.797C244.147 222.088 244.02 221.368 244.496 220.682C242.731 219.95 241.314 226.9 242.162 228.608L242.591 229.898C243.288 231.99 244.38 233.942 245.785 235.639L248.978 239.486L253.275 242.682H253.263Z" fill="#263238"/>
<path d="M247.027 203.657L246.296 193.046C246.296 193.046 247.538 193.732 252.16 195.301C255.121 196.312 259.092 194.534 258.21 196.451C256.77 199.577 253.263 204.772 253.263 204.772L247.027 203.657Z" fill="#E8BFBF"/>
<path d="M246.307 193.035L250.836 182.401L256.781 186.038C258.419 189.595 258.221 196.44 258.221 196.44C258.221 196.44 249.988 196.812 246.307 193.035Z" fill="#E8BFBF"/>
<path d="M207.093 184.841C207.244 185.597 207.789 186.131 208.277 186.027C208.776 185.922 209.032 185.225 208.869 184.458C208.707 183.691 208.173 183.179 207.685 183.284C207.186 183.388 206.93 184.121 207.093 184.841Z" fill="#263238"/>
<path d="M192.368 329.239L188.78 276.896C188.269 269.504 184.669 263.345 179.676 260.428C176.529 257.941 172.732 256.407 168.633 256.139C168.203 256.093 167.785 256.081 167.355 256.081C164.034 256.081 160.887 256.918 158.089 258.44C157.996 258.475 157.915 258.533 157.822 258.58C154.93 260.184 152.399 262.473 150.436 265.286C147.684 269.272 146.035 274.234 146.035 279.627C146.035 291.26 153.688 300.941 163.732 302.835L167.611 359.455C167.948 364.278 171.106 367.962 174.903 367.962H194.377L192.368 329.227V329.239Z" fill="#407BFF"/>
<path opacity="0.1" d="M192.368 329.239L188.78 276.896C188.269 269.504 184.669 263.345 179.676 260.428C176.529 257.941 172.732 256.407 168.633 256.139C168.203 256.093 167.785 256.081 167.355 256.081C164.034 256.081 160.887 256.918 158.089 258.44C157.996 258.475 157.915 258.533 157.822 258.58C154.93 260.184 152.399 262.473 150.436 265.286C147.684 269.272 146.035 274.234 146.035 279.627C146.035 291.26 153.688 300.941 163.732 302.835L167.611 359.455C167.948 364.278 171.106 367.962 174.903 367.962H194.377L192.368 329.227V329.239Z" fill="white"/>
<path d="M331.17 424.78C352.68 424.78 370.117 420.316 370.117 414.809C370.117 409.302 352.68 404.838 331.17 404.838C309.66 404.838 292.222 409.302 292.222 414.809C292.222 420.316 309.66 424.78 331.17 424.78Z" fill="#263238"/>
<path opacity="0.3" d="M331.17 421.468C352.68 421.468 370.117 417.748 370.117 413.159C370.117 408.57 352.68 404.849 331.17 404.849C309.66 404.849 292.222 408.57 292.222 413.159C292.222 417.748 309.66 421.468 331.17 421.468Z" fill="white"/>
<path d="M334.386 413.147H327.953L320.521 332.935H341.818L334.386 413.147Z" fill="#263238"/>
<path d="M341.818 332.935C341.818 335.271 337.045 337.165 331.169 337.165C325.294 337.165 320.521 335.271 320.521 332.935C320.521 330.599 325.294 328.705 331.169 328.705C337.045 328.705 341.818 330.599 341.818 332.935Z" fill="#263238"/>
<path opacity="0.7" d="M341.818 332.935C341.818 335.271 337.045 337.165 331.169 337.165C325.294 337.165 320.521 335.271 320.521 332.935C320.521 330.599 325.294 328.705 331.169 328.705C337.045 328.705 341.818 330.599 341.818 332.935Z" fill="white"/>
<path opacity="0.7" d="M200.973 334.19C200.973 333.342 201.391 332.505 202.216 331.68C211.215 340.745 268.313 347.729 337.405 347.729C406.498 347.729 463.596 340.745 472.607 331.68C473.431 332.505 473.849 333.342 473.849 334.19C473.849 344.429 412.757 352.738 337.405 352.738C262.054 352.738 200.973 344.429 200.973 334.19Z" fill="white"/>
<path opacity="0.7" d="M202.216 336.503C211.215 327.438 268.313 320.465 337.405 320.465C406.498 320.465 463.596 327.438 472.607 336.503C463.596 345.567 406.498 352.552 337.405 352.552C268.313 352.552 211.215 345.567 202.216 336.503Z" fill="white"/>
<path opacity="0.7" d="M200.973 333.83C200.973 323.58 262.054 315.282 337.405 315.282C412.757 315.282 473.849 323.58 473.849 333.83C473.849 334.678 473.431 335.515 472.607 336.328C463.596 327.264 406.498 320.291 337.405 320.291C268.313 320.291 211.215 327.264 202.216 336.328C201.391 335.515 200.973 334.678 200.973 333.83Z" fill="white"/>
<path d="M390.032 324.788L332.946 323.707C332.354 323.707 331.89 323.115 331.901 322.406C331.913 321.708 332.412 321.139 333.004 321.151L390.09 322.231C390.682 322.231 391.147 322.824 391.135 323.533C391.124 324.23 390.624 324.8 390.032 324.788Z" fill="#263238"/>
<path opacity="0.2" d="M390.032 324.788L332.946 323.707C332.354 323.707 331.89 323.115 331.901 322.406C331.913 321.708 332.412 321.139 333.004 321.151L390.09 322.231C390.682 322.231 391.147 322.824 391.135 323.533C391.124 324.23 390.624 324.8 390.032 324.788Z" fill="white"/>
<path d="M417.75 320.628L390.462 324.753C389.869 324.846 389.335 324.347 389.277 323.649C389.208 322.952 389.637 322.313 390.218 322.22L417.507 318.094C418.087 318.001 418.633 318.501 418.691 319.198C418.761 319.896 418.331 320.535 417.75 320.628Z" fill="#263238"/>
<path d="M417.507 318.094H359.817L333.004 321.162L388.534 322.208L417.507 318.094Z" fill="#263238"/>
<path opacity="0.6" d="M417.507 318.094H359.817L333.004 321.162L388.534 322.208L417.507 318.094Z" fill="white"/>
<path opacity="0.5" d="M417.75 320.628L390.462 324.753C389.869 324.846 389.335 324.347 389.277 323.649C389.208 322.952 389.637 322.313 390.218 322.22L417.507 318.094C418.087 318.001 418.633 318.501 418.691 319.198C418.761 319.896 418.331 320.535 417.75 320.628Z" fill="white"/>
<path d="M388.534 322.208L335.304 321.209C333.422 321.174 331.797 319.314 331.681 317.071L330.078 284.914C329.962 282.672 331.413 280.87 333.295 280.905L386.525 281.904C388.406 281.939 390.032 283.799 390.148 286.042L391.751 318.199C391.867 320.442 390.415 322.243 388.534 322.208Z" fill="#407BFF"/>
<path opacity="0.2" d="M388.534 322.208L335.304 321.209C333.422 321.174 331.797 319.314 331.681 317.071L330.078 284.914C329.962 282.672 331.413 280.87 333.295 280.905L386.525 281.904C388.406 281.939 390.032 283.799 390.148 286.042L391.751 318.199C391.867 320.442 390.415 322.243 388.534 322.208Z" fill="white"/>
<path d="M386.978 322.045L333.748 321.046C331.866 321.011 330.241 319.152 330.124 316.909L328.522 284.752C328.406 282.509 329.857 280.708 331.739 280.742L384.969 281.742C386.85 281.777 388.476 283.636 388.592 285.879L390.195 318.036C390.311 320.279 388.859 322.08 386.978 322.045Z" fill="#407BFF"/>
<path opacity="0.6" d="M386.978 322.045L333.748 321.046C331.866 321.011 330.241 319.152 330.124 316.909L328.522 284.752C328.406 282.509 329.857 280.708 331.739 280.742L384.969 281.742C386.85 281.777 388.476 283.636 388.592 285.879L390.195 318.036C390.311 320.279 388.859 322.08 386.978 322.045Z" fill="white"/>
<path d="M352.304 300.847C352.571 303.974 355.323 306.495 358.447 306.495C361.57 306.495 363.87 303.962 363.603 300.847C363.324 297.721 360.583 295.199 357.46 295.199C354.336 295.199 352.037 297.733 352.304 300.847Z" fill="white"/>
</g>
<rect x="44.8765" y="143.571" width="110.743" height="27.6859" rx="13.8429" fill="white" stroke="#407BFF" stroke-width="0.791024"/>
<path d="M76.4123 153.809C75.9797 153.809 75.5925 153.887 75.2505 154.043C74.9127 154.2 74.6263 154.427 74.3915 154.723C74.1567 155.016 73.9775 155.372 73.8539 155.792C73.7303 156.208 73.6685 156.678 73.6685 157.201C73.6685 157.902 73.7673 158.505 73.9651 159.012C74.1629 159.515 74.4636 159.902 74.8674 160.174C75.2711 160.442 75.782 160.576 76.4 160.576C76.7831 160.576 77.156 160.538 77.5185 160.464C77.8811 160.39 78.256 160.289 78.6433 160.161V161.422C78.2766 161.566 77.9058 161.671 77.5309 161.737C77.156 161.803 76.7234 161.836 76.2331 161.836C75.3103 161.836 74.544 161.645 73.9342 161.262C73.3286 160.878 72.8754 160.339 72.5746 159.642C72.278 158.946 72.1297 158.13 72.1297 157.195C72.1297 156.511 72.2244 155.885 72.414 155.316C72.6035 154.748 72.8795 154.258 73.2421 153.846C73.6046 153.43 74.0516 153.11 74.5831 152.888C75.1187 152.661 75.7305 152.548 76.4185 152.548C76.8717 152.548 77.3167 152.599 77.7534 152.702C78.1942 152.801 78.6021 152.943 78.977 153.129L78.4579 154.352C78.1448 154.204 77.8172 154.076 77.4753 153.969C77.1333 153.862 76.779 153.809 76.4123 153.809ZM86.4917 158.277C86.4917 158.845 86.4176 159.35 86.2692 159.791C86.1209 160.232 85.9046 160.604 85.6204 160.909C85.3361 161.21 84.9941 161.441 84.5945 161.601C84.1949 161.758 83.7437 161.836 83.2411 161.836C82.7714 161.836 82.3409 161.758 81.9495 161.601C81.5581 161.441 81.2182 161.21 80.9298 160.909C80.6456 160.604 80.4251 160.232 80.2686 159.791C80.112 159.35 80.0337 158.845 80.0337 158.277C80.0337 157.523 80.1635 156.884 80.4231 156.361C80.6867 155.834 81.0617 155.432 81.5478 155.156C82.034 154.88 82.6128 154.742 83.2844 154.742C83.9147 154.742 84.4709 154.88 84.9529 155.156C85.435 155.432 85.8119 155.834 86.0838 156.361C86.3558 156.888 86.4917 157.527 86.4917 158.277ZM81.5293 158.277C81.5293 158.775 81.589 159.202 81.7085 159.556C81.8321 159.91 82.0216 160.182 82.277 160.372C82.5325 160.557 82.8621 160.65 83.2658 160.65C83.6696 160.65 83.9992 160.557 84.2546 160.372C84.51 160.182 84.6975 159.91 84.817 159.556C84.9364 159.202 84.9962 158.775 84.9962 158.277C84.9962 157.778 84.9364 157.356 84.817 157.01C84.6975 156.66 84.51 156.394 84.2546 156.213C83.9992 156.027 83.6675 155.934 83.2596 155.934C82.6581 155.934 82.2194 156.136 81.9433 156.54C81.6673 156.944 81.5293 157.523 81.5293 158.277ZM91.7261 154.742C92.4965 154.742 93.0959 154.942 93.5244 155.341C93.957 155.737 94.1733 156.373 94.1733 157.251V161.713H92.721V157.523C92.721 156.991 92.6119 156.594 92.3935 156.33C92.1751 156.062 91.8373 155.928 91.38 155.928C90.7167 155.928 90.2553 156.132 89.9957 156.54C89.7403 156.948 89.6126 157.539 89.6126 158.314V161.713H88.1603V154.872H89.2912L89.4951 155.799H89.5755C89.7238 155.56 89.9071 155.364 90.1255 155.211C90.348 155.055 90.5952 154.937 90.8671 154.859C91.1431 154.781 91.4294 154.742 91.7261 154.742ZM99.624 155.978H97.9616V161.713H96.5093V155.978H95.3907V155.279L96.5093 154.853V154.377C96.5093 153.796 96.5999 153.335 96.7812 152.993C96.9666 152.651 97.2303 152.406 97.5722 152.257C97.9183 152.105 98.3303 152.029 98.8082 152.029C99.1213 152.029 99.4077 152.056 99.6672 152.109C99.9268 152.159 100.145 152.216 100.322 152.282L99.9453 153.382C99.8052 153.337 99.6487 153.296 99.4756 153.259C99.3026 153.217 99.1172 153.197 98.9195 153.197C98.5899 153.197 98.3468 153.3 98.1902 153.506C98.0378 153.712 97.9616 154.013 97.9616 154.408V154.872H99.624V155.978ZM106.756 154.872V161.713H105.612L105.415 160.792H105.334C105.19 161.027 105.007 161.222 104.784 161.379C104.562 161.531 104.314 161.645 104.043 161.719C103.771 161.797 103.484 161.836 103.184 161.836C102.669 161.836 102.228 161.75 101.861 161.577C101.499 161.4 101.22 161.128 101.027 160.761C100.833 160.394 100.736 159.92 100.736 159.34V154.872H102.195V159.068C102.195 159.599 102.302 159.997 102.516 160.26C102.734 160.524 103.072 160.656 103.53 160.656C103.97 160.656 104.321 160.565 104.58 160.384C104.84 160.203 105.023 159.935 105.13 159.581C105.241 159.226 105.297 158.792 105.297 158.277V154.872H106.756ZM113.436 159.76C113.436 160.209 113.327 160.588 113.108 160.897C112.89 161.206 112.571 161.441 112.151 161.601C111.734 161.758 111.224 161.836 110.618 161.836C110.14 161.836 109.728 161.801 109.382 161.731C109.04 161.665 108.717 161.562 108.412 161.422V160.168C108.737 160.32 109.102 160.452 109.506 160.563C109.913 160.674 110.299 160.73 110.661 160.73C111.139 160.73 111.483 160.656 111.693 160.508C111.903 160.355 112.008 160.153 112.008 159.902C112.008 159.754 111.965 159.622 111.879 159.506C111.796 159.387 111.64 159.265 111.409 159.142C111.182 159.014 110.849 158.862 110.408 158.685C109.975 158.511 109.611 158.338 109.314 158.165C109.017 157.992 108.793 157.784 108.64 157.541C108.488 157.294 108.412 156.979 108.412 156.596C108.412 155.99 108.651 155.531 109.129 155.218C109.611 154.9 110.247 154.742 111.038 154.742C111.458 154.742 111.854 154.785 112.225 154.872C112.6 154.954 112.966 155.075 113.325 155.236L112.867 156.33C112.558 156.194 112.247 156.083 111.934 155.996C111.625 155.906 111.31 155.86 110.989 155.86C110.614 155.86 110.328 155.918 110.13 156.033C109.936 156.149 109.839 156.313 109.839 156.528C109.839 156.688 109.887 156.824 109.981 156.936C110.076 157.047 110.239 157.158 110.47 157.269C110.704 157.381 111.03 157.519 111.446 157.683C111.854 157.84 112.206 158.005 112.503 158.178C112.804 158.347 113.034 158.555 113.195 158.802C113.356 159.049 113.436 159.368 113.436 159.76ZM117.731 154.742C118.341 154.742 118.864 154.867 119.301 155.119C119.737 155.37 120.073 155.726 120.308 156.188C120.543 156.649 120.66 157.201 120.66 157.844V158.623H116.093C116.11 159.286 116.287 159.797 116.625 160.155C116.967 160.514 117.445 160.693 118.059 160.693C118.495 160.693 118.887 160.652 119.233 160.569C119.583 160.483 119.943 160.357 120.314 160.192V161.373C119.972 161.533 119.624 161.651 119.27 161.725C118.915 161.799 118.491 161.836 117.997 161.836C117.325 161.836 116.734 161.706 116.223 161.447C115.716 161.183 115.319 160.792 115.03 160.273C114.746 159.754 114.604 159.109 114.604 158.338C114.604 157.572 114.734 156.921 114.993 156.386C115.253 155.85 115.617 155.442 116.087 155.162C116.557 154.882 117.105 154.742 117.731 154.742ZM117.731 155.836C117.274 155.836 116.903 155.984 116.619 156.281C116.338 156.577 116.174 157.012 116.124 157.584H119.239C119.235 157.243 119.177 156.94 119.066 156.676C118.959 156.412 118.794 156.206 118.571 156.058C118.353 155.91 118.073 155.836 117.731 155.836ZM124.597 161.836C123.781 161.836 123.126 161.54 122.632 160.946C122.141 160.349 121.896 159.469 121.896 158.308C121.896 157.133 122.145 156.246 122.644 155.644C123.147 155.042 123.808 154.742 124.628 154.742C124.974 154.742 125.277 154.789 125.536 154.884C125.796 154.975 126.018 155.098 126.204 155.255C126.393 155.411 126.554 155.586 126.686 155.78H126.754C126.733 155.652 126.708 155.469 126.679 155.23C126.655 154.987 126.642 154.762 126.642 154.556V152.097H128.101V161.713H126.964L126.704 160.779H126.642C126.519 160.977 126.362 161.156 126.173 161.317C125.987 161.474 125.765 161.599 125.505 161.694C125.25 161.789 124.947 161.836 124.597 161.836ZM125.005 160.656C125.627 160.656 126.066 160.477 126.321 160.118C126.576 159.76 126.708 159.222 126.717 158.505V158.314C126.717 157.547 126.593 156.96 126.346 156.552C126.099 156.14 125.647 155.934 124.992 155.934C124.469 155.934 124.069 156.147 123.793 156.571C123.522 156.991 123.386 157.578 123.386 158.332C123.386 159.086 123.522 159.663 123.793 160.063C124.069 160.458 124.473 160.656 125.005 160.656Z" fill="#4281FD"/>
<rect x="491.014" y="204.48" width="110.743" height="27.6859" rx="13.8429" fill="white" stroke="#407BFF" stroke-width="0.791024"/>
<path d="M522.55 214.718C522.118 214.718 521.73 214.796 521.388 214.952C521.051 215.109 520.764 215.336 520.529 215.632C520.295 215.925 520.115 216.281 519.992 216.701C519.868 217.117 519.806 217.587 519.806 218.11C519.806 218.811 519.905 219.414 520.103 219.921C520.301 220.424 520.602 220.811 521.005 221.083C521.409 221.351 521.92 221.484 522.538 221.484C522.921 221.484 523.294 221.447 523.656 221.373C524.019 221.299 524.394 221.198 524.781 221.07V222.331C524.415 222.475 524.044 222.58 523.669 222.646C523.294 222.712 522.861 222.745 522.371 222.745C521.448 222.745 520.682 222.554 520.072 222.17C519.467 221.787 519.013 221.248 518.713 220.551C518.416 219.855 518.268 219.039 518.268 218.104C518.268 217.42 518.362 216.794 518.552 216.225C518.741 215.657 519.017 215.167 519.38 214.755C519.743 214.338 520.19 214.019 520.721 213.797C521.257 213.57 521.868 213.457 522.556 213.457C523.01 213.457 523.455 213.508 523.891 213.611C524.332 213.71 524.74 213.852 525.115 214.038L524.596 215.261C524.283 215.113 523.955 214.985 523.613 214.878C523.271 214.771 522.917 214.718 522.55 214.718ZM532.63 219.186C532.63 219.754 532.555 220.259 532.407 220.7C532.259 221.14 532.043 221.513 531.758 221.818C531.474 222.119 531.132 222.35 530.732 222.51C530.333 222.667 529.882 222.745 529.379 222.745C528.909 222.745 528.479 222.667 528.087 222.51C527.696 222.35 527.356 222.119 527.068 221.818C526.783 221.513 526.563 221.14 526.407 220.7C526.25 220.259 526.172 219.754 526.172 219.186C526.172 218.432 526.301 217.793 526.561 217.27C526.825 216.742 527.2 216.341 527.686 216.065C528.172 215.789 528.751 215.651 529.422 215.651C530.053 215.651 530.609 215.789 531.091 216.065C531.573 216.341 531.95 216.742 532.222 217.27C532.494 217.797 532.63 218.436 532.63 219.186ZM527.667 219.186C527.667 219.684 527.727 220.11 527.846 220.465C527.97 220.819 528.16 221.091 528.415 221.281C528.67 221.466 529 221.559 529.404 221.559C529.808 221.559 530.137 221.466 530.393 221.281C530.648 221.091 530.835 220.819 530.955 220.465C531.074 220.11 531.134 219.684 531.134 219.186C531.134 218.687 531.074 218.265 530.955 217.919C530.835 217.569 530.648 217.303 530.393 217.121C530.137 216.936 529.805 216.843 529.398 216.843C528.796 216.843 528.357 217.045 528.081 217.449C527.805 217.853 527.667 218.432 527.667 219.186ZM537.864 215.651C538.634 215.651 539.234 215.85 539.662 216.25C540.095 216.646 540.311 217.282 540.311 218.16V222.622H538.859V218.432C538.859 217.9 538.75 217.503 538.531 217.239C538.313 216.971 537.975 216.837 537.518 216.837C536.855 216.837 536.393 217.041 536.134 217.449C535.878 217.857 535.75 218.448 535.75 219.223V222.622H534.298V215.78H535.429L535.633 216.707H535.713C535.862 216.468 536.045 216.273 536.263 216.12C536.486 215.964 536.733 215.846 537.005 215.768C537.281 215.69 537.567 215.651 537.864 215.651ZM545.762 216.887H544.1V222.622H542.647V216.887H541.529V216.188L542.647 215.762V215.286C542.647 214.705 542.738 214.244 542.919 213.902C543.105 213.56 543.368 213.315 543.71 213.166C544.056 213.014 544.468 212.938 544.946 212.938C545.259 212.938 545.546 212.964 545.805 213.018C546.065 213.067 546.283 213.125 546.46 213.191L546.083 214.291C545.943 214.246 545.787 214.205 545.614 214.168C545.441 214.126 545.255 214.106 545.057 214.106C544.728 214.106 544.485 214.209 544.328 214.415C544.176 214.621 544.1 214.921 544.1 215.317V215.78H545.762V216.887ZM552.893 215.78V222.622H551.75L551.552 221.701H551.472C551.328 221.936 551.145 222.131 550.922 222.288C550.7 222.44 550.452 222.554 550.181 222.628C549.909 222.706 549.622 222.745 549.322 222.745C548.807 222.745 548.366 222.659 547.999 222.486C547.636 222.308 547.358 222.037 547.165 221.67C546.971 221.303 546.874 220.829 546.874 220.249V215.78H548.333V219.977C548.333 220.508 548.44 220.906 548.654 221.169C548.872 221.433 549.21 221.565 549.668 221.565C550.108 221.565 550.459 221.474 550.718 221.293C550.978 221.112 551.161 220.844 551.268 220.49C551.379 220.135 551.435 219.701 551.435 219.186V215.78H552.893ZM559.574 220.669C559.574 221.118 559.465 221.497 559.246 221.806C559.028 222.115 558.709 222.35 558.289 222.51C557.872 222.667 557.362 222.745 556.756 222.745C556.278 222.745 555.866 222.71 555.52 222.64C555.178 222.574 554.855 222.471 554.55 222.331V221.077C554.875 221.229 555.24 221.361 555.644 221.472C556.051 221.583 556.437 221.639 556.799 221.639C557.277 221.639 557.621 221.565 557.831 221.417C558.041 221.264 558.146 221.062 558.146 220.811C558.146 220.663 558.103 220.531 558.017 220.415C557.934 220.296 557.778 220.174 557.547 220.051C557.32 219.923 556.987 219.771 556.546 219.593C556.113 219.42 555.749 219.247 555.452 219.074C555.155 218.901 554.931 218.693 554.778 218.45C554.626 218.203 554.55 217.888 554.55 217.505C554.55 216.899 554.789 216.44 555.267 216.127C555.749 215.809 556.385 215.651 557.176 215.651C557.596 215.651 557.992 215.694 558.363 215.78C558.738 215.863 559.104 215.984 559.463 216.145L559.005 217.239C558.696 217.103 558.385 216.992 558.072 216.905C557.763 216.815 557.448 216.769 557.127 216.769C556.752 216.769 556.465 216.827 556.268 216.942C556.074 217.058 555.977 217.222 555.977 217.437C555.977 217.597 556.025 217.733 556.119 217.845C556.214 217.956 556.377 218.067 556.608 218.178C556.842 218.289 557.168 218.428 557.584 218.592C557.992 218.749 558.344 218.914 558.641 219.087C558.942 219.256 559.172 219.464 559.333 219.711C559.494 219.958 559.574 220.277 559.574 220.669ZM563.869 215.651C564.479 215.651 565.002 215.776 565.439 216.028C565.875 216.279 566.211 216.635 566.446 217.097C566.681 217.558 566.798 218.11 566.798 218.753V219.532H562.231C562.248 220.195 562.425 220.706 562.763 221.064C563.105 221.423 563.583 221.602 564.196 221.602C564.633 221.602 565.025 221.561 565.371 221.478C565.721 221.392 566.081 221.266 566.452 221.101V222.282C566.11 222.442 565.762 222.56 565.408 222.634C565.053 222.708 564.629 222.745 564.135 222.745C563.463 222.745 562.872 222.615 562.361 222.356C561.854 222.092 561.457 221.701 561.168 221.182C560.884 220.663 560.742 220.018 560.742 219.247C560.742 218.481 560.872 217.83 561.131 217.295C561.391 216.759 561.755 216.351 562.225 216.071C562.695 215.791 563.243 215.651 563.869 215.651ZM563.869 216.745C563.412 216.745 563.041 216.893 562.757 217.189C562.476 217.486 562.312 217.921 562.262 218.493H565.377C565.373 218.151 565.315 217.849 565.204 217.585C565.097 217.321 564.932 217.115 564.709 216.967C564.491 216.819 564.211 216.745 563.869 216.745ZM570.735 222.745C569.919 222.745 569.264 222.449 568.77 221.855C568.279 221.258 568.034 220.378 568.034 219.216C568.034 218.042 568.283 217.154 568.782 216.553C569.285 215.951 569.946 215.651 570.766 215.651C571.112 215.651 571.415 215.698 571.674 215.793C571.934 215.883 572.156 216.007 572.342 216.164C572.531 216.32 572.692 216.495 572.824 216.689H572.892C572.871 216.561 572.846 216.378 572.817 216.139C572.793 215.896 572.78 215.671 572.78 215.465V213.006H574.239V222.622H573.102L572.842 221.688H572.78C572.657 221.886 572.5 222.065 572.311 222.226C572.125 222.383 571.903 222.508 571.643 222.603C571.388 222.698 571.085 222.745 570.735 222.745ZM571.143 221.565C571.765 221.565 572.204 221.386 572.459 221.027C572.714 220.669 572.846 220.131 572.854 219.414V219.223C572.854 218.456 572.731 217.869 572.484 217.461C572.236 217.049 571.785 216.843 571.13 216.843C570.607 216.843 570.207 217.056 569.931 217.48C569.659 217.9 569.524 218.487 569.524 219.241C569.524 219.995 569.659 220.572 569.931 220.972C570.207 221.367 570.611 221.565 571.143 221.565Z" fill="#4281FD"/>
<g filter="url(#filter6_f_1147_4314)">
<rect x="34.1976" y="296.634" width="111.534" height="28.4769" rx="14.2384" fill="#5388FF" fill-opacity="0.5"/>
</g>
<rect x="34.5931" y="286.747" width="110.743" height="27.6859" rx="13.8429" fill="white" stroke="#407BFF" stroke-width="0.791024"/>
<path d="M70.8752 296.984C70.4426 296.984 70.0554 297.062 69.7134 297.219C69.3756 297.376 69.0892 297.602 68.8544 297.899C68.6196 298.191 68.4404 298.548 68.3168 298.968C68.1932 299.384 68.1314 299.854 68.1314 300.377C68.1314 301.077 68.2302 301.681 68.428 302.188C68.6257 302.69 68.9265 303.077 69.3303 303.349C69.734 303.617 70.2449 303.751 70.8629 303.751C71.246 303.751 71.6189 303.714 71.9814 303.64C72.344 303.566 72.7189 303.465 73.1062 303.337V304.598C72.7395 304.742 72.3687 304.847 71.9938 304.913C71.6189 304.979 71.1863 305.012 70.696 305.012C69.7731 305.012 69.0068 304.82 68.3971 304.437C67.7915 304.054 67.3383 303.514 67.0375 302.818C66.7409 302.122 66.5926 301.306 66.5926 300.371C66.5926 299.687 66.6873 299.061 66.8768 298.492C67.0664 297.923 67.3424 297.433 67.7049 297.021C68.0675 296.605 68.5145 296.286 69.046 296.063C69.5816 295.837 70.1934 295.723 70.8814 295.723C71.3346 295.723 71.7795 295.775 72.2163 295.878C72.6571 295.977 73.065 296.119 73.4399 296.304L72.9208 297.528C72.6076 297.38 72.2801 297.252 71.9382 297.145C71.5962 297.038 71.2419 296.984 70.8752 296.984ZM80.9546 301.452C80.9546 302.021 80.8804 302.525 80.7321 302.966C80.5838 303.407 80.3675 303.78 80.0832 304.085C79.799 304.386 79.457 304.616 79.0574 304.777C78.6578 304.934 78.2066 305.012 77.704 305.012C77.2343 305.012 76.8038 304.934 76.4124 304.777C76.021 304.616 75.6811 304.386 75.3927 304.085C75.1084 303.78 74.888 303.407 74.7315 302.966C74.5749 302.525 74.4966 302.021 74.4966 301.452C74.4966 300.698 74.6264 300.06 74.886 299.536C75.1496 299.009 75.5246 298.607 76.0107 298.331C76.4969 298.055 77.0757 297.917 77.7472 297.917C78.3776 297.917 78.9338 298.055 79.4158 298.331C79.8978 298.607 80.2748 299.009 80.5467 299.536C80.8186 300.064 80.9546 300.702 80.9546 301.452ZM75.9922 301.452C75.9922 301.951 76.0519 302.377 76.1714 302.731C76.295 303.086 76.4845 303.358 76.7399 303.547C76.9954 303.733 77.325 303.825 77.7287 303.825C78.1325 303.825 78.4621 303.733 78.7175 303.547C78.9729 303.358 79.1604 303.086 79.2799 302.731C79.3993 302.377 79.4591 301.951 79.4591 301.452C79.4591 300.954 79.3993 300.531 79.2799 300.185C79.1604 299.835 78.9729 299.569 78.7175 299.388C78.4621 299.203 78.1304 299.11 77.7225 299.11C77.121 299.11 76.6823 299.312 76.4062 299.716C76.1302 300.119 75.9922 300.698 75.9922 301.452ZM88.5868 298.047V304.888H87.4435L87.2457 303.967H87.1654C87.0212 304.202 86.8379 304.398 86.6154 304.554C86.3929 304.707 86.1457 304.82 85.8738 304.894C85.6019 304.973 85.3155 305.012 85.0148 305.012C84.4998 305.012 84.059 304.925 83.6923 304.752C83.3297 304.575 83.0516 304.303 82.858 303.936C82.6644 303.57 82.5676 303.096 82.5676 302.515V298.047H84.026V302.243C84.026 302.775 84.1331 303.172 84.3474 303.436C84.5657 303.7 84.9035 303.831 85.3609 303.831C85.8017 303.831 86.1519 303.741 86.4114 303.56C86.671 303.378 86.8543 303.11 86.9614 302.756C87.0727 302.402 87.1283 301.967 87.1283 301.452V298.047H88.5868ZM94.1363 297.917C94.2516 297.917 94.3773 297.923 94.5133 297.936C94.6492 297.948 94.7666 297.965 94.8655 297.985L94.7296 299.345C94.643 299.32 94.5359 299.302 94.4082 299.289C94.2846 299.277 94.1734 299.271 94.0745 299.271C93.8149 299.271 93.5677 299.314 93.3329 299.4C93.0981 299.483 92.89 299.611 92.7087 299.784C92.5275 299.953 92.3853 300.165 92.2823 300.42C92.1793 300.676 92.1278 300.972 92.1278 301.31V304.888H90.6694V298.047H91.8065L92.0042 299.252H92.0722C92.2082 299.009 92.3771 298.787 92.579 298.585C92.7808 298.383 93.0115 298.222 93.2711 298.103C93.5348 297.979 93.8232 297.917 94.1363 297.917ZM100.73 302.935C100.73 303.384 100.621 303.763 100.403 304.072C100.184 304.381 99.865 304.616 99.4448 304.777C99.0287 304.934 98.5178 305.012 97.9122 305.012C97.4343 305.012 97.0223 304.977 96.6762 304.907C96.3343 304.841 96.0108 304.738 95.706 304.598V303.343C96.0314 303.496 96.3961 303.627 96.7998 303.739C97.2077 303.85 97.5929 303.906 97.9555 303.906C98.4334 303.906 98.7774 303.831 98.9875 303.683C99.1976 303.531 99.3027 303.329 99.3027 303.077C99.3027 302.929 99.2594 302.797 99.1729 302.682C99.0905 302.562 98.9339 302.441 98.7032 302.317C98.4766 302.19 98.1429 302.037 97.7021 301.86C97.2695 301.687 96.9049 301.514 96.6082 301.341C96.3116 301.168 96.0871 300.96 95.9346 300.717C95.7822 300.47 95.706 300.154 95.706 299.771C95.706 299.166 95.9449 298.706 96.4228 298.393C96.9049 298.076 97.5414 297.917 98.3324 297.917C98.7527 297.917 99.1482 297.961 99.519 298.047C99.8939 298.129 100.261 298.251 100.619 298.412L100.162 299.506C99.8527 299.37 99.5416 299.258 99.2285 299.172C98.9195 299.081 98.6043 299.036 98.283 299.036C97.9081 299.036 97.6217 299.094 97.424 299.209C97.2303 299.324 97.1335 299.489 97.1335 299.703C97.1335 299.864 97.1809 300 97.2757 300.111C97.3704 300.222 97.5332 300.334 97.7639 300.445C97.9987 300.556 98.3242 300.694 98.7403 300.859C99.1482 301.015 99.5004 301.18 99.7971 301.353C100.098 301.522 100.329 301.73 100.489 301.977C100.65 302.225 100.73 302.544 100.73 302.935ZM105.025 297.917C105.635 297.917 106.158 298.043 106.595 298.294C107.032 298.546 107.367 298.902 107.602 299.363C107.837 299.825 107.954 300.377 107.954 301.02V301.798H103.388C103.404 302.462 103.581 302.972 103.919 303.331C104.261 303.689 104.739 303.869 105.353 303.869C105.789 303.869 106.181 303.827 106.527 303.745C106.877 303.658 107.238 303.533 107.608 303.368V304.548C107.266 304.709 106.918 304.826 106.564 304.901C106.21 304.975 105.785 305.012 105.291 305.012C104.619 305.012 104.028 304.882 103.517 304.622C103.011 304.359 102.613 303.967 102.325 303.448C102.04 302.929 101.898 302.284 101.898 301.514C101.898 300.748 102.028 300.097 102.288 299.561C102.547 299.026 102.912 298.618 103.381 298.338C103.851 298.057 104.399 297.917 105.025 297.917ZM105.025 299.011C104.568 299.011 104.197 299.159 103.913 299.456C103.633 299.753 103.468 300.187 103.418 300.76H106.533C106.529 300.418 106.471 300.115 106.36 299.852C106.253 299.588 106.088 299.382 105.866 299.234C105.647 299.085 105.367 299.011 105.025 299.011ZM114.19 302.935C114.19 303.384 114.081 303.763 113.862 304.072C113.644 304.381 113.325 304.616 112.905 304.777C112.488 304.934 111.978 305.012 111.372 305.012C110.894 305.012 110.482 304.977 110.136 304.907C109.794 304.841 109.471 304.738 109.166 304.598V303.343C109.491 303.496 109.856 303.627 110.26 303.739C110.667 303.85 111.053 303.906 111.415 303.906C111.893 303.906 112.237 303.831 112.447 303.683C112.657 303.531 112.762 303.329 112.762 303.077C112.762 302.929 112.719 302.797 112.633 302.682C112.55 302.562 112.394 302.441 112.163 302.317C111.936 302.19 111.603 302.037 111.162 301.86C110.729 301.687 110.365 301.514 110.068 301.341C109.771 301.168 109.547 300.96 109.394 300.717C109.242 300.47 109.166 300.154 109.166 299.771C109.166 299.166 109.405 298.706 109.883 298.393C110.365 298.076 111.001 297.917 111.792 297.917C112.212 297.917 112.608 297.961 112.979 298.047C113.354 298.129 113.72 298.251 114.079 298.412L113.621 299.506C113.312 299.37 113.001 299.258 112.688 299.172C112.379 299.081 112.064 299.036 111.743 299.036C111.368 299.036 111.082 299.094 110.884 299.209C110.69 299.324 110.593 299.489 110.593 299.703C110.593 299.864 110.641 300 110.735 300.111C110.83 300.222 110.993 300.334 111.224 300.445C111.458 300.556 111.784 300.694 112.2 300.859C112.608 301.015 112.96 301.18 113.257 301.353C113.558 301.522 113.788 301.73 113.949 301.977C114.11 302.225 114.19 302.544 114.19 302.935Z" fill="#4281FD"/>
<rect x="381.062" y="73.1699" width="110.743" height="27.6859" rx="13.8429" fill="white" stroke="#407BFF" stroke-width="0.791024"/>
<path d="M421.299 83.4075C420.867 83.4075 420.479 83.4857 420.137 83.6423C419.8 83.7989 419.513 84.0254 419.278 84.3221C419.044 84.6146 418.864 84.971 418.741 85.3912C418.617 85.8073 418.555 86.277 418.555 86.8002C418.555 87.5006 418.654 88.1042 418.852 88.6109C419.05 89.1135 419.35 89.5008 419.754 89.7727C420.158 90.0405 420.669 90.1744 421.287 90.1744C421.67 90.1744 422.043 90.1373 422.405 90.0632C422.768 89.989 423.143 89.8881 423.53 89.7604V91.0211C423.163 91.1653 422.793 91.2703 422.418 91.3362C422.043 91.4022 421.61 91.4351 421.12 91.4351C420.197 91.4351 419.431 91.2435 418.821 90.8604C418.215 90.4772 417.762 89.9375 417.461 89.2413C417.165 88.545 417.017 87.7293 417.017 86.794C417.017 86.1101 417.111 85.4839 417.301 84.9153C417.49 84.3468 417.766 83.8565 418.129 83.4445C418.491 83.0284 418.938 82.7091 419.47 82.4867C420.006 82.2601 420.617 82.1468 421.305 82.1468C421.759 82.1468 422.203 82.1983 422.64 82.3013C423.081 82.4001 423.489 82.5423 423.864 82.7277L423.345 83.9513C423.032 83.803 422.704 83.6753 422.362 83.5681C422.02 83.461 421.666 83.4075 421.299 83.4075ZM428.004 84.3406C428.87 84.3406 429.523 84.5322 429.963 84.9153C430.408 85.2985 430.631 85.8959 430.631 86.7075V91.3115H429.599L429.321 90.3413H429.271C429.078 90.5885 428.878 90.7924 428.672 90.9531C428.466 91.1138 428.227 91.2332 427.955 91.3115C427.687 91.3939 427.36 91.4351 426.972 91.4351C426.564 91.4351 426.2 91.361 425.878 91.2126C425.557 91.0602 425.304 90.8295 425.118 90.5205C424.933 90.2115 424.84 89.8201 424.84 89.3463C424.84 88.6418 425.102 88.1124 425.625 87.7581C426.152 87.4038 426.948 87.2081 428.011 87.171L429.197 87.1277V86.7693C429.197 86.2955 429.086 85.9577 428.863 85.7558C428.645 85.5539 428.336 85.453 427.936 85.453C427.594 85.453 427.263 85.5024 426.941 85.6013C426.62 85.7002 426.307 85.8217 426.002 85.9659L425.532 84.9401C425.866 84.7629 426.245 84.6187 426.669 84.5075C427.098 84.3962 427.543 84.3406 428.004 84.3406ZM429.191 88.0424L428.307 88.0733C427.582 88.098 427.073 88.2216 426.781 88.4441C426.488 88.6665 426.342 88.9714 426.342 89.3587C426.342 89.6965 426.443 89.9437 426.645 90.1003C426.847 90.2527 427.112 90.3289 427.442 90.3289C427.945 90.3289 428.361 90.1868 428.69 89.9025C429.024 89.6141 429.191 89.1918 429.191 88.6356V88.0424ZM436.131 84.3406C436.246 84.3406 436.372 84.3468 436.508 84.3592C436.644 84.3715 436.761 84.388 436.86 84.4086L436.724 85.7682C436.638 85.7435 436.531 85.7249 436.403 85.7126C436.279 85.7002 436.168 85.694 436.069 85.694C435.81 85.694 435.562 85.7373 435.327 85.8238C435.093 85.9062 434.885 86.0339 434.703 86.2069C434.522 86.3759 434.38 86.588 434.277 86.8435C434.174 87.0989 434.122 87.3955 434.122 87.7334V91.3115H432.664V84.4704H433.801L433.999 85.6755H434.067C434.203 85.4324 434.372 85.2099 434.574 85.008C434.775 84.8062 435.006 84.6455 435.266 84.526C435.529 84.4024 435.818 84.3406 436.131 84.3406ZM440.852 84.3406C441.462 84.3406 441.985 84.4663 442.422 84.7176C442.859 84.9689 443.194 85.3253 443.429 85.7867C443.664 86.2481 443.782 86.8002 443.782 87.4429V88.2216H439.215C439.231 88.8849 439.408 89.3958 439.746 89.7542C440.088 90.1126 440.566 90.2918 441.18 90.2918C441.617 90.2918 442.008 90.2506 442.354 90.1682C442.704 90.0817 443.065 89.9561 443.435 89.7913V90.9716C443.094 91.1323 442.745 91.2497 442.391 91.3239C442.037 91.398 441.612 91.4351 441.118 91.4351C440.446 91.4351 439.855 91.3053 439.344 91.0458C438.838 90.7821 438.44 90.3907 438.152 89.8716C437.867 89.3525 437.725 88.7077 437.725 87.9373C437.725 87.171 437.855 86.5201 438.115 85.9845C438.374 85.4489 438.739 85.041 439.208 84.7609C439.678 84.4807 440.226 84.3406 440.852 84.3406ZM440.852 85.4345C440.395 85.4345 440.024 85.5828 439.74 85.8794C439.46 86.176 439.295 86.6107 439.246 87.1834H442.36C442.356 86.8414 442.298 86.5386 442.187 86.2749C442.08 86.0112 441.915 85.8053 441.693 85.6569C441.474 85.5086 441.194 85.4345 440.852 85.4345ZM448.145 84.3406C448.754 84.3406 449.278 84.4663 449.714 84.7176C450.151 84.9689 450.487 85.3253 450.722 85.7867C450.956 86.2481 451.074 86.8002 451.074 87.4429V88.2216H446.507C446.523 88.8849 446.701 89.3958 447.038 89.7542C447.38 90.1126 447.858 90.2918 448.472 90.2918C448.909 90.2918 449.3 90.2506 449.646 90.1682C449.996 90.0817 450.357 89.9561 450.728 89.7913V90.9716C450.386 91.1323 450.038 91.2497 449.683 91.3239C449.329 91.398 448.905 91.4351 448.41 91.4351C447.739 91.4351 447.148 91.3053 446.637 91.0458C446.13 90.7821 445.732 90.3907 445.444 89.8716C445.16 89.3525 445.018 88.7077 445.018 87.9373C445.018 87.171 445.147 86.5201 445.407 85.9845C445.666 85.4489 446.031 85.041 446.501 84.7609C446.97 84.4807 447.518 84.3406 448.145 84.3406ZM448.145 85.4345C447.687 85.4345 447.316 85.5828 447.032 85.8794C446.752 86.176 446.587 86.6107 446.538 87.1834H449.652C449.648 86.8414 449.591 86.5386 449.479 86.2749C449.372 86.0112 449.208 85.8053 448.985 85.6569C448.767 85.5086 448.487 85.4345 448.145 85.4345ZM456.178 84.3406C456.294 84.3406 456.419 84.3468 456.555 84.3592C456.691 84.3715 456.809 84.388 456.908 84.4086L456.772 85.7682C456.685 85.7435 456.578 85.7249 456.45 85.7126C456.327 85.7002 456.215 85.694 456.117 85.694C455.857 85.694 455.61 85.7373 455.375 85.8238C455.14 85.9062 454.932 86.0339 454.751 86.2069C454.57 86.3759 454.427 86.588 454.324 86.8435C454.221 87.0989 454.17 87.3955 454.17 87.7334V91.3115H452.711V84.4704H453.849L454.046 85.6755H454.114C454.25 85.4324 454.419 85.2099 454.621 85.008C454.823 84.8062 455.054 84.6455 455.313 84.526C455.577 84.4024 455.865 84.3406 456.178 84.3406Z" fill="#4281FD"/>
<defs>
<filter id="filter0_f_1147_4314" x="4.77697" y="119.777" width="177.98" height="94.9229" filterUnits="userSpaceOnUse" color-interpolation-filters="sRGB">
<feFlood flood-opacity="0" result="BackgroundImageFix"/>
<feBlend mode="normal" in="SourceGraphic" in2="BackgroundImageFix" result="shape"/>
<feGaussianBlur stdDeviation="16.6115" result="effect1_foregroundBlur_1147_4314"/>
</filter>
<filter id="filter1_f_1147_4314" x="350.777" y="47.777" width="177.98" height="94.9229" filterUnits="userSpaceOnUse" color-interpolation-filters="sRGB">
<feFlood flood-opacity="0" result="BackgroundImageFix"/>
<feBlend mode="normal" in="SourceGraphic" in2="BackgroundImageFix" result="shape"/>
<feGaussianBlur stdDeviation="16.6115" result="effect1_foregroundBlur_1147_4314"/>
</filter>
<filter id="filter2_f_1147_4314" x="458.777" y="173.777" width="177.98" height="94.9229" filterUnits="userSpaceOnUse" color-interpolation-filters="sRGB">
<feFlood flood-opacity="0" result="BackgroundImageFix"/>
<feBlend mode="normal" in="SourceGraphic" in2="BackgroundImageFix" result="shape"/>
<feGaussianBlur stdDeviation="16.6115" result="effect1_foregroundBlur_1147_4314"/>
</filter>
<filter id="filter3_f_1147_4314" x="90.7568" y="303.637" width="462.874" height="52.1972" filterUnits="userSpaceOnUse" color-interpolation-filters="sRGB">
<feFlood flood-opacity="0" result="BackgroundImageFix"/>
<feBlend mode="normal" in="SourceGraphic" in2="BackgroundImageFix" result="shape"/>
<feGaussianBlur stdDeviation="4.3018" result="effect1_foregroundBlur_1147_4314"/>
</filter>
<filter id="filter4_f_1147_4314" x="297.396" y="357.396" width="316.207" height="52.2072" filterUnits="userSpaceOnUse" color-interpolation-filters="sRGB">
<feFlood flood-opacity="0" result="BackgroundImageFix"/>
<feBlend mode="normal" in="SourceGraphic" in2="BackgroundImageFix" result="shape"/>
<feGaussianBlur stdDeviation="4.3018" result="effect1_foregroundBlur_1147_4314"/>
</filter>
<filter id="filter5_f_1147_4314" x="55.3964" y="349.396" width="316.207" height="52.2072" filterUnits="userSpaceOnUse" color-interpolation-filters="sRGB">
<feFlood flood-opacity="0" result="BackgroundImageFix"/>
<feBlend mode="normal" in="SourceGraphic" in2="BackgroundImageFix" result="shape"/>
<feGaussianBlur stdDeviation="4.3018" result="effect1_foregroundBlur_1147_4314"/>
</filter>
<filter id="filter6_f_1147_4314" x="0.974606" y="263.411" width="177.98" height="94.9229" filterUnits="userSpaceOnUse" color-interpolation-filters="sRGB">
<feFlood flood-opacity="0" result="BackgroundImageFix"/>
<feBlend mode="normal" in="SourceGraphic" in2="BackgroundImageFix" result="shape"/>
<feGaussianBlur stdDeviation="16.6115" result="effect1_foregroundBlur_1147_4314"/>
</filter>
<clipPath id="clip0_1147_4314">
<rect width="580.612" height="424.78" fill="white" transform="translate(47.645)"/>
</clipPath>
</defs>
</svg>
