<svg width="37" height="25" viewBox="0 0 37 25" fill="none" xmlns="http://www.w3.org/2000/svg">
<path d="M9.07903 21.0866C6.44795 18.767 5.57091 16.0609 5.46129 14.9978C8.63888 15.8309 10.2647 15.6389 12.8887 14.128C16.9669 10.7752 16.1775 6.45765 15.2731 4.71798C9.79858 -3.61327 1.20878 2.4798 0.939107 5.35058C-1.93859 13.4163 2.15663 20.8601 8.33904 24.3023C10.6851 25.1879 11.3538 22.8526 10.422 22.1409C9.49014 21.4292 9.64177 21.4852 9.07903 21.0866Z" fill="#4281FD"/>
<path d="M30.079 21.0866C27.4479 18.767 26.5709 16.0609 26.4613 14.9978C29.6389 15.8309 31.2647 15.6389 33.8887 14.128C37.9669 10.7752 37.1775 6.45765 36.2731 4.71798C30.7986 -3.61327 22.2088 2.4798 21.9391 5.35058C19.0614 13.4163 23.1566 20.8601 29.339 24.3023C31.6851 25.1879 32.3538 22.8526 31.422 22.1409C30.4901 21.4292 30.6418 21.4852 30.079 21.0866Z" fill="#4281FD"/>
</svg>
