<svg width="1441" height="843" viewBox="0 0 1441 843" fill="none" xmlns="http://www.w3.org/2000/svg">
<mask id="mask0_2786_4130" style="mask-type:alpha" maskUnits="userSpaceOnUse" x="0" y="0" width="1441" height="843">
<rect width="1441" height="843" fill="white"/>
</mask>
<g mask="url(#mask0_2786_4130)">
<path fill-rule="evenodd" clip-rule="evenodd" d="M617.412 188.667C827.106 133.579 1031.84 35.195 1225.67 9.9469C1419.56 -15.309 1487.53 33.2448 1577 63.6716C1661.91 92.55 1764.95 119.243 1730.86 181.756C1697.66 242.625 1520.91 319.627 1398.36 391.223C1280.95 459.813 1191.51 528.673 1026.95 592.996C850.018 662.151 646.734 719.131 447.566 762.856C229.795 810.666 -28.3867 869.545 -159.376 853.444C-291.083 837.254 -165.372 737.167 -193.682 684.033C-218.835 636.824 -348.913 620.611 -316.005 559.47C-280.094 492.752 -191.62 407.403 -4.85543 333.21C180.793 259.461 405.871 244.239 617.412 188.667Z" fill="#ECF2FF"/>
</g>
</svg>
