<svg width="18" height="18" viewBox="0 0 18 18" fill="none" xmlns="http://www.w3.org/2000/svg">
<path d="M15.6766 9.93318C15.4785 9.93318 15.2713 9.87014 15.0732 9.82511C14.6723 9.73547 14.2781 9.61812 13.8935 9.4739C13.4757 9.32191 13.0165 9.3298 12.6042 9.49606C12.1919 9.66231 11.8556 9.97517 11.6601 10.3744L11.462 10.7887C10.5874 10.2927 9.77942 9.68746 9.05751 8.9876C8.35765 8.26569 7.75243 7.45772 7.25641 6.58312L7.67066 6.39401C8.06994 6.19851 8.3828 5.86226 8.54906 5.44995C8.71531 5.03764 8.7232 4.57841 8.57122 4.16064C8.4282 3.77253 8.31087 3.37542 8.22 2.97191C8.17497 2.77379 8.13895 2.56666 8.11193 2.36854C8.00257 1.7342 7.67033 1.15976 7.17502 0.748658C6.67971 0.337553 6.0539 0.116803 5.41028 0.12616H2.69961C2.3189 0.125662 1.94238 0.205632 1.59474 0.36083C1.2471 0.516027 0.936184 0.742947 0.682376 1.02671C0.423305 1.31818 0.230402 1.66228 0.116922 2.03536C0.00344179 2.40845 -0.0279264 2.80168 0.0249728 3.18804C0.514502 6.93626 2.22701 10.4183 4.89696 13.0941C7.57282 15.7641 11.0548 17.4766 14.803 17.9661C14.9199 17.975 15.0374 17.975 15.1543 17.9661C15.8183 17.9671 16.4595 17.7234 16.9554 17.2817C17.2391 17.0279 17.466 16.717 17.6212 16.3693C17.7764 16.0217 17.8564 15.6452 17.8559 15.2645V12.5628C17.8511 11.9405 17.6315 11.339 17.2345 10.8599C16.8374 10.3808 16.2871 10.0535 15.6766 9.93318ZM16.1178 15.3365C16.1175 15.4622 16.091 15.5864 16.0398 15.7011C15.9886 15.8159 15.914 15.9187 15.8207 16.0029C15.722 16.0928 15.6045 16.1597 15.4768 16.1986C15.3491 16.2376 15.2143 16.2476 15.0822 16.228C11.7216 15.7891 8.59846 14.2576 6.19376 11.8694C3.78701 9.46261 2.24216 6.3286 1.79906 2.9539C1.7795 2.82182 1.78955 2.68704 1.82849 2.55932C1.86742 2.4316 1.93428 2.31414 2.0242 2.21544C2.10941 2.12102 2.21366 2.04572 2.33007 1.9945C2.44649 1.94327 2.57243 1.91729 2.69961 1.91826H5.40127C5.60945 1.91317 5.81295 1.98038 5.97714 2.10846C6.14134 2.23653 6.25607 2.41754 6.30182 2.62069C6.30182 2.86384 6.38287 3.11599 6.43691 3.35914C6.54099 3.83091 6.67944 4.29443 6.85116 4.746L5.59039 5.34036C5.37368 5.43984 5.20528 5.6212 5.1221 5.84467C5.03203 6.06392 5.03203 6.30984 5.1221 6.52909C6.41818 9.30527 8.64978 11.5369 11.426 12.833C11.6452 12.923 11.8911 12.923 12.1104 12.833C12.3339 12.7498 12.5152 12.5814 12.6147 12.3647L13.182 11.1039C13.6466 11.2733 14.122 11.4117 14.6049 11.5182C14.8391 11.5722 15.0912 11.6172 15.3344 11.6532C15.5375 11.699 15.7185 11.8137 15.8466 11.9779C15.9747 12.1421 16.0419 12.3456 16.0368 12.5538L16.1178 15.3365ZM10.8046 0.0270996C10.5975 0.0270996 10.3813 0.0270996 10.1742 0.0270996C9.93536 0.0474011 9.71436 0.161751 9.55983 0.344992C9.4053 0.528234 9.32989 0.765358 9.35019 1.0042C9.3705 1.24304 9.48484 1.46404 9.66809 1.61857C9.85133 1.7731 10.0885 1.84851 10.3273 1.8282H10.8046C12.2376 1.8282 13.612 2.39748 14.6253 3.4108C15.6386 4.42412 16.2079 5.79847 16.2079 7.23152C16.2079 7.39362 16.2079 7.54671 16.2079 7.70881C16.1879 7.94639 16.263 8.18219 16.4166 8.36451C16.5702 8.54683 16.7899 8.66079 17.0274 8.68141H17.0994C17.3249 8.68232 17.5425 8.59865 17.7092 8.44692C17.8759 8.29519 17.9797 8.08643 18 7.86191C18 7.65478 18 7.43865 18 7.23152C18 5.32235 17.2422 3.49124 15.8931 2.14041C14.5439 0.789574 12.7138 0.0294861 10.8046 0.0270996ZM12.6057 7.23152C12.6057 7.47036 12.7006 7.69942 12.8695 7.86831C13.0383 8.03719 13.2674 8.13207 13.5062 8.13207C13.7451 8.13207 13.9741 8.03719 14.143 7.86831C14.3119 7.69942 14.4068 7.47036 14.4068 7.23152C14.4068 6.27615 14.0273 5.35992 13.3517 4.68437C12.6762 4.00883 11.76 3.62931 10.8046 3.62931C10.5657 3.62931 10.3367 3.72419 10.1678 3.89308C9.99891 4.06196 9.90403 4.29102 9.90403 4.52986C9.90403 4.7687 9.99891 4.99776 10.1678 5.16665C10.3367 5.33554 10.5657 5.43042 10.8046 5.43042C11.2823 5.43042 11.7404 5.62017 12.0782 5.95795C12.4159 6.29572 12.6057 6.75384 12.6057 7.23152Z" fill="black"/>
</svg>
