<svg width="18" height="16" viewBox="0 0 18 16" fill="none" xmlns="http://www.w3.org/2000/svg">
<path d="M15.3 0.800049H2.7C1.98392 0.800049 1.29716 1.08451 0.790812 1.59086C0.284464 2.09721 0 2.78396 0 3.50005V12.5C0 13.2161 0.284464 13.9029 0.790812 14.4092C1.29716 14.9156 1.98392 15.2 2.7 15.2H15.3C16.0161 15.2 16.7028 14.9156 17.2092 14.4092C17.7155 13.9029 18 13.2161 18 12.5V3.50005C18 2.78396 17.7155 2.09721 17.2092 1.59086C16.7028 1.08451 16.0161 0.800049 15.3 0.800049ZM2.7 2.60005H15.3C15.5387 2.60005 15.7676 2.69487 15.9364 2.86365C16.1052 3.03244 16.2 3.26135 16.2 3.50005L9 7.89205L1.8 3.50005C1.8 3.26135 1.89482 3.03244 2.0636 2.86365C2.23239 2.69487 2.46131 2.60005 2.7 2.60005ZM16.2 12.5C16.2 12.7387 16.1052 12.9677 15.9364 13.1364C15.7676 13.3052 15.5387 13.4 15.3 13.4H2.7C2.46131 13.4 2.23239 13.3052 2.0636 13.1364C1.89482 12.9677 1.8 12.7387 1.8 12.5V5.55205L8.532 9.66505C8.66882 9.74404 8.82402 9.78563 8.982 9.78563C9.13998 9.78563 9.29518 9.74404 9.432 9.66505L16.2 5.55205V12.5Z" fill="black"/>
</svg>
