<svg width="1440" height="855" viewBox="0 0 1440 855" fill="none" xmlns="http://www.w3.org/2000/svg">
<path fill-rule="evenodd" clip-rule="evenodd" d="M606.173 186.667C815.868 131.579 1020.6 33.195 1214.43 7.94689C1408.32 -17.309 1476.29 31.2448 1565.76 61.6716C1650.68 90.55 1753.72 117.243 1719.62 179.756C1686.43 240.625 1509.67 317.627 1387.12 389.223C1269.72 457.813 1180.27 526.673 1015.71 590.996C838.78 660.151 635.495 717.131 436.327 760.856C218.557 808.666 -39.6251 867.545 -170.614 851.444C-302.321 835.254 -176.611 735.167 -204.921 682.033C-230.073 634.824 -360.152 618.611 -327.243 557.47C-291.333 490.752 -202.858 405.403 -16.0938 331.21C169.554 257.461 394.632 242.239 606.173 186.667Z" fill="#ECF2FF"/>
</svg>
