<svg width="327" height="246" viewBox="0 0 327 246" fill="none" xmlns="http://www.w3.org/2000/svg">
<ellipse cx="163.5" cy="167" rx="163" ry="79" fill="#ECF2FF"/>
<path d="M133.556 82.0791C128.215 85.1628 128.215 90.1617 133.556 93.2455C138.897 96.3292 147.556 96.3292 152.897 93.2455C158.238 90.1617 158.238 85.1623 152.897 82.0791C147.556 78.9954 138.896 78.9954 133.556 82.0791Z" fill="#E0E0E0"/>
<path d="M109.311 166.401L65.1683 141.362C64.2826 140.858 64.2763 140.032 65.1552 139.517L108.021 114.385C108.9 113.869 110.33 113.858 111.216 114.362L155.359 139.401C156.245 139.904 156.25 140.73 155.372 141.245L112.506 166.378C111.627 166.894 110.197 166.904 109.311 166.401Z" fill="#E0E0E0"/>
<path d="M258.512 182.668L175.33 230.756C175.027 230.931 174.537 230.931 174.234 230.756L69.1549 169.953C68.8522 169.778 68.8522 169.494 69.1549 169.32L152.336 121.232C152.639 121.057 153.13 121.057 153.432 121.232L258.512 182.035C258.815 182.21 258.815 182.493 258.512 182.668Z" fill="#E0E0E0"/>
<path d="M229.448 166.618L273.59 141.578C274.476 141.075 274.482 140.249 273.603 139.734L230.738 114.601C229.859 114.085 228.429 114.076 227.543 114.578L183.4 139.617C182.514 140.121 182.508 140.946 183.386 141.462L226.252 166.594C227.131 167.11 228.561 167.12 229.448 166.618Z" fill="#E0E0E0"/>
<path d="M191.864 144.555L198.515 106.197L202.722 105.984L193.982 144.55H193.977C193.958 144.683 193.867 144.816 193.697 144.926C193.295 145.186 192.624 145.22 192.198 145.002C191.972 144.886 191.863 144.722 191.869 144.555H191.864Z" fill="#263238"/>
<path d="M254.417 99.8973H258.63L268.531 139.739H268.526C268.539 139.905 268.44 140.074 268.219 140.202C267.805 140.441 267.133 140.441 266.718 140.202C266.542 140.1 266.446 139.972 266.419 139.84H266.414L254.417 99.8973Z" fill="#37474F"/>
<path d="M225.284 162.834L225.471 119.875L229.677 119.662L227.402 162.827H227.397C227.377 162.961 227.287 163.094 227.117 163.204C226.715 163.464 226.043 163.498 225.618 163.28C225.391 163.164 225.283 163 225.289 162.833H225.284V162.834Z" fill="#37474F"/>
<path d="M231.428 86.5309H235.641L242.384 128.863H242.379C242.392 129.029 242.293 129.198 242.072 129.325C241.658 129.565 240.986 129.565 240.571 129.325C240.396 129.224 240.299 129.096 240.272 128.963L240.268 128.964L231.428 86.5309Z" fill="#263238"/>
<path d="M266.544 53.3712C267.387 55.3389 267.968 57.7494 268.226 60.7653C268.707 66.4345 266.788 84.7925 265.635 93.0011L265.64 92.9965C263.973 106.712 261.929 106.736 258.955 109.033C253.844 112.982 239.141 120.724 234.287 122.635C225.487 126.098 218.293 120.758 212.929 118.109C207.569 115.465 200.981 111.335 198.722 109.695C197.384 108.718 196.688 107.732 196.702 106.694C196.707 106.284 196.698 104.598 196.698 104.164C196.702 102.839 197.865 101.42 200.328 99.8234C204.873 96.8743 221.3 87.2937 227.665 83.7682C227.674 83.7203 227.717 83.7158 227.717 83.7158C232.615 80.7432 235.563 60.5321 238.955 49.7791C239.026 49.5505 239.098 49.3265 239.174 49.1122C239.231 48.9406 239.293 48.7736 239.35 48.6117C239.564 48.0258 239.783 47.4922 240.017 47.0015" fill="#BA68C8"/>
<path d="M196.698 104.163C196.702 102.838 197.865 101.419 200.328 99.8228C204.873 96.8736 221.3 87.2931 227.665 83.7676C227.674 83.7197 227.717 83.7152 227.717 83.7152C232.615 80.7426 235.563 60.5315 238.955 49.7785C238.986 49.6776 239.225 48.8516 239.665 47.8006C239.685 47.7515 239.707 47.7059 239.727 47.6575C239.787 47.5144 239.852 47.3691 239.92 47.2197C239.953 47.1479 239.984 47.071 240.017 47.0008L240.021 47.002C240.57 45.8449 241.325 44.5778 242.285 43.733C242.366 43.6618 242.748 43.2867 243.394 42.9527C243.946 42.6415 245.102 41.9979 245.391 41.8287C248.718 39.8376 253.082 42.2271 258.521 45.2048C261.902 47.0596 264.788 49.2632 266.544 53.37H266.544C267.387 55.3377 267.969 57.7482 268.227 60.7641C268.708 66.4333 266.789 84.7913 265.636 92.9999L265.64 92.9954C263.973 106.711 261.929 106.735 258.956 109.032C253.844 112.981 239.142 120.723 234.288 122.634C225.488 126.097 218.294 120.757 212.93 118.108C207.57 115.464 200.981 111.333 198.723 109.694C197.384 108.717 196.689 107.731 196.703 106.692C196.707 106.283 196.698 104.597 196.698 104.163Z" fill="#BA68C8"/>
<path opacity="0.25" d="M196.698 104.163C196.702 102.838 197.865 101.419 200.328 99.8228C204.873 96.8736 221.3 87.2931 227.665 83.7676C227.674 83.7197 227.717 83.7152 227.717 83.7152C232.615 80.7426 235.563 60.5315 238.955 49.7785C238.986 49.6776 239.225 48.8516 239.665 47.8006C239.685 47.7515 239.707 47.7059 239.727 47.6575C239.787 47.5144 239.852 47.3691 239.92 47.2197C239.953 47.1479 239.984 47.071 240.017 47.0008L240.021 47.002C240.57 45.8449 241.325 44.5778 242.285 43.733C242.366 43.6618 242.748 43.2867 243.394 42.9527C243.946 42.6415 245.102 41.9979 245.391 41.8287C248.718 39.8376 253.082 42.2271 258.521 45.2048C261.902 47.0596 264.788 49.2632 266.544 53.37H266.544C267.387 55.3377 267.969 57.7482 268.227 60.7641C268.708 66.4333 266.789 84.7913 265.636 92.9999L265.64 92.9954C263.973 106.711 261.929 106.735 258.956 109.032C253.844 112.981 239.142 120.723 234.288 122.634C225.488 126.097 218.294 120.757 212.93 118.108C207.57 115.464 200.981 111.333 198.723 109.694C197.384 108.717 196.689 107.731 196.703 106.692C196.707 106.283 196.698 104.597 196.698 104.163Z" fill="#4281FD"/>
<path d="M212.931 115.558C207.57 112.911 200.98 108.78 198.723 107.142C195.673 104.927 195.954 102.66 200.326 99.8245C206.399 95.8841 231.158 81.8353 231.158 81.8353C231.158 81.8353 262.458 100.307 261.112 103.718C259.765 107.129 240.391 117.682 234.288 120.083C225.486 123.545 218.293 118.206 212.931 115.558Z" fill="#BA68C8"/>
<path opacity="0.6" d="M212.931 115.558C207.57 112.911 200.98 108.78 198.723 107.142C195.673 104.927 195.954 102.66 200.326 99.8245C206.399 95.8841 231.158 81.8353 231.158 81.8353C231.158 81.8353 262.458 100.307 261.112 103.718C259.765 107.129 240.391 117.682 234.288 120.083C225.486 123.545 218.293 118.206 212.931 115.558Z" fill="#1877F2"/>
<path d="M243.394 42.9527C246.689 41.2233 250.971 43.5746 256.267 46.4765C259.66 48.3364 262.551 50.54 264.307 54.664L266.543 53.3712C264.787 49.2638 261.902 47.0602 258.52 45.2059C253.082 42.2277 248.718 39.8388 245.39 41.8293C245.101 41.998 243.946 42.6421 243.394 42.9527Z" fill="#BA68C8"/>
<path opacity="0.5" d="M243.394 42.9527C246.689 41.2233 250.971 43.5746 256.267 46.4765C259.66 48.3364 262.551 50.54 264.307 54.664L266.543 53.3712C264.787 49.2638 261.902 47.0602 258.52 45.2059C253.082 42.2277 248.718 39.8388 245.39 41.8293C245.101 41.998 243.946 42.6421 243.394 42.9527Z" fill="white"/>
<path d="M227.717 83.7153C227.717 83.7153 230.909 84.7635 242.295 90.3564C246.969 92.6478 250.042 94.9637 254.42 97.7168C260.861 101.771 260.371 104.782 260.371 104.782C263.572 102.128 266.763 71.3503 265.977 62.0365C265.705 58.8348 265.067 56.3194 264.142 54.285C264.057 54.1038 263.971 53.9231 263.88 53.7418C263.818 53.6181 263.756 53.4939 263.69 53.3747C263.661 53.3177 263.628 53.2602 263.595 53.2032C263.342 52.7454 263.071 52.3168 262.785 51.907C262.713 51.8021 262.642 51.7023 262.57 51.6066C262.494 51.5063 262.423 51.4065 262.346 51.3113C262.275 51.2161 262.194 51.1209 262.118 51.0258C262.056 50.9494 261.989 50.873 261.922 50.7972C261.556 50.3685 261.169 49.9684 260.765 49.5968C260.664 49.4964 260.564 49.4064 260.46 49.3158C259.817 48.7537 259.135 48.239 258.421 47.7676C258.311 47.6912 258.202 47.62 258.092 47.5533C257.944 47.4581 257.797 47.3629 257.644 47.2723C257.52 47.1959 257.396 47.1195 257.268 47.0483C256.939 46.8534 256.605 46.6624 256.267 46.4766C252.218 44.2616 248.764 42.3606 245.886 42.3606C243.735 42.3606 242.442 43.5947 242.285 43.7326C240.159 45.6045 239.026 49.5495 238.955 49.7786C235.563 60.5317 232.614 80.7427 227.717 83.7153Z" fill="#BA68C8"/>
<path opacity="0.4" d="M227.717 83.7153C227.717 83.7153 230.909 84.7635 242.295 90.3564C246.969 92.6478 250.042 94.9637 254.42 97.7168C260.861 101.771 260.371 104.782 260.371 104.782C263.572 102.128 266.763 71.3503 265.977 62.0365C265.705 58.8348 265.067 56.3194 264.142 54.285C264.057 54.1038 263.971 53.9231 263.88 53.7418C263.818 53.6181 263.756 53.4939 263.69 53.3747C263.661 53.3177 263.628 53.2602 263.595 53.2032C263.342 52.7454 263.071 52.3168 262.785 51.907C262.713 51.8021 262.642 51.7023 262.57 51.6066C262.494 51.5063 262.423 51.4065 262.346 51.3113C262.275 51.2161 262.194 51.1209 262.118 51.0258C262.056 50.9494 261.989 50.873 261.922 50.7972C261.556 50.3685 261.169 49.9684 260.765 49.5968C260.664 49.4964 260.564 49.4064 260.46 49.3158C259.817 48.7537 259.135 48.239 258.421 47.7676C258.311 47.6912 258.202 47.62 258.092 47.5533C257.944 47.4581 257.797 47.3629 257.644 47.2723C257.52 47.1959 257.396 47.1195 257.268 47.0483C256.939 46.8534 256.605 46.6624 256.267 46.4766C252.218 44.2616 248.764 42.3606 245.886 42.3606C243.735 42.3606 242.442 43.5947 242.285 43.7326C240.159 45.6045 239.026 49.5495 238.955 49.7786C235.563 60.5317 232.614 80.7427 227.717 83.7153Z" fill="url(#paint0_linear_3335_2070)"/>
<path d="M204.935 131.721C204.935 131.721 209.865 140.505 210.656 144.114C211.481 147.874 212.623 148.986 212.641 153.212C212.645 154.132 212.458 156.007 212.457 156.755C212.457 157.421 212.791 157.905 213.672 157.947C215.409 158.029 217.695 154.509 218.473 150.941C219.252 147.373 219.893 139.496 219.861 138.57C219.831 137.677 219.355 136.633 218.895 135.998C218.088 134.883 217.898 134.743 217.898 134.743C217.071 133.177 216.291 130.081 215.467 127.981L204.935 131.721Z" fill="#C8856A"/>
<path d="M223.715 141.521C223.715 141.521 224.264 142.213 224.369 142.695C224.533 143.445 223.196 146.205 222.659 147.218C222.123 148.231 221.639 149.471 222.104 151.722C222.6 154.128 221.89 156.627 220.619 158.87C219.349 161.113 216.935 163.726 213.055 165.583C209.176 167.44 207.409 165.66 207.409 165.66C207.409 165.66 205.829 163.926 206.46 163.02C207.092 162.112 223.715 141.521 223.715 141.521Z" fill="#263238"/>
<path d="M217.899 134.742C218.022 134.718 218.235 134.65 218.617 134.978C218.762 135.102 219.8 136.784 220.572 137.632C221.398 138.539 223.257 140.021 223.715 141.52C223.255 144.627 220.754 147.124 220.786 149.986C220.818 152.847 221.3 156.099 217.47 160.196C213.641 164.293 209.186 165.34 207.416 164.684C205.645 164.028 205.516 162.304 207.246 158.717C209.083 154.909 209.481 147.21 209.481 147.207C209.536 146.141 209.475 145.036 209.387 143.973C209.302 142.939 208.82 141.897 208.571 140.883C208.453 140.404 208.348 139.885 208.544 139.431C208.739 138.977 209.191 138.689 209.618 138.428C210.3 138.012 210.99 137.591 211.749 137.334C212.51 137.076 213.358 136.991 214.118 137.252C214.668 137.44 215.152 137.801 215.718 137.935C216.478 138.114 217.33 137.826 217.812 137.227C218.523 136.343 218.288 135.683 218.078 135.197C218.09 135.18 217.899 134.742 217.899 134.742Z" fill="#37474F"/>
<path d="M219.587 157.059C219.587 157.059 217.333 153.935 212.675 154.67C208.016 155.404 206.784 157.974 206.298 159.448C205.719 161.203 205.322 164.285 207.384 164.835C209.611 165.429 211.971 164.776 215.452 162.337C218.934 159.898 219.587 157.059 219.587 157.059Z" fill="#FAFAFA"/>
<path d="M216.489 143.447C216.367 143.529 216.211 143.557 216.064 143.51C215.285 143.262 211.348 143.067 209.459 145.424C209.135 145.242 209.126 144.821 209.399 144.183C211.731 142.17 215.455 142.336 216.394 142.636C216.641 142.715 216.766 142.974 216.674 143.215C216.638 143.313 216.572 143.392 216.489 143.447Z" fill="#FAFAFA"/>
<path d="M209.415 148.156C209.189 147.777 209.288 147.123 209.479 146.861C211.817 145.107 215.278 145.272 216.18 145.559C216.426 145.637 216.551 145.897 216.46 146.138C216.423 146.236 216.357 146.314 216.275 146.369C216.153 146.451 215.996 146.48 215.849 146.433C215.093 146.192 211.359 146.012 209.415 148.156Z" fill="#FAFAFA"/>
<path d="M208.523 154.613C208.412 154.059 208.525 153.473 208.849 152.87C211.186 150.946 214.824 151.11 215.751 151.405C215.998 151.484 216.123 151.744 216.031 151.984C215.994 152.081 215.928 152.16 215.846 152.216C215.724 152.298 215.567 152.326 215.42 152.279C214.598 152.018 210.259 151.818 208.523 154.613Z" fill="#FAFAFA"/>
<path d="M216.06 149.293C215.938 149.375 215.782 149.403 215.635 149.356C214.864 149.11 211.009 148.924 209.096 151.195C208.926 150.787 208.973 150.314 209.264 149.784C211.603 148.03 215.065 148.194 215.966 148.482C216.212 148.561 216.337 148.82 216.246 149.061C216.209 149.159 216.143 149.238 216.06 149.293Z" fill="#FAFAFA"/>
<path d="M201.964 145.135C201.964 145.135 201.524 153.849 201.133 160.577C200.849 165.467 197.156 167.674 194.098 170.898C193.433 171.6 191.926 172.894 191.381 173.462C190.897 173.967 190.802 174.57 191.448 175.222C192.721 176.507 198.276 177.026 201.468 174.862C204.659 172.698 207.655 167.932 209.573 166.163C210.294 165.499 210.974 164.817 211.624 164.091C212.25 163.39 212.106 162.695 212.186 161.884C212.224 161.493 212.2 160.418 212.2 160.418C212.688 158.517 214.144 152.698 214.817 150.853L201.964 145.135Z" fill="#C8856A"/>
<path d="M213.026 169.073C213.026 169.073 213.053 169.989 212.839 170.458C212.504 171.188 209.634 172.688 208.543 173.21C207.451 173.733 206.26 174.478 205.234 176.652C204.138 178.975 201.962 180.638 199.474 181.744C196.986 182.85 193.298 183.568 188.847 182.756C184.396 181.944 184.024 179.37 184.024 179.37C184.024 179.37 183.78 176.95 184.885 176.574C185.99 176.199 213.026 169.073 213.026 169.073Z" fill="#263238"/>
<path d="M212.378 159.829C212.497 159.884 212.721 159.957 212.837 160.466C212.881 160.658 212.699 162.704 212.818 163.888C212.944 165.155 213.583 167.534 213.026 169.073C210.679 171.399 206.99 171.967 205.213 174.388C203.437 176.809 201.795 179.834 195.975 180.932C190.155 182.031 185.727 180.187 184.643 178.555C183.56 176.922 184.536 175.396 188.261 173.442C192.215 171.369 197.403 165.149 197.405 165.147C198.123 164.286 198.767 163.32 199.363 162.374C199.943 161.455 200.192 160.285 200.62 159.282C200.823 158.808 201.061 158.308 201.512 158.047C201.963 157.785 202.526 157.819 203.052 157.861C203.892 157.928 204.74 157.997 205.545 158.245C206.35 158.493 207.121 158.94 207.599 159.624C207.945 160.119 208.127 160.717 208.522 161.175C209.051 161.789 209.954 162.068 210.739 161.859C211.897 161.552 212.115 160.855 212.243 160.319C212.264 160.313 212.378 159.829 212.378 159.829Z" fill="#37474F"/>
<path d="M199.742 179.593C199.742 179.593 199.804 175.594 195.402 173.363C191 171.133 188.338 172.536 186.998 173.477C185.403 174.597 183.125 176.941 184.522 178.663C186.031 180.523 188.438 181.417 192.919 181.497C197.4 181.577 199.742 179.593 199.742 179.593Z" fill="#FAFAFA"/>
<path d="M205.701 166.274C205.546 166.269 205.395 166.197 205.301 166.068C204.798 165.383 201.592 162.815 198.509 163.638C198.349 163.288 198.607 162.929 199.24 162.56C202.481 162.295 205.526 164.71 206.131 165.536C206.29 165.753 206.232 166.047 206.003 166.194C205.91 166.252 205.805 166.278 205.701 166.274Z" fill="#FAFAFA"/>
<path d="M196.75 165.904C196.798 165.447 197.293 164.958 197.62 164.856C200.703 164.813 203.526 167.066 204.108 167.859C204.267 168.075 204.208 168.369 203.98 168.515C203.887 168.574 203.782 168.601 203.677 168.597C203.522 168.591 203.372 168.519 203.277 168.39C202.789 167.725 199.745 165.292 196.75 165.904Z" fill="#FAFAFA"/>
<path d="M191.926 170.779C192.182 170.245 192.646 169.823 193.3 169.515C196.489 169.328 199.462 171.688 200.06 172.503C200.219 172.719 200.161 173.014 199.932 173.16C199.839 173.219 199.734 173.245 199.63 173.242C199.475 173.236 199.324 173.163 199.229 173.035C198.7 172.312 195.157 169.493 191.926 170.779Z" fill="#FAFAFA"/>
<path d="M201.653 170.919C201.499 170.913 201.348 170.841 201.253 170.712C200.757 170.035 197.615 167.522 194.565 168.26C194.677 167.813 195.016 167.446 195.596 167.178C198.68 167.135 201.503 169.388 202.084 170.181C202.243 170.397 202.185 170.691 201.956 170.837C201.863 170.897 201.758 170.923 201.653 170.919Z" fill="#FAFAFA"/>
<path d="M222.401 79.1914C222.401 79.1914 204.544 88.6882 196.052 97.4485C193.011 100.585 191.118 103.334 194.284 111.475C196.722 117.741 200.941 124.658 204.836 132.771L242.349 88.6568L222.401 79.1914Z" fill="#1F6C91"/>
<path d="M204.309 131.678C210.137 126.415 228.495 96.2446 228.495 96.2446C228.495 96.2446 227.668 96.1135 227.663 96.109C223.145 94.1276 221.299 87.9967 221.299 87.9967C220.747 90.4414 221.747 93.9298 223.256 95.8034C220.701 97.669 214.929 101.903 206.058 108.53C204.514 109.685 201.397 111.869 201.584 116.176C201.829 121.804 202.004 127.337 202.004 127.337L204.309 131.678Z" fill="#37474F"/>
<path d="M222.505 79.2745L258.844 83.4789C258.841 87.9146 258.167 96.667 254.811 101.661C252.378 105.281 249.692 107.482 240.249 112.431C231.45 117.045 223.578 120.886 221.565 121.966C220.049 122.78 220.325 126.179 219.862 130.178C219.378 134.373 218.928 136.709 216.614 145.666C215.489 150.02 214.33 153.776 214.33 153.776C214.33 153.776 206.999 154.58 201.55 151.654C201.55 151.654 202.457 129.617 202.748 124.213C202.997 119.592 202.694 115.295 206.229 111.854C209.26 108.903 227.793 96.195 227.793 96.195C227.793 96.195 219.337 87.5373 222.505 79.2745Z" fill="#1F6C90"/>
<path d="M254.972 84.1271L254.46 84.0496C254.248 90.1304 253.408 94.7434 249.021 99.2139C246.234 97.3301 246.81 95.5825 247.855 92.4611C248.17 91.5206 248.527 90.4547 248.828 89.2503C249.442 86.7982 249.712 84.8562 249.794 83.3423L249.279 83.2642C249.203 84.7519 248.943 86.6785 248.331 89.1261C248.035 90.3105 247.681 91.3662 247.369 92.2975C246.326 95.4103 245.639 97.4959 248.653 99.5804C247.651 100.557 246.477 101.529 245.096 102.51C238.554 107.159 229.322 112.613 223.805 115.872C221.877 117.012 220.354 117.912 219.568 118.41C216.371 120.436 216.282 121.642 216.388 127.007C216.481 131.703 213.246 147.375 211.592 153.789C211.776 153.791 211.95 153.79 212.12 153.789C213.793 147.246 216.994 131.69 216.901 126.996C216.794 121.565 216.967 120.665 219.843 118.842C220.622 118.348 222.142 117.451 224.066 116.314C229.589 113.051 238.834 107.589 245.393 102.927C253.428 97.2195 254.701 91.8313 254.972 84.1271Z" fill="#37474F"/>
<path d="M222.611 64.1896L211.065 70.5371C211.065 70.5371 209.736 67.9527 210.652 64.5299C212.055 59.2847 217.876 45.4012 220.241 41.1188C222.606 36.8358 227.324 32.7751 234.499 33.8097L231.459 45.0546L222.611 64.1896Z" fill="#1F6C91"/>
<path d="M223.198 48.9084C224.301 38.2141 229.029 34.1249 234.499 33.8097C234.499 33.8097 242.267 34.3352 246.561 35.2051C251.783 36.263 254.398 37.1972 258.589 38.5207C260.639 39.618 260.969 46.6051 260.922 54.1901C260.889 59.5794 260.405 69.1429 260.044 75.9424C259.683 82.7414 259.177 87.5876 258.209 94.6185C250.633 97.0405 226.354 92.5831 220.755 79.7683C221.539 77.93 222.125 71.5797 222.266 67.9727C222.407 64.3657 222.852 52.2703 223.198 48.9084Z" fill="url(#paint1_linear_3335_2070)"/>
<path d="M248.02 31.3302C248.535 28.3337 251.524 25.2124 252.873 22.6018C254.174 20.0847 254.95 18.1313 254.808 15.7623C254.724 14.359 253.844 12.4552 252.804 12.0539C254.019 6.84125 250.111 4.41248 248.034 3.91316C247.237 3.72164 245.922 3.42524 245.16 3.1049C244.032 2.63009 243.778 1.72037 242.869 0.945168C241.304 -0.390344 238.662 -0.426255 237.651 1.58756C236.61 0.235516 235.195 0.267435 233.558 0.679545C231.997 1.07285 231.254 2.39354 231.41 3.83165C229.226 2.60273 227.215 4.14287 227.012 5.42822C226.862 6.37613 227.062 7.17699 226.439 8.02572C225.738 8.98161 224.416 8.96223 224.016 8.18816C223.787 9.53508 224.311 10.5634 225.773 10.4921C225.268 11.2206 225.134 12.1776 225.387 13.0628C225.729 14.2632 226.935 14.9717 227.907 14.9951C228.06 15.735 228.091 16.4127 228.554 17.0511C228.999 17.6656 229.577 18.2743 230.27 18.6066C232.48 19.6663 234.927 20.0145 237.309 20.5127C238.252 20.7099 239.194 20.9072 240.137 21.105C240.301 21.1397 241.155 21.1933 241.257 21.3398C241.258 21.3404 248.02 31.3302 248.02 31.3302Z" fill="#263238"/>
<path d="M251.66 27.4612C249.55 28.7152 248.125 27.3494 248.125 27.3494L248.255 37.2361C246.603 41.4615 239.373 42.1581 236.747 40.9559C234.122 39.7538 234.455 38.1948 236.168 35.8276L235.989 34.2117C235.989 34.2117 233.832 34.2453 232.424 34.0452C230.075 33.718 228.098 31.4392 227.433 28.8924C226.738 26.2311 226.657 22.0553 227.379 19.175C227.58 18.3725 227.595 17.53 227.512 16.7069C227.29 14.5204 227.686 13.2493 228.255 11.4145C230.846 9.33626 236.828 8.64029 242.398 12.0432C241.747 15.36 243.032 17.9934 245.443 19.2634C245.328 20.1594 245.212 22.4235 246.685 22.3847C247.746 22.3568 247.82 21.0258 248.911 19.8556C250.025 18.6609 252.547 18.3759 253.528 20.107C254.899 22.5278 253.971 26.0874 251.66 27.4612Z" fill="#C8856A"/>
<path d="M242.312 17.5146L249.368 19.4663C249.368 19.4663 248.913 19.6687 248.345 20.6018L242.188 19.162L242.312 17.5146Z" fill="#263238"/>
<path d="M225.294 16.3239C225.257 16.7582 225.468 17.1874 225.582 17.3704C225.642 17.4667 225.692 17.5916 225.705 17.7472C225.764 18.4534 225.703 19.7844 225.915 20.5624C226.128 21.3439 226.634 22.6087 228.554 22.8493C228.927 22.8966 229.264 22.8988 229.567 22.8635C229.593 22.8612 229.619 22.8572 229.645 22.8544C229.966 22.8111 230.25 22.7244 230.503 22.6059C230.52 22.5973 230.538 22.5888 230.555 22.5796C230.581 22.5677 230.606 22.5551 230.631 22.5415C230.653 22.5301 230.675 22.5175 230.727 22.4879C230.757 22.4708 230.786 22.4525 230.815 22.4337C230.849 22.4126 230.881 22.391 230.913 22.3688C230.945 22.3471 230.977 22.3249 231.008 22.2998C231.07 22.253 231.129 22.204 231.187 22.1516C231.512 21.8626 231.766 21.5115 231.976 21.1541C232.521 20.2261 232.585 18.8678 233.292 18.7829C233.318 18.7795 233.347 18.7783 233.376 18.7789C233.404 18.7783 233.434 18.7812 233.465 18.784C234.398 18.8923 234.115 20.3492 234.514 21.459C234.914 22.5797 235.669 23.7168 237.727 23.9556C237.819 23.9665 237.909 23.9739 237.995 23.9801C238.068 23.9841 238.139 23.9876 238.209 23.987C238.387 23.9915 238.556 23.9824 238.713 23.9642C238.768 23.9573 238.821 23.9505 238.873 23.9425C238.925 23.934 238.977 23.9231 239.026 23.9135C239.059 23.9078 239.091 23.8998 239.124 23.8918C239.342 23.8376 239.535 23.7653 239.709 23.6769C239.778 23.641 239.844 23.6045 239.909 23.5652C240.035 23.4871 240.148 23.4027 240.26 23.3058C240.601 23.0054 240.822 22.6589 240.979 22.3744C241.367 21.6682 241.576 20.3487 241.798 19.6783C241.856 19.5005 241.924 19.3802 241.99 19.2987C242.139 19.1146 242.483 18.8034 242.536 18.3685C242.588 17.9353 242.321 17.5277 242.054 17.4605C241.898 17.4217 241.735 17.3824 241.567 17.3442C239.999 16.9902 237.94 16.6961 236.666 16.9104C235.063 17.1835 234.462 17.6338 233.596 17.534C232.787 17.4325 232.328 16.8568 230.923 16.2236C229.805 15.722 227.874 15.539 226.381 15.5265C226.221 15.5247 226.066 15.5259 225.917 15.5282C225.657 15.5327 225.33 15.8907 225.294 16.3239ZM235.399 18.3428C235.496 18.2277 235.666 18.1165 235.886 18.0196C235.913 18.006 235.941 17.9934 235.971 17.9826C235.986 17.9758 236.002 17.9695 236.018 17.9638C236.091 17.9347 236.168 17.9062 236.25 17.8806C236.317 17.8583 236.388 17.8367 236.462 17.8167C236.676 17.7574 236.91 17.7084 237.15 17.6714C237.239 17.6583 237.331 17.6457 237.422 17.6355C237.653 17.6087 237.885 17.5961 238.117 17.5956C238.173 17.595 238.227 17.595 238.278 17.599C239.788 17.6263 240.687 18.0789 240.997 18.4255C241.318 18.7863 241.021 20.1891 240.806 20.9016C240.801 20.9192 240.796 20.9369 240.79 20.9546C240.785 20.9722 240.779 20.9911 240.773 21.0099C240.747 21.0959 240.717 21.1945 240.68 21.2983C240.659 21.3553 240.637 21.4157 240.613 21.4767C240.611 21.4795 240.611 21.4818 240.609 21.4841C240.572 21.5799 240.528 21.6785 240.478 21.7799V21.7811C240.461 21.8141 240.443 21.8483 240.426 21.8814C240.416 21.9008 240.405 21.9207 240.392 21.9413C240.381 21.9635 240.368 21.9857 240.354 22.0079C240.338 22.0359 240.321 22.0644 240.303 22.0912C240.284 22.1225 240.264 22.1533 240.242 22.1835C240.22 22.216 240.197 22.2479 240.171 22.281C240.148 22.3129 240.122 22.3459 240.094 22.3784C239.66 22.9046 238.97 23.3172 237.855 23.201C236.753 23.087 236.094 22.6247 235.701 22.0872L235.7 22.0866C235.313 21.5531 235.184 20.9477 235.138 20.5339C235.049 19.7006 235.054 18.7492 235.399 18.3428ZM226.678 16.7092C226.772 16.6374 226.906 16.5684 227.079 16.512C227.089 16.508 227.098 16.5052 227.109 16.5023C227.163 16.4841 227.219 16.4687 227.28 16.4544C227.313 16.447 227.349 16.4385 227.384 16.4328C227.411 16.4276 227.442 16.4214 227.47 16.4179C227.489 16.414 227.509 16.4117 227.527 16.4088C227.535 16.4065 227.542 16.406 227.549 16.406C227.576 16.402 227.605 16.3986 227.633 16.3951C227.743 16.382 227.86 16.3746 227.985 16.3723C228.046 16.3706 228.11 16.3701 228.174 16.3729C228.211 16.3729 228.249 16.3746 228.288 16.3763C228.317 16.3775 228.346 16.3792 228.375 16.3815C228.452 16.3872 228.533 16.3934 228.614 16.4031C228.643 16.4065 228.672 16.41 228.702 16.4134C228.728 16.4168 228.755 16.4202 228.783 16.4242C228.995 16.4544 229.223 16.4989 229.463 16.5593C230.508 16.8226 231.556 17.436 231.788 17.9108C232.022 18.3873 231.834 19.3153 231.588 20.1064C231.538 20.2632 231.472 20.445 231.38 20.6348C231.375 20.6473 231.367 20.6616 231.36 20.6758C231.352 20.6935 231.343 20.7112 231.334 20.7289C231.327 20.7408 231.322 20.7522 231.315 20.7642C231.304 20.7853 231.293 20.8064 231.28 20.8269C231.255 20.8708 231.23 20.913 231.204 20.9557C231.181 20.9916 231.157 21.0292 231.132 21.0652C231.123 21.0783 231.114 21.0919 231.105 21.1033C231.088 21.1267 231.07 21.1518 231.05 21.1763C231.035 21.1963 231.018 21.2173 231.001 21.239C230.999 21.2419 230.996 21.2458 230.993 21.2493C230.536 21.8056 229.791 22.2519 228.587 22.0832C228.133 22.0216 227.771 21.8785 227.487 21.6859C226.491 21.0139 226.402 19.7479 226.36 19.1659C226.308 18.4226 226.314 16.9857 226.678 16.7092Z" fill="#37474F"/>
<path d="M234.282 20.4084L233.128 25.5476L229.595 23.6991C229.748 23.4785 229.9 23.2636 230.053 23.043C230.132 22.9301 230.211 22.8167 230.285 22.6981C230.432 22.4832 230.579 22.2684 230.731 22.0535C231.138 21.4766 231.545 20.906 231.935 20.4027C232.145 20.1371 232.377 19.8601 232.586 19.6281C232.812 19.3739 233.01 19.1704 233.112 19.0798C233.287 18.9213 233.395 18.8312 233.462 18.7856C234.112 18.8597 234.174 19.5945 234.282 20.4084Z" fill="#AF6152"/>
<path d="M236.452 26.3855C236.391 26.369 236.323 26.3804 236.262 26.4003C236.081 26.4585 235.928 26.5787 235.773 26.6893C235.201 27.098 234.578 27.3579 233.905 27.5409C233.762 27.5797 233.616 27.6007 233.471 27.6224C233.305 27.6463 233.141 27.6709 232.975 27.6948C232.92 27.7028 232.861 27.7125 232.819 27.7495C232.528 28.0072 233.436 28.0225 233.524 28.0225C233.873 28.0214 234.222 27.9804 234.562 27.9006C235.239 27.7415 235.884 27.424 236.395 26.9487C236.474 26.8746 236.553 26.793 236.586 26.6893C236.618 26.5856 236.59 26.455 236.494 26.4026C236.481 26.3952 236.466 26.3895 236.452 26.3855Z" fill="#AF6152"/>
<path d="M235.989 34.2123C239.718 33.7802 242.552 33.3807 244.499 30.684C245.721 28.9928 246.755 26.2699 246.755 26.2699C246.755 26.2699 246.367 29.5708 245.145 31.8046C244.204 33.5266 241.981 35.0445 236.135 35.5358L235.989 34.2123Z" fill="#AF6152"/>
<path d="M236.43 19.911C236.4 20.5124 236.845 21.0214 237.423 21.0487C238.003 21.0761 238.496 20.611 238.526 20.0096C238.555 19.4083 238.111 18.8987 237.532 18.8713C236.953 18.8446 236.46 19.3097 236.43 19.911Z" fill="#263238"/>
<path d="M237.919 15.5425L240.333 16.402C240.556 15.7123 240.195 14.9605 239.528 14.7234C238.862 14.4857 238.141 14.8528 237.919 15.5425Z" fill="#263238"/>
<path d="M228.439 15.4517L231.006 15.1662C230.954 14.4491 230.337 13.931 229.627 14.0102C228.918 14.0883 228.387 14.7341 228.439 15.4517Z" fill="#263238"/>
<path d="M228.441 18.9124C228.463 19.5137 228.951 19.9828 229.529 19.9594C230.108 19.9361 230.559 19.4299 230.537 18.8286C230.514 18.2272 230.027 17.7581 229.448 17.7815C228.869 17.8043 228.418 18.3104 228.441 18.9124Z" fill="#263238"/>
<path d="M258.589 38.5209C264.126 40.2314 266.542 46.046 265.382 51.7705C263.795 59.6041 259.909 69.5893 257.475 74.5187C255.333 78.8581 254.248 79.4652 252.039 79.7935L248.734 62.3937L253.315 49.49C253.315 49.49 256.061 39.6466 258.589 38.5209Z" fill="#1F6C91"/>
<path d="M246.561 46.7528C245.826 42.59 246.089 40.6743 244.788 38.6262C244.031 37.4355 241.62 34.7406 240.838 33.9779C240.055 33.2152 238.476 32.175 237.226 31.1336C235.976 30.0922 235.611 29.8061 234.094 29.8294C232.011 29.8608 230.366 29.8351 229.619 30.2227C228.873 30.6103 228.992 31.125 229.809 31.6979C230.601 32.2536 232.104 32.1733 232.58 32.2268C233.056 32.2799 234.119 32.5267 234.119 32.5267L236.498 34.9366C236.498 34.9366 233.433 36.1097 232.874 36.5628C232.316 37.016 232.081 38.7237 232.517 39.5605C232.517 39.5605 231.499 40.5643 232.167 41.6256C232.167 41.6256 231.627 42.6841 232.255 43.3544C232.882 44.0242 234.081 44.841 234.531 45.1026C234.98 45.3642 236.523 45.1659 236.523 45.1659C236.523 45.1659 236.896 46.9602 237.396 48.0313C238.214 49.7829 239.126 49.9134 239.474 51.445L246.561 46.7528Z" fill="#C8856A"/>
<path d="M246.561 46.7528C246.307 45.3796 246.136 43.9922 245.958 42.6083C245.786 41.2312 245.518 39.8261 244.75 38.6553C243.969 37.5068 243.033 36.4614 242.11 35.4183C241.642 34.903 241.174 34.3809 240.672 33.9049C240.158 33.4404 239.591 33.03 239.034 32.6116C238.474 32.1949 237.911 31.7794 237.367 31.3388C236.822 30.9056 236.31 30.4108 235.688 30.1315C235.06 29.8568 234.348 29.9058 233.654 29.9121C232.956 29.9229 232.259 29.9286 231.564 29.9628C230.881 30.0118 230.15 30.0289 229.567 30.3504C229.428 30.4359 229.295 30.5414 229.24 30.6753C229.181 30.8064 229.216 30.958 229.302 31.0914C229.478 31.3542 229.768 31.581 230.052 31.7355C230.657 32.0313 231.369 32.0747 232.057 32.1089C232.231 32.1168 232.404 32.1197 232.586 32.1374L233.103 32.2388L234.137 32.4423L234.161 32.4469L234.179 32.4657L236.553 34.8808L236.636 34.9651L236.526 35.0085C235.42 35.4417 234.303 35.8714 233.251 36.4095C232.678 36.629 232.503 37.2514 232.405 37.8174C232.323 38.3903 232.327 39.0099 232.573 39.5291L232.592 39.5702L232.561 39.6038C232.314 39.8671 232.118 40.1983 232.037 40.5511C231.951 40.9063 232.024 41.2825 232.216 41.592L232.232 41.6193L232.218 41.6501C231.995 42.1312 231.893 42.7491 232.201 43.1994C232.547 43.616 233.002 43.9655 233.442 44.3023C233.666 44.4693 233.894 44.6312 234.126 44.7863C234.366 44.9322 234.578 45.1226 234.853 45.1488C235.397 45.2252 235.964 45.1761 236.516 45.1214L236.554 45.1174L236.563 45.1545C236.82 46.2899 237.085 47.4493 237.65 48.4753C237.925 48.9929 238.307 49.4409 238.683 49.8895C239.067 50.3335 239.352 50.8659 239.472 51.4416C239.345 50.8664 239.055 50.3415 238.666 49.9026C238.286 49.4591 237.896 49.0128 237.613 48.4952C237.031 47.4664 236.752 46.3087 236.48 45.1704L236.527 45.2035C235.967 45.2673 235.404 45.3186 234.837 45.2422C234.537 45.212 234.304 45.008 234.071 44.8678C233.836 44.7127 233.607 44.5508 233.38 44.3838C232.932 44.0424 232.484 43.7067 232.111 43.2609C231.767 42.7536 231.881 42.105 232.113 41.5948L232.115 41.653C231.907 41.3229 231.825 40.9063 231.916 40.5232C232.005 40.1402 232.204 39.7987 232.471 39.5115L232.46 39.5861C232.191 39.0201 232.191 38.3897 232.272 37.7952C232.318 37.4965 232.394 37.1995 232.525 36.9208C232.643 36.6307 232.917 36.4078 233.183 36.2835C234.25 35.7318 235.36 35.3009 236.469 34.8608L236.441 34.9891L234.057 32.5842L234.098 32.6076L233.077 32.411L232.566 32.3129C232.4 32.2975 232.224 32.2947 232.05 32.2878C231.355 32.2548 230.628 32.2223 229.969 31.8968C229.647 31.7161 229.366 31.5001 229.151 31.1843C229.049 31.0293 228.99 30.8024 229.079 30.6069C229.162 30.4148 229.325 30.298 229.478 30.2022C230.136 29.8488 230.863 29.8494 231.556 29.7986C232.256 29.7667 232.954 29.7644 233.652 29.7565C234.34 29.7542 235.076 29.7017 235.746 29.9964C236.405 30.2974 236.912 30.7984 237.453 31.2311C237.993 31.6711 238.552 32.0883 239.11 32.5073C239.667 32.9285 240.232 33.3406 240.753 33.8154C241.262 34.3017 241.725 34.8232 242.193 35.3425C243.114 36.393 244.043 37.4384 244.829 38.6035C245.605 39.797 245.848 41.2237 246.007 42.6009C246.169 43.9894 246.324 45.3768 246.561 46.7528Z" fill="#AF6152"/>
<path d="M235.123 35.4856C234.314 35.3004 234.052 34.8227 233.392 35.2229C232.732 35.623 233.155 36.3828 233.155 36.3828L235.123 35.4856Z" fill="#AF6152"/>
<path d="M232.553 39.6277C232.553 39.6277 233.038 38.991 233.911 38.3464C234.383 37.9975 235.396 37.4144 235.396 37.4144C235.396 37.4144 234.149 37.7467 233.291 38.343C232.466 38.9158 232.357 39.0458 232.349 39.0549C232.386 39.2424 232.441 39.4151 232.517 39.561L232.553 39.6277Z" fill="#AF6152"/>
<path d="M232.648 40.7147C232.369 40.896 232.146 41.0767 231.987 41.2163C232.023 41.3503 232.117 41.5669 232.203 41.7048C232.509 41.0379 233.968 40.094 233.968 40.094C233.968 40.094 233.234 40.3328 232.648 40.7147Z" fill="#AF6152"/>
<path d="M236.523 45.1653C236.117 44.3331 235.432 43.7557 234.874 43.3168C234.317 42.8773 233.442 43.1196 233.298 43.4587C233.154 43.7979 234.176 43.5687 234.501 43.6457C234.826 43.7221 235.843 44.4289 236.523 45.1653Z" fill="#AF6152"/>
<path d="M237.353 34.695C237.353 34.695 236.62 33.9819 235.339 32.8704C234.058 31.7583 234.157 31.9362 233.11 31.9225C232.132 31.9094 230.089 31.9259 229.457 31.4141C229.554 31.507 229.67 31.6016 229.808 31.6985C230.6 32.2542 232.103 32.1739 232.579 32.2275C233.055 32.2805 234.118 32.5273 234.118 32.5273L236.566 35.0068L237.353 34.695Z" fill="#AF6152"/>
<path d="M246.561 46.7527C247.198 50.4349 255.948 64.5515 256.666 67.9881C257.384 71.4246 254.945 77.8799 253.216 79.2102C251.488 80.5406 247.53 78.911 245.564 75.068C243.597 71.2251 240.575 56.7089 239.474 51.4438L246.561 46.7527Z" fill="#C8856A"/>
<path d="M257.722 75.4021C257.398 75.9629 256.692 76.4851 256.604 77.0813C256.384 78.5679 253.248 79.3641 252.071 80.4295C248.732 82.6023 240.36 82.5807 233.996 81.5643C223.63 79.9056 214.816 75.0812 212.088 72.1132C210.447 70.3308 210.792 68.9759 211.334 68.0992C212.331 66.4867 213.529 65.8774 214.205 65.4424C217.053 63.6093 221.272 63.7558 222.418 64.0699C225.733 66.1105 230.237 69.8263 233.918 71.3625C235.551 72.0436 237.618 72.6148 238.601 72.572C239.718 72.5247 240.377 72.5133 241.021 71.8418C242.073 70.7372 243.238 69.9158 244.591 69.2244C245.66 68.6738 246.263 68.1933 247.588 67.1103C247.859 66.8806 248.335 67.047 248.595 67.2967C248.863 67.5469 248.905 67.9539 248.852 68.3221C248.608 70.1478 247.131 71.4121 246.143 72.873C245.867 73.28 245.612 73.7542 245.697 74.2284C245.781 74.7107 246.201 75.0823 246.662 75.2487C248.002 75.7458 254.833 75.7692 258.007 73.3928C258.007 73.3928 258.162 74.6149 257.722 75.4021Z" fill="#C8856A"/>
<path d="M241.02 71.8418C241.871 70.903 242.876 70.1016 243.973 69.4546C244.528 69.1343 245.091 68.8618 245.602 68.4982C246.117 68.1419 246.602 67.7395 247.088 67.3359L247.451 67.0321C247.57 66.9027 247.817 66.8247 247.996 66.8514C248.368 66.8988 248.694 67.0868 248.891 67.426C249.065 67.7623 249.053 68.1351 248.994 68.4554C248.951 68.782 248.847 69.0978 248.732 69.4033C248.236 70.6305 247.319 71.5671 246.585 72.572C246.223 73.0667 245.814 73.5974 245.863 74.14C245.922 74.6781 246.469 75.0828 247.045 75.1774C248.257 75.4037 249.537 75.3678 250.787 75.3268C252.044 75.259 253.298 75.0999 254.523 74.8086C255.745 74.5236 256.958 74.111 258.006 73.3928C256.994 74.1606 255.787 74.6377 254.567 74.9836C253.338 75.3142 252.074 75.5069 250.806 75.6101C249.535 75.6956 248.261 75.7263 246.976 75.5063C246.332 75.402 245.614 74.9466 245.513 74.1788C245.458 73.4116 245.939 72.8604 246.289 72.3525C247.053 71.3311 247.952 70.4179 248.421 69.2779C248.53 68.9941 248.629 68.7045 248.672 68.4024C248.732 68.1083 248.729 67.8085 248.61 67.5759C248.499 67.3587 248.218 67.1889 247.967 67.1581C247.833 67.149 247.746 67.161 247.639 67.2596L247.265 67.5554C246.768 67.9476 246.267 68.3409 245.73 68.6914C245.197 69.0482 244.611 69.3167 244.06 69.6114C242.948 70.1985 241.914 70.944 241.02 71.8418Z" fill="#AF6152"/>
<path d="M148.077 144.555L141.426 106.197L137.219 105.984L145.959 144.549H145.963C145.983 144.683 146.073 144.816 146.244 144.926C146.646 145.186 147.317 145.22 147.743 145.002C147.969 144.886 148.078 144.722 148.072 144.555H148.077Z" fill="#263238"/>
<path d="M85.5233 99.8972H81.311L71.4101 139.739H71.4152C71.4015 139.905 71.5007 140.074 71.7213 140.201C72.1357 140.441 72.8077 140.441 73.2221 140.201C73.3977 140.1 73.4946 139.972 73.5214 139.839H73.5259L85.5233 99.8972Z" fill="#37474F"/>
<path d="M114.657 162.833L114.47 119.875L110.264 119.661L112.539 162.827H112.544C112.564 162.96 112.654 163.094 112.824 163.204C113.226 163.464 113.897 163.498 114.323 163.28C114.549 163.164 114.658 163 114.652 162.833H114.657V162.833Z" fill="#37474F"/>
<path d="M108.513 86.5308H104.3L97.5571 128.862H97.5623C97.5486 129.029 97.6478 129.198 97.8684 129.325C98.2828 129.565 98.9548 129.565 99.3697 129.325C99.5453 129.224 99.6422 129.096 99.669 128.963L99.6736 128.964L108.513 86.5308Z" fill="#263238"/>
<path d="M73.3971 53.3711C72.554 55.3387 71.9726 57.7493 71.715 60.7651C71.2339 66.4344 73.1525 84.7924 74.3056 93.001L74.3011 92.9964C75.9683 106.712 78.0124 106.736 80.9855 109.033C86.0972 112.982 100.8 120.724 105.654 122.635C114.454 126.098 121.648 120.758 127.012 118.109C132.372 115.465 138.961 111.334 141.219 109.695C142.557 108.718 143.253 107.732 143.239 106.694C143.234 106.284 143.243 104.598 143.243 104.164C143.239 102.839 142.076 101.42 139.613 99.8233C135.068 96.8741 118.641 87.2936 112.276 83.7681C112.267 83.7202 112.224 83.7157 112.224 83.7157C107.326 80.7431 104.378 60.532 100.986 49.779C100.915 49.5504 100.843 49.3264 100.767 49.112C100.71 48.9405 100.648 48.7735 100.591 48.6116C100.377 48.0256 100.158 47.4921 99.9243 47.0013" fill="#BA68C8"/>
<path d="M143.243 104.163C143.239 102.838 142.076 101.419 139.613 99.8227C135.068 96.8735 118.642 87.293 112.276 83.7675C112.267 83.7196 112.224 83.7151 112.224 83.7151C107.326 80.7425 104.378 60.5314 100.986 49.7783C100.955 49.6775 100.716 48.8515 100.276 47.8004C100.256 47.7514 100.234 47.7058 100.215 47.6574C100.154 47.5143 100.089 47.3689 100.021 47.2196C99.9882 47.1478 99.9569 47.0708 99.9238 47.0007L99.9198 47.0019C99.3709 45.8448 98.6157 44.5777 97.6564 43.7329C97.5754 43.6617 97.193 43.2866 96.5466 42.9526C95.9954 42.6414 94.8394 41.9978 94.5504 41.8285C91.2228 39.8375 86.8594 42.227 81.421 45.2047C78.0392 47.0594 75.1539 49.2631 73.3977 53.3699C72.5547 55.3376 71.9727 57.7481 71.7151 60.764C71.234 66.4332 73.1526 84.7912 74.3057 92.9998L74.3012 92.9952C75.9684 106.711 78.0124 106.735 80.9856 109.032C86.0973 112.981 100.8 120.723 105.654 122.634C114.454 126.097 121.648 120.757 127.012 118.108C132.372 115.464 138.961 111.333 141.219 109.694C142.558 108.717 143.253 107.731 143.239 106.692C143.234 106.283 143.243 104.596 143.243 104.163Z" fill="#BA68C8"/>
<path opacity="0.25" d="M143.243 104.163C143.239 102.838 142.076 101.419 139.613 99.8227C135.068 96.8735 118.642 87.293 112.276 83.7675C112.267 83.7196 112.224 83.7151 112.224 83.7151C107.326 80.7425 104.378 60.5314 100.986 49.7783C100.955 49.6775 100.716 48.8515 100.276 47.8004C100.256 47.7514 100.234 47.7058 100.215 47.6574C100.154 47.5143 100.089 47.3689 100.021 47.2196C99.9882 47.1478 99.9569 47.0708 99.9238 47.0007L99.9198 47.0019C99.3709 45.8448 98.6157 44.5777 97.6564 43.7329C97.5754 43.6617 97.193 43.2866 96.5466 42.9526C95.9954 42.6414 94.8394 41.9978 94.5504 41.8285C91.2228 39.8375 86.8594 42.227 81.421 45.2047C78.0392 47.0594 75.1539 49.2631 73.3977 53.3699C72.5547 55.3376 71.9727 57.7481 71.7151 60.764C71.234 66.4332 73.1526 84.7912 74.3057 92.9998L74.3012 92.9952C75.9684 106.711 78.0124 106.735 80.9856 109.032C86.0973 112.981 100.8 120.723 105.654 122.634C114.454 126.097 121.648 120.757 127.012 118.108C132.372 115.464 138.961 111.333 141.219 109.694C142.558 108.717 143.253 107.731 143.239 106.692C143.234 106.283 143.243 104.596 143.243 104.163Z" fill="white"/>
<path d="M127.01 115.558C132.37 112.911 138.961 108.78 141.217 107.142C144.268 104.927 143.987 102.66 139.615 99.8244C133.542 95.884 108.783 81.8352 108.783 81.8352C108.783 81.8352 77.4828 100.307 78.8292 103.718C80.1755 107.129 99.5493 117.682 105.653 120.083C114.455 123.545 121.648 118.206 127.01 115.558Z" fill="#BA68C8"/>
<path opacity="0.6" d="M127.01 115.558C132.37 112.911 138.961 108.78 141.217 107.142C144.268 104.927 143.987 102.66 139.615 99.8244C133.542 95.884 108.783 81.8352 108.783 81.8352C108.783 81.8352 77.4828 100.307 78.8292 103.718C80.1755 107.129 99.5493 117.682 105.653 120.083C114.455 123.545 121.648 118.206 127.01 115.558Z" fill="white"/>
<path d="M96.5466 42.9526C93.252 41.2232 88.9701 43.5745 83.6737 46.4764C80.2811 48.3363 77.39 50.5399 75.6338 54.6638L73.3977 53.3711C75.1539 49.2637 78.0392 47.06 81.4211 45.2058C86.8594 42.2276 91.2228 39.8387 94.5499 41.8291C94.8394 41.9979 95.9954 42.642 96.5466 42.9526Z" fill="#BA68C8"/>
<path opacity="0.5" d="M96.5466 42.9526C93.252 41.2232 88.9701 43.5745 83.6737 46.4764C80.2811 48.3363 77.39 50.5399 75.6338 54.6638L73.3977 53.3711C75.1539 49.2637 78.0392 47.06 81.4211 45.2058C86.8594 42.2276 91.2228 39.8387 94.5499 41.8291C94.8394 41.9979 95.9954 42.642 96.5466 42.9526Z" fill="white"/>
<path d="M100.986 49.7791C100.915 49.5505 99.7812 45.605 97.6562 43.7331C97.4995 43.5946 96.2056 42.3611 94.0544 42.3611C91.177 42.3611 87.7228 44.262 83.6735 46.4771C83.3355 46.6629 83.0015 46.8538 82.6732 47.0488C82.5444 47.12 82.4207 47.1964 82.297 47.2728C82.1448 47.3634 81.9966 47.4586 81.849 47.5538C81.7395 47.6205 81.6301 47.6917 81.5201 47.7681C80.8053 48.2395 80.1242 48.7542 79.4812 49.3162C79.3763 49.4069 79.276 49.4975 79.1762 49.5972C78.7715 49.9689 78.3856 50.369 78.0186 50.7977C77.9519 50.874 77.8852 50.9499 77.8231 51.0262C77.7467 51.1214 77.6657 51.2166 77.5945 51.3118C77.5181 51.407 77.4469 51.5073 77.3705 51.6071C77.2992 51.7023 77.228 51.8026 77.1562 51.9075C76.87 52.3173 76.5987 52.7459 76.3462 53.2036C76.3131 53.2606 76.2795 53.3176 76.251 53.3752C76.1843 53.4943 76.1222 53.618 76.0606 53.7423C75.97 53.9235 75.8845 54.1042 75.7984 54.2855C74.8744 56.3198 74.2355 58.8352 73.9642 62.0369C73.1781 71.3508 76.369 102.129 79.5701 104.782C79.5701 104.782 79.0793 101.772 85.5204 97.7173C89.8985 94.9636 92.9714 92.6483 97.6454 90.3569C109.032 84.764 112.224 83.7158 112.224 83.7158C107.326 80.7427 104.378 60.5316 100.986 49.7791Z" fill="#BA68C8"/>
<path opacity="0.4" d="M100.986 49.7791C100.915 49.5505 99.7812 45.605 97.6562 43.7331C97.4995 43.5946 96.2056 42.3611 94.0544 42.3611C91.177 42.3611 87.7228 44.262 83.6735 46.4771C83.3355 46.6629 83.0015 46.8538 82.6732 47.0488C82.5444 47.12 82.4207 47.1964 82.297 47.2728C82.1448 47.3634 81.9966 47.4586 81.849 47.5538C81.7395 47.6205 81.6301 47.6917 81.5201 47.7681C80.8053 48.2395 80.1242 48.7542 79.4812 49.3162C79.3763 49.4069 79.276 49.4975 79.1762 49.5972C78.7715 49.9689 78.3856 50.369 78.0186 50.7977C77.9519 50.874 77.8852 50.9499 77.8231 51.0262C77.7467 51.1214 77.6657 51.2166 77.5945 51.3118C77.5181 51.407 77.4469 51.5073 77.3705 51.6071C77.2992 51.7023 77.228 51.8026 77.1562 51.9075C76.87 52.3173 76.5987 52.7459 76.3462 53.2036C76.3131 53.2606 76.2795 53.3176 76.251 53.3752C76.1843 53.4943 76.1222 53.618 76.0606 53.7423C75.97 53.9235 75.8845 54.1042 75.7984 54.2855C74.8744 56.3198 74.2355 58.8352 73.9642 62.0369C73.1781 71.3508 76.369 102.129 79.5701 104.782C79.5701 104.782 79.0793 101.772 85.5204 97.7173C89.8985 94.9636 92.9714 92.6483 97.6454 90.3569C109.032 84.764 112.224 83.7158 112.224 83.7158C107.326 80.7427 104.378 60.5316 100.986 49.7791Z" fill="white"/>
<path d="M124.522 126.348C121.477 126.047 118.965 128.565 118.745 129.349C118.447 130.41 118.636 132.529 119.964 135.103C121.115 137.336 121.73 140.896 121.593 143.3C121.455 145.704 120.526 151.722 123.049 154.641C125.572 157.562 131.036 159.989 132.799 155.808C133.375 154.441 131.955 149.82 131.275 146.436C129.919 139.694 128.819 132.989 128.819 132.989L124.522 126.348Z" fill="#263238"/>
<path d="M123.764 131.793C124.192 134.149 124.814 138.074 124.884 141.714C124.953 145.354 125.807 147.718 127.12 149.297C128.568 151.039 132.069 151.918 131.526 148.185C131.148 145.586 128.82 132.99 128.82 132.99L123.764 131.793Z" fill="#FFBDA7"/>
<path opacity="0.15" d="M119.711 128.117C119.649 130.361 121.067 136.269 124.274 141.143C127.418 145.923 131.976 151.516 132.929 154.973C132.953 153.369 132.176 150.459 131.585 147.866C131.572 147.809 131.559 147.752 131.547 147.695C131.512 147.544 131.479 147.396 131.447 147.247C131.431 147.178 131.416 147.11 131.402 147.042C131.36 146.85 131.321 146.66 131.283 146.474C131.281 146.461 131.278 146.449 131.275 146.436C130.852 144.33 130.453 142.226 130.105 140.33C129.827 138.814 129.581 137.429 129.381 136.282C129.281 135.708 129.192 135.193 129.116 134.751C129.078 134.53 129.044 134.326 129.013 134.143C128.889 133.409 128.82 132.99 128.82 132.99L124.523 126.348C124.318 126.328 124.126 126.328 123.933 126.326C122.175 126.353 120.649 127.265 119.711 128.117Z" fill="black"/>
<path d="M133.469 86.2423C123.955 80.0521 113.263 73.5039 113.263 73.5039L81.8196 79.8041L114.521 98.1051L127.989 106.488C127.989 106.488 130.49 106.196 129.103 110.169C128.663 111.431 128.021 113.948 127.35 116.793L134.089 133.347C134.089 133.347 137.15 127.384 141.512 116.584C145.563 106.553 145.513 100.459 144.99 98.2944C144.304 95.4626 141.708 91.6031 133.469 86.2423Z" fill="#455A64"/>
<path d="M112.124 92.0998C118.865 97.118 130.629 105.383 131.915 108.98C132.714 111.206 132.282 124.884 134.089 133.347L135.804 129.792C135.804 129.792 135.549 118.754 135.088 113.233C134.543 106.707 133.001 105.937 130.381 103.175C127.852 100.518 116.493 92.5928 115.575 92.1003C118.547 87.8293 118.965 84.5723 118.6 81.8848C118.6 81.8848 118.244 86.7417 112.124 92.0998Z" fill="#37474F"/>
<path d="M127.018 152.027C126.278 152.007 126.278 153.27 125.892 154.886C125.641 155.934 125.156 157.686 125.837 159.688C126.519 161.69 129.729 161.982 131.401 164.611C133.073 167.24 135.507 171.974 141.222 173.374C146.937 174.773 151.377 173.009 152.505 171.33C153.632 169.65 152.72 167.998 149.106 165.782C145.269 163.429 144.183 162.739 144.183 162.739L127.018 152.027Z" fill="#263238"/>
<path d="M135.673 143.296C135.673 143.296 136.74 149.537 138.317 153.119C139.896 156.699 141.705 159.094 144.57 162.303C145.193 163.002 146.61 164.297 147.119 164.862C147.574 165.366 147.655 165.954 147.029 166.571C145.796 167.788 140.495 168.154 137.487 165.971C134.479 163.787 131.697 159.081 129.897 157.314C129.22 156.65 128.582 155.971 127.975 155.249C127.389 154.552 127.009 153.682 127.029 152.892C127.07 151.359 127.07 150.73 126.918 149.044C126.798 147.693 126.562 146.317 126.196 144.277L135.673 143.296Z" fill="#FFBDA7"/>
<path d="M81.8196 79.8041C81.1305 89.8105 81.6765 93.2915 83.5273 97.0615C85.9339 101.963 88.6927 104.708 96.8368 109.294C103.577 113.089 112.174 116.652 114.185 117.506C116.195 118.36 116.323 120.217 116.583 124.565C116.811 128.381 117.949 129.679 121.533 138.09C125.176 146.64 126.448 148.842 126.448 148.842C126.448 148.842 132.811 151.421 136.838 147.357C136.838 147.357 133.685 113.928 131.915 108.976C130.145 104.022 108.906 90.9243 108.906 90.9243C108.906 90.9243 111.351 82.6393 109.068 76.9131L81.8196 79.8041Z" fill="#455A64"/>
<path d="M110.74 36.1602C113.436 36.6236 116.964 36.721 118.016 42.1531C119.069 47.5853 120.705 64.7588 120.705 64.7588C120.705 64.7588 121.376 65.8469 123.446 68.6856C125.381 71.3395 126.088 72.2201 126.93 72.9919C127.773 73.7637 129.017 74.426 129.017 74.426C129.017 74.426 121.757 79.6723 119.749 76.7397C117.741 73.807 114.22 71.0134 112.535 68.978C110.85 66.9425 110.918 65.6104 110.47 62.0222C109.956 57.8954 109.286 51.516 109.286 51.516L110.74 36.1602Z" fill="#FFBDA7"/>
<path d="M82.6939 57.8795C82.2715 46.5861 85.5314 43.2305 87.0784 39.5244C87.0578 39.5306 90.6392 38.3462 90.6392 38.3462C90.6392 38.3462 102.339 36.1357 107.341 35.9596L110.74 36.1602C113 38.8221 118.643 44.8049 120.284 49.887C121.382 53.2893 120.434 58.2552 116.199 61.0966C115.898 64.5759 116.527 68.7825 116.527 68.7825C116.527 68.7825 118.534 73.0718 118.814 76.7802C117.673 82.4739 109.857 85.8529 99.3385 87.5811C88.0485 89.4359 81.689 85.5605 81.689 85.5605C81.3424 76.1184 83.1077 68.9569 82.6939 57.8795Z" fill="#9F9F9F"/>
<path d="M107.336 63.6508C107.336 63.6508 104.187 67.0891 98.4036 66.087C92.4363 65.053 91.5665 60.0045 91.5665 60.0045C91.5665 60.0045 90.9184 66.5111 98.0474 67.748C104.621 68.8897 107.336 63.6508 107.336 63.6508Z" fill="#E0E0E0"/>
<path d="M90.7554 8.3959C90.455 3.29496 100.193 -2.65015 109.745 3.22998C119.296 9.11011 116.134 15.2091 115.555 17.0548C115.074 18.5881 114.642 20.2092 114.556 21.8194C114.478 23.2946 114.747 24.8319 115.587 26.0465C116.428 27.2612 117.97 27.6158 119.174 27.0942C118.811 29.3708 117.38 31.0962 113.843 32.3684C112.466 32.8638 110.414 32.8546 109.318 32.5827C109.819 32.9624 110.542 33.5637 112.804 33.5905C111.293 35.28 105.077 35.8363 101.189 33.4486C100.966 33.3118 100.684 33.2873 100.423 33.2992C100.102 33.3141 99.8081 33.4714 99.5129 33.5979C97.2494 34.5681 94.4028 34.1959 92.0881 33.6162C90.797 33.293 89.523 32.8199 88.4526 32.0293C87.3821 31.2387 86.526 30.1021 86.2678 28.7968C85.9469 29.9431 86.0546 31.2039 86.5647 32.2789C85.7251 31.9751 84.8861 31.6052 84.2409 30.9885C83.0587 29.8587 82.7235 28.0638 82.9583 26.4455C83.1932 24.8273 83.9177 23.3288 84.5925 21.8394C85.3495 20.1693 85.9697 18.5305 85.9309 16.6797C85.9053 15.4485 85.9092 14.2122 86.135 12.9964C86.5984 10.5003 88.0724 8.55379 90.7554 8.3959Z" fill="#263238"/>
<path d="M93.3369 34.8753C93.3369 33.6715 93.3369 27.6318 93.3369 27.6318C93.2856 28.0815 90.9395 29.3064 88.9861 26.978C86.9814 24.5874 86.9022 22.1729 88.0815 20.5997C89.3845 18.8612 92.5383 18.7631 93.7758 21.555C94.5812 22.5816 96.379 21.396 95.7121 18.6184C95.8905 16.6775 98.6961 14.5691 97.2032 11.2745C102.75 7.61107 108.429 8.13262 111.798 11.0442C112.251 12.3763 112.78 13.6599 112.505 17.8956C112.442 18.8709 113.071 20.806 113.032 21.8588C112.791 28.2679 111.338 30.8318 109.285 31.9056C107.908 32.6256 106.585 32.8895 104.185 32.6848V33.9753C104.228 34.9831 104.144 35.2869 105.123 35.6163C105.781 35.8375 107.341 35.9601 107.341 35.9601C107.341 35.9601 110.312 40.7201 103.333 41.8738C94.2466 43.3752 90.6385 38.3466 90.6385 38.3466C90.6385 38.3466 91.1054 38.1346 92.0818 37.7316C93.0593 37.3275 93.3369 36.733 93.3369 34.8753Z" fill="#FFBDA7"/>
<path d="M104.186 32.6844C101.516 32.4091 100.241 32.2808 98.394 31.4378C97.2632 30.922 95.9031 29.6018 95.5378 28.8557C95.5378 28.8557 96.3232 31.2765 98.0674 32.3065C100.513 33.7497 104.188 34.0205 104.188 34.0205L104.186 32.6844Z" fill="#F0997A"/>
<path d="M105.969 26.3646C106.017 26.3566 106.18 26.3469 106.198 26.2831C106.212 26.2341 106.141 26.1987 106.102 26.1953C105.544 26.1514 104.992 26.0249 104.47 25.8231C104.214 25.7245 104.006 25.6225 103.7 25.4304C103.486 25.2959 103.336 25.1579 103.091 25.065C102.943 25.0086 102.793 25.0656 102.821 25.244C102.865 25.5147 103.165 25.6857 103.375 25.8242C103.68 26.0272 104.142 26.2039 104.576 26.2956C105.003 26.3863 105.534 26.4393 105.969 26.3646Z" fill="#B16668"/>
<path d="M111.524 15.724L108.889 15.0656C109.044 14.3252 109.761 13.8726 110.489 14.0545C111.215 14.2369 111.679 14.9841 111.524 15.724Z" fill="#263238"/>
<path d="M99.9038 16.5973L102.447 15.5485C102.182 14.8297 101.397 14.482 100.695 14.7716C99.9933 15.0617 99.6387 15.8791 99.9038 16.5973Z" fill="#263238"/>
<path d="M109.093 18.3619C109.044 18.9792 109.51 19.5321 110.133 19.5988C110.756 19.6649 111.301 19.2181 111.349 18.6013C111.398 17.984 110.932 17.4305 110.31 17.365C109.686 17.2983 109.141 17.7452 109.093 18.3619Z" fill="#263238"/>
<path d="M101.069 18.9781C101.021 19.5949 101.487 20.1483 102.11 20.2144C102.733 20.2806 103.278 19.8337 103.326 19.2169C103.375 18.5996 102.909 18.0462 102.286 17.9806C101.663 17.9145 101.118 18.3614 101.069 18.9781Z" fill="#263238"/>
<path d="M110.579 22.2739L106.746 24.2706L105.296 17.2043C106.587 17.613 108.606 19.6856 110.579 22.2739Z" fill="#F0997A"/>
<path d="M175.456 170.075L173.215 168.781V225.869L175.456 227.163V170.075Z" fill="#455A64"/>
<path d="M175.456 170.075L177.697 168.781V225.869L175.456 227.163V170.075Z" fill="#37474F"/>
<path d="M247.902 128.264L245.661 126.969V184.056L247.903 185.35L247.902 128.264Z" fill="#455A64"/>
<path d="M247.902 128.263L250.143 126.969V184.056L247.902 185.35V128.263Z" fill="#37474F"/>
<path d="M79.6041 114.655L77.3628 113.361V170.448L79.6041 171.742V114.655Z" fill="#455A64"/>
<path d="M79.6042 114.655L81.8454 113.361V170.448L79.6036 171.742L79.6042 114.655Z" fill="#37474F"/>
<path d="M71.1635 113.625V110.559C71.1635 110.209 71.4086 109.784 71.7119 109.61L155.466 61.2406C155.768 61.0656 156.259 61.0656 156.562 61.2406L259.758 120.958C260.061 121.133 260.306 121.558 260.306 121.907V124.974C260.306 125.323 260.061 125.748 259.758 125.923L176.004 174.292C175.701 174.467 175.21 174.467 174.908 174.292L71.7119 114.574C71.4092 114.4 71.1635 113.975 71.1635 113.625Z" fill="url(#paint2_linear_3335_2070)"/>
<path d="M175.456 170.091V174.423C175.258 174.423 175.059 174.378 174.908 174.294L71.7124 114.576C71.4086 114.399 71.1641 113.977 71.1641 113.627V110.559C71.1641 110.252 71.3539 109.88 71.6115 109.682C71.4132 109.85 71.4468 110.087 71.713 110.243L174.908 169.961C175.06 170.049 175.258 170.091 175.456 170.091Z" fill="url(#paint3_linear_3335_2070)"/>
<path d="M71.7119 110.242L174.908 169.96C175.211 170.135 175.702 170.135 176.004 169.96L259.759 121.591C260.061 121.416 260.061 121.133 259.759 120.958L156.562 61.2406C156.259 61.0656 155.768 61.0656 155.466 61.2406L71.7119 109.609C71.4087 109.784 71.4087 110.067 71.7119 110.242Z" fill="#BA68C8"/>
<g opacity="0.8">
<path d="M71.7119 110.242L174.908 169.96C175.211 170.135 175.702 170.135 176.004 169.96L259.759 121.591C260.061 121.416 260.061 121.133 259.759 120.958L156.562 61.2406C156.259 61.0656 155.768 61.0656 155.466 61.2406L71.7119 109.609C71.4087 109.784 71.4087 110.067 71.7119 110.242Z" fill="#ADC9FF"/>
</g>
<path d="M120.506 77.8846C120.863 78.4244 121.219 78.9636 121.576 79.5034C122.064 80.2427 122.56 80.9882 123.17 81.6346C123.751 82.2496 124.782 82.5911 125.252 83.23C125.464 83.5202 126.156 84.6191 126.068 84.989C125.993 85.31 125.507 85.5368 125.315 85.8053C125.053 86.1724 124.912 86.6272 124.783 87.0536C124.585 87.7068 124.389 88.4227 124.644 89.056C124.72 89.2458 124.835 89.4197 124.899 89.6146C125.008 89.9498 124.955 90.3157 125.013 90.6634C125.119 91.295 125.622 91.8422 126.243 91.9995C126.679 92.1101 127.139 92.04 127.58 91.9533C128.268 91.8188 128.949 91.6467 129.617 91.4375C130.937 91.0248 132.334 90.3499 132.851 89.0668C133.129 88.376 133.122 87.566 133.552 86.9595C133.727 86.7139 133.966 86.5149 134.115 86.2527C134.458 85.6497 134.252 84.8642 134.529 84.2275C134.63 83.9933 134.793 83.7909 134.919 83.568C135.374 82.7603 135.15 81.7936 134.992 80.9249C134.825 80.0107 134.563 79.114 134.211 78.2539C134.064 77.8965 133.899 77.5397 133.641 77.2524C133.429 77.0147 133.161 76.8335 132.894 76.6613C131.882 76.0115 130.842 75.474 129.821 74.8664C128.922 74.3312 127.864 73.8199 126.77 73.8073C125.562 73.7937 124.383 74.4355 123.326 74.9411C122.124 75.5162 120.918 76.1096 119.749 76.7394C120.001 77.1213 120.253 77.5027 120.506 77.8846Z" fill="#FFBDA7"/>
<path d="M129.223 75.8879C129.691 76.3992 130.196 76.8706 130.715 77.326C131.225 77.79 131.749 78.2403 132.286 78.6701C132.557 78.885 132.82 79.0908 133.102 79.288C133.382 79.4921 133.679 79.675 133.944 79.9663C134.07 80.1065 134.21 80.3305 134.167 80.595C134.119 80.8492 133.96 81.0105 133.819 81.1371C133.525 81.3964 133.16 81.5406 132.801 81.6244C132.072 81.7755 131.341 81.6826 130.654 81.511C129.968 81.3332 129.3 81.0738 128.692 80.7176C128.082 80.3676 127.513 79.9646 126.953 79.5553C126.397 79.1398 125.87 78.6901 125.287 78.3173C126.53 78.9431 127.625 79.817 128.852 80.42C129.458 80.729 130.089 80.9798 130.747 81.1325C131.398 81.2864 132.081 81.3491 132.712 81.2117C133.024 81.1445 133.325 81.0288 133.555 80.831C133.805 80.6132 133.86 80.4554 133.651 80.2177C133.233 79.7696 132.562 79.4117 132.071 78.9238C131.046 77.9855 130.035 77.0194 129.223 75.8879Z" fill="#F0997A"/>
<path d="M128.568 84.0583C128.538 84.0508 128.507 84.044 128.478 84.0372C127.826 83.8884 127.178 83.7208 126.535 83.535C126.502 83.4216 126.652 83.3486 126.768 83.3269C128.297 83.0379 129.903 82.8738 131.284 82.1003C132.06 81.6654 132.653 80.8782 132.746 79.9782C132.835 79.1209 131.4 79.6202 130.908 79.6835C130.249 79.7684 129.589 79.8534 128.924 79.8659C126.033 79.9206 125.478 79.8779 121.767 80.2826C119.484 80.5317 117.158 79.777 110.374 77.4856C103.591 75.1942 96.5469 72.4958 96.5469 72.4958C96.5469 72.4958 93.0938 56.2855 92.3466 53.2976C91.5993 50.3096 90.1355 42.646 87.078 39.5247C80.1531 41.7169 77.1532 44.4158 79.3351 55.4795C81.6818 67.3789 83.8969 76.1176 84.4287 78.1029C85.3088 81.3884 86.1107 83.3184 89.3495 84.288C91.8142 85.0255 94.4282 85.4747 102.683 86.8399C106.382 87.452 107.864 87.6333 111.243 88.2763C114.481 88.8924 116.052 89.292 117.528 89.9179C119.004 90.5437 121.548 91.5954 122.884 91.9379C124.168 92.2674 126.246 92.7878 127.566 92.8682C128.838 92.9457 129.699 92.6322 130.644 92.2269C131.767 91.7458 132.26 91.4677 133.061 90.8333C133.424 90.546 133.896 90.2507 134.192 89.8956C134.453 89.5833 134.501 89.117 134.67 88.7488C134.887 88.278 135.542 87.4999 135.685 87.0023C135.838 86.4751 135.71 85.8572 135.653 85.3658C136.04 84.8483 136.348 84.4538 136.426 83.6593C136.469 83.2306 136.463 82.7974 136.43 82.3665C136.419 82.2251 136.371 81.0954 136.266 81.0623C135.897 80.946 135.482 81.088 135.195 81.3473C134.909 81.6067 134.732 81.9669 134.609 82.3334C134.528 82.57 134.462 82.8213 134.295 83.0066C134.121 83.1981 133.866 83.2893 133.621 83.3731C132.633 83.7128 131.513 84.4612 130.447 84.4299C129.837 84.4105 129.169 84.2013 128.568 84.0583Z" fill="#FFBDA7"/>
<path d="M135.008 81.5092C134.688 81.8689 134.577 82.3596 134.393 82.7683C134.194 83.2004 133.677 83.25 133.248 83.4352L131.958 83.987C131.528 84.1597 131.084 84.2988 130.635 84.3233C130.187 84.3381 129.732 84.2315 129.283 84.1175L126.76 83.4614C126.832 83.4443 126.944 83.4272 127.033 83.4101L127.619 83.3093C128.011 83.2426 128.404 83.1759 128.796 83.0961C129.578 82.9365 130.366 82.7273 131.092 82.3579C131.831 82.0125 132.471 81.3781 132.741 80.5847C132.809 80.3863 132.856 80.1845 132.875 79.9713C132.879 79.8562 132.874 79.7222 132.793 79.6065C132.72 79.4834 132.59 79.4275 132.48 79.3922C132.027 79.2993 131.633 79.4179 131.242 79.4937C130.865 79.5923 130.47 79.5911 130.077 79.6424L128.898 79.7616L126.516 79.8311C124.923 79.8824 123.344 80.0865 121.768 80.2826C123.35 80.1383 124.935 80.0124 126.52 79.9907L128.903 79.9708L130.097 79.8756C130.492 79.834 130.899 79.8322 131.295 79.7336C131.675 79.6561 132.08 79.5615 132.412 79.6362C132.572 79.6818 132.633 79.7804 132.619 79.952C132.603 80.1338 132.558 80.3219 132.496 80.4986C132.244 81.2162 131.667 81.7891 130.97 82.11C130.272 82.4537 129.513 82.668 128.742 82.8299C128.356 82.9108 127.966 82.9804 127.575 83.0493L126.988 83.1548C126.885 83.1759 126.804 83.1856 126.682 83.2158C126.623 83.2346 126.565 83.2574 126.505 83.3058C126.446 83.3434 126.376 83.466 126.414 83.5715L126.439 83.6427L126.501 83.6581L129.228 84.3444C129.686 84.4498 130.156 84.5536 130.647 84.5279C131.135 84.4914 131.593 84.3341 132.026 84.15L133.306 83.5715C133.518 83.4763 133.738 83.4136 133.959 83.3115C134.179 83.2158 134.388 83.0402 134.485 82.8134C134.666 82.3676 134.749 81.9071 135.049 81.5411C135.321 81.1792 135.806 80.9306 136.269 81.0612C135.81 80.913 135.302 81.1455 135.008 81.5092Z" fill="#F0997A"/>
<path d="M135.804 85.1526C135.555 85.6622 135.126 86.0583 134.696 86.4157C134.262 86.7742 133.784 87.0752 133.322 87.3744C133.203 87.4474 133.106 87.5215 132.952 87.603C132.813 87.6651 132.676 87.7159 132.538 87.7558C132.261 87.8322 131.988 87.8943 131.71 87.9348C131.156 88.0243 130.6 88.0818 130.04 88.0875L131.657 87.6845C131.922 87.6087 132.19 87.546 132.444 87.4554C132.571 87.4115 132.695 87.3659 132.809 87.3117C132.9 87.2633 133.026 87.1704 133.143 87.0952C133.617 86.7982 134.085 86.5132 134.545 86.2111C134.997 85.9016 135.444 85.5801 135.804 85.1526Z" fill="#F0997A"/>
<path d="M135.046 88.1246C134.812 88.5573 134.478 88.9306 134.119 89.2675C133.76 89.6072 133.36 89.8973 132.935 90.155C132.463 90.4001 131.998 90.5146 131.519 90.6286C131.042 90.7364 130.563 90.8264 130.074 90.8703C130.531 90.6925 130.992 90.5409 131.449 90.383C131.897 90.2177 132.378 90.0792 132.766 89.8688C133.583 89.3781 134.36 88.8166 135.046 88.1246Z" fill="#F0997A"/>
<path opacity="0.2" d="M131.649 136.001L113.084 125.276C112.619 125.008 112.619 124.572 113.084 124.303L138.274 109.76C138.739 109.492 139.494 109.492 139.959 109.76L158.524 120.485C158.989 120.753 158.989 121.189 158.524 121.458L133.335 136.001C132.869 136.27 132.115 136.27 131.649 136.001Z" fill="#BA68C8"/>
<path d="M115.727 124.273L133.027 134.154L156.235 120.835L138.937 110.954L115.727 124.273Z" fill="#BA68C8"/>
<path opacity="0.5" d="M115.727 124.273L133.027 134.154L156.235 120.835L138.937 110.954L115.727 124.273Z" fill="black"/>
<path d="M133.186 133.545L116.383 123.897C116.737 122.892 116.711 123.689 116.31 122.351L133.027 131.917C133.027 131.917 133.284 130.797 133.186 133.545Z" fill="white"/>
<path d="M132.335 130.819C133.055 131.231 133.637 132.235 133.637 133.061V133.711C133.637 134.536 133.054 134.871 132.335 134.458L115.728 124.923L115.726 124.274L132.155 133.659C132.587 133.906 132.936 133.706 132.936 133.211L132.923 132.753C132.922 132.257 132.572 131.656 132.141 131.408L115.728 122.019V121.283L132.335 130.819Z" fill="#003BAD"/>
<path d="M115.728 121.284L138.937 107.965L155.542 117.5C156.261 117.912 156.844 118.917 156.844 119.742L156.845 120.393C156.844 120.804 156.7 121.094 156.463 121.23L133.254 134.549C133.491 134.413 133.636 134.123 133.636 133.712L133.638 133.059C133.638 132.235 133.055 131.23 132.337 130.818L115.728 121.284Z" fill="#4281FD"/>
<path d="M115.727 119.67L133.028 129.549L156.236 116.23L138.937 106.35L115.727 119.67Z" fill="#BA68C8"/>
<path d="M133.188 128.941L116.385 119.292C116.739 118.288 116.712 118.844 116.312 117.506L133.028 127.072C133.028 127.072 133.285 126.192 133.188 128.941Z" fill="white"/>
<path d="M132.336 125.975C133.055 126.387 133.639 127.391 133.639 128.216V129.107C133.639 129.932 133.055 130.267 132.336 129.854L115.729 120.318L115.727 119.67L132.157 129.055C132.588 129.302 132.937 129.102 132.937 128.606L132.924 127.908C132.924 127.413 132.574 126.81 132.142 126.563L115.729 117.174V116.439L132.336 125.975Z" fill="#003BAD"/>
<path d="M115.729 116.44L138.938 103.121L155.544 112.656C156.262 113.068 156.846 114.072 156.846 114.897L156.846 115.788C156.846 116.2 156.701 116.489 156.464 116.625L133.256 129.944C133.493 129.808 133.637 129.518 133.637 129.108L133.64 128.215C133.64 127.391 133.057 126.386 132.338 125.974L115.729 116.44Z" fill="#4281FD"/>
<path d="M133.258 126.94C133.494 127.346 133.64 127.803 133.64 128.216L133.637 129.108C133.637 129.519 133.493 129.809 133.256 129.944L156.464 116.625C156.701 116.489 156.846 116.199 156.846 115.788L156.846 114.897C156.846 114.485 156.7 114.028 156.464 113.622L133.258 126.94Z" fill="#003BAD"/>
<path d="M192.658 29.1546C192.665 33.3037 191.05 37.0805 188.423 39.9049L187.121 41.1452C184.38 43.4833 180.83 44.9055 176.954 44.9117C168.279 44.9249 161.21 37.8819 161.197 29.2065C161.19 25.3305 162.6 21.7731 164.928 19.0269L166.169 17.7227C168.98 15.0819 172.752 13.4562 176.901 13.45C185.577 13.4363 192.645 20.4798 192.658 29.1546Z" fill="white"/>
<path d="M176.898 12.1162C167.489 12.1311 159.843 19.8015 159.863 29.21C159.876 37.6523 166.052 44.6656 174.115 46.0073L176.039 50.9475C176.367 51.7911 177.562 51.7894 177.887 50.9447L179.795 45.9971C187.854 44.6268 194.005 37.593 193.99 29.1547C193.975 19.7451 186.309 12.1014 176.898 12.1162ZM192.658 29.1547C192.665 33.3037 191.05 37.0806 188.423 39.9049L187.121 41.1452C184.38 43.4834 180.83 44.9055 176.954 44.9124C168.279 44.9255 161.21 37.8825 161.197 29.2077C161.19 25.3311 162.6 21.7738 164.928 19.0275L166.169 17.7233C168.98 15.0825 172.752 13.4574 176.901 13.4506C185.577 13.4364 192.645 20.4799 192.658 29.1547Z" fill="#E0E0E0"/>
<path opacity="0.1" d="M176.898 12.1162C167.489 12.1311 159.843 19.8015 159.863 29.21C159.876 37.6523 166.052 44.6656 174.115 46.0073L176.039 50.9475C176.367 51.7911 177.562 51.7894 177.887 50.9447L179.795 45.9971C187.854 44.6268 194.005 37.593 193.99 29.1547C193.975 19.7451 186.309 12.1014 176.898 12.1162ZM192.658 29.1547C192.665 33.3037 191.05 37.0806 188.423 39.9049L187.121 41.1452C184.38 43.4834 180.83 44.9055 176.954 44.9124C168.279 44.9255 161.21 37.8825 161.197 29.2077C161.19 25.3311 162.6 21.7738 164.928 19.0275L166.169 17.7233C168.98 15.0825 172.752 13.4574 176.901 13.4506C185.577 13.4364 192.645 20.4799 192.658 29.1547Z" fill="black"/>
<path opacity="0.7" d="M192.658 29.1547C192.665 33.3037 191.05 37.0805 188.423 39.9049L187.121 41.1452C184.38 43.4834 180.83 44.9055 176.954 44.9123C168.279 44.9255 161.21 37.8825 161.197 29.2077C161.19 25.3311 162.6 21.7737 164.928 19.0275L166.169 17.7233C168.98 15.0825 172.752 13.4574 176.901 13.4506C185.577 13.4363 192.645 20.4798 192.658 29.1547Z" fill="white"/>
<path d="M168.462 27.0051C167.26 27.0051 166.286 27.9793 166.286 29.1803C166.286 30.3818 167.26 31.3554 168.462 31.3554C169.663 31.3554 170.637 30.3812 170.637 29.1803C170.637 27.9793 169.663 27.0051 168.462 27.0051ZM185.393 27.0051C184.191 27.0051 183.218 27.9793 183.218 29.1803C183.218 30.3818 184.192 31.3554 185.393 31.3554C186.594 31.3554 187.569 30.3812 187.569 29.1803C187.569 27.9793 186.595 27.0051 185.393 27.0051ZM176.927 27.0051C175.726 27.0051 174.752 27.9793 174.752 29.1803C174.752 30.3818 175.726 31.3554 176.927 31.3554C178.129 31.3554 179.102 30.3812 179.102 29.1803C179.103 27.9793 178.129 27.0051 176.927 27.0051Z" fill="#BA68C8"/>
<defs>
<linearGradient id="paint0_linear_3335_2070" x1="228.996" y1="104.782" x2="268.405" y2="102.955" gradientUnits="userSpaceOnUse">
<stop stop-color="#1400FF"/>
<stop offset="1" stop-color="#42AEFD"/>
</linearGradient>
<linearGradient id="paint1_linear_3335_2070" x1="222.094" y1="95.2502" x2="263.33" y2="93.2172" gradientUnits="userSpaceOnUse">
<stop stop-color="#407BFF"/>
<stop offset="1" stop-color="#42AEFD"/>
</linearGradient>
<linearGradient id="paint2_linear_3335_2070" x1="77.4683" y1="174.423" x2="269.059" y2="150.308" gradientUnits="userSpaceOnUse">
<stop stop-color="#1400FF"/>
<stop offset="1" stop-color="#42AEFD"/>
</linearGradient>
<linearGradient id="paint3_linear_3335_2070" x1="74.6405" y1="174.423" x2="180.396" y2="161.577" gradientUnits="userSpaceOnUse">
<stop stop-color="#1400FF"/>
<stop offset="1" stop-color="#42AEFD"/>
</linearGradient>
</defs>
</svg>
