<svg width="326" height="278" viewBox="0 0 326 278" fill="none" xmlns="http://www.w3.org/2000/svg">
<ellipse cx="163" cy="198.5" rx="163" ry="79" fill="#ECF2FF"/>
<path d="M163 241.5C241.977 241.5 306 237.753 306 233.131C306 228.509 241.977 224.762 163 224.762C84.0233 224.762 20 228.509 20 233.131C20 237.753 84.0233 241.5 163 241.5Z" fill="#F5F5F5"/>
<path d="M251.417 228.915H250.626C250.318 228.915 250.054 228.644 250 228.272L245.143 194.399H248.831L252.047 228.047C252.092 228.509 251.797 228.915 251.417 228.915Z" fill="#407BFF"/>
<path opacity="0.3" d="M251.417 228.915H250.626C250.318 228.915 250.054 228.644 250 228.272L245.143 194.399H248.831L252.047 228.047C252.092 228.509 251.797 228.915 251.417 228.915Z" fill="black"/>
<path d="M261.535 228.915H260.744C260.436 228.915 260.172 228.644 260.118 228.272L255.261 194.399H258.949L262.165 228.047C262.21 228.509 261.915 228.915 261.535 228.915Z" fill="#407BFF"/>
<path opacity="0.3" d="M261.535 228.915H260.744C260.436 228.915 260.172 228.644 260.118 228.272L255.261 194.399H258.949L262.165 228.047C262.21 228.509 261.915 228.915 261.535 228.915Z" fill="black"/>
<path d="M205.156 228.915H205.947C206.255 228.915 206.519 228.644 206.573 228.272L211.429 194.399H207.742L204.525 228.047C204.481 228.509 204.776 228.915 205.156 228.915Z" fill="#407BFF"/>
<path opacity="0.3" d="M205.156 228.915H205.947C206.255 228.915 206.519 228.644 206.573 228.272L211.429 194.399H207.742L204.525 228.047C204.481 228.509 204.776 228.915 205.156 228.915Z" fill="black"/>
<path d="M195.038 228.915H195.828C196.137 228.915 196.401 228.644 196.455 228.272L201.311 194.399H197.624L194.407 228.047C194.363 228.509 194.658 228.915 195.038 228.915Z" fill="#407BFF"/>
<path opacity="0.3" d="M195.038 228.915H195.828C196.137 228.915 196.401 228.644 196.455 228.272L201.311 194.399H197.624L194.407 228.047C194.363 228.509 194.658 228.915 195.038 228.915Z" fill="black"/>
<path d="M181.925 154.246H206.765C211.172 138.908 227.031 126.807 243.27 126.807H243.272H251.338C268.337 126.807 279.307 140.063 275.841 156.415C275.205 159.416 274.123 162.312 272.68 165.043L268.762 188.838C268.257 191.909 265.812 194.399 263.302 194.399H188.534C186.024 194.399 183.579 191.909 183.073 188.838L178.294 159.807C177.789 156.736 179.415 154.246 181.925 154.246Z" fill="#407BFF"/>
<path opacity="0.5" d="M181.925 154.246H206.765C211.172 138.908 227.031 126.807 243.27 126.807H243.272H251.338C268.337 126.807 279.307 140.063 275.841 156.415C275.205 159.416 274.123 162.312 272.68 165.043L268.762 188.838C268.257 191.909 265.812 194.399 263.302 194.399H188.534C186.024 194.399 183.579 191.909 183.073 188.838L178.294 159.807C177.789 156.736 179.415 154.246 181.925 154.246Z" fill="white"/>
<path d="M175.706 220.151L181.859 222.98C182.082 223.083 182.18 223.317 182.093 223.542L180.157 228.558C179.957 229.078 179.263 229.339 178.752 229.093C176.627 228.071 175.661 227.474 172.955 226.229C171.291 225.464 166.733 222.905 164.68 221.424C162.672 219.976 164.146 217.952 165.148 218.395C169.643 220.382 172.504 220.56 174.607 220.055C174.988 219.963 175.379 220 175.706 220.151Z" fill="#263238"/>
<path d="M219.33 144.575C219.33 144.575 179.998 145.065 179.39 160.603C178.517 182.936 175.226 220.018 175.226 220.018L181.859 222.98C181.859 222.98 193.479 185.768 193.895 168.327C204.93 165.572 233.402 168.35 236.748 159.26C239.485 151.823 238.004 144.575 238.004 144.575H219.33Z" fill="#407BFF"/>
<path opacity="0.2" d="M219.33 144.575C219.33 144.575 179.998 145.065 179.39 160.603C178.517 182.936 175.226 220.018 175.226 220.018L181.859 222.98C181.859 222.98 193.479 185.768 193.895 168.327C204.93 165.572 233.402 168.35 236.748 159.26C239.485 151.823 238.004 144.575 238.004 144.575H219.33Z" fill="black"/>
<path d="M227.701 103.697C227.359 105.131 227.014 106.425 226.618 107.767C226.23 109.096 225.825 110.418 225.399 111.736C224.536 114.369 223.585 116.984 222.487 119.572C221.397 122.164 220.18 124.734 218.696 127.269C217.946 128.535 217.147 129.803 216.198 131.041C215.249 132.279 214.175 133.513 212.771 134.668L212.662 134.757C212.585 134.82 212.503 134.881 212.422 134.935C211.485 135.553 210.612 135.743 209.948 135.825C209.272 135.9 208.724 135.869 208.269 135.813C207.336 135.698 206.651 135.487 206.009 135.264C204.746 134.814 203.71 134.296 202.709 133.76C200.723 132.689 198.961 131.49 197.231 130.272C195.516 129.037 193.865 127.758 192.262 126.429C190.668 125.077 189.107 123.742 187.586 122.273C186.69 121.407 186.665 119.978 187.528 119.081C188.251 118.329 189.369 118.189 190.239 118.672L190.276 118.693C192.016 119.66 193.772 120.685 195.534 121.639C197.287 122.611 199.036 123.573 200.787 124.472C202.525 125.384 204.289 126.229 205.97 126.925C206.803 127.266 207.639 127.56 208.319 127.713C208.65 127.788 208.957 127.827 209.037 127.81C209.087 127.809 209.051 127.78 208.879 127.792C208.717 127.808 208.347 127.855 207.833 128.186L207.484 128.453C208.111 127.858 208.777 127.03 209.393 126.096C210.009 125.158 210.612 124.139 211.171 123.067C212.284 120.911 213.279 118.587 214.198 116.211C215.106 113.828 215.956 111.39 216.743 108.923C217.544 106.48 218.272 103.916 218.938 101.523L218.963 101.433C219.632 99.0263 222.121 97.619 224.522 98.2894C226.867 98.9428 228.259 101.345 227.701 103.697Z" fill="#263238"/>
<path d="M211.758 223.359H219.137C219.405 223.359 219.608 223.546 219.624 223.808L219.981 229.659C220.018 230.266 219.45 230.84 218.831 230.83C216.263 230.786 215.035 230.634 211.79 230.634C209.794 230.634 205.767 230.842 203.011 230.842C200.314 230.842 200.333 228.11 201.501 227.862C206.74 226.753 208.772 225.223 210.626 223.763C210.96 223.501 211.365 223.359 211.758 223.359Z" fill="#263238"/>
<path d="M229.931 144.575C229.931 144.575 194.254 147.595 195.132 163.12C196.093 180.121 211.757 223.359 211.757 223.359H218.972C218.972 223.359 212.796 183.763 210.626 166.452C220.681 166.452 244.003 168.35 247.348 159.26C250.085 151.823 248.605 144.575 248.605 144.575H229.931Z" fill="#407BFF"/>
<path d="M190.789 119.424C190.789 119.424 189.763 117.757 188.783 116.957C187.324 118.328 186.503 122.326 186.503 122.326L188.52 122.509C188.52 122.509 190.834 121.755 190.789 119.424Z" fill="#407BFF"/>
<path d="M183.385 115.832L181.09 114.833C180.474 114.565 179.755 114.795 179.408 115.371L178.322 117.176C178.008 117.695 178.082 118.361 178.502 118.8L181.651 122.093L186.904 121.88C187.508 121.856 188.051 121.508 188.326 120.968L188.933 119.781C189.313 119.038 189.105 118.106 188.41 117.645C186.707 116.516 183.385 115.832 183.385 115.832Z" fill="#FFC3BD"/>
<path d="M218.997 102.178C217.943 108.811 216.583 123.194 219.362 144.853L248.605 144.576C248.43 129.569 250.777 115.475 253.068 101.709C253.449 99.4218 251.885 97.3012 249.594 96.9701C242.57 95.956 231.229 95.9944 224.348 96.9494C221.611 97.33 219.431 99.4417 218.997 102.178Z" fill="#263238"/>
<path d="M253.335 99.8379C254.193 101.972 254.884 104.022 255.591 106.136C256.291 108.237 256.906 110.369 257.487 112.523C258.045 114.683 258.58 116.863 258.988 119.103C259.398 121.343 259.759 123.618 259.885 126.032C259.924 126.631 259.935 127.251 259.942 127.871L259.931 128.819C259.913 129.487 259.816 130.502 259.198 131.587C258.906 132.112 258.447 132.651 257.971 133.022C257.722 133.227 257.482 133.38 257.239 133.514C256.983 133.661 256.756 133.757 256.534 133.839C255.631 134.17 254.934 134.213 254.368 134.217C253.257 134.196 252.495 134.004 251.785 133.812C250.402 133.409 249.292 132.917 248.212 132.4C247.143 131.873 246.139 131.315 245.158 130.743C241.258 128.425 237.748 125.843 234.342 122.983C233.389 122.183 233.264 120.761 234.062 119.806C234.735 119.001 235.849 118.786 236.753 119.218L236.805 119.243C240.619 121.064 244.495 122.929 248.274 124.498C249.216 124.888 250.157 125.253 251.073 125.557C251.975 125.87 252.885 126.14 253.593 126.248C253.928 126.303 254.234 126.296 254.2 126.263C254.17 126.255 254.014 126.226 253.613 126.363C253.518 126.399 253.416 126.444 253.273 126.518C253.15 126.586 253.024 126.669 252.873 126.782C252.609 126.99 252.328 127.316 252.16 127.604C251.807 128.217 251.79 128.683 251.779 128.815L251.737 128.146C251.697 127.691 251.658 127.233 251.59 126.759C251.086 122.969 250.019 118.933 248.837 114.965C247.652 111 246.296 106.947 244.915 103.096L244.901 103.058C244.058 100.706 245.276 98.1157 247.622 97.2702C249.911 96.446 252.431 97.5976 253.335 99.8379Z" fill="#263238"/>
<path d="M241.645 82.1076L238.107 85.0479L233.29 89.0569C233.431 89.7096 233.541 90.3704 233.596 91.0068C233.826 93.3372 233.317 95.4807 230.49 96.5665C229.423 96.9767 228.494 97.7587 228.157 98.8534C227.775 100.092 228.226 101.468 232.107 101.468C237.805 101.466 240.782 98.9273 241.902 97.6767C242.218 97.3241 242.222 96.8053 241.95 96.4187C239.693 93.2094 240.724 86.1144 241.645 82.1076Z" fill="#FFC3BD"/>
<path d="M231.968 100.211C231.968 100.211 232.347 100.622 232.461 101.216C232.757 100.714 233.53 100.211 233.53 100.211C233.53 100.211 235.222 100.965 235.573 102.61C234.489 102.541 232.506 101.467 232.506 101.467C232.506 101.467 231.48 102.061 230.454 102.107C230.501 100.828 231.968 100.211 231.968 100.211Z" fill="#407BFF"/>
<path d="M233.53 100.211C235.17 102.063 235.482 104.521 235.482 104.521C235.482 104.521 244.924 102.157 244.481 95.9892C243.686 95.4866 241.863 95.1836 241.863 95.1836C241.863 95.1836 239.833 98.8778 233.53 100.211Z" fill="#407BFF"/>
<path d="M231.968 100.211C230.327 102.063 229.889 104.521 229.889 104.521C229.889 104.521 225.046 100.104 229.764 96.0402C230.593 95.698 232.26 95.5154 232.26 95.5154C232.26 95.5154 229.126 98.0632 231.968 100.211Z" fill="#407BFF"/>
<path opacity="0.2" d="M233.291 89.0569C233.432 89.7096 233.542 90.3703 233.597 91.0067C235.394 90.6446 237.794 88.7265 238.044 86.8876C238.139 86.1957 238.154 85.5275 238.107 85.0479L233.291 89.0569Z" fill="black"/>
<path d="M228.122 69.3753C223.68 72.5314 226.166 79.9353 229.954 77.1022C233.742 74.2691 231.741 66.8031 228.122 69.3753Z" fill="#263238"/>
<path d="M243.104 75.9684C241.874 81.636 241.442 85.005 238.102 87.5912C233.078 91.4813 226.419 88.0251 225.931 82.1638C225.491 76.8878 227.577 68.5061 233.526 66.9014C239.387 65.3204 244.333 70.3007 243.104 75.9684Z" fill="#FFC3BD"/>
<path d="M240.485 71.7679C237.35 70.8994 229.267 72.9616 226.397 69.8942C223.319 66.6043 227.81 65.0048 229.133 66.1475C227.457 64.2287 228.083 62.1725 230.455 62.355C232.184 62.4881 232.736 64.4113 232.736 64.4113C232.736 64.4113 232.447 61.0505 235.423 61.2818C238.125 61.4917 238.133 65.143 238.133 65.143C238.133 65.143 244.583 63.3152 246.732 69.484C250.79 69.3923 250.699 77.9522 242.538 80.9982C239.224 79.3529 239.072 73.5137 240.485 71.7679Z" fill="#263238"/>
<path d="M245.864 70.7176C245.475 70.7176 245.129 70.4382 245.058 70.0406C244.977 69.5941 245.272 69.1676 245.716 69.0856C245.79 69.0634 246.009 68.8831 246.191 68.4854C246.384 68.0678 246.508 67.444 246.28 66.9458C246.092 66.5319 246.275 66.0448 246.687 65.8556C247.098 65.6649 247.586 65.8497 247.775 66.2628C248.267 67.3449 248.006 68.566 247.597 69.3487C247.205 70.0989 246.627 70.5934 246.011 70.7035C245.962 70.7132 245.913 70.7176 245.864 70.7176Z" fill="#263238"/>
<path d="M244.024 81.2229C243.194 82.3146 241.981 82.9628 240.918 83.1505C239.319 83.4329 238.833 81.959 239.541 80.5273C240.177 79.239 241.775 77.5398 243.253 77.9079C244.71 78.27 244.973 79.9745 244.024 81.2229Z" fill="#FFC3BD"/>
<path d="M233.419 76.4865C233.347 76.9514 233.042 77.2988 232.738 77.2626C232.433 77.2264 232.244 76.8198 232.316 76.3549C232.387 75.89 232.692 75.5426 232.997 75.5788C233.301 75.6158 233.49 76.0216 233.419 76.4865Z" fill="#263238"/>
<path d="M228.154 75.8597C228.082 76.3246 227.778 76.672 227.473 76.6358C227.169 76.5996 226.98 76.1931 227.051 75.7281C227.123 75.2632 227.427 74.9158 227.732 74.9521C228.037 74.9883 228.225 75.3948 228.154 75.8597Z" fill="#263238"/>
<path d="M229.758 76.046C229.758 76.046 228.653 78.301 227.56 79.3602C228.209 80.055 229.434 79.8163 229.434 79.8163L229.758 76.046Z" fill="#ED847E"/>
<path d="M231.589 82.2051C233.437 82.2051 234.469 81.0506 234.517 80.9967C234.567 80.9397 234.561 80.8525 234.504 80.8023C234.447 80.7513 234.36 80.7579 234.31 80.8148C234.298 80.8281 233.123 82.1438 231.076 81.8977C231 81.888 230.932 81.9427 230.923 82.0189C230.914 82.0943 230.968 82.163 231.044 82.1719C231.232 82.1948 231.414 82.2051 231.589 82.2051Z" fill="#263238"/>
<path d="M235.535 73.8064C235.58 73.7968 235.622 73.7754 235.658 73.7436C235.771 73.6423 235.782 73.4679 235.681 73.3541C234.68 72.2269 233.418 72.4316 233.365 72.4412C233.222 72.4516 233.115 72.6097 233.141 72.7605C233.167 72.9106 233.309 73.0111 233.459 72.9852C233.512 72.9771 234.483 72.8359 235.269 73.7214C235.338 73.7983 235.441 73.8271 235.535 73.8064Z" fill="#263238"/>
<path d="M226.274 73.5034C226.359 73.5277 226.453 73.5107 226.526 73.4501C227.489 72.6474 228.48 72.9128 228.49 72.9157C228.636 72.9571 228.788 72.8714 228.829 72.7243C228.87 72.578 228.785 72.4264 228.639 72.3843L228.638 72.3836C228.586 72.3688 227.357 72.0391 226.174 73.0251C226.056 73.1227 226.041 73.2964 226.138 73.4139C226.175 73.459 226.223 73.4886 226.274 73.5034Z" fill="#263238"/>
<path d="M235.875 115.389L232.647 113.379C231.679 112.776 230.404 113.082 229.815 114.061L229.435 114.692C228.976 115.455 229.06 116.428 229.644 117.099L231.871 119.661C231.871 119.661 233.809 124.191 236.057 122.995L237.771 120.018L235.875 115.389Z" fill="#FFC3BD"/>
<path d="M239.199 121.18C239.199 121.18 238.387 119.18 237.513 118.167C235.891 119.559 234.579 123.996 234.579 123.996L236.561 124.424C236.561 124.424 238.954 123.824 239.199 121.18Z" fill="#407BFF"/>
<path d="M263.918 154.246H225.627C223.116 154.246 221.492 156.736 221.997 159.807L226.776 188.838C227.282 191.909 229.726 194.398 232.237 194.398H259.177L263.918 154.246Z" fill="#407BFF"/>
<path opacity="0.5" d="M263.918 154.246H225.627C223.116 154.246 221.492 156.736 221.997 159.807L226.776 188.838C227.282 191.909 229.726 194.398 232.237 194.398H259.177L263.918 154.246Z" fill="white"/>
<path d="M87.2427 231.405H88.3475C88.7236 231.405 89.0363 231.087 89.0636 230.676L95.149 139.106H90.5785L86.5258 230.581C86.5059 231.029 86.8326 231.405 87.2427 231.405Z" fill="#407BFF"/>
<path opacity="0.3" d="M87.2427 231.405H88.3475C88.7236 231.405 89.0363 231.087 89.0636 230.676L95.149 139.106H90.5785L86.5258 230.581C86.5059 231.029 86.8326 231.405 87.2427 231.405Z" fill="white"/>
<path d="M74.7016 231.405H75.8065C76.1826 231.405 76.4953 231.087 76.5226 230.676L82.608 139.106H78.0375L73.9848 230.581C73.9648 231.029 74.2916 231.405 74.7016 231.405Z" fill="#407BFF"/>
<path opacity="0.3" d="M74.7016 231.405H75.8065C76.1826 231.405 76.4953 231.087 76.5226 230.676L82.608 139.106H78.0375L73.9848 230.581C73.9648 231.029 74.2916 231.405 74.7016 231.405Z" fill="white"/>
<path d="M229.324 231.405H228.219C227.843 231.405 227.53 231.087 227.503 230.676L221.417 139.106H225.988L230.041 230.581C230.061 231.029 229.734 231.405 229.324 231.405Z" fill="#407BFF"/>
<path opacity="0.3" d="M229.324 231.405H228.219C227.843 231.405 227.53 231.087 227.503 230.676L221.417 139.106H225.988L230.041 230.581C230.061 231.029 229.734 231.405 229.324 231.405Z" fill="white"/>
<path d="M241.865 231.405H240.76C240.384 231.405 240.071 231.087 240.044 230.676L233.958 139.106H238.529L242.582 230.581C242.602 231.029 242.275 231.405 241.865 231.405Z" fill="#407BFF"/>
<path opacity="0.3" d="M241.865 231.405H240.76C240.384 231.405 240.071 231.087 240.044 230.676L233.958 139.106H238.529L242.582 230.581C242.602 231.029 242.275 231.405 241.865 231.405Z" fill="white"/>
<path d="M247.139 137.223H69.1699V139.106H247.139V137.223Z" fill="#407BFF"/>
<path d="M66.2042 108.055L64.5241 120.45C63.9938 124.577 63.4399 128.715 63.0432 132.778C62.9871 133.289 62.9502 133.788 62.9089 134.29L62.8477 135.042C62.8529 134.987 62.8484 134.788 62.8219 134.672C62.8101 134.553 62.7725 134.423 62.7363 134.321C62.712 134.23 62.6604 134.128 62.6257 134.062C62.5999 134.003 62.552 133.935 62.5232 133.895C62.3926 133.727 62.3786 133.749 62.4133 133.785C62.4421 133.827 62.5468 133.908 62.6641 133.996C62.9119 134.176 63.2607 134.378 63.6413 134.569C65.2063 135.336 67.1409 135.99 69.057 136.583C72.9269 137.76 76.987 138.778 80.9977 139.769L80.5441 143.3C76.2517 143.147 72.0381 142.747 67.7538 141.973C65.6039 141.563 63.4761 141.115 61.1809 140.234C60.6012 140.004 60.006 139.745 59.3592 139.378C59.0324 139.188 58.6998 138.976 58.3296 138.678C57.9645 138.376 57.5684 138.031 57.1525 137.42C56.9467 137.112 56.7476 136.74 56.5949 136.289C56.5197 136.061 56.4621 135.801 56.4201 135.554C56.3862 135.309 56.3729 134.978 56.3766 134.792L56.395 133.972C56.4076 133.425 56.4164 132.875 56.443 132.338C56.6178 128.019 57.005 123.806 57.4644 119.592C57.9136 115.378 58.4498 111.203 59.1091 107.006L66.2042 108.055Z" fill="#7F3E3B"/>
<path d="M90.2838 143.497L87.5793 145.974C86.9479 146.552 86.0297 146.687 85.259 146.315L82.2697 144.873C82.2697 144.873 77.8371 144.69 77.2051 141.976L78.3512 139.867L85.2177 139.102C85.9235 139.024 86.6352 139.182 87.2407 139.553L90.0706 141.285C90.8598 141.767 90.966 142.872 90.2838 143.497Z" fill="#7F3E3B"/>
<path d="M74.0902 82.5887C74.7916 86.8402 75.3868 94.6092 72.3525 97.3418C72.3525 97.3418 79.7589 101.228 84.6155 108.011C89.81 103.887 85.46 97.7328 85.46 97.7328C80.7907 96.4674 81.0156 92.9735 81.9324 89.7139L74.0902 82.5887Z" fill="#7F3E3B"/>
<path d="M87.9506 100.347C87.9506 100.347 87.5597 96.7423 85.5964 94.9603C83.9472 93.4628 75.2923 94.2951 72.5663 94.5996C72.053 94.6565 71.6097 94.9758 71.387 95.4422L69.4097 99.5814L87.9506 100.347Z" fill="#407BFF"/>
<path opacity="0.8" d="M87.9506 100.347C87.9506 100.347 87.5597 96.7423 85.5964 94.9603C83.9472 93.4628 75.2923 94.2951 72.5663 94.5996C72.053 94.6565 71.6097 94.9758 71.387 95.4422L69.4097 99.5814L87.9506 100.347Z" fill="white"/>
<path d="M63.9709 98.449C58.6304 100.19 57.4828 107.366 57.9637 112.951L68.7428 119.596C68.7428 119.596 71.3603 111.44 71.3381 107.086C71.3145 102.451 67.5974 97.2664 63.9709 98.449Z" fill="#407BFF"/>
<path d="M66.0585 117.968C65.8003 117.968 65.5422 117.865 65.3504 117.68C65.3062 117.628 65.2619 117.576 65.2324 117.525C65.1956 117.473 65.1587 117.414 65.1365 117.347C65.1152 117.288 65.0923 117.229 65.0775 117.162C65.0628 117.096 65.0562 117.037 65.0562 116.97C65.0562 116.704 65.166 116.445 65.3504 116.261C65.7266 115.883 66.3977 115.883 66.7665 116.261C66.9509 116.445 67.0615 116.704 67.0615 116.97C67.0615 117.037 67.0541 117.096 67.0394 117.162C67.0246 117.229 67.0099 117.288 66.9804 117.347C66.959 117.414 66.9295 117.473 66.8919 117.525C66.855 117.576 66.8115 117.628 66.7665 117.68C66.5821 117.865 66.324 117.968 66.0585 117.968Z" fill="white"/>
<path d="M63.9861 117.288C63.9861 117.288 63.9861 117.288 63.9935 117.288C63.6099 117.14 63.3666 116.778 63.3518 116.386C63.0642 116.645 62.6438 116.726 62.2676 116.549C61.8989 116.379 61.6776 116.002 61.685 115.618C61.3826 115.861 60.9548 115.912 60.5934 115.714C60.2328 115.521 60.0403 115.137 60.0698 114.753C59.7526 114.974 59.3249 115.004 58.9716 114.79C58.4988 114.509 58.3513 113.888 58.6323 113.415C58.92 112.942 59.5395 112.787 60.0108 113.075C60.3427 113.282 60.513 113.651 60.4902 114.014C60.7852 113.799 61.1908 113.762 61.5375 113.947C61.8767 114.132 62.0759 114.486 62.0685 114.855C62.3495 114.627 62.7551 114.567 63.1084 114.73C63.4624 114.892 63.6771 115.24 63.6911 115.602C63.964 115.366 64.3549 115.278 64.7236 115.417C65.2318 115.624 65.4907 116.208 65.2841 116.719C65.1293 117.117 64.7531 117.354 64.3549 117.354C64.2295 117.354 64.1115 117.332 63.9861 117.288Z" fill="white"/>
<path d="M57.9677 113.955C57.9013 113.955 57.8349 113.947 57.7678 113.932C57.7014 113.918 57.6424 113.903 57.5834 113.873C57.517 113.851 57.458 113.821 57.4071 113.785C57.3555 113.748 57.3031 113.704 57.2596 113.659C57.208 113.615 57.1711 113.563 57.1342 113.511C57.0974 113.452 57.0679 113.394 57.0384 113.334C57.0162 113.275 56.9934 113.209 56.9794 113.15C56.972 113.082 56.9639 113.016 56.9639 112.949C56.9639 112.883 56.972 112.816 56.9794 112.757C56.9941 112.691 57.0162 112.631 57.0384 112.565C57.0598 112.506 57.0974 112.447 57.1342 112.395C57.1711 112.343 57.208 112.291 57.2596 112.24C57.3039 112.195 57.3555 112.151 57.4071 112.114C57.458 112.085 57.517 112.048 57.5834 112.025C57.6424 112.003 57.7014 111.981 57.7678 111.966C58.093 111.907 58.4389 112.011 58.6683 112.24C58.7192 112.291 58.7568 112.343 58.7937 112.395C58.8306 112.447 58.8601 112.506 58.8896 112.565C58.9117 112.631 58.9338 112.691 58.9412 112.757C58.956 112.816 58.9626 112.883 58.9626 112.949C58.9626 113.016 58.9552 113.082 58.9412 113.15C58.9331 113.209 58.9117 113.275 58.8896 113.334C58.8601 113.394 58.8306 113.452 58.7937 113.511C58.7568 113.563 58.7192 113.615 58.6683 113.659C58.4839 113.844 58.2251 113.955 57.9677 113.955Z" fill="white"/>
<path d="M97.9258 108.877C97.4744 115.024 96.1092 125.377 92.7475 142.805L63.8804 141.945C64.6379 131.266 63.4947 123.303 60.8831 104.613C60.4066 101.202 62.8538 98.0831 66.273 97.7298C68.1264 97.5384 70.2313 97.3802 72.3517 97.341C77.2165 97.2509 81.2007 97.2147 85.46 97.732C86.8664 97.9035 88.3194 98.1253 89.7067 98.3625C94.7418 99.2244 98.3005 103.772 97.9258 108.877Z" fill="#407BFF"/>
<path d="M89.0249 74.7628C89.0928 75.3334 89.4505 75.7599 89.8222 75.7148C90.1939 75.6697 90.441 75.1715 90.3724 74.6002C90.3038 74.0296 89.9468 73.6031 89.5751 73.6482C89.2034 73.6933 88.9571 74.1922 89.0249 74.7628Z" fill="#263238"/>
<path d="M89.415 73.6999L90.7352 73.1404C90.7352 73.1404 90.1622 74.2956 89.415 73.6999Z" fill="#263238"/>
<path d="M89.2222 75.6475C89.2222 75.6475 90.4826 77.9883 91.6878 79.046C91.0203 79.8399 89.703 79.6714 89.703 79.6714L89.2222 75.6475Z" fill="#630F0F"/>
<path d="M89.0946 69.7588C89.1587 69.6635 89.172 69.5371 89.1196 69.4255C89.04 69.257 88.8386 69.1853 88.6705 69.2651C86.9881 70.0656 86.761 71.6082 86.7521 71.6732C86.7271 71.858 86.8561 72.028 87.0405 72.0531C87.2242 72.0782 87.3938 71.9496 87.4196 71.7656C87.427 71.7146 87.6158 70.515 88.9596 69.8756C89.0164 69.8483 89.0621 69.8069 89.0946 69.7588Z" fill="#263238"/>
<path d="M69.381 74.6327C70.6488 81.5902 71.0367 84.5622 74.9995 87.7353C80.9603 92.5086 89.2096 89.4264 90.0423 82.2295C90.7916 75.7517 88.5923 65.4623 81.4131 63.4947C74.3394 61.5574 68.1131 67.6752 69.381 74.6327Z" fill="#7F3E3B"/>
<path d="M84.6701 76.581C85.8406 80.4038 88.6292 89.6467 82.4685 91.7044C77.6495 93.3143 62.561 94.6018 60.8241 85.7418C59.0275 76.5803 67.1787 70.0604 67.1787 70.0604C67.1787 70.0604 60.7208 64.752 64.8584 58.9705C70.1915 51.5171 82.9598 55.7316 86.7499 60.9979C90.4339 66.1164 84.6701 76.581 84.6701 76.581Z" fill="#263238"/>
<path d="M72.9918 92.9757C70.5211 92.9757 67.4566 92.4702 64.9328 91.3822C61.5062 89.9032 59.506 87.6178 59.149 84.7736C57.938 75.1124 66.9086 69.8032 67.0001 69.7515L67.3571 70.3709C67.2708 70.4211 58.7065 75.5004 59.8578 84.6842C60.2664 87.9423 62.9968 89.7679 65.2153 90.7251C69.5948 92.6151 75.2524 92.6047 76.6257 91.5958L77.0476 92.173C76.3329 92.6971 74.8261 92.9757 72.9918 92.9757Z" fill="#263238"/>
<path d="M64.4019 68.6738C64.3208 69.9096 63.2978 71.6074 67.5733 72.2453C71.8488 72.8839 77.7889 72.8233 79.008 71.7922C80.2265 70.7618 81.4286 68.2976 78.879 68.5178C76.3286 68.7388 64.5398 66.5613 64.4019 68.6738Z" fill="#407BFF"/>
<path d="M82.3371 77.6712C83.068 79.063 84.3719 79.9869 85.6102 80.3506C87.4725 80.8968 88.4276 79.2338 87.9298 77.4599C87.4821 75.8633 85.9738 73.6548 84.0953 73.8869C82.2449 74.1153 81.5014 76.0799 82.3371 77.6712Z" fill="#7F3E3B"/>
<path d="M127.333 223.759L134.178 223.629L130.864 206.507L124.02 206.637L127.333 223.759Z" fill="#7F3E3B"/>
<path d="M132.466 216.304C134.277 223.138 140.931 230.372 140.931 230.372L131.434 227.953L127.283 222.042L128.009 220.478L132.466 216.304Z" fill="#7F3E3B"/>
<path d="M125.721 219.48C125.692 220.24 125.75 221.104 125.859 221.872C126.26 224.698 127.505 232.191 127.505 232.191L128.149 232.195C128.149 232.195 127.539 227.151 127.627 225.292C127.716 223.433 128.913 226.72 130.358 228.579C131.804 230.439 134.406 232.131 138.617 232.263C143.547 232.417 145.512 232.21 143.932 230.976C142.352 229.743 138.992 228.938 138.992 228.938C138.992 228.938 135.114 227.541 132.341 223.364C130.543 220.655 127.53 218.695 126.223 218.059C125.827 218.129 125.744 218.877 125.721 219.48Z" fill="#263238"/>
<path d="M151.573 200.5L160.31 200.771L150.538 186.211L144.488 191.393L151.573 200.5Z" fill="#7F3E3B"/>
<path d="M153.648 194.318C159.995 197.281 170.162 196.698 170.162 196.698L161.898 203.343L154.811 202.817L154.062 201.239L153.648 194.318Z" fill="#7F3E3B"/>
<path d="M152.304 201.868C152.842 202.409 153.511 202.956 154.141 203.395C156.459 205.013 162.717 209.158 162.717 209.158L163.119 208.653C163.119 208.653 159.046 205.683 157.738 204.342C156.431 203 159.578 204.305 161.833 204.438C164.088 204.571 166.935 203.677 169.632 200.448C172.79 196.667 173.851 194.977 171.972 195.378C170.093 195.779 167.428 197.877 167.428 197.877C167.428 197.877 164.009 199.979 159.237 199.307C156.142 198.87 152.846 199.905 151.572 200.5C151.38 200.86 151.876 201.437 152.304 201.868Z" fill="#263238"/>
<path d="M82.6808 142.301C82.6808 142.301 129.415 135.373 134.253 147.378C142.671 168.266 154.559 192.2 154.559 192.2L148.819 196.958C148.819 196.958 128.443 178.055 121.193 157.07C112.535 159.877 84.9885 168.91 74.8991 168.91C64.1229 168.91 59.7221 159.703 63.614 144.414C63.9607 143.051 65.2005 142.107 66.604 142.114C73.3879 142.147 82.6808 142.301 82.6808 142.301Z" fill="#263238"/>
<path d="M87.1605 148.4C87.1605 148.4 125.516 147.242 125.84 160.861C126.375 183.381 132.709 215.652 132.709 215.652L125.712 216.304C125.712 216.304 114.274 190.635 111.248 168.636C97.5849 169.524 84.9885 168.91 74.899 168.91C63.5919 168.91 62.6574 156.466 73.6636 141.945C80.3907 141.945 87.1605 148.4 87.1605 148.4Z" fill="#263238"/>
<path d="M63.499 140.234L62.6841 142.802C62.5771 143 62.8087 143.212 63.1421 143.222L92.8522 144.107C93.1126 144.115 93.3316 143.994 93.353 143.83L93.6901 141.248C93.7137 141.07 93.4924 140.911 93.2077 140.903L63.9755 140.031C63.7609 140.024 63.5684 140.107 63.499 140.234Z" fill="white"/>
<path d="M67.3273 143.627L66.5441 143.603C66.3885 143.599 66.2719 143.515 66.2852 143.416L66.7521 140.063C66.7653 139.965 66.9047 139.888 67.0604 139.893L67.8436 139.916C67.9992 139.92 68.1158 140.005 68.1025 140.103L67.6356 143.456C67.6224 143.555 67.4837 143.631 67.3273 143.627Z" fill="#263238"/>
<path d="M90.643 144.322L89.8605 144.298C89.7049 144.294 89.5883 144.209 89.6016 144.111L90.0685 140.758C90.0825 140.659 90.2212 140.583 90.3768 140.588L91.16 140.611C91.3157 140.615 91.4322 140.699 91.4189 140.798L90.9521 144.151C90.938 144.25 90.7994 144.326 90.643 144.322Z" fill="#263238"/>
<path d="M78.9858 143.974L78.2033 143.951C78.0476 143.946 77.9311 143.862 77.9444 143.764L78.4113 140.41C78.4245 140.312 78.5639 140.236 78.7195 140.24L79.5028 140.264C79.6584 140.268 79.775 140.353 79.7617 140.451L79.2948 143.804C79.2801 143.903 79.1414 143.979 78.9858 143.974Z" fill="#263238"/>
<path d="M114.562 111.448H133.221C133.817 111.448 134.246 112.021 134.08 112.595L127.107 136.578C126.996 136.96 126.646 137.223 126.248 137.223H107.59C106.994 137.223 106.564 136.65 106.731 136.077L113.704 112.093C113.815 111.711 114.165 111.448 114.562 111.448Z" fill="#407BFF"/>
<path d="M114.907 112.328L133.041 112.759L125.88 135.38L107.745 134.949L114.907 112.328Z" fill="#E0E0E0"/>
<path d="M114.336 112.106L132.476 112.181L125.758 134.938L107.618 134.862L114.336 112.106Z" fill="white"/>
<path d="M97.9809 112.577C98.017 113.297 98.0856 114.194 98.1512 115.013C98.2243 115.85 98.3157 116.689 98.4263 117.522C98.6328 119.192 98.9094 120.845 99.2516 122.459C99.6064 124.068 100.025 125.646 100.569 127.12C100.84 127.858 101.14 128.572 101.469 129.245C101.628 129.589 101.809 129.907 101.987 130.227L102.256 130.681C102.233 130.651 102.202 130.649 102.227 130.675C102.278 130.791 102.798 131.125 103.402 131.364C104.02 131.615 104.758 131.826 105.527 132.001C107.073 132.357 108.756 132.59 110.458 132.765C113.865 133.097 117.424 133.263 120.911 133.335L121.263 136.876C117.621 137.58 114.014 138.024 110.267 138.122C108.395 138.164 106.501 138.131 104.518 137.885C103.524 137.753 102.51 137.576 101.43 137.26C100.351 136.919 99.186 136.528 97.9012 135.435C97.587 135.168 97.2669 134.82 96.9756 134.432L96.5006 133.767C96.2034 133.328 95.9091 132.884 95.6525 132.435C95.1155 131.539 94.6605 130.623 94.2607 129.7C93.448 127.854 92.838 125.985 92.3564 124.109C91.8682 122.234 91.5164 120.352 91.259 118.465C91.1358 117.521 91.0355 116.576 90.9551 115.627C90.871 114.66 90.8216 113.766 90.8105 112.694L97.9809 112.577Z" fill="#7F3E3B"/>
<path d="M95.5546 101.677C100.199 106.059 99.08 117.48 99.08 117.48L90.1809 119.039C90.1809 119.039 84.687 110.851 86.6179 107.418C88.6291 103.842 93.0418 99.3057 95.5546 101.677Z" fill="#407BFF"/>
<path d="M99.0777 118.485C98.8188 118.485 98.5541 118.375 98.3697 118.19C98.3247 118.145 98.2812 118.094 98.2443 118.035C98.2148 117.984 98.1772 117.924 98.1558 117.865C98.1337 117.806 98.1108 117.74 98.0968 117.672C98.0894 117.614 98.082 117.547 98.082 117.48C98.082 117.215 98.186 116.955 98.3704 116.771C98.4213 116.726 98.4663 116.682 98.5253 116.645C98.5762 116.608 98.6352 116.578 98.6949 116.556C98.7613 116.527 98.8203 116.512 98.8867 116.497C99.2046 116.431 99.5505 116.541 99.7872 116.771C99.9716 116.955 100.082 117.215 100.082 117.48C100.082 117.547 100.075 117.614 100.061 117.672C100.045 117.74 100.031 117.806 100.002 117.865C99.9797 117.924 99.9502 117.984 99.9133 118.035C99.8765 118.094 99.8322 118.145 99.788 118.19C99.6014 118.374 99.3425 118.485 99.0777 118.485Z" fill="white"/>
<path d="M90.9941 119.018C90.9491 118.463 91.3548 117.975 91.9079 117.931C92.2915 117.894 92.6536 118.086 92.8446 118.404C92.9626 118.057 93.265 117.783 93.6485 117.724C94.0328 117.672 94.4015 117.842 94.6154 118.145C94.7113 117.791 94.999 117.502 95.3744 117.428C95.7579 117.347 96.134 117.502 96.3627 117.79C96.4371 117.428 96.71 117.125 97.0854 117.021V117.029C97.6238 116.881 98.1696 117.206 98.3097 117.739C98.4499 118.271 98.1327 118.825 97.5936 118.965C97.2034 119.069 96.7978 118.921 96.5544 118.618C96.4733 118.995 96.1775 119.306 95.7719 119.394C95.3736 119.468 94.9754 119.298 94.7541 118.98C94.6508 119.357 94.3418 119.652 93.9354 119.712C93.5298 119.771 93.1396 119.571 92.9397 119.246C92.8144 119.607 92.4899 119.888 92.0768 119.926C92.0473 119.926 92.0252 119.926 91.9957 119.926C91.4809 119.927 91.045 119.535 90.9941 119.018Z" fill="white"/>
<path d="M90.183 120.045C90.1166 120.045 90.0502 120.037 89.9838 120.023C89.9175 120.008 89.8585 119.986 89.7995 119.964C89.7331 119.942 89.6814 119.905 89.6224 119.875C89.5708 119.838 89.5192 119.794 89.4749 119.749C89.4241 119.704 89.3864 119.653 89.3496 119.594C89.3127 119.542 89.2832 119.483 89.2537 119.424C89.2316 119.358 89.2094 119.298 89.2021 119.232C89.1873 119.173 89.1807 119.106 89.1807 119.04C89.1807 118.973 89.188 118.907 89.2021 118.839C89.2102 118.78 89.2316 118.714 89.2537 118.655C89.2832 118.596 89.3127 118.537 89.3496 118.478C89.3864 118.426 89.4241 118.374 89.4749 118.33C89.5199 118.286 89.5708 118.242 89.6224 118.205C89.6814 118.168 89.7331 118.138 89.7995 118.116C89.8585 118.086 89.9175 118.071 89.9838 118.057C90.3076 117.99 90.655 118.094 90.8836 118.33C90.9353 118.375 90.9721 118.426 91.009 118.478C91.0459 118.537 91.0754 118.596 91.1049 118.655C91.127 118.714 91.1499 118.78 91.1639 118.839C91.1713 118.907 91.1794 118.973 91.1794 119.04C91.1794 119.106 91.1713 119.173 91.1639 119.232C91.1492 119.298 91.127 119.358 91.1049 119.424C91.0754 119.483 91.0459 119.542 91.009 119.594C90.9721 119.646 90.9353 119.704 90.8836 119.749C90.6993 119.934 90.4411 120.045 90.183 120.045Z" fill="white"/>
<path d="M129.221 129.637L126.141 129.429C125.373 129.377 124.61 129.582 123.97 130.013L118.312 133.822L118.269 136.222C120.082 138.336 124.097 136.443 124.097 136.443L127.821 136.324C128.429 136.304 128.964 135.916 129.173 135.343L130.52 131.638C130.86 130.704 130.21 129.705 129.221 129.637Z" fill="#7F3E3B"/>
<path d="M65.3414 234.733H66.177C66.503 234.733 66.7825 234.446 66.8386 234.054L71.9718 198.251H68.074L64.6747 233.817C64.6275 234.304 64.9394 234.733 65.3414 234.733Z" fill="#407BFF"/>
<path opacity="0.3" d="M65.3414 234.733H66.177C66.503 234.733 66.7825 234.446 66.8386 234.054L71.9718 198.251H68.074L64.6747 233.817C64.6275 234.304 64.9394 234.733 65.3414 234.733Z" fill="black"/>
<path d="M54.6464 234.733H55.4821C55.808 234.733 56.0868 234.446 56.1436 234.054L61.2769 198.251H57.379L53.9797 233.817C53.9332 234.304 54.2452 234.733 54.6464 234.733Z" fill="#407BFF"/>
<path opacity="0.3" d="M54.6464 234.733H55.4821C55.808 234.733 56.0868 234.446 56.1436 234.054L61.2769 198.251H57.379L53.9797 233.817C53.9332 234.304 54.2452 234.733 54.6464 234.733Z" fill="black"/>
<path d="M114.238 234.733H113.402C113.076 234.733 112.797 234.446 112.741 234.054L107.607 198.251H111.505L114.905 233.817C114.952 234.304 114.64 234.733 114.238 234.733Z" fill="#407BFF"/>
<path opacity="0.3" d="M114.238 234.733H113.402C113.076 234.733 112.797 234.446 112.741 234.054L107.607 198.251H111.505L114.905 233.817C114.952 234.304 114.64 234.733 114.238 234.733Z" fill="black"/>
<path d="M124.933 234.733H124.097C123.771 234.733 123.492 234.446 123.435 234.054L118.302 198.251H122.2L125.599 233.817C125.647 234.304 125.335 234.733 124.933 234.733Z" fill="#407BFF"/>
<path opacity="0.3" d="M124.933 234.733H124.097C123.771 234.733 123.492 234.446 123.435 234.054L118.302 198.251H122.2L125.599 233.817C125.647 234.304 125.335 234.733 124.933 234.733Z" fill="black"/>
<path d="M138.793 155.81H112.536C107.878 139.598 91.1161 126.807 73.9507 126.807H73.9485H65.4226C47.4547 126.807 35.8592 140.818 39.5233 158.101C40.1959 161.275 41.3398 164.335 42.8643 167.221L47.0048 192.373C47.5395 195.619 50.1239 198.25 52.7768 198.25H131.805C134.459 198.25 137.043 195.619 137.577 192.373L142.629 161.687C143.165 158.441 141.447 155.81 138.793 155.81Z" fill="#407BFF"/>
<path opacity="0.5" d="M138.793 155.81H112.536C107.878 139.598 91.1161 126.807 73.9507 126.807H73.9485H65.4226C47.4547 126.807 35.8592 140.818 39.5233 158.101C40.1959 161.275 41.3398 164.335 42.8643 167.221L47.0048 192.373C47.5395 195.619 50.1239 198.25 52.7768 198.25H131.805C134.459 198.25 137.043 195.619 137.577 192.373L142.629 161.687C143.165 158.441 141.447 155.81 138.793 155.81Z" fill="white"/>
<path d="M135.366 37.9319H129.343V38.671H135.366V37.9319Z" fill="#407BFF"/>
<path d="M107.185 46.6426H106.447V43.006C106.447 40.2084 108.719 37.9326 111.51 37.9326H124.956V38.6717H111.51C109.125 38.6717 107.185 40.6164 107.185 43.006V46.6426Z" fill="#407BFF"/>
<path d="M178.754 71.9202H111.511C110.141 71.9202 109.029 70.8063 109.029 69.433V43.006C109.029 41.6327 110.141 40.5189 111.511 40.5189H178.754C180.125 40.5189 181.236 41.6327 181.236 43.006V69.433C181.236 70.8063 180.125 71.9202 178.754 71.9202Z" fill="#407BFF"/>
<path d="M175.574 57.8907H114.691C113.769 57.8907 113.023 57.1427 113.023 56.2195C113.023 55.2963 113.769 54.5483 114.691 54.5483H175.574C176.495 54.5483 177.242 55.2963 177.242 56.2195C177.242 57.1427 176.495 57.8907 175.574 57.8907Z" fill="white"/>
<path d="M162.545 64.8304H114.691C113.769 64.8304 113.023 64.0824 113.023 63.1592C113.023 62.236 113.769 61.488 114.691 61.488H162.545C163.466 61.488 164.212 62.236 164.212 63.1592C164.212 64.0824 163.465 64.8304 162.545 64.8304Z" fill="white"/>
<path d="M135.222 50.9502H114.69C113.769 50.9502 113.022 50.2022 113.022 49.279C113.022 48.3559 113.769 47.6078 114.69 47.6078H135.222C136.143 47.6078 136.89 48.3559 136.89 49.279C136.89 50.2022 136.143 50.9502 135.222 50.9502Z" fill="white"/>
<path d="M162.439 50.9502H141.906C140.985 50.9502 140.239 50.2022 140.239 49.279C140.239 48.3559 140.985 47.6078 141.906 47.6078H162.439C163.36 47.6078 164.106 48.3559 164.106 49.279C164.106 50.2022 163.36 50.9502 162.439 50.9502Z" fill="white"/>
<path d="M113.023 69.9149V77.9212C113.023 79.4623 114.789 80.3307 116.006 79.3876L128.249 69.8912L113.023 69.9149Z" fill="#407BFF"/>
<path d="M216.702 0.869568H149.459C148.088 0.869568 146.977 1.98344 146.977 3.35675V29.7837C146.977 31.157 148.089 32.2709 149.459 32.2709H202.58L212.208 39.7383C213.423 40.6815 215.19 39.813 215.19 38.2719V32.2701H216.703C218.073 32.2701 219.185 31.1563 219.185 29.7829V3.35675C219.184 1.98344 218.073 0.869568 216.702 0.869568Z" fill="white"/>
<path d="M213.337 40.4981C212.857 40.4981 212.38 40.34 211.982 40.0303L202.453 32.6404H149.459C147.887 32.6404 146.608 31.3588 146.608 29.7837V3.35674C146.608 1.78165 147.887 0.5 149.459 0.5H216.702C218.274 0.5 219.553 1.78165 219.553 3.35674V29.7837C219.553 31.3588 218.274 32.6404 216.702 32.6404H215.559V38.2719C215.559 39.1271 215.083 39.8913 214.317 40.2683C214.004 40.4228 213.67 40.4981 213.337 40.4981ZM149.459 1.23913C148.294 1.23913 147.346 2.18892 147.346 3.35674V29.7837C147.346 30.9515 148.294 31.9013 149.459 31.9013H202.705L212.433 39.4456C212.889 39.8004 213.472 39.8618 213.992 39.6053C214.511 39.3495 214.821 38.8514 214.821 38.2719V31.9013H216.702C217.867 31.9013 218.815 30.9515 218.815 29.7837V3.35674C218.815 2.18892 217.867 1.23913 216.702 1.23913H149.459Z" fill="#407BFF"/>
<path d="M181.644 18.2414H213.523C214.444 18.2414 215.19 17.4934 215.19 16.5702C215.19 15.6471 214.444 14.899 213.523 14.899H181.644C180.722 14.899 179.976 15.6471 179.976 16.5702C179.976 17.4934 180.722 18.2414 181.644 18.2414Z" fill="#407BFF"/>
<path d="M159.387 18.2414H175.17C176.091 18.2414 176.838 17.4934 176.838 16.5702C176.838 15.6471 176.091 14.899 175.17 14.899H159.387C158.466 14.899 157.719 15.6471 157.719 16.5702C157.719 17.4934 158.466 18.2414 159.387 18.2414Z" fill="#407BFF"/>
<path d="M165.669 25.1818H213.523C214.444 25.1818 215.19 24.4338 215.19 23.5107C215.19 22.5875 214.444 21.8395 213.523 21.8395H165.669C164.747 21.8395 164.001 22.5875 164.001 23.5107C164.001 24.4331 164.747 25.1818 165.669 25.1818Z" fill="#407BFF"/>
<path d="M152.638 11.3009H213.522C214.443 11.3009 215.189 10.5529 215.189 9.62974C215.189 8.70656 214.443 7.95856 213.522 7.95856H152.638C151.717 7.95856 150.971 8.70656 150.971 9.62974C150.971 10.5529 151.718 11.3009 152.638 11.3009Z" fill="#407BFF"/>
</svg>
