<svg width="326" height="276" viewBox="0 0 326 276" fill="none" xmlns="http://www.w3.org/2000/svg">
<ellipse cx="163" cy="197" rx="163" ry="79" fill="#ECF2FF"/>
<path d="M306.209 193.822L310.104 131.799C311.551 108.761 293.257 89.282 270.174 89.282C248.953 89.282 231.424 105.851 230.229 127.038L226.144 199.48H300.184C303.371 199.481 306.01 197.003 306.209 193.822Z" fill="#407BFF"/>
<path opacity="0.1" d="M306.35 191.576L310.104 131.799C311.551 108.762 293.257 89.2827 270.174 89.2827C248.953 89.2827 231.424 105.852 230.229 127.039L226.144 199.481H297.933C302.385 199.481 306.071 196.02 306.35 191.576Z" fill="black"/>
<path d="M294.192 199.481L298.443 131.799C299.889 108.761 281.595 89.2821 258.512 89.2821C237.291 89.2821 219.762 105.851 218.567 127.038L214.482 199.48H294.192V199.481Z" fill="#407BFF"/>
<path d="M295.467 211.133H296.49C297.01 211.133 297.496 210.692 297.581 210.093L299.09 199.484H292.867L294.376 210.093C294.461 210.692 294.945 211.133 295.467 211.133Z" fill="#407BFF"/>
<path opacity="0.7" d="M295.467 211.133H296.49C297.01 211.133 297.496 210.692 297.581 210.093L299.09 199.484H292.867L294.376 210.093C294.461 210.692 294.945 211.133 295.467 211.133Z" fill="white"/>
<path d="M195.248 211.133H196.176C196.648 211.133 197.088 210.692 197.165 210.093L198.533 199.484H192.891L194.259 210.093C194.336 210.692 194.776 211.133 195.248 211.133Z" fill="#407BFF"/>
<path opacity="0.5" d="M195.248 211.133H196.176C196.648 211.133 197.088 210.692 197.165 210.093L198.533 199.484H192.891L194.259 210.093C194.336 210.692 194.776 211.133 195.248 211.133Z" fill="white"/>
<path d="M224.102 211.133H225.03C225.502 211.133 225.942 210.692 226.019 210.093L227.387 199.484H221.745L223.113 210.093C223.19 210.692 223.63 211.133 224.102 211.133Z" fill="#407BFF"/>
<path opacity="0.7" d="M224.102 211.133H225.03C225.502 211.133 225.942 210.692 226.019 210.093L227.387 199.484H221.745L223.113 210.093C223.19 210.692 223.63 211.133 224.102 211.133Z" fill="white"/>
<path d="M264.402 211.133H265.426C265.946 211.133 266.432 210.692 266.517 210.093L268.026 199.484H261.803L263.312 210.093C263.396 210.692 263.881 211.133 264.402 211.133Z" fill="#407BFF"/>
<path opacity="0.5" d="M264.402 211.133H265.426C265.946 211.133 266.432 210.692 266.517 210.093L268.026 199.484H261.803L263.312 210.093C263.396 210.692 263.881 211.133 264.402 211.133Z" fill="white"/>
<path d="M230.628 173.92H203.352L201.545 147.623L201.16 141.978V141.969L200.982 139.371C200.93 138.677 200.841 137.999 200.715 137.337C200.685 137.19 200.648 137.035 200.619 136.888C200.605 136.773 200.575 136.667 200.538 136.561C199.76 133.799 198.309 131.365 196.384 129.502C194.081 127.272 191.125 125.859 187.867 125.662H213.521C213.802 125.646 214.084 125.638 214.365 125.638C217.928 125.638 221.178 127.1 223.659 129.502C225.585 131.365 227.037 133.799 227.814 136.561C227.85 136.667 227.88 136.773 227.895 136.888C228.073 137.688 228.199 138.513 228.258 139.371L228.436 141.969V141.978L230.628 173.92Z" fill="#407BFF"/>
<path opacity="0.1" d="M230.628 173.92H203.352L201.545 147.623L201.16 141.978V141.969L200.982 139.371C200.93 138.677 200.841 137.999 200.715 137.337C200.685 137.19 200.648 137.035 200.619 136.888C200.605 136.773 200.575 136.667 200.538 136.561C199.76 133.799 198.309 131.365 196.384 129.502C194.081 127.272 191.125 125.859 187.867 125.662H213.521C213.802 125.646 214.084 125.638 214.365 125.638C217.928 125.638 221.178 127.1 223.659 129.502C225.585 131.365 227.037 133.799 227.814 136.561C227.85 136.667 227.88 136.773 227.895 136.888C228.073 137.688 228.199 138.513 228.258 139.371L228.436 141.969V141.978L230.628 173.92Z" fill="black"/>
<g opacity="0.1">
<path d="M252.245 159.912H263.202C265.866 159.912 268.025 161.598 268.025 163.678V170.158C268.025 172.237 265.866 173.923 263.202 173.923H252.245V159.912Z" fill="black"/>
</g>
<path d="M207.516 173.923H255.756C258.055 173.923 259.918 172.06 259.918 169.762V164.073C259.918 161.775 258.055 159.912 255.756 159.912H207.516C205.218 159.912 203.354 161.775 203.354 164.073V169.762C203.354 172.06 205.218 173.923 207.516 173.923Z" fill="#407BFF"/>
<path d="M321.303 141.177C321.303 148.856 315.731 155.245 308.411 156.495L305.585 193.87C305.34 197.048 303.036 199.483 300.275 199.483H270.187C272.948 199.483 275.251 197.048 275.497 193.87L277.008 173.92L278.324 156.495C283.193 155.662 287.286 152.565 289.475 148.317C289.623 148.048 289.753 147.762 289.876 147.475C290.742 145.548 291.216 143.423 291.216 141.177C291.216 140.09 291.102 139.028 290.889 138.007C290.807 137.591 290.701 137.174 290.587 136.774C290.031 134.919 289.149 133.212 288.005 131.717L287.996 131.709C286.567 129.847 284.729 128.335 282.621 127.281C280.529 126.227 278.168 125.639 275.676 125.639H305.765C307.358 125.639 308.902 125.885 310.356 126.333C311.173 126.586 311.958 126.905 312.709 127.281C314.816 128.335 316.654 129.846 318.084 131.708L318.093 131.717C320.102 134.339 321.303 137.615 321.303 141.177Z" fill="#407BFF"/>
<path opacity="0.1" d="M321.303 141.177C321.303 148.856 315.731 155.245 308.411 156.495L305.585 193.87C305.34 197.048 303.036 199.483 300.275 199.483H270.187C272.948 199.483 275.251 197.048 275.497 193.87L277.008 173.92L278.324 156.495C283.193 155.662 287.286 152.565 289.475 148.317C289.623 148.048 289.753 147.762 289.876 147.475C290.742 145.548 291.216 143.423 291.216 141.177C291.216 140.09 291.102 139.028 290.889 138.007C290.807 137.591 290.701 137.174 290.587 136.774C290.031 134.919 289.149 133.212 288.005 131.717L287.996 131.709C286.567 129.847 284.729 128.335 282.621 127.281C280.529 126.227 278.168 125.639 275.676 125.639H305.765C307.358 125.639 308.902 125.885 310.356 126.333C311.173 126.586 311.958 126.905 312.709 127.281C314.816 128.335 316.654 129.846 318.084 131.708L318.093 131.717C320.102 134.339 321.303 137.615 321.303 141.177Z" fill="black"/>
<path d="M291.217 141.178C291.217 148.855 286.166 155.246 279.528 156.493L276.966 193.868C276.745 197.049 274.658 199.484 272.149 199.484H191.809C189.306 199.484 187.219 197.049 186.991 193.868L184.422 156.434C177.919 155.069 173.001 148.758 173.001 141.178C173.001 137.828 173.965 134.728 175.597 132.196C176.929 130.122 178.722 128.424 180.796 127.281C182.689 126.225 184.83 125.634 187.092 125.634C190.651 125.634 193.903 127.103 196.385 129.502C198.312 131.362 199.764 133.798 200.539 136.558C200.573 136.668 200.606 136.772 200.62 136.89C200.801 137.687 200.921 138.514 200.981 139.37L201.162 141.968V141.975L203.35 173.919H260.608L262.976 139.37C263.318 134.492 265.692 130.426 268.991 128.499C271.072 126.86 273.581 125.842 276.283 125.672C276.564 125.643 276.846 125.635 277.126 125.635C279.321 125.635 281.401 126.189 283.248 127.192C283.309 127.215 283.362 127.251 283.423 127.281C285.336 128.337 287.003 129.849 288.3 131.71L288.307 131.717C290.127 134.337 291.217 137.614 291.217 141.178Z" fill="#407BFF"/>
<path opacity="0.1" d="M259.283 199.484H191.809C189.306 199.484 187.219 197.049 186.991 193.868L184.422 156.434C177.919 155.069 173.001 148.758 173.001 141.178C173.001 137.828 173.965 134.728 175.597 132.196C176.929 130.122 178.722 128.424 180.796 127.281C182.689 126.225 184.83 125.634 187.092 125.634C190.651 125.634 193.903 127.103 196.385 129.502C198.312 131.362 199.764 133.798 200.539 136.558C200.573 136.668 200.606 136.772 200.62 136.89C200.801 137.687 200.921 138.514 200.981 139.37L201.162 141.968V141.975L203.35 173.919H260.608L259.283 199.484Z" fill="white"/>
<path d="M250.527 93.195C249.194 93.9337 247.971 94.5987 246.712 95.2454C245.452 95.8928 244.174 96.5003 242.896 97.094C240.319 98.2715 237.71 99.3868 235.02 100.369C232.315 101.38 229.56 102.252 226.766 102.981C223.862 103.764 220.896 104.295 217.901 104.568L217.269 104.627L216.963 104.604C214.257 104.292 211.856 103.801 209.448 103.3C207.04 102.801 204.652 102.235 202.289 101.634C199.926 101.033 197.58 100.403 195.237 99.7289C192.895 99.0547 190.561 98.3589 188.242 97.5665L189.309 92.24C194.131 92.5514 198.948 93.0354 203.72 93.508L210.846 94.2221C213.192 94.4476 215.592 94.6478 217.694 94.7291L216.765 94.7498C219.172 94.3226 221.545 93.7235 223.867 92.9572C226.273 92.1709 228.676 91.3164 231.071 90.2824C233.465 89.2484 235.853 88.199 238.217 87.073C239.424 86.5191 240.604 85.9339 241.753 85.3609C242.902 84.7879 244.128 84.1757 245.179 83.6257L250.527 93.195Z" fill="#263238"/>
<path opacity="0.1" d="M250.527 93.195C249.194 93.9337 247.971 94.5987 246.712 95.2454C245.452 95.8928 244.174 96.5003 242.896 97.094C240.319 98.2715 237.71 99.3868 235.02 100.369C232.315 101.38 229.56 102.252 226.766 102.981C223.862 103.764 220.896 104.295 217.901 104.568L217.269 104.627L216.963 104.604C214.257 104.292 211.856 103.801 209.448 103.3C207.04 102.801 204.652 102.235 202.289 101.634C199.926 101.033 197.58 100.403 195.237 99.7289C192.895 99.0547 190.561 98.3589 188.242 97.5665L189.309 92.24C194.131 92.5514 198.948 93.0354 203.72 93.508L210.846 94.2221C213.192 94.4476 215.592 94.6478 217.694 94.7291L216.765 94.7498C219.172 94.3226 221.545 93.7235 223.867 92.9572C226.273 92.1709 228.676 91.3164 231.071 90.2824C233.465 89.2484 235.853 88.199 238.217 87.073C239.424 86.5191 240.604 85.9339 241.753 85.3609C242.902 84.7879 244.128 84.1757 245.179 83.6257L250.527 93.195Z" fill="black"/>
<path d="M188.291 89.3466C186.494 88.0564 184.581 87.5325 184.581 87.5325L182.596 95.2868L188.545 97.789L189.22 96.9621C191.131 94.621 190.746 91.1086 188.291 89.3466Z" fill="#FFC3BD"/>
<path d="M182.596 95.286L184.581 87.5324L179.027 84.5048L177.352 89.9648L182.596 95.286Z" fill="#FFC3BD"/>
<path opacity="0.2" d="M231.848 101.041L232.062 101.031L232.158 101.05C235.089 100.731 243.697 99.284 249.931 93.1405C248.997 91.3486 247.725 89.9533 246.168 89.6419C241.876 88.8579 236.613 91.9339 231.848 101.041Z" fill="black"/>
<path d="M236.888 141.171C244.236 121.329 239.402 103.081 240.326 92.9809C240.799 87.8699 244.593 83.6863 249.635 82.7167C254.657 81.7456 260.856 80.6586 266.776 79.8601C267.343 79.7834 267.916 79.7489 268.488 79.7565C274.891 79.8432 280.012 85.1038 279.925 91.5074C279.407 121.442 269.817 141.171 269.817 141.171L254.327 141.104L236.888 141.171Z" fill="#407BFF"/>
<path opacity="0.8" d="M236.888 141.171C244.236 121.329 239.402 103.081 240.326 92.9809C240.799 87.8699 244.593 83.6863 249.635 82.7167C254.657 81.7456 260.856 80.6586 266.776 79.8601C267.343 79.7834 267.916 79.7489 268.488 79.7565C274.891 79.8432 280.012 85.1038 279.925 91.5074C279.407 121.442 269.817 141.171 269.817 141.171L254.327 141.104L236.888 141.171Z" fill="white"/>
<path d="M178.115 208.884L176.148 221.796H182.39L186.487 208.884H178.115Z" fill="#FFC3BD"/>
<path d="M175.353 218.915L183.693 218.72C183.985 218.704 184.217 218.908 184.216 219.177L184.235 225.299C184.196 225.968 183.583 226.526 182.862 226.549C179.961 226.571 178.582 226.442 174.912 226.528C170.987 226.513 167.088 226.256 163.242 225.76C160.272 225.252 161.074 222.464 162.418 222.419C168.484 222.197 171.871 220.933 174.046 219.369C174.425 219.087 174.887 218.927 175.353 218.915Z" fill="#263238"/>
<path opacity="0.2" d="M177.326 214.062L178.115 208.884H186.487L184.471 215.34L177.326 214.062Z" fill="black"/>
<path d="M233.042 136.526C233.042 136.526 182.304 137.03 181.514 153.101C180.391 176.206 176.487 211.433 176.487 211.433L186.057 214.063C186.057 214.063 199.705 179.135 200.237 161.091C214.508 158.247 251.204 161.091 255.514 151.717C257.627 146.842 258.186 141.62 257.141 136.526H233.042Z" fill="#407BFF"/>
<path opacity="0.6" d="M233.042 136.526C233.042 136.526 182.304 137.03 181.514 153.101C180.391 176.206 176.487 211.433 176.487 211.433L186.057 214.063C186.057 214.063 199.705 179.135 200.237 161.091C214.508 158.247 251.204 161.091 255.514 151.717C257.627 146.842 258.186 141.62 257.141 136.526H233.042Z" fill="black"/>
<path d="M222.757 213.875L226.144 222.636H232.983L230.628 213.422L222.757 213.875Z" fill="#FFC3BD"/>
<path opacity="0.2" d="M231.264 215.909L229.937 209.169L221.297 210.243L223.507 216.103L231.264 215.909Z" fill="black"/>
<path d="M224.289 219.734H233.019C233.322 219.72 233.58 219.942 233.595 220.229C233.595 220.232 233.595 220.235 233.596 220.238L234.024 226.782C234.024 227.5 233.418 228.084 232.662 228.098C229.624 228.048 228.166 227.875 224.326 227.875C221.968 227.875 217.202 228.106 213.937 228.106C210.672 228.106 210.768 225.053 212.147 224.797C218.355 223.556 220.755 221.844 222.946 220.206C223.326 219.913 223.799 219.748 224.289 219.734Z" fill="#263238"/>
<path d="M246.713 136.525C246.713 136.525 200.694 139.645 201.826 155.708C203.062 173.294 221.491 214.063 221.491 214.063H230.796C230.796 214.063 224.612 177.062 221.805 159.149C234.782 159.149 264.865 161.106 269.185 151.71C271.297 146.834 271.853 141.611 270.802 136.518L246.713 136.525Z" fill="#407BFF"/>
<path opacity="0.5" d="M246.713 136.525C246.713 136.525 200.694 139.645 201.826 155.708C203.062 173.294 221.491 214.063 221.491 214.063H230.796C230.796 214.063 224.612 177.062 221.805 159.149C234.782 159.149 264.865 161.106 269.185 151.71C271.297 146.834 271.853 141.611 270.802 136.518L246.713 136.525Z" fill="black"/>
<path d="M253.683 71.4876C254.745 75.5822 255.077 80.6794 249.354 82.7996C247.767 85.3302 246.988 87.9966 253.107 87.0461C257.973 86.4179 262.402 83.9119 265.448 80.0642C261.785 76.8625 262.456 67.0309 263.382 61.4834L253.683 71.4876Z" fill="#FFC3BD"/>
<path d="M253.033 78.9388C247.783 79.8417 243.459 83.9018 241.143 88.6983C238.827 93.4949 238.269 98.9549 238.313 104.281C238.357 109.608 238.964 114.925 238.824 120.25C238.662 126.403 237.178 130.736 235.062 136.517C235.062 137.892 237.141 138.667 238.905 139.024C242.569 131.022 244.978 123.373 244.724 114.576C244.539 108.194 244.448 100.926 245.488 94.6255C246.513 88.4199 254.057 80.1186 253.696 78.9872L253.033 78.9388Z" fill="#263238"/>
<path opacity="0.3" d="M258.154 74.4891C256.913 75.3045 255.44 75.7409 254.274 75.4295C254.284 74.4338 254.212 73.439 254.058 72.4548L260.407 67.2379C260.548 67.9152 260.638 68.6018 260.675 69.2914C260.787 71.3433 259.871 73.3607 258.154 74.4891Z" fill="black"/>
<path d="M248.659 47.2638C241.942 51.0555 241.874 61.7907 243.943 67.994C244.532 69.825 245.674 71.4282 247.213 72.5827C251.321 75.6648 257.149 74.834 260.231 70.7271C263.512 66.5749 263.04 62.386 262.879 55.1816C262.706 47.9841 255.376 43.4714 248.659 47.2638Z" fill="#FFC3BD"/>
<path opacity="0.2" d="M250.819 66.5481C248.655 67.474 246.283 68.6798 244.098 68.419C244.72 70.0713 245.796 71.518 247.212 72.5812C251.32 75.6633 257.148 74.8325 260.231 70.7256C262.915 67.329 263.764 65.0262 262.974 58.8275C258.785 63.7514 255.447 64.5683 250.819 66.5481Z" fill="black"/>
<path d="M257.311 49.6517C255.865 51.8739 256.162 55.0749 257.993 56.9926C258.599 57.6278 259.341 58.1241 259.926 58.7776C260.828 59.784 261.312 61.1532 261.243 62.5033C261.472 60.7459 263.113 59.2846 264.885 59.2609C263.974 62.0737 263.063 64.8873 262.152 67.7002C265.764 66.0679 268.393 62.4381 268.816 58.4976C269.398 53.079 262.678 41.4041 257.311 49.6517Z" fill="#263238"/>
<path d="M241.647 50.0623C241.167 50.6568 240.712 51.3088 240.578 52.0605C240.443 52.8123 240.712 53.6844 241.385 54.045C241.932 54.3372 242.597 54.239 243.207 54.1332C245.248 53.778 247.29 53.4229 249.332 53.0685C252.844 52.4579 256.36 51.8465 259.827 51.0166C261.382 50.6438 263.132 50.0577 263.744 48.5803C265.732 43.7869 257.242 43.1632 254.411 43.2998C249.549 43.5322 244.666 46.3244 241.647 50.0623Z" fill="#263238"/>
<path d="M263.968 58.0628C261.952 58.5177 261.096 61.4088 261.154 63.2643C261.166 65.3684 262.712 66.7415 264.463 65.472C265.785 64.4901 266.685 63.0427 266.98 61.4226C267.338 59.4313 265.984 57.6079 263.968 58.0628Z" fill="#FFC3BD"/>
<path d="M249.765 65.3854C249.765 65.3854 248.616 66.1402 247.676 65.7022C248.453 63.9717 248.349 64.3621 248.585 61.4104L249.765 65.3854Z" fill="#ED847E"/>
<path d="M253.302 55.7853C252.724 55.1417 251.156 54.8939 250.3 55.019C250.294 55.0205 250.287 55.0213 250.28 55.0228C250.102 55.0504 249.934 54.9269 249.907 54.7482C249.882 54.5579 250.009 54.3808 250.197 54.3432C251.27 54.1805 253.06 54.5043 253.786 55.3105C253.788 55.3128 253.791 55.3158 253.793 55.3181C253.919 55.46 253.905 55.6771 253.763 55.8022C253.719 55.8428 253.668 55.8758 253.612 55.898C253.496 55.9164 253.379 55.8743 253.302 55.7853Z" fill="#263238"/>
<path d="M243.374 57.2573C243.368 57.2535 243.361 57.2489 243.354 57.2443C243.203 57.1438 243.162 56.9397 243.263 56.7894C243.812 55.8098 244.785 55.1417 245.897 54.9829C245.904 54.9822 245.913 54.9822 245.921 54.9822C246.098 54.9822 246.242 55.1256 246.242 55.3028C246.249 55.4946 246.102 55.658 245.911 55.6718C245.033 55.8106 244.269 56.3483 243.842 57.1284C243.783 57.2274 243.68 57.2926 243.565 57.3041C243.497 57.3102 243.43 57.2934 243.374 57.2573Z" fill="#263238"/>
<path d="M249.164 68.5051C250.003 69.49 251.194 71.456 251.194 71.456C251.355 71.3923 251.517 71.3279 251.673 71.2543C253.833 70.3192 254.448 69.0175 254.474 67.8576C254.486 67.2225 254.315 66.625 254.125 66.1601C253.91 65.6201 253.655 65.2719 253.655 65.2719C252.882 66.5997 250.952 67.6598 249.894 68.1729C249.453 68.3931 249.164 68.5051 249.164 68.5051Z" fill="#2E353A"/>
<path d="M249.893 68.1722L250.201 68.5994C250.38 68.8487 250.715 68.94 250.994 68.8088C252.59 68.0571 253.648 67.257 254.032 66.4071C254.106 66.2437 254.084 66.0512 254.008 65.8893C253.827 65.5058 253.655 65.2719 253.655 65.2719C252.881 66.5997 250.952 67.6597 249.893 68.1722Z" fill="white"/>
<path d="M251.673 71.2533C253.833 70.3182 254.448 69.0165 254.474 67.8567C253.754 68.2095 252.932 68.7335 252.334 69.4729C251.874 70.0359 251.709 70.6688 251.673 71.2533Z" fill="#DE5753"/>
<path d="M245.843 59.6905C245.467 59.7596 245.254 60.2927 245.366 60.8688C245.478 61.4448 245.88 61.8591 246.252 61.7831C246.624 61.7072 246.841 61.181 246.729 60.6049C246.629 60.0411 246.218 59.6215 245.843 59.6905Z" fill="#263238"/>
<path d="M252.424 58.5983C252.049 58.6673 251.835 59.2004 251.947 59.7765C252.059 60.3526 252.461 60.7668 252.833 60.6909C253.205 60.6149 253.422 60.0887 253.31 59.5126C253.211 58.9488 252.799 58.5292 252.424 58.5983Z" fill="#263238"/>
<path opacity="0.9" d="M242.938 62.7719L247.779 61.6842L247.861 63.7392L243.363 64.8154L242.938 62.7719Z" fill="white"/>
<g opacity="0.8">
<path opacity="0.9" d="M249.253 61.3612L249.831 63.2497L256.039 61.9134L255.671 59.7303L249.253 61.3612Z" fill="white"/>
</g>
<path d="M247.809 62.4404L247.779 61.684L249.253 61.3611L249.472 62.076L247.809 62.4404Z" fill="#263238"/>
<path d="M246.047 140.289C246.047 140.289 254.783 143.672 256.777 144.337C259.129 145.121 261.515 145.912 263.969 145.987C266.423 146.061 268.995 145.336 270.771 143.444C272.859 141.221 273.506 137.841 274.05 134.678C275.652 125.375 277.255 116.071 278.856 106.768C279.646 102.18 281.639 95.2868 281.47 92.6603C281.157 87.83 278.08 82.1269 270.247 78.9842C267.204 77.7637 264.199 78.2324 261.634 81.3007C260.103 83.1317 255.638 87.5317 254.541 95.286C253.662 101.501 252.302 109.549 252.384 115.861C252.493 124.143 249.195 134.609 246.047 140.289Z" fill="#263238"/>
<path d="M281.047 90.1098C281.937 98.197 277.468 118.578 276.605 119.799C272.941 131.625 262.87 125.252 261.41 124.706C258.871 123.768 256.287 121.939 253.872 120.717C249.183 118.389 244.746 116.516 240.386 113.618L242.842 108.77C247.616 110.402 261.143 113.894 263.371 114.438C264.34 114.691 268.105 116.668 268.066 114.062C268.6 113.196 269.337 96.3154 270.955 90.3476C271.137 89.6756 271.462 89.0558 271.896 88.512L272.044 88.3279C274.658 85.0548 279.876 86.0872 281.047 90.1098Z" fill="#263238"/>
<path opacity="0.1" d="M281.047 90.1098C281.937 98.197 277.468 118.578 276.605 119.799C272.941 131.625 262.87 125.252 261.41 124.706C258.871 123.768 256.287 121.939 253.872 120.717C249.183 118.389 244.746 116.516 240.386 113.618L242.842 108.77C247.616 110.402 261.143 113.894 263.371 114.438C264.34 114.691 268.105 116.668 268.066 114.062C268.6 113.196 269.337 96.3154 270.955 90.3476C271.137 89.6756 271.462 89.0558 271.896 88.512L272.044 88.3279C274.658 85.0548 279.876 86.0872 281.047 90.1098Z" fill="white"/>
<path d="M240.919 120.642H218.215L215.623 91.0156H238.327L240.919 120.642Z" fill="#263238"/>
<path opacity="0.5" d="M240.919 120.642H218.215L215.623 91.0156H238.327L240.919 120.642Z" fill="white"/>
<path d="M240.117 120.492H217.413L214.821 90.8662H237.525L240.117 120.492Z" fill="#407BFF"/>
<path opacity="0.8" d="M240.117 120.492H217.413L214.821 90.8662H237.525L240.117 120.492Z" fill="white"/>
<path d="M231.109 92.717H221.561L221.236 89.0151H230.786L231.109 92.717Z" fill="#407BFF"/>
<path d="M221.236 89.0152L222.178 88.6899H232.065L232.199 90.2663L231.464 91.1185L231.415 92.4064L231.109 92.7171L230.786 89.0152H221.236Z" fill="#407BFF"/>
<path opacity="0.5" d="M221.236 89.0152L222.178 88.6899H232.065L232.199 90.2663L231.464 91.1185L231.415 92.4064L231.109 92.7171L230.786 89.0152H221.236Z" fill="black"/>
<path d="M244.648 110.378L245.166 113.146C243.94 116.34 236.899 115.497 236.899 115.497L236.887 107.314L243.094 108.756C243.887 108.944 244.495 109.579 244.648 110.378Z" fill="#FFC3BD"/>
<path d="M236.888 107.314L236.922 115.515L230.693 115.67L229.263 108.454L236.888 107.314Z" fill="#FFC3BD"/>
<path d="M260.607 173.919L262.975 139.37C263.317 134.492 265.692 130.426 268.99 128.499C271.071 126.86 273.58 125.842 276.283 125.672C276.563 125.643 276.845 125.635 277.126 125.635C279.32 125.635 281.401 126.189 283.248 127.192C283.308 127.215 283.361 127.251 283.422 127.281C285.336 128.337 287.002 129.85 288.3 131.71L288.307 131.717C290.126 134.338 291.217 137.615 291.217 141.179C291.217 148.855 286.166 155.247 279.528 156.494L276.966 193.869C276.745 197.05 274.658 199.485 272.149 199.485H259.283L260.607 173.919Z" fill="#407BFF"/>
<path opacity="0.1" d="M260.607 173.919L262.975 139.37C263.317 134.492 265.692 130.426 268.99 128.499C271.071 126.86 273.58 125.842 276.283 125.672C276.563 125.643 276.845 125.635 277.126 125.635C279.32 125.635 281.401 126.189 283.248 127.192C283.308 127.215 283.361 127.251 283.422 127.281C285.336 128.337 287.002 129.85 288.3 131.71L288.307 131.717C290.126 134.338 291.217 137.615 291.217 141.179C291.217 148.855 286.166 155.247 279.528 156.494L276.966 193.869C276.745 197.05 274.658 199.485 272.149 199.485H259.283L260.607 173.919Z" fill="white"/>
<path d="M143.551 13.3255V45.3969C143.551 47.0691 142.193 48.4269 140.521 48.4269H107.636L95.8999 57.5014C95.5164 57.7928 95.0408 57.9539 94.5575 57.9539C93.3149 57.9539 92.31 56.9491 92.31 55.7064V48.4269H90.4767C88.8045 48.4269 87.4468 47.0691 87.4468 45.3969V13.3179C87.4544 11.6533 88.8122 10.3033 90.4767 10.3109H140.536C142.201 10.3109 143.551 11.661 143.551 13.3255Z" stroke="#407BFF" stroke-miterlimit="10"/>
<path d="M112.794 5.79675H106.527V6.56383H112.794V5.79675Z" fill="#407BFF"/>
<path d="M83.4761 14.833H82.709V11.0513C82.7136 8.1441 85.0716 5.78918 87.9788 5.78918H101.963V6.55626H87.9788C85.495 6.55626 83.4799 8.56753 83.4761 11.0513V14.833Z" fill="#407BFF"/>
<path d="M127.804 33.8065C126.395 33.8065 125.257 32.6137 125.377 31.2107C125.378 31.2 125.378 31.1885 125.38 31.1777C126.198 21.8248 133.608 20.9687 134.539 10.331C134.807 7.27417 133.686 6.11282 131.546 6.11282C129.406 6.11282 128.082 7.27417 127.815 10.331L127.661 12.086C127.518 13.7222 126.148 14.9771 124.506 14.9771C122.648 14.9771 121.189 13.3854 121.351 11.5345L121.419 10.759C122.018 3.91208 125.722 0 132.264 0C138.805 0 141.825 3.91285 141.226 10.759C140.253 21.8854 132.155 23.5975 131.471 31.4224C131.468 31.4608 131.465 31.4991 131.462 31.5367C131.36 32.8124 130.317 33.8065 129.037 33.8065H127.804ZM131.122 40.3113L131.12 40.3358C130.974 42.0027 129.578 43.2822 127.904 43.2822C126.01 43.2822 124.524 41.6598 124.689 39.7728L124.691 39.7483C124.837 38.0814 126.233 36.8019 127.907 36.8019C129.8 36.8027 131.287 38.4251 131.122 40.3113Z" fill="#407BFF"/>
<path d="M119.159 26.3H101.548C100.701 26.3 100.014 25.6127 100.014 24.7658C100.014 23.9182 100.701 23.2317 101.548 23.2317H119.159C120.006 23.2317 120.693 23.9182 120.693 24.7658C120.693 25.6127 120.006 26.3 119.159 26.3Z" fill="#407BFF"/>
<path d="M116.718 32.3699H101.548C100.701 32.3699 100.014 31.6826 100.014 30.8358C100.014 29.9882 100.701 29.3016 101.548 29.3016H116.718C117.566 29.3016 118.252 29.9882 118.252 30.8358C118.252 31.6826 117.565 32.3699 116.718 32.3699Z" fill="#407BFF"/>
<path d="M114.277 38.4389H101.548C100.701 38.4389 100.014 37.7516 100.014 36.9048C100.014 36.0571 100.701 35.3706 101.548 35.3706H114.277C115.125 35.3706 115.812 36.0571 115.812 36.9048C115.812 37.7524 115.125 38.4389 114.277 38.4389Z" fill="#407BFF"/>
<path d="M78.1813 163.607H66.9697C64.2443 163.607 62.0352 165.332 62.0352 167.46V174.091C62.0352 176.219 64.2443 177.944 66.9697 177.944H78.1813V163.607Z" fill="#407BFF"/>
<path d="M26.0936 194.815L22.1984 132.791C20.7517 109.754 39.0457 90.2747 62.1285 90.2747C83.3496 90.2747 100.879 106.843 102.074 128.031L106.159 200.473H32.119C28.9318 200.473 26.2931 197.996 26.0936 194.815Z" fill="#407BFF"/>
<path opacity="0.1" d="M25.9525 192.568L22.1984 132.791C20.7517 109.754 39.0457 90.2747 62.1285 90.2747C83.3496 90.2747 100.879 106.843 102.074 128.031L106.159 200.473H34.3696C29.9167 200.473 26.2317 197.012 25.9525 192.568Z" fill="black"/>
<path d="M38.1099 200.473L33.8596 132.791C32.4129 109.754 50.7068 90.2747 73.7896 90.2747C95.0107 90.2747 112.54 106.843 113.735 128.031L117.82 200.473L38.1099 200.473Z" fill="#407BFF"/>
<path d="M36.8361 212.125H35.8128C35.2919 212.125 34.8064 211.684 34.7212 211.086L33.2124 200.476H39.4357L37.9268 211.086C37.8425 211.684 37.3569 212.125 36.8361 212.125Z" fill="#407BFF"/>
<path opacity="0.7" d="M36.8361 212.125H35.8128C35.2919 212.125 34.8064 211.684 34.7212 211.086L33.2124 200.476H39.4357L37.9268 211.086C37.8425 211.684 37.3569 212.125 36.8361 212.125Z" fill="white"/>
<path d="M137.054 212.125H136.127C135.654 212.125 135.215 211.684 135.137 211.086L133.77 200.476H139.411L138.044 211.086C137.967 211.684 137.527 212.125 137.054 212.125Z" fill="#407BFF"/>
<path opacity="0.5" d="M137.054 212.125H136.127C135.654 212.125 135.215 211.684 135.137 211.086L133.77 200.476H139.411L138.044 211.086C137.967 211.684 137.527 212.125 137.054 212.125Z" fill="white"/>
<path d="M108.2 212.125H107.273C106.8 212.125 106.361 211.684 106.283 211.086L104.916 200.476H110.557L109.19 211.086C109.113 211.684 108.673 212.125 108.2 212.125Z" fill="#407BFF"/>
<path opacity="0.7" d="M108.2 212.125H107.273C106.8 212.125 106.361 211.684 106.283 211.086L104.916 200.476H110.557L109.19 211.086C109.113 211.684 108.673 212.125 108.2 212.125Z" fill="white"/>
<path d="M67.901 212.125H66.8777C66.3569 212.125 65.8713 211.684 65.7862 211.086L64.2773 200.476H70.5006L68.9918 211.086C68.9074 211.684 68.4218 212.125 67.901 212.125Z" fill="#407BFF"/>
<path opacity="0.5" d="M67.901 212.125H66.8777C66.3569 212.125 65.8713 211.684 65.7862 211.086L64.2773 200.476H70.5006L68.9918 211.086C68.9074 211.684 68.4218 212.125 67.901 212.125Z" fill="white"/>
<path d="M101.674 174.912H128.95L130.757 148.614L131.142 142.97V142.961L131.32 140.363C131.372 139.669 131.461 138.991 131.587 138.329C131.617 138.182 131.654 138.027 131.683 137.879C131.698 137.765 131.728 137.658 131.764 137.553C132.542 134.791 133.993 132.357 135.919 130.494C138.222 128.263 141.177 126.85 144.436 126.655H118.782C118.5 126.639 118.219 126.63 117.937 126.63C114.375 126.63 111.124 128.092 108.643 130.495C106.718 132.357 105.266 134.792 104.489 137.553C104.452 137.659 104.422 137.766 104.407 137.88C104.229 138.681 104.104 139.505 104.045 140.364L103.867 142.962V142.97L101.674 174.912Z" fill="#407BFF"/>
<path opacity="0.1" d="M101.674 174.912H128.95L130.757 148.614L131.142 142.97V142.961L131.32 140.363C131.372 139.669 131.461 138.991 131.587 138.329C131.617 138.182 131.654 138.027 131.683 137.879C131.698 137.765 131.728 137.658 131.764 137.553C132.542 134.791 133.993 132.357 135.919 130.494C138.222 128.263 141.177 126.85 144.436 126.655H118.782C118.5 126.639 118.219 126.63 117.937 126.63C114.375 126.63 111.124 128.092 108.643 130.495C106.718 132.357 105.266 134.792 104.489 137.553C104.452 137.659 104.422 137.766 104.407 137.88C104.229 138.681 104.104 139.505 104.045 140.364L103.867 142.962V142.97L101.674 174.912Z" fill="black"/>
<g opacity="0.1">
<path d="M80.0576 160.904H69.0999C66.4367 160.904 64.2773 162.59 64.2773 164.669V171.15C64.2773 173.229 66.4367 174.915 69.0999 174.915H80.0576V160.904Z" fill="black"/>
</g>
<path d="M124.787 174.915H76.5466C74.2485 174.915 72.3853 173.052 72.3853 170.754V165.065C72.3853 162.767 74.2485 160.904 76.5466 160.904H124.787C127.085 160.904 128.949 162.767 128.949 165.065V170.754C128.949 173.052 127.085 174.915 124.787 174.915Z" fill="#407BFF"/>
<path d="M11 142.169C11 149.848 16.572 156.237 23.8915 157.487L26.7181 194.862C26.9628 198.04 29.2671 200.475 32.0286 200.475H62.1171C59.3556 200.475 57.0521 198.04 56.8066 194.862L55.2955 174.912L53.9799 157.487C49.1106 156.654 45.0174 153.557 42.8282 149.309C42.6809 149.039 42.5505 148.753 42.4278 148.467C41.5618 146.54 41.0877 144.415 41.0877 142.169C41.0877 141.082 41.202 140.02 41.4145 138.999C41.4966 138.583 41.6024 138.166 41.7167 137.766C42.2721 135.911 43.155 134.204 44.2987 132.709L44.3071 132.701C45.737 130.838 47.5749 129.326 49.6828 128.273C51.7746 127.219 54.1357 126.631 56.6271 126.631H26.5386C24.9454 126.631 23.4013 126.876 21.9477 127.325C21.1308 127.578 20.346 127.897 19.5951 128.273C17.4871 129.326 15.6492 130.838 14.2194 132.7L14.211 132.709C12.2005 135.331 11 138.607 11 142.169Z" fill="#407BFF"/>
<path opacity="0.1" d="M11 142.169C11 149.848 16.572 156.237 23.8915 157.487L26.7181 194.862C26.9628 198.04 29.2671 200.475 32.0286 200.475H62.1171C59.3556 200.475 57.0521 198.04 56.8066 194.862L55.2955 174.912L53.9799 157.487C49.1106 156.654 45.0174 153.557 42.8282 149.309C42.6809 149.039 42.5505 148.753 42.4278 148.467C41.5618 146.54 41.0877 144.415 41.0877 142.169C41.0877 141.082 41.202 140.02 41.4145 138.999C41.4966 138.583 41.6024 138.166 41.7167 137.766C42.2721 135.911 43.155 134.204 44.2987 132.709L44.3071 132.701C45.737 130.838 47.5749 129.326 49.6828 128.273C51.7746 127.219 54.1357 126.631 56.6271 126.631H26.5386C24.9454 126.631 23.4013 126.876 21.9477 127.325C21.1308 127.578 20.346 127.897 19.5951 128.273C17.4871 129.326 15.6492 130.838 14.2194 132.7L14.211 132.709C12.2005 135.331 11 138.607 11 142.169Z" fill="black"/>
<path d="M41.0854 142.17C41.0854 149.846 46.1366 156.238 52.7741 157.485L55.3362 194.86C55.5571 198.041 57.6443 200.476 60.1534 200.476H140.494C142.996 200.476 145.083 198.041 145.311 194.86L147.88 157.426C154.383 156.06 159.301 149.75 159.301 142.17C159.301 138.82 158.337 135.72 156.705 133.188C155.373 131.114 153.581 129.416 151.507 128.272C149.613 127.217 147.473 126.626 145.21 126.626C141.651 126.626 138.4 128.095 135.917 130.494C133.99 132.354 132.538 134.789 131.763 137.549C131.729 137.66 131.696 137.763 131.682 137.882C131.502 138.678 131.382 139.505 131.321 140.361L131.14 142.96V142.967L128.952 174.91H71.694L69.3261 140.362C68.9847 135.484 66.6098 131.417 63.3114 129.49C61.2304 127.852 58.7213 126.833 56.0189 126.664C55.7381 126.634 55.4566 126.627 55.1758 126.627C52.9812 126.627 50.9009 127.181 49.0538 128.184C48.9932 128.206 48.9403 128.243 48.8797 128.273C46.9658 129.329 45.3005 130.841 44.0019 132.701L43.995 132.709C42.1762 135.329 41.0854 138.606 41.0854 142.17Z" fill="#407BFF"/>
<path opacity="0.1" d="M73.0203 200.477H140.494C142.997 200.477 145.084 198.042 145.312 194.861L147.881 157.427C154.384 156.061 159.302 149.75 159.302 142.171C159.302 138.82 158.338 135.721 156.706 133.188C155.374 131.114 153.582 129.417 151.507 128.273C149.614 127.218 147.473 126.627 145.211 126.627C141.652 126.627 138.4 128.096 135.918 130.495C133.991 132.355 132.539 134.79 131.764 137.55C131.73 137.661 131.697 137.764 131.683 137.882C131.503 138.679 131.382 139.506 131.322 140.362L131.141 142.96V142.968L128.953 174.911H71.6948L73.0203 200.477Z" fill="white"/>
<path d="M93.5605 213.677L100.106 215.489L105.976 200.107L99.4371 198.294L93.5605 213.677Z" fill="#FFC3BD"/>
<path d="M103.036 213.447C102.528 212.772 101.767 212.334 100.939 212.173L94.1971 210.863C93.8841 210.789 93.5681 210.97 93.4722 211.276L91.3873 217.422C91.1403 218.124 91.5093 218.893 92.2104 219.139C92.2249 219.144 92.2395 219.149 92.2549 219.154C94.7386 220.132 96.4193 219.795 100.307 220.547C102.701 221.013 107.73 222.606 111.09 222.468C114.45 222.331 114.441 219.006 113.028 218.761C108.013 217.975 104.176 214.963 103.036 213.447Z" fill="#263238"/>
<g opacity="0.2">
<path d="M105.977 200.113L102.95 208.044L96.4033 206.225L99.431 198.295L105.977 200.113Z" fill="black"/>
</g>
<path d="M84.1438 141.765C84.1438 141.765 123.538 141.55 122.31 154.746C121.48 163.653 117.201 173.026 113.863 182.07C109.026 195.177 104.832 206.597 104.832 206.597L95.8539 203.492C95.8539 203.492 103.916 165.581 109.35 161.702H76.0396C65.0168 161.702 60.2509 149.595 70.9823 135.485C77.5431 135.49 84.1438 141.765 84.1438 141.765Z" fill="#407BFF"/>
<path opacity="0.6" d="M84.1438 141.765C84.1438 141.765 123.538 141.55 122.31 154.746C122.92 162.942 104.832 206.597 104.832 206.597L95.8539 203.492C95.8539 203.492 103.916 165.581 109.35 161.702H76.0396C65.0168 161.702 60.2509 149.595 70.9823 135.485C77.5431 135.49 84.1438 141.765 84.1438 141.765Z" fill="black"/>
<path d="M111.925 117.778C107.079 122.208 97.556 111.73 96.0257 110.482C92.7403 107.802 83.0882 98.7899 83.5991 95.6618C85.1034 86.4515 100.226 99.4994 104.588 108.487L111.925 117.778Z" fill="#263238"/>
<path d="M69.4974 90.0797C67.0681 90.5967 64.437 89.7177 62.728 91.5195C61.019 93.3221 60.3033 95.8566 60.0547 98.3281C59.7088 101.765 60.1506 105.226 60.5917 108.651C61.1263 112.805 61.6618 116.958 62.1964 121.112C62.5623 123.951 62.3859 128.568 61.806 131.371L61.8014 131.393C61.6587 132.106 62.0729 132.892 62.7418 133.179C62.7418 133.179 81.6042 133.829 87.088 133.62C90.0044 133.51 88.0039 125.843 88.8967 121.373C89.0946 120.381 91.0484 116.281 91.3353 115.231C92.6899 110.281 91.7924 106.88 90.536 101.904C89.6247 98.2936 89.2496 93.0828 87.4078 92.6832C84.1278 91.9713 76.2669 88.6392 69.4974 90.0797Z" fill="#407BFF"/>
<path opacity="0.8" d="M69.4974 90.0797C67.0681 90.5967 64.437 89.7177 62.728 91.5195C61.019 93.3221 60.3033 95.8566 60.0547 98.3281C59.7088 101.765 60.1506 105.226 60.5917 108.651C61.1263 112.805 61.6618 116.958 62.1964 121.112C62.5623 123.951 62.3859 128.568 61.806 131.371L61.8014 131.393C61.6587 132.106 62.0729 132.892 62.7418 133.179C62.7418 133.179 81.6042 133.829 87.088 133.62C90.0044 133.51 88.0039 125.843 88.8967 121.373C89.0946 120.381 91.0484 116.281 91.3353 115.231C92.6899 110.281 91.7924 106.88 90.536 101.904C89.6247 98.2936 89.2496 93.0828 87.4078 92.6832C84.1278 91.9713 76.2669 88.6392 69.4974 90.0797Z" fill="white"/>
<path d="M66.802 93.6189C66.5519 93.2369 59.919 87.6511 58.7116 94.1045C57.0302 103.086 60.5074 111.925 60.5074 111.925C60.5074 111.925 61.3059 121.646 64.1264 122.616C66.9462 123.585 69.6379 123.827 70.5883 122.166C71.5387 120.504 71.5387 118.013 71.5387 118.013C71.5387 118.013 71.1989 100.33 66.802 93.6189Z" fill="#263238"/>
<path d="M71.3964 77.7513C72.0837 81.8882 72.6605 89.4438 69.7012 92.1064C69.7012 92.1064 76.9255 95.8873 81.6622 102.483C84.3983 100.316 84.4167 97.571 83.856 95.5053C83.4211 93.9044 82.2666 92.6326 80.8138 91.8325C78.0094 90.2892 78.2778 87.4011 79.0464 84.6842L71.3964 77.7513Z" fill="#E8BFBF"/>
<path opacity="0.2" d="M72.3403 84.7722L75.0335 85.8055C76.1872 86.2481 77.4191 86.4475 78.6534 86.3923C78.582 86.9875 78.3458 88.2432 78.6534 88.9497C76.985 89.5557 74.3485 88.7549 73.3022 87.233C72.865 86.6354 72.5398 85.4848 72.3403 84.7722Z" fill="black"/>
<path d="M139.181 200.45H146.509L138.831 182.063L133.862 190.505L139.181 200.45Z" fill="#FFC3BD"/>
<path d="M145.908 198.714L137.306 196.76C137.003 196.679 136.687 196.846 136.585 197.144L134.186 203.759C133.983 204.46 134.385 205.192 135.086 205.396C135.1 205.399 135.113 205.403 135.126 205.407C138.142 206.037 139.625 206.189 143.406 207.047C145.735 207.576 151.627 209.122 154.838 209.851C158.049 210.58 158.896 207.433 157.616 206.836C151.881 204.18 148.771 201.642 147.105 199.479C146.809 199.09 146.386 198.819 145.908 198.714Z" fill="#263238"/>
<g opacity="0.2">
<path d="M138.831 182.069L142.1 189.899L135.507 193.582L133.862 190.511L138.831 182.069Z" fill="black"/>
</g>
<path d="M61.6557 133.242L60.8633 135.741C60.7582 135.934 60.9799 136.138 61.3059 136.149L89.7191 137.012C89.9753 137.012 90.1855 136.901 90.2085 136.738L90.5345 134.227C90.5345 134.052 90.3419 133.901 90.0689 133.89L62.1512 133.045C61.9625 133.015 61.7723 133.091 61.6557 133.242Z" fill="#263238"/>
<path d="M97.1605 153.763C87.8245 157.741 77.6945 161.719 72.1892 161.719C61.161 161.719 51.3647 153.756 61.8076 135.648C68.3676 135.625 79.7748 135.834 79.7748 135.834C79.7748 135.834 101.286 129.731 116.887 131.51C124.497 132.378 130.649 138.089 132.142 145.602C136.103 165.529 142.2 187.114 142.2 187.114L134.353 192.457C134.353 192.457 122.118 166.729 115.075 146.315C111.351 147.508 104.501 150.635 97.1605 153.763Z" fill="#407BFF"/>
<path opacity="0.5" d="M132.141 145.603C130.648 138.09 124.496 132.378 116.886 131.511C101.284 129.732 79.7737 135.835 79.7737 135.835C79.7737 135.835 68.3666 135.626 61.8066 135.649C51.1933 153.694 61.1599 161.72 72.1881 161.72C77.6934 161.72 87.8242 157.741 97.1595 153.764C104.5 150.636 111.349 147.509 115.072 146.316C122.115 166.73 134.35 192.457 134.35 192.457L142.197 187.115C142.199 187.115 136.102 165.53 132.141 145.603Z" fill="black"/>
<path d="M122.312 154.748C122.085 157.206 121.683 159.764 121.158 162.379C121.123 162.298 121.089 162.222 121.059 162.141C121.048 162.118 121.042 162.1 121.03 162.076C120.995 161.995 120.972 161.908 120.931 161.832C118.839 156.646 116.801 151.327 115.076 146.323C115.088 146.323 115.105 146.335 115.128 146.341V146.334C119.626 148.24 122.667 150.932 122.312 154.748Z" fill="#407BFF"/>
<path opacity="0.6" d="M122.312 154.748C122.085 157.206 121.683 159.764 121.158 162.379C121.123 162.298 121.089 162.222 121.059 162.141C121.048 162.118 121.042 162.1 121.03 162.076C120.995 161.995 120.972 161.908 120.931 161.832C118.839 156.646 116.801 151.327 115.076 146.323C115.088 146.323 115.105 146.335 115.128 146.341V146.334C119.626 148.24 122.667 150.932 122.312 154.748Z" fill="black"/>
<path d="M66.37 73.7787C68.6728 80.2636 69.5089 83.055 73.8222 85.4835C80.3193 89.1517 87.7607 84.8875 87.4392 77.8458C87.1501 71.5128 83.4305 61.9704 76.2177 61.2041C71.066 60.6288 66.4237 64.3391 65.8484 69.49C65.6866 70.9406 65.8653 72.4087 66.37 73.7787Z" fill="#E8BFBF"/>
<path d="M78.0196 72.9341C78.1822 73.4979 78.5834 73.8285 78.9385 73.7234C79.2937 73.6184 79.4294 73.1129 79.2944 72.5682C79.1587 72.0236 78.7314 71.68 78.3755 71.7789C78.0196 71.8779 77.8677 72.3979 78.0196 72.9341Z" fill="#263238"/>
<path d="M84.0448 71.0364C84.2013 71.601 84.6086 71.9308 84.9576 71.8265C85.3066 71.723 85.4486 71.2159 85.3136 70.6713C85.1778 70.1267 84.7505 69.783 84.4 69.8812C84.0502 69.9786 83.8868 70.501 84.0448 71.0364Z" fill="#263238"/>
<path d="M84.2422 69.9594L85.4258 69.213C85.4258 69.213 85.0645 70.4104 84.2422 69.9594Z" fill="#263238"/>
<path d="M81.8823 72.2606C82.7131 73.3483 83.6888 74.3179 84.7811 75.1425C84.2656 76.0055 82.9654 76.0277 82.9654 76.0277L81.8823 72.2606Z" fill="#ED847E"/>
<path d="M62.1302 78.0957C62.49 79.3023 63.0837 80.4544 63.1964 81.7086C63.4181 84.1816 61.4122 86.6432 58.9453 86.9247C61.0632 87.5529 63.5585 86.4253 64.4859 84.4202C63.8998 85.962 62.6978 87.2599 61.2059 87.9625C63.3391 88.0024 65.467 86.9784 66.7672 85.287C66.4028 86.2198 66.0392 87.1525 65.6749 88.0845C67.489 86.993 69.0024 85.4074 70.0081 83.545C70.42 82.7825 70.7268 81.7815 70.1891 81.1026C69.7028 80.4889 68.7968 80.4767 68.0137 80.4606C67.2305 80.4445 66.2939 80.2634 66.0062 79.5347C65.7293 78.8336 66.2448 78.0734 66.8101 77.5748C67.3755 77.0762 68.0597 76.6167 68.2668 75.8919C68.4141 75.3779 68.2867 74.8302 68.1602 74.3109C67.8142 72.8972 67.4675 71.4835 67.1216 70.0698C67.0004 69.575 66.8746 69.0687 66.59 68.6461C65.0466 66.3495 63.3476 69.7185 62.7815 70.866C61.6853 73.0836 61.4214 75.7185 62.1302 78.0957Z" fill="#263238"/>
<path d="M65.9126 80.1271C66.7802 81.2608 68.0612 82.0033 69.4764 82.1928C71.3558 82.4252 72.0162 80.6771 71.2629 79.0524C70.5825 77.5865 68.7845 75.7064 67.0118 76.2004C65.2376 76.6952 64.8571 78.7164 65.9126 80.1271Z" fill="#E8BFBF"/>
<path d="M78.1213 68.3026C78.0983 68.4491 77.984 68.5649 77.8375 68.5895C76.2788 68.8848 75.4127 70.7358 75.4074 70.7511C75.3291 70.9237 75.1266 70.9996 74.9548 70.9222C74.7822 70.8439 74.7063 70.6414 74.7837 70.4696C74.8497 70.4028 75.8055 68.2757 77.7055 67.9121C77.8904 67.8792 78.0684 68.0004 78.1052 68.1852C78.119 68.2228 78.1251 68.2627 78.1213 68.3026Z" fill="#263238"/>
<path d="M82.2115 66.7693C82.091 66.757 81.9814 66.7854 81.9215 66.8452C81.8356 66.9388 81.5579 67.0984 81.7175 67.1789C82.6541 67.6614 83.9489 68.44 84.9453 68.282C85.1118 68.2474 85.5122 68.1017 85.4263 67.9836C85.3404 67.8647 85.1356 67.7964 84.9691 67.8309C84.1752 67.9452 83.1243 67.2004 82.3864 66.8168C82.3319 66.7923 82.2721 66.7762 82.2115 66.7693Z" fill="#263238"/>
<path d="M78.228 71.8555L79.4124 71.1145C79.4124 71.1145 79.0396 72.3081 78.228 71.8555Z" fill="#263238"/>
<path d="M78.1224 58.3388C75.5013 57.8625 75.1684 57.6891 72.5097 57.854C69.851 58.019 67.1678 58.786 65.076 60.4345C63.0363 62.0415 61.6694 64.4102 61.0189 66.9247C60.3685 69.4384 60.4007 72.094 60.8218 74.656C61.0189 75.8542 61.3564 77.1329 62.3069 77.8885C62.4457 76.5147 62.5868 75.1293 63.0095 73.8146C63.4321 72.4998 64.1632 71.2449 65.28 70.4333C65.728 70.108 66.2534 69.8334 66.5089 69.3425C66.729 68.9206 66.7053 68.419 66.7843 67.9495C66.9645 66.8771 67.6986 65.9636 68.5754 65.3207C69.4521 64.6772 70.4708 64.2629 71.4688 63.8318C74.6959 62.4373 78.2198 61.6426 81.1976 59.7748C80.4635 59.1404 78.1224 58.3388 78.1224 58.3388Z" fill="#263238"/>
<path d="M64.7346 68.6045C65.4327 69.4468 66.4061 70.0627 67.4723 70.3074C68.7449 70.6005 71.9275 70.5291 72.1185 70.1947C72.3463 69.795 71.1796 66.2887 69.8917 66.0747C70.8352 66.8656 71.8178 67.6779 73.0037 68.0093C74.1896 68.3399 76.1932 68.1796 76.9955 67.9909C77.6637 67.8336 76.1587 65.0445 75.0618 64.2445C78.3686 64.9348 81.8619 65.7211 84.2981 68.0607C86.8041 70.467 87.7284 74.1482 87.6049 77.6207C88.7371 76.7302 89.4145 75.2896 89.3784 73.849C90.5574 77.4266 90.1954 81.4845 88.4027 84.7975C91.9205 81.9133 93.2345 76.8721 92.3094 72.4177C91.3835 67.964 88.4886 64.0995 84.9386 61.2552C81.9025 58.8228 78.219 57.0056 74.33 56.9143C69.2005 56.7939 59.7494 62.5945 64.7346 68.6045Z" fill="#263238"/>
<path d="M68.8676 89.1093C68.8975 88.8561 68.9274 88.5248 68.9581 88.165C69.1 86.4882 67.9487 84.9755 66.2941 84.6718C66.2803 84.6695 66.2665 84.6664 66.2527 84.6641C65.7702 84.5759 65.3728 84.2361 65.2117 83.772C64.6165 82.0537 64.3879 81.5329 63.8187 79.8438C62.2677 79.471 60.4413 80.0425 58.8343 80.2151C58.3901 82.132 58.3595 84.1432 58.7461 86.0732C58.832 86.502 58.9478 86.9454 59.237 87.2737C59.5262 87.602 62.6558 89.8135 64.0212 90.22C65.4426 90.6442 67.391 89.2466 68.8676 89.1093Z" fill="#E8BFBF"/>
<path d="M64.2206 90.2644C64.2206 90.2644 59.9948 117.531 64.3472 121.687C66.9061 124.13 69.1145 122.782 70.4999 121.256C71.5308 120.12 71.9918 118.578 71.8338 117.052L68.8675 89.1084C68.8675 89.1084 65.935 87.407 64.2206 90.2644Z" fill="#E8BFBF"/>
<path d="M109.628 114.868C111.327 113.565 112.827 110.859 113.205 109.136C113.325 108.584 113.373 107.755 113.361 106.754C113.319 101.814 111.927 92.7583 111.927 92.7583L107.912 91.432C107.912 91.432 106.664 98.3219 106.387 102.109C106.334 102.853 106.249 103.729 106.16 104.653C105.979 106.34 105.764 108.2 105.571 109.737L109.628 114.868Z" fill="#E8BFBF"/>
<path d="M111.927 117.779C113.157 116.65 113.367 115.288 114.003 112.377C114.609 109.628 113.925 106.273 113.361 106.753C113.307 106.796 113.253 106.879 113.205 106.994C112.233 109.292 108.44 107.276 107.366 106.129C106.945 105.679 106.441 105.175 106.159 104.652C105.895 104.185 105.817 103.711 106.129 103.254C104.965 102.774 104.029 107.359 104.586 108.488L104.87 109.337C105.333 110.719 106.049 112.004 106.979 113.126L109.088 115.665L111.927 117.779Z" fill="#263238"/>
<path d="M107.808 92.0181L107.329 85.0125C107.329 85.0125 108.152 85.4681 111.201 86.5044C113.154 87.1679 115.781 85.9966 115.196 87.2631C114.241 89.3265 111.928 92.7584 111.928 92.7584L107.808 92.0181Z" fill="#E8BFBF"/>
<path d="M107.328 85.0123L110.316 77.9921L114.239 80.3945C115.321 82.7403 115.194 87.2629 115.194 87.2629C115.194 87.2629 109.756 87.5092 107.328 85.0123Z" fill="#E8BFBF"/>
<path d="M81.4259 79.6061C81.5279 80.1085 81.8846 80.4575 82.2122 80.3846C82.5397 80.3118 82.7146 79.8531 82.6049 79.3514C82.496 78.849 82.1462 78.5069 81.8186 78.5797C81.4919 78.6526 81.317 79.1328 81.4259 79.6061Z" fill="#263238"/>
<path d="M71.6948 174.91L69.3268 140.362C68.9855 135.484 66.6106 131.417 63.3122 129.49C61.2311 127.852 58.722 126.833 56.0196 126.664C55.7389 126.634 55.4574 126.627 55.1766 126.627C52.982 126.627 50.9017 127.181 49.0546 128.184C48.994 128.206 48.9411 128.243 48.8805 128.273C46.9666 129.329 45.3013 130.841 44.0026 132.701L43.9957 132.709C42.1762 135.329 41.0854 138.606 41.0854 142.171C41.0854 149.847 46.1366 156.238 52.7741 157.486L55.3362 194.861C55.5571 198.042 57.6443 200.477 60.1534 200.477H73.0195L71.6948 174.91Z" fill="#407BFF"/>
<path opacity="0.1" d="M71.6948 174.91L69.3268 140.362C68.9855 135.484 66.6106 131.417 63.3122 129.49C61.2311 127.852 58.722 126.833 56.0196 126.664C55.7389 126.634 55.4574 126.627 55.1766 126.627C52.982 126.627 50.9017 127.181 49.0546 128.184C48.994 128.206 48.9411 128.243 48.8805 128.273C46.9666 129.329 45.3013 130.841 44.0026 132.701L43.9957 132.709C42.1762 135.329 41.0854 138.606 41.0854 142.171C41.0854 149.847 46.1366 156.238 52.7741 157.486L55.3362 194.861C55.5571 198.042 57.6443 200.477 60.1534 200.477H73.0195L71.6948 174.91Z" fill="white"/>
<path d="M163.388 237.975C177.598 237.975 189.117 235.029 189.117 231.395C189.117 227.761 177.598 224.815 163.388 224.815C149.178 224.815 137.659 227.761 137.659 231.395C137.659 235.029 149.178 237.975 163.388 237.975Z" fill="#263238"/>
<path opacity="0.3" d="M163.388 235.788C177.598 235.788 189.117 233.331 189.117 230.301C189.117 227.271 177.598 224.814 163.388 224.814C149.178 224.814 137.659 227.271 137.659 230.301C137.659 233.331 149.178 235.788 163.388 235.788Z" fill="white"/>
<path d="M165.511 230.295H161.266L156.353 177.35H170.424L165.511 230.295Z" fill="#263238"/>
<path d="M170.424 177.35C170.424 178.892 167.274 180.142 163.388 180.142C159.502 180.142 156.353 178.892 156.353 177.35C156.353 175.808 159.503 174.558 163.388 174.558C167.274 174.558 170.424 175.807 170.424 177.35Z" fill="#263238"/>
<path opacity="0.7" d="M170.424 177.35C170.424 178.892 167.274 180.142 163.388 180.142C159.502 180.142 156.353 178.892 156.353 177.35C156.353 175.808 159.503 174.558 163.388 174.558C167.274 174.558 170.424 175.807 170.424 177.35Z" fill="white"/>
<path opacity="0.7" d="M77.3828 178.178C77.3828 177.618 77.659 177.065 78.2036 176.521C84.1484 182.504 121.865 187.114 167.506 187.114C213.147 187.114 250.864 182.504 256.817 176.521C257.361 177.065 257.638 177.618 257.638 178.178C257.638 184.936 217.282 190.42 167.506 190.42C117.731 190.42 77.3828 184.936 77.3828 178.178Z" fill="white"/>
<path opacity="0.7" d="M78.2036 179.705C84.1484 173.722 121.865 169.119 167.506 169.119C213.147 169.119 250.864 173.722 256.817 179.705C250.864 185.688 213.147 190.298 167.506 190.298C121.865 190.298 84.1484 185.688 78.2036 179.705Z" fill="white"/>
<path opacity="0.7" d="M77.3828 177.94C77.3828 171.174 117.731 165.697 167.506 165.697C217.282 165.697 257.638 171.174 257.638 177.94C257.638 178.5 257.361 179.052 256.817 179.589C250.864 173.606 213.147 169.003 167.506 169.003C121.865 169.003 84.1484 173.606 78.2036 179.589C77.659 179.052 77.3828 178.5 77.3828 177.94Z" fill="white"/>
<path d="M202.269 171.978L164.563 171.267C164.173 171.259 163.864 170.874 163.874 170.41C163.885 169.946 164.213 169.572 164.602 169.58L202.309 170.291C202.698 170.298 203.008 170.684 202.997 171.148C202.987 171.612 202.659 171.985 202.269 171.978Z" fill="#263238"/>
<path opacity="0.2" d="M202.269 171.978L164.563 171.267C164.173 171.259 163.864 170.874 163.874 170.41C163.885 169.946 164.213 169.572 164.602 169.58L202.309 170.291C202.698 170.298 203.008 170.684 202.997 171.148C202.987 171.612 202.659 171.985 202.269 171.978Z" fill="white"/>
<path d="M220.584 169.227L202.556 171.951C202.169 172.01 201.815 171.681 201.772 171.22C201.727 170.76 202.008 170.336 202.395 170.278L220.423 167.552C220.811 167.494 221.163 167.822 221.208 168.282C221.252 168.744 220.972 169.168 220.584 169.227Z" fill="#263238"/>
<path d="M220.423 167.552H182.31L164.603 169.58L201.282 170.272L220.423 167.552Z" fill="#263238"/>
<path opacity="0.6" d="M220.423 167.552H182.31L164.603 169.58L201.282 170.272L220.423 167.552Z" fill="white"/>
<path opacity="0.5" d="M220.584 169.227L202.556 171.951C202.169 172.01 201.815 171.681 201.772 171.22C201.727 170.76 202.008 170.336 202.395 170.278L220.423 167.552C220.811 167.494 221.163 167.822 221.208 168.282C221.252 168.744 220.972 169.168 220.584 169.227Z" fill="white"/>
<path d="M201.281 170.271L166.122 169.608C164.881 169.585 163.805 168.355 163.732 166.876L162.671 145.648C162.598 144.169 163.552 142.977 164.793 143.001L199.953 143.665C201.194 143.688 202.269 144.918 202.343 146.397L203.402 167.624C203.477 169.103 202.522 170.294 201.281 170.271Z" fill="#407BFF"/>
<path opacity="0.2" d="M201.281 170.271L166.122 169.608C164.881 169.585 163.805 168.355 163.732 166.876L162.671 145.648C162.598 144.169 163.552 142.977 164.793 143.001L199.953 143.665C201.194 143.688 202.269 144.918 202.343 146.397L203.402 167.624C203.477 169.103 202.522 170.294 201.281 170.271Z" fill="white"/>
<path d="M200.249 170.161L165.089 169.497C163.848 169.474 162.773 168.245 162.699 166.765L161.64 145.538C161.566 144.058 162.52 142.867 163.761 142.891L198.921 143.554C200.162 143.577 201.238 144.807 201.311 146.286L202.371 167.514C202.444 168.993 201.49 170.184 200.249 170.161Z" fill="#407BFF"/>
<path opacity="0.6" d="M200.249 170.161L165.089 169.497C163.848 169.474 162.773 168.245 162.699 166.765L161.64 145.538C161.566 144.058 162.52 142.867 163.761 142.891L198.921 143.554C200.162 143.577 201.238 144.807 201.311 146.286L202.371 167.514C202.444 168.993 201.49 170.184 200.249 170.161Z" fill="white"/>
<path d="M177.345 156.174C177.525 158.235 179.343 159.906 181.403 159.906C183.464 159.906 184.988 158.235 184.808 156.174C184.628 154.113 182.81 152.442 180.75 152.442C178.69 152.443 177.165 154.114 177.345 156.174Z" fill="white"/>
</svg>
