<svg width="18" height="18" viewBox="0 0 18 18" fill="none" xmlns="http://www.w3.org/2000/svg">
<path d="M9 17C11.2091 17 13.2091 16.1046 14.6568 14.6568C16.1046 13.2091 17 11.2091 17 9C17 6.79088 16.1046 4.79088 14.6568 3.34314C13.2091 1.89543 11.2091 1 9 1C6.79088 1 4.79088 1.89543 3.34314 3.34314C1.89543 4.79088 1 6.79088 1 9C1 11.2091 1.89543 13.2091 3.34314 14.6568C4.79088 16.1046 6.79088 17 9 17Z" fill="url(#paint0_linear_4033_13465)" stroke="url(#paint1_linear_4033_13465)" stroke-width="1.6" stroke-linejoin="round"/>
<path d="M5.79883 8.99985L8.19883 11.3999L12.9988 6.59985" stroke="white" stroke-width="1.6" stroke-linecap="round" stroke-linejoin="round"/>
<defs>
<linearGradient id="paint0_linear_4033_13465" x1="1.53333" y1="17" x2="17.9041" y2="15.7655" gradientUnits="userSpaceOnUse">
<stop stop-color="#1400FF"/>
<stop offset="1" stop-color="#42AEFD"/>
</linearGradient>
<linearGradient id="paint1_linear_4033_13465" x1="1.53333" y1="17" x2="17.9041" y2="15.7655" gradientUnits="userSpaceOnUse">
<stop stop-color="#42AEFD"/>
<stop offset="1" stop-color="#1400FF"/>
</linearGradient>
</defs>
</svg>
