<svg width="24" height="24" viewBox="0 0 24 24" fill="none" xmlns="http://www.w3.org/2000/svg">
<path d="M11.1519 0H12.8393C12.9156 0.0158488 12.9834 0.0360211 13.0669 0.0461067C13.4675 0.100857 13.8739 0.131112 14.2702 0.210356C16.8423 0.724722 19.0442 1.92635 20.8065 3.86855C23.4147 6.75016 24.4335 10.136 23.8326 13.9643C23.3484 17.0087 21.844 19.5085 19.416 21.4089C16.4835 23.6983 13.1577 24.4691 9.52353 23.7271C6.6574 23.1508 4.32442 21.6394 2.5203 19.337C1.25201 17.7333 0.42938 15.8233 0.135454 13.8C0.089342 13.4945 0.0446708 13.1877 0 12.8822V11.1043C0.0158509 11.038 0.0360259 10.9717 0.0461129 10.904C0.100871 10.5121 0.134011 10.1144 0.210384 9.72542C0.68921 7.20036 1.977 4.89974 3.87916 3.1712C5.5469 1.61244 7.63407 0.575253 9.88378 0.187303C10.3046 0.112381 10.7296 0.0619545 11.1519 0ZM13.0251 9.97035C13.0251 9.45022 13.0251 8.96179 13.0251 8.48344C13.0251 8.07426 13.2514 7.84517 13.6621 7.83653C14.0209 7.82788 14.3826 7.83653 14.7385 7.83653H15.1708V5.47649C14.3379 5.47649 13.5194 5.45343 12.7024 5.47649C11.4444 5.52115 10.5409 6.26749 10.2527 7.49361C10.1811 7.86014 10.1435 8.23248 10.1403 8.60591C10.123 9.04679 10.1403 9.49056 10.1403 9.95738H8.78142V12.4168H10.1518V19.3327H13.0338V12.4096H14.9734C15.057 11.5956 15.1391 10.7945 15.2241 9.97035H13.0251Z" fill="#4281FD"/>
</svg>
