<svg width="93" height="92" viewBox="0 0 93 92" fill="none" xmlns="http://www.w3.org/2000/svg">
<path fill-rule="evenodd" clip-rule="evenodd" d="M76.5 24C74.9087 24 73.3826 24.6321 72.2574 25.7574C71.1321 26.8826 70.5 28.4087 70.5 30V34H82.5V30C82.5 28.4087 81.8679 26.8826 80.7426 25.7574C79.6174 24.6321 78.0913 24 76.5 24ZM82.5 38H70.5V71L76.5 80L82.5 71V38ZM10.5 16V76C10.5 77.5913 11.1321 79.1174 12.2574 80.2426C13.3826 81.3679 14.9087 82 16.5 82H60.5C62.0913 82 63.6174 81.3679 64.7426 80.2426C65.8679 79.1174 66.5 77.5913 66.5 76V16C66.5 14.4087 65.8679 12.8826 64.7426 11.7574C63.6174 10.6321 62.0913 10 60.5 10H16.5C14.9087 10 13.3826 10.6321 12.2574 11.7574C11.1321 12.8826 10.5 14.4087 10.5 16ZM38.5 28C38.5 27.4696 38.7107 26.9609 39.0858 26.5858C39.4609 26.2107 39.9696 26 40.5 26H56.5C57.0304 26 57.5391 26.2107 57.9142 26.5858C58.2893 26.9609 58.5 27.4696 58.5 28C58.5 28.5304 58.2893 29.0391 57.9142 29.4142C57.5391 29.7893 57.0304 30 56.5 30H40.5C39.9696 30 39.4609 29.7893 39.0858 29.4142C38.7107 29.0391 38.5 28.5304 38.5 28ZM40.5 34C39.9696 34 39.4609 34.2107 39.0858 34.5858C38.7107 34.9609 38.5 35.4696 38.5 36C38.5 36.5304 38.7107 37.0391 39.0858 37.4142C39.4609 37.7893 39.9696 38 40.5 38H56.5C57.0304 38 57.5391 37.7893 57.9142 37.4142C58.2893 37.0391 58.5 36.5304 58.5 36C58.5 35.4696 58.2893 34.9609 57.9142 34.5858C57.5391 34.2107 57.0304 34 56.5 34H40.5ZM38.5 54C38.5 53.4696 38.7107 52.9609 39.0858 52.5858C39.4609 52.2107 39.9696 52 40.5 52H56.5C57.0304 52 57.5391 52.2107 57.9142 52.5858C58.2893 52.9609 58.5 53.4696 58.5 54C58.5 54.5304 58.2893 55.0391 57.9142 55.4142C57.5391 55.7893 57.0304 56 56.5 56H40.5C39.9696 56 39.4609 55.7893 39.0858 55.4142C38.7107 55.0391 38.5 54.5304 38.5 54ZM40.5 60C39.9696 60 39.4609 60.2107 39.0858 60.5858C38.7107 60.9609 38.5 61.4696 38.5 62C38.5 62.5304 38.7107 63.0391 39.0858 63.4142C39.4609 63.7893 39.9696 64 40.5 64H56.5C57.0304 64 57.5391 63.7893 57.9142 63.4142C58.2893 63.0391 58.5 62.5304 58.5 62C58.5 61.4696 58.2893 60.9609 57.9142 60.5858C57.5391 60.2107 57.0304 60 56.5 60H40.5ZM22.5 54V60H28.5V54H22.5ZM20.5 50H30.5C31.0304 50 31.5391 50.2107 31.9142 50.5858C32.2893 50.9609 32.5 51.4696 32.5 52V62C32.5 62.5304 32.2893 63.0391 31.9142 63.4142C31.5391 63.7893 31.0304 64 30.5 64H20.5C19.9696 64 19.4609 63.7893 19.0858 63.4142C18.7107 63.0391 18.5 62.5304 18.5 62V52C18.5 51.4696 18.7107 50.9609 19.0858 50.5858C19.4609 50.2107 19.9696 50 20.5 50ZM33.914 29.414C34.2783 29.0368 34.4799 28.5316 34.4753 28.0072C34.4708 27.4828 34.2605 26.9812 33.8896 26.6104C33.5188 26.2395 33.0172 26.0292 32.4928 26.0247C31.9684 26.0201 31.4632 26.2217 31.086 26.586L24.5 33.172L21.914 30.586C21.5368 30.2217 21.0316 30.0201 20.5072 30.0247C19.9828 30.0292 19.4812 30.2395 19.1104 30.6104C18.7395 30.9812 18.5292 31.4828 18.5247 32.0072C18.5201 32.5316 18.7217 33.0368 19.086 33.414L24.5 38.828L33.914 29.414Z" fill="#4281FD"/>
</svg>
