<svg width="79" height="78" viewBox="0 0 79 78" fill="none" xmlns="http://www.w3.org/2000/svg">
<g clip-path="url(#clip0_3335_718)">
<path d="M0.54071 52.3463C0.887818 51.9119 0.826922 51.3578 0.946684 50.8625C2.62945 43.8899 8.71093 38.9898 15.8622 38.9634C25.0433 38.9309 34.2223 38.9634 43.4034 38.9634C44.7228 38.9459 46.0388 39.0987 47.319 39.4181C47.4794 39.4607 47.6337 39.5338 47.8488 39.6211C45.8717 41.1475 44.3981 42.9826 43.5861 45.2865C43.4461 45.6762 43.1578 45.6457 42.8757 45.7148C37.598 47.0037 34.3096 50.2678 33.1952 55.6205C33.057 56.3941 32.9958 57.1794 33.0125 57.965C32.9922 61.1357 32.9922 64.3057 33.0125 67.475C33.0125 67.9987 32.9536 68.2037 32.3366 68.2017C22.6473 68.1773 12.9588 68.1773 3.27088 68.2017C1.9474 68.2017 1.19431 67.4953 0.548813 66.5128L0.54071 52.3463Z" fill="#4281FD"/>
<path d="M31.5855 0C32.1681 0.302451 32.8278 0.280127 33.449 0.424248C40.8722 2.14558 46.2249 9.01262 45.9956 16.5536C45.756 24.397 40.1475 30.923 32.5193 32.2343C23.8274 33.7263 15.3831 27.8762 13.8059 19.2696C12.2023 10.531 17.8129 2.12121 26.4418 0.33087C26.8478 0.247645 27.2822 0.288241 27.6293 0H31.5855Z" fill="#4281FD"/>
<path d="M44.0652 77.9125C43.9149 77.6568 43.6267 77.7095 43.4014 77.6243C41.1685 76.8671 39.5446 74.817 39.5203 72.509C39.4756 67.8708 39.502 63.2325 39.502 58.5943C39.5107 58.5417 39.5264 58.4904 39.5487 58.442C39.8999 58.4177 40.1576 58.6592 40.4296 58.8033C46.1011 61.7568 51.7726 64.7042 57.4237 67.6901C58.5178 68.2686 59.4922 68.2443 60.5781 67.6718C66.278 64.6656 71.9962 61.6979 77.7102 58.7242C77.9457 58.6024 78.1467 58.3669 78.4593 58.4339V73.3473C78.2015 73.4955 78.2563 73.7838 78.171 74.0071C77.9104 74.8016 77.4761 75.5282 76.8996 76.1338C76.323 76.7395 75.6187 77.2092 74.838 77.5086C74.432 77.6689 74.0057 77.7786 73.5896 77.9146L44.0652 77.9125Z" fill="#4281FD"/>
<path d="M41.1401 53.6595C41.6812 53.1048 42.3291 52.6656 43.0446 52.3683C43.7602 52.0711 44.5286 51.922 45.3034 51.9301C46.3671 51.9179 47.4348 51.8793 48.4964 51.9463C49.1724 51.9889 49.2718 51.7433 49.2556 51.1344C49.2292 50.227 49.1683 49.3075 49.353 48.4062C49.5989 47.1281 50.2786 45.9741 51.2773 45.1393C52.2759 44.3045 53.5322 43.8402 54.8337 43.8248C57.5963 43.7984 60.359 43.7944 63.1216 43.8248C64.5953 43.8442 66.0033 44.438 67.0459 45.4798C68.0884 46.5216 68.6832 47.9292 68.7037 49.4029C68.718 50.0606 68.7342 50.7223 68.7037 51.38C68.6834 51.8042 68.8113 51.926 69.2457 51.9301C70.7133 51.9423 72.187 51.8123 73.6505 52.0174C74.8353 52.1826 75.9311 52.7384 76.7644 53.5966C76.6689 53.8321 76.4497 53.8666 76.2833 53.9539C70.7519 56.8464 65.2124 59.7228 59.6911 62.6295C59.4736 62.7623 59.2231 62.8312 58.9682 62.8284C58.7133 62.8255 58.4644 62.751 58.2499 62.6133C52.7476 59.7214 47.2379 56.8437 41.7207 53.9802C41.5482 53.899 41.3756 53.7935 41.1401 53.6595ZM58.9786 51.928C59.89 51.928 60.8055 51.9463 61.7129 51.928C62.4112 51.9077 63.418 52.2447 63.7245 51.7941C64.0817 51.2704 63.8483 50.3366 63.8422 49.5815C63.8422 48.9989 63.5053 48.7046 62.9288 48.7026C60.2954 48.7026 57.6619 48.7026 55.0285 48.7026C54.4074 48.7026 54.109 49.0436 54.109 49.6566C54.109 50.2696 54.1374 50.8238 54.109 51.4043C54.0806 51.8428 54.2328 51.9524 54.6571 51.9443C56.0922 51.9118 57.5354 51.928 58.9786 51.928Z" fill="#4281FD"/>
</g>
<defs>
<clipPath id="clip0_3335_718">
<rect width="77.9186" height="77.9125" fill="white" transform="translate(0.54071)"/>
</clipPath>
</defs>
</svg>
