<svg width="89" height="92" viewBox="0 0 89 92" fill="none" xmlns="http://www.w3.org/2000/svg">
<g clip-path="url(#clip0_3335_4053)">
<path d="M68.928 92.0025H61.3283V91.0663C61.3385 82.8415 61.3478 74.6151 61.3563 66.387C61.3563 64.8564 61.6319 64.5222 63.1293 64.1497C66.7136 63.2619 70.2954 62.3639 73.8873 61.5042C74.5914 61.3358 74.8516 61.0476 74.8389 60.2873C74.7904 57.226 74.821 54.1647 74.8184 51.1034C74.8184 50.8228 74.7878 50.5422 74.7649 50.1493H50.9938V45.3482C54.6495 44.8124 58.2695 44.2818 61.887 43.7588C65.5044 43.2359 69.0785 42.7384 72.6704 42.1925C73.0434 42.1183 73.4019 41.9839 73.7317 41.7945C76.6119 40.2945 79.4793 38.7638 82.3722 37.2893C82.8189 37.0696 83.3187 36.9811 83.8136 37.0342C85.0316 37.1734 86.1579 37.7496 86.9835 38.6559C87.8091 39.5622 88.2781 40.7371 88.3035 41.9629C88.3494 49.6808 88.3494 57.397 88.3035 65.1115C88.2727 66.567 87.7112 67.9612 86.7246 69.0318C85.7381 70.1024 84.3944 70.7758 82.9462 70.9254C80.765 71.132 78.5532 71.0453 76.3542 71.0683C74.5378 71.0861 72.7189 71.0683 70.9 71.0683C69.3234 71.0683 68.8744 71.5249 68.877 73.1321C68.8906 79.0302 68.9067 84.9292 68.9254 90.829L68.928 92.0025Z" fill="#4281FD"/>
<path d="M49.9759 91.9974H12.9545V69.8896H49.9759V91.9974Z" fill="#4281FD"/>
<path d="M46.6621 50.0779H39.9578C39.9578 48.634 40.0318 47.2335 39.9221 45.8482C39.8762 45.2895 39.5649 44.5727 39.1338 44.2665C38.1873 43.6007 37.024 44.3966 37.0011 45.6569C36.9705 47.1136 37.0011 48.5702 37.0011 50.0703H26.0314C26.0314 48.685 26.0467 47.3559 26.0314 46.0268C26.0423 45.6154 25.9676 45.2062 25.812 44.8252C25.5008 44.1722 24.8987 43.9579 24.2023 44.1109C23.4369 44.2793 23.0772 44.8278 23.0543 45.5625C23.016 46.7105 23.039 47.8585 23.0364 49.0039V50.0779H16.3117V49.1595C16.3117 47.1187 16.3117 45.0778 16.3117 43.0369C16.3117 38.5853 19.0669 35.1744 23.5262 34.9372C28.9657 34.6721 34.4153 34.6875 39.8532 34.9831C43.5344 35.1642 46.3534 38.2128 46.6212 41.8864C46.8177 44.5829 46.6621 47.2921 46.6621 50.0779Z" fill="#4281FD"/>
<path d="M65.9177 20.4087C64.558 19.4775 63.2263 18.5158 61.836 17.6407C61.3603 17.35 60.8167 17.189 60.2594 17.1739C55.7975 17.1356 51.3306 17.2096 46.8713 17.1254C43.5854 17.0667 41.0522 15.5157 39.5063 12.6151C37.9603 9.71451 38.0827 6.768 39.8404 3.98476C41.3711 1.56887 43.6186 0.158118 46.4886 0.0892383C50.3152 -0.0128053 54.1419 -0.0434184 57.9685 0.0892383C60.0838 0.147473 62.0968 1.01204 63.5954 2.50595C65.0941 3.99986 65.965 6.01011 66.0299 8.12517C66.1703 12.1355 66.0657 16.1535 66.0631 20.1689C66.058 20.2148 66.0019 20.2633 65.9177 20.4087ZM52.0194 7.38026C53.9607 7.38026 55.9021 7.38026 57.8435 7.38026C58.9889 7.38026 59.6497 6.79861 59.6293 5.8496C59.6089 4.9006 58.994 4.39293 57.8792 4.38783C53.9675 4.37252 50.0559 4.37252 46.1442 4.38783C45.0345 4.38783 44.412 4.95417 44.3992 5.85725C44.3865 6.76034 45.0498 7.3624 46.2003 7.3675C48.1391 7.38791 50.078 7.38026 52.0194 7.38026ZM49.0065 12.758C50.055 12.758 51.1035 12.7758 52.152 12.758C53.0959 12.7375 53.7005 12.161 53.7158 11.3191C53.7311 10.4773 53.1469 9.85482 52.2005 9.84461C50.1035 9.8191 48.0065 9.8191 45.9095 9.84461C44.9605 9.84461 44.3788 10.4645 44.3941 11.3217C44.4094 12.1789 45.0064 12.7401 45.9529 12.7605C46.9707 12.7758 47.9886 12.758 49.0065 12.758Z" fill="#4281FD"/>
<path d="M62.4227 53.1749V58.5934H0.658234V53.1749H62.4227Z" fill="#4281FD"/>
<path d="M59.3333 61.8436C56.346 63.4661 53.3612 65.0988 50.3586 66.6907C50.0064 66.8308 49.6266 66.8876 49.2489 66.8565C37.4169 66.8565 25.5841 66.8565 13.7504 66.8565C13.341 66.8754 12.9329 66.7976 12.5591 66.6294C9.69421 65.0988 6.84464 63.5401 3.99252 61.9865C3.89558 61.9329 3.8114 61.8563 3.57159 61.6854H59.2721L59.3333 61.8436Z" fill="#4281FD"/>
<path d="M83.1962 28.3656C83.2033 29.4201 83.0018 30.4655 82.6034 31.4418C82.205 32.4182 81.6175 33.3061 80.8748 34.0546C80.132 34.803 79.2486 35.3973 78.2753 35.8031C77.302 36.209 76.2582 36.4184 75.2037 36.4194C73.0915 36.41 71.0684 35.5673 69.5742 34.0745C68.0799 32.5817 67.2353 30.5594 67.2239 28.4472C67.2103 26.3336 68.035 24.3008 69.5173 22.7941C70.9996 21.2874 73.0187 20.4296 75.1322 20.4087C76.1852 20.398 77.2299 20.5956 78.2061 20.9904C79.1824 21.3851 80.0709 21.9691 80.8204 22.7087C81.57 23.4483 82.1658 24.3289 82.5736 25.2998C82.9813 26.2706 83.1929 27.3126 83.1962 28.3656Z" fill="#4281FD"/>
<path d="M31.4729 31.7228C29.3611 31.7208 27.3362 30.882 25.8415 29.3902C24.3468 27.8984 23.5042 25.8752 23.4982 23.7634C23.492 22.7084 23.6957 21.6626 24.0972 20.687C24.4987 19.7113 25.0902 18.8252 25.8372 18.0801C26.5842 17.335 27.4718 16.7458 28.4485 16.3467C29.4252 15.9477 30.4714 15.7467 31.5264 15.7555C32.5807 15.7541 33.6247 15.9623 34.5978 16.3682C35.5708 16.7741 36.4533 17.3695 37.1941 18.1197C37.9348 18.8699 38.5189 19.76 38.9123 20.7381C39.3058 21.7162 39.5007 22.7628 39.4858 23.817C39.4795 24.8624 39.2671 25.8964 38.8609 26.8597C38.4546 27.823 37.8625 28.6967 37.1182 29.431C36.374 30.1652 35.4924 30.7456 34.5237 31.1389C33.555 31.5321 32.5183 31.7305 31.4729 31.7228Z" fill="#4281FD"/>
</g>
<defs>
<clipPath id="clip0_3335_4053">
<rect width="87.6835" height="92" fill="white" transform="translate(0.658234)"/>
</clipPath>
</defs>
</svg>
