<svg width="81" height="80" viewBox="0 0 81 80" fill="none" xmlns="http://www.w3.org/2000/svg">
<g clip-path="url(#clip0_3335_2947)">
<path d="M58.5555 74.7065C58.4465 69.2214 56.3199 64.6771 52.1756 61.0734C50.4171 59.5739 48.3902 58.4214 46.2023 57.677C51.9907 53.5191 52.038 46.1562 47.9511 41.8865C46.9863 40.8831 45.8288 40.0849 44.5481 39.5397C43.2674 38.9944 41.8898 38.7134 40.4979 38.7134C39.1059 38.7134 37.7283 38.9944 36.4476 39.5397C35.1669 40.0849 34.0094 40.8831 33.0446 41.8865C28.9083 46.2208 29.0674 53.5858 34.7977 57.6684C34.5826 57.7501 34.3955 57.8211 34.2083 57.8985C27.9489 60.4518 24.0685 64.9968 22.7328 71.652C22.2251 74.1795 22.5176 76.7434 22.4251 79.2902C22.4036 79.8516 22.5477 80.0001 23.1199 79.9958C26.3464 79.9635 29.5729 79.9807 32.7994 79.9807C41.1582 79.9807 49.5163 79.985 57.8736 79.9936C58.4307 79.9936 58.5964 79.8732 58.5813 79.2967C58.5319 77.7716 58.5964 76.238 58.5555 74.7065ZM40.4161 74.3193C39.8425 72.577 39.2689 70.8354 38.6953 69.0945C37.7733 66.2996 36.8483 63.5033 35.9205 60.7056C35.8001 60.3442 35.6839 60.1055 36.226 59.9506C38.997 59.1398 41.9413 59.1331 44.716 59.9312C45.1677 60.0581 45.2559 60.2109 45.1096 60.6518C43.5924 65.1933 42.0867 69.7384 40.5925 74.287L40.4161 74.3193Z" fill="#4281FD"/>
<path d="M59.902 27.01C56.4195 30.329 52.9693 33.6781 49.4826 36.9928C49.0309 37.423 49.0739 37.6187 49.4826 38.0274C52.3133 40.8194 55.1246 43.6322 57.9166 46.4658C58.3662 46.9197 58.5813 46.896 59.0072 46.4464C62.3047 42.9833 65.6409 39.5632 68.9341 36.0872C69.3643 35.6377 69.5794 35.657 69.9665 36.0872C70.6484 36.8444 71.3991 37.5413 72.1175 38.2619C72.6574 38.8039 73.193 39.3374 73.8061 39.9483C75.3118 32.4499 76.7723 25.1064 78.2522 17.7026L55.985 22.1574C57.3552 23.5189 58.6093 24.8009 59.9085 26.0292C60.3408 26.4335 60.3042 26.6271 59.902 27.01Z" fill="#4281FD"/>
<path d="M2.84673 18.2941C4.02117 24.1578 5.19205 30.0228 6.35933 35.8893C6.62175 37.2057 6.89923 38.5178 7.19822 39.9612C8.50603 38.6469 9.72779 37.4768 10.8764 36.2399C11.3798 35.6979 11.6357 35.6248 12.1971 36.2206C15.4409 39.6622 18.7469 43.0457 22.01 46.4679C22.4015 46.8788 22.5994 46.9584 23.0468 46.5024C25.833 43.6659 28.6444 40.8524 31.4808 38.0618C31.911 37.6316 31.9691 37.4165 31.4808 36.9691C27.9919 33.6566 24.5439 30.301 21.0657 26.982C20.6936 26.6271 20.6549 26.4443 21.0442 26.0722C22.3348 24.8289 23.5953 23.5447 24.916 22.2176C24.8623 22.1803 24.8063 22.1465 24.7482 22.1165C17.5696 20.6739 10.3932 19.2291 3.21887 17.7822C2.64886 17.6639 2.77574 17.9435 2.84673 18.2941Z" fill="#4281FD"/>
<path d="M33.3178 20.6259C33.9115 20.613 34.0685 20.7528 34.0642 21.3637C34.0341 26.0378 34.0642 30.712 34.0341 35.3861C34.0341 35.9668 34.1416 36.1454 34.7654 36.1411C38.5799 36.1067 42.3943 36.1067 46.2088 36.1411C46.8906 36.1411 46.9638 35.9066 46.9616 35.3301C46.9423 30.7356 46.9745 26.1432 46.9272 21.5487C46.9272 20.7378 47.1552 20.5958 47.8973 20.6216C49.6181 20.6797 51.3561 20.641 53.2318 20.641C48.9448 14.2073 44.7461 7.9135 40.5 1.54224L27.7682 20.641C29.7321 20.641 31.526 20.6668 33.3178 20.6259Z" fill="#4281FD"/>
<path d="M4.40609 7.73722C5.17047 7.73424 5.91688 7.50507 6.55123 7.07858C7.18559 6.6521 7.67951 6.04739 7.97076 5.34065C8.262 4.63391 8.33753 3.85678 8.18783 3.10719C8.03812 2.3576 7.66991 1.66909 7.12955 1.12844C6.58919 0.587779 5.90088 0.219167 5.15138 0.0690517C4.40187 -0.0810639 3.62469 -0.00596967 2.9178 0.28488C2.2109 0.57573 1.6059 1.06932 1.17906 1.70344C0.752225 2.33756 0.522645 3.08383 0.519242 3.84822C0.518959 4.35883 0.619299 4.86449 0.814506 5.33631C1.00971 5.80813 1.29596 6.23687 1.65692 6.59803C2.01788 6.95918 2.44645 7.24568 2.91816 7.44115C3.38988 7.63662 3.89548 7.73722 4.40609 7.73722ZM3.0854 3.79659C3.09968 3.54495 3.18733 3.30299 3.33755 3.10058C3.48776 2.89818 3.69395 2.7442 3.93067 2.65763C4.16739 2.57107 4.42428 2.55571 4.66963 2.61347C4.91498 2.67122 5.13803 2.79955 5.31128 2.98262C5.48453 3.16569 5.60038 3.39548 5.64454 3.64364C5.6887 3.89179 5.65922 4.14744 5.55976 4.37904C5.46029 4.61064 5.29518 4.80804 5.08481 4.94688C4.87445 5.08572 4.62805 5.15992 4.376 5.16033C4.20072 5.15878 4.02754 5.1219 3.86684 5.05188C3.70615 4.98187 3.56122 4.88017 3.44074 4.75285C3.32025 4.62554 3.2267 4.47524 3.16564 4.31093C3.10458 4.14662 3.07729 3.97169 3.0854 3.79659Z" fill="#4281FD"/>
<path d="M76.5981 7.73717C77.3622 7.74216 78.1108 7.52091 78.7495 7.10128C79.3882 6.68165 79.8883 6.08241 80.1871 5.37903C80.4858 4.67566 80.5697 3.89961 80.4283 3.14863C80.2868 2.39765 79.9262 1.70534 79.392 1.15889C78.8578 0.612436 78.1739 0.236284 77.4263 0.0778155C76.6787 -0.0806528 75.901 -0.0143533 75.191 0.268365C74.481 0.551083 73.8706 1.03757 73.4366 1.66656C73.0026 2.29555 72.7644 3.03891 72.7521 3.803C72.7459 4.31397 72.8404 4.82117 73.0304 5.29555C73.2204 5.76994 73.502 6.20221 73.8593 6.56762C74.2165 6.93304 74.6423 7.22442 75.1122 7.42511C75.5822 7.62579 76.0871 7.73183 76.5981 7.73717ZM76.6669 2.57477C76.9193 2.58405 77.1634 2.66718 77.369 2.81386C77.5746 2.96053 77.7327 3.16431 77.8236 3.39994C77.9145 3.63557 77.9343 3.8927 77.8805 4.13946C77.8267 4.38622 77.7016 4.61177 77.5209 4.78816C77.3401 4.96456 77.1116 5.08404 76.8636 5.13181C76.6156 5.17957 76.359 5.15353 76.1257 5.05689C75.8923 4.96026 75.6925 4.79729 75.5509 4.58817C75.4093 4.37905 75.3321 4.13297 75.329 3.88043C75.3271 3.70599 75.3607 3.53299 75.4276 3.37188C75.4945 3.21076 75.5933 3.06488 75.7182 2.94305C75.843 2.82121 75.9913 2.72596 76.154 2.66303C76.3167 2.6001 76.4904 2.57081 76.6648 2.57692L76.6669 2.57477Z" fill="#4281FD"/>
<path d="M4.39117 55.4721C5.15593 55.4721 5.90357 55.2456 6.53976 54.8212C7.17595 54.3968 7.67219 53.7935 7.96592 53.0874C8.25965 52.3813 8.3377 51.604 8.19021 50.8536C8.04273 50.1032 7.67633 49.4133 7.13722 48.8709C6.5981 48.3285 5.91042 47.9579 5.16093 47.8058C4.41144 47.6538 3.63371 47.7271 2.92583 48.0165C2.21795 48.3059 1.61164 48.7985 1.18337 49.4321C0.755098 50.0657 0.524047 50.8119 0.519373 51.5767C0.517086 52.6064 0.923516 53.595 1.64944 54.3253C2.37536 55.0557 3.36143 55.4681 4.39117 55.4721ZM4.36106 50.3097C4.61693 50.3067 4.86792 50.3799 5.08213 50.5199C5.29634 50.6599 5.46409 50.8604 5.56409 51.0959C5.66408 51.3314 5.69181 51.5914 5.64373 51.8427C5.59564 52.0941 5.47394 52.3255 5.29406 52.5075C5.11418 52.6895 4.88426 52.8139 4.6335 52.8649C4.38275 52.9159 4.12248 52.8913 3.88577 52.7941C3.64907 52.6968 3.44661 52.5314 3.30412 52.3189C3.16163 52.1063 3.08555 51.8562 3.08553 51.6003C3.0855 51.2606 3.21941 50.9346 3.4582 50.693C3.69699 50.4514 4.02138 50.3137 4.36106 50.3097Z" fill="#4281FD"/>
<path d="M76.5959 47.7285C75.8315 47.7328 75.0855 47.9632 74.4519 48.3907C73.8182 48.8183 73.3253 49.4238 73.0353 50.131C72.7452 50.8382 72.6709 51.6155 72.8219 52.3648C72.9728 53.1142 73.3422 53.8021 73.8835 54.3418C74.4247 54.8816 75.1136 55.2491 75.8634 55.3979C76.6131 55.5468 77.3902 55.4704 78.0966 55.1784C78.803 54.8864 79.4072 54.3918 79.833 53.7569C80.2587 53.1221 80.4871 52.3755 80.4892 51.6111C80.489 51.1004 80.388 50.5948 80.1921 50.1231C79.9962 49.6515 79.7092 49.2231 79.3476 48.8625C78.986 48.5019 78.5568 48.2161 78.0847 48.0216C77.6125 47.827 77.1066 47.7274 76.5959 47.7285ZM76.6303 52.8909C76.3751 52.8909 76.1256 52.8152 75.9133 52.6734C75.7011 52.5316 75.5357 52.33 75.438 52.0942C75.3403 51.8584 75.3147 51.5989 75.3645 51.3485C75.4143 51.0982 75.5373 50.8682 75.7178 50.6877C75.8982 50.5072 76.1282 50.3843 76.3785 50.3345C76.6289 50.2847 76.8884 50.3103 77.1242 50.408C77.3601 50.5056 77.5616 50.6711 77.7034 50.8833C77.8452 51.0955 77.9209 51.3451 77.9209 51.6003C77.9209 51.7698 77.8876 51.9376 77.8227 52.0942C77.7578 52.2508 77.6628 52.3931 77.5429 52.5129C77.4231 52.6328 77.2808 52.7278 77.1242 52.7927C76.9676 52.8575 76.7998 52.8909 76.6303 52.8909Z" fill="#4281FD"/>
<path d="M4.43418 72.25C3.66596 72.238 2.91157 72.4549 2.26698 72.873C1.62239 73.2911 1.11675 73.8916 0.814449 74.5979C0.512145 75.3042 0.42684 76.0846 0.569363 76.8395C0.711886 77.5945 1.07579 78.29 1.6148 78.8375C2.1538 79.3851 2.84352 79.7599 3.59618 79.9142C4.34883 80.0685 5.13039 79.9954 5.84139 79.7043C6.55238 79.4131 7.16068 78.9169 7.58884 78.279C8.017 77.641 8.24568 76.8901 8.24577 76.1218C8.24258 75.1063 7.84184 74.1324 7.12941 73.4087C6.41699 72.685 5.44951 72.2691 4.43418 72.25ZM4.39332 77.4124C4.13745 77.4154 3.88645 77.3422 3.67224 77.2022C3.45803 77.0622 3.29029 76.8617 3.19029 76.6262C3.0903 76.3906 3.06257 76.1307 3.11065 75.8794C3.15874 75.628 3.28044 75.3966 3.46032 75.2146C3.6402 75.0326 3.87015 74.9082 4.1209 74.8572C4.37166 74.8062 4.6319 74.8308 4.86861 74.928C5.10531 75.0253 5.30777 75.1907 5.45026 75.4032C5.59275 75.6158 5.66883 75.8659 5.66885 76.1218C5.66887 76.4618 5.53467 76.7882 5.29542 77.0298C5.05617 77.2715 4.73122 77.409 4.39117 77.4124H4.39332Z" fill="#4281FD"/>
<path d="M76.6497 72.2499C75.882 72.2435 75.1297 72.4655 74.4884 72.8877C73.8471 73.3099 73.3458 73.9132 73.0483 74.621C72.7507 75.3288 72.6703 76.109 72.8173 76.8626C72.9642 77.6162 73.3319 78.3091 73.8736 78.8532C74.4153 79.3973 75.1065 79.7681 75.8594 79.9184C76.6123 80.0687 77.393 79.9918 78.102 79.6974C78.8111 79.403 79.4167 78.9045 79.8418 78.2651C80.2668 77.6257 80.4922 76.8744 80.4893 76.1066C80.4814 75.0891 80.075 74.1153 79.3571 73.3942C78.6392 72.6731 77.6672 72.2622 76.6497 72.2499ZM76.6175 77.4123C76.3613 77.4123 76.1109 77.336 75.8982 77.1932C75.6856 77.0504 75.5202 76.8476 75.4232 76.6105C75.3262 76.3734 75.3019 76.1128 75.3535 75.8619C75.405 75.611 75.5301 75.3811 75.7127 75.2015C75.8954 75.0219 76.1274 74.9007 76.3791 74.8533C76.6309 74.806 76.891 74.8346 77.1264 74.9356C77.3618 75.0366 77.5619 75.2054 77.7011 75.4204C77.8403 75.6355 77.9123 75.8871 77.9081 76.1432C77.8986 76.4805 77.759 76.8011 77.5183 77.0377C77.2777 77.2743 76.9549 77.4085 76.6175 77.4123Z" fill="#4281FD"/>
<path d="M8.13821 70.5097C7.32513 71.3228 7.32512 71.3228 8.10379 72.1014C9.15562 73.1533 9.15133 73.149 10.2118 72.1014C10.457 71.8605 10.7387 71.6562 11.1819 71.2862C10.8309 71.0478 10.4941 70.7892 10.173 70.5118C9.14272 69.5052 9.14918 69.4987 8.13821 70.5097Z" fill="#4281FD"/>
<path d="M14.2858 67.3178C13.89 66.9607 13.5265 66.5671 13.1479 66.1907C13.0532 66.096 12.9543 66.0078 12.8317 65.896C12.7005 65.9992 12.5714 66.0874 12.4596 66.195C12.0961 66.5477 11.7583 66.9306 11.3841 67.2705C11.0528 67.5566 11.0421 67.7394 11.3626 68.0707C12.8683 69.6387 12.8683 69.6409 14.3245 68.0255C14.5805 67.72 14.5525 67.563 14.2858 67.3178Z" fill="#4281FD"/>
<path d="M68.6351 66.3153C68.565 66.2084 68.4733 66.1173 68.3658 66.048C68.2584 65.9788 68.1376 65.9328 68.0113 65.9131C67.9282 66.0526 67.8316 66.1838 67.7231 66.3046C66.3271 67.6769 66.3464 67.6554 67.6908 69.0449C68.0887 69.4558 68.306 69.4601 68.6587 69.032C69.0459 68.561 69.8095 68.1587 69.8375 67.692C69.8698 67.1542 69.0567 66.7821 68.6351 66.3153Z" fill="#4281FD"/>
<path d="M66.8605 12.8265C68.2092 14.1278 68.1898 14.1472 69.5385 12.7792C69.6826 12.6307 69.8224 12.4802 69.9816 12.3145C69.8138 12.136 69.674 11.9768 69.5234 11.8284C69.0932 11.3982 68.663 10.6862 68.1877 10.6389C67.7123 10.5916 67.3445 11.4176 66.8648 11.7832C66.3851 12.1489 66.4282 12.4113 66.8605 12.8265Z" fill="#4281FD"/>
<path d="M8.37266 9.69016C9.15562 10.4753 9.15561 10.4753 9.94718 9.69016C10.9861 8.65338 10.9797 8.65983 9.94718 7.59724C9.68501 7.29062 9.44015 6.96962 9.21371 6.63574C8.84804 7.06594 8.64369 7.34558 8.40278 7.58864C7.33803 8.65339 7.33373 8.64908 8.37266 9.69016Z" fill="#4281FD"/>
<path d="M72.2208 69.8837C72.179 69.8498 72.1401 69.8124 72.1047 69.7719C71.9089 69.4944 71.7497 69.5848 71.5432 69.7869C71.0291 70.2903 70.4935 70.77 69.9042 71.3163C70.5 71.882 71.0141 72.3466 71.5002 72.8414C71.739 73.0844 71.8788 73.0823 72.1455 72.8414C73.791 71.3894 73.7975 71.3894 72.2208 69.8837Z" fill="#4281FD"/>
<path d="M71.8121 10.5829C72.3907 9.97846 72.8553 9.46221 73.3522 8.98039C73.606 8.73518 73.5781 8.59321 73.3522 8.33509C71.8938 6.70033 71.9024 6.69388 70.3881 8.27056C70.3719 8.2921 70.3539 8.31224 70.3344 8.33079C70.0719 8.52008 70.0225 8.67925 70.2935 8.94383C70.8076 9.44071 71.2743 9.99782 71.8121 10.5829Z" fill="#4281FD"/>
<path d="M12.7801 14.2784C13.178 13.831 13.4447 13.504 13.7394 13.2029C14.6364 12.293 14.6407 12.2952 13.7265 11.3788C12.8123 10.4625 12.8188 10.4711 11.9218 11.3788C10.9904 12.3124 10.9969 12.3059 11.9218 13.2416C12.1842 13.5277 12.4187 13.846 12.7801 14.2784Z" fill="#4281FD"/>
<path d="M17.2606 50.3098C15.9872 50.3098 15.9872 50.3098 15.9872 51.5359C15.9872 52.891 15.9872 52.891 17.295 52.891C18.5684 52.891 18.5684 52.891 18.5684 51.5832C18.5684 50.3098 18.5684 50.3098 17.2606 50.3098Z" fill="#4281FD"/>
<path d="M23.7287 51.68C23.7287 50.312 23.7287 50.312 22.3542 50.312C21.1475 50.312 21.1475 50.312 21.1475 51.523C21.1475 52.8932 21.1475 52.8932 22.522 52.8932C23.7287 52.8911 23.7287 52.8911 23.7287 51.68Z" fill="#4281FD"/>
<path d="M58.5641 50.3098C57.2735 50.3098 57.2735 50.3098 57.2735 51.6004C57.2735 52.891 57.2735 52.891 58.5641 52.891C59.8547 52.891 59.8547 52.891 59.8547 51.6004C59.8547 50.3098 59.8504 50.3098 58.5641 50.3098Z" fill="#4281FD"/>
<path d="M65.0106 51.5682C65.0106 50.312 65.0106 50.312 63.7674 50.312C62.4294 50.312 62.4294 50.312 62.4294 51.6349C62.4294 52.8932 62.4294 52.8932 63.6727 52.8932C65.0106 52.8911 65.0106 52.8911 65.0106 51.5682Z" fill="#4281FD"/>
<path d="M10.827 51.6843C10.827 52.8931 10.827 52.8931 12.0401 52.8931C13.4082 52.8931 13.4082 52.8931 13.4082 51.5186C13.4082 50.3119 13.4082 50.3119 12.195 50.3119C10.827 50.3098 10.827 50.3098 10.827 51.6843Z" fill="#4281FD"/>
<path d="M67.5897 51.51C67.5897 52.8931 67.5897 52.8931 68.9491 52.8931C70.1709 52.8931 70.1709 52.8931 70.1709 51.695C70.1709 50.3119 70.1709 50.3119 68.8136 50.3119C67.5897 50.3098 67.5897 50.3098 67.5897 51.51Z" fill="#4281FD"/>
<path d="M65.5699 16.7542C66.3636 15.9604 66.3593 15.9647 65.5699 15.1538C65.2494 14.829 64.9547 14.4827 64.6579 14.1558C64.1954 14.3709 63.9674 14.715 63.6878 14.9903C62.7973 15.8615 62.8016 15.8658 63.6878 16.7563C64.6192 17.692 64.6192 17.692 65.5699 16.7542Z" fill="#4281FD"/>
<path d="M16.0195 17.3456C16.0399 17.3631 16.0593 17.3818 16.0775 17.4015C16.2733 17.6596 16.4454 17.6166 16.6562 17.4015C17.0412 16.9907 17.4499 16.6013 17.8457 16.2034C17.9403 16.1087 18.0285 16.0076 18.1124 15.9173C18.093 15.8485 18.093 15.7861 18.0608 15.7538C17.5747 15.2548 17.0842 14.7601 16.5895 14.2696C16.4604 14.1406 16.3507 14.2309 16.2539 14.332C15.7398 14.8719 15.0408 15.343 14.802 15.984C14.7031 16.2486 15.5764 16.881 16.0195 17.3456Z" fill="#4281FD"/>
<path d="M16.4475 62.2349C16.155 62.5145 15.9592 62.6909 15.7721 62.8802C14.6213 64.0266 14.6514 64.0008 15.742 65.1688C16.2518 65.7152 16.5594 65.8636 17.138 65.2097C18.1382 64.0804 18.1834 64.1342 17.0907 63.0221C16.867 62.7855 16.682 62.5231 16.4475 62.2349Z" fill="#4281FD"/>
<path d="M63.3286 63.5942C63.2705 63.6501 63.2188 63.7147 63.1565 63.7641C62.8682 63.9792 62.7865 64.2051 63.1242 64.4525C63.1657 64.4868 63.2052 64.5234 63.2425 64.5622C64.5181 65.8829 64.5159 65.8807 65.8087 64.5944C65.9952 64.4333 66.192 64.2845 66.398 64.1492C66.2496 63.9556 66.1829 63.8738 66.1249 63.7921C64.8902 62.1638 64.7547 62.153 63.3286 63.5942Z" fill="#4281FD"/>
</g>
<defs>
<clipPath id="clip0_3335_2947">
<rect width="79.9828" height="80" fill="white" transform="translate(0.508606)"/>
</clipPath>
</defs>
</svg>
