<svg width="24" height="24" viewBox="0 0 24 24" fill="none" xmlns="http://www.w3.org/2000/svg">
<path d="M12.0014 8.65612e-08C9.62795 -0.000284933 7.30767 0.703297 5.33406 2.02176C3.36045 3.34023 1.82216 5.21436 0.913727 7.40713C0.00529669 9.5999 -0.232465 12.0128 0.230512 14.3407C0.693488 16.6686 1.83641 18.807 3.51472 20.4853C5.19304 22.1636 7.33137 23.3065 9.65927 23.7695C11.9872 24.2325 14.4001 23.9947 16.5929 23.0863C18.7856 22.1778 20.6598 20.6396 21.9782 18.6659C23.2967 16.6923 24.0003 14.3721 24 11.9986C23.9996 8.81646 22.7354 5.7648 20.4853 3.51472C18.2352 1.26464 15.1835 0.000382206 12.0014 8.65612e-08ZM8.32809 17.5814H5.5756V8.71286H8.32809V17.5814ZM8.53705 6.10448C8.40591 6.86682 7.85974 7.40146 7.13775 7.49369C6.73682 7.53932 6.3334 7.43244 6.00767 7.19428C5.68193 6.95612 5.45773 6.60412 5.37961 6.20824C5.37288 6.18497 5.3642 6.16232 5.35367 6.14051V5.64333C5.36431 5.62558 5.37301 5.60673 5.37961 5.58712C5.41987 5.36273 5.50937 5.15005 5.64169 4.96441C5.77401 4.77876 5.94585 4.62476 6.14483 4.51351C6.32557 4.42642 6.51245 4.35273 6.70398 4.29302H7.19683C7.35191 4.33909 7.50441 4.39345 7.65366 4.45586C7.95449 4.60298 8.20157 4.8408 8.36005 5.1358C8.51854 5.4308 8.58045 5.7681 8.53705 6.10015V6.10448ZM18.6478 17.4891V17.5857H15.8953V17.4272C15.8953 16.0591 15.8953 14.692 15.8953 13.3258C15.9149 12.8547 15.8742 12.383 15.7742 11.9222C15.571 11.1469 15.0378 10.886 14.3202 10.9278C14.1653 10.9372 14.012 10.9643 13.8633 11.0085C13.2984 11.18 13.0174 11.6066 12.9165 12.1513C12.8505 12.517 12.8167 12.8879 12.8157 13.2595C12.8041 14.6473 12.8157 16.0365 12.8157 17.4257V17.5842H10.0776V8.71286H12.6989V9.93491C12.7257 9.90704 12.7502 9.87717 12.7724 9.84556C12.9877 9.48816 13.281 9.18406 13.6304 8.95597C13.9797 8.72789 14.3762 8.58172 14.79 8.52839C15.5145 8.40287 16.2597 8.48429 16.9401 8.76329C17.7053 9.08178 18.1463 9.68704 18.3812 10.4595C18.5563 11.0487 18.6427 11.6606 18.6377 12.2752C18.6535 14.0146 18.6478 15.7497 18.6478 17.4848V17.4891Z" fill="#4281FD"/>
</svg>
