<svg width="64" height="65" viewBox="0 0 64 65" fill="none" xmlns="http://www.w3.org/2000/svg">
<g filter="url(#filter0_d_4139_9459)">
<path d="M35.9222 38.2091L26.2693 33.0755C25.3427 33.9724 24.1646 34.5816 22.8834 34.8265C21.6022 35.0714 20.2754 34.941 19.0701 34.4517C17.8649 33.9623 16.8352 33.136 16.1109 32.0768C15.3865 31.0176 15 29.7731 15 28.5C15 27.2269 15.3865 25.9824 16.1109 24.9232C16.8352 23.864 17.8649 23.0377 19.0701 22.5484C20.2754 22.059 21.6022 21.9286 22.8834 22.1735C24.1646 22.4184 25.3427 23.0276 26.2693 23.9245L35.9222 18.7909C35.5911 17.2763 35.8302 15.6961 36.5958 14.3393C37.3613 12.9824 38.6022 11.9397 40.0914 11.4016C41.5806 10.8636 43.2187 10.8662 44.7061 11.4091C46.1935 11.9519 47.4307 12.9987 48.1917 14.358C48.9526 15.7173 49.1863 17.2983 48.8501 18.8118C48.5139 20.3253 47.6302 21.6703 46.3607 22.6007C45.0911 23.5311 43.5205 23.9848 41.936 23.8788C40.3516 23.7728 38.8592 23.1143 37.7318 22.0236L28.079 27.1572C28.2713 28.042 28.2713 28.9562 28.079 29.841L37.7318 34.9764C38.8592 33.8857 40.3516 33.2272 41.936 33.1212C43.5205 33.0152 45.0911 33.4689 46.3607 34.3993C47.6302 35.3298 48.5139 36.6747 48.8501 38.1882C49.1863 39.7017 48.9526 41.2827 48.1917 42.642C47.4307 44.0013 46.1935 45.0481 44.7061 45.5909C43.2187 46.1338 41.5806 46.1364 40.0914 45.5984C38.6022 45.0603 37.3613 44.0176 36.5958 42.6607C35.8302 41.3039 35.5911 39.7237 35.9222 38.2091Z" fill="url(#paint0_linear_4139_9459)"/>
</g>
<defs>
<filter id="filter0_d_4139_9459" x="0" y="0" width="64" height="65" filterUnits="userSpaceOnUse" color-interpolation-filters="sRGB">
<feFlood flood-opacity="0" result="BackgroundImageFix"/>
<feColorMatrix in="SourceAlpha" type="matrix" values="0 0 0 0 0 0 0 0 0 0 0 0 0 0 0 0 0 0 127 0" result="hardAlpha"/>
<feOffset dy="4"/>
<feGaussianBlur stdDeviation="7.5"/>
<feComposite in2="hardAlpha" operator="out"/>
<feColorMatrix type="matrix" values="0 0 0 0 0 0 0 0 0 0 0 0 0 0 0 0 0 0 0.1 0"/>
<feBlend mode="normal" in2="BackgroundImageFix" result="effect1_dropShadow_4139_9459"/>
<feBlend mode="normal" in="SourceGraphic" in2="effect1_dropShadow_4139_9459" result="shape"/>
</filter>
<linearGradient id="paint0_linear_4139_9459" x1="16.1333" y1="46" x2="50.9323" y2="43.4509" gradientUnits="userSpaceOnUse">
<stop stop-color="#1400FF"/>
<stop offset="1" stop-color="#42AEFD"/>
</linearGradient>
</defs>
</svg>
