<svg width="20" height="20" viewBox="0 0 20 20" fill="none" xmlns="http://www.w3.org/2000/svg">
<path d="M10.001 0C15.524 0 20.001 4.477 20.001 10C20.001 15.523 15.524 20 10.001 20C8.23377 20.0029 6.49765 19.5352 4.97099 18.645L0.00499063 20L1.35699 15.032C0.466084 13.5049 -0.00196181 11.768 0.000990443 10C0.000990443 4.477 4.47799 0 10.001 0ZM6.59299 5.3L6.39299 5.308C6.26351 5.31589 6.13697 5.3499 6.02099 5.408C5.91251 5.46943 5.81349 5.54622 5.72699 5.636C5.60699 5.749 5.53899 5.847 5.46599 5.942C5.09611 6.4229 4.89696 7.01331 4.89999 7.62C4.90199 8.11 5.02999 8.587 5.22999 9.033C5.63899 9.935 6.31199 10.89 7.19999 11.775C7.41399 11.988 7.62399 12.202 7.84999 12.401C8.95338 13.3725 10.2682 14.073 11.69 14.447L12.258 14.534C12.443 14.544 12.628 14.53 12.814 14.521C13.1052 14.506 13.3896 14.4271 13.647 14.29C13.7779 14.2225 13.9057 14.1491 14.03 14.07C14.03 14.07 14.073 14.042 14.155 13.98C14.29 13.88 14.373 13.809 14.485 13.692C14.568 13.606 14.64 13.505 14.695 13.39C14.773 13.227 14.851 12.916 14.883 12.657C14.907 12.459 14.9 12.351 14.897 12.284C14.893 12.177 14.804 12.066 14.707 12.019L14.125 11.758C14.125 11.758 13.255 11.379 12.723 11.137C12.6673 11.1127 12.6077 11.0988 12.547 11.096C12.4786 11.089 12.4094 11.0967 12.3442 11.1186C12.279 11.1405 12.2193 11.1761 12.169 11.223C12.164 11.221 12.097 11.278 11.374 12.154C11.3325 12.2098 11.2753 12.2519 11.2098 12.2751C11.1443 12.2982 11.0733 12.3013 11.006 12.284C10.9408 12.2665 10.877 12.2445 10.815 12.218C10.691 12.166 10.648 12.146 10.563 12.11C9.98906 11.8595 9.45768 11.5211 8.98799 11.107C8.86199 10.997 8.74499 10.877 8.62499 10.761C8.23158 10.3842 7.88871 9.95801 7.60499 9.493L7.54599 9.398C7.50361 9.33416 7.46935 9.2653 7.44399 9.193C7.40599 9.046 7.50499 8.928 7.50499 8.928C7.50499 8.928 7.74799 8.662 7.86099 8.518C7.97099 8.378 8.06399 8.242 8.12399 8.145C8.24199 7.955 8.27899 7.76 8.21699 7.609C7.93699 6.925 7.64699 6.244 7.34899 5.568C7.28999 5.434 7.11499 5.338 6.95599 5.319C6.90199 5.313 6.84799 5.307 6.79399 5.303C6.6597 5.29633 6.52513 5.29766 6.39099 5.307L6.59299 5.3Z" fill="url(#paint0_linear_4552_24446)"/>
<defs>
<linearGradient id="paint0_linear_4552_24446" x1="16" y1="1.5" x2="0.5" y2="20" gradientUnits="userSpaceOnUse">
<stop stop-color="#13E123"/>
<stop offset="1" stop-color="#03C112"/>
</linearGradient>
</defs>
</svg>
