<svg width="1920" height="1293" viewBox="0 0 1920 1293" fill="none" xmlns="http://www.w3.org/2000/svg">
<path d="M1953 0H-34V1292.48H1953V0Z" fill="url(#paint0_linear)"/>
<path d="M1013.98 985.295L1014.27 985.103C1014.55 984.893 1014.77 984.57 1014.86 984.203C1014.95 983.835 1014.92 983.451 1014.76 983.132C1014.6 982.814 1014.34 982.585 1014.02 982.495C1013.7 982.405 1013.36 982.461 1013.06 982.65L1012.78 982.842C1009.66 984.945 1006.34 986.605 1002.91 987.779C1002.74 987.832 1002.58 987.922 1002.43 988.044C1002.29 988.166 1002.17 988.318 1002.08 988.49C1001.98 988.662 1001.92 988.851 1001.89 989.046C1001.86 989.241 1001.87 989.438 1001.91 989.624C1001.95 989.811 1002.03 989.984 1002.13 990.132C1002.23 990.28 1002.36 990.402 1002.51 990.488C1002.66 990.575 1002.83 990.626 1003 990.637C1003.17 990.648 1003.35 990.62 1003.52 990.554C1007.16 989.288 1010.67 987.521 1013.98 985.295ZM1023.2 976.795C1023.31 976.712 1023.41 976.614 1023.51 976.504C1026.21 973.146 1028.43 969.345 1030.09 965.254C1030.16 965.076 1030.2 964.887 1030.21 964.697C1030.21 964.507 1030.19 964.32 1030.13 964.146C1030.07 963.973 1029.99 963.816 1029.87 963.685C1029.76 963.554 1029.62 963.451 1029.47 963.383C1029.32 963.314 1029.15 963.281 1028.98 963.286C1028.82 963.291 1028.65 963.333 1028.49 963.41C1028.33 963.487 1028.18 963.597 1028.06 963.735C1027.94 963.873 1027.84 964.035 1027.76 964.212C1026.22 968.006 1024.16 971.532 1021.65 974.65C1021.53 974.793 1021.44 974.96 1021.38 975.14C1021.31 975.321 1021.28 975.511 1021.28 975.7C1021.28 975.889 1021.32 976.073 1021.39 976.242C1021.45 976.41 1021.55 976.56 1021.67 976.682C1021.87 976.884 1022.12 977.005 1022.4 977.025C1022.67 977.046 1022.95 976.966 1023.2 976.797L1023.2 976.795ZM992.739 993.039C992.951 992.89 993.126 992.68 993.244 992.433C993.363 992.186 993.42 991.912 993.411 991.64C993.394 991.261 993.243 990.915 992.993 990.679C992.742 990.443 992.412 990.335 992.074 990.379C988.422 990.885 984.761 991.015 981.135 990.766C980.801 990.749 980.465 990.881 980.199 991.134C979.933 991.387 979.759 991.741 979.713 992.119C979.667 992.498 979.754 992.872 979.954 993.16C980.154 993.448 980.452 993.629 980.785 993.662C984.572 993.925 988.396 993.794 992.211 993.272C992.396 993.231 992.575 993.152 992.739 993.039ZM861.573 1071.33C861.858 1071.14 862.072 1070.83 862.169 1070.48C862.182 1070.43 863.557 1065.86 866.231 1058.4C866.294 1058.22 866.326 1058.03 866.325 1057.85C866.324 1057.66 866.289 1057.47 866.224 1057.31C866.159 1057.14 866.064 1056.99 865.945 1056.87C865.826 1056.74 865.685 1056.65 865.53 1056.59C865.374 1056.53 865.209 1056.51 865.041 1056.52C864.874 1056.54 864.708 1056.59 864.554 1056.68C864.4 1056.76 864.26 1056.88 864.143 1057.02C864.025 1057.17 863.932 1057.33 863.869 1057.51C861.197 1065.05 859.781 1069.69 859.765 1069.73C859.657 1070.11 859.681 1070.5 859.831 1070.84C859.981 1071.17 860.246 1071.42 860.568 1071.52C860.902 1071.6 861.262 1071.54 861.573 1071.33ZM1032.52 953.628C1032.71 953.506 1032.87 953.332 1032.99 953.124C1033.1 952.916 1033.17 952.681 1033.18 952.442C1033.58 948.046 1033.3 943.658 1032.36 939.476C1032.32 939.29 1032.25 939.116 1032.16 938.965C1032.06 938.814 1031.93 938.69 1031.79 938.598C1031.64 938.507 1031.48 938.452 1031.31 938.435C1031.14 938.418 1030.97 938.441 1030.8 938.501C1030.63 938.562 1030.48 938.659 1030.34 938.786C1030.21 938.914 1030.09 939.07 1030.01 939.245C1029.92 939.419 1029.87 939.609 1029.85 939.802C1029.83 939.996 1029.84 940.189 1029.89 940.37C1030.77 944.238 1031.03 948.296 1030.66 952.362C1030.63 952.741 1030.73 953.108 1030.94 953.384C1031.16 953.66 1031.46 953.823 1031.8 953.837C1032.05 953.863 1032.3 953.789 1032.52 953.628ZM970.635 991.356C970.779 991.264 970.906 991.14 971.009 990.993C971.111 990.846 971.187 990.679 971.231 990.502C971.339 990.128 971.316 989.732 971.166 989.397C971.016 989.063 970.751 988.818 970.429 988.715C966.986 987.629 963.685 986.111 960.585 984.19C960.442 984.093 960.28 984.032 960.111 984.009C959.941 983.986 959.767 984.002 959.599 984.056C959.43 984.109 959.27 984.2 959.129 984.323C958.987 984.445 958.867 984.596 958.775 984.768C958.683 984.94 958.621 985.128 958.593 985.322C958.565 985.515 958.572 985.711 958.612 985.896C958.653 986.082 958.726 986.254 958.828 986.402C958.931 986.551 959.06 986.672 959.208 986.76C962.472 988.777 965.948 990.368 969.574 991.503C969.744 991.568 969.928 991.588 970.111 991.562C970.295 991.536 970.474 991.464 970.635 991.352L970.635 991.356ZM870.087 1047.21C870.331 1047.04 870.527 1046.79 870.646 1046.5C872.179 1042.56 873.783 1038.61 875.434 1034.75C875.575 1034.4 875.592 1034 875.479 1033.65C875.367 1033.31 875.135 1033.03 874.833 1032.89C874.531 1032.75 874.182 1032.75 873.863 1032.89C873.544 1033.03 873.278 1033.31 873.124 1033.66C871.461 1037.57 869.843 1041.57 868.31 1045.51C868.238 1045.69 868.197 1045.88 868.19 1046.07C868.183 1046.26 868.211 1046.44 868.271 1046.62C868.332 1046.79 868.423 1046.95 868.541 1047.07C868.659 1047.2 868.8 1047.3 868.956 1047.36C869.136 1047.43 869.332 1047.45 869.528 1047.43C869.723 1047.4 869.914 1047.32 870.086 1047.2L870.087 1047.21ZM1027.16 930.044L1027.26 929.97C1027.41 929.855 1027.53 929.71 1027.62 929.545C1027.71 929.38 1027.78 929.197 1027.81 929.008C1027.84 928.819 1027.83 928.628 1027.8 928.446C1027.76 928.264 1027.69 928.095 1027.59 927.949C1025.38 924.509 1022.66 921.551 1019.52 919.198C1019.38 919.09 1019.23 919.015 1019.07 918.978C1018.9 918.94 1018.73 918.941 1018.56 918.98C1018.39 919.018 1018.23 919.094 1018.08 919.203C1017.94 919.312 1017.81 919.451 1017.71 919.613C1017.6 919.775 1017.53 919.956 1017.49 920.145C1017.45 920.335 1017.44 920.529 1017.47 920.716C1017.5 920.903 1017.56 921.08 1017.65 921.236C1017.74 921.391 1017.85 921.523 1017.99 921.622C1020.89 923.802 1023.41 926.542 1025.45 929.73C1025.64 930.007 1025.91 930.191 1026.23 930.248C1026.54 930.306 1026.87 930.232 1027.15 930.041L1027.16 930.044ZM951.818 979.548C951.923 979.473 952.017 979.381 952.099 979.275C952.341 978.986 952.478 978.607 952.48 978.222C952.481 977.838 952.347 977.479 952.107 977.225C949.57 974.505 947.375 971.406 945.575 968.002C945.493 967.84 945.383 967.7 945.251 967.59C945.118 967.48 944.965 967.403 944.801 967.363C944.637 967.322 944.466 967.32 944.297 967.356C944.127 967.392 943.964 967.465 943.816 967.571C943.667 967.677 943.537 967.814 943.433 967.974C943.328 968.134 943.252 968.313 943.208 968.502C943.164 968.691 943.153 968.885 943.176 969.073C943.199 969.261 943.255 969.44 943.342 969.598C945.244 973.227 947.585 976.52 950.303 979.389C950.494 979.6 950.745 979.73 951.019 979.758C951.292 979.786 951.573 979.712 951.817 979.547L951.818 979.548ZM880.065 1023.76C880.291 1023.61 880.473 1023.39 880.583 1023.12C882.348 1019.27 884.184 1015.41 886.053 1011.69C886.139 1011.51 886.194 1011.33 886.217 1011.14C886.24 1010.95 886.23 1010.76 886.187 1010.58C886.144 1010.4 886.069 1010.23 885.967 1010.09C885.865 1009.94 885.737 1009.83 885.591 1009.74C885.446 1009.66 885.284 1009.61 885.117 1009.6C884.95 1009.58 884.78 1009.61 884.617 1009.67C884.453 1009.73 884.3 1009.83 884.166 1009.95C884.031 1010.08 883.918 1010.23 883.833 1010.4C881.979 1014.15 880.115 1018.03 878.322 1021.91C878.165 1022.25 878.131 1022.65 878.228 1023C878.325 1023.36 878.545 1023.65 878.839 1023.8C879.022 1023.92 879.232 1023.97 879.447 1023.96C879.662 1023.96 879.875 1023.88 880.065 1023.76L880.065 1023.76ZM891.383 1001.04C891.576 1000.9 891.743 1000.71 891.873 1000.5C893.913 996.746 895.984 993.053 898.072 989.551C898.167 989.387 898.234 989.206 898.269 989.017C898.304 988.829 898.306 988.637 898.275 988.453C898.244 988.269 898.181 988.096 898.089 987.945C897.997 987.793 897.878 987.666 897.739 987.569C897.6 987.473 897.444 987.41 897.279 987.384C897.114 987.357 896.944 987.369 896.778 987.416C896.613 987.464 896.455 987.548 896.314 987.663C896.172 987.777 896.051 987.921 895.955 988.085C893.854 991.637 891.755 995.349 889.701 999.155C889.519 999.496 889.46 999.895 889.536 1000.26C889.612 1000.63 889.816 1000.95 890.105 1001.13C890.302 1001.23 890.521 1001.27 890.743 1001.26C890.965 1001.24 891.185 1001.16 891.382 1001.03L891.383 1001.04ZM1112.31 850.862C1112.47 850.764 1112.61 850.634 1112.72 850.479C1112.83 850.324 1112.91 850.147 1112.97 849.958C1113.02 849.77 1113.04 849.575 1113.02 849.383C1113.01 849.192 1112.96 849.008 1112.88 848.844C1112.8 848.68 1112.69 848.538 1112.55 848.427C1112.42 848.315 1112.27 848.237 1112.1 848.197C1111.94 848.156 1111.76 848.154 1111.59 848.191C1111.42 848.227 1111.26 848.302 1111.11 848.41C1107.85 850.584 1104.47 852.516 1101.01 854.194C1100.7 854.359 1100.46 854.647 1100.32 854.999C1100.19 855.351 1100.18 855.739 1100.29 856.08C1100.41 856.422 1100.64 856.691 1100.93 856.83C1101.23 856.97 1101.58 856.968 1101.89 856.827C1105.47 855.104 1108.95 853.11 1112.31 850.86L1112.31 850.862ZM1091.31 861.173C1091.57 861.001 1091.77 860.745 1091.88 860.444C1092 860.142 1092.03 859.812 1091.97 859.504C1091.93 859.321 1091.86 859.151 1091.76 859.004C1091.66 858.858 1091.53 858.737 1091.38 858.649C1091.24 858.561 1091.08 858.507 1090.91 858.492C1090.74 858.476 1090.57 858.499 1090.41 858.558C1086.97 859.786 1083.42 860.845 1079.49 861.832C1079.32 861.872 1079.16 861.949 1079.01 862.06C1078.86 862.17 1078.74 862.31 1078.63 862.474C1078.53 862.637 1078.46 862.819 1078.42 863.01C1078.38 863.201 1078.37 863.396 1078.4 863.584C1078.42 863.773 1078.49 863.951 1078.58 864.107C1078.67 864.264 1078.79 864.396 1078.93 864.497C1079.07 864.597 1079.22 864.663 1079.39 864.691C1079.56 864.72 1079.73 864.709 1079.9 864.661C1083.89 863.635 1087.5 862.535 1091 861.302C1091.11 861.296 1091.22 861.253 1091.32 861.178L1091.31 861.173ZM1009.5 916.54C1009.72 916.396 1009.91 916.186 1010.03 915.935C1010.15 915.684 1010.21 915.403 1010.19 915.127C1010.18 914.851 1010.09 914.591 1009.94 914.38C1009.79 914.17 1009.59 914.017 1009.36 913.941C1005.74 912.782 1002 912.087 998.191 911.867C997.851 911.847 997.509 911.981 997.24 912.24C996.97 912.499 996.795 912.861 996.754 913.247C996.713 913.633 996.808 914.01 997.019 914.297C997.23 914.584 997.539 914.756 997.879 914.776C1001.5 914.982 1005.06 915.638 1008.5 916.731C1008.66 916.778 1008.84 916.785 1009.01 916.753C1009.18 916.721 1009.35 916.649 1009.51 916.543L1009.5 916.54ZM940.932 958.634C941.183 958.463 941.383 958.207 941.501 957.905C941.618 957.603 941.647 957.273 941.583 956.966C940.733 953.071 940.394 949.02 940.575 944.936C940.584 944.744 940.56 944.555 940.503 944.38C940.447 944.204 940.359 944.046 940.245 943.913C940.131 943.78 939.994 943.676 939.84 943.607C939.687 943.537 939.521 943.504 939.351 943.508C939.182 943.513 939.013 943.555 938.853 943.632C938.694 943.71 938.547 943.821 938.422 943.96C938.297 944.099 938.196 944.263 938.124 944.441C938.053 944.62 938.012 944.811 938.006 945.002C937.825 949.358 938.195 953.677 939.104 957.829C939.143 958.013 939.214 958.183 939.314 958.33C939.413 958.477 939.539 958.598 939.685 958.686C939.83 958.774 939.991 958.827 940.159 958.842C940.327 958.858 940.498 958.835 940.663 958.776C940.761 958.75 940.855 958.702 940.938 958.635L940.932 958.634ZM904.226 979.283C904.389 979.184 904.526 979.037 904.621 978.858C906.939 975.283 909.288 971.85 911.67 968.558C911.783 968.406 911.87 968.231 911.926 968.045C911.981 967.859 912.004 967.664 911.993 967.473C911.982 967.282 911.937 967.098 911.861 966.932C911.785 966.766 911.679 966.621 911.549 966.505C911.42 966.39 911.27 966.306 911.107 966.259C910.945 966.212 910.774 966.203 910.603 966.232C910.433 966.261 910.267 966.327 910.115 966.428C909.963 966.528 909.829 966.66 909.719 966.816C907.31 970.127 904.919 973.628 902.589 977.253C902.383 977.574 902.292 977.965 902.335 978.341C902.379 978.717 902.554 979.048 902.822 979.263C903.019 979.423 903.258 979.51 903.509 979.513C903.76 979.516 904.011 979.435 904.231 979.28L904.226 979.283ZM1069.19 866.984C1069.42 866.835 1069.61 866.613 1069.73 866.349C1069.85 866.084 1069.9 865.79 1069.86 865.506C1069.85 865.319 1069.8 865.14 1069.72 864.98C1069.64 864.819 1069.53 864.68 1069.4 864.571C1069.27 864.462 1069.12 864.385 1068.96 864.344C1068.79 864.304 1068.62 864.3 1068.46 864.334C1065.11 864.968 1061.46 865.604 1057.3 866.262C1057.13 866.288 1056.96 866.35 1056.81 866.446C1056.66 866.542 1056.53 866.67 1056.41 866.821C1056.3 866.973 1056.22 867.146 1056.16 867.33C1056.11 867.514 1056.09 867.706 1056.1 867.895C1056.11 868.084 1056.15 868.266 1056.23 868.43C1056.3 868.595 1056.41 868.739 1056.53 868.854C1056.66 868.969 1056.81 869.054 1056.97 869.102C1057.13 869.151 1057.3 869.163 1057.46 869.137C1061.63 868.479 1065.31 867.824 1068.7 867.197C1068.88 867.159 1069.04 867.085 1069.2 866.981L1069.19 866.984ZM987.424 915.004C987.64 914.86 987.818 914.651 987.937 914.403C988.057 914.154 988.111 913.877 988.095 913.605C988.078 913.226 987.928 912.88 987.677 912.644C987.426 912.408 987.096 912.3 986.758 912.344C982.972 912.857 979.204 913.651 975.477 914.722C975.308 914.765 975.147 914.845 975.002 914.958C974.856 915.071 974.731 915.214 974.632 915.379C974.534 915.543 974.464 915.726 974.428 915.917C974.391 916.107 974.388 916.302 974.419 916.488C974.45 916.675 974.515 916.85 974.609 917.003C974.703 917.156 974.824 917.284 974.966 917.379C975.108 917.475 975.268 917.536 975.436 917.559C975.603 917.581 975.776 917.566 975.943 917.512C979.572 916.485 983.24 915.717 986.924 915.215C987.099 915.167 987.27 915.094 987.432 914.998L987.424 915.004ZM918.9 959.028C919.013 958.945 919.117 958.847 919.21 958.737C921.864 955.464 924.566 952.364 927.288 949.456C927.544 949.185 927.702 948.816 927.725 948.432C927.749 948.049 927.636 947.68 927.413 947.409C927.19 947.138 926.873 946.986 926.534 946.986C926.194 946.986 925.86 947.139 925.603 947.411C922.868 950.366 920.098 953.557 917.415 956.848C917.297 956.991 917.203 957.158 917.14 957.338C917.077 957.519 917.045 957.709 917.047 957.898C917.049 958.087 917.084 958.271 917.15 958.44C917.216 958.608 917.312 958.758 917.433 958.88C917.617 959.089 917.863 959.217 918.131 959.243C918.398 959.269 918.672 959.192 918.908 959.023L918.9 959.028ZM1046.77 870.579C1047.03 870.404 1047.23 870.141 1047.34 869.832C1047.46 869.523 1047.48 869.186 1047.4 868.878C1047.32 868.569 1047.15 868.307 1046.92 868.133C1046.68 867.96 1046.4 867.886 1046.11 867.923L1043.18 868.317C1040.43 868.71 1037.66 869.07 1034.9 869.516C1034.56 869.567 1034.24 869.769 1034.02 870.075C1033.79 870.381 1033.68 870.767 1033.7 871.148C1033.72 871.53 1033.88 871.875 1034.14 872.107C1034.39 872.34 1034.73 872.442 1035.07 872.39L1043.32 871.211L1046.28 870.796C1046.46 870.756 1046.63 870.681 1046.78 870.573L1046.77 870.579ZM965.398 921.154C965.667 920.978 965.876 920.703 965.987 920.379C966.099 920.055 966.105 919.705 966.005 919.393C965.955 919.214 965.874 919.051 965.766 918.913C965.658 918.774 965.525 918.663 965.374 918.586C965.224 918.509 965.06 918.468 964.891 918.464C964.722 918.461 964.552 918.495 964.391 918.566C960.769 920.12 957.225 921.936 953.783 924.001C953.627 924.092 953.486 924.216 953.369 924.365C953.251 924.515 953.16 924.687 953.101 924.873C953.041 925.058 953.014 925.252 953.021 925.444C953.028 925.636 953.07 925.822 953.143 925.99C953.216 926.159 953.319 926.307 953.447 926.425C953.574 926.544 953.723 926.631 953.885 926.681C954.047 926.731 954.218 926.743 954.389 926.717C954.56 926.691 954.727 926.626 954.88 926.528C958.229 924.534 961.672 922.772 965.189 921.253C965.266 921.238 965.341 921.202 965.406 921.148L965.398 921.154ZM935.727 940.992L935.897 940.877C938.908 938.099 942.009 935.505 945.087 933.172C945.236 933.065 945.367 932.928 945.472 932.767C945.576 932.606 945.653 932.426 945.697 932.236C945.741 932.047 945.751 931.851 945.728 931.662C945.704 931.473 945.647 931.294 945.559 931.136C945.472 930.977 945.355 930.842 945.218 930.739C945.08 930.635 944.923 930.566 944.756 930.534C944.59 930.502 944.417 930.508 944.248 930.553C944.079 930.597 943.918 930.679 943.773 930.793C943.505 931.016 943.222 931.208 942.954 931.43C944.045 927.929 945.435 924.534 947.103 921.297C947.277 920.955 947.329 920.559 947.247 920.194C947.165 919.83 946.956 919.527 946.666 919.351C946.375 919.176 946.027 919.142 945.697 919.258C945.367 919.374 945.081 919.63 944.903 919.969C942.906 923.81 941.293 927.868 940.094 932.061C940.024 932.305 940.011 932.561 940.057 932.803C940.103 933.044 940.206 933.264 940.356 933.438C938.34 935.091 936.352 936.808 934.355 938.653C934.079 938.906 933.896 939.267 933.846 939.654C933.796 940.042 933.884 940.425 934.089 940.721C934.274 940.985 934.543 941.157 934.846 941.206C935.149 941.255 935.464 941.177 935.735 940.987L935.727 940.992ZM1024.38 873.909C1024.6 873.756 1024.78 873.539 1024.91 873.283C1025.03 873.027 1025.08 872.743 1025.07 872.463C1025.04 872.082 1024.87 871.741 1024.61 871.512C1024.35 871.284 1024.02 871.186 1023.68 871.24C1019.6 871.921 1015.92 872.657 1012.48 873.399C1012.31 873.432 1012.14 873.503 1011.99 873.608C1011.84 873.712 1011.71 873.847 1011.6 874.006C1011.5 874.165 1011.42 874.344 1011.37 874.533C1011.33 874.722 1011.31 874.916 1011.33 875.106C1011.35 875.295 1011.41 875.475 1011.49 875.636C1011.58 875.796 1011.69 875.934 1011.82 876.041C1011.96 876.148 1012.11 876.222 1012.28 876.259C1012.44 876.295 1012.62 876.294 1012.79 876.255C1016.19 875.5 1019.85 874.815 1023.89 874.123C1024.06 874.085 1024.23 874.011 1024.39 873.905L1024.38 873.909ZM1002.16 878.887C1002.43 878.703 1002.63 878.422 1002.75 878.093C1002.86 877.764 1002.86 877.41 1002.76 877.094C1002.66 876.777 1002.46 876.52 1002.2 876.368C1001.93 876.217 1001.62 876.18 1001.32 876.266C997.425 877.395 993.749 878.664 990.275 880.038C989.944 880.17 989.665 880.442 989.498 880.793C989.331 881.143 989.29 881.545 989.384 881.91C989.478 882.274 989.699 882.571 989.999 882.736C990.299 882.9 990.653 882.918 990.984 882.787C994.359 881.441 997.978 880.21 1001.8 879.087C1001.92 879.005 1002.05 878.959 1002.16 878.883L1002.16 878.887ZM953.292 911.253C953.423 911.157 953.546 911.047 953.658 910.923C955.274 908.764 957.079 906.601 958.984 904.491C959.839 903.543 960.708 902.626 961.621 901.721C961.756 901.592 961.867 901.435 961.95 901.261C962.033 901.086 962.085 900.898 962.103 900.705C962.121 900.513 962.105 900.321 962.056 900.141C962.007 899.961 961.926 899.797 961.817 899.658C961.708 899.518 961.574 899.407 961.423 899.331C961.272 899.254 961.106 899.213 960.936 899.211C960.766 899.209 960.595 899.246 960.433 899.319C960.271 899.392 960.122 899.5 959.993 899.636C959.081 900.541 958.166 901.53 957.286 902.495C955.342 904.604 953.503 906.834 951.779 909.173C951.574 909.433 951.454 909.761 951.439 910.098C951.424 910.434 951.517 910.757 951.699 911.008C951.882 911.259 952.143 911.422 952.435 911.467C952.727 911.512 953.031 911.436 953.292 911.253ZM980.62 887.567C980.911 887.369 981.131 887.057 981.234 886.696C981.338 886.336 981.317 885.954 981.176 885.629C981.035 885.305 980.785 885.063 980.478 884.953C980.17 884.843 979.829 884.875 979.524 885.04C976.012 886.949 972.601 889.112 969.314 891.515C969.165 891.622 969.034 891.759 968.93 891.92C968.825 892.08 968.748 892.261 968.704 892.451C968.66 892.64 968.65 892.835 968.673 893.024C968.697 893.213 968.754 893.392 968.842 893.551C968.93 893.71 969.046 893.845 969.184 893.948C969.321 894.051 969.478 894.121 969.645 894.153C969.811 894.185 969.984 894.178 970.153 894.134C970.322 894.089 970.483 894.008 970.628 893.894C973.806 891.551 977.108 889.448 980.511 887.599C980.531 887.605 980.552 887.604 980.573 887.598C980.593 887.591 980.612 887.58 980.627 887.563L980.62 887.567Z" fill="#B5A8FF"/>
<path d="M1111.96 844.61L1117.11 868.179L1194.67 819.713L1111.96 844.61Z" fill="#B5A8FF"/>
<path d="M1194.73 819.882L1113.02 849.329L1127.43 866.905L1194.73 819.882Z" fill="url(#paint1_linear)"/>
<path d="M1194.02 818.441L1101.12 832.064L1111.57 842.916L1194.02 818.441Z" fill="url(#paint2_linear)"/>
<g opacity="0.02">
<path opacity="0.02" d="M429.103 696.753H326.772C325.897 696.754 325.031 696.556 324.223 696.169C323.414 695.783 322.68 695.216 322.061 694.5C321.443 693.785 320.952 692.936 320.618 692.001C320.284 691.066 320.112 690.064 320.113 689.053V570.687C320.112 569.676 320.284 568.674 320.618 567.739C320.952 566.804 321.443 565.955 322.061 565.24C322.68 564.524 323.414 563.957 324.223 563.571C325.031 563.184 325.897 562.986 326.772 562.987H429.13C430.005 562.986 430.871 563.184 431.679 563.571C432.488 563.957 433.222 564.524 433.841 565.24C434.459 565.955 434.95 566.804 435.284 567.739C435.618 568.674 435.79 569.676 435.789 570.687V689.053C435.779 691.097 435.071 693.054 433.818 694.496C432.565 695.939 430.87 696.75 429.103 696.753Z" fill="#1100FF"/>
<path opacity="0.02" d="M140.988 191.249H38.6572C37.7824 191.25 36.9161 191.051 36.1077 190.665C35.2994 190.278 34.5649 189.711 33.9464 188.996C33.3279 188.28 32.8374 187.431 32.5031 186.496C32.1688 185.562 31.9973 184.56 31.9982 183.548V65.1826C31.9973 64.171 32.1688 63.1692 32.5031 62.2344C32.8374 61.2997 33.3279 60.4503 33.9464 59.7351C34.5649 59.0198 35.2994 58.4526 36.1077 58.0661C36.9161 57.6795 37.7824 57.4811 38.6572 57.4822H141.015C141.89 57.4811 142.756 57.6795 143.564 58.0661C144.373 58.4526 145.107 59.0198 145.726 59.7351C146.344 60.4503 146.835 61.2997 147.169 62.2344C147.503 63.1692 147.675 64.171 147.674 65.1826V183.548C147.664 185.592 146.956 187.549 145.703 188.992C144.45 190.434 142.755 191.246 140.988 191.249Z" fill="#1100FF"/>
<path opacity="0.02" d="M1733.42 1163.25H1628.21C1627.31 1163.25 1626.42 1163.05 1625.59 1162.65C1624.76 1162.25 1624.01 1161.67 1623.37 1160.93C1622.73 1160.2 1622.23 1159.32 1621.89 1158.36C1621.54 1157.4 1621.37 1156.37 1621.37 1155.33V1033.64C1621.37 1032.6 1621.54 1031.57 1621.89 1030.61C1622.23 1029.65 1622.73 1028.78 1623.37 1028.04C1624.01 1027.31 1624.76 1026.72 1625.59 1026.33C1626.42 1025.93 1627.31 1025.72 1628.21 1025.73H1733.45C1734.35 1025.72 1735.24 1025.93 1736.07 1026.33C1736.9 1026.72 1737.65 1027.31 1738.29 1028.04C1738.93 1028.78 1739.43 1029.65 1739.77 1030.61C1740.12 1031.57 1740.29 1032.6 1740.29 1033.64V1155.33C1740.28 1157.44 1739.55 1159.45 1738.27 1160.93C1736.98 1162.41 1735.23 1163.25 1733.42 1163.25Z" fill="#1100FF"/>
<path opacity="0.02" d="M1565.35 728.722H1507.23C1506.73 728.723 1506.24 728.61 1505.78 728.391C1505.32 728.171 1504.91 727.849 1504.56 727.442C1504.2 727.036 1503.93 726.554 1503.74 726.023C1503.55 725.491 1503.45 724.922 1503.45 724.348V657.117C1503.45 656.542 1503.55 655.973 1503.74 655.442C1503.93 654.911 1504.2 654.428 1504.56 654.022C1504.91 653.616 1505.32 653.294 1505.78 653.074C1506.24 652.854 1506.73 652.742 1507.23 652.743H1565.37C1565.87 652.742 1566.36 652.854 1566.82 653.074C1567.28 653.294 1567.7 653.616 1568.05 654.022C1568.4 654.428 1568.68 654.911 1568.87 655.442C1569.06 655.973 1569.15 656.542 1569.15 657.117V724.349C1569.15 725.511 1568.74 726.623 1568.03 727.442C1567.32 728.262 1566.36 728.722 1565.35 728.722Z" fill="#1100FF"/>
<path opacity="0.02" d="M1841.06 281.141H1716.35C1715.29 281.142 1714.23 280.9 1713.25 280.429C1712.26 279.958 1711.36 279.267 1710.61 278.395C1709.86 277.523 1709.26 276.488 1708.85 275.349C1708.44 274.21 1708.24 272.989 1708.24 271.756V127.502C1708.24 126.269 1708.44 125.048 1708.85 123.909C1709.26 122.77 1709.86 121.735 1710.61 120.863C1711.36 119.991 1712.26 119.3 1713.25 118.829C1714.23 118.358 1715.29 118.116 1716.35 118.117H1841.1C1842.16 118.116 1843.22 118.358 1844.2 118.829C1845.19 119.3 1846.08 119.991 1846.84 120.863C1847.59 121.735 1848.19 122.77 1848.6 123.909C1849.01 125.048 1849.21 126.269 1849.21 127.502V271.756C1849.2 274.248 1848.34 276.634 1846.81 278.392C1845.28 280.15 1843.22 281.138 1841.06 281.141Z" fill="#1100FF"/>
<path opacity="0.02" d="M471.672 755.524H410.905C410.387 755.524 409.874 755.407 409.396 755.178C408.917 754.949 408.482 754.613 408.116 754.189C407.749 753.765 407.459 753.262 407.261 752.709C407.063 752.155 406.961 751.562 406.961 750.963V680.656C406.961 680.057 407.063 679.464 407.261 678.91C407.459 678.357 407.749 677.854 408.116 677.43C408.482 677.007 408.917 676.671 409.396 676.442C409.874 676.213 410.387 676.095 410.905 676.095H471.672C472.19 676.095 472.703 676.213 473.181 676.442C473.66 676.671 474.095 677.007 474.461 677.43C474.828 677.854 475.118 678.357 475.316 678.91C475.514 679.464 475.616 680.057 475.616 680.656V750.926C475.617 752.139 475.202 753.303 474.463 754.165C473.724 755.026 472.721 755.515 471.672 755.524Z" fill="#1100FF"/>
<path opacity="0.02" d="M183.557 250.02H122.79C122.272 250.02 121.759 249.902 121.281 249.673C120.802 249.444 120.367 249.108 120.001 248.685C119.634 248.261 119.344 247.758 119.146 247.204C118.948 246.651 118.846 246.058 118.846 245.459V175.152C118.846 174.553 118.948 173.959 119.146 173.406C119.344 172.852 119.634 172.349 120.001 171.926C120.367 171.502 120.802 171.166 121.281 170.937C121.759 170.708 122.272 170.59 122.79 170.591H183.557C184.075 170.59 184.588 170.708 185.066 170.937C185.545 171.166 185.98 171.502 186.346 171.926C186.713 172.349 187.003 172.852 187.201 173.406C187.399 173.959 187.501 174.553 187.501 175.152V245.421C187.501 246.635 187.087 247.799 186.348 248.66C185.609 249.522 184.606 250.01 183.557 250.02Z" fill="#1100FF"/>
<path opacity="0.02" d="M1778.85 1203.95H1721.45C1720.46 1203.95 1719.51 1203.5 1718.82 1202.69C1718.12 1201.88 1717.72 1200.79 1717.72 1199.65V1133.23C1717.72 1132.09 1718.12 1130.99 1718.82 1130.18C1719.51 1129.37 1720.46 1128.92 1721.45 1128.92H1778.85C1779.84 1128.92 1780.79 1129.37 1781.49 1130.18C1782.19 1130.99 1782.58 1132.09 1782.58 1133.23V1199.61C1782.58 1200.76 1782.19 1201.86 1781.49 1202.67C1780.79 1203.49 1779.84 1203.95 1778.85 1203.95Z" fill="#1100FF"/>
<path opacity="0.02" d="M1590.46 755.452H1558.74C1558.47 755.453 1558.2 755.391 1557.95 755.272C1557.7 755.152 1557.48 754.977 1557.29 754.756C1557.09 754.535 1556.94 754.272 1556.84 753.983C1556.74 753.694 1556.68 753.384 1556.68 753.071V716.379C1556.68 716.066 1556.74 715.757 1556.84 715.468C1556.94 715.178 1557.09 714.916 1557.29 714.695C1557.48 714.473 1557.7 714.298 1557.95 714.179C1558.2 714.059 1558.47 713.998 1558.74 713.998H1590.46C1590.73 713.998 1590.99 714.059 1591.24 714.179C1591.49 714.298 1591.72 714.473 1591.91 714.695C1592.1 714.916 1592.26 715.178 1592.36 715.468C1592.46 715.757 1592.52 716.066 1592.51 716.379V753.053C1592.52 753.686 1592.3 754.294 1591.91 754.744C1591.53 755.194 1591 755.449 1590.46 755.452Z" fill="#1100FF"/>
<path opacity="0.02" d="M1894.92 329.391H1826.88C1826.3 329.391 1825.72 329.26 1825.19 329.003C1824.65 328.747 1824.16 328.37 1823.75 327.896C1823.34 327.422 1823.02 326.859 1822.8 326.239C1822.57 325.619 1822.46 324.955 1822.46 324.284V245.555C1822.46 244.884 1822.57 244.22 1822.8 243.6C1823.02 242.98 1823.34 242.417 1823.75 241.943C1824.16 241.469 1824.65 241.093 1825.19 240.836C1825.72 240.58 1826.3 240.448 1826.88 240.448H1894.92C1895.5 240.448 1896.08 240.58 1896.61 240.836C1897.15 241.093 1897.64 241.469 1898.05 241.943C1898.46 242.417 1898.78 242.98 1899 243.6C1899.23 244.22 1899.34 244.884 1899.34 245.555V324.243C1899.34 325.602 1898.88 326.906 1898.05 327.871C1897.22 328.836 1896.1 329.382 1894.92 329.391Z" fill="#1100FF"/>
<path opacity="0.02" d="M1116.26 777.576H1045.25C1044.23 777.578 1043.23 777.346 1042.28 776.896C1041.34 776.446 1040.49 775.785 1039.77 774.952C1039.05 774.118 1038.47 773.129 1038.08 772.04C1037.69 770.951 1037.49 769.783 1037.5 768.605V686.491C1037.49 685.312 1037.69 684.145 1038.08 683.056C1038.47 681.967 1039.05 680.977 1039.77 680.144C1040.49 679.311 1041.34 678.65 1042.28 678.2C1043.23 677.749 1044.23 677.518 1045.25 677.519H1116.26C1117.28 677.518 1118.29 677.749 1119.23 678.2C1120.18 678.65 1121.03 679.311 1121.75 680.144C1122.47 680.977 1123.04 681.967 1123.43 683.056C1123.82 684.145 1124.02 685.312 1124.02 686.491V768.605C1124.03 769.784 1123.83 770.953 1123.44 772.044C1123.05 773.134 1122.48 774.125 1121.76 774.959C1121.04 775.793 1120.18 776.453 1119.24 776.903C1118.29 777.352 1117.28 777.581 1116.26 777.576Z" fill="#1100FF"/>
<path opacity="0.02" d="M111.99 1140.45H28.752C27.5573 1140.45 26.3741 1140.18 25.27 1139.65C24.166 1139.12 23.1629 1138.35 22.3181 1137.37C21.4734 1136.39 20.8034 1135.23 20.3469 1133.96C19.8904 1132.68 19.6563 1131.31 19.6578 1129.93V1033.68C19.6563 1032.29 19.8904 1030.93 20.3469 1029.65C20.8034 1028.37 21.4734 1027.21 22.3181 1026.24C23.1629 1025.26 24.166 1024.48 25.27 1023.96C26.3741 1023.43 27.5573 1023.16 28.752 1023.16H111.99C113.185 1023.16 114.368 1023.43 115.472 1023.96C116.576 1024.48 117.579 1025.26 118.424 1026.24C119.269 1027.21 119.938 1028.37 120.395 1029.65C120.851 1030.93 121.086 1032.29 121.084 1033.68V1129.93C121.089 1131.31 120.857 1132.68 120.402 1133.96C119.946 1135.24 119.277 1136.4 118.431 1137.38C117.586 1138.36 116.581 1139.13 115.476 1139.66C114.37 1140.18 113.186 1140.45 111.99 1140.45Z" fill="#1100FF"/>
<path opacity="0.02" d="M1269.55 831.795H1092.17C1090.82 831.796 1089.48 831.49 1088.24 830.894C1086.99 830.298 1085.86 829.423 1084.9 828.321C1083.95 827.218 1083.19 825.909 1082.68 824.468C1082.16 823.026 1081.9 821.482 1081.9 819.922V767.202C1081.9 765.643 1082.16 764.098 1082.68 762.657C1083.19 761.216 1083.95 759.907 1084.9 758.804C1085.86 757.701 1086.99 756.827 1088.24 756.231C1089.48 755.635 1090.82 755.329 1092.17 755.33H1269.55C1270.9 755.329 1272.23 755.635 1273.48 756.231C1274.72 756.827 1275.86 757.701 1276.81 758.804C1277.76 759.907 1278.52 761.216 1279.03 762.657C1279.55 764.098 1279.81 765.643 1279.81 767.202V819.922C1279.8 823.068 1278.72 826.082 1276.8 828.306C1274.87 830.53 1272.27 831.784 1269.55 831.795Z" fill="#1100FF"/>
<path opacity="0.02" d="M291.659 1185.28H83.7408C82.1599 1185.29 80.5943 1184.93 79.1334 1184.23C77.6725 1183.53 76.3451 1182.51 75.2272 1181.21C74.1093 1179.92 73.2229 1178.39 72.6187 1176.7C72.0145 1175.01 71.7043 1173.2 71.7059 1171.37V1109.57C71.7043 1107.74 72.0145 1105.93 72.6187 1104.24C73.2229 1102.55 74.1093 1101.02 75.2272 1099.72C76.3451 1098.43 77.6725 1097.41 79.1334 1096.71C80.5943 1096.01 82.1599 1095.65 83.7408 1095.65H291.659C293.24 1095.65 294.806 1096.01 296.267 1096.71C297.728 1097.41 299.055 1098.43 300.173 1099.72C301.291 1101.02 302.177 1102.55 302.782 1104.24C303.386 1105.93 303.696 1107.74 303.694 1109.57V1171.37C303.684 1175.06 302.413 1178.59 300.158 1181.2C297.903 1183.8 294.848 1185.27 291.659 1185.28Z" fill="#1100FF"/>
<g opacity="0.02">
<path opacity="0.02" d="M456.676 1235C450.377 1235 444.22 1232.84 438.982 1228.8C433.745 1224.75 429.663 1219 427.252 1212.27C424.842 1205.54 424.211 1198.13 425.44 1190.99C426.669 1183.85 429.702 1177.28 434.156 1172.13C438.61 1166.98 444.285 1163.47 450.463 1162.05C456.641 1160.63 463.044 1161.36 468.864 1164.15C474.683 1166.94 479.657 1171.66 483.157 1177.71C486.656 1183.77 488.524 1190.89 488.524 1198.17C488.517 1207.94 485.159 1217.3 479.188 1224.21C473.217 1231.11 465.121 1234.99 456.676 1235ZM456.676 1179.24C453.439 1179.24 450.274 1180.36 447.582 1182.44C444.89 1184.51 442.792 1187.47 441.553 1190.93C440.314 1194.39 439.99 1198.2 440.621 1201.87C441.253 1205.54 442.812 1208.91 445.101 1211.56C447.391 1214.21 450.307 1216.01 453.483 1216.74C456.658 1217.47 459.949 1217.1 462.94 1215.66C465.931 1214.23 468.488 1211.8 470.286 1208.69C472.085 1205.58 473.045 1201.92 473.045 1198.17C473.037 1193.16 471.31 1188.35 468.242 1184.8C465.174 1181.25 461.015 1179.25 456.676 1179.24Z" fill="#1100FF"/>
</g>
<g opacity="0.02">
<path opacity="0.02" d="M219.478 437.363C213.179 437.363 207.022 435.203 201.784 431.156C196.547 427.11 192.465 421.358 190.054 414.628C187.644 407.899 187.013 400.494 188.242 393.35C189.471 386.206 192.504 379.643 196.958 374.493C201.412 369.342 207.087 365.835 213.265 364.413C219.443 362.992 225.846 363.722 231.666 366.509C237.485 369.297 242.459 374.017 245.958 380.074C249.458 386.13 251.326 393.25 251.326 400.534C251.319 410.3 247.961 419.662 241.99 426.567C236.019 433.472 227.922 437.355 219.478 437.363ZM219.478 381.605C216.24 381.605 213.076 382.715 210.384 384.795C207.692 386.875 205.594 389.832 204.355 393.291C203.116 396.75 202.792 400.555 203.423 404.227C204.055 407.899 205.614 411.272 207.903 413.919C210.192 416.567 213.109 418.369 216.284 419.1C219.46 419.83 222.751 419.455 225.742 418.023C228.733 416.59 231.29 414.164 233.088 411.051C234.887 407.938 235.847 404.278 235.847 400.534C235.839 395.517 234.112 390.707 231.044 387.16C227.976 383.612 223.817 381.614 219.478 381.605Z" fill="#1100FF"/>
</g>
<g opacity="0.02">
<path opacity="0.02" d="M1730.84 583.845C1724.54 583.845 1718.38 581.685 1713.15 577.638C1707.91 573.591 1703.83 567.839 1701.42 561.11C1699.01 554.38 1698.38 546.975 1699.6 539.831C1700.83 532.687 1703.87 526.125 1708.32 520.974C1712.77 515.824 1718.45 512.316 1724.63 510.895C1730.8 509.474 1737.21 510.203 1743.03 512.991C1748.85 515.778 1753.82 520.499 1757.32 526.555C1760.82 532.612 1762.69 539.732 1762.69 547.016C1762.68 556.781 1759.32 566.144 1753.35 573.049C1747.38 579.954 1739.28 583.837 1730.84 583.845ZM1730.84 528.087C1727.6 528.087 1724.44 529.197 1721.75 531.277C1719.05 533.357 1716.96 536.313 1715.72 539.772C1714.48 543.231 1714.15 547.037 1714.79 550.709C1715.42 554.381 1716.98 557.754 1719.27 560.401C1721.55 563.048 1724.47 564.851 1727.65 565.581C1730.82 566.312 1734.11 565.937 1737.1 564.504C1740.1 563.072 1742.65 560.645 1744.45 557.532C1746.25 554.42 1747.21 550.76 1747.21 547.016C1747.2 541.998 1745.47 537.189 1742.41 533.641C1739.34 530.093 1735.18 528.096 1730.84 528.087Z" fill="#1100FF"/>
</g>
<g opacity="0.02">
<path opacity="0.02" d="M1357.04 170.25C1350.74 170.25 1344.58 168.09 1339.34 164.043C1334.1 159.996 1330.02 154.244 1327.61 147.515C1325.2 140.785 1324.57 133.38 1325.8 126.236C1327.03 119.092 1330.06 112.53 1334.52 107.379C1338.97 102.229 1344.64 98.7212 1350.82 97.3002C1357 95.8792 1363.4 96.6085 1369.22 99.396C1375.04 102.183 1380.02 106.904 1383.52 112.96C1387.02 119.017 1388.88 126.137 1388.88 133.421C1388.88 143.186 1385.52 152.549 1379.55 159.454C1373.58 166.359 1365.48 170.242 1357.04 170.25ZM1357.04 114.492C1353.8 114.492 1350.63 115.602 1347.94 117.682C1345.25 119.762 1343.15 122.719 1341.91 126.177C1340.67 129.636 1340.35 133.442 1340.98 137.114C1341.61 140.786 1343.17 144.159 1345.46 146.806C1347.75 149.453 1350.67 151.256 1353.84 151.987C1357.02 152.717 1360.31 152.342 1363.3 150.909C1366.29 149.477 1368.85 147.05 1370.65 143.938C1372.44 140.825 1373.4 137.165 1373.4 133.421C1373.4 128.404 1371.67 123.594 1368.6 120.046C1365.53 116.498 1361.37 114.501 1357.04 114.492Z" fill="#1100FF"/>
</g>
<g opacity="0.02">
<path opacity="0.02" d="M1420.37 1212.02C1414.07 1212.02 1407.91 1209.86 1402.68 1205.82C1397.44 1201.77 1393.36 1196.02 1390.95 1189.29C1388.54 1182.56 1387.91 1175.16 1389.14 1168.01C1390.36 1160.87 1393.4 1154.31 1397.85 1149.15C1402.31 1144 1407.98 1140.5 1414.16 1139.08C1420.34 1137.65 1426.74 1138.38 1432.56 1141.17C1438.38 1143.96 1443.35 1148.68 1446.85 1154.74C1450.35 1160.79 1452.22 1167.91 1452.22 1175.2C1452.21 1184.96 1448.85 1194.32 1442.88 1201.23C1436.91 1208.13 1428.82 1212.02 1420.37 1212.02ZM1420.37 1156.27C1417.13 1156.27 1413.97 1157.38 1411.28 1159.46C1408.59 1161.54 1406.49 1164.49 1405.25 1167.95C1404.01 1171.41 1403.68 1175.22 1404.32 1178.89C1404.95 1182.56 1406.51 1185.93 1408.8 1188.58C1411.09 1191.23 1414 1193.03 1417.18 1193.76C1420.35 1194.49 1423.64 1194.12 1426.64 1192.68C1429.63 1191.25 1432.18 1188.83 1433.98 1185.71C1435.78 1182.6 1436.74 1178.94 1436.74 1175.2C1436.73 1170.18 1435.01 1165.37 1431.94 1161.82C1428.87 1158.27 1424.71 1156.28 1420.37 1156.27Z" fill="#1100FF"/>
</g>
<path opacity="0.02" d="M615.806 819.332C627.466 819.332 636.918 808.402 636.918 794.919C636.918 781.435 627.466 770.505 615.806 770.505C604.146 770.505 594.694 781.435 594.694 794.919C594.694 808.402 604.146 819.332 615.806 819.332Z" fill="#0000FF"/>
<path opacity="0.02" d="M496.586 173.114C508.246 173.114 517.698 162.183 517.698 148.7C517.698 135.217 508.246 124.286 496.586 124.286C484.926 124.286 475.474 135.217 475.474 148.7C475.474 162.183 484.926 173.114 496.586 173.114Z" fill="#0000FF"/>
<path opacity="0.02" d="M1503.75 413.121C1515.41 413.121 1524.86 402.19 1524.86 388.707C1524.86 375.224 1515.41 364.293 1503.75 364.293C1492.09 364.293 1482.64 375.224 1482.64 388.707C1482.64 402.19 1492.09 413.121 1503.75 413.121Z" fill="#0000FF"/>
<path opacity="0.02" d="M142.652 717.306C154.312 717.306 163.764 706.376 163.764 692.893C163.764 679.41 154.312 668.479 142.652 668.479C130.992 668.479 121.54 679.41 121.54 692.893C121.54 706.376 130.992 717.306 142.652 717.306Z" fill="#0000FF"/>
<path opacity="0.02" d="M1793.1 880.034C1804.76 880.034 1814.22 869.104 1814.22 855.621C1814.22 842.138 1804.76 831.207 1793.1 831.207C1781.44 831.207 1771.99 842.138 1771.99 855.621C1771.99 869.104 1781.44 880.034 1793.1 880.034Z" fill="#0000FF"/>
</g>
<defs>
<linearGradient id="paint0_linear" x1="897.903" y1="3836.09" x2="967.689" y2="-4776.5" gradientUnits="userSpaceOnUse">
<stop stop-color="white"/>
<stop offset="1" stop-color="#C9E6FF"/>
</linearGradient>
<linearGradient id="paint1_linear" x1="1269.31" y1="807.816" x2="1185.27" y2="826.193" gradientUnits="userSpaceOnUse">
<stop stop-color="#F6F3FF"/>
<stop offset="1" stop-color="#E5D6FF"/>
</linearGradient>
<linearGradient id="paint2_linear" x1="1081.31" y1="853.47" x2="1081.22" y2="833.374" gradientUnits="userSpaceOnUse">
<stop stop-color="#F6F3FF"/>
<stop offset="1" stop-color="#E5D6FF"/>
</linearGradient>
</defs>
</svg>
