<svg width="732" height="33" viewBox="0 0 732 33" fill="none" xmlns="http://www.w3.org/2000/svg">
<path d="M374.836 17.4102C374.836 18.7305 374.668 19.9336 374.332 21.0195C374.004 22.0977 373.508 23.0273 372.844 23.8086C372.18 24.582 371.348 25.1797 370.348 25.6016C369.348 26.0234 368.176 26.2344 366.832 26.2344C365.465 26.2344 364.277 26.0234 363.27 25.6016C362.27 25.1797 361.438 24.5781 360.773 23.7969C360.117 23.0156 359.625 22.082 359.297 20.9961C358.969 19.9102 358.805 18.707 358.805 17.3867C358.805 15.6211 359.094 14.082 359.672 12.7695C360.258 11.4492 361.145 10.4258 362.332 9.69922C363.527 8.96484 365.035 8.59766 366.855 8.59766C368.637 8.59766 370.117 8.96094 371.297 9.6875C372.477 10.4141 373.359 11.4375 373.945 12.7578C374.539 14.0703 374.836 15.6211 374.836 17.4102ZM361.758 17.4102C361.758 18.7305 361.938 19.875 362.297 20.8438C362.656 21.8047 363.207 22.5469 363.949 23.0703C364.699 23.5859 365.66 23.8438 366.832 23.8438C368.012 23.8438 368.973 23.5859 369.715 23.0703C370.457 22.5469 371.004 21.8047 371.355 20.8438C371.707 19.875 371.883 18.7305 371.883 17.4102C371.883 15.4023 371.48 13.832 370.676 12.6992C369.879 11.5586 368.605 10.9883 366.855 10.9883C365.684 10.9883 364.719 11.2461 363.961 11.7617C363.211 12.2773 362.656 13.0156 362.297 13.9766C361.938 14.9297 361.758 16.0742 361.758 17.4102ZM384.809 12.7812C385.027 12.7812 385.266 12.793 385.523 12.8164C385.781 12.8398 386.004 12.8711 386.191 12.9102L385.934 15.4883C385.77 15.4414 385.566 15.4062 385.324 15.3828C385.09 15.3594 384.879 15.3477 384.691 15.3477C384.199 15.3477 383.73 15.4297 383.285 15.5938C382.84 15.75 382.445 15.9922 382.102 16.3203C381.758 16.6406 381.488 17.043 381.293 17.5273C381.098 18.0117 381 18.5742 381 19.2148V26H378.234V13.0273H380.391L380.766 15.3125H380.895C381.152 14.8516 381.473 14.4297 381.855 14.0469C382.238 13.6641 382.676 13.3594 383.168 13.1328C383.668 12.8984 384.215 12.7812 384.809 12.7812Z" fill="black"/>
<line x1="403" y1="14.5" x2="732" y2="14.5" stroke="black" stroke-opacity="0.2"/>
<line y1="14.5" x2="329" y2="14.5" stroke="black" stroke-opacity="0.2"/>
</svg>
