<svg width="18" height="14" viewBox="0 0 18 14" fill="none" xmlns="http://www.w3.org/2000/svg">
<path d="M17.364 7.70701C17.5515 7.51948 17.6568 7.26517 17.6568 7.00001C17.6568 6.73484 17.5515 6.48054 17.364 6.29301L11.707 0.636007C11.6148 0.540497 11.5044 0.464315 11.3824 0.411906C11.2604 0.359497 11.1292 0.33191 10.9964 0.330756C10.8636 0.329603 10.732 0.354905 10.6091 0.405185C10.4862 0.455466 10.3745 0.529719 10.2806 0.623612C10.1867 0.717505 10.1125 0.829156 10.0622 0.952053C10.0119 1.07495 9.98661 1.20663 9.98776 1.33941C9.98892 1.47219 10.0165 1.60341 10.0689 1.72541C10.1213 1.84742 10.1975 1.95776 10.293 2.05001L14.243 6.00001L1.00001 6.00001C0.734796 6.00001 0.480442 6.10536 0.292906 6.2929C0.105369 6.48044 1.30715e-05 6.73479 1.30599e-05 7.00001C1.30483e-05 7.26522 0.105369 7.51958 0.292905 7.70711C0.480442 7.89465 0.734796 8.00001 1.00001 8.00001L14.243 8.00001L10.293 11.95C10.1109 12.1386 10.0101 12.3912 10.0123 12.6534C10.0146 12.9156 10.1198 13.1664 10.3052 13.3518C10.4906 13.5372 10.7414 13.6424 11.0036 13.6447C11.2658 13.647 11.5184 13.5462 11.707 13.364L17.364 7.70701Z" fill="url(#paint0_linear_6275_51601)"/>
<defs>
<linearGradient id="paint0_linear_6275_51601" x1="1.17985e-05" y1="0.774518" x2="0.776477" y2="14.4304" gradientUnits="userSpaceOnUse">
<stop stop-color="#1400FF"/>
<stop offset="1" stop-color="#42AEFD"/>
</linearGradient>
</defs>
</svg>
