<svg width="13" height="17" viewBox="0 0 13 17" fill="none" xmlns="http://www.w3.org/2000/svg">
<path d="M6.28586 9.6054C5.72077 9.6054 5.16837 9.43783 4.69851 9.12389C4.22866 8.80994 3.86245 8.36371 3.6462 7.84164C3.42995 7.31956 3.37337 6.74509 3.48361 6.19086C3.59385 5.63663 3.86597 5.12753 4.26555 4.72795C4.66513 4.32837 5.17422 4.05626 5.72845 3.94601C6.28269 3.83577 6.85716 3.89235 7.37924 4.1086C7.90131 4.32485 8.34754 4.69106 8.66148 5.16091C8.97543 5.63077 9.143 6.18317 9.143 6.74826C9.14209 7.50574 8.84078 8.23194 8.30516 8.76756C7.76954 9.30318 7.04334 9.60449 6.28586 9.6054ZM6.28586 5.03397C5.9468 5.03397 5.61536 5.13451 5.33345 5.32288C5.05154 5.51125 4.83181 5.77898 4.70206 6.09223C4.57231 6.40547 4.53836 6.75016 4.60451 7.0827C4.67066 7.41524 4.83392 7.72069 5.07367 7.96044C5.31342 8.20019 5.61888 8.36346 5.95141 8.4296C6.28395 8.49575 6.62864 8.4618 6.94188 8.33205C7.25513 8.2023 7.52286 7.98258 7.71123 7.70066C7.8996 7.41875 8.00014 7.08731 8.00014 6.74826C7.99969 6.29374 7.81893 5.85797 7.49754 5.53658C7.17614 5.21518 6.74037 5.03443 6.28586 5.03397Z" fill="#9F9F9F"/>
<path d="M6.28572 16.5591L1.46515 10.8739C1.39817 10.7886 1.33188 10.7027 1.26629 10.6162C0.442853 9.53153 -0.00198925 8.20664 6.68736e-06 6.8448C6.68736e-06 5.17772 0.66225 3.57893 1.84105 2.40013C3.01985 1.22133 4.61865 0.559082 6.28572 0.559082C7.9528 0.559082 9.55159 1.22133 10.7304 2.40013C11.9092 3.57893 12.5714 5.17772 12.5714 6.8448C12.5734 8.20602 12.1288 9.53031 11.3057 10.6145L11.3052 10.6162C11.3052 10.6162 11.1337 10.8414 11.108 10.8717L6.28572 16.5591ZM2.17886 9.92765C2.17886 9.92765 2.31201 10.1037 2.34229 10.1414L6.28572 14.7922L10.2343 10.1351C10.2594 10.1037 10.3931 9.92651 10.3937 9.92594C11.0664 9.03972 11.4299 7.95739 11.4286 6.8448C11.4286 5.48083 10.8867 4.17272 9.92227 3.20825C8.9578 2.24377 7.64969 1.70194 6.28572 1.70194C4.92175 1.70194 3.61364 2.24377 2.64917 3.20825C1.6847 4.17272 1.14286 5.48083 1.14286 6.8448C1.14166 7.95808 1.50559 9.04103 2.17886 9.92765Z" fill="#9F9F9F"/>
</svg>
