<svg width="17" height="17" viewBox="0 0 17 17" fill="none" xmlns="http://www.w3.org/2000/svg">
<path d="M8.42105 3.55908L9.2379 6.8075L9.63368 7.74224L10.6442 7.82645L13.6253 7.7254L11.1411 9.37592L10.3747 10.0412L10.6021 11.0349L12 14.0591L9.28842 11.9865L8.42105 11.4475L7.55368 11.9696L5.5 13.5591L6.24 11.018L6.46737 10.0243L5.70105 9.35908L3.21684 7.7254L6.19789 7.80961L7.20842 7.7254L7.60421 6.79066L8.42105 3.55908ZM8.42105 0.559082L6.05474 6.14224L0 6.65592L4.59789 10.6391L3.21684 16.5591L8.42105 13.418L13.6253 16.5591L12.2442 10.6391L16.8421 6.65592L10.7874 6.14224L8.42105 0.559082Z" fill="black"/>
</svg>
