<svg width="571" height="532" viewBox="0 0 571 532" fill="none" xmlns="http://www.w3.org/2000/svg">
<g clip-path="url(#clip0_309_726)">
<path d="M156.53 28.9141H12.457V426.293H156.53V28.9141Z" fill="#F5F5F5"/>
<path d="M156.532 426.293H157.99L157.99 28.9145H156.532L156.532 426.293Z" fill="#EBEBEB"/>
<path d="M142.629 44.0723H26.3594V411.134H142.629V44.0723Z" fill="white"/>
<path d="M218.27 264.129L558.129 264.129V11.6171L218.27 11.6171L218.27 264.129Z" fill="#E6E6E6"/>
<path d="M213.011 264.129L552.869 264.129V11.6171L213.011 11.6171L213.011 264.129Z" fill="#F5F5F5"/>
<path d="M543.426 253.523V22.2227L222.45 22.2227L222.45 253.523L543.426 253.523Z" fill="white"/>
<path d="M226.428 253.525L226.428 22.2246H222.451L222.451 253.525H226.428Z" fill="#E6E6E6"/>
<path d="M216.915 204.113L548.963 204.113V189.875L216.915 189.875V204.113Z" fill="#F5F5F5"/>
<g opacity="0.4">
<path d="M234.558 0.460938H202.471V81.6138H234.558V0.460938Z" fill="#E6E6E6"/>
<path d="M234.557 75.0918H250.463V0.45919H234.557V75.0918Z" fill="#F5F5F5"/>
<path d="M282.55 0.460938H250.463V81.6138H282.55V0.460938Z" fill="#E6E6E6"/>
<path d="M282.549 75.0918H298.455V0.45919H282.549V75.0918Z" fill="#F5F5F5"/>
<path d="M330.544 0.460938H298.457V81.6138H330.544V0.460938Z" fill="#E6E6E6"/>
<path d="M330.543 75.0918H346.449V0.45919H330.543V75.0918Z" fill="#F5F5F5"/>
<path d="M378.536 0.460938H346.449V81.6138H378.536V0.460938Z" fill="#E6E6E6"/>
<path d="M378.538 75.0918H394.443V0.45919H378.538V75.0918Z" fill="#F5F5F5"/>
<path d="M426.531 0.460938H394.443V81.6138H426.531V0.460938Z" fill="#E6E6E6"/>
<path d="M426.53 75.0918H442.436V0.45919H426.53V75.0918Z" fill="#F5F5F5"/>
<path d="M474.523 0.460938H442.436V81.6138H474.523V0.460938Z" fill="#E6E6E6"/>
<path d="M474.522 75.0918H490.428V0.45919H474.522V75.0918Z" fill="#F5F5F5"/>
<path d="M522.515 0.460938H490.428V81.6138H522.515V0.460938Z" fill="#E6E6E6"/>
<path d="M522.514 75.0918H538.42V0.45919H522.514V75.0918Z" fill="#F5F5F5"/>
<path d="M570.509 0.460938H538.422V81.6138H570.509V0.460938Z" fill="#E6E6E6"/>
</g>
<path d="M223.54 464.773H263.305V316.67H223.54L223.54 464.773Z" fill="#E6E6E6"/>
<path d="M230.158 464.774H223.539V451.447H237.097L230.158 464.774Z" fill="#F0F0F0"/>
<path d="M509.672 464.773H549.438V316.67H509.672V464.773Z" fill="#E6E6E6"/>
<path d="M223.542 459.656L515.449 459.656V316.67H223.542V459.656Z" fill="#F0F0F0"/>
<path d="M228.675 362.221L510.314 362.221V323.008L228.675 323.008V362.221Z" fill="#E6E6E6"/>
<path d="M299.917 335.192H439.071C445.527 335.192 451.7 330.354 456.142 321.814H282.846C287.287 330.355 293.459 335.192 299.917 335.192Z" fill="#F0F0F0"/>
<path d="M508.83 464.774H515.448V451.447H501.891L508.83 464.774Z" fill="#F0F0F0"/>
<path d="M228.675 407.77L510.314 407.77V368.557L228.675 368.557V407.77Z" fill="#E6E6E6"/>
<path d="M299.917 380.744H439.071C445.527 380.744 451.7 375.906 456.142 367.365H282.846C287.287 375.906 293.459 380.744 299.917 380.744Z" fill="#F0F0F0"/>
<path d="M228.675 453.318L510.314 453.318V414.106L228.675 414.106V453.318Z" fill="#E6E6E6"/>
<path d="M299.917 426.293H439.071C445.527 426.293 451.7 421.455 456.142 412.916H282.846C287.287 421.455 293.459 426.293 299.917 426.293Z" fill="#F0F0F0"/>
<path d="M292.5 532.067C452.052 532.067 581.395 524.513 581.395 515.195C581.395 505.878 452.052 498.324 292.5 498.324C132.948 498.324 3.60547 505.878 3.60547 515.195C3.60547 524.513 132.948 532.067 292.5 532.067Z" fill="#F5F5F5"/>
<path d="M471.123 506.697H469.526C468.903 506.697 468.37 506.15 468.261 505.401L458.449 437.117H465.899L472.397 504.948C472.488 505.879 471.892 506.697 471.123 506.697Z" fill="#004FFF"/>
<path opacity="0.3" d="M471.123 506.697H469.526C468.903 506.697 468.37 506.15 468.261 505.401L458.449 437.117H465.899L472.397 504.948C472.488 505.879 471.892 506.697 471.123 506.697Z" fill="black"/>
<path d="M491.565 506.697H489.967C489.344 506.697 488.811 506.15 488.702 505.401L478.891 437.117H486.341L492.839 504.948C492.929 505.879 492.333 506.697 491.565 506.697Z" fill="#004FFF"/>
<path opacity="0.3" d="M491.565 506.697H489.967C489.344 506.697 488.811 506.15 488.702 505.401L478.891 437.117H486.341L492.839 504.948C492.929 505.879 492.333 506.697 491.565 506.697Z" fill="black"/>
<path d="M377.666 506.697H379.263C379.886 506.697 380.419 506.15 380.528 505.401L390.34 437.117H382.89L376.392 504.948C376.302 505.879 376.898 506.697 377.666 506.697Z" fill="#004FFF"/>
<path opacity="0.3" d="M377.666 506.697H379.263C379.886 506.697 380.419 506.15 380.528 505.401L390.34 437.117H382.89L376.392 504.948C376.302 505.879 376.898 506.697 377.666 506.697Z" fill="black"/>
<path d="M357.224 506.697H358.821C359.444 506.697 359.978 506.15 360.086 505.401L369.898 437.117H362.448L355.95 504.948C355.861 505.879 356.457 506.697 357.224 506.697Z" fill="#004FFF"/>
<path opacity="0.3" d="M357.224 506.697H358.821C359.444 506.697 359.978 506.15 360.086 505.401L369.898 437.117H362.448L355.95 504.948C355.861 505.879 356.457 506.697 357.224 506.697Z" fill="black"/>
<path d="M330.734 356.175H380.917C389.82 325.256 421.858 300.861 454.666 300.861H454.669H470.965C505.307 300.861 527.469 327.583 520.468 360.546C519.182 366.597 516.996 372.435 514.082 377.939L506.167 425.908C505.146 432.099 500.205 437.117 495.135 437.117H344.086C339.014 437.117 334.075 432.099 333.054 425.908L323.399 367.385C322.378 361.194 325.662 356.175 330.734 356.175Z" fill="#004FFF"/>
<path opacity="0.5" d="M330.734 356.175H380.917C389.82 325.256 421.858 300.861 454.666 300.861H454.669H470.965C505.307 300.861 527.469 327.583 520.468 360.546C519.182 366.597 516.996 372.435 514.082 377.939L506.167 425.908C505.146 432.099 500.205 437.117 495.135 437.117H344.086C339.014 437.117 334.075 432.099 333.054 425.908L323.399 367.385C322.378 361.194 325.662 356.175 330.734 356.175Z" fill="white"/>
<path d="M318.17 489.031L330.599 494.735C331.051 494.942 331.249 495.413 331.073 495.867L327.162 505.979C326.757 507.027 325.356 507.553 324.322 507.057C320.029 504.997 318.079 503.794 312.612 501.285C309.249 499.741 300.042 494.583 295.894 491.599C291.837 488.68 294.815 484.599 296.84 485.493C305.92 489.498 311.7 489.857 315.95 488.838C316.718 488.653 317.508 488.727 318.17 489.031Z" fill="#263238"/>
<path d="M406.3 336.68C406.3 336.68 326.84 337.668 325.612 368.989C323.848 414.011 317.199 488.762 317.199 488.762L330.599 494.733C330.599 494.733 354.075 419.719 354.914 384.559C377.208 379.006 434.729 384.606 441.488 366.282C447.017 351.291 444.027 336.68 444.027 336.68H406.3Z" fill="#004FFF"/>
<path opacity="0.2" d="M406.3 336.68C406.3 336.68 326.84 337.668 325.612 368.989C323.848 414.011 317.199 488.762 317.199 488.762L330.599 494.733C330.599 494.733 354.075 419.719 354.914 384.559C377.208 379.006 434.729 384.606 441.488 366.282C447.017 351.291 444.027 336.68 444.027 336.68H406.3Z" fill="black"/>
<path d="M423.212 254.273C422.52 257.163 421.823 259.772 421.023 262.477C420.241 265.156 419.421 267.821 418.561 270.48C416.817 275.787 414.896 281.059 412.677 286.275C410.477 291.5 408.017 296.681 405.019 301.79C403.505 304.343 401.89 306.9 399.972 309.395C398.056 311.891 395.886 314.378 393.05 316.707L392.829 316.887C392.674 317.014 392.509 317.136 392.345 317.245C390.451 318.492 388.687 318.875 387.346 319.039C385.981 319.191 384.872 319.128 383.953 319.015C382.068 318.784 380.686 318.358 379.389 317.909C376.837 317 374.743 315.957 372.721 314.877C368.709 312.718 365.149 310.3 361.654 307.846C358.189 305.354 354.855 302.777 351.616 300.098C348.396 297.373 345.241 294.682 342.169 291.719C340.36 289.975 340.308 287.095 342.051 285.286C343.513 283.77 345.772 283.487 347.53 284.462L347.603 284.503C351.119 286.452 354.667 288.519 358.225 290.441C361.768 292.402 365.301 294.34 368.839 296.154C372.349 297.991 375.913 299.695 379.309 301.098C380.992 301.786 382.682 302.379 384.056 302.687C384.723 302.838 385.343 302.915 385.506 302.881C385.607 302.88 385.534 302.821 385.187 302.845C384.859 302.878 384.112 302.973 383.072 303.639L382.368 304.177C383.636 302.979 384.981 301.309 386.225 299.426C387.47 297.536 388.687 295.482 389.816 293.32C392.065 288.975 394.075 284.29 395.931 279.5C397.767 274.696 399.483 269.781 401.073 264.807C402.691 259.883 404.163 254.714 405.507 249.891L405.558 249.709C406.91 244.857 411.938 242.021 416.788 243.372C421.526 244.689 424.338 249.532 423.212 254.273Z" fill="#263238"/>
<path d="M391.002 495.498H405.909C406.452 495.498 406.861 495.875 406.893 496.404L407.615 508.199C407.69 509.422 406.543 510.58 405.293 510.559C400.103 510.47 397.623 510.164 391.067 510.164C387.034 510.164 378.899 510.583 373.33 510.583C367.883 510.583 367.92 505.076 370.28 504.577C380.864 502.34 384.97 499.256 388.716 496.313C389.391 495.784 390.208 495.498 391.002 495.498Z" fill="#263238"/>
<path d="M427.716 336.68C427.716 336.68 355.642 342.766 357.415 374.064C359.356 408.335 391.001 495.497 391.001 495.497H405.576C405.576 495.497 393.101 415.676 388.715 380.781C409.03 380.781 456.145 384.606 462.904 366.282C468.433 351.291 465.443 336.68 465.443 336.68H427.716Z" fill="#004FFF"/>
<path d="M348.641 285.977C348.641 285.977 346.568 282.616 344.588 281.004C341.641 283.768 339.982 291.827 339.982 291.827L344.058 292.195C344.058 292.195 348.733 290.675 348.641 285.977Z" fill="#004FFF"/>
<path d="M333.682 278.736L329.046 276.723C327.802 276.182 326.349 276.645 325.647 277.808L323.453 281.445C322.819 282.492 322.968 283.835 323.816 284.72L330.179 291.358L340.79 290.929C342.011 290.879 343.109 290.178 343.665 289.09L344.891 286.697C345.658 285.198 345.238 283.319 343.833 282.391C340.394 280.114 333.682 278.736 333.682 278.736Z" fill="#FFC3BD"/>
<path d="M405.627 251.211C403.5 264.582 400.752 293.576 406.366 337.239L465.443 336.68C465.09 306.427 469.831 278.016 474.461 250.266C475.23 245.655 472.069 241.38 467.441 240.713C453.251 238.668 430.339 238.746 416.439 240.671C410.909 241.438 406.505 245.695 405.627 251.211Z" fill="#004A6F"/>
<path d="M475 246.493C476.733 250.794 478.129 254.928 479.557 259.189C480.971 263.424 482.213 267.722 483.388 272.064C484.516 276.419 485.596 280.813 486.42 285.328C487.248 289.844 487.978 294.431 488.232 299.297C488.311 300.504 488.333 301.754 488.348 303.004L488.325 304.914C488.288 306.261 488.093 308.307 486.844 310.494C486.254 311.554 485.328 312.64 484.365 313.388C483.861 313.802 483.377 314.11 482.887 314.379C482.368 314.675 481.911 314.87 481.463 315.036C479.639 315.702 478.231 315.79 477.086 315.797C474.842 315.754 473.303 315.367 471.868 314.981C469.073 314.169 466.832 313.176 464.649 312.135C462.49 311.071 460.462 309.946 458.479 308.793C450.6 304.12 443.509 298.915 436.628 293.151C434.703 291.538 434.452 288.672 436.064 286.747C437.423 285.124 439.674 284.69 441.501 285.561L441.605 285.611C449.31 289.283 457.14 293.042 464.774 296.205C466.679 296.99 468.58 297.726 470.429 298.34C472.253 298.971 474.09 299.514 475.52 299.732C476.197 299.842 476.815 299.829 476.747 299.763C476.687 299.745 476.371 299.687 475.562 299.964C475.37 300.037 475.163 300.128 474.874 300.276C474.625 300.414 474.372 300.581 474.066 300.809C473.533 301.228 472.965 301.885 472.625 302.466C471.913 303.701 471.879 304.64 471.856 304.907L471.772 303.558C471.69 302.64 471.611 301.718 471.475 300.763C470.456 293.122 468.301 284.985 465.913 276.987C463.518 268.995 460.78 260.824 457.989 253.061L457.961 252.983C456.258 248.244 458.718 243.021 463.457 241.317C468.082 239.655 473.174 241.977 475 246.493Z" fill="#263238"/>
<path d="M451.381 210.752L444.234 216.679L434.503 224.761C434.787 226.077 435.009 227.409 435.121 228.692C435.586 233.39 434.558 237.711 428.847 239.899C426.69 240.726 424.813 242.303 424.132 244.509C423.362 247.007 424.272 249.781 432.113 249.78C443.624 249.777 449.638 244.658 451.901 242.137C452.539 241.427 452.548 240.381 451.998 239.601C447.439 233.132 449.522 218.829 451.381 210.752Z" fill="#FFC3BD"/>
<path d="M431.831 247.246C431.831 247.246 432.597 248.075 432.828 249.272C433.427 248.259 434.987 247.246 434.987 247.246C434.987 247.246 438.405 248.766 439.115 252.081C436.925 251.943 432.919 249.778 432.919 249.778C432.919 249.778 430.846 250.976 428.773 251.068C428.867 248.489 431.831 247.246 431.831 247.246Z" fill="#004FFF"/>
<path d="M434.986 247.246C438.3 250.979 438.93 255.934 438.93 255.934C438.93 255.934 458.005 251.168 457.11 238.735C455.505 237.722 451.822 237.111 451.822 237.111C451.822 237.111 447.72 244.558 434.986 247.246Z" fill="#004FFF"/>
<path d="M431.832 247.245C428.518 250.978 427.633 255.933 427.633 255.933C427.633 255.933 417.85 247.029 427.38 238.837C429.056 238.147 432.422 237.779 432.422 237.779C432.422 237.779 426.091 242.915 431.832 247.245Z" fill="#004FFF"/>
<path opacity="0.2" d="M434.504 224.759C434.788 226.075 435.011 227.407 435.122 228.69C438.752 227.96 443.6 224.093 444.107 220.386C444.298 218.992 444.329 217.645 444.234 216.678L434.504 224.759Z" fill="black"/>
<path d="M424.062 185.085C415.089 191.447 420.11 206.373 427.763 200.662C435.417 194.95 431.375 179.9 424.062 185.085Z" fill="#263238"/>
<path d="M454.329 198.374C451.845 209.8 450.972 216.591 444.224 221.805C434.074 229.647 420.622 222.679 419.636 210.864C418.748 200.228 422.96 183.331 434.98 180.097C446.819 176.91 456.813 186.949 454.329 198.374Z" fill="#FFC3BD"/>
<path d="M449.039 189.908C442.705 188.157 426.375 192.314 420.577 186.131C414.359 179.499 423.432 176.274 426.103 178.578C422.718 174.71 423.983 170.565 428.775 170.933C432.269 171.201 433.384 175.078 433.384 175.078C433.384 175.078 432.8 168.303 438.812 168.769C444.271 169.192 444.287 176.553 444.287 176.553C444.287 176.553 457.318 172.868 461.659 185.304C469.857 185.119 469.673 202.375 453.186 208.515C446.491 205.198 446.183 193.427 449.039 189.908Z" fill="#263238"/>
<path d="M459.907 187.791C459.12 187.791 458.421 187.228 458.277 186.426C458.114 185.526 458.71 184.666 459.607 184.501C459.756 184.456 460.199 184.093 460.567 183.291C460.956 182.449 461.206 181.192 460.747 180.187C460.367 179.353 460.735 178.371 461.568 177.99C462.399 177.605 463.384 177.978 463.766 178.811C464.76 180.992 464.232 183.453 463.407 185.031C462.616 186.544 461.447 187.54 460.203 187.762C460.103 187.782 460.005 187.791 459.907 187.791Z" fill="#263238"/>
<path d="M456.187 208.967C454.511 211.168 452.06 212.475 449.913 212.853C446.683 213.422 445.701 210.451 447.13 207.565C448.416 204.968 451.644 201.543 454.63 202.285C457.573 203.015 458.104 206.451 456.187 208.967Z" fill="#FFC3BD"/>
<path d="M434.762 199.419C434.618 200.356 434.002 201.056 433.387 200.983C432.771 200.91 432.39 200.091 432.534 199.154C432.679 198.217 433.294 197.516 433.91 197.589C434.525 197.664 434.907 198.482 434.762 199.419Z" fill="#263238"/>
<path d="M424.127 198.157C423.983 199.094 423.367 199.795 422.752 199.722C422.137 199.649 421.755 198.829 421.9 197.892C422.044 196.955 422.66 196.254 423.275 196.327C423.89 196.401 424.272 197.22 424.127 198.157Z" fill="#263238"/>
<path d="M427.367 198.531C427.367 198.531 425.135 203.077 422.926 205.212C424.237 206.613 426.713 206.132 426.713 206.132L427.367 198.531Z" fill="#ED847E"/>
<path d="M431.065 210.948C434.799 210.948 436.885 208.621 436.98 208.512C437.081 208.397 437.069 208.222 436.955 208.12C436.84 208.018 436.664 208.031 436.563 208.146C436.539 208.172 434.165 210.825 430.029 210.329C429.876 210.309 429.739 210.419 429.721 210.573C429.703 210.725 429.812 210.863 429.965 210.881C430.343 210.927 430.712 210.948 431.065 210.948Z" fill="#263238"/>
<path d="M439.038 194.018C439.128 193.998 439.212 193.955 439.285 193.891C439.515 193.687 439.536 193.335 439.332 193.106C437.31 190.834 434.76 191.246 434.655 191.266C434.364 191.287 434.148 191.606 434.202 191.909C434.254 192.212 434.541 192.415 434.844 192.362C434.95 192.346 436.912 192.061 438.5 193.846C438.639 194.001 438.847 194.06 439.038 194.018Z" fill="#263238"/>
<path d="M420.329 193.407C420.501 193.456 420.691 193.422 420.839 193.3C422.785 191.682 424.786 192.217 424.805 192.223C425.102 192.306 425.409 192.133 425.491 191.837C425.574 191.542 425.403 191.236 425.108 191.151L425.105 191.15C425 191.12 422.517 190.455 420.127 192.443C419.89 192.64 419.858 192.99 420.054 193.227C420.13 193.318 420.226 193.377 420.329 193.407Z" fill="#263238"/>
<path d="M439.723 277.842L433.203 273.79C431.247 272.574 428.672 273.191 427.481 275.165L426.714 276.437C425.786 277.975 425.957 279.936 427.136 281.289L431.635 286.455C431.635 286.455 435.551 295.585 440.091 293.174L443.554 287.174L439.723 277.842Z" fill="#FFC3BD"/>
<path d="M446.44 289.518C446.44 289.518 444.8 285.485 443.033 283.443C439.758 286.249 437.105 295.193 437.105 295.193L441.111 296.056C441.111 296.056 445.946 294.846 446.44 289.518Z" fill="#004FFF"/>
<path d="M496.378 356.174H419.022C413.95 356.174 410.667 361.192 411.688 367.383L421.343 425.906C422.365 432.097 427.303 437.115 432.375 437.115H486.8L496.378 356.174Z" fill="#004FFF"/>
<path opacity="0.5" d="M496.378 356.174H419.022C413.95 356.174 410.667 361.192 411.688 367.383L421.343 425.906C422.365 432.097 427.303 437.115 432.375 437.115H486.8L496.378 356.174Z" fill="white"/>
<path d="M139.452 511.717H141.684C142.444 511.717 143.076 511.076 143.131 510.247L155.425 325.654H146.191L138.004 510.055C137.963 510.96 138.624 511.717 139.452 511.717Z" fill="#004FFF"/>
<path opacity="0.3" d="M139.452 511.717H141.684C142.444 511.717 143.076 511.076 143.131 510.247L155.425 325.654H146.191L138.004 510.055C137.963 510.96 138.624 511.717 139.452 511.717Z" fill="white"/>
<path d="M114.116 511.717H116.348C117.108 511.717 117.74 511.076 117.795 510.247L130.089 325.654H120.855L112.668 510.055C112.628 510.96 113.288 511.717 114.116 511.717Z" fill="#004FFF"/>
<path opacity="0.3" d="M114.116 511.717H116.348C117.108 511.717 117.74 511.076 117.795 510.247L130.089 325.654H120.855L112.668 510.055C112.628 510.96 113.288 511.717 114.116 511.717Z" fill="white"/>
<path d="M426.49 511.717H424.258C423.498 511.717 422.867 511.076 422.812 510.247L410.518 325.654H419.751L427.939 510.055C427.98 510.96 427.319 511.717 426.49 511.717Z" fill="#004FFF"/>
<path opacity="0.3" d="M426.49 511.717H424.258C423.498 511.717 422.867 511.076 422.812 510.247L410.518 325.654H419.751L427.939 510.055C427.98 510.96 427.319 511.717 426.49 511.717Z" fill="white"/>
<path d="M451.826 511.717H449.594C448.834 511.717 448.203 511.076 448.148 510.247L435.854 325.654H445.087L453.275 510.055C453.315 510.96 452.655 511.717 451.826 511.717Z" fill="#004FFF"/>
<path opacity="0.3" d="M451.826 511.717H449.594C448.834 511.717 448.203 511.076 448.148 510.247L435.854 325.654H445.087L453.275 510.055C453.315 510.96 452.655 511.717 451.826 511.717Z" fill="white"/>
<path d="M462.481 321.857H102.941V325.652H462.481V321.857Z" fill="#004FFF"/>
<path d="M96.9492 263.057L93.555 288.043C92.4837 296.363 91.3647 304.704 90.5631 312.895C90.4498 313.924 90.3753 314.93 90.2919 315.942L90.1682 317.459C90.1786 317.347 90.1697 316.946 90.1161 316.714C90.0922 316.472 90.0162 316.211 89.9432 316.004C89.8941 315.823 89.7898 315.617 89.7197 315.483C89.6676 315.364 89.5707 315.228 89.5126 315.146C89.2489 314.808 89.2206 314.853 89.2906 314.926C89.3487 315.009 89.5603 315.173 89.7972 315.35C90.2978 315.712 91.0026 316.121 91.7715 316.505C94.9332 318.052 98.8415 319.369 102.713 320.565C110.531 322.937 118.733 324.989 126.836 326.987L125.919 334.105C117.247 333.798 108.735 332.992 100.08 331.43C95.7363 330.605 91.4377 329.702 86.8008 327.924C85.6297 327.462 84.4272 326.939 83.1205 326.199C82.4604 325.817 81.7885 325.39 81.0405 324.788C80.3029 324.18 79.5028 323.484 78.6624 322.252C78.2467 321.631 77.8444 320.883 77.536 319.972C77.384 319.513 77.2678 318.989 77.1829 318.491C77.1143 317.996 77.0875 317.33 77.095 316.955L77.1322 315.301C77.1575 314.198 77.1754 313.09 77.2291 312.008C77.5822 303.302 78.3644 294.808 79.2927 286.313C80.2001 277.819 81.2833 269.402 82.6154 260.941L96.9492 263.057Z" fill="#7F3E3B"/>
<path d="M145.596 334.504L140.132 339.497C138.857 340.663 137.002 340.935 135.445 340.186L129.406 337.279C129.406 337.279 120.451 336.909 119.174 331.438L121.489 327.187L135.361 325.645C136.787 325.487 138.225 325.806 139.448 326.554L145.165 330.045C146.76 331.018 146.974 333.245 145.596 334.504Z" fill="#7F3E3B"/>
<path d="M112.88 211.721C114.297 220.291 115.499 235.953 109.369 241.461C109.369 241.461 124.332 249.296 134.143 262.969C144.637 254.655 135.849 242.249 135.849 242.249C126.416 239.698 126.871 232.655 128.723 226.084L112.88 211.721Z" fill="#7F3E3B"/>
<path d="M140.881 247.519C140.881 247.519 140.091 240.252 136.125 236.66C132.793 233.641 115.308 235.319 109.801 235.933C108.764 236.047 107.869 236.691 107.419 237.631L103.424 245.975L140.881 247.519Z" fill="#004FFF"/>
<path opacity="0.8" d="M140.881 247.519C140.881 247.519 140.091 240.252 136.125 236.66C132.793 233.641 115.308 235.319 109.801 235.933C108.764 236.047 107.869 236.691 107.419 237.631L103.424 245.975L140.881 247.519Z" fill="white"/>
<path d="M92.4365 243.692C81.6474 247.202 79.329 261.667 80.3005 272.926L102.077 286.321C102.077 286.321 107.365 269.88 107.32 261.103C107.272 251.759 99.7628 241.308 92.4365 243.692Z" fill="#004FFF"/>
<path d="M96.6538 283.04C96.1323 283.04 95.6108 282.832 95.2234 282.459C95.134 282.355 95.0446 282.249 94.985 282.146C94.9105 282.042 94.836 281.923 94.7913 281.789C94.7481 281.669 94.7019 281.55 94.6721 281.416C94.6423 281.282 94.6289 281.163 94.6289 281.029C94.6289 280.492 94.8509 279.971 95.2234 279.598C95.9833 278.837 97.3392 278.837 98.0842 279.598C98.4567 279.971 98.6802 280.492 98.6802 281.029C98.6802 281.163 98.6653 281.282 98.6355 281.416C98.6057 281.55 98.5759 281.669 98.5163 281.789C98.4731 281.923 98.4135 282.042 98.3375 282.146C98.263 282.249 98.1751 282.355 98.0842 282.459C97.7117 282.832 97.1902 283.04 96.6538 283.04Z" fill="white"/>
<path d="M92.4682 281.668C92.4682 281.668 92.4682 281.668 92.4831 281.668C91.7083 281.37 91.2166 280.64 91.1868 279.851C90.6057 280.372 89.7564 280.536 88.9965 280.178C88.2515 279.836 87.8045 279.076 87.8194 278.301C87.2085 278.793 86.3443 278.896 85.6142 278.495C84.8856 278.107 84.4967 277.333 84.5563 276.558C83.9156 277.005 83.0514 277.064 82.3377 276.632C81.3826 276.066 81.0846 274.814 81.6523 273.861C82.2334 272.907 83.485 272.594 84.4371 273.175C85.1076 273.593 85.4518 274.338 85.4056 275.068C86.0016 274.636 86.8211 274.561 87.5214 274.934C88.2068 275.306 88.6091 276.02 88.5942 276.765C89.1619 276.304 89.9814 276.184 90.6951 276.512C91.4103 276.839 91.8439 277.54 91.8722 278.27C92.4235 277.794 93.2132 277.616 93.9582 277.897C94.9848 278.314 95.5078 279.492 95.0906 280.521C94.7777 281.324 94.0178 281.801 93.2132 281.801C92.9599 281.803 92.7215 281.756 92.4682 281.668Z" fill="white"/>
<path d="M80.3091 274.949C80.175 274.949 80.0409 274.934 79.9054 274.904C79.7713 274.875 79.6521 274.845 79.5329 274.785C79.3988 274.741 79.2796 274.681 79.1767 274.606C79.0724 274.532 78.9667 274.444 78.8787 274.353C78.7744 274.264 78.6999 274.159 78.6254 274.055C78.5509 273.936 78.4913 273.818 78.4317 273.699C78.387 273.58 78.3409 273.446 78.3125 273.327C78.2976 273.191 78.2812 273.057 78.2812 272.923C78.2812 272.789 78.2976 272.655 78.3125 272.535C78.3423 272.401 78.387 272.282 78.4317 272.148C78.475 272.029 78.5509 271.91 78.6254 271.805C78.6999 271.701 78.7744 271.597 78.8787 271.492C78.9681 271.403 79.0724 271.314 79.1767 271.239C79.2796 271.179 79.3988 271.105 79.5329 271.06C79.6521 271.016 79.7713 270.971 79.9054 270.941C80.5624 270.822 81.2613 271.032 81.7246 271.492C81.8275 271.597 81.9034 271.701 81.9779 271.805C82.0524 271.91 82.112 272.029 82.1716 272.148C82.2163 272.282 82.2611 272.401 82.276 272.535C82.3058 272.655 82.3192 272.789 82.3192 272.923C82.3192 273.057 82.3043 273.191 82.276 273.327C82.2596 273.446 82.2163 273.58 82.1716 273.699C82.112 273.818 82.0524 273.936 81.9779 274.055C81.9034 274.159 81.8275 274.265 81.7246 274.353C81.3521 274.726 80.8292 274.949 80.3091 274.949Z" fill="white"/>
<path d="M161.033 264.714C160.121 277.107 157.363 297.977 150.572 333.11L92.2534 331.375C93.7836 309.848 91.4741 293.796 86.198 256.12C85.2355 249.244 90.1793 242.956 97.0869 242.244C100.831 241.858 105.084 241.539 109.368 241.46C119.196 241.278 127.245 241.205 135.849 242.248C138.691 242.594 141.626 243.041 144.429 243.519C154.601 245.256 161.79 254.424 161.033 264.714Z" fill="#004FFF"/>
<path d="M143.052 195.943C143.189 197.093 143.912 197.953 144.663 197.862C145.414 197.771 145.913 196.767 145.774 195.615C145.636 194.465 144.915 193.605 144.164 193.696C143.413 193.787 142.915 194.793 143.052 195.943Z" fill="#263238"/>
<path d="M143.842 193.802L146.509 192.674C146.509 192.674 145.351 195.003 143.842 193.802Z" fill="#263238"/>
<path d="M143.451 197.727C143.451 197.727 145.998 202.445 148.432 204.578C147.084 206.178 144.423 205.838 144.423 205.838L143.451 197.727Z" fill="#630F0F"/>
<path d="M143.194 185.856C143.323 185.664 143.35 185.409 143.244 185.184C143.083 184.844 142.677 184.7 142.337 184.861C138.938 186.474 138.479 189.584 138.461 189.715C138.411 190.088 138.671 190.43 139.044 190.481C139.415 190.532 139.758 190.272 139.81 189.901C139.825 189.799 140.206 187.38 142.921 186.091C143.036 186.036 143.128 185.953 143.194 185.856Z" fill="#263238"/>
<path d="M103.367 195.681C105.928 209.706 106.712 215.698 114.718 222.094C126.76 231.717 143.425 225.503 145.108 210.995C146.621 197.937 142.178 177.194 127.675 173.228C113.384 169.323 100.805 181.656 103.367 195.681Z" fill="#7F3E3B"/>
<path d="M134.254 199.609C136.619 207.316 142.252 225.948 129.806 230.096C120.071 233.341 89.5882 235.937 86.0792 218.076C82.4496 199.608 98.9171 186.465 98.9171 186.465C98.9171 186.465 85.8706 175.763 94.2295 164.109C105.004 149.083 130.799 157.579 138.456 168.196C145.898 178.514 134.254 199.609 134.254 199.609Z" fill="#263238"/>
<path d="M110.662 232.659C105.67 232.659 99.4792 231.64 94.3804 229.447C87.4579 226.465 83.417 221.858 82.6959 216.125C80.2493 196.649 98.3721 185.946 98.5569 185.842L99.2781 187.09C99.1037 187.192 81.8019 197.431 84.1278 215.944C84.9532 222.512 90.4692 226.193 94.9511 228.122C103.799 231.932 115.229 231.911 118.003 229.877L118.855 231.041C117.411 232.097 114.367 232.659 110.662 232.659Z" fill="#263238"/>
<path d="M93.3081 183.67C93.1442 186.161 91.0776 189.584 99.7151 190.87C108.353 192.157 120.353 192.035 122.816 189.956C125.278 187.879 127.706 182.912 122.555 183.356C117.403 183.801 93.5867 179.412 93.3081 183.67Z" fill="#004FFF"/>
<path d="M129.54 201.807C131.017 204.613 133.651 206.476 136.153 207.209C139.915 208.31 141.845 204.957 140.839 201.381C139.935 198.163 136.888 193.711 133.093 194.179C129.354 194.639 127.852 198.599 129.54 201.807Z" fill="#7F3E3B"/>
<path d="M220.445 496.302L234.272 496.039L227.577 461.523L213.75 461.786L220.445 496.302Z" fill="#7F3E3B"/>
<path d="M230.814 481.273C234.471 495.048 247.914 509.631 247.914 509.631L228.728 504.756L220.342 492.84L221.809 489.686L230.814 481.273Z" fill="#7F3E3B"/>
<path d="M217.187 487.678C217.129 489.208 217.245 490.951 217.465 492.498C218.274 498.196 220.79 513.3 220.79 513.3L222.092 513.309C222.092 513.309 220.858 503.141 221.037 499.394C221.216 495.646 223.634 502.272 226.554 506.02C229.475 509.769 234.733 513.181 243.239 513.446C253.2 513.757 257.168 513.339 253.976 510.852C250.785 508.365 243.998 506.742 243.998 506.742C243.998 506.742 236.162 503.928 230.561 495.506C226.928 490.045 220.842 486.095 218.2 484.812C217.401 484.954 217.233 486.462 217.187 487.678Z" fill="#263238"/>
<path d="M269.415 449.416L287.065 449.961L267.324 420.611L255.102 431.058L269.415 449.416Z" fill="#7F3E3B"/>
<path d="M273.605 436.953C286.428 442.927 306.968 441.751 306.968 441.751L290.273 455.146L275.955 454.085L274.443 450.904L273.605 436.953Z" fill="#7F3E3B"/>
<path d="M270.891 452.171C271.979 453.263 273.331 454.366 274.603 455.251C279.286 458.513 291.929 466.869 291.929 466.869L292.739 465.849C292.739 465.849 284.511 459.863 281.87 457.158C279.229 454.454 285.587 457.085 290.142 457.352C294.699 457.62 300.45 455.819 305.899 449.309C312.278 441.688 314.422 438.28 310.625 439.089C306.829 439.898 301.445 444.127 301.445 444.127C301.445 444.127 294.539 448.364 284.897 447.008C278.645 446.129 271.987 448.214 269.412 449.415C269.024 450.14 270.027 451.303 270.891 452.171Z" fill="#263238"/>
<path d="M130.236 332.093C130.236 332.093 224.65 318.127 234.424 342.328C251.431 384.435 275.447 432.683 275.447 432.683L263.85 442.276C263.85 442.276 222.686 404.169 208.041 361.865C190.549 367.524 134.898 385.735 114.515 385.735C92.7444 385.735 83.8536 367.174 91.7163 336.353C92.4166 333.605 94.9213 331.701 97.7567 331.716C111.462 331.783 130.236 332.093 130.236 332.093Z" fill="#263238"/>
<path d="M139.286 344.388C139.286 344.388 216.773 342.054 217.427 369.508C218.509 414.906 231.304 479.96 231.304 479.96L217.17 481.275C217.17 481.275 194.061 429.529 187.948 385.181C160.345 386.972 134.898 385.735 114.514 385.735C91.6713 385.735 89.7835 360.648 112.019 331.377C125.609 331.377 139.286 344.388 139.286 344.388Z" fill="#263238"/>
<path d="M91.4829 327.926L89.8365 333.102C89.6204 333.502 90.0883 333.928 90.7617 333.949L150.783 335.734C151.309 335.749 151.752 335.504 151.795 335.175L152.476 329.97C152.524 329.61 152.077 329.29 151.502 329.273L92.4454 327.516C92.0119 327.503 91.623 327.668 91.4829 327.926Z" fill="white"/>
<path d="M99.2188 334.766L97.6364 334.718C97.322 334.71 97.0866 334.54 97.1134 334.341L98.0566 327.581C98.0834 327.383 98.365 327.23 98.6794 327.239L100.262 327.285C100.576 327.294 100.812 327.464 100.785 327.662L99.8416 334.422C99.8148 334.622 99.5347 334.775 99.2188 334.766Z" fill="#263238"/>
<path d="M146.323 336.167L144.742 336.119C144.427 336.11 144.192 335.94 144.219 335.742L145.162 328.982C145.19 328.784 145.47 328.63 145.785 328.639L147.367 328.685C147.682 328.694 147.917 328.864 147.89 329.062L146.947 335.822C146.919 336.022 146.639 336.175 146.323 336.167Z" fill="#263238"/>
<path d="M122.772 335.467L121.191 335.42C120.877 335.411 120.641 335.241 120.668 335.043L121.611 328.283C121.638 328.084 121.92 327.931 122.234 327.94L123.816 327.988C124.131 327.996 124.366 328.166 124.339 328.364L123.396 335.125C123.367 335.323 123.086 335.476 122.772 335.467Z" fill="#263238"/>
<path d="M194.644 269.896H232.34C233.543 269.896 234.411 271.051 234.074 272.207L219.987 320.555C219.762 321.325 219.056 321.856 218.253 321.856H180.558C179.354 321.856 178.486 320.701 178.823 319.545L192.91 271.197C193.135 270.425 193.841 269.896 194.644 269.896Z" fill="#004FFF"/>
<path d="M195.341 271.67L231.977 272.539L217.511 318.14L180.873 317.27L195.341 271.67Z" fill="#E0E0E0"/>
<path d="M194.188 271.223L230.834 271.375L217.262 317.249L180.615 317.097L194.188 271.223Z" fill="white"/>
<path d="M161.146 272.172C161.219 273.625 161.358 275.432 161.49 277.083C161.638 278.771 161.822 280.461 162.046 282.141C162.463 285.507 163.022 288.839 163.713 292.093C164.43 295.337 165.275 298.518 166.374 301.489C166.923 302.978 167.528 304.415 168.192 305.773C168.514 306.467 168.879 307.108 169.24 307.752L169.783 308.668C169.737 308.607 169.673 308.604 169.724 308.656C169.827 308.89 170.879 309.563 172.097 310.045C173.346 310.551 174.838 310.976 176.39 311.329C179.515 312.047 182.915 312.515 186.354 312.868C193.236 313.539 200.425 313.873 207.47 314.017L208.181 321.157C200.825 322.576 193.537 323.471 185.968 323.668C182.185 323.753 178.358 323.686 174.352 323.191C172.345 322.924 170.296 322.568 168.113 321.93C165.933 321.242 163.581 320.455 160.985 318.252C160.35 317.712 159.704 317.012 159.115 316.23L158.156 314.889C157.555 314.004 156.961 313.11 156.442 312.204C155.357 310.398 154.438 308.55 153.63 306.689C151.988 302.969 150.756 299.202 149.783 295.419C148.797 291.64 148.086 287.845 147.566 284.043C147.317 282.138 147.115 280.234 146.952 278.321C146.782 276.371 146.683 274.569 146.66 272.409L161.146 272.172Z" fill="#7F3E3B"/>
<path d="M156.243 250.199C165.625 259.033 163.365 282.056 163.365 282.056L145.387 285.199C145.387 285.199 134.288 268.693 138.188 261.771C142.252 254.563 151.166 245.419 156.243 250.199Z" fill="#004FFF"/>
<path d="M163.361 284.084C162.838 284.084 162.303 283.86 161.931 283.488C161.84 283.398 161.752 283.294 161.677 283.175C161.618 283.072 161.542 282.953 161.499 282.834C161.454 282.714 161.408 282.58 161.379 282.445C161.365 282.327 161.35 282.191 161.35 282.057C161.35 281.522 161.56 280.999 161.932 280.627C162.035 280.538 162.126 280.448 162.245 280.374C162.348 280.299 162.467 280.24 162.588 280.195C162.722 280.135 162.841 280.105 162.975 280.076C163.617 279.942 164.316 280.165 164.795 280.627C165.167 280.999 165.39 281.522 165.39 282.057C165.39 282.191 165.376 282.327 165.347 282.445C165.316 282.58 165.288 282.714 165.228 282.834C165.183 282.953 165.124 283.072 165.049 283.175C164.975 283.294 164.885 283.398 164.796 283.488C164.419 283.859 163.896 284.084 163.361 284.084Z" fill="white"/>
<path d="M147.03 285.156C146.939 284.039 147.759 283.056 148.876 282.966C149.651 282.892 150.383 283.279 150.769 283.92C151.007 283.219 151.618 282.668 152.393 282.549C153.169 282.445 153.914 282.787 154.346 283.398C154.54 282.683 155.121 282.102 155.879 281.953C156.654 281.789 157.414 282.102 157.876 282.682C158.027 281.953 158.578 281.34 159.336 281.132V281.148C160.424 280.85 161.527 281.504 161.81 282.579C162.093 283.651 161.452 284.769 160.363 285.051C159.575 285.261 158.755 284.961 158.263 284.35C158.1 285.11 157.502 285.738 156.683 285.915C155.878 286.065 155.073 285.721 154.626 285.08C154.418 285.84 153.793 286.436 152.972 286.556C152.153 286.675 151.365 286.272 150.961 285.617C150.708 286.345 150.052 286.912 149.218 286.988C149.158 286.988 149.113 286.988 149.054 286.988C148.014 286.989 147.133 286.199 147.03 285.156Z" fill="white"/>
<path d="M145.392 287.228C145.258 287.228 145.124 287.211 144.99 287.183C144.856 287.153 144.737 287.109 144.617 287.064C144.483 287.019 144.379 286.945 144.26 286.885C144.155 286.811 144.051 286.721 143.962 286.632C143.859 286.541 143.783 286.438 143.708 286.319C143.634 286.215 143.574 286.095 143.515 285.976C143.47 285.842 143.425 285.723 143.41 285.589C143.381 285.47 143.367 285.335 143.367 285.201C143.367 285.067 143.382 284.933 143.41 284.798C143.427 284.678 143.47 284.544 143.515 284.425C143.574 284.306 143.634 284.188 143.708 284.069C143.783 283.965 143.859 283.859 143.962 283.771C144.053 283.682 144.155 283.592 144.26 283.518C144.379 283.443 144.483 283.384 144.617 283.339C144.737 283.279 144.856 283.248 144.99 283.22C145.644 283.086 146.346 283.294 146.808 283.771C146.912 283.86 146.986 283.965 147.061 284.069C147.135 284.188 147.195 284.306 147.255 284.425C147.299 284.544 147.346 284.678 147.374 284.798C147.389 284.933 147.405 285.067 147.405 285.201C147.405 285.335 147.389 285.47 147.374 285.589C147.344 285.723 147.299 285.842 147.255 285.976C147.195 286.095 147.135 286.215 147.061 286.319C146.986 286.423 146.912 286.541 146.808 286.632C146.435 287.004 145.914 287.228 145.392 287.228Z" fill="white"/>
<path d="M224.258 306.565L218.037 306.145C216.484 306.04 214.942 306.453 213.651 307.322L202.219 315L202.133 319.839C205.795 324.099 213.907 320.285 213.907 320.285L221.43 320.043C222.659 320.005 223.739 319.221 224.161 318.066L226.883 310.598C227.57 308.715 226.257 306.7 224.258 306.565Z" fill="#7F3E3B"/>
<path d="M95.2061 518.424H96.8943C97.5529 518.424 98.1176 517.846 98.2308 517.055L108.601 444.881H100.727L93.8592 516.577C93.7638 517.56 94.3941 518.424 95.2061 518.424Z" fill="#004FFF"/>
<path opacity="0.3" d="M95.2061 518.424H96.8943C97.5529 518.424 98.1176 517.846 98.2308 517.055L108.601 444.881H100.727L93.8592 516.577C93.7638 517.56 94.3941 518.424 95.2061 518.424Z" fill="black"/>
<path d="M73.6004 518.424H75.2886C75.9471 518.424 76.5103 517.846 76.6251 517.055L86.9955 444.881H79.1208L72.2534 516.577C72.1596 517.56 72.7898 518.424 73.6004 518.424Z" fill="#004FFF"/>
<path opacity="0.3" d="M73.6004 518.424H75.2886C75.9471 518.424 76.5103 517.846 76.6251 517.055L86.9955 444.881H79.1208L72.2534 516.577C72.1596 517.56 72.7898 518.424 73.6004 518.424Z" fill="black"/>
<path d="M193.989 518.424H192.301C191.642 518.424 191.077 517.846 190.964 517.055L180.594 444.881H188.468L195.336 516.577C195.431 517.56 194.801 518.424 193.989 518.424Z" fill="#004FFF"/>
<path opacity="0.3" d="M193.989 518.424H192.301C191.642 518.424 191.077 517.846 190.964 517.055L180.594 444.881H188.468L195.336 516.577C195.431 517.56 194.801 518.424 193.989 518.424Z" fill="black"/>
<path d="M215.596 518.424H213.908C213.25 518.424 212.686 517.846 212.572 517.055L202.201 444.881H210.076L216.943 516.577C217.039 517.56 216.408 518.424 215.596 518.424Z" fill="#004FFF"/>
<path opacity="0.3" d="M215.596 518.424H213.908C213.25 518.424 212.686 517.846 212.572 517.055L202.201 444.881H210.076L216.943 516.577C217.039 517.56 216.408 518.424 215.596 518.424Z" fill="black"/>
<path d="M243.596 359.325H190.552C181.141 326.644 147.277 300.859 112.599 300.859H112.595H95.3704C59.071 300.859 35.6452 329.104 43.0475 363.944C44.4064 370.341 46.7174 376.511 49.7972 382.328L58.1621 433.031C59.2423 439.575 64.4633 444.88 69.8228 444.88H229.479C234.84 444.88 240.061 439.575 241.14 433.031L251.347 371.172C252.428 364.63 248.958 359.325 243.596 359.325Z" fill="#004FFF"/>
<path opacity="0.5" d="M243.596 359.325H190.552C181.141 326.644 147.277 300.859 112.599 300.859H112.595H95.3704C59.071 300.859 35.6452 329.104 43.0475 363.944C44.4064 370.341 46.7174 376.511 49.7972 382.328L58.1621 433.031C59.2423 439.575 64.4633 444.88 69.8228 444.88H229.479C234.84 444.88 240.061 439.575 241.14 433.031L251.347 371.172C252.428 364.63 248.958 359.325 243.596 359.325Z" fill="white"/>
<path d="M236.673 121.699H224.504V123.189H236.673V121.699Z" fill="#004FFF"/>
<path d="M179.74 139.259H178.25V131.929C178.25 126.289 182.839 121.701 188.479 121.701H215.642V123.191H188.479C183.66 123.191 179.74 127.111 179.74 131.929V139.259Z" fill="#004FFF"/>
<path d="M324.328 190.215H188.481C185.712 190.215 183.467 187.97 183.467 185.201V131.928C183.467 129.16 185.712 126.914 188.481 126.914H324.328C327.097 126.914 329.342 129.16 329.342 131.928V185.201C329.342 187.97 327.097 190.215 324.328 190.215Z" fill="#004FFF"/>
<path d="M317.904 161.933H194.904C193.043 161.933 191.535 160.425 191.535 158.564C191.535 156.703 193.043 155.195 194.904 155.195H317.904C319.765 155.195 321.272 156.703 321.272 158.564C321.272 160.425 319.765 161.933 317.904 161.933Z" fill="white"/>
<path d="M291.581 175.923H194.904C193.043 175.923 191.535 174.415 191.535 172.554C191.535 170.693 193.043 169.186 194.904 169.186H291.581C293.442 169.186 294.95 170.693 294.95 172.554C294.949 174.415 293.441 175.923 291.581 175.923Z" fill="white"/>
<path d="M236.382 147.943H194.902C193.041 147.943 191.533 146.435 191.533 144.574C191.533 142.713 193.041 141.205 194.902 141.205H236.382C238.243 141.205 239.751 142.713 239.751 144.574C239.751 146.435 238.243 147.943 236.382 147.943Z" fill="white"/>
<path d="M291.367 147.943H249.886C248.025 147.943 246.518 146.435 246.518 144.574C246.518 142.713 248.025 141.205 249.886 141.205H291.367C293.228 141.205 294.735 142.713 294.735 144.574C294.735 146.435 293.228 147.943 291.367 147.943Z" fill="white"/>
<path d="M191.535 186.173V202.312C191.535 205.419 195.104 207.17 197.561 205.269L222.295 186.125L191.535 186.173Z" fill="#004FFF"/>
<path d="M400.991 46.9844H265.143C262.373 46.9844 260.129 49.2298 260.129 51.9982V105.272C260.129 108.04 262.374 110.286 265.143 110.286H372.46L391.91 125.339C394.366 127.24 397.936 125.49 397.936 122.383V110.284H400.992C403.76 110.284 406.006 108.039 406.006 105.27V51.9982C406.004 49.2298 403.759 46.9844 400.991 46.9844Z" fill="white"/>
<path d="M394.193 126.872C393.223 126.872 392.26 126.553 391.455 125.928L372.205 111.031H265.144C261.968 111.031 259.385 108.448 259.385 105.273V51.9991C259.385 48.8239 261.968 46.2402 265.144 46.2402H400.991C404.167 46.2402 406.75 48.8239 406.75 51.9991V105.273C406.75 108.448 404.167 111.031 400.991 111.031H398.682V122.384C398.682 124.108 397.719 125.648 396.173 126.408C395.54 126.72 394.865 126.872 394.193 126.872ZM265.144 47.7302C262.789 47.7302 260.875 49.6449 260.875 51.9991V105.273C260.875 107.627 262.789 109.541 265.144 109.541H372.714L392.366 124.75C393.288 125.465 394.465 125.589 395.516 125.072C396.565 124.556 397.19 123.552 397.19 122.384V109.541H400.99C403.344 109.541 405.259 107.627 405.259 105.273V51.9991C405.259 49.6449 403.344 47.7302 400.99 47.7302H265.144Z" fill="#004FFF"/>
<path d="M330.164 82.0054H394.568C396.429 82.0054 397.936 80.4975 397.936 78.6365C397.936 76.7755 396.429 75.2676 394.568 75.2676H330.164C328.303 75.2676 326.795 76.7755 326.795 78.6365C326.795 80.4975 328.303 82.0054 330.164 82.0054Z" fill="#004FFF"/>
<path d="M285.201 82.0054H317.087C318.948 82.0054 320.456 80.4975 320.456 78.6365C320.456 76.7755 318.948 75.2676 317.087 75.2676H285.201C283.34 75.2676 281.832 76.7755 281.832 78.6365C281.832 80.4975 283.341 82.0054 285.201 82.0054Z" fill="#004FFF"/>
<path d="M297.89 95.9956H394.568C396.429 95.9956 397.936 94.4877 397.936 92.6267C397.936 90.7657 396.429 89.2578 394.568 89.2578H297.89C296.029 89.2578 294.521 90.7657 294.521 92.6267C294.521 94.4862 296.029 95.9956 297.89 95.9956Z" fill="#004FFF"/>
<path d="M271.566 68.0132H394.566C396.427 68.0132 397.935 66.5053 397.935 64.6443C397.935 62.7833 396.427 61.2754 394.566 61.2754H271.566C269.705 61.2754 268.197 62.7833 268.197 64.6443C268.197 66.5053 269.707 68.0132 271.566 68.0132Z" fill="#004FFF"/>
</g>
<defs>
<clipPath id="clip0_309_726">
<rect width="571" height="532" fill="white"/>
</clipPath>
</defs>
</svg>
