<svg width="17" height="24" viewBox="0 0 17 24" xmlns="http://www.w3.org/2000/svg">
<path d="M16.3909 21.2826L14.6049 17.5748C14.2206 16.7826 13.7237 16.206 12.8659 16.5576L11.1737 17.1857C9.81901 17.8138 9.14401 17.1857 8.46432 16.2388L5.41744 9.30603C5.03307 8.51384 5.23463 7.76853 6.09244 7.41696L8.45963 6.47009C9.31744 6.11384 9.18151 5.37321 8.79713 4.58103L6.76744 0.802901C6.38307 0.0107131 5.59557 -0.181474 4.73776 0.170088C3.02213 0.877901 1.60182 1.98884 0.678381 3.63415C-0.446619 5.64509 0.115881 8.44353 0.340881 9.62009C0.565881 10.7966 1.35338 12.8592 2.37057 14.9732C3.38776 17.092 4.27838 18.756 5.07994 19.6982C5.87682 20.6404 7.78932 23.2185 10.1565 23.7951C12.0971 24.2638 14.1924 23.8701 15.9081 23.1623C16.7706 22.8248 16.7706 22.0795 16.3909 21.2826Z"/>
</svg>
