<svg width="27" height="26" viewBox="0 0 27 26" fill="none" xmlns="http://www.w3.org/2000/svg">
<rect x="0.909058" width="26" height="26" rx="3.25" fill="white"/>
<path d="M24.0202 0H3.79795C2.20906 0 0.909058 1.3 0.909058 2.88889V23.1111C0.909058 24.7014 2.20906 26 3.79795 26H13.9091V15.8889H11.0202V12.3139H13.9091V9.35278C13.9091 6.227 15.6597 4.03144 19.3488 4.03144L21.9532 4.03433V7.79711H20.2242C18.7884 7.79711 18.2424 8.87467 18.2424 9.87422V12.3153H21.9517L21.1313 15.8889H18.2424V26H24.0202C25.6091 26 26.9091 24.7014 26.9091 23.1111V2.88889C26.9091 1.3 25.6091 0 24.0202 0Z" fill="#1877F2"/>
</svg>
