<svg width="333" height="410" viewBox="0 0 333 410" fill="none" xmlns="http://www.w3.org/2000/svg">
<g filter="url(#filter0_dd_3025_8197)">
<rect x="44" y="126" width="243" height="238" rx="119" fill="white"/>
</g>
<mask id="mask0_3025_8197" style="mask-type:alpha" maskUnits="userSpaceOnUse" x="71" y="70" width="189" height="272">
<path d="M259.072 274.238C259.072 311.662 217.425 342 166.049 342C114.674 342 73.0257 311.662 73.0257 274.238C73.0257 236.814 49.0522 70 166.049 70C275.916 70 259.072 236.814 259.072 274.238Z" fill="#798ED1"/>
</mask>
<g mask="url(#mask0_3025_8197)">
<path d="M233.563 134.186H94.5469V331.276H233.563V134.186Z" fill="#E25948"/>
<path d="M233.563 304.471H94.5469V331.274H233.563V304.471Z" fill="#C12D33"/>
<path d="M233.563 294.819H94.5469V298.777H233.563V294.819Z" fill="#C12D33"/>
<path d="M233.563 134.1H94.5469V139.207H233.563V134.1Z" fill="#FF8F86"/>
<path d="M221.645 116.51H106.746V134.1H221.645V116.51Z" fill="#E25948"/>
<path d="M227.321 108H100.504V111.584C100.504 114.304 102.71 116.51 105.43 116.51H222.393C225.113 116.51 227.319 114.304 227.319 111.584L227.321 108Z" fill="#1D4044"/>
<path d="M221.645 116.51H106.746V121.616H221.645V116.51Z" fill="#C12D33"/>
<path d="M288.034 341.772H39.7915V337.35C39.7915 333.994 42.5119 331.274 45.8679 331.274H281.957C285.313 331.274 288.034 333.994 288.034 337.35V341.772Z" fill="#1D4044"/>
<path d="M80.9863 305.24C89.5133 296.713 89.5133 282.888 80.9863 274.361C72.4592 265.834 58.6341 265.834 50.1071 274.361C41.58 282.888 41.58 296.713 50.1071 305.24C58.6341 313.767 72.4592 313.767 80.9863 305.24Z" fill="#008A65"/>
<path d="M67.1004 306.019C77.4452 306.019 85.8313 297.633 85.8313 287.289C85.8313 276.944 77.4452 268.558 67.1004 268.558C56.7557 268.558 48.3696 276.944 48.3696 287.289C48.3696 297.633 56.7557 306.019 67.1004 306.019Z" fill="#00A47C"/>
<path d="M284.049 294.774C286.803 283.034 279.518 271.283 267.777 268.529C256.037 265.774 244.286 273.059 241.532 284.8C238.777 296.541 246.062 308.292 257.803 311.046C269.544 313.8 281.295 306.515 284.049 294.774Z" fill="#008A65"/>
<path d="M264.332 306.019C274.677 306.019 283.063 297.633 283.063 287.289C283.063 276.944 274.677 268.558 264.332 268.558C253.988 268.558 245.602 276.944 245.602 287.289C245.602 297.633 253.988 306.019 264.332 306.019Z" fill="#00A47C"/>
<path d="M181.358 280.532H147.009V331.276H181.358V280.532Z" fill="#1D4044"/>
<path d="M178.855 283.038H149.516V331.276H178.855V283.038Z" fill="#B0E4F2"/>
<path d="M173.036 283.038L149.516 306.559V297.176L163.655 283.038H173.036Z" fill="white"/>
<path d="M178.853 288.607V293.414L149.516 322.756V317.944L178.853 288.607Z" fill="white"/>
<path d="M178.852 304.941V313.364L160.94 331.276H152.518L178.852 304.941Z" fill="white"/>
<path d="M165.435 280.532H162.93V331.276H165.435V280.532Z" fill="#1D4044"/>
<path d="M125.749 151.84H108.625V168.964H125.749V151.84Z" fill="#1D4044"/>
<path d="M124.291 153.298H110.082V167.507H124.291V153.298Z" fill="#B0E4F2"/>
<path d="M121.602 153.298L110.082 164.818V160.279L117.066 153.298H121.602Z" fill="white"/>
<path d="M124.29 159.099V163.366L120.153 167.507H115.882L124.29 159.099Z" fill="white"/>
<path d="M149.111 151.84H131.987V168.964H149.111V151.84Z" fill="#1D4044"/>
<path d="M147.652 153.298H133.443V167.507H147.652V153.298Z" fill="#B0E4F2"/>
<path d="M144.964 153.298L133.443 164.818V160.279L140.428 153.298H144.964Z" fill="white"/>
<path d="M147.653 159.099V163.366L143.515 167.507H139.245L147.653 159.099Z" fill="white"/>
<path d="M172.474 151.84H155.35V168.964H172.474V151.84Z" fill="#1D4044"/>
<path d="M171.015 153.298H156.806V167.507H171.015V153.298Z" fill="#B0E4F2"/>
<path d="M168.327 153.298L156.806 164.818V160.279L163.79 153.298H168.327Z" fill="white"/>
<path d="M171.016 159.099V163.366L166.878 167.507H162.607L171.016 159.099Z" fill="white"/>
<path d="M195.836 151.84H178.712V168.964H195.836V151.84Z" fill="#1D4044"/>
<path d="M194.377 153.298H180.168V167.507H194.377V153.298Z" fill="#B0E4F2"/>
<path d="M191.689 153.298L180.168 164.818V160.279L187.153 153.298H191.689Z" fill="white"/>
<path d="M194.377 159.099V163.366L190.239 167.507H185.969L194.377 159.099Z" fill="white"/>
<path d="M219.199 151.84H202.075V168.964H219.199V151.84Z" fill="#1D4044"/>
<path d="M217.74 153.298H203.531V167.507H217.74V153.298Z" fill="#B0E4F2"/>
<path d="M215.052 153.298L203.531 164.818V160.279L210.515 153.298H215.052Z" fill="white"/>
<path d="M217.74 159.099V163.366L213.602 167.507H209.332L217.74 159.099Z" fill="white"/>
<path d="M125.749 177.662H108.625V194.786H125.749V177.662Z" fill="#1D4044"/>
<path d="M124.291 179.121H110.082V193.33H124.291V179.121Z" fill="#B0E4F2"/>
<path d="M121.602 179.121L110.082 190.642V186.102L117.066 179.121H121.602Z" fill="white"/>
<path d="M124.29 184.922V189.188L120.153 193.33H115.882L124.29 184.922Z" fill="white"/>
<path d="M149.111 177.662H131.987V194.786H149.111V177.662Z" fill="#1D4044"/>
<path d="M147.652 179.121H133.443V193.33H147.652V179.121Z" fill="#B0E4F2"/>
<path d="M144.964 179.121L133.443 190.642V186.102L140.428 179.121H144.964Z" fill="white"/>
<path d="M147.653 184.922V189.188L143.515 193.33H139.245L147.653 184.922Z" fill="white"/>
<path d="M172.474 177.662H155.35V194.786H172.474V177.662Z" fill="#1D4044"/>
<path d="M171.015 179.121H156.806V193.33H171.015V179.121Z" fill="#B0E4F2"/>
<path d="M168.327 179.121L156.806 190.642V186.102L163.79 179.121H168.327Z" fill="white"/>
<path d="M171.016 184.922V189.188L166.878 193.33H162.607L171.016 184.922Z" fill="white"/>
<path d="M195.836 177.662H178.712V194.786H195.836V177.662Z" fill="#1D4044"/>
<path d="M194.377 179.121H180.168V193.33H194.377V179.121Z" fill="#B0E4F2"/>
<path d="M191.689 179.121L180.168 190.642V186.102L187.153 179.121H191.689Z" fill="white"/>
<path d="M194.377 184.922V189.188L190.239 193.33H185.969L194.377 184.922Z" fill="white"/>
<path d="M219.199 177.662H202.075V194.786H219.199V177.662Z" fill="#1D4044"/>
<path d="M217.74 179.121H203.531V193.33H217.74V179.121Z" fill="#B0E4F2"/>
<path d="M215.052 179.121L203.531 190.642V186.102L210.515 179.121H215.052Z" fill="white"/>
<path d="M217.74 184.922V189.188L213.602 193.33H209.332L217.74 184.922Z" fill="white"/>
<path d="M125.749 203.486H108.625V220.609H125.749V203.486Z" fill="#1D4044"/>
<path d="M124.291 204.945H110.082V219.154H124.291V204.945Z" fill="#B0E4F2"/>
<path d="M121.602 204.945L110.082 216.465V211.924L117.066 204.945H121.602Z" fill="white"/>
<path d="M124.29 210.744V215.011L120.153 219.153H115.882L124.29 210.744Z" fill="white"/>
<path d="M149.111 203.486H131.987V220.609H149.111V203.486Z" fill="#1D4044"/>
<path d="M147.652 204.945H133.443V219.154H147.652V204.945Z" fill="#B0E4F2"/>
<path d="M144.964 204.945L133.443 216.465V211.924L140.428 204.945H144.964Z" fill="white"/>
<path d="M147.653 210.744V215.011L143.515 219.153H139.245L147.653 210.744Z" fill="white"/>
<path d="M172.474 203.486H155.35V220.609H172.474V203.486Z" fill="#1D4044"/>
<path d="M171.015 204.945H156.806V219.154H171.015V204.945Z" fill="#B0E4F2"/>
<path d="M168.327 204.945L156.806 216.465V211.924L163.79 204.945H168.327Z" fill="white"/>
<path d="M171.016 210.744V215.011L166.878 219.153H162.607L171.016 210.744Z" fill="white"/>
<path d="M195.836 203.486H178.712V220.609H195.836V203.486Z" fill="#1D4044"/>
<path d="M194.377 204.945H180.168V219.154H194.377V204.945Z" fill="#B0E4F2"/>
<path d="M191.689 204.945L180.168 216.465V211.924L187.153 204.945H191.689Z" fill="white"/>
<path d="M194.377 210.744V215.011L190.239 219.153H185.969L194.377 210.744Z" fill="white"/>
<path d="M219.199 203.486H202.075V220.609H219.199V203.486Z" fill="#1D4044"/>
<path d="M217.74 204.945H203.531V219.154H217.74V204.945Z" fill="#B0E4F2"/>
<path d="M215.052 204.945L203.531 216.465V211.924L210.515 204.945H215.052Z" fill="white"/>
<path d="M217.74 210.744V215.011L213.602 219.153H209.332L217.74 210.744Z" fill="white"/>
<path d="M125.749 229.309H108.625V246.433H125.749V229.309Z" fill="#1D4044"/>
<path d="M124.291 230.766H110.082V244.975H124.291V230.766Z" fill="#B0E4F2"/>
<path d="M121.602 230.766L110.082 242.287V237.747L117.066 230.766H121.602Z" fill="white"/>
<path d="M124.29 236.567V240.834L120.153 244.975H115.882L124.29 236.567Z" fill="white"/>
<path d="M149.111 229.309H131.987V246.433H149.111V229.309Z" fill="#1D4044"/>
<path d="M147.652 230.766H133.443V244.975H147.652V230.766Z" fill="#B0E4F2"/>
<path d="M144.964 230.766L133.443 242.287V237.747L140.428 230.766H144.964Z" fill="white"/>
<path d="M147.653 236.567V240.834L143.515 244.975H139.245L147.653 236.567Z" fill="white"/>
<path d="M172.474 229.309H155.35V246.433H172.474V229.309Z" fill="#1D4044"/>
<path d="M171.015 230.766H156.806V244.975H171.015V230.766Z" fill="#B0E4F2"/>
<path d="M168.327 230.766L156.806 242.287V237.747L163.79 230.766H168.327Z" fill="white"/>
<path d="M171.016 236.567V240.834L166.878 244.975H162.607L171.016 236.567Z" fill="white"/>
<path d="M195.836 229.309H178.712V246.433H195.836V229.309Z" fill="#1D4044"/>
<path d="M194.377 230.766H180.168V244.975H194.377V230.766Z" fill="#B0E4F2"/>
<path d="M191.689 230.766L180.168 242.287V237.747L187.153 230.766H191.689Z" fill="white"/>
<path d="M194.377 236.567V240.834L190.239 244.975H185.969L194.377 236.567Z" fill="white"/>
<path d="M219.199 229.309H202.075V246.433H219.199V229.309Z" fill="#1D4044"/>
<path d="M217.74 230.766H203.531V244.975H217.74V230.766Z" fill="#B0E4F2"/>
<path d="M215.052 230.766L203.531 242.287V237.747L210.515 230.766H215.052Z" fill="white"/>
<path d="M217.74 236.567V240.834L213.602 244.975H209.332L217.74 236.567Z" fill="white"/>
<path d="M125.749 255.131H108.625V272.255H125.749V255.131Z" fill="#1D4044"/>
<path d="M124.291 256.59H110.082V270.799H124.291V256.59Z" fill="#B0E4F2"/>
<path d="M121.602 256.59L110.082 268.11V263.571L117.066 256.59H121.602Z" fill="white"/>
<path d="M124.29 262.391V266.656L120.153 270.799H115.882L124.29 262.391Z" fill="white"/>
<path d="M149.111 255.131H131.987V272.255H149.111V255.131Z" fill="#1D4044"/>
<path d="M147.652 256.59H133.443V270.799H147.652V256.59Z" fill="#B0E4F2"/>
<path d="M144.964 256.59L133.443 268.11V263.571L140.428 256.59H144.964Z" fill="white"/>
<path d="M147.653 262.391V266.656L143.515 270.799H139.245L147.653 262.391Z" fill="white"/>
<path d="M172.474 255.131H155.35V272.255H172.474V255.131Z" fill="#1D4044"/>
<path d="M171.015 256.59H156.806V270.799H171.015V256.59Z" fill="#B0E4F2"/>
<path d="M168.327 256.59L156.806 268.11V263.571L163.79 256.59H168.327Z" fill="white"/>
<path d="M171.016 262.391V266.656L166.878 270.799H162.607L171.016 262.391Z" fill="white"/>
<path d="M195.836 255.131H178.712V272.255H195.836V255.131Z" fill="#1D4044"/>
<path d="M194.377 256.59H180.168V270.799H194.377V256.59Z" fill="#B0E4F2"/>
<path d="M191.689 256.59L180.168 268.11V263.571L187.153 256.59H191.689Z" fill="white"/>
<path d="M194.377 262.391V266.656L190.239 270.799H185.969L194.377 262.391Z" fill="white"/>
<path d="M219.199 255.131H202.075V272.255H219.199V255.131Z" fill="#1D4044"/>
<path d="M217.74 256.59H203.531V270.799H217.74V256.59Z" fill="#B0E4F2"/>
<path d="M215.052 256.59L203.531 268.11V263.571L210.515 256.59H215.052Z" fill="white"/>
<path d="M217.74 262.391V266.656L213.602 270.799H209.332L217.74 262.391Z" fill="white"/>
</g>
<defs>
<filter id="filter0_dd_3025_8197" x="19.6648" y="101.665" width="312.529" height="307.529" filterUnits="userSpaceOnUse" color-interpolation-filters="sRGB">
<feFlood flood-opacity="0" result="BackgroundImageFix"/>
<feColorMatrix in="SourceAlpha" type="matrix" values="0 0 0 0 0 0 0 0 0 0 0 0 0 0 0 0 0 0 127 0" result="hardAlpha"/>
<feOffset dx="10.4294" dy="10.4294"/>
<feGaussianBlur stdDeviation="17.3823"/>
<feComposite in2="hardAlpha" operator="out"/>
<feColorMatrix type="matrix" values="0 0 0 0 0 0 0 0 0 0 0 0 0 0 0 0 0 0 0.1 0"/>
<feBlend mode="normal" in2="BackgroundImageFix" result="effect1_dropShadow_3025_8197"/>
<feColorMatrix in="SourceAlpha" type="matrix" values="0 0 0 0 0 0 0 0 0 0 0 0 0 0 0 0 0 0 127 0" result="hardAlpha"/>
<feOffset dy="2.78116"/>
<feGaussianBlur stdDeviation="1.39058"/>
<feComposite in2="hardAlpha" operator="out"/>
<feColorMatrix type="matrix" values="0 0 0 0 0 0 0 0 0 0 0 0 0 0 0 0 0 0 0.25 0"/>
<feBlend mode="normal" in2="effect1_dropShadow_3025_8197" result="effect2_dropShadow_3025_8197"/>
<feBlend mode="normal" in="SourceGraphic" in2="effect2_dropShadow_3025_8197" result="shape"/>
</filter>
</defs>
</svg>
