<svg width="25" height="25" viewBox="0 0 25 25" fill="none" xmlns="http://www.w3.org/2000/svg">
<path d="M22.497 10.2376H21.6758V10.1953H12.5V14.2734H18.2619C17.4213 16.6474 15.1625 18.3516 12.5 18.3516C9.12178 18.3516 6.38281 15.6126 6.38281 12.2344C6.38281 8.85616 9.12178 6.11719 12.5 6.11719C14.0594 6.11719 15.4781 6.70546 16.5582 7.66637L19.442 4.78262C17.6211 3.08561 15.1854 2.03906 12.5 2.03906C6.86964 2.03906 2.30469 6.60401 2.30469 12.2344C2.30469 17.8647 6.86964 22.4297 12.5 22.4297C18.1304 22.4297 22.6953 17.8647 22.6953 12.2344C22.6953 11.5508 22.625 10.8835 22.497 10.2376Z" fill="#FFC107"/>
<path d="M3.48047 7.48897L6.83014 9.94553C7.7365 7.70154 9.93155 6.11719 12.5003 6.11719C14.0596 6.11719 15.4783 6.70546 16.5585 7.66637L19.4423 4.78262C17.6214 3.08561 15.1857 2.03906 12.5003 2.03906C8.58424 2.03906 5.18818 4.24992 3.48047 7.48897Z" fill="#FF3D00"/>
<path d="M12.5002 22.4295C15.1337 22.4295 17.5265 21.4217 19.3357 19.7828L16.1802 17.1126C15.1222 17.9173 13.8294 18.3524 12.5002 18.3514C9.8484 18.3514 7.59677 16.6605 6.74852 14.3008L3.42383 16.8624C5.11115 20.1641 8.5378 22.4295 12.5002 22.4295Z" fill="#4CAF50"/>
<path d="M22.497 10.2376H21.6758V10.1953H12.5V14.2734H18.2619C17.8598 15.4033 17.1355 16.3906 16.1785 17.1133L16.18 17.1123L19.3354 19.7825C19.1122 19.9854 22.6953 17.332 22.6953 12.2344C22.6953 11.5508 22.625 10.8835 22.497 10.2376Z" fill="#1976D2"/>
</svg>
