<svg width="15" height="16" viewBox="0 0 15 16" fill="none" xmlns="http://www.w3.org/2000/svg">
<path fill-rule="evenodd" clip-rule="evenodd" d="M0 8C0 6.01088 0.790176 4.10322 2.1967 2.6967C3.60322 1.29018 5.51088 0.5 7.5 0.5C9.48912 0.5 11.3968 1.29018 12.8033 2.6967C14.2098 4.10322 15 6.01088 15 8C15 9.98912 14.2098 11.8968 12.8033 13.3033C11.3968 14.7098 9.48912 15.5 7.5 15.5C5.51088 15.5 3.60322 14.7098 2.1967 13.3033C0.790176 11.8968 0 9.98912 0 8ZM7.072 11.21L11.39 5.812L10.61 5.188L6.928 9.789L4.32 7.616L3.68 8.384L7.072 11.211V11.21Z" fill="#00C938"/>
</svg>
