<svg width="17" height="21" viewBox="0 0 17 21" fill="none" xmlns="http://www.w3.org/2000/svg">
<path d="M2.5 21C1.95 21 1.47933 20.8043 1.088 20.413C0.696666 20.0217 0.500667 19.5507 0.5 19V9C0.5 8.45 0.696 7.97933 1.088 7.588C1.48 7.19667 1.95067 7.00067 2.5 7H3.5V5C3.5 3.61667 3.98767 2.43767 4.963 1.463C5.93833 0.488333 7.11733 0.000666667 8.5 0C9.88333 0 11.0627 0.487667 12.038 1.463C13.0133 2.43833 13.5007 3.61733 13.5 5V7H14.5C15.05 7 15.521 7.196 15.913 7.588C16.305 7.98 16.5007 8.45067 16.5 9V19C16.5 19.55 16.3043 20.021 15.913 20.413C15.5217 20.805 15.0507 21.0007 14.5 21H2.5ZM8.5 16C9.05 16 9.521 15.8043 9.913 15.413C10.305 15.0217 10.5007 14.5507 10.5 14C10.5 13.45 10.3043 12.9793 9.913 12.588C9.52167 12.1967 9.05067 12.0007 8.5 12C7.95 12 7.47933 12.196 7.088 12.588C6.69667 12.98 6.50067 13.4507 6.5 14C6.5 14.55 6.696 15.021 7.088 15.413C7.48 15.805 7.95067 16.0007 8.5 16ZM5.5 7H11.5V5C11.5 4.16667 11.2083 3.45833 10.625 2.875C10.0417 2.29167 9.33333 2 8.5 2C7.66667 2 6.95833 2.29167 6.375 2.875C5.79167 3.45833 5.5 4.16667 5.5 5V7Z" fill="#9F9F9F"/>
</svg>
