<svg width="66" height="44" viewBox="0 0 66 44" fill="none" xmlns="http://www.w3.org/2000/svg">
<path d="M32.245 33.4017C32.245 35.4031 30.4699 37.0255 28.2793 37.0255C26.6182 37.0255 25.1952 36.0901 24.607 34.7643C24.5182 34.5649 24.4593 34.3521 24.4109 34.1376C24.3907 34.0486 24.3705 33.9598 24.3489 33.8726C23.9348 32.1313 23.3164 30.5742 22.4917 29.2047C21.9452 28.2928 21.3067 27.4633 20.5691 26.7191C19.178 25.3012 17.4466 24.1898 15.3716 23.3919C13.9803 23.992 12.4249 24.3257 10.7856 24.3257C4.82872 24.3257 0 19.9123 0 14.4667C0 9.02268 4.82872 4.60788 10.7856 4.60788C15.6364 4.60788 19.7396 7.5359 21.0972 11.5636C20.0932 11.6944 18.9384 11.7899 17.6879 11.7163C16.5264 9.2858 13.8732 7.58623 10.7856 7.58623C6.62896 7.58623 3.25832 10.6669 3.25832 14.4667C3.25832 18.2681 6.62896 21.3488 10.7856 21.3488C14.3776 21.3488 17.3796 19.0508 18.1322 15.9753C19.1227 15.516 20.254 15.1976 21.5532 15.0466C21.4223 17.1083 20.5976 19.0006 19.2903 20.5309C19.9474 22.1383 21.0904 23.7439 22.5202 25.1955C23.2577 25.9464 24.0723 26.6555 24.9355 27.304C26.4524 28.4438 28.1185 29.3942 29.7827 30.0461C31.2277 30.5875 32.245 31.8848 32.245 33.4017Z" fill="#10A79D"/>
<path d="M58.7492 28.8867C58.7492 30.3181 57.8257 31.5518 56.4916 32.1165C56.3389 32.1818 56.1931 32.2607 56.0456 32.3362C54.7047 33.0082 51.9927 31.6104 48.1913 31.5919H48.1427C47.122 31.5903 46.0225 31.6891 44.8509 31.9541C44.8359 31.9574 44.8224 31.9607 44.8074 31.964C43.096 32.3597 41.2304 33.1089 39.2276 34.4195C38.671 39.3859 34.0802 43.2593 28.4987 43.2593C22.5418 43.2593 17.7129 38.8461 17.7129 33.4022C17.7129 31.0572 18.6079 28.9035 20.1063 27.2123C20.8237 27.8727 21.501 28.6471 22.059 29.7767C21.3485 30.8311 20.9377 32.073 20.9377 33.4022C20.9377 37.2185 24.3219 40.3127 28.4987 40.3127C32.6756 40.3127 36.0597 37.2185 36.0597 33.4022C36.0597 29.5839 32.6756 26.4899 28.4987 26.4899C27.4881 26.4899 26.5225 26.6709 25.6427 26.9993C24.642 26.2619 23.8189 25.5177 23.3062 24.7602V24.7585C24.8465 23.9841 26.6165 23.5432 28.4987 23.5432C33.1667 23.5432 37.1407 26.2536 38.6425 30.0465H38.6441C40.4311 30.2611 42.3501 30.1051 44.3396 29.6209C44.3429 29.6209 44.3448 29.6191 44.3481 29.6191C45.3973 29.3645 46.4666 29.0175 47.5478 28.5851H47.5495C47.5998 28.5649 47.6499 28.5447 47.7019 28.5229C49.3462 27.8525 51.0156 26.9843 52.6783 25.9368C52.68 25.935 52.6833 25.9333 52.685 25.9316C53.3052 25.5512 54.0511 25.3282 54.8557 25.3282C57.006 25.3282 58.7492 26.9223 58.7492 28.8867Z" fill="#1276BC"/>
<path d="M48.2019 10.4125C48.2019 12.6886 47.3688 14.7838 45.9676 16.4565C45.1715 15.7961 44.4475 14.9498 43.7888 13.9424C44.4575 12.9116 44.8412 11.7031 44.8412 10.4125C44.8412 6.61771 41.5243 3.54201 37.4346 3.54201C33.3449 3.54201 30.0279 6.61771 30.0279 10.4125C30.0279 14.2055 33.3449 17.2812 37.4346 17.2812C38.4284 17.2812 39.3771 17.1001 40.2419 16.77C41.2595 17.4857 42.1763 18.2048 42.954 18.9222C41.34 19.8122 39.4526 20.3232 37.4346 20.3232C33.1169 20.3232 29.3924 17.9851 27.6779 14.6078C24.691 13.6356 17.6615 14.5658 12.7052 17.3147C12.4587 17.4522 12.199 17.5695 11.9425 17.6952C11.8169 17.7555 11.6877 17.8141 11.5537 17.851C11.2135 17.9466 10.8547 17.997 10.4844 17.997C8.36905 17.997 6.6543 16.3509 6.6543 14.3179C6.6543 12.2863 8.36905 10.6388 10.4844 10.6388C10.9636 10.6388 11.4229 10.7226 11.8454 10.8784C12.6079 11.1567 13.3739 11.4281 14.1616 11.6243C18.7175 12.7522 22.9428 12.4925 26.6706 10.166C26.813 4.80582 31.5764 0.500008 37.4346 0.500008C43.3813 0.500008 48.2019 4.93831 48.2019 10.4125Z" fill="#25A8E0"/>
<path d="M65.8519 29.0001C65.8519 34.4743 61.0312 38.9126 55.0845 38.9126C50.522 38.9126 46.6235 36.3014 45.0562 32.6139C45.7719 32.3423 46.8111 32.1613 48.4606 32.153H48.4622C49.679 34.4007 52.1865 35.9426 55.0845 35.9426C59.1742 35.9426 62.4912 32.8669 62.4912 29.074C62.4912 25.2792 59.1742 22.2052 55.0845 22.2052C51.4323 22.2052 48.3986 24.654 47.79 27.8788C46.6722 28.3281 45.5122 28.6784 44.3172 28.9481C44.3305 26.548 45.2709 24.3489 46.8246 22.641C46.0787 21.2095 44.9657 19.8217 43.5863 18.5463C42.7903 17.807 41.9036 17.1065 40.9482 16.4594C40.271 15.9985 39.5586 15.5627 38.8179 15.1588C38.0133 14.7197 37.1601 14.3761 36.2886 14.0878C34.7868 13.5901 33.709 12.2206 33.709 10.6082C33.709 8.57663 35.4221 6.92906 37.5372 6.92906C37.6094 6.92906 37.6814 6.93072 37.7535 6.93405C39.3325 7.01954 40.6549 8.14586 41.1209 9.65615C41.1895 9.87579 41.2683 10.1088 41.3571 10.3517C41.7979 11.5652 42.4934 13.0218 43.4355 14.4364C44.0256 15.3231 44.7128 16.1946 45.4955 16.9807C46.8983 18.3869 48.6064 19.5185 50.6177 19.9775H50.6211C51.982 19.4061 53.4923 19.0877 55.0845 19.0877C61.0312 19.0877 65.8519 23.526 65.8519 29.0001Z" fill="#28B574"/>
</svg>
