<svg width="301" height="297" viewBox="0 0 301 297" fill="none" xmlns="http://www.w3.org/2000/svg">
<path d="M225.501 287.579C225.009 287.579 224.535 287.287 224.334 286.802C224.069 286.16 224.373 285.422 225.015 285.15C226.545 284.515 228.088 283.835 229.591 283.135C230.22 282.844 230.978 283.116 231.27 283.744C231.568 284.379 231.29 285.13 230.661 285.422C229.125 286.141 227.55 286.834 225.987 287.482C225.825 287.546 225.663 287.579 225.501 287.579Z" fill="#7D97F4"/>
<path d="M179.057 296.802C176.938 296.802 174.792 296.744 172.679 296.634C171.979 296.595 171.448 295.999 171.48 295.306C171.519 294.613 172.141 294.069 172.809 294.108C176.179 294.283 179.576 294.315 182.979 294.211C182.992 294.211 183.005 294.211 183.018 294.211C183.699 294.211 184.256 294.749 184.282 295.435C184.308 296.135 183.757 296.718 183.057 296.737C181.722 296.783 180.386 296.802 179.057 296.802ZM199.631 295.053C199.029 295.053 198.491 294.619 198.387 294.004C198.27 293.317 198.73 292.663 199.418 292.547C202.756 291.977 206.107 291.258 209.361 290.409C210.042 290.234 210.729 290.636 210.904 291.316C211.079 291.99 210.677 292.683 209.996 292.858C206.671 293.726 203.255 294.457 199.845 295.04C199.774 295.047 199.696 295.053 199.631 295.053ZM156.182 294.606C156.105 294.606 156.02 294.6 155.943 294.58C152.565 293.926 149.162 293.117 145.844 292.171C145.169 291.977 144.78 291.277 144.975 290.61C145.169 289.936 145.863 289.548 146.537 289.742C149.791 290.668 153.116 291.465 156.429 292.106C157.116 292.236 157.563 292.903 157.427 293.59C157.304 294.192 156.772 294.606 156.182 294.606ZM130.481 286.542C130.313 286.542 130.138 286.51 129.969 286.432C126.812 285.033 123.682 283.485 120.661 281.827C120.052 281.49 119.825 280.726 120.162 280.111C120.499 279.502 121.264 279.275 121.88 279.612C124.835 281.238 127.901 282.753 130.993 284.12C131.629 284.405 131.92 285.15 131.635 285.785C131.428 286.264 130.967 286.542 130.481 286.542ZM107.23 272.96C106.971 272.96 106.705 272.876 106.478 272.707C103.71 270.648 101.001 268.445 98.4211 266.159C97.8961 265.699 97.8507 264.896 98.3174 264.378C98.7776 263.853 99.5814 263.808 100.1 264.268C102.628 266.502 105.279 268.666 107.989 270.68C108.546 271.094 108.663 271.885 108.248 272.448C107.995 272.785 107.619 272.96 107.23 272.96ZM87.5637 254.584C87.2072 254.584 86.8507 254.435 86.6044 254.144C84.3616 251.521 82.2031 248.774 80.2002 245.976C79.7918 245.406 79.9214 244.622 80.4918 244.214C81.0622 243.806 81.8466 243.936 82.255 244.506C84.219 247.246 86.3321 249.934 88.5295 252.499C88.9833 253.03 88.9185 253.826 88.3934 254.28C88.1471 254.487 87.8554 254.584 87.5637 254.584ZM72.4671 232.316C72.0133 232.316 71.5726 232.07 71.3457 231.642C69.7446 228.592 68.2538 225.437 66.925 222.257C66.6528 221.616 66.9574 220.877 67.5991 220.605C68.2408 220.333 68.9863 220.638 69.252 221.279C70.5614 224.388 72.0134 227.484 73.582 230.463C73.9061 231.079 73.6663 231.843 73.0505 232.167C72.8625 232.271 72.6615 232.316 72.4671 232.316ZM62.7182 207.243C62.1607 207.243 61.6486 206.867 61.4995 206.304C60.618 202.975 59.8725 199.568 59.2827 196.167C59.166 195.481 59.6262 194.826 60.3133 194.703C61.0069 194.587 61.6551 195.047 61.7782 195.733C62.3551 199.062 63.0876 202.398 63.9497 205.656C64.1312 206.33 63.7229 207.023 63.0488 207.198C62.9321 207.23 62.8219 207.243 62.7182 207.243ZM58.7965 180.622C58.1159 180.622 57.5585 180.084 57.5326 179.404C57.4807 177.941 57.4548 176.477 57.4548 175.019C57.4548 173.024 57.5066 171.004 57.6038 169.022C57.6363 168.322 58.2196 167.771 58.9261 167.823C59.6262 167.856 60.1578 168.452 60.1254 169.145C60.0281 171.088 59.9827 173.063 59.9827 175.019C59.9827 176.444 60.0086 177.876 60.0605 179.314C60.0864 180.013 59.5419 180.596 58.8419 180.622C58.8224 180.622 58.8095 180.622 58.7965 180.622ZM60.8449 153.787C60.7671 153.787 60.6893 153.781 60.605 153.768C59.9179 153.638 59.4706 152.978 59.6003 152.291C60.2485 148.904 61.0458 145.51 61.9857 142.187C62.1737 141.52 62.8802 141.125 63.5478 141.312C64.2219 141.5 64.6109 142.2 64.4229 142.873C63.509 146.125 62.7246 149.448 62.0894 152.764C61.9662 153.366 61.4347 153.787 60.8449 153.787Z" fill="#7D97F4"/>
<path d="M68.8696 128.008C68.701 128.008 68.526 127.976 68.364 127.898C67.7222 127.62 67.437 126.875 67.7158 126.234C68.3899 124.699 69.1158 123.138 69.8742 121.609C70.1854 120.981 70.9373 120.728 71.566 121.033C72.1948 121.337 72.4541 122.095 72.143 122.723C71.404 124.226 70.6975 125.748 70.0363 127.251C69.8224 127.723 69.3557 128.008 68.8696 128.008Z" fill="#7D97F4"/>
<path d="M137.663 63.3861C137.145 63.3861 136.665 63.0688 136.477 62.5571C136.237 61.9029 136.574 61.1774 137.229 60.9378C138.83 60.3548 140.457 59.7978 142.058 59.2861C142.719 59.0724 143.432 59.4416 143.646 60.1087C143.86 60.7759 143.491 61.4819 142.823 61.6956C141.254 62.1944 139.66 62.7384 138.091 63.3149C137.955 63.3667 137.806 63.3861 137.663 63.3861Z" fill="#7D97F4"/>
<path d="M293.452 214.646C293.316 214.646 293.186 214.627 293.05 214.582C292.389 214.361 292.033 213.642 292.253 212.982C293.31 209.84 294.243 206.608 295.034 203.376C295.202 202.696 295.89 202.282 296.564 202.45C297.244 202.618 297.659 203.298 297.491 203.979C296.687 207.275 295.734 210.579 294.651 213.791C294.476 214.31 293.984 214.646 293.452 214.646ZM299.046 188.757C299.001 188.757 298.962 188.757 298.917 188.751C298.223 188.68 297.717 188.058 297.789 187.365C298.126 184.061 298.327 180.7 298.385 177.383C298.398 176.684 298.955 176.12 299.668 176.14C300.369 176.153 300.92 176.729 300.913 177.422C300.855 180.81 300.647 184.243 300.304 187.617C300.232 188.272 299.688 188.757 299.046 188.757ZM298.819 162.272C298.184 162.272 297.64 161.8 297.568 161.158C297.179 157.855 296.648 154.532 295.987 151.287C295.851 150.607 296.291 149.933 296.972 149.797C297.659 149.655 298.32 150.102 298.463 150.782C299.137 154.098 299.681 157.486 300.077 160.86C300.161 161.553 299.662 162.182 298.968 162.266C298.923 162.272 298.871 162.272 298.819 162.272ZM292.862 136.48C292.337 136.48 291.851 136.157 291.67 135.638C290.568 132.504 289.323 129.382 287.962 126.357C287.677 125.722 287.962 124.971 288.597 124.686C289.232 124.401 289.984 124.686 290.27 125.32C291.657 128.41 292.934 131.603 294.055 134.803C294.288 135.464 293.938 136.183 293.284 136.416C293.148 136.461 293.005 136.48 292.862 136.48ZM281.389 112.638C280.968 112.638 280.56 112.431 280.32 112.042C278.557 109.231 276.651 106.459 274.661 103.797C274.24 103.24 274.356 102.45 274.914 102.029C275.471 101.608 276.262 101.724 276.683 102.281C278.719 104.995 280.663 107.826 282.459 110.702C282.828 111.291 282.647 112.075 282.057 112.444C281.849 112.573 281.616 112.638 281.389 112.638ZM264.951 91.879C264.627 91.879 264.296 91.756 264.05 91.5034C261.716 89.1392 259.247 86.8463 256.725 84.6894C256.194 84.236 256.135 83.4393 256.589 82.9082C257.043 82.3771 257.84 82.3188 258.372 82.7722C260.945 84.9744 263.46 87.3191 265.845 89.7286C266.338 90.2274 266.331 91.0241 265.832 91.5163C265.593 91.756 265.275 91.879 264.951 91.879ZM244.383 75.1875C244.15 75.1875 243.91 75.1227 243.703 74.9867C240.903 73.1861 237.999 71.4826 235.069 69.9281C234.453 69.6042 234.22 68.8334 234.544 68.2181C234.868 67.6028 235.639 67.3696 236.255 67.6935C239.243 69.2804 242.212 71.0162 245.07 72.8622C245.66 73.2379 245.829 74.0216 245.446 74.611C245.207 74.9802 244.798 75.1875 244.383 75.1875ZM220.666 63.3732C220.523 63.3732 220.374 63.3473 220.231 63.2955C217.114 62.1491 213.905 61.1257 210.703 60.2448C210.029 60.0569 209.633 59.3639 209.815 58.6903C209.996 58.0166 210.69 57.6215 211.37 57.8029C214.644 58.7032 217.917 59.746 221.106 60.9184C221.761 61.1581 222.098 61.8835 221.858 62.5377C221.664 63.0558 221.178 63.3732 220.666 63.3732ZM158.399 57.8418C157.797 57.8418 157.265 57.4078 157.155 56.799C157.038 56.1124 157.498 55.4582 158.185 55.3351C161.517 54.7522 164.927 54.3053 168.317 54.0073C169.017 53.9296 169.626 54.4607 169.691 55.1538C169.756 55.8468 169.237 56.4621 168.544 56.5269C165.225 56.8249 161.88 57.2588 158.62 57.8288C158.542 57.8353 158.471 57.8418 158.399 57.8418ZM194.919 57.0451C194.867 57.0451 194.809 57.0386 194.751 57.0321C191.458 56.6046 188.106 56.3067 184.788 56.1577C184.088 56.1253 183.55 55.5359 183.582 54.8364C183.614 54.1369 184.23 53.5863 184.904 53.6316C188.294 53.7871 191.717 54.085 195.081 54.5255C195.775 54.6162 196.261 55.2509 196.17 55.9375C196.092 56.5852 195.548 57.0451 194.919 57.0451Z" fill="#7D97F4"/>
<path d="M284.799 234.356C284.591 234.356 284.384 234.304 284.189 234.201C283.58 233.864 283.353 233.1 283.69 232.484C284.494 231.02 285.278 229.531 286.011 228.054C286.322 227.432 287.08 227.173 287.703 227.484C288.325 227.795 288.584 228.553 288.273 229.174C287.528 230.677 286.73 232.199 285.907 233.695C285.68 234.123 285.246 234.356 284.799 234.356Z" fill="#7D97F4"/>
<path d="M254.048 229.524C254.463 229.064 254.541 228.397 254.243 227.86L245.751 212.457C249.731 205.274 252.59 197.398 254.106 189.087L270.422 182.533C270.992 182.306 271.355 181.736 271.329 181.121L270.273 160.057C270.24 159.442 269.825 158.911 269.229 158.742L252.337 153.852C249.997 145.73 246.367 138.184 241.687 131.435L248.59 115.261C248.83 114.691 248.687 114.037 248.227 113.623L232.573 99.4701C232.113 99.0556 231.445 98.9778 230.907 99.2758L215.493 107.761C208.304 103.784 200.422 100.927 192.106 99.4183L185.546 83.1154C185.319 82.5454 184.749 82.1827 184.133 82.2086L163.053 83.2643C162.438 83.2967 161.906 83.7113 161.738 84.3072L156.844 101.187C148.715 103.525 141.164 107.152 134.409 111.828L118.224 104.93C117.66 104.691 116.999 104.833 116.584 105.293L102.421 120.935C102.006 121.395 101.928 122.062 102.226 122.6L110.718 138.002C106.738 145.186 103.879 153.062 102.362 161.372L86.047 167.927C85.4766 168.153 85.1136 168.723 85.1395 169.339L86.1961 190.402C86.2285 191.018 86.6434 191.549 87.2397 191.717L104.132 196.607C106.472 204.73 110.102 212.276 114.782 219.025L107.878 235.198C107.639 235.768 107.781 236.422 108.241 236.837L123.896 250.989C124.356 251.404 125.023 251.482 125.561 251.184L140.976 242.699C148.164 246.676 156.046 249.532 164.363 251.041L170.923 267.344C171.149 267.914 171.72 268.277 172.336 268.251L193.415 267.195C194.031 267.163 194.563 266.748 194.731 266.152L199.625 249.273C207.753 246.935 215.305 243.307 222.059 238.631L238.245 245.529C238.815 245.769 239.47 245.626 239.885 245.166L254.048 229.524Z" fill="#91B3FA"/>
<path d="M178.247 195.843C169.412 195.843 161.219 190.13 158.503 181.257C156.889 175.991 157.421 170.408 160.007 165.543C162.593 160.679 166.917 157.11 172.187 155.497C177.456 153.884 183.044 154.416 187.912 157C192.78 159.584 196.351 163.905 197.966 169.17C201.297 180.046 195.159 191.601 184.282 194.93C182.279 195.552 180.25 195.843 178.247 195.843ZM178.26 158.373C176.601 158.373 174.935 158.619 173.302 159.118C168.997 160.433 165.465 163.348 163.358 167.318C161.245 171.288 160.811 175.842 162.133 180.143C164.855 189.016 174.3 194.03 183.18 191.303C192.06 188.582 197.071 179.152 194.349 170.278C193.033 165.977 190.116 162.447 186.142 160.342C183.673 159.04 180.976 158.373 178.26 158.373Z" fill="#BDD0FB"/>
<path d="M177.852 227.737C149.921 227.737 126.534 205.766 125.121 177.591C125.075 176.697 125.056 175.803 125.056 174.922C125.056 147.012 147.043 123.636 175.246 122.224C204.331 120.786 229.196 143.236 230.654 172.305C230.7 173.193 230.719 174.087 230.719 174.974C230.719 177.85 230.486 180.713 230.026 183.53L226.286 182.921C226.713 180.311 226.927 177.649 226.927 174.98C226.927 174.151 226.908 173.329 226.862 172.5C225.508 145.516 202.419 124.627 175.434 126.013C162.353 126.668 150.31 132.374 141.52 142.083C133.294 151.171 128.848 162.739 128.848 174.903C128.848 175.732 128.867 176.567 128.913 177.403C130.267 204.387 153.35 225.249 180.341 223.889C189.221 223.442 197.797 220.612 205.141 215.696L207.254 218.844C199.34 224.142 190.103 227.193 180.535 227.672C179.628 227.711 178.74 227.737 177.852 227.737Z" fill="#BDD0FB"/>
<path d="M109.272 90.4282L103.847 82.2022C105.746 78.0115 106.997 73.4905 107.47 68.7752L116.292 64.3902C116.603 64.2347 116.778 63.9044 116.733 63.5611L115.21 51.844C115.164 51.5007 114.905 51.2222 114.568 51.1574L104.916 49.1754C103.25 44.7451 100.884 40.6904 97.9738 37.128L101.111 27.788C101.221 27.4576 101.111 27.1014 100.839 26.8876L91.4659 19.6786C91.1936 19.4649 90.8111 19.4519 90.5259 19.6462L82.2938 25.0676C78.0999 23.1633 73.5755 21.9197 68.8566 21.4469L64.4682 12.6315C64.3127 12.3206 63.9821 12.1457 63.6385 12.1911L51.9126 13.7132C51.569 13.7585 51.2903 14.0176 51.2254 14.3544L49.242 23.9988C44.8083 25.6635 40.7506 28.0276 37.1854 30.9358L27.8383 27.8009C27.5078 27.6908 27.1512 27.8009 26.9373 28.073L19.7228 37.4389C19.5089 37.7109 19.496 38.0931 19.6905 38.3781L25.1159 46.604C23.2102 50.7947 21.9656 55.3157 21.4924 60.0311L12.6704 64.4161C12.3593 64.5715 12.1843 64.9019 12.2297 65.2451L13.7529 76.9622C13.7983 77.3055 14.0576 77.5841 14.3946 77.6488L24.0464 79.6308C25.7123 84.0612 28.0782 88.1159 30.9886 91.6783L27.8513 101.018C27.7411 101.349 27.8513 101.705 28.1236 101.919L37.4966 109.128C37.7688 109.341 38.1447 109.354 38.4364 109.16L46.6686 103.739C50.8625 105.643 55.3869 106.887 60.1059 107.359L64.4942 116.175C64.6498 116.486 64.9803 116.661 65.3238 116.615L77.0499 115.093C77.3934 115.048 77.6721 114.789 77.7369 114.452L79.7205 104.807C84.1542 103.143 88.2119 100.779 91.777 97.8704L101.124 101.005C101.455 101.115 101.811 101.005 102.025 100.733L109.24 91.3674C109.447 91.0953 109.46 90.7132 109.272 90.4282Z" fill="#91B3FA"/>
<path d="M64.4748 76.7938C62.8024 76.7938 61.1301 76.4505 59.5485 75.7639C56.5084 74.4491 54.1684 72.0266 52.9498 68.95C51.7311 65.8734 51.783 62.5053 53.0988 59.4675C54.4147 56.4297 56.839 54.085 59.9179 52.8738C66.2768 50.3607 73.4913 53.4891 76.0063 59.8367C78.5213 66.1907 75.397 73.3998 69.0381 75.9129C67.5602 76.5023 66.0175 76.7938 64.4748 76.7938ZM64.4683 55.8014C63.4182 55.8014 62.3487 55.9957 61.3116 56.4038C59.1725 57.2458 57.4936 58.8716 56.5797 60.9831C55.6657 63.0882 55.6269 65.4264 56.476 67.5639C57.3187 69.7013 58.9456 71.3789 61.0587 72.2922C63.1654 73.2055 65.5054 73.2443 67.6445 72.3958C72.0587 70.6535 74.2237 65.6467 72.48 61.2357C71.1447 57.8612 67.8973 55.8014 64.4683 55.8014Z" fill="#BDD0FB"/>
<path d="M102.92 116.052C102.537 116.052 102.161 115.883 101.915 115.553C101.494 114.996 101.597 114.206 102.155 113.785C103.464 112.787 104.748 111.725 105.973 110.63C106.491 110.164 107.289 110.209 107.755 110.727C108.222 111.245 108.177 112.042 107.658 112.509C106.388 113.649 105.052 114.756 103.685 115.792C103.458 115.967 103.185 116.052 102.92 116.052Z" fill="#7D97F4"/>
<path d="M63.6968 129.025C63.6903 129.025 63.6838 129.025 63.6774 129.025C60.3262 128.986 56.9425 128.675 53.6302 128.106C52.9431 127.989 52.4765 127.335 52.5996 126.648C52.7163 125.962 53.3645 125.502 54.0581 125.618C57.2407 126.162 60.4882 126.46 63.7097 126.499C64.4098 126.506 64.9673 127.082 64.9608 127.775C64.9543 128.468 64.3904 129.025 63.6968 129.025ZM79.6361 127.179C79.0657 127.179 78.5536 126.797 78.411 126.221C78.2424 125.541 78.6573 124.86 79.3314 124.692C82.0344 124.025 84.7244 123.163 87.3237 122.134C87.7256 121.972 88.134 121.81 88.5359 121.641C89.1841 121.369 89.9231 121.674 90.1888 122.315C90.4611 122.956 90.1564 123.695 89.5147 123.967C89.0998 124.142 88.6784 124.31 88.2571 124.478C85.5541 125.547 82.7539 126.441 79.9407 127.14C79.837 127.166 79.7333 127.179 79.6361 127.179ZM38.5076 123.455C38.3326 123.455 38.1577 123.416 37.9891 123.345C34.9231 121.972 31.9414 120.346 29.1347 118.519C28.5513 118.137 28.3828 117.353 28.7652 116.771C29.1477 116.188 29.932 116.026 30.5153 116.401C33.2119 118.157 36.0769 119.718 39.0197 121.039C39.655 121.324 39.9402 122.069 39.655 122.71C39.4475 123.176 38.9873 123.455 38.5076 123.455ZM17.6031 108.35C17.2596 108.35 16.9161 108.214 16.6698 107.936C14.4075 105.461 12.3268 102.78 10.4794 99.9819C10.097 99.3989 10.2591 98.6152 10.8424 98.233C11.4258 97.8509 12.2101 98.0128 12.5926 98.5957C14.3686 101.29 16.3651 103.862 18.5366 106.239C19.0098 106.757 18.9709 107.554 18.4523 108.026C18.2125 108.247 17.9078 108.35 17.6031 108.35ZM4.47706 86.1597C3.95201 86.1597 3.4594 85.8294 3.28439 85.3047C2.19541 82.1244 1.34626 78.8405 0.762875 75.5437C0.639716 74.8571 1.09999 74.2029 1.78708 74.0799C2.47418 73.9503 3.12887 74.4167 3.25203 75.1032C3.80948 78.2706 4.62621 81.4249 5.67629 84.4821C5.90316 85.1428 5.55308 85.8617 4.89192 86.0884C4.74931 86.1338 4.61318 86.1597 4.47706 86.1597Z" fill="#7D97F4"/>
<path d="M1.26197 60.5103C1.22956 60.5103 1.19065 60.5103 1.15824 60.5038C0.46465 60.4455 -0.0538607 59.8367 0.00447843 59.1436C0.147085 57.4466 0.354494 55.7237 0.633226 54.0332C0.743422 53.3466 1.39163 52.8802 2.08522 52.9903C2.77232 53.1069 3.23903 53.7546 3.12883 54.4412C2.86306 56.067 2.66216 57.7186 2.52604 59.3509C2.4677 60.0115 1.91667 60.5103 1.26197 60.5103Z" fill="#7D97F4"/>
<path d="M26.2633 15.0797C25.8808 15.0797 25.4984 14.9048 25.252 14.5745C24.8307 14.0175 24.9409 13.2273 25.4984 12.8062C26.866 11.7764 28.2921 10.7919 29.7376 9.8721C30.3274 9.49643 31.1052 9.67132 31.4812 10.2607C31.8571 10.8502 31.6821 11.6274 31.0923 12.0031C29.7051 12.884 28.3309 13.8296 27.0216 14.8206C26.7947 14.9955 26.529 15.0797 26.2633 15.0797Z" fill="#7D97F4"/>
<path d="M127.402 57.9001C126.773 57.9001 126.229 57.4337 126.151 56.7925C125.762 53.6575 125.121 50.5161 124.252 47.4589C124.057 46.7853 124.453 46.0858 125.121 45.8979C125.788 45.7036 126.488 46.0923 126.683 46.7659C127.59 49.9461 128.251 53.2171 128.66 56.4816C128.744 57.1746 128.251 57.8029 127.558 57.8871C127.506 57.9 127.454 57.9001 127.402 57.9001ZM119.313 33.857C118.878 33.857 118.451 33.6303 118.217 33.2287C116.629 30.4824 114.814 27.8397 112.824 25.3784C112.383 24.8344 112.474 24.0377 113.012 23.6037C113.557 23.1633 114.354 23.2475 114.788 23.7915C116.856 26.3565 118.749 29.1028 120.402 31.9592C120.752 32.5616 120.544 33.3388 119.941 33.6821C119.747 33.8052 119.527 33.857 119.313 33.857ZM102.446 14.9244C102.181 14.9244 101.915 14.8402 101.695 14.6718C99.1601 12.7804 96.4506 11.064 93.6439 9.57426C93.0281 9.25041 92.7947 8.47963 93.1188 7.86431C93.4494 7.24898 94.2143 7.00933 94.83 7.33966C97.747 8.88769 100.567 10.6754 103.205 12.6444C103.762 13.0654 103.879 13.8556 103.464 14.4127C103.211 14.7495 102.835 14.9244 102.446 14.9244ZM44.6916 5.46777C44.1601 5.46777 43.6675 5.13096 43.4925 4.59984C43.2721 3.93917 43.6351 3.22021 44.2962 3.00647C47.44 1.97013 50.681 1.17344 53.9285 0.635844C54.6221 0.512778 55.2703 0.985607 55.3805 1.67218C55.4972 2.35876 55.0305 3.01294 54.3434 3.12305C51.2255 3.64122 48.1076 4.40553 45.087 5.403C44.9509 5.44834 44.8213 5.46777 44.6916 5.46777ZM79.4936 4.10758C79.3964 4.10758 79.2926 4.09462 79.1889 4.06871C76.11 3.31089 72.9403 2.79272 69.7835 2.52068C69.0899 2.46239 68.5714 1.84706 68.6363 1.15401C68.6946 0.460958 69.3104 -0.0701631 70.004 0.00756233C73.2903 0.292556 76.5832 0.836632 79.7918 1.62036C80.4724 1.78877 80.8872 2.46887 80.7187 3.14896C80.5826 3.71895 80.0641 4.10758 79.4936 4.10758Z" fill="#7D97F4"/>
<path d="M126.521 78.7046C126.436 78.7046 126.346 78.6981 126.261 78.6786C125.581 78.5361 125.14 77.8625 125.283 77.1824C125.626 75.5631 125.905 73.9244 126.112 72.3052C126.203 71.6121 126.832 71.1328 127.525 71.2105C128.219 71.3012 128.705 71.936 128.614 72.6225C128.394 74.3131 128.109 76.0165 127.752 77.7006C127.629 78.2965 127.104 78.7046 126.521 78.7046Z" fill="#7D97F4"/>
<path d="M64.2479 94.6771C49.1967 94.6771 36.0835 83.4911 34.0871 68.1922C33.912 66.8579 33.8278 65.5301 33.8278 64.2023C33.8278 57.5308 36.0122 51.0861 40.1477 45.7166C45.1065 39.2783 52.2756 35.1589 60.3392 34.1096C68.3964 33.0603 76.3887 35.2107 82.8318 40.1657C89.2749 45.1207 93.3975 52.2844 94.4476 60.3419C94.7199 62.4016 94.7782 64.4873 94.6227 66.547C94.6162 66.6377 94.6097 66.7219 94.6032 66.8126L90.8242 66.5017C90.8825 65.7762 90.915 65.0443 90.915 64.3124C90.915 63.153 90.8371 61.9871 90.688 60.8342C89.7676 53.7806 86.1571 47.5107 80.5178 43.1711C74.8784 38.8314 67.8843 36.953 60.8319 37.8663C53.773 38.7861 47.4983 42.3938 43.1554 48.0289C39.5319 52.7313 37.6197 58.3729 37.6197 64.2087C37.6197 65.3682 37.6976 66.534 37.8467 67.6999C39.7459 82.254 53.1377 92.5526 67.7028 90.6613C72.493 90.0395 77.0175 88.1352 80.7771 85.1558L83.13 88.1288C78.826 91.5357 73.6598 93.712 68.189 94.418C66.8731 94.5929 65.5508 94.6771 64.2479 94.6771Z" fill="#BDD0FB"/>
</svg>
