<svg width="27" height="26" viewBox="0 0 27 26" fill="none" xmlns="http://www.w3.org/2000/svg">
<path d="M4.44158 0C2.39292 0 0.727295 1.66562 0.727295 3.71429V22.2857C0.727295 24.3344 2.39292 26 4.44158 26H23.013C25.0617 26 26.7273 24.3344 26.7273 22.2857V3.71429C26.7273 1.66562 25.0617 0 23.013 0H4.44158ZM21.684 4.875L15.6599 11.758L22.746 21.125H17.1978L12.8568 15.4433L7.8831 21.125H5.1264L11.5684 13.7603L4.77238 4.875H10.4599L14.3889 10.0692L18.9273 4.875H21.684ZM19.4902 19.4768L9.62997 6.43616H7.98756L17.9581 19.4768H19.4844H19.4902Z" fill="black"/>
</svg>
