<svg width="24" height="24" viewBox="0 0 24 24" fill="none" xmlns="http://www.w3.org/2000/svg">
<path d="M10.4744 14.0763C11.8733 13.3104 13.3559 12.5999 14.4753 11.9724L10.4744 9.854V14.0763Z" fill="#C60000"/>
<path d="M12 0C9.62662 0 7.30655 0.703788 5.33316 2.02236C3.35977 3.34094 1.8217 5.21508 0.913451 7.4078C0.00519999 9.60051 -0.232441 12.0133 0.230582 14.3411C0.693604 16.6688 1.83649 18.807 3.51472 20.4853C5.19295 22.1635 7.33114 23.3064 9.65891 23.7694C11.9867 24.2324 14.3995 23.9948 16.5922 23.0865C18.7849 22.1783 20.6591 20.6402 21.9776 18.6668C23.2962 16.6934 24 14.3734 24 12C24 10.4241 23.6896 8.8637 23.0866 7.4078C22.4835 5.95189 21.5996 4.62902 20.4853 3.51472C19.371 2.40042 18.0481 1.5165 16.5922 0.913443C15.1363 0.310387 13.5759 0 12 0ZM19.4371 10.457C19.4371 10.8632 19.4371 13.1468 19.4098 13.5258C19.4169 14.3061 19.2962 15.0824 19.0525 15.8237C18.9712 16.0787 18.8299 16.3105 18.6404 16.4995C18.3593 16.7759 18.0003 16.9599 17.6117 17.0268C15.1624 17.2169 13.0834 17.2501 10.7177 17.2169C9.24951 17.2485 7.78092 17.1739 6.32345 16.9936C5.94205 16.9228 5.59069 16.7391 5.31493 16.4663C5.08176 16.2041 4.91696 15.8883 4.83516 15.5471C4.72007 15.105 4.65198 14.6521 4.63201 14.1957C4.53403 12.7374 4.53403 11.2741 4.63201 9.81582C4.69972 9.00468 4.76744 8.0437 5.37688 7.48325C5.65004 7.2239 5.99309 7.05011 6.36379 6.98331C8.23753 6.81476 10.119 6.74695 12 6.78016C13.8883 6.74888 15.777 6.81861 17.6578 6.98907C18.1125 7.07234 18.5237 7.31187 18.8205 7.66623C19.2576 8.52975 19.4697 9.48964 19.4371 10.457Z" fill="#C60000"/>
</svg>
