<svg width="29" height="20" viewBox="0 0 29 20" fill="none" xmlns="http://www.w3.org/2000/svg">
<path d="M14.8104 0.25H14.967C16.4142 0.255205 23.7468 0.307256 25.7239 0.831235C26.3215 0.99115 26.8662 1.30286 27.3033 1.7352C27.7405 2.16754 28.0548 2.70539 28.215 3.29498C28.3928 3.95429 28.5178 4.82701 28.6023 5.72749L28.6199 5.90793L28.6587 6.35904L28.6727 6.53948C28.7872 8.1253 28.8013 9.61049 28.803 9.93494V10.0651C28.8013 10.4017 28.7854 11.9875 28.6587 13.6392L28.6446 13.8214L28.6287 14.0018C28.5407 14.9943 28.4104 15.9798 28.215 16.705C28.0553 17.2949 27.7411 17.8329 27.3039 18.2654C26.8667 18.6978 26.3218 19.0093 25.7239 19.1688C23.6817 19.7101 15.9195 19.7483 14.8438 19.75H14.5938C14.0498 19.75 11.7999 19.7396 9.44075 19.6598L9.14146 19.6494L8.98829 19.6424L8.68724 19.6303L8.38619 19.6181C6.43201 19.5331 4.57113 19.3961 3.71375 19.167C3.11604 19.0077 2.57129 18.6965 2.13408 18.2644C1.69686 17.8323 1.38255 17.2945 1.22261 16.705C1.02719 15.9815 0.896911 14.9943 0.808884 14.0018L0.7948 13.8197L0.780716 13.6392C0.69383 12.4636 0.645683 11.2854 0.636353 10.1067L0.636353 9.8933C0.639874 9.52026 0.653958 8.23114 0.749026 6.80841L0.76135 6.6297L0.766632 6.53948L0.780716 6.35904L0.819447 5.90793L0.837053 5.72749C0.921558 4.82701 1.04656 3.95255 1.22437 3.29498C1.38404 2.70515 1.69824 2.16705 2.13546 1.73463C2.57269 1.30222 3.11759 0.990671 3.71551 0.831235C4.57289 0.605681 6.43377 0.466879 8.38795 0.380127L8.68724 0.367982L8.99005 0.357572L9.14146 0.352367L9.44251 0.340222C11.118 0.287086 12.7942 0.257587 14.4706 0.251735H14.8104V0.25ZM11.9037 5.81945V14.1788L19.2222 10.0009L11.9037 5.81945Z" fill="#F24E1E"/>
</svg>
