<svg width="26" height="26" viewBox="0 0 26 26" fill="none" xmlns="http://www.w3.org/2000/svg">
<circle cx="13" cy="13" r="13" fill="#4281FD"/>
<path d="M19.9421 15.929C18.8761 15.929 17.8447 15.7557 16.8827 15.4437C16.732 15.3926 16.57 15.385 16.4152 15.4218C16.2603 15.4586 16.119 15.5383 16.0074 15.6517L14.6467 17.359C12.1941 16.189 9.89741 13.979 8.67541 11.4397L10.3654 10.001C10.5994 9.75837 10.6687 9.42037 10.5734 9.11704C10.2527 8.15504 10.0881 7.12371 10.0881 6.05771C10.0881 5.58971 9.69807 5.19971 9.23007 5.19971H6.23141C5.76341 5.19971 5.20007 5.40771 5.20007 6.05771C5.20007 14.109 11.8994 20.7997 19.9421 20.7997C20.5574 20.7997 20.8001 20.2537 20.8001 19.777V16.787C20.8001 16.319 20.4101 15.929 19.9421 15.929Z" fill="white"/>
</svg>
