<svg width="26" height="26" viewBox="0 0 26 26" fill="none" xmlns="http://www.w3.org/2000/svg">
<circle cx="13" cy="13" r="13" fill="#4281FD"/>
<path d="M13 12.5235C12.3433 12.5235 11.7134 12.2724 11.2491 11.8254C10.7847 11.3784 10.5238 10.7722 10.5238 10.1401C10.5238 9.50803 10.7847 8.90182 11.2491 8.45486C11.7134 8.0079 12.3433 7.7568 13 7.7568C13.6567 7.7568 14.2865 8.0079 14.7509 8.45486C15.2153 8.90182 15.4762 9.50803 15.4762 10.1401C15.4762 10.4531 15.4121 10.763 15.2877 11.0522C15.1632 11.3414 14.9809 11.6041 14.7509 11.8254C14.521 12.0467 14.248 12.2223 13.9476 12.342C13.6472 12.4618 13.3252 12.5235 13 12.5235ZM13 3.4668C11.1611 3.4668 9.39763 4.16988 8.09738 5.42137C6.79712 6.67286 6.06665 8.37025 6.06665 10.1401C6.06665 15.1451 13 22.5335 13 22.5335C13 22.5335 19.9333 15.1451 19.9333 10.1401C19.9333 8.37025 19.2028 6.67286 17.9026 5.42137C16.6023 4.16988 14.8388 3.4668 13 3.4668Z" fill="white"/>
</svg>
