<svg width="26" height="26" viewBox="0 0 26 26" fill="none" xmlns="http://www.w3.org/2000/svg">
<circle cx="13" cy="13" r="13" fill="#4281FD"/>
<path d="M6.75995 19.0669C6.33095 19.0669 5.96357 18.9183 5.65781 18.621C5.35205 18.3238 5.19943 17.9668 5.19995 17.5503V8.45026C5.19995 8.03318 5.35283 7.676 5.65859 7.37874C5.96435 7.08147 6.33147 6.93309 6.75995 6.9336H19.24C19.669 6.9336 20.0363 7.08223 20.3421 7.37949C20.6479 7.67676 20.8005 8.03368 20.7999 8.45026V17.5503C20.7999 17.9673 20.6471 18.3245 20.3413 18.6218C20.0356 18.9191 19.6684 19.0674 19.24 19.0669H6.75995ZM13 13.7586L19.24 9.96693V8.45026L13 12.2419L6.75995 8.45026V9.96693L13 13.7586Z" fill="white"/>
</svg>
