<svg clip-rule="evenodd" fill-rule="evenodd" height="200" image-rendering="optimizeQuality" shape-rendering="geometricPrecision" text-rendering="geometricPrecision" viewBox="0 0 600 200" width="600" xmlns="http://www.w3.org/2000/svg"><path d="m63.35 40.86c2.91-1.17 7.12-2.22 11.89-2.45 1.41 3.06 4.51 5.19 8.11 5.19 3.56 0 6.63-2.08 8.06-5.1 3.99-.02 7.98.97 11.94 2.42-16.49 6.49-22.05 7.11-40-.06z" fill="#00434c"/><path d="m79.5 18.26-.17 8.45.15-.08c-2.99 1.44-5.05 4.5-5.05 8.05 0 4.92 3.99 8.92 8.92 8.92s8.92-4 8.92-8.92c0-3.16-1.64-5.94-4.11-7.52 0-3.81-.03-7.44-.03-11.23.37-3.5-2.75-11.96-4.33-12.26-1.06 11.5-2.64 5.42-4.3 14.59z" fill="#fb6107"/><path d="m10.82 82.96c8.27 20.11 14.9 39.13 32.64 56.95 8.14-1.72 16.9-5.77 25.64-13.89-8.96-5.08-17.03-12.02-26.47-20.93 7.42.99 32.72 18.04 33.17 19.01 3.38-.48 5.06-.03 15.51-6.35-6.56-10.7-16.22-17.44-28.2-22.4-11.18-4.62-26.16-6.39-52.29-12.39z" fill="#65bfa9"/><path d="m131.05 52.42c-10.81 16.41-26.7 24.61-28.14 35.78v3.41l-.01 1.68-.01 5.38v2.15l-.01 6.08v1.44l-.01 1.75c7.67-7.67 9.01-14.47 14.11-19.82-.06 9.04-1.02 13.47-4.6 19.96-2.37 4.07-3.3 10.07-1.51 12.86 15.09-14.76 34.3-38.67 20.18-70.67z" fill="#65bfa9"/><path d="m25.41 196.33c-.37-51.63 34.83-58.88 63.02-70.22 5.99-2.4 11.41-5.8 16.39-8.95-1.81 18-19.44 24.61-36.62 31.72-4.68 1.93-1.76 4.79 4.35 5.33 28.94 2.56 65.12-53.96 72.88-63.35-4.04 29.58-28.11 73.94-62.34 87.5-11.25 4.46-25.34 7.11-33.8 9.22-11.45 2.84-19.27 5.99-23.88 8.75z" fill="#00434c"/><path d="m63.11 44.09v51.26c11.98 4.96 21.64 11.7 28.2 22.4 3.86-2.53 7.71-5.07 11.56-7.6.04-21.7.08-43.4.12-65.1-13.55 4.67-26.81 3.79-39.88-.96z" fill="#00434c"/><g fill-rule="nonzero"><path d="m154.94 149.68v-7.82h4.74c.85 0 1.62-.12 2.32-.32.71-.22 1.32-.66 1.82-1.34.51-.66.93-1.62 1.23-2.87.28-1.25.43-2.92.43-5.02v-70.21c0-2.11-.15-3.78-.43-5.03-.3-1.25-.72-2.2-1.23-2.86-.5-.69-1.11-1.13-1.82-1.33-.7-.22-1.47-.34-2.32-.34h-4.74v-7.81h39.01v7.81h-4.75c-.81 0-1.58.12-2.29.34-.72.2-1.34.64-1.85 1.33-.51.66-.92 1.61-1.2 2.86-.31 1.25-.46 2.92-.46 5.03v70.21c0 2.1.15 3.77.46 5.02.28 1.25.69 2.21 1.2 2.87.51.68 1.13 1.12 1.85 1.34.71.2 1.48.32 2.29.32h4.75v7.82zm90.14-10.24c2.75 0 5.22-.42 7.36-1.25 2.15-.84 4.07-1.91 5.77-3.26 1.69-1.35 3.18-2.84 4.44-4.53 1.28-1.67 2.39-3.31 3.35-4.95.58.59 1.05 1.47 1.39 2.67.36 1.17.53 2.4.53 3.65 0 2.06-.41 4.21-1.26 6.49s-2.26 4.36-4.26 6.27c-1.99 1.94-4.61 3.51-7.88 4.76-3.28 1.24-7.33 1.86-12.15 1.86-6.55 0-12.27-1.3-17.15-3.87-4.9-2.6-8.96-6.25-12.2-11-3.24-4.73-5.67-10.41-7.29-17.08-1.62-6.64-2.43-14.01-2.43-22.1 0-7.96.83-15.23 2.49-21.82 1.66-6.62 4.1-12.28 7.36-17.03 3.26-4.73 7.33-8.4 12.2-11.05 4.88-2.62 10.51-3.94 16.91-3.94 4.35 0 8.13.44 11.35 1.32s5.89 2.11 8.02 3.62c2.13 1.55 3.73 3.34 4.8 5.42 1.08 2.08 1.6 4.34 1.6 6.71 0 1.81-.3 3.5-.9 5.07-.62 1.55-1.51 2.89-2.71 4.04-1.19 1.16-2.68 2.06-4.44 2.7-1.76.66-3.79.98-6.07.98 0-2.45-.2-4.88-.6-7.3-.41-2.4-1.09-4.61-2.07-6.57s-2.26-3.55-3.84-4.75c-1.58-1.22-3.56-1.84-5.91-1.84-3.56 0-6.59.98-9.06 2.94s-4.44 4.83-5.93 8.63c-1.49 3.77-2.56 8.42-3.22 13.94-.68 5.53-1 11.83-1 18.93 0 7.08.4 13.28 1.21 18.6.81 5.29 2.12 9.72 3.91 13.23 1.81 3.52 4.16 6.15 7.05 7.89 2.89 1.76 6.43 2.62 10.63 2.62zm77.8 10.24v-7.82h4.86c.8 0 1.56-.12 2.25-.32.7-.22 1.32-.66 1.85-1.34.55-.66.96-1.62 1.24-2.87.3-1.25.45-2.92.45-5.02v-32.9h-29.5v32.9c0 2.1.17 3.77.47 5.02.32 1.25.74 2.21 1.24 2.87.51.68 1.13 1.12 1.83 1.34.7.2 1.45.32 2.26.32h4.86v7.82h-39.01v-7.82h4.74c.81 0 1.56-.12 2.28-.32.7-.22 1.3-.66 1.85-1.34.52-.66.94-1.62 1.24-2.87.28-1.25.43-2.92.43-5.02v-70.78c0-1.96-.15-3.53-.47-4.7-.3-1.18-.73-2.08-1.26-2.7-.55-.63-1.15-1.05-1.85-1.25-.71-.22-1.45-.34-2.22-.34h-4.74v-7.81h39.01v7.81h-4.86c-.81 0-1.56.12-2.26.34-.7.2-1.32.64-1.83 1.33-.5.66-.92 1.61-1.24 2.86-.3 1.25-.47 2.92-.47 5.03v28.34h29.5v-28.34c0-2.11-.15-3.78-.45-5.03-.28-1.25-.69-2.2-1.24-2.86-.53-.69-1.15-1.13-1.85-1.33-.69-.22-1.45-.34-2.25-.34h-4.86v-7.81h39.01v7.81h-4.75c-.77 0-1.5.12-2.22.34-.69.2-1.3.64-1.84 1.33-.53.66-.94 1.61-1.25 2.86-.28 1.25-.43 2.92-.43 5.03v70.99c0 1.91.15 3.46.47 4.63.3 1.18.74 2.06 1.26 2.67.55.59 1.15.98 1.83 1.18.68.19 1.41.29 2.18.29h4.75v7.82zm66.76-34.55-3.26 12.65c-.3 1.2-.6 2.59-.92 4.21-.3 1.59-.47 2.99-.47 4.19 0 .95.15 1.79.45 2.52.3.71.68 1.3 1.15 1.77.49.44 1.04.78 1.64 1.03.6.24 1.24.36 1.9.36h4.74v7.82h-29.4v-7.82h1.39c.98 0 1.9-.14 2.73-.44.83-.29 1.6-.83 2.31-1.62.72-.78 1.4-1.86 2.04-3.25.64-1.4 1.3-3.19 1.96-5.39l24.49-86.43h15.5l23.61 86.57c.54 2.06 1.12 3.78 1.73 5.12.62 1.38 1.28 2.45 1.99 3.24.72.81 1.47 1.35 2.28 1.69s1.66.51 2.54.51h2.05v7.82h-37.29v-7.82h4.4c.57 0 1.13-.12 1.72-.32.58-.22 1.11-.56 1.58-1.03.45-.44.83-1.02 1.13-1.73.28-.74.43-1.6.43-2.6 0-1.2-.11-2.35-.32-3.46-.22-1.07-.45-2.05-.66-2.86l-3.97-14.73zm19.24-33.07c-.41-1.69-.83-3.45-1.24-5.29-.43-1.84-.85-3.72-1.26-5.63-.44-1.92-.83-3.83-1.23-5.71-.37-1.89-.71-3.7-1.01-5.42-.34 1.5-.72 3.11-1.15 4.88-.45 1.79-.92 3.6-1.41 5.46s-1 3.73-1.49 5.61c-.49 1.86-.96 3.65-1.41 5.37l-6.67 24.84h22.82zm44.36 59.8h4.74c.78 0 1.51-.1 2.23-.29.69-.2 1.29-.59 1.84-1.18.53-.61.96-1.49 1.26-2.67.32-1.17.47-2.72.47-4.63v-71.63c0-1.96-.15-3.53-.47-4.71-.3-1.17-.73-2.08-1.26-2.69-.55-.64-1.15-1.05-1.84-1.25-.72-.22-1.45-.34-2.23-.34h-4.74v-7.74h36.41c10.68 0 18.49 2.32 23.48 6.95 4.99 4.66 7.47 11.42 7.47 20.26 0 3.9-.43 7.33-1.31 10.34-.89 3.04-2.06 5.66-3.51 7.92-1.46 2.25-3.1 4.16-4.95 5.7-1.82 1.57-3.71 2.85-5.61 3.85l13.44 30.13c.97 2.11 1.91 3.9 2.79 5.42.91 1.49 1.81 2.74 2.71 3.72.91.98 1.83 1.69 2.79 2.16.96.44 1.96.68 3.03.68h.43v7.82h-3.69c-3.39 0-6.32-.17-8.85-.49-2.52-.35-4.72-1.01-6.62-1.99-1.89-.98-3.52-2.32-4.9-4.04-1.39-1.74-2.67-3.97-3.84-6.69l-13.4-32.34h-7.52v28.96c0 1.94.17 3.46.47 4.63.32 1.18.74 2.06 1.28 2.67.53.59 1.15.98 1.85 1.18.7.19 1.43.29 2.2.29h4.86v7.82h-39.01zm28.35-46.28h6.35c2.62 0 4.8-.46 6.55-1.37 1.75-.9 3.14-2.25 4.18-4.04 1.05-1.81 1.81-4.07 2.28-6.76.45-2.72.68-5.86.68-9.46 0-3.72-.25-6.88-.78-9.48-.5-2.57-1.31-4.7-2.43-6.34-1.09-1.67-2.54-2.87-4.29-3.6-1.77-.74-3.89-1.11-6.4-1.11h-6.14zm78.23 55.57c-5.06 0-9.3-.62-12.67-1.86-3.39-1.25-6.1-2.85-8.13-4.81-2.04-1.98-3.49-4.16-4.35-6.61-.87-2.45-1.3-4.85-1.3-7.25 0-2.53.36-4.66 1.07-6.4.72-1.71 1.68-3.13 2.86-4.21 1.21-1.1 2.56-1.91 4.09-2.38 1.52-.49 3.12-.71 4.78-.71 0 4.19.38 7.89 1.15 11.08.77 3.18 1.85 5.83 3.2 7.96 1.36 2.13 2.98 3.75 4.88 4.82 1.88 1.08 3.95 1.62 6.19 1.62 2.2 0 4.16-.42 5.89-1.22 1.74-.84 3.2-1.94 4.41-3.38 1.2-1.45 2.13-3.12 2.75-5.08.62-1.93.94-4.01.94-6.27 0-2.5-.38-4.7-1.15-6.64-.77-1.93-1.94-3.72-3.5-5.39-1.56-1.64-3.54-3.23-5.89-4.72-2.38-1.52-5.14-3.14-8.31-4.85-3.93-2.11-7.24-4.27-9.94-6.5-2.71-2.23-4.87-4.63-6.53-7.22-1.66-2.58-2.84-5.37-3.56-8.41-.71-3.01-1.07-6.29-1.07-9.89 0-4.51.69-8.58 2.09-12.2 1.39-3.63 3.33-6.74 5.8-9.34 2.44-2.57 5.38-4.55 8.75-5.95 3.39-1.4 7.06-2.08 11.03-2.08 4.15 0 7.72.44 10.76 1.32 3.01.88 5.49 2.11 7.45 3.62 1.98 1.55 3.43 3.34 4.39 5.42s1.43 4.34 1.43 6.71c0 1.74-.28 3.33-.85 4.83-.58 1.47-1.45 2.77-2.6 3.87-1.16 1.1-2.61 1.96-4.35 2.57-1.75.64-3.78.93-6.1.93 0-2.06-.2-4.26-.64-6.64-.41-2.35-1.11-4.55-2.07-6.59-.94-2.03-2.18-3.72-3.71-5.07-1.52-1.32-3.37-2.01-5.53-2.01-1.51 0-2.94.3-4.29.86-1.36.59-2.55 1.45-3.56 2.6-1 1.15-1.81 2.57-2.39 4.26-.59 1.71-.89 3.65-.89 5.85 0 2.06.27 4 .77 5.81.51 1.84 1.47 3.6 2.85 5.37 1.37 1.74 3.27 3.47 5.66 5.24 2.41 1.74 5.54 3.62 9.36 5.63 3.84 2.06 7.14 4.17 9.85 6.3 2.73 2.16 4.95 4.48 6.7 6.93 1.75 2.48 3.01 5.17 3.8 8.11s1.19 6.22 1.19 9.8c0 4.75-.72 9.09-2.15 13.03-1.43 3.95-3.5 7.33-6.17 10.17-2.69 2.82-5.91 5.02-9.68 6.59-3.77 1.59-8 2.38-12.71 2.38z" fill="#00434c"/><path d="m127.72 187.59c.69 0 1.31-.08 1.84-.24.54-.16 1.02-.37 1.44-.62.43-.26.8-.55 1.11-.87.32-.32.6-.64.84-.96.15.12.26.29.35.52.09.22.13.46.13.7 0 .39-.1.81-.32 1.24-.21.44-.56.84-1.06 1.21s-1.15.67-1.97.91-1.83.36-3.03.36c-1.64 0-3.07-.25-4.29-.74-1.22-.5-2.24-1.2-3.05-2.12-.81-.9-1.41-2-1.82-3.27-.4-1.28-.6-2.7-.6-4.25 0-1.53.2-2.92.62-4.19.41-1.27 1.02-2.35 1.84-3.27.81-.91 1.83-1.61 3.04-2.12 1.22-.5 2.63-.76 4.23-.76 1.08 0 2.03.09 2.83.26.81.17 1.48.4 2.01.69.53.3.93.64 1.2 1.04s.4.84.4 1.29c0 .35-.08.67-.23.98-.15.29-.37.55-.68.77-.29.22-.66.4-1.11.52-.43.13-.94.19-1.51.19 0-.47-.05-.94-.15-1.4s-.27-.89-.52-1.26c-.24-.38-.56-.69-.96-.92-.39-.23-.89-.35-1.47-.35-.89 0-1.65.19-2.27.56-.61.38-1.11.93-1.48 1.66-.37.72-.64 1.62-.8 2.68-.17 1.06-.25 2.27-.25 3.63s.1 2.55.3 3.57.53 1.87.98 2.54c.45.68 1.04 1.18 1.76 1.52s1.61.5 2.65.5z" fill="#fb6107"/><path d="m144.57 189.56h-9.42v-1.5h.08c.33 0 .62-.03.89-.07.26-.05.49-.15.68-.29.2-.14.35-.34.45-.61.11-.27.16-.62.16-1.06v-8.19c0-.4-.05-.74-.15-.99-.09-.26-.23-.45-.41-.59s-.39-.23-.64-.26c-.25-.05-.53-.07-.84-.07h-.08v-1.5h5.7l.57 2.2h.13c.19-.43.39-.79.61-1.11s.49-.58.8-.79c.3-.22.67-.38 1.09-.48.42-.11.91-.16 1.49-.16 1.11 0 1.93.19 2.46.58.52.39.78.96.78 1.71 0 .86-.31 1.53-.93 2.01-.63.48-1.51.72-2.65.72 0-.39-.02-.73-.06-1.02-.04-.3-.11-.54-.22-.73-.11-.2-.25-.34-.43-.44-.18-.11-.41-.16-.67-.16-.33 0-.61.09-.85.25-.24.17-.45.38-.62.64-.16.27-.3.56-.4.89-.11.33-.19.67-.25 1-.06.34-.1.66-.12.96s-.03.57-.03.79v4.88c0 .41.06.74.15 1 .11.25.24.44.42.57.17.13.38.21.63.26.24.03.5.06.78.06h.9z" fill="#fb6107"/><path d="m157.73 175.9c-.79 0-1.42.39-1.88 1.17-.47.78-.72 1.92-.76 3.43h4.87c0-.72-.04-1.36-.12-1.93s-.22-1.05-.39-1.45c-.18-.39-.41-.7-.69-.91s-.63-.31-1.03-.31zm.26 13.94c-1.19 0-2.25-.17-3.16-.52-.92-.36-1.68-.86-2.29-1.52-.62-.67-1.09-1.47-1.4-2.43-.31-.97-.47-2.06-.47-3.3 0-1.32.16-2.48.47-3.48s.77-1.84 1.37-2.51c.6-.68 1.32-1.18 2.19-1.51.87-.34 1.86-.51 2.97-.51 1.02 0 1.95.15 2.76.44.82.29 1.51.72 2.08 1.28.57.57 1.01 1.28 1.31 2.13.31.84.46 1.83.46 2.94v1.45h-9.25c.03.95.13 1.77.31 2.44.18.69.43 1.25.74 1.69.32.45.7.77 1.16.98s.98.32 1.57.32c.48 0 .93-.05 1.35-.17.41-.12.78-.28 1.12-.48.33-.21.63-.45.88-.74.25-.27.46-.57.63-.9.5.28.76.74.76 1.38 0 .4-.12.79-.34 1.15-.21.36-.56.68-1.01.96-.46.27-1.04.5-1.73.66-.7.16-1.52.25-2.48.25z" fill="#fb6107"/><path d="m171.11 185.36c0 .81.13 1.41.39 1.82.25.4.66.6 1.21.6.4 0 .77-.08 1.09-.25.33-.17.61-.41.84-.72.24-.32.42-.7.54-1.14.13-.45.19-.95.19-1.5v-2.13l-1.27.08c-.56.03-1.03.12-1.42.27-.38.16-.69.37-.92.63-.23.27-.4.6-.5.98-.1.39-.15.84-.15 1.36zm2.51-9.58c-.36 0-.66.08-.9.23-.25.16-.44.37-.59.64s-.25.59-.31.96-.09.78-.09 1.22c-1.27 0-2.22-.14-2.86-.43-.64-.28-.96-.77-.96-1.46 0-.51.16-.95.46-1.32.31-.37.73-.67 1.26-.89.53-.23 1.14-.4 1.84-.51.71-.11 1.46-.16 2.26-.16.99 0 1.85.09 2.6.26.74.17 1.35.44 1.84.82.5.38.86.87 1.11 1.48s.37 1.36.37 2.24v7.2c0 .38.03.7.09.96s.16.46.28.61c.13.16.31.26.53.33.22.06.49.1.8.1h.11v1.5h-5.25l-.59-1.94h-.25c-.32.38-.61.7-.89.99-.27.27-.57.51-.88.69-.31.19-.66.32-1.05.41s-.85.13-1.39.13c-.62 0-1.2-.1-1.74-.28s-1-.46-1.4-.85c-.4-.38-.72-.86-.95-1.43s-.34-1.26-.34-2.04c0-1.53.52-2.67 1.57-3.4 1.06-.74 2.64-1.14 4.75-1.2l2.32-.09v-1.55c0-.47-.02-.91-.06-1.3-.04-.4-.11-.74-.23-1.02s-.3-.51-.53-.66c-.24-.16-.55-.24-.93-.24z" fill="#fb6107"/><path d="m191.23 187.57c.37 0 .72-.03 1.06-.08.33-.05.65-.11.94-.19v1.84c-.14.07-.34.15-.6.23-.25.08-.54.16-.88.23s-.72.13-1.14.17c-.42.05-.88.07-1.38.07-.63 0-1.21-.08-1.73-.23-.51-.15-.95-.4-1.3-.75-.37-.36-.64-.82-.83-1.39-.19-.56-.29-1.26-.29-2.09v-9.02h-2.12v-1.45c.6 0 1.14-.12 1.62-.36.48-.23.86-.51 1.15-.82.57-.61 1.01-1.54 1.29-2.8h2.34v3.5h3.62v1.93h-3.62v8.74c0 .85.15 1.48.44 1.87.29.4.77.6 1.43.6z" fill="#fb6107"/><path d="m196.22 169.85c0-.36.06-.66.18-.92.13-.26.3-.47.51-.63.22-.16.47-.28.76-.36s.61-.11.94-.11c.32 0 .63.03.93.11.29.08.55.2.77.36s.4.37.53.63.2.56.2.92c0 .35-.07.65-.2.91s-.31.47-.53.64c-.22.16-.48.28-.77.37-.3.08-.61.12-.93.12-.33 0-.65-.04-.94-.12-.29-.09-.54-.21-.76-.37-.21-.17-.38-.38-.51-.64-.12-.26-.18-.56-.18-.91zm-1.62 18.21c.21 0 .44-.03.67-.06.23-.05.45-.13.65-.26s.36-.31.5-.55c.13-.24.2-.56.2-.97v-8.57c0-.37-.07-.68-.2-.9-.14-.22-.3-.4-.51-.52-.2-.13-.42-.21-.65-.24-.23-.04-.46-.06-.66-.06h-.33v-1.5h6.63v11.79c0 .41.07.73.2.97s.3.42.5.55c.19.13.41.21.65.26.24.03.46.06.66.06h.33v1.5h-8.97v-1.5z" fill="#fb6107"/><path d="m215.56 189.56v-9.29c0-.61-.04-1.15-.12-1.63-.08-.47-.21-.87-.39-1.19s-.41-.56-.7-.73-.64-.26-1.06-.26c-.47 0-.86.12-1.17.36s-.57.56-.75.96c-.19.4-.33.86-.41 1.39s-.13 1.08-.13 1.66v5.39c0 .4.05.71.15.95.09.24.23.43.4.56.18.13.4.22.65.27.25.03.53.06.85.06h.08v1.5h-8.67v-1.5h.05c.33 0 .62-.03.89-.06.26-.05.5-.14.69-.28.2-.13.35-.33.46-.59.11-.25.17-.59.17-1.02v-8.35c0-.39-.05-.71-.15-.95-.09-.24-.23-.42-.41-.56-.18-.13-.39-.22-.64-.25-.25-.05-.53-.07-.84-.07h-.08v-1.5h5.92l.38 2h.13c.29-.53.59-.95.91-1.27.32-.31.65-.55 1.01-.71.36-.17.74-.27 1.14-.32.4-.04.82-.07 1.26-.07.73 0 1.38.11 1.96.32s1.07.54 1.47.98.71 1 .92 1.68c.21.69.31 1.51.31 2.47v6.55c0 .44.04.79.12 1.05s.19.46.35.6.36.23.6.28c.23.04.51.07.83.07h.09v1.5z" fill="#fb6107"/><path d="m238.21 174.97c0 .21-.03.41-.09.61-.07.2-.17.37-.32.52-.16.15-.37.26-.62.35-.27.09-.59.13-.98.13 0-.19-.03-.37-.09-.51-.05-.15-.13-.28-.24-.38-.1-.1-.21-.18-.34-.23s-.26-.08-.4-.08c-.15 0-.32.04-.5.1-.18.07-.31.14-.42.21.19.21.37.45.54.72s.31.56.44.88c.12.31.22.63.29.97s.11.68.11 1.03c0 .7-.11 1.36-.34 1.96-.22.6-.57 1.12-1.04 1.57-.46.44-1.06.78-1.78 1.03-.71.25-1.56.37-2.55.37-.09 0-.22 0-.38 0-.16-.01-.31-.01-.47-.02-.15 0-.3-.01-.44-.02-.15-.02-.25-.03-.33-.04-.12.06-.24.14-.37.24-.12.1-.23.2-.33.32-.09.12-.17.26-.23.4-.06.15-.09.31-.09.47 0 .31.12.54.36.69.25.15.57.22.96.22h3.42c.94 0 1.75.1 2.42.3.69.19 1.25.48 1.69.84.45.37.78.82.99 1.36s.32 1.14.32 1.81c0 .87-.17 1.65-.5 2.34-.33.68-.83 1.26-1.51 1.73-.67.48-1.53.84-2.55 1.09s-2.24.38-3.63.38c-2.22 0-3.88-.33-4.97-1-1.09-.66-1.63-1.64-1.63-2.93 0-1 .32-1.78.98-2.32.65-.53 1.6-.85 2.83-.96-.25-.1-.51-.22-.75-.37-.25-.14-.47-.32-.66-.52-.2-.21-.36-.45-.47-.71-.12-.27-.18-.57-.18-.9 0-.31.06-.6.19-.87.12-.27.29-.52.51-.77.22-.24.49-.47.79-.68.31-.22.65-.43 1.02-.64-.41-.15-.8-.35-1.15-.62-.36-.26-.66-.57-.91-.94s-.45-.78-.6-1.25c-.14-.47-.22-.99-.22-1.56 0-1.66.48-2.94 1.44-3.85.96-.92 2.45-1.38 4.46-1.38.67 0 1.29.09 1.86.26.58.17 1.07.37 1.5.61.15-.16.33-.34.52-.52.18-.19.39-.37.63-.52s.51-.28.8-.38c.3-.1.62-.15.98-.15.34 0 .63.04.89.13.25.08.46.2.63.35s.3.32.38.51c.09.19.13.4.13.62zm-12.27 17.38c0 .78.29 1.36.85 1.73s1.39.56 2.47.56c1.66 0 2.86-.24 3.62-.72.75-.48 1.13-1.18 1.13-2.11 0-.59-.19-1.01-.57-1.25s-.94-.36-1.71-.36h-3.28c-.28 0-.57.02-.87.08-.29.05-.56.15-.8.31-.24.15-.45.37-.6.65-.16.28-.24.65-.24 1.11zm1.89-13.06c0 .49.04.94.11 1.34s.18.74.34 1.03c.15.29.35.5.6.66s.56.24.92.24c.38 0 .69-.08.94-.23s.45-.37.59-.67c.15-.28.25-.63.31-1.04s.09-.87.09-1.37c0-.53-.03-1.01-.1-1.43-.06-.43-.16-.79-.32-1.09-.15-.31-.35-.55-.6-.72s-.56-.25-.93-.25-.68.09-.93.26c-.24.17-.44.42-.59.73-.16.31-.26.69-.33 1.12-.06.43-.1.9-.1 1.42z" fill="#fb6107"/><path d="m257.68 187.59c.69 0 1.3-.08 1.84-.24.53-.16 1.01-.37 1.44-.62.42-.26.79-.55 1.11-.87s.59-.64.83-.96c.15.12.27.29.35.52.09.22.13.46.13.7 0 .39-.1.81-.31 1.24-.21.44-.57.84-1.06 1.21-.5.37-1.16.67-1.97.91-.82.24-1.83.36-3.04.36-1.64 0-3.07-.25-4.28-.74-1.23-.5-2.24-1.2-3.05-2.12-.81-.9-1.42-2-1.82-3.27-.41-1.28-.61-2.7-.61-4.25 0-1.53.21-2.92.62-4.19.42-1.27 1.03-2.35 1.84-3.27.82-.91 1.83-1.61 3.05-2.12 1.22-.5 2.62-.76 4.22-.76 1.09 0 2.04.09 2.84.26s1.47.4 2 .69c.54.3.93.64 1.2 1.04s.4.84.4 1.29c0 .35-.07.67-.22.98-.16.29-.38.55-.68.77s-.67.4-1.11.52c-.44.13-.95.19-1.51.19 0-.47-.06-.94-.16-1.4s-.27-.89-.51-1.26c-.25-.38-.57-.69-.96-.92-.4-.23-.89-.35-1.48-.35-.89 0-1.65.19-2.26.56-.62.38-1.11.93-1.48 1.66-.38.72-.64 1.62-.81 2.68s-.25 2.27-.25 3.63.1 2.55.3 3.57c.21 1.02.54 1.87.98 2.54.45.68 1.04 1.18 1.76 1.52.73.34 1.61.5 2.66.5z" fill="#fb6107"/><path d="m276.37 189.56v-9.29c0-.61-.04-1.15-.12-1.63-.08-.47-.2-.87-.38-1.19s-.42-.56-.71-.73-.64-.26-1.05-.26c-.47 0-.86.12-1.18.36-.31.24-.56.56-.75.96s-.32.86-.4 1.39c-.09.53-.13 1.08-.13 1.66v5.39c0 .4.05.71.14.95.1.24.24.43.41.56s.39.22.64.26.54.06.85.06h.08v1.51h-8.66v-1.5h.05c.32 0 .61-.03.88-.07s.5-.13.7-.27c.2-.13.35-.33.46-.59s.16-.6.16-1.02v-14.79c0-.38-.06-.68-.19-.9-.14-.23-.3-.4-.51-.53-.2-.12-.42-.2-.66-.24-.23-.04-.45-.06-.65-.06h-.33v-1.48h6.63v4.64c0 .37-.01.77-.03 1.19-.03.42-.05.81-.08 1.17-.04.42-.07.83-.11 1.24h.25c.28-.53.59-.95.9-1.25.32-.31.65-.53 1.02-.68.35-.16.73-.25 1.13-.3.4-.04.82-.06 1.27-.06.72 0 1.37.11 1.95.32s1.07.54 1.47.98.71 1 .92 1.68c.21.69.32 1.51.32 2.47v6.55c0 .43.03.79.11 1.05s.2.46.36.6c.15.14.35.23.59.28.24.04.52.07.84.07h.08v1.5z" fill="#fb6107"/><path d="m289.02 185.36c0 .81.13 1.41.39 1.82.25.4.65.6 1.21.6.4 0 .77-.08 1.09-.25.33-.17.61-.41.84-.72.24-.32.42-.7.54-1.14.13-.45.19-.95.19-1.5v-2.13l-1.27.08c-.56.03-1.03.12-1.42.27-.38.16-.7.37-.93.63-.22.27-.39.6-.49.98-.1.39-.15.84-.15 1.36zm2.51-9.58c-.36 0-.66.08-.91.23-.24.16-.43.37-.58.64s-.25.59-.31.96-.09.78-.09 1.22c-1.27 0-2.22-.14-2.86-.43-.64-.28-.96-.77-.96-1.46 0-.51.16-.95.46-1.32.31-.37.73-.67 1.26-.89.53-.23 1.14-.4 1.84-.51.71-.11 1.46-.16 2.26-.16.99 0 1.85.09 2.6.26.73.17 1.35.44 1.84.82s.86.87 1.11 1.48.37 1.36.37 2.24v7.2c0 .38.03.7.09.96s.16.46.28.61c.13.16.31.26.53.33.22.06.48.1.8.1h.11v1.5h-5.25l-.59-1.94h-.25c-.32.38-.61.7-.89.99-.27.27-.57.51-.88.69-.31.19-.66.32-1.05.41s-.85.13-1.39.13c-.62 0-1.2-.1-1.74-.28s-1.01-.46-1.41-.85c-.4-.38-.71-.86-.94-1.43s-.34-1.26-.34-2.04c0-1.53.52-2.67 1.57-3.4 1.06-.74 2.64-1.14 4.75-1.2l2.32-.09v-1.55c0-.47-.02-.91-.06-1.3-.04-.4-.11-.74-.23-1.02s-.3-.51-.53-.66c-.24-.16-.55-.24-.93-.24z" fill="#fb6107"/><path d="m312.11 189.56v-9.29c0-.61-.04-1.15-.12-1.63-.08-.47-.21-.87-.39-1.19s-.41-.56-.7-.73-.64-.26-1.06-.26c-.47 0-.86.12-1.17.36s-.57.56-.75.96c-.19.4-.33.86-.41 1.39s-.13 1.08-.13 1.66v5.39c0 .4.05.71.15.95.09.24.23.43.4.56.18.13.39.22.65.27.25.03.53.06.84.06h.08v1.5h-8.66v-1.5h.05c.33 0 .62-.03.89-.06.26-.05.49-.14.69-.28.2-.13.35-.33.46-.59.11-.25.17-.59.17-1.02v-8.35c0-.39-.05-.71-.15-.95-.09-.24-.23-.42-.41-.56-.18-.13-.39-.22-.64-.25-.25-.05-.53-.07-.84-.07h-.08v-1.5h5.92l.37 2h.14c.29-.53.59-.95.9-1.27.32-.31.66-.55 1.02-.71.36-.17.74-.27 1.14-.32.4-.04.82-.07 1.26-.07.72 0 1.38.11 1.96.32s1.07.54 1.47.98.7 1 .92 1.68c.21.69.31 1.51.31 2.47v6.55c0 .44.04.79.12 1.05s.19.46.35.6.35.23.59.28c.24.04.52.07.84.07h.09v1.5z" fill="#fb6107"/><path d="m334.76 174.97c0 .21-.03.41-.09.61-.07.2-.17.37-.32.52-.16.15-.37.26-.63.35s-.58.13-.97.13c0-.19-.03-.37-.09-.51-.06-.15-.14-.28-.24-.38s-.21-.18-.34-.23-.26-.08-.4-.08c-.15 0-.32.04-.5.1-.18.07-.32.14-.42.21.19.21.37.45.54.72s.31.56.43.88c.13.31.23.63.3.97s.11.68.11 1.03c0 .7-.11 1.36-.34 1.96s-.57 1.12-1.04 1.57c-.46.44-1.06.78-1.78 1.03-.71.25-1.56.37-2.55.37-.1 0-.22 0-.38 0-.16-.01-.31-.01-.47-.02-.15 0-.3-.01-.44-.02-.15-.02-.25-.03-.33-.04-.12.06-.24.14-.37.24-.12.1-.23.2-.33.32-.09.12-.17.26-.24.4-.05.15-.08.31-.08.47 0 .31.12.54.36.69.25.15.57.22.96.22h3.42c.94 0 1.75.1 2.42.3.69.19 1.25.48 1.69.84.45.37.78.82.99 1.36s.32 1.14.32 1.81c0 .87-.17 1.65-.5 2.34-.33.68-.84 1.26-1.51 1.73-.68.48-1.53.84-2.55 1.09s-2.24.38-3.63.38c-2.22 0-3.88-.33-4.97-1-1.09-.66-1.63-1.64-1.63-2.93 0-1 .32-1.78.98-2.32.65-.53 1.59-.85 2.83-.96-.25-.1-.51-.22-.76-.37-.24-.14-.46-.32-.65-.52-.2-.21-.36-.45-.47-.71-.12-.27-.18-.57-.18-.9 0-.31.06-.6.18-.87.13-.27.3-.52.52-.77.22-.24.49-.47.79-.68.31-.22.65-.43 1.02-.64-.42-.15-.8-.35-1.15-.62-.36-.26-.66-.57-.91-.94s-.45-.78-.6-1.25c-.14-.47-.22-.99-.22-1.56 0-1.66.48-2.94 1.44-3.85.96-.92 2.45-1.38 4.46-1.38.67 0 1.29.09 1.86.26s1.07.37 1.5.61c.15-.16.33-.34.51-.52.19-.19.4-.37.64-.52s.51-.28.8-.38c.3-.1.62-.15.98-.15.34 0 .63.04.89.13.25.08.46.2.63.35s.3.32.38.51c.09.19.13.4.13.62zm-12.27 17.38c0 .78.28 1.36.85 1.73.56.37 1.39.56 2.47.56 1.66 0 2.86-.24 3.62-.72.75-.48 1.12-1.18 1.12-2.11 0-.59-.18-1.01-.56-1.25s-.95-.36-1.71-.36h-3.28c-.28 0-.57.02-.87.08-.29.05-.56.15-.81.31-.24.15-.44.37-.59.65-.16.28-.24.65-.24 1.11zm1.89-13.06c0 .49.04.94.11 1.34s.18.74.33 1.03c.16.29.36.5.61.66s.56.24.92.24c.38 0 .69-.08.94-.23s.45-.37.59-.67c.15-.28.25-.63.31-1.04s.09-.87.09-1.37c0-.53-.03-1.01-.1-1.43-.06-.43-.17-.79-.32-1.09-.15-.31-.35-.55-.6-.72s-.56-.25-.93-.25-.68.09-.93.26-.44.42-.59.73c-.16.31-.26.69-.33 1.12-.06.43-.1.9-.1 1.42z" fill="#fb6107"/><path d="m343.29 175.9c-.79 0-1.42.39-1.88 1.17-.47.78-.72 1.92-.77 3.43h4.88c0-.72-.04-1.36-.12-1.93-.09-.57-.22-1.05-.4-1.45-.17-.39-.41-.7-.68-.91-.28-.21-.63-.31-1.03-.31zm.26 13.94c-1.19 0-2.25-.17-3.16-.52-.92-.36-1.68-.86-2.3-1.52-.61-.67-1.08-1.47-1.39-2.43-.31-.97-.47-2.06-.47-3.3 0-1.32.16-2.48.47-3.48s.77-1.84 1.37-2.51c.59-.68 1.32-1.18 2.19-1.51.87-.34 1.86-.51 2.97-.51 1.02 0 1.94.15 2.76.44s1.51.72 2.08 1.28c.57.57 1.01 1.28 1.31 2.13.3.84.45 1.83.45 2.94v1.45h-9.24c.03.95.13 1.77.31 2.44.18.69.43 1.25.74 1.69.32.45.7.77 1.16.98.45.21.98.32 1.56.32.49 0 .94-.05 1.35-.17.42-.12.79-.28 1.13-.48.33-.21.63-.45.88-.74.25-.27.46-.57.63-.9.5.28.76.74.76 1.38 0 .4-.12.79-.34 1.15-.21.36-.56.68-1.01.96-.47.27-1.04.5-1.74.66-.69.16-1.51.25-2.47.25z" fill="#fb6107"/><path d="m364.49 180.58c0 1.12.06 2.22.18 3.3.11 1.08.32 2.1.64 3.06.31.96.74 1.85 1.29 2.65.55.81 1.26 1.5 2.13 2.08v1.81c-1.57-.64-2.91-1.37-4.02-2.23-1.11-.85-2.02-1.81-2.72-2.88-.7-1.08-1.22-2.26-1.54-3.56-.33-1.29-.49-2.7-.49-4.23 0-1.51.16-2.91.49-4.21.32-1.29.84-2.46 1.54-3.53s1.61-2.02 2.72-2.86c1.11-.85 2.45-1.59 4.02-2.21v1.78c-.87.58-1.58 1.27-2.13 2.07-.55.81-.98 1.69-1.29 2.64-.32.96-.53 1.97-.64 3.04-.12 1.07-.18 2.16-.18 3.28z" fill="#fb6107"/><path d="m390.26 170.89h-1.21c-.2 0-.38.03-.56.07-.17.04-.32.12-.46.25-.13.13-.24.31-.31.55s-.11.56-.11.97v11.01c0 .95-.14 1.8-.4 2.56-.28.75-.7 1.39-1.27 1.91-.58.53-1.31.93-2.2 1.21s-1.95.42-3.18.42-2.33-.12-3.3-.35c-.97-.24-1.79-.61-2.46-1.13-.67-.51-1.18-1.17-1.53-1.99-.35-.81-.53-1.8-.53-2.96v-10.79c0-.38-.04-.68-.12-.9-.08-.23-.18-.4-.32-.52-.13-.12-.28-.2-.45-.24s-.35-.07-.55-.07h-1.21v-1.48h9.73v1.48h-1.18c-.2 0-.38.03-.55.07-.18.04-.33.12-.47.25-.13.13-.24.31-.31.55s-.11.56-.11.97v10.9c0 .8.1 1.46.3 2s.48.97.84 1.29c.37.33.81.57 1.33.71.51.14 1.09.21 1.73.21.62 0 1.19-.08 1.69-.24.51-.16.94-.41 1.29-.75s.62-.77.82-1.3c.19-.52.29-1.14.29-1.86v-11.07c0-.38-.04-.68-.11-.9-.07-.23-.18-.4-.31-.52-.14-.12-.29-.2-.47-.24-.17-.04-.35-.07-.55-.07h-1.18v-1.48h7.39z" fill="#fb6107"/><path d="m402.54 189.56v-9.29c0-.61-.03-1.15-.11-1.63-.08-.47-.21-.87-.39-1.19s-.41-.56-.7-.73c-.3-.17-.64-.26-1.06-.26-.47 0-.86.12-1.17.36s-.57.56-.76.96c-.18.4-.32.86-.4 1.39-.09.53-.13 1.08-.13 1.66v5.39c0 .4.05.71.15.95.09.24.23.43.4.56.18.13.39.22.65.27.25.03.53.06.84.06h.08v1.5h-8.66v-1.5h.05c.33 0 .62-.03.89-.06.26-.05.49-.14.69-.28.2-.13.35-.33.46-.59.11-.25.17-.59.17-1.02v-8.35c0-.39-.05-.71-.15-.95-.09-.24-.23-.42-.41-.56-.18-.13-.39-.22-.64-.25-.25-.05-.53-.07-.84-.07h-.08v-1.5h5.92l.37 2h.14c.29-.53.59-.95.9-1.27.32-.31.66-.55 1.02-.71.36-.17.74-.27 1.14-.32.4-.04.82-.07 1.26-.07.72 0 1.38.11 1.96.32.57.21 1.07.54 1.47.98s.7 1 .91 1.68c.22.69.32 1.51.32 2.47v6.55c0 .44.04.79.12 1.05s.19.46.35.6.35.23.59.28c.24.04.52.07.84.07h.08v1.5z" fill="#fb6107"/><path d="m414.69 180.58c0-1.12-.06-2.21-.18-3.28-.11-1.07-.32-2.08-.63-3.04-.31-.95-.74-1.83-1.3-2.64-.55-.8-1.26-1.49-2.14-2.07v-1.78c1.58.62 2.92 1.36 4.03 2.21 1.11.84 2.03 1.79 2.73 2.86s1.22 2.24 1.53 3.53c.33 1.3.49 2.7.49 4.21 0 1.53-.16 2.94-.49 4.23-.31 1.3-.83 2.48-1.53 3.56-.7 1.07-1.62 2.03-2.73 2.88-1.11.86-2.45 1.59-4.03 2.23v-1.81c.88-.58 1.59-1.27 2.14-2.08.56-.8.99-1.69 1.3-2.65s.52-1.98.63-3.06c.12-1.08.18-2.18.18-3.3z" fill="#fb6107"/><path d="m432.81 187.59c.69 0 1.31-.08 1.84-.24.54-.16 1.02-.37 1.44-.62.43-.26.8-.55 1.11-.87.32-.32.6-.64.84-.96.14.12.26.29.35.52.09.22.13.46.13.7 0 .39-.1.81-.32 1.24-.21.44-.56.84-1.06 1.21s-1.15.67-1.97.91-1.83.36-3.03.36c-1.64 0-3.07-.25-4.29-.74-1.22-.5-2.24-1.2-3.05-2.12-.81-.9-1.41-2-1.82-3.27-.4-1.28-.6-2.7-.6-4.25 0-1.53.2-2.92.62-4.19.41-1.27 1.02-2.35 1.84-3.27.81-.91 1.83-1.61 3.04-2.12 1.22-.5 2.63-.76 4.23-.76 1.08 0 2.03.09 2.83.26.81.17 1.48.4 2.01.69.53.3.93.64 1.2 1.04s.4.84.4 1.29c0 .35-.08.67-.23.98-.15.29-.37.55-.68.77-.29.22-.66.4-1.11.52-.43.13-.94.19-1.51.19 0-.47-.05-.94-.15-1.4s-.27-.89-.52-1.26c-.24-.38-.56-.69-.96-.92-.39-.23-.89-.35-1.48-.35-.88 0-1.64.19-2.26.56-.61.38-1.11.93-1.48 1.66-.37.72-.64 1.62-.8 2.68-.17 1.06-.25 2.27-.25 3.63s.1 2.55.3 3.57.53 1.87.98 2.54c.45.68 1.04 1.18 1.76 1.52s1.6.5 2.65.5z" fill="#fb6107"/><path d="m455.65 181.94c0 2.65-.62 4.63-1.87 5.94-1.24 1.31-3.07 1.96-5.49 1.96-1.13 0-2.14-.17-3.04-.49-.9-.33-1.67-.82-2.3-1.47s-1.11-1.47-1.44-2.47c-.34-.99-.51-2.15-.51-3.47 0-2.66.62-4.64 1.87-5.93 1.25-1.3 3.08-1.95 5.5-1.95 1.13 0 2.15.16 3.04.49.9.32 1.66.81 2.29 1.46s1.11 1.47 1.45 2.46c.33.99.5 2.15.5 3.47zm-10.26 0c0 1 .05 1.88.15 2.64.11.77.28 1.41.51 1.92.24.52.54.91.92 1.17s.83.39 1.38.39c.54 0 1-.13 1.37-.39s.67-.65.91-1.17c.23-.51.4-1.15.5-1.92.1-.76.15-1.64.15-2.64 0-1.01-.05-1.9-.15-2.66-.11-.76-.28-1.39-.52-1.9-.23-.5-.53-.88-.91-1.13s-.84-.38-1.38-.38-1 .13-1.38.38c-.37.25-.68.63-.91 1.13-.22.51-.39 1.14-.49 1.9-.11.76-.15 1.65-.15 2.66z" fill="#fb6107"/><path d="m468.8 189.56v-9.29c0-.61-.04-1.15-.12-1.63-.08-.47-.2-.87-.38-1.19s-.42-.56-.71-.73-.64-.26-1.05-.26c-.47 0-.86.12-1.18.36-.31.24-.56.56-.75.96s-.32.86-.4 1.39c-.09.53-.13 1.08-.13 1.66v5.39c0 .4.05.71.14.95.1.24.24.43.41.56s.39.22.64.27c.25.03.54.06.85.06h.08v1.5h-8.66v-1.5h.05c.32 0 .61-.03.88-.06.27-.05.5-.14.7-.28.2-.13.35-.33.46-.59.11-.25.16-.59.16-1.02v-8.35c0-.39-.04-.71-.14-.95s-.24-.42-.42-.56c-.17-.13-.39-.22-.64-.25-.24-.05-.52-.07-.84-.07h-.08v-1.5h5.93l.37 2h.14c.28-.53.59-.95.9-1.27.32-.31.65-.55 1.02-.71.35-.17.73-.27 1.13-.32.4-.04.82-.07 1.27-.07.72 0 1.37.11 1.95.32s1.07.54 1.47.98.71 1 .92 1.68c.21.69.32 1.51.32 2.47v6.55c0 .44.03.79.11 1.05s.2.46.36.6c.15.14.35.23.59.28.24.04.52.07.84.07h.08v1.5z" fill="#fb6107"/><path d="m482.31 189.84c-1.02 0-1.89-.09-2.61-.25s-1.31-.4-1.76-.69c-.46-.29-.79-.64-1-1.05-.2-.4-.31-.84-.31-1.3s.09-.83.28-1.11c.17-.29.4-.5.67-.66.27-.15.56-.26.86-.31s.58-.07.83-.07c0 .58.07 1.11.21 1.58.15.47.36.87.62 1.19.27.33.59.58.96.75.38.18.79.26 1.25.26.48 0 .9-.04 1.26-.15.35-.1.64-.24.87-.42.22-.17.39-.38.5-.62.11-.23.16-.48.16-.74 0-.31-.05-.59-.17-.83-.11-.24-.3-.47-.57-.69s-.62-.43-1.07-.63c-.44-.21-.99-.43-1.66-.66-.76-.27-1.43-.55-2.01-.85-.59-.3-1.08-.64-1.48-1.02s-.7-.82-.9-1.31c-.21-.49-.32-1.06-.32-1.69 0-.75.15-1.41.44-1.97s.7-1.03 1.23-1.4c.54-.37 1.17-.65 1.91-.83.75-.18 1.58-.28 2.48-.28s1.65.08 2.28.23c.62.15 1.13.35 1.53.6.39.25.68.53.86.84.19.31.28.63.28.95 0 .63-.22 1.12-.67 1.45-.44.33-1.18.49-2.21.49 0-.94-.21-1.66-.63-2.18s-1.03-.78-1.85-.78c-.3 0-.59.04-.87.11s-.52.18-.73.33-.37.33-.5.55c-.12.21-.18.47-.18.76 0 .31.05.58.17.81.12.24.32.47.6.69.3.22.69.43 1.18.65.5.23 1.13.47 1.91.73.62.22 1.19.47 1.72.76.53.28.98.6 1.37.96.38.36.67.78.88 1.24.22.47.32 1 .32 1.6 0 .78-.14 1.47-.4 2.09-.28.62-.67 1.14-1.2 1.56-.52.42-1.17.74-1.93.97s-1.63.34-2.6.34z" fill="#fb6107"/><path d="m497.89 189.84c-1.04 0-1.99-.13-2.84-.4-.86-.27-1.6-.71-2.22-1.32-.61-.62-1.09-1.42-1.43-2.42-.34-.99-.51-2.21-.51-3.65 0-1.53.18-2.8.53-3.82.35-1.03.84-1.84 1.46-2.46.62-.61 1.35-1.05 2.2-1.31.84-.27 1.75-.4 2.72-.4.91 0 1.71.08 2.41.23s1.28.36 1.75.63c.47.26.83.58 1.07.94s.36.75.36 1.17c0 .3-.05.59-.16.89-.1.28-.29.54-.56.76s-.64.4-1.12.54c-.47.13-1.07.21-1.81.21 0-.49-.03-.96-.09-1.4s-.16-.83-.29-1.15c-.14-.34-.33-.6-.56-.8s-.53-.3-.89-.3c-.41 0-.78.1-1.1.3-.33.2-.61.54-.84 1.02-.23.47-.41 1.11-.54 1.91-.12.8-.18 1.81-.18 3.01 0 1.91.25 3.34.78 4.29.52.95 1.38 1.42 2.56 1.42.49 0 .95-.05 1.38-.17.42-.12.81-.28 1.16-.48.35-.21.65-.45.92-.74.26-.27.47-.57.64-.9.23.14.4.33.51.56.11.24.16.48.16.74 0 .36-.1.72-.31 1.09-.21.36-.54.7-.99 1-.45.29-1.01.54-1.7.73-.69.18-1.51.28-2.47.28z" fill="#fb6107"/><path d="m506.85 169.85c0-.36.07-.66.19-.92.13-.26.29-.47.51-.63s.47-.28.76-.36.6-.11.94-.11c.32 0 .63.03.93.11.29.08.55.2.77.36s.4.37.53.63.2.56.2.92c0 .35-.07.65-.2.91s-.31.47-.53.64c-.22.16-.48.28-.77.37-.3.08-.61.12-.93.12-.34 0-.65-.04-.94-.12-.29-.09-.54-.21-.76-.37-.22-.17-.38-.38-.51-.64-.12-.26-.19-.56-.19-.91zm-1.61 18.21c.21 0 .44-.03.67-.06.23-.05.45-.13.65-.26s.36-.31.5-.55c.13-.24.19-.56.19-.97v-8.57c0-.37-.06-.68-.19-.9-.14-.22-.3-.4-.51-.52-.2-.13-.42-.21-.65-.24-.24-.04-.46-.06-.66-.06h-.33v-1.5h6.63v11.79c0 .41.07.73.2.97s.3.42.5.55c.19.13.41.21.65.26.24.03.46.06.66.06h.33v1.5h-8.97v-1.5z" fill="#fb6107"/><path d="m530.34 181.94c0 2.65-.62 4.63-1.87 5.94-1.24 1.31-3.07 1.96-5.49 1.96-1.13 0-2.14-.17-3.04-.49-.9-.33-1.67-.82-2.3-1.47s-1.11-1.47-1.44-2.47c-.34-.99-.51-2.15-.51-3.47 0-2.66.62-4.64 1.87-5.93 1.25-1.3 3.08-1.95 5.5-1.95 1.13 0 2.15.16 3.04.49.9.32 1.66.81 2.29 1.46s1.11 1.47 1.45 2.46c.33.99.5 2.15.5 3.47zm-10.26 0c0 1 .05 1.88.15 2.64.11.77.28 1.41.51 1.92.24.52.54.91.92 1.17s.83.39 1.38.39c.54 0 1-.13 1.37-.39s.67-.65.91-1.17c.23-.51.4-1.15.5-1.92.1-.76.15-1.64.15-2.64 0-1.01-.05-1.9-.15-2.66-.11-.76-.28-1.39-.52-1.9-.23-.5-.53-.88-.91-1.13s-.84-.38-1.38-.38-1 .13-1.38.38c-.37.25-.68.63-.91 1.13-.22.51-.39 1.14-.49 1.9-.11.76-.15 1.65-.15 2.66z" fill="#fb6107"/><path d="m544.16 189.56-.62-1.99h-.13c-.29.48-.6.88-.93 1.17-.33.3-.68.53-1.06.69s-.77.27-1.19.32c-.42.06-.85.09-1.29.09-1.47 0-2.6-.46-3.39-1.37-.78-.91-1.18-2.31-1.18-4.21v-6.33c0-.41-.04-.75-.11-1.01-.07-.25-.18-.45-.34-.6s-.36-.25-.6-.31c-.25-.05-.54-.08-.88-.08h-.05v-1.5h6.27v9.04c0 .61.03 1.15.1 1.64s.19.9.35 1.25c.17.34.39.61.67.8.27.19.62.28 1.03.28.45 0 .84-.1 1.17-.3.33-.19.59-.48.8-.85.2-.37.36-.82.45-1.35.1-.53.15-1.12.15-1.78v-5.42c0-.42-.06-.74-.17-.98s-.25-.42-.44-.55c-.18-.12-.4-.2-.65-.23-.24-.03-.5-.05-.78-.05h-.08v-1.5h6.4v11.85c0 .41.05.74.15.97.09.23.23.41.39.53.17.12.36.2.59.22.23.04.49.06.76.06h.24v1.5z" fill="#fb6107"/><path d="m557 189.84c-1.02 0-1.89-.09-2.61-.25s-1.31-.4-1.76-.69c-.46-.29-.79-.64-1-1.05-.2-.4-.31-.84-.31-1.3s.09-.83.28-1.11c.18-.29.4-.5.67-.66.27-.15.56-.26.86-.31s.58-.07.83-.07c0 .58.07 1.11.21 1.58.15.47.36.87.62 1.19.27.33.59.58.96.75.38.18.79.26 1.25.26.49 0 .9-.04 1.26-.15.35-.1.64-.24.87-.42.22-.17.39-.38.5-.62.11-.23.17-.48.17-.74 0-.31-.06-.59-.18-.83-.11-.24-.3-.47-.57-.69s-.62-.43-1.07-.63c-.44-.21-.99-.43-1.66-.66-.76-.27-1.43-.55-2.01-.85-.59-.3-1.08-.64-1.48-1.02s-.7-.82-.9-1.31c-.21-.49-.31-1.06-.31-1.69 0-.75.14-1.41.43-1.97s.7-1.03 1.23-1.4c.54-.37 1.17-.65 1.91-.83.75-.18 1.58-.28 2.48-.28s1.65.08 2.28.23c.62.15 1.13.35 1.53.6.39.25.68.53.86.84.19.31.28.63.28.95 0 .63-.22 1.12-.67 1.45-.44.33-1.18.49-2.21.49 0-.94-.21-1.66-.63-2.18s-1.03-.78-1.85-.78c-.3 0-.59.04-.87.11s-.52.18-.73.33-.37.33-.5.55c-.12.21-.18.47-.18.76 0 .31.05.58.17.81.12.24.32.47.6.69.3.22.69.43 1.18.65.5.23 1.13.47 1.91.73.62.22 1.2.47 1.72.76.53.28.98.6 1.37.96.38.36.67.78.88 1.24.22.47.32 1 .32 1.6 0 .78-.14 1.47-.4 2.09-.28.62-.67 1.14-1.2 1.56-.52.42-1.17.74-1.93.97s-1.63.34-2.6.34z" fill="#fb6107"/><path d="m565.06 188.06c.21 0 .44-.03.67-.06.24-.05.45-.13.65-.26s.36-.31.5-.55c.13-.24.2-.56.2-.97v-14.9c0-.38-.07-.68-.2-.9-.14-.23-.3-.4-.5-.53-.21-.12-.43-.2-.66-.24s-.45-.06-.66-.06h-.33v-1.48h6.63v18.11c0 .41.07.73.2.97.14.24.3.42.5.55s.41.21.65.26c.24.03.46.06.66.06h.33v1.5h-8.97v-1.5z" fill="#fb6107"/><path d="m590.53 174.43v1.5c-.28 0-.53.03-.75.1-.22.06-.41.17-.59.34-.17.16-.33.37-.48.63-.14.26-.29.59-.44.99-.33.93-.68 1.89-1.03 2.86-.36.97-.72 1.95-1.09 2.93-.36.97-.72 1.95-1.08 2.92s-.72 1.92-1.06 2.86c-.33.9-.64 1.7-.93 2.39-.3.69-.6 1.29-.93 1.79-.33.51-.69.93-1.08 1.25-.4.33-.86.6-1.38.79-.52.2-1.13.34-1.83.43-.69.08-1.5.12-2.43.12h-.48v-1.64c.98 0 1.82-.12 2.51-.36.68-.23 1.27-.58 1.75-1.01.47-.45.87-.97 1.17-1.59.31-.61.58-1.29.81-2.04l-5.08-12.41c-.11-.26-.24-.47-.37-.63-.14-.16-.29-.28-.45-.36-.15-.08-.32-.13-.5-.16-.19-.02-.39-.03-.6-.03v-1.67h8.05v1.5c-.55 0-.99.08-1.3.22-.32.14-.48.42-.48.83 0 .15.04.34.1.56.06.21.12.39.18.53.16.39.33.82.51 1.28.18.47.36.93.53 1.4.16.46.33.91.48 1.34.16.43.3.81.42 1.15.14.35.25.67.34.96.1.29.17.55.23.79.06.23.11.45.14.65.04.19.07.39.09.58.02-.19.05-.4.11-.64.05-.23.11-.46.18-.68.06-.21.13-.4.19-.57s.11-.3.14-.37l1.86-5.52c.03-.09.07-.2.1-.32.03-.13.06-.26.09-.38.03-.13.05-.26.06-.38.01-.11.02-.22.02-.3 0-.43-.18-.73-.54-.89-.35-.16-.86-.24-1.51-.24v-1.5z" fill="#fb6107"/></g></svg>