<svg width="24" height="25" viewBox="0 0 24 25" xmlns="http://www.w3.org/2000/svg">
<g clip-path="url(#clip0_2281_1025)">
<path d="M0 6.59868H5.27139C5.81945 6.59868 6.09254 6.32685 6.09254 5.78444C6.09254 4.09771 6.09254 2.41036 6.08878 0.723634C6.08878 0.557028 6.11634 0.503163 6.29987 0.50379C9.57256 0.510053 12.8446 0.503789 16.1173 0.509426C17.3005 0.509426 18.2626 1.38943 18.2707 2.52811C18.2889 5.08106 18.2764 7.63464 18.2764 10.1895C18.1993 10.2108 18.1636 10.1481 18.1179 10.1149C17.0797 9.3502 15.8228 8.94016 14.5333 8.94557C10.8862 8.94181 7.23898 8.94181 3.59151 8.94557C3.09419 8.94118 2.81421 9.2293 2.81421 9.73037C2.81421 10.9254 2.81421 12.1203 2.81421 13.3149C2.81421 13.8128 3.0992 14.0978 3.59778 14.0978C5.15176 14.0978 6.70637 14.1041 8.26035 14.0922C8.4802 14.0922 8.51904 14.1548 8.48396 14.3477C8.4284 14.6716 8.41618 15.0015 8.44763 15.3286C8.46392 15.5121 8.37686 15.5058 8.24845 15.5058C6.94438 15.5033 5.64011 15.5033 4.33562 15.5058C4.07819 15.5058 3.82013 15.5058 3.5627 15.5058C3.13052 15.5102 2.81546 15.8065 2.81421 16.2067C2.81295 16.6069 3.12738 16.9101 3.55894 16.9107C5.20688 16.9107 6.85482 16.9151 8.50275 16.9063C8.68126 16.9063 8.76206 16.9558 8.81593 17.1243C8.94621 17.5389 9.16042 17.9172 9.39217 18.3175H9.11219C7.26111 18.3175 5.41003 18.3175 3.55894 18.3175C3.19566 18.3175 2.93823 18.5091 2.84177 18.8379C2.80239 18.9818 2.81023 19.1346 2.86412 19.2737C2.91801 19.4128 3.01512 19.531 3.14116 19.6108C3.29149 19.7067 3.45872 19.7248 3.6341 19.7242C5.89148 19.7242 8.14865 19.7227 10.4056 19.7198C10.559 19.717 10.7086 19.768 10.8284 19.8639C12.4312 21.0539 14.2026 21.4103 16.1374 20.9061C16.3103 20.861 16.4142 20.8829 16.5395 21.0126C17.0564 21.545 17.5813 22.0694 18.1141 22.5859C18.1676 22.6294 18.2052 22.6893 18.2212 22.7564C18.2372 22.8234 18.2306 22.8938 18.2025 22.9567C17.9287 23.7929 17.3838 24.3171 16.5013 24.4637C16.4838 24.4668 16.4693 24.4894 16.4537 24.5032H1.73437C1.72059 24.4549 1.67737 24.4606 1.64167 24.4506C0.833676 24.2345 0.30566 23.7296 0.0682723 22.9242C0.056998 22.8841 0.0632604 22.8258 0.000625054 22.8158L0 6.59868ZM11.4829 3.31667H8.29793C7.82316 3.31667 7.50246 3.5979 7.49933 4.01379C7.4962 4.42967 7.81689 4.71967 8.28603 4.71967H14.6792C15.1496 4.71967 15.4691 4.42967 15.4659 4.01128C15.4628 3.59289 15.144 3.31479 14.6673 3.31417L11.4829 3.31667ZM11.4829 6.1283C10.414 6.1283 9.34457 6.1283 8.27476 6.1283C7.81815 6.1283 7.50184 6.41266 7.4962 6.82103C7.49119 7.2388 7.80938 7.53317 8.27977 7.5338H14.6723C15.1452 7.5338 15.464 7.24694 15.4628 6.82855C15.4615 6.41015 15.1421 6.1283 14.668 6.1283H11.4829Z"/>
<path d="M22.2632 24.5C21.6901 24.2808 21.3237 23.811 20.9065 23.3958C19.8993 22.3936 18.9022 21.3846 17.8894 20.3893C17.7372 20.2397 17.7591 20.1858 17.927 20.0818C18.2878 19.8485 18.6186 19.5719 18.9122 19.2582C19.2092 18.9464 19.4756 18.6068 19.7077 18.2441C19.7363 18.2631 19.7635 18.284 19.7891 18.3068C21.0587 19.5757 22.3359 20.8366 23.5942 22.1168C23.7547 22.2795 23.8728 22.4792 23.9382 22.6982C24.0036 22.9172 24.0142 23.149 23.9691 23.373C23.924 23.5971 23.8246 23.8067 23.6797 23.9835C23.5347 24.1602 23.3486 24.2986 23.1376 24.3866C23.0361 24.4292 22.9296 24.4612 22.8244 24.4981L22.2632 24.5Z"/>
<path d="M14.5263 10.3467C15.7689 10.3463 16.9608 10.8394 17.84 11.7174C18.7192 12.5954 19.2139 13.7866 19.2152 15.0292C19.2153 16.272 18.7222 17.464 17.8441 18.3435C16.966 19.223 15.7747 19.718 14.5319 19.7198C13.2891 19.7198 12.0971 19.2266 11.2177 18.3484C10.3383 17.4702 9.84346 16.2789 9.8418 15.0361C9.84146 13.7931 10.3347 12.6009 11.2132 11.7216C12.0916 10.8422 13.2833 10.3477 14.5263 10.3467Z"/>
<path d="M10.6037 10.3774C9.8998 10.972 9.33963 11.7183 8.96516 12.5602C8.9515 12.6034 8.92289 12.6404 8.88444 12.6645C8.846 12.6886 8.80023 12.6983 8.75533 12.6917C7.29384 12.6888 5.83443 12.6888 4.37711 12.6917C4.23744 12.6917 4.21364 12.6453 4.21489 12.5195C4.22053 11.8486 4.21927 11.1778 4.21489 10.5064C4.21489 10.3999 4.22053 10.3411 4.3602 10.3417C6.42049 10.3475 8.48057 10.3494 10.5404 10.3473C10.5542 10.3486 10.5667 10.3598 10.6037 10.3774Z"/>
<path d="M0.455078 5.19133L4.6861 0.96167V1.1859C4.6861 2.44922 4.6861 3.71254 4.68986 4.97587C4.68986 5.14122 4.66418 5.19759 4.4794 5.19634C3.19287 5.18694 1.90571 5.19133 0.618556 5.19133H0.455078Z"/>
</g>
<defs>
<clipPath id="clip0_2281_1025">
<rect width="24" height="24" transform="translate(0 0.5)"/>
</clipPath>
</defs>
</svg>
