<svg width="21" height="25" viewBox="0 0 21 25" xmlns="http://www.w3.org/2000/svg">
<path d="M16.5 15.5C15.3 15.5 14.4 15.95 13.5 16.7L8.7 14C8.85 13.55 9 12.95 9 12.5C9 12.05 8.85 11.45 8.7 11L13.5 8.3C14.4 9.05 15.3 9.5 16.5 9.5C19.05 9.5 21 7.55 21 5C21 2.45 19.05 0.5 16.5 0.5C13.95 0.5 12 2.45 12 5V5.75L6.75 8.6C6.15 8.3 5.4 8 4.5 8C2.1 8 0 9.95 0 12.5C0 14.9 2.1 17 4.5 17C5.4 17 6.15 16.7 6.75 16.4L12 19.25V20C12 22.55 13.95 24.5 16.5 24.5C19.05 24.5 21 22.55 21 20C21 17.45 19.05 15.5 16.5 15.5Z"/>
</svg>
