<svg width="20" height="20" viewBox="0 0 20 20" xmlns="http://www.w3.org/2000/svg">
<path d="M4.60938 13H3.51172V7.28906H6.0625V8.22266H4.60938V9.77734H5.96875V10.7109H4.60938V13ZM8.66406 8.54297C8.72135 8.54297 8.77734 8.54818 8.83203 8.55859C8.88672 8.56641 8.95052 8.58073 9.02344 8.60156L8.92969 9.71094C8.8776 9.6901 8.82031 9.67578 8.75781 9.66797C8.69792 9.66016 8.63151 9.65625 8.55859 9.65625C8.4388 9.65625 8.33203 9.68229 8.23828 9.73438C8.14453 9.78646 8.0651 9.86198 8 9.96094C7.9375 10.0573 7.88932 10.1745 7.85547 10.3125C7.82422 10.4479 7.80859 10.6003 7.80859 10.7695V13H6.76953V8.625H7.57031L7.71875 9.34375H7.76953C7.82682 9.20573 7.89844 9.07552 7.98438 8.95312C8.07031 8.83073 8.17057 8.73177 8.28516 8.65625C8.39974 8.58073 8.52604 8.54297 8.66406 8.54297ZM10.9648 8.55078C11.293 8.55078 11.5703 8.63151 11.7969 8.79297C12.026 8.95443 12.1992 9.18359 12.3164 9.48047C12.4336 9.77474 12.4922 10.1237 12.4922 10.5273V11.1133H10.4062C10.4115 11.4961 10.4818 11.7786 10.6172 11.9609C10.7526 12.1406 10.9596 12.2305 11.2383 12.2305C11.4232 12.2305 11.5977 12.207 11.7617 12.1602C11.9284 12.1107 12.1055 12.0273 12.293 11.9102V12.7773C12.1185 12.8815 11.9323 12.957 11.7344 13.0039C11.5365 13.0534 11.3229 13.0781 11.0938 13.0781C10.6927 13.0781 10.3659 12.9883 10.1133 12.8086C9.86068 12.6263 9.67578 12.3685 9.55859 12.0352C9.44141 11.6992 9.38281 11.3008 9.38281 10.8398C9.38281 10.3477 9.44141 9.93229 9.55859 9.59375C9.67839 9.2526 9.85547 8.99349 10.0898 8.81641C10.3242 8.63932 10.6159 8.55078 10.9648 8.55078ZM10.9883 9.36719C10.8164 9.36719 10.6797 9.44531 10.5781 9.60156C10.4766 9.75521 10.4219 10.0078 10.4141 10.3594H11.5273C11.5273 10.1536 11.5065 9.97656 11.4648 9.82812C11.4232 9.67969 11.362 9.56641 11.2812 9.48828C11.2005 9.40755 11.1029 9.36719 10.9883 9.36719ZM14.6211 8.55078C14.9492 8.55078 15.2266 8.63151 15.4531 8.79297C15.6823 8.95443 15.8555 9.18359 15.9727 9.48047C16.0898 9.77474 16.1484 10.1237 16.1484 10.5273V11.1133H14.0625C14.0677 11.4961 14.138 11.7786 14.2734 11.9609C14.4089 12.1406 14.6159 12.2305 14.8945 12.2305C15.0794 12.2305 15.2539 12.207 15.418 12.1602C15.5846 12.1107 15.7617 12.0273 15.9492 11.9102V12.7773C15.7747 12.8815 15.5885 12.957 15.3906 13.0039C15.1927 13.0534 14.9792 13.0781 14.75 13.0781C14.349 13.0781 14.0221 12.9883 13.7695 12.8086C13.5169 12.6263 13.332 12.3685 13.2148 12.0352C13.0977 11.6992 13.0391 11.3008 13.0391 10.8398C13.0391 10.3477 13.0977 9.93229 13.2148 9.59375C13.3346 9.2526 13.5117 8.99349 13.7461 8.81641C13.9805 8.63932 14.2721 8.55078 14.6211 8.55078ZM14.6445 9.36719C14.4727 9.36719 14.3359 9.44531 14.2344 9.60156C14.1328 9.75521 14.0781 10.0078 14.0703 10.3594H15.1836C15.1836 10.1536 15.1628 9.97656 15.1211 9.82812C15.0794 9.67969 15.0182 9.56641 14.9375 9.48828C14.8568 9.40755 14.7591 9.36719 14.6445 9.36719Z"/>
</svg>
