<svg width="24" height="25" viewBox="0 0 24 25" xmlns="http://www.w3.org/2000/svg">
<path d="M12 0.5C10.4241 0.5 8.86371 0.810389 7.4078 1.41345C5.95189 2.0165 4.62902 2.90042 3.51472 4.01472C1.26428 6.26516 0 9.3174 0 12.5C0 15.6826 1.26428 18.7348 3.51472 20.9853C4.62902 22.0996 5.95189 22.9835 7.4078 23.5866C8.86371 24.1896 10.4241 24.5 12 24.5C15.1826 24.5 18.2348 23.2357 20.4853 20.9853C22.7357 18.7348 24 15.6826 24 12.5C24 10.9241 23.6896 9.36371 23.0866 7.9078C22.4835 6.45189 21.5996 5.12902 20.4853 4.01472C19.371 2.90042 18.0481 2.0165 16.5922 1.41345C15.1363 0.810389 13.5759 0.5 12 0.5ZM17.04 17.54L10.8 13.7V6.5H12.6V12.74L18 15.98L17.04 17.54Z"/>
</svg>
