<svg width="24" height="25" viewBox="0 0 24 25" xmlns="http://www.w3.org/2000/svg">
<g clip-path="url(#clip0_2281_1057)">
<path d="M18.9399 24.5006H17.7657C17.7401 24.4281 17.675 24.4556 17.6263 24.4481C14.0374 23.8986 11.8996 20.3655 13.0982 16.9531C13.1508 16.8043 13.1089 16.7511 12.9907 16.6861C12.1104 16.2022 11.23 15.717 10.3547 15.2237C10.209 15.1418 10.1383 15.145 10.022 15.2863C8.72278 16.8493 7.05838 17.5789 5.02509 17.3814C2.63165 17.1494 0.642753 15.3519 0.130678 13.0049C0.0944136 12.8373 0.119422 12.6498 0 12.5047V11.1455C0.0894099 11.0542 0.067528 10.9298 0.0856601 10.8216C0.513952 8.26765 2.78171 6.25759 5.37397 6.18757C7.4748 6.13067 9.13044 6.99284 10.3215 8.72843C10.4047 8.85347 10.4591 8.88911 10.6104 8.81908C11.3303 8.48564 12.0551 8.16303 12.785 7.85126C12.9669 7.77436 12.9951 7.69746 12.9444 7.50739C12.1541 4.5195 14.0073 1.4122 17.0085 0.685078C17.2761 0.622557 17.5462 0.564415 17.8151 0.504395H18.0496C18.0733 0.566916 18.1277 0.539406 18.1696 0.546908C18.3198 0.575838 18.4568 0.652172 18.5605 0.764702C18.6641 0.877232 18.729 1.02003 18.7454 1.17212C18.7553 1.32521 18.7145 1.47728 18.6295 1.60494C18.5444 1.73259 18.4197 1.82875 18.2746 1.87861C18.1549 1.91243 18.0318 1.93339 17.9076 1.94113C16.9919 2.036 16.1345 2.4351 15.4723 3.07464C13.8929 4.56264 13.716 7.08662 15.0828 8.69279C15.1029 8.66902 15.1216 8.64419 15.139 8.61839C15.5767 7.88377 16.2232 7.52427 17.0773 7.53178C17.3612 7.53178 17.6456 7.53178 17.9301 7.53178C17.3762 7.34984 16.916 7.05223 16.6034 6.55894C16.446 6.3202 16.3405 6.05114 16.2936 5.76911C16.2466 5.48708 16.2593 5.19834 16.3308 4.92151C16.4481 4.44339 16.7289 4.02131 17.1245 3.72825C17.5201 3.43519 18.0056 3.28958 18.4972 3.3166C18.9929 3.34447 19.4627 3.5466 19.8238 3.88729C20.1849 4.22797 20.4139 4.6853 20.4705 5.17848C20.5063 5.44645 20.488 5.71889 20.4165 5.97964C20.3451 6.24039 20.2221 6.48416 20.0547 6.69649C19.7291 7.12699 19.2539 7.4197 18.7229 7.51677C18.8918 7.53053 19.0556 7.52865 19.2194 7.53115C19.5001 7.53553 19.7821 7.51677 20.061 7.55366C20.7931 7.65244 21.3183 8.0632 21.6747 8.71092C21.7079 8.67029 21.7335 8.6409 21.7566 8.61027C22.2399 7.96275 22.5293 7.19134 22.5913 6.38576C22.6232 6.03814 22.8889 5.79869 23.2453 5.76055C23.5517 5.73054 23.8512 5.94124 23.9531 6.26072C23.9644 6.29511 23.95 6.34074 24.0006 6.35512V6.77714C23.895 6.94657 23.9093 7.14539 23.8699 7.33045C23.2541 10.1895 20.4505 12.1402 17.5737 11.6944C15.9193 11.4375 14.6295 10.5941 13.6972 9.20609C13.6134 9.08104 13.5634 9.02415 13.394 9.10418C12.6612 9.44804 11.9197 9.77253 11.1775 10.0964C11.0487 10.1527 11.0106 10.1964 11.0524 10.3465C11.3573 11.4533 11.3066 12.628 10.9074 13.7045C10.8505 13.8608 10.8836 13.9183 11.0149 13.9908C11.8903 14.4691 12.7656 14.9499 13.6309 15.4413C13.7998 15.537 13.8873 15.5364 14.0205 15.3707C15.0365 14.1128 16.3539 13.4044 17.9695 13.2643C18.1586 13.2507 18.3456 13.3117 18.4904 13.4341C18.6351 13.5566 18.7262 13.7308 18.7442 13.9196C18.7535 14.1006 18.693 14.2784 18.5752 14.4162C18.4574 14.5541 18.2912 14.6415 18.1108 14.6604C17.9483 14.6811 17.7838 14.6923 17.6238 14.723C15.6986 15.1056 14.35 16.588 14.1755 18.5493C14.0799 19.6252 14.41 20.5843 15.0784 21.4471C15.1078 21.4046 15.1265 21.3802 15.1409 21.3546C15.5786 20.6325 16.2151 20.2705 17.061 20.2767C17.3618 20.2767 17.6632 20.2767 17.9639 20.2767C17.4012 20.106 16.9285 19.8116 16.609 19.3114C16.4479 19.0703 16.34 18.7977 16.2925 18.5117C16.2451 18.2257 16.2592 17.9328 16.3339 17.6527C16.4548 17.1715 16.7415 16.7484 17.1436 16.4577C17.5457 16.167 18.0374 16.0274 18.5322 16.0634C19.5258 16.1259 20.3536 16.9137 20.4705 17.9353C20.5036 18.2036 20.483 18.4757 20.4098 18.736C20.3366 18.9962 20.2122 19.2392 20.0441 19.4508C19.7008 19.8991 19.2394 20.1567 18.6879 20.2667C19.0593 20.2767 19.4263 20.2711 19.7934 20.278C20.553 20.293 21.1351 20.6331 21.5559 21.2602C21.5966 21.3227 21.6122 21.4008 21.6872 21.4421C22.2077 20.7815 22.521 19.9816 22.5876 19.1432C22.6195 18.7981 22.8621 18.5624 23.2059 18.5111C23.4998 18.4667 23.798 18.6474 23.935 18.9488C23.9525 18.9869 23.9318 19.0488 23.9975 19.0588V19.5277C23.905 19.5827 23.9419 19.6821 23.9275 19.7584C23.4967 22.1386 21.8473 23.8548 19.4882 24.3812C19.3063 24.4262 19.1093 24.4019 18.9399 24.5006ZM8.92911 14.3828C10.1521 12.9298 10.2559 10.4196 8.55022 8.76719C7.7577 7.99619 6.69302 7.56892 5.58735 7.57817C4.48168 7.58742 3.42429 8.03243 2.64478 8.81658C0.959751 10.5047 1.13669 13.0055 2.31591 14.3766C2.32921 14.3605 2.34153 14.3436 2.35279 14.3259C2.79609 13.5613 3.45948 13.1906 4.3417 13.2006C4.63244 13.2049 4.92255 13.2006 5.27143 13.2006C3.91465 12.6954 3.33943 11.8195 3.56077 10.6641C3.74834 9.67875 4.65995 8.96038 5.6866 8.98477C6.71325 9.00915 7.57046 9.79191 7.71864 10.8641C7.86307 11.9108 7.19531 12.8023 5.93607 13.2006C6.26807 13.2006 6.56131 13.2074 6.85705 13.2006C7.78117 13.1768 8.46581 13.5657 8.92911 14.3828Z" />
<path d="M24.0013 15.547C23.7937 16.0203 23.4004 16.0959 22.9384 16.0672C22.5939 16.0453 22.5933 16.0628 22.5933 16.3979C22.5933 16.5305 22.5983 16.6636 22.5933 16.7962C22.5854 16.9758 22.5089 17.1456 22.3794 17.2705C22.25 17.3953 22.0776 17.4657 21.8977 17.4671C21.7179 17.4684 21.5444 17.4007 21.4131 17.2778C21.2817 17.1549 21.2026 16.9863 21.1921 16.8068C21.1802 16.6353 21.1802 16.4631 21.1921 16.2916C21.2058 16.1191 21.1671 16.0359 20.9707 16.0591C20.8072 16.0719 20.6429 16.0719 20.4793 16.0591C20.2967 16.0524 20.1239 15.9748 19.9976 15.8428C19.8713 15.7108 19.8014 15.5348 19.8028 15.3521C19.8041 15.1694 19.8767 14.9944 20.005 14.8643C20.1333 14.7343 20.3073 14.6593 20.4899 14.6554C20.6694 14.6511 20.8494 14.6454 21.0283 14.6554C21.1683 14.6648 21.1983 14.6104 21.1915 14.4835C21.1815 14.3041 21.1846 14.124 21.1915 13.9446C21.1931 13.759 21.2679 13.5816 21.3996 13.4508C21.5313 13.3201 21.7093 13.2465 21.8949 13.2462C22.2788 13.2462 22.5789 13.5501 22.597 13.9477C22.6076 14.1784 22.4963 14.4873 22.6426 14.6179C22.7677 14.7317 23.0734 14.6498 23.2985 14.6517C23.6574 14.6554 23.8519 14.8812 24.0026 15.1675L24.0013 15.547Z" />
<path d="M24.0006 2.79701C23.8067 3.24591 23.4441 3.34657 22.9933 3.31906C22.5957 3.2953 22.5944 3.31406 22.5944 3.71357C22.5944 3.83111 22.6 3.94865 22.5944 4.06494C22.5821 4.24169 22.5034 4.40725 22.374 4.52834C22.2447 4.64943 22.0743 4.71709 21.8971 4.71772C21.7199 4.71835 21.549 4.65191 21.4188 4.53175C21.2886 4.41159 21.2087 4.2466 21.1951 4.06994C21.1829 3.88258 21.1829 3.69461 21.1951 3.50725C21.2032 3.36283 21.1726 3.29468 21.0075 3.31031C20.8359 3.32032 20.6639 3.32032 20.4923 3.31031C20.3063 3.3118 20.1272 3.23932 19.9946 3.10883C19.862 2.97833 19.7867 2.80049 19.7852 2.61445C19.7837 2.4284 19.8562 2.24938 19.9867 2.11677C20.1172 1.98416 20.295 1.90883 20.4811 1.90733C20.6526 1.89545 20.8247 1.89545 20.9963 1.90733C21.1695 1.92422 21.2139 1.85669 21.1939 1.69914C21.182 1.60661 21.1989 1.51158 21.1901 1.41842C21.1476 0.968266 21.322 0.654409 21.7528 0.495605H22.0342C22.4493 0.649408 22.6207 0.944505 22.6019 1.38841C22.58 1.90295 22.5975 1.91734 23.1084 1.89921C23.546 1.88358 23.8524 2.04175 24.0031 2.4619L24.0006 2.79701Z" />
</g>
<defs>
<clipPath id="clip0_2281_1057">
<rect width="24" height="24" transform="translate(0 0.5)"/>
</clipPath>
</defs>
</svg>
