<svg width="24" height="25" viewBox="0 0 24 25" xmlns="http://www.w3.org/2000/svg">
<g clip-path="url(#clip0_2281_1034)">
<path d="M-0.000702723 10.5293C0.0957784 10.3333 0.199779 10.1504 0.415922 10.0508C0.56315 9.98315 0.616401 10.0163 0.649606 10.1698C0.867001 11.1663 1.08816 12.1621 1.31244 13.1573C1.59061 14.4037 1.87024 15.6497 2.15133 16.8952C2.24468 17.308 2.4934 17.5071 2.91253 17.5078C3.90428 17.5078 4.89541 17.5134 5.88716 17.5078C5.95202 17.5042 6.01684 17.5155 6.07667 17.5407C6.1365 17.566 6.18975 17.6047 6.23236 17.6537C6.46792 17.9042 6.71225 18.1447 6.96035 18.3827C7.00026 18.4183 7.03168 18.4624 7.05229 18.5117C7.07289 18.561 7.08215 18.6143 7.07939 18.6677C7.07563 20.5492 7.07563 22.4304 7.07939 24.3115C7.07939 24.47 7.03177 24.4994 6.88517 24.4994C4.84779 24.4948 2.8102 24.4948 0.772401 24.4994C0.385224 24.4994 0.159684 24.2977 -0.00195312 23.9808L-0.000702723 10.5293Z"/>
<path d="M13.5469 0.5C13.6898 0.580795 13.8546 0.571404 14.0068 0.612741C14.7825 0.820664 15.4628 1.28972 15.9328 1.94077C16.4028 2.59182 16.6337 3.38501 16.5867 4.18653C16.5349 4.97941 16.2134 5.73071 15.6754 6.31565C15.1375 6.90059 14.4156 7.28395 13.6296 7.40206C13.3281 7.44581 13.0227 7.45715 12.7187 7.43588C12.0245 7.39517 11.3561 7.50603 10.692 7.70082C10.162 7.85677 9.62003 7.97264 9.08438 8.11168C8.80496 8.18434 8.55561 8.14174 8.35325 7.92942C8.15089 7.7171 8.10892 7.45279 8.20602 7.16969C8.34511 6.76509 8.47793 6.35548 8.61764 5.95338C8.6375 5.90415 8.64546 5.85093 8.64089 5.79804C8.63632 5.74515 8.61934 5.69408 8.59132 5.64899C7.43104 3.52826 8.68968 0.95659 11.086 0.545097C11.1174 0.53946 11.1487 0.537579 11.1562 0.5H13.5469Z" />
<path d="M2.69032 9.15198C1.42855 8.00769 1.68792 6.316 2.59447 5.46546C3.57996 4.54288 5.15498 4.60865 6.08909 5.59949C6.9192 6.48072 7.15415 8.34716 5.49705 9.43132C6.28331 9.96432 6.57463 10.7698 6.75005 11.6491C6.89289 12.3675 7.07082 13.0784 7.22494 13.7949C7.25751 13.9465 7.31014 14.0022 7.47992 14.0041C8.05568 14.0104 8.63456 13.9415 9.20531 14.088C10.4063 14.3974 11.2897 15.4966 11.2947 16.7392C11.3035 19.0742 11.2984 21.4097 11.2947 23.7453C11.2947 24.1987 11.0002 24.4918 10.5479 24.4968C9.9308 24.5 9.31369 24.4906 8.69659 24.5019C8.52493 24.5019 8.47794 24.4674 8.47857 24.2883C8.48608 22.3204 8.47857 20.3519 8.48797 18.3833C8.49447 18.2358 8.46856 18.0886 8.41206 17.9522C8.35556 17.8157 8.26984 17.6933 8.16093 17.5935C7.7654 17.2177 7.37885 16.8311 7.00128 16.4336C6.90281 16.3234 6.78106 16.2365 6.64486 16.1792C6.50865 16.1219 6.36139 16.0956 6.21376 16.1023C5.34731 16.116 4.47961 16.1023 3.61253 16.1104C3.46468 16.1104 3.40203 16.0803 3.36632 15.9188C2.9261 13.9179 2.47752 11.9182 2.02059 9.91985C1.97298 9.71379 2.00243 9.58352 2.18411 9.47767C2.35327 9.37808 2.51302 9.2666 2.69032 9.15198Z" />
<path d="M18.5109 9.41697C17.7384 8.92969 17.2968 8.24387 17.2642 7.3357C17.2499 7.01089 17.3026 6.68661 17.4191 6.38307C17.5356 6.07952 17.7134 5.80321 17.9414 5.57136C18.3944 5.09863 19.0166 4.82498 19.6712 4.81054C20.3259 4.79609 20.9595 5.04203 21.4329 5.49432C22.3269 6.35989 22.5456 8.03217 21.3108 9.14702L21.8815 9.52908C21.9855 9.59923 22.0262 9.67125 21.993 9.81781C21.5294 11.8609 21.0731 13.9069 20.6241 15.9558C20.5909 16.1073 20.512 16.1098 20.3942 16.1092C19.5039 16.1092 18.6137 16.113 17.724 16.1048C17.5994 16.1 17.4752 16.1219 17.3598 16.1692C17.2444 16.2164 17.1404 16.2878 17.0549 16.3785C16.6398 16.8019 16.2202 17.2216 15.7963 17.6374C15.7022 17.7251 15.628 17.8321 15.5788 17.9509C15.5296 18.0698 15.5066 18.1978 15.5112 18.3264C15.5162 20.3093 15.5112 22.2929 15.5181 24.2764C15.5181 24.4568 15.4768 24.5088 15.292 24.505C14.683 24.4925 14.0734 24.5019 13.4645 24.4994C12.9952 24.4994 12.7026 24.2094 12.702 23.7428C12.702 21.416 12.6957 19.0899 12.702 16.7631C12.707 15.2524 13.955 14.016 15.4649 14.0029C15.8163 14.0029 16.1684 13.9891 16.5193 14.0079C16.6953 14.0179 16.7398 13.9453 16.7699 13.7981C16.9647 12.9156 17.1696 12.0356 17.365 11.1538C17.5149 10.4514 17.9241 9.83123 18.5109 9.41697Z" />
<path d="M23.9987 17.254C23.9987 19.386 23.9987 21.5182 23.9987 23.6507C23.9987 24.2306 23.7356 24.4949 23.158 24.4949C21.1531 24.4949 19.1433 24.4949 17.1354 24.4993C16.9662 24.4993 16.9161 24.4674 16.9167 24.2864C16.9243 22.4199 16.9243 20.5533 16.9167 18.6864C16.9132 18.6291 16.9226 18.5718 16.9443 18.5187C16.966 18.4655 16.9994 18.418 17.042 18.3795C17.3365 18.1002 17.5752 17.7006 17.9223 17.5553C18.2694 17.41 18.7198 17.5127 19.1252 17.5115C19.773 17.5115 20.4214 17.5115 21.0673 17.5115C21.5059 17.5115 21.7496 17.3198 21.8461 16.8908C22.3473 14.6711 22.8449 12.451 23.339 10.2305C23.3954 9.97994 23.4305 9.9599 23.6523 10.0952C23.9116 10.2536 23.9993 10.4954 23.9987 10.7904C23.9962 12.9441 23.9962 15.0987 23.9987 17.254Z"/>
</g>
<defs>
<clipPath id="clip0_2281_1034">
<rect width="24" height="24" transform="translate(0 0.5)"/>
</clipPath>
</defs>
</svg>
