<svg width="24" height="25" viewBox="0 0 24 25" xmlns="http://www.w3.org/2000/svg">
<path d="M12 0.5C13.1016 0.5 14.1641 0.640625 15.1875 0.921875C16.2109 1.20312 17.1641 1.60938 18.0469 2.14062C18.9297 2.67188 19.7383 3.29688 20.4727 4.01562C21.207 4.73438 21.8359 5.54297 22.3594 6.44141C22.8828 7.33984 23.2852 8.29688 23.5664 9.3125C23.8477 10.3281 23.9922 11.3906 24 12.5C24 13.6016 23.8594 14.6641 23.5781 15.6875C23.2969 16.7109 22.8906 17.6641 22.3594 18.5469C21.8281 19.4297 21.2031 20.2383 20.4844 20.9727C19.7656 21.707 18.957 22.3359 18.0586 22.8594C17.1602 23.3828 16.2031 23.7852 15.1875 24.0664C14.1719 24.3477 13.1094 24.4922 12 24.5C10.8984 24.5 9.83594 24.3594 8.8125 24.0781C7.78906 23.7969 6.83594 23.3906 5.95312 22.8594C5.07031 22.3281 4.26172 21.7031 3.52734 20.9844C2.79297 20.2656 2.16406 19.457 1.64062 18.5586C1.11719 17.6602 0.714844 16.7031 0.433594 15.6875C0.152344 14.6719 0.0078125 13.6094 0 12.5C0 11.3984 0.140625 10.3359 0.421875 9.3125C0.703125 8.28906 1.10938 7.33594 1.64062 6.45312C2.17188 5.57031 2.79688 4.76172 3.51562 4.02734C4.23438 3.29297 5.04297 2.66406 5.94141 2.14062C6.83984 1.61719 7.79688 1.21484 8.8125 0.933594C9.82812 0.652344 10.8906 0.507812 12 0.5ZM12 18.7578C12.6016 18.7578 13.1836 18.6758 13.7461 18.5117C14.3086 18.3477 14.8398 18.1055 15.3398 17.7852C15.8398 17.4648 16.2852 17.0898 16.6758 16.6602C17.0664 16.2305 17.3945 15.7383 17.6602 15.1836L15.832 14.3164C15.6523 14.6836 15.4297 15.0156 15.1641 15.3125C14.8984 15.6094 14.5977 15.8633 14.2617 16.0742C13.9258 16.2852 13.5664 16.4492 13.1836 16.5664C12.8008 16.6836 12.4062 16.7422 12 16.7422C11.4375 16.7422 10.9023 16.6328 10.3945 16.4141C9.88672 16.1953 9.42969 15.8906 9.02344 15.5H10.5V14H6V18.5H7.5V16.8359C8.08594 17.4453 8.76953 17.918 9.55078 18.2539C10.332 18.5898 11.1484 18.7578 12 18.7578ZM18 11V6.5H16.5V8.16406C15.9141 7.55469 15.2305 7.08203 14.4492 6.74609C13.668 6.41016 12.8516 6.24219 12 6.24219C11.3984 6.24219 10.8164 6.32422 10.2539 6.48828C9.69141 6.65234 9.16016 6.89453 8.66016 7.21484C8.16016 7.53516 7.71484 7.91016 7.32422 8.33984C6.93359 8.76953 6.60547 9.26172 6.33984 9.81641L8.16797 10.6836C8.33984 10.3164 8.55859 9.98438 8.82422 9.6875C9.08984 9.39062 9.39453 9.13672 9.73828 8.92578C10.082 8.71484 10.4414 8.55078 10.8164 8.43359C11.1914 8.31641 11.5859 8.25781 12 8.25781C12.5625 8.25781 13.0977 8.36719 13.6055 8.58594C14.1133 8.80469 14.5703 9.10938 14.9766 9.5H13.5V11H18Z" />
</svg>
