<svg width="24" height="23" viewBox="0 0 24 23" xmlns="http://www.w3.org/2000/svg">
<path fill-rule="evenodd" clip-rule="evenodd" d="M21.6 0.699951H2.4C1.08 0.699951 0 1.77995 0 3.09995V19.9C0 21.22 1.08 22.3 2.4 22.3H21.6C22.92 22.3 24 21.22 24 19.9V3.09995C24 1.77995 22.92 0.699951 21.6 0.699951ZM8.4 17.5H4.8C4.14 17.5 3.6 16.96 3.6 16.3C3.6 15.64 4.14 15.1 4.8 15.1H8.4C9.06 15.1 9.6 15.64 9.6 16.3C9.6 16.96 9.06 17.5 8.4 17.5ZM8.4 12.7H4.8C4.14 12.7 3.6 12.16 3.6 11.5C3.6 10.84 4.14 10.3 4.8 10.3H8.4C9.06 10.3 9.6 10.84 9.6 11.5C9.6 12.16 9.06 12.7 8.4 12.7ZM8.4 7.89995H4.8C4.14 7.89995 3.6 7.35995 3.6 6.69995C3.6 6.03995 4.14 5.49995 4.8 5.49995H8.4C9.06 5.49995 9.6 6.03995 9.6 6.69995C9.6 7.35995 9.06 7.89995 8.4 7.89995ZM20.04 10.444L16.236 14.248C15.768 14.716 15 14.716 14.532 14.248L12.84 12.544C12.372 12.076 12.372 11.32 12.84 10.852C13.308 10.384 14.064 10.384 14.532 10.852L15.384 11.704L18.348 8.73995C18.816 8.27195 19.572 8.27195 20.04 8.73995L20.052 8.75195C20.508 9.21995 20.508 9.98795 20.04 10.444Z"/>
</svg>
