<svg width="20" height="20" viewBox="0 0 20 20" xmlns="http://www.w3.org/2000/svg">
<path d="M17.619 9.80017C16.8574 10.5634 15.8865 11.0837 14.8292 11.2951C13.7719 11.5066 12.6756 11.3998 11.679 10.9882L5.187 18.8122C3.999 20.0002 2.079 20.0002 0.891 18.8122C-0.297 17.6242 -0.297 15.7042 0.891 14.5282L8.715 8.02417C7.899 6.04417 8.295 3.69217 9.903 2.08417C11.439 0.548169 13.647 0.140169 15.567 0.812169L12.099 4.28017L15.483 7.66417L18.915 4.22017C19.551 6.11617 19.131 8.28817 17.619 9.80017ZM2.175 17.5282C2.655 17.9962 3.423 17.9962 3.891 17.5282C4.371 17.0482 4.371 16.2802 3.891 15.8122C3.423 15.3322 2.655 15.3322 2.175 15.8122C1.95001 16.0411 1.82393 16.3492 1.82393 16.6702C1.82393 16.9911 1.95001 17.2993 2.175 17.5282Z"/>
</svg>
