<svg width="100" height="32" viewBox="0 0 100 32" fill="none" xmlns="http://www.w3.org/2000/svg">
<g clip-path="url(#clip0_6556_6119)">
<path fill-rule="evenodd" clip-rule="evenodd" d="M62.0382 24.4893C56.227 28.7676 47.8041 31.0502 40.5521 31.0502C30.3836 31.0502 21.2294 27.2936 14.3039 21.0458C13.7598 20.5545 14.2473 19.8849 14.9002 20.2676C22.3742 24.611 31.6155 27.2241 41.1615 27.2241C47.5995 27.2241 54.6817 25.8936 61.1937 23.1328C62.1775 22.7154 63.0002 23.7763 62.0382 24.4893Z" fill="#FF9900"/>
<path fill-rule="evenodd" clip-rule="evenodd" d="M64.4537 21.7285C63.7137 20.7806 59.5436 21.2806 57.6718 21.5024C57.1016 21.5719 57.0145 21.0763 57.5282 20.7198C60.8495 18.385 66.2993 19.0589 66.9349 19.8415C67.5704 20.6285 66.7695 26.085 63.6484 28.6893C63.1696 29.0893 62.7125 28.8763 62.9258 28.3459C63.6266 26.598 65.1981 22.6806 64.4537 21.7285Z" fill="#FF9900"/>
<path fill-rule="evenodd" clip-rule="evenodd" d="M57.8026 4.23703V1.96747C57.8026 1.62399 58.0637 1.39355 58.3772 1.39355H68.55C68.8764 1.39355 69.1376 1.62834 69.1376 1.96747V3.91094C69.1333 4.23703 68.859 4.66312 68.3715 5.33703L63.1001 12.8544C65.0589 12.8066 67.1266 13.0979 68.9026 14.0979C69.303 14.324 69.4119 14.6544 69.4423 14.9805V17.4022C69.4423 17.7327 69.0767 18.1196 68.6936 17.9196C65.5639 16.2805 61.4068 16.1022 57.9462 17.937C57.5936 18.1283 57.2236 17.7457 57.2236 17.4153V15.1153C57.2236 14.7457 57.228 14.1153 57.598 13.5544L63.7052 4.8066H58.3902C58.0637 4.8066 57.8026 4.57616 57.8026 4.23703Z" fill="black"/>
<path fill-rule="evenodd" clip-rule="evenodd" d="M20.6937 18.3982H17.5987C17.3027 18.3764 17.0677 18.1547 17.0459 17.8721V2.00689C17.0459 1.6895 17.3114 1.43732 17.6423 1.43732H20.5282C20.8286 1.45036 21.068 1.6808 21.0898 1.96776V4.04167H21.1464C21.8994 2.03732 23.3141 1.10254 25.2207 1.10254C27.1578 1.10254 28.3679 2.03732 29.2385 4.04167C29.9872 2.03732 31.6892 1.10254 33.5131 1.10254C34.8102 1.10254 36.2293 1.63732 37.0955 2.83732C38.0749 4.1721 37.8747 6.11123 37.8747 7.81123L37.8703 17.8243C37.8703 18.1417 37.6048 18.3982 37.274 18.3982H34.1834C33.8744 18.3764 33.6262 18.1286 33.6262 17.8243V9.41558C33.6262 8.74601 33.6872 7.07645 33.5392 6.44167C33.3085 5.37645 32.6164 5.07645 31.7196 5.07645C30.9709 5.07645 30.1874 5.57645 29.8696 6.37645C29.5519 7.17645 29.5824 8.51558 29.5824 9.41558V17.8243C29.5824 18.1417 29.3168 18.3982 28.986 18.3982H25.8954C25.582 18.3764 25.3382 18.1286 25.3382 17.8243L25.3339 9.41558C25.3339 7.64601 25.6255 5.04167 23.4273 5.04167C21.203 5.04167 21.29 7.58079 21.29 9.41558V17.8243C21.29 18.1417 21.0245 18.3982 20.6937 18.3982Z" fill="black"/>
<path fill-rule="evenodd" clip-rule="evenodd" d="M77.8959 1.10254C82.4882 1.10254 84.9737 5.04167 84.9737 10.0504C84.9737 14.8895 82.227 18.7286 77.8959 18.7286C73.3862 18.7286 70.9312 14.7895 70.9312 9.88079C70.9312 4.94167 73.4167 1.10254 77.8959 1.10254ZM77.922 4.34167C75.641 4.34167 75.4974 7.44601 75.4974 9.38079C75.4974 11.3199 75.4669 15.4591 77.8959 15.4591C80.2943 15.4591 80.4075 12.1199 80.4075 10.0851C80.4075 8.74601 80.3509 7.14601 79.9461 5.87645C79.5978 4.7721 78.9057 4.34167 77.922 4.34167Z" fill="black"/>
<path fill-rule="evenodd" clip-rule="evenodd" d="M90.9286 18.3982H87.8467C87.5376 18.3764 87.2895 18.1286 87.2895 17.8243L87.2852 1.95471C87.3113 1.66341 87.5681 1.43732 87.8815 1.43732H90.7501C91.02 1.45036 91.242 1.63297 91.3029 1.8808V4.30688H91.3595C92.2257 2.13732 93.4402 1.10254 95.5775 1.10254C96.9661 1.10254 98.3198 1.60254 99.1904 2.9721C100 4.24167 100 6.37645 100 7.91123V17.8982C99.9653 18.1764 99.7084 18.3982 99.4037 18.3982H96.3001C96.0171 18.3764 95.7821 18.1677 95.7516 17.8982V9.2808C95.7516 7.54601 95.9518 5.00688 93.8146 5.00688C93.0615 5.00688 92.3694 5.51123 92.0255 6.27645C91.5902 7.24602 91.5336 8.21123 91.5336 9.2808V17.8243C91.5293 18.1417 91.2594 18.3982 90.9286 18.3982Z" fill="black"/>
<path fill-rule="evenodd" clip-rule="evenodd" d="M49.6931 10.8198C49.6931 12.0241 49.7236 13.0284 49.1142 14.098C48.6223 14.9676 47.8388 15.5024 46.9725 15.5024C45.7842 15.5024 45.0877 14.598 45.0877 13.2632C45.0877 10.6285 47.4514 10.1502 49.6931 10.1502V10.8198ZM52.8142 18.3545C52.6096 18.5371 52.3136 18.5502 52.0829 18.4284C51.0556 17.5763 50.8684 17.1806 50.3069 16.3676C48.6093 18.098 47.4035 18.6154 45.2053 18.6154C42.5978 18.6154 40.5737 17.0111 40.5737 13.798C40.5737 11.2893 41.9318 9.58063 43.8733 8.74584C45.5535 8.00671 47.8997 7.87628 49.6931 7.67193V7.27193C49.6931 6.53715 49.7497 5.66758 49.3144 5.0328C48.9401 4.46324 48.2175 4.22845 47.5776 4.22845C46.398 4.22845 45.3489 4.8328 45.0921 6.08497C45.0398 6.36324 44.8353 6.63715 44.5523 6.65019L41.5531 6.32845C41.3007 6.27193 41.0177 6.06758 41.0917 5.68063C41.7795 2.04585 45.0703 0.950195 48.0129 0.950195C49.519 0.950195 51.4865 1.3502 52.6749 2.48932C54.181 3.89367 54.0374 5.76758 54.0374 7.80671V12.6241C54.0374 14.0719 54.6381 14.7067 55.2039 15.4893C55.3998 15.7676 55.4434 16.1024 55.1909 16.3111C54.5597 16.8371 53.4366 17.8154 52.8185 18.3632L52.8142 18.3545Z" fill="black"/>
<path fill-rule="evenodd" clip-rule="evenodd" d="M9.1194 10.8198C9.1194 12.0241 9.14987 13.0284 8.54046 14.098C8.04858 14.9676 7.2694 15.5024 6.39881 15.5024C5.21046 15.5024 4.51835 14.598 4.51835 13.2632C4.51835 10.6285 6.88199 10.1502 9.1194 10.1502V10.8198ZM12.2405 18.3545C12.0359 18.5371 11.7399 18.5502 11.5092 18.4284C10.4819 17.5763 10.299 17.1806 9.73316 16.3676C8.03552 18.098 6.83411 18.6154 4.63152 18.6154C2.02847 18.6154 0 17.0111 0 13.798C0 11.2893 1.36247 9.58063 3.29952 8.74584C4.97976 8.00671 7.32599 7.87628 9.1194 7.67193V7.27193C9.1194 6.53715 9.17599 5.66758 8.74505 5.0328C8.36634 4.46324 7.64376 4.22845 7.00823 4.22845C5.82858 4.22845 4.77517 4.8328 4.51835 6.08497C4.46611 6.36324 4.26152 6.63715 3.98294 6.65019L0.979411 6.32845C0.72694 6.27193 0.448352 6.06758 0.517999 5.68063C1.21012 2.04585 4.49658 0.950195 7.43917 0.950195C8.94528 0.950195 10.9128 1.3502 12.1012 2.48932C13.6073 3.89367 13.4636 5.76758 13.4636 7.80671V12.6241C13.4636 14.0719 14.0643 14.7067 14.6302 15.4893C14.8305 15.7676 14.874 16.1024 14.6215 16.3111C13.9903 16.8371 12.8673 17.8154 12.2492 18.3632L12.2405 18.3545Z" fill="black"/>
</g>
<defs>
<clipPath id="clip0_6556_6119">
<rect width="100" height="30.1" fill="white" transform="translate(0 0.950195)"/>
</clipPath>
</defs>
</svg>
