<svg width="100" height="32" viewBox="0 0 100 32" fill="none" xmlns="http://www.w3.org/2000/svg">
<g clip-path="url(#clip0_6556_6111)">
<path d="M12.5089 11.5138V14.8608H20.5861C20.3717 16.7123 19.7284 18.1365 18.7277 19.0623C17.584 20.2017 15.7255 21.4835 12.5089 21.4835C7.57684 21.4835 3.71694 17.4956 3.71694 12.582C3.71694 7.66834 7.50536 3.68047 12.5089 3.68047C15.1537 3.68047 17.1551 4.74865 18.5847 6.10168L20.9435 3.75168C18.9421 1.82895 16.2259 0.333496 12.5089 0.333496C5.71837 0.333496 0 5.81683 0 12.582C0 19.3471 5.71837 24.8305 12.5089 24.8305C16.1544 24.8305 18.9421 23.6199 21.0865 21.4123C23.3024 19.2047 24.0172 16.0714 24.0172 13.5789C24.0172 12.7956 23.9457 12.0835 23.8742 11.5138H12.5089Z" fill="#4285F4"/>
<path d="M34.0243 8.73633C29.664 8.73633 26.0186 12.0833 26.0186 16.6409C26.0186 21.1985 29.5925 24.5454 34.0243 24.5454C38.456 24.5454 42.03 21.2697 42.03 16.7121C42.03 12.0833 38.456 8.73633 34.0243 8.73633ZM34.0243 21.4833C31.594 21.4833 29.5211 19.4894 29.5211 16.7121C29.5211 13.8636 31.594 11.9409 34.0243 11.9409C36.4546 11.9409 38.5275 13.8636 38.5275 16.7121C38.5275 19.4894 36.4546 21.4833 34.0243 21.4833Z" fill="#EA4335"/>
<path d="M73.1237 10.5166H72.9808C72.1945 9.59087 70.6934 8.73633 68.7635 8.73633C64.7606 8.73633 61.3296 12.1545 61.3296 16.6409C61.3296 21.056 64.7606 24.5454 68.7635 24.5454C70.6934 24.5454 72.1945 23.6909 72.9808 22.7651H73.1237V23.9045C73.1237 26.8954 71.4797 28.5333 68.9064 28.5333C66.762 28.5333 65.4754 27.0378 64.9036 25.6848L61.9014 26.9666C62.7592 29.0318 65.118 31.6666 68.9779 31.6666C73.0522 31.6666 76.5548 29.2454 76.5548 23.406V9.1636H73.2667V10.5166H73.1237ZM69.1209 21.4833C66.6906 21.4833 64.9036 19.4181 64.9036 16.7121C64.9036 13.9348 66.762 11.9409 69.1209 11.9409C71.4797 11.9409 73.3382 14.006 73.3382 16.7833C73.4096 19.4894 71.5512 21.4833 69.1209 21.4833Z" fill="#4285F4"/>
<path d="M51.8226 8.73633C47.4624 8.73633 43.8169 12.0833 43.8169 16.6409C43.8169 21.1985 47.3909 24.5454 51.8226 24.5454C56.2543 24.5454 59.8283 21.2697 59.8283 16.7121C59.8283 12.0833 56.2543 8.73633 51.8226 8.73633ZM51.8226 21.4833C49.3923 21.4833 47.3194 19.4894 47.3194 16.7121C47.3194 13.8636 49.3923 11.9409 51.8226 11.9409C54.2529 11.9409 56.3258 13.8636 56.3258 16.7121C56.3258 19.4894 54.2529 21.4833 51.8226 21.4833Z" fill="#FBBC05"/>
<path d="M79.1992 0.689453H82.6302V24.6167H79.1992V0.689453Z" fill="#34A853"/>
<path d="M93.2094 21.4833C91.4224 21.4833 90.2073 20.7 89.3495 19.0621L100 14.7181L99.6426 13.7924C98.9993 12.0121 96.9264 8.73633 92.852 8.73633C88.7777 8.73633 85.3467 11.9409 85.3467 16.6409C85.3467 21.056 88.7062 24.5454 93.2094 24.5454C96.8549 24.5454 98.9278 22.3378 99.857 21.056L97.1408 19.2757C96.2116 20.6288 94.9964 21.4833 93.2094 21.4833ZM92.995 11.7272C94.4246 11.7272 95.6397 12.4394 95.9971 13.4363L88.8492 16.4272C88.7777 13.1515 91.208 11.7272 92.995 11.7272Z" fill="#EA4335"/>
</g>
<defs>
<clipPath id="clip0_6556_6111">
<rect width="100" height="31.3333" fill="white" transform="translate(0 0.333496)"/>
</clipPath>
</defs>
</svg>
