<svg width="100" height="100" viewBox="0 0 100 100" fill="none" xmlns="http://www.w3.org/2000/svg">
<path d="M48.4663 1.20991C47.7382 1.36798 46.944 1.52606 46.6887 1.57255C46.2349 1.65624 45.9985 1.72133 45.1476 1.98169C44.8734 2.06538 44.5803 2.13047 44.4857 2.13047C44.3817 2.13047 44.1832 2.19556 44.0319 2.26995C43.8901 2.34434 43.6915 2.40943 43.6064 2.40943C43.4362 2.40943 42.6798 2.6419 42.1976 2.83717C42.0274 2.91156 41.8194 2.96735 41.7438 2.96735C41.6587 2.96735 41.4601 3.02315 41.2994 3.09753C41.1292 3.16263 40.8077 3.29281 40.5714 3.38579C39.1342 3.93441 39.2287 3.86932 39.3328 4.22267C39.5313 4.86428 39.7204 5.54308 39.7771 5.84994C39.8055 6.02661 39.8717 6.21259 39.9095 6.26838C39.9473 6.31487 40.0041 6.52874 40.0419 6.73331C40.0797 6.93788 40.1459 7.20754 40.1932 7.33773C40.231 7.46791 40.335 7.80266 40.4201 8.08162C40.4957 8.36058 40.6375 8.86271 40.7321 9.18816C40.9117 9.81117 41.0536 9.95065 41.3372 9.77398C41.4318 9.70889 41.5641 9.66239 41.6303 9.66239C41.7721 9.66239 42.8122 9.25325 42.9067 9.16026C42.9351 9.13237 43.0391 9.10447 43.1337 9.10447C43.2282 9.10447 43.4457 9.04868 43.6159 8.97429C44.1075 8.76972 45.7527 8.26759 45.9323 8.26759C46.0269 8.26759 46.2254 8.2025 46.3767 8.12811C46.5185 8.05372 46.7171 7.98863 46.8022 7.98863C46.8967 7.98863 47.152 7.93284 47.3884 7.85845C49.3929 7.24474 50.3573 7.24474 52.5319 7.86775C52.7967 7.93284 53.2221 8.05372 53.4774 8.12811C54.5931 8.43497 55.9546 8.85341 56.2477 8.97429C56.4179 9.04868 56.6354 9.10447 56.7205 9.10447C56.815 9.10447 56.9285 9.14167 56.9852 9.17886C57.0703 9.25325 57.8078 9.54151 58.4697 9.76468C58.8668 9.90416 59.0086 9.81117 59.0086 9.41133C59.0086 9.29974 59.0464 9.18816 59.0937 9.16026C59.141 9.12307 59.2071 8.9278 59.245 8.70463C59.2828 8.49076 59.3584 8.14671 59.4341 7.94214C59.5002 7.73757 59.6326 7.30053 59.7177 6.96578C59.8123 6.63103 59.9446 6.17539 60.0108 5.94293C60.0676 5.71046 60.2188 5.20833 60.3228 4.82709C60.4363 4.44584 60.5214 4.07389 60.5214 4.0088C60.5214 3.89722 60.1054 3.68335 59.3395 3.40439C59.1315 3.33 58.7911 3.20912 58.5831 3.12543C57.8267 2.84647 56.399 2.40943 56.2477 2.40943C56.1626 2.40943 55.9735 2.34434 55.8317 2.26995C55.6804 2.19556 55.463 2.13047 55.3401 2.13047C55.2171 2.13047 55.0375 2.08398 54.9335 2.03749C54.8389 1.98169 54.5742 1.89801 54.3567 1.85151C54.1298 1.80502 53.6571 1.69344 53.2883 1.61905C52.1915 1.36798 49.9413 0.921647 49.8562 0.930945C49.8183 0.930945 49.1943 1.06113 48.4663 1.20991Z" fill="#050B5C"/>
<path d="M36.2698 5.07805C36.1185 5.16174 35.92 5.26403 35.8443 5.31052C35.7687 5.34772 35.6363 5.41281 35.5607 5.4407C35.3148 5.53369 33.5562 6.40776 32.9605 6.73322C32.6485 6.90059 32.242 7.12376 32.0623 7.21675C31.4761 7.5329 30.9845 7.81186 30.7197 7.96994C29.5 8.71383 27.9872 9.6716 27.6185 9.94126C27.3726 10.1179 27.0701 10.3318 26.9566 10.4062C26.2286 10.8897 23.6568 12.8517 23.0423 13.3911L22.6641 13.7351L23.0328 14.1536C23.4299 14.5999 24.158 15.3996 25.7937 17.2128C26.3421 17.8172 26.8432 18.3101 26.9094 18.3101C26.9755 18.3101 27.193 18.1613 27.3916 17.9846C28.2898 17.1756 32.5445 14.1443 33.2915 13.7723C33.4238 13.7165 33.7169 13.5398 33.9533 13.3818C34.1897 13.233 34.4639 13.0656 34.5774 13.0191C34.6814 12.9726 35.0501 12.7681 35.381 12.5728C35.712 12.3775 36.5724 11.9312 37.2909 11.5778C38.0095 11.2245 38.5863 10.8897 38.5863 10.8153C38.5863 10.7409 38.4728 10.3225 38.3404 9.87617C38.1986 9.42053 38.0757 8.9556 38.0473 8.82542C38.019 8.69524 37.8771 8.17451 37.7259 7.66308C37.5651 7.15166 37.376 6.50075 37.3004 6.22179C36.9695 5.05016 36.9316 4.96647 36.7425 4.94787C36.6385 4.92927 36.4305 4.99437 36.2698 5.07805Z" fill="#050B5C"/>
<path d="M62.8383 5.00367C62.8099 5.05016 62.7437 5.27333 62.6965 5.4965C62.6492 5.71966 62.5452 6.1288 62.4695 6.40776C62.3939 6.68672 62.2804 7.10516 62.2237 7.33763C62.167 7.5701 62.0819 7.82116 62.0346 7.90485C61.9873 7.98854 61.9211 8.221 61.8833 8.41628C61.855 8.62085 61.7037 9.15087 61.5524 9.6158C61.1175 10.9362 61.0702 10.8432 62.583 11.5778C63.2921 11.9312 64.1809 12.3961 64.5496 12.61C64.9184 12.8331 65.2493 13.0098 65.2777 13.0098C65.306 13.0098 65.5802 13.1679 65.8828 13.3632C66.1853 13.5677 66.5446 13.7816 66.6959 13.856C67.4429 14.2279 71.9245 17.4546 72.4824 18.0125C72.6431 18.1706 72.8322 18.3101 72.9173 18.3101C73.0497 18.3101 73.5508 17.7893 74.8934 16.2551C75.177 15.9296 75.6876 15.3717 76.0091 15.009C76.34 14.6557 76.7371 14.2093 76.8884 14.0234L77.1531 13.6886L76.7655 13.3725C76.548 13.1958 76.2171 12.9261 76.0375 12.7774C75.7538 12.5356 74.4017 11.4848 74.0897 11.2617C73.5224 10.8618 73.0402 10.5085 72.5107 10.1272C72.1609 9.86687 71.8583 9.6623 71.83 9.6623C71.8016 9.6623 71.518 9.48562 71.187 9.26245C70.4023 8.75103 70.4212 8.76963 68.9368 7.89555C67.3294 6.94709 67.5752 7.07727 65.0602 5.80335C63.4623 4.99437 62.9612 4.80839 62.8383 5.00367Z" fill="#050B5C"/>
<path d="M49.7711 10.146C49.5537 10.425 49.3551 11.3456 49.3551 12.1081C49.3456 12.5544 49.2984 12.9449 49.2511 12.9728C49.1944 13.01 48.9485 12.8241 48.7027 12.5637C47.7761 11.5873 46.5375 11.0759 45.3556 11.1875C44.448 11.2712 44.0887 11.3456 43.9752 11.4758C43.8996 11.5687 43.9752 11.6338 44.3156 11.7454C44.5614 11.8291 44.8356 11.8942 44.9113 11.8942C45.1193 11.9035 46.5564 12.6195 47.1899 13.0286C47.4736 13.2146 47.8518 13.5215 48.0314 13.6981C48.3056 13.9771 48.334 14.0329 48.2016 14.0887C48.107 14.1166 47.9841 14.1073 47.9179 14.0515C47.7761 13.9306 47.1805 13.7167 46.3011 13.4564C45.7622 13.2983 45.4502 13.2797 44.4101 13.3076C43.2283 13.3355 43.1432 13.3541 42.5286 13.6516C42.1788 13.8283 41.7438 14.1259 41.5642 14.3211C41.186 14.7396 41.1293 14.9349 41.4507 14.7582C41.602 14.6745 42.3773 14.6466 44.3534 14.6466H47.0481L47.4736 14.8977C47.7099 15.0371 47.8612 15.1487 47.8045 15.1487C47.1237 15.158 46.0648 15.3719 45.5636 15.5951C44.7411 15.9577 43.701 17.1014 44.1927 17.1014C44.2589 17.1014 44.3534 17.0643 44.4101 17.0178C44.6087 16.8318 46.2444 16.3669 46.9346 16.3018C47.5681 16.246 47.6627 16.2553 47.6627 16.3855C47.6627 16.4691 47.5397 16.5993 47.3885 16.683C46.9819 16.8876 46.5564 17.5571 46.4808 18.115C46.443 18.3754 46.443 18.5892 46.4713 18.5892C46.5091 18.5892 46.6793 18.4498 46.8495 18.2824C47.4357 17.7245 47.7572 17.4641 48.1638 17.2781C48.3812 17.1758 48.6365 17.0457 48.7216 16.9992C48.9391 16.8876 48.9485 16.8876 49.1187 17.0643C49.2511 17.1944 49.27 17.7059 49.27 21.3137C49.2795 24.4195 49.3078 25.461 49.3929 25.5632C49.5064 25.7027 50.3668 26.3071 50.4519 26.3071C50.4802 26.3071 50.4992 24.2428 50.4992 21.7136C50.4992 16.5714 50.4802 16.7388 51.1232 17.0364C51.3028 17.1293 51.4919 17.1944 51.5487 17.1944C51.6905 17.1944 52.2672 17.6222 52.7873 18.1057C53.0236 18.3289 53.2695 18.487 53.3167 18.4591C53.468 18.3661 53.3451 17.7431 53.0898 17.3618C52.9669 17.1758 52.7211 16.9062 52.532 16.7574C52.3523 16.6179 52.2011 16.4412 52.2011 16.3669C52.2011 16.06 54.2528 16.4598 55.3968 16.9806C55.7845 17.1572 55.8507 17.1014 55.6616 16.7574C55.4536 16.3576 54.8579 15.8647 54.2433 15.5765C53.7989 15.3719 52.7305 15.158 52.0592 15.1487C52.012 15.1487 52.1538 15.0371 52.3902 14.8977L52.8156 14.6466H55.5103C57.5053 14.6466 58.2617 14.6745 58.4224 14.7582C58.725 14.9256 58.6777 14.7768 58.2901 14.3304C57.5809 13.5122 56.0303 13.0937 54.4513 13.289C53.6382 13.382 53.1749 13.5029 52.74 13.7167C52.5887 13.7911 52.3996 13.8469 52.3051 13.8469C52.22 13.8469 52.0592 13.912 51.9552 13.9864C51.7661 14.1073 51.6338 14.0887 51.6338 13.9399C51.6338 13.8097 52.1443 13.3727 52.8062 12.9449C53.5342 12.4707 54.5743 12.0058 55.4441 11.7547C55.879 11.6338 55.9736 11.578 55.8885 11.4758C55.8318 11.4107 55.6332 11.327 55.4347 11.2991C53.5437 10.9829 52.3902 11.3177 51.1988 12.5172C50.8868 12.8334 50.5937 13.0751 50.5653 13.0379C50.5275 13.01 50.4992 12.5823 50.4897 12.0895C50.4897 10.8434 50.0831 9.7555 49.7711 10.146Z" fill="#050B5C"/>
<path d="M60.4932 13.4376C60.4648 13.4747 60.4932 13.6421 60.5688 13.8188C60.8903 14.572 60.6823 15.539 60.0582 16.1435C59.8124 16.3945 58.848 16.9153 58.64 16.9153C58.5927 16.9153 58.5076 16.9803 58.4414 17.0547C58.3752 17.1291 58.2618 17.1942 58.1956 17.1942C57.7701 17.1942 55.6428 18.9424 54.6973 20.0675C54.4136 20.4023 54.13 20.7463 54.0638 20.8207C53.7518 21.1833 53.4208 21.6855 53.0521 22.3364C52.8346 22.7362 52.5982 23.0524 52.5131 23.0524C52.4375 23.0524 52.1822 22.8757 51.9553 22.6525C51.7189 22.4387 51.4826 22.262 51.4258 22.262C51.3502 22.262 51.3218 22.6618 51.3313 23.5638C51.3407 24.6982 51.3596 24.8749 51.5109 24.9865C51.7095 25.126 51.7189 25.7211 51.5298 26.2883C51.4636 26.4743 51.388 26.8834 51.3596 27.1903C51.3218 27.5808 51.2651 27.7575 51.1611 27.7761C51.0854 27.7854 50.7829 27.5808 50.4992 27.3205C49.5916 26.4929 47.4453 25.2469 46.5754 25.0423C46.4241 25.0051 46.2445 24.9493 46.1972 24.9028C46.1405 24.8656 45.9041 24.8005 45.6772 24.7633C45.4408 24.7354 45.0153 24.6424 44.7317 24.5774C44.032 24.4007 41.6021 24.4007 40.7701 24.5867C40.4297 24.661 39.8907 24.7633 39.5787 24.8098C38.7845 24.9307 37.9619 25.1353 36.2695 25.6188C33.7545 26.3534 32.2795 26.5394 31.23 26.2604C30.6059 26.093 29.8023 25.656 29.4619 25.2841C29.2822 25.0888 29.3295 24.8563 29.6793 24.2147C29.7928 24.0008 29.8306 23.6754 29.8306 22.8199V21.7041L29.4524 21.0253C28.9797 20.1512 28.8473 20.0768 28.3557 20.4116C27.3629 21.0904 26.6727 22.4387 26.6727 23.7126C26.6727 24.5495 27.2116 25.8234 27.8829 26.5487C28.2327 26.9299 29.2255 27.7017 29.3673 27.7017C29.4052 27.7017 29.6132 27.7854 29.8306 27.8784C30.6248 28.241 31.0409 28.3061 32.4686 28.2968C33.7355 28.2968 33.8585 28.3061 33.8585 28.4642C33.8585 28.5479 33.7355 28.7618 33.5937 28.9291C33.2722 29.3011 32.4875 30.5564 32.3929 30.8726C32.3551 30.9934 32.2606 31.1794 32.1944 31.2817C32.1187 31.384 32.062 31.5514 32.062 31.6722C32.062 31.7838 32.0242 31.8954 31.9769 31.9233C31.9296 31.9605 31.8445 32.1837 31.7878 32.4254C31.7311 32.6672 31.6176 33.067 31.542 33.3274C31.4663 33.5785 31.3529 33.9783 31.2962 34.2108C31.23 34.4432 31.126 34.7594 31.0598 34.9268C30.9841 35.0848 30.9274 35.2801 30.9274 35.3638C30.9274 35.4382 30.8707 35.6428 30.795 35.8101C30.7194 35.9775 30.5965 36.2658 30.5303 36.4425C29.8023 38.3394 28.5637 39.948 27.1454 40.8221C25.6137 41.7706 23.3823 41.9752 21.8033 41.3057C20.2055 40.6362 19.2694 39.5017 18.8723 37.7629C18.7021 37.019 18.7021 36.9632 18.8723 36.0891C19.1938 34.3967 19.8272 33.1321 20.8578 32.1093C21.4535 31.5142 22.0964 31.1608 22.9663 30.9469C23.4107 30.8354 23.5431 30.8447 24.1482 30.9934C25.5759 31.3561 26.5214 32.351 26.701 33.6622C26.7956 34.3317 26.6821 34.4153 25.869 34.2387C24.8006 34.0155 22.9474 34.2294 22.4179 34.6292C22.3423 34.6943 22.2005 34.7687 22.1154 34.7966C21.8695 34.8803 21.9073 35.1964 22.191 35.3917C22.5408 35.6335 22.7961 35.8752 22.7961 35.9682C22.7961 36.0147 22.5976 36.1821 22.3517 36.3402C21.4535 36.9074 21.132 37.27 21.3779 37.4188C21.5291 37.5118 22.503 37.7443 22.7488 37.7443C23.0325 37.7443 23.2689 37.8372 23.2689 37.9395C23.2689 37.986 23.1649 38.2464 23.0325 38.5068C22.9001 38.7764 22.815 39.0461 22.8339 39.1112C22.9096 39.2971 24.2427 39.2599 24.9708 39.0554C26.6916 38.5625 27.6087 37.6885 28.5258 35.6521C28.6582 35.3545 28.696 35.0291 28.6866 34.0248C28.6866 32.7974 28.6771 32.7509 28.3746 32.1279C27.7222 30.7889 26.9658 29.9985 25.7933 29.422C25.1599 29.1151 25.0559 29.0407 25.0937 28.8733C25.4435 27.4971 25.4719 27.2368 25.3206 26.5394C25.1693 25.8699 24.706 24.9028 24.5075 24.8377C24.4413 24.8191 24.4035 24.9865 24.4035 25.3027C24.4035 25.5816 24.2995 26.1023 24.1765 26.4836C23.7511 27.7668 22.9852 28.5572 21.4724 29.2918C19.988 30.0171 18.7494 31.1608 17.8606 32.6393C17.5675 33.1135 17.1137 34.248 17.0286 34.6757C16.9813 34.9082 16.9057 35.2615 16.8489 35.4661C16.6976 36.024 16.7166 37.8465 16.8773 38.3208C16.9529 38.5439 17.038 38.8601 17.0758 39.0368C17.1137 39.2135 17.246 39.5482 17.3784 39.7807C17.7472 40.4595 17.681 40.5711 16.8395 40.6362C15.6103 40.7384 14.5703 41.4637 13.9273 42.6633C13.4735 43.5001 13.5586 43.5745 14.4284 43.1282C14.8256 42.9329 15.2227 42.7655 15.3172 42.7655C15.4023 42.7655 15.5158 42.7284 15.563 42.6819C15.7332 42.5331 16.7733 42.3936 17.681 42.3936C18.7588 42.4029 19.4585 42.5331 20.4796 42.9422C22.1532 43.6117 22.3328 43.6489 23.978 43.6489C25.3868 43.6489 25.5475 43.6303 26.285 43.3886C27.24 43.0724 27.6371 42.8771 28.5164 42.3192C29.7361 41.5381 30.7761 40.3758 31.3907 39.1112C31.5325 38.8136 31.6649 38.6741 31.7594 38.6927C31.8445 38.7113 32.062 39.0182 32.2511 39.3715C33.2439 41.2964 34.8701 42.5889 37.3095 43.3979C38.0187 43.6303 38.1699 43.6489 39.7678 43.6489C41.6494 43.6489 41.8857 43.6024 42.992 42.998C45.1383 41.8171 46.2445 39.4273 45.7339 37.0934C45.5165 36.0984 44.987 35.1034 44.3157 34.4525C43.7862 33.9225 43.7957 33.8109 44.3913 33.5134C44.7601 33.3274 45.4881 32.6765 45.7907 32.2673C46.1216 31.8117 46.5565 30.8818 46.4998 30.7331C46.4147 30.5285 45.9798 30.5471 45.3746 30.7703C44.7222 31.0213 44.4575 31.1422 44.136 31.3561C43.7106 31.635 43.5971 31.5142 43.5971 30.7982C43.5971 30.0543 43.408 29.2081 43.1716 28.8454L43.0014 28.5944L42.68 28.957C42.2167 29.487 41.9425 29.9985 41.7534 30.668C41.6872 30.9004 41.5926 31.105 41.5265 31.1236C41.4697 31.1422 41.2995 31.0213 41.1577 30.854C40.3919 29.9427 39.3234 29.1988 39.1627 29.4499C39.0209 29.6823 39.1533 30.8911 39.4085 31.5421C39.5409 31.8861 39.6165 32.2023 39.5882 32.2302C39.5598 32.2673 39.1627 32.2488 38.7089 32.2023C37.8296 32.1 36.695 32.2209 36.6288 32.4068C36.5437 32.6486 37.9808 33.9318 38.3307 33.9318C38.3969 33.9318 38.5481 34.0248 38.6805 34.1271C38.9074 34.3038 38.9074 34.3224 38.7467 34.4246C38.6521 34.4897 38.3212 34.6943 38.0187 34.8803C37.4703 35.2336 36.6288 36.1728 36.7328 36.3309C36.8273 36.4796 37.8674 36.5354 38.7278 36.4332C39.1911 36.3867 39.5976 36.3774 39.6449 36.4239C39.6827 36.461 39.6638 36.6656 39.5882 36.8609C39.2289 37.8837 39.1343 38.9345 39.3896 39.1391C39.6544 39.3529 40.6944 38.5347 41.3279 37.6141C41.6305 37.177 41.9897 36.2379 41.9897 35.8845C41.9992 35.2708 42.349 35.2987 42.9447 35.9589C43.408 36.4703 43.6444 36.9725 43.7862 37.7257C43.9658 38.7206 43.5687 39.883 42.7651 40.664C42.2072 41.222 41.8101 41.4172 40.9402 41.6032C40.0609 41.7799 39.8056 41.7799 38.794 41.5939C37.8674 41.4265 37.4135 41.2499 36.2884 40.6547C36.0047 40.506 35.0025 39.5575 34.6432 39.0926C34.3218 38.6834 33.8774 37.7722 33.6315 37.019C33.4141 36.3495 33.4046 34.155 33.6126 33.5692C33.6977 33.346 33.7639 33.0856 33.7639 32.9926C33.7639 32.4998 34.8607 30.4913 35.5604 29.6823C36.8368 28.2317 38.1888 27.3948 40.2406 26.809C41.0632 26.5766 43.4836 26.5673 44.4008 26.7997C45.4692 27.0694 46.5849 27.525 47.1427 27.9063C48.5421 28.8826 49.6861 30.138 50.2912 31.3747C50.7734 32.3324 50.9436 33.5785 50.7923 34.9082C50.6032 36.6005 50.017 37.7629 48.561 39.3715C47.6344 40.3944 47.3035 40.8593 46.9158 41.6683C46.3485 42.8678 46.1783 43.5745 46.0648 45.1832L46.0081 46.0666H28.28H10.5519L10.5708 45.7411C10.5897 45.2669 10.9585 43.6675 11.2421 42.812C11.2894 42.654 11.4123 42.2634 11.4974 41.9287C11.592 41.5939 11.8094 40.9058 11.9891 40.3944C12.1687 39.883 12.3767 39.2971 12.4429 39.0926C12.5185 38.888 12.6604 38.4882 12.7738 38.2092C12.8873 37.9302 13.0102 37.5955 13.048 37.4653C13.0953 37.3351 13.2371 36.9911 13.3789 36.7121C13.5113 36.4239 13.6248 36.1635 13.6248 36.1263C13.6248 36.0891 13.8139 35.68 14.0503 35.215C14.2866 34.7501 14.4757 34.341 14.4757 34.2945C14.4757 34.2573 14.5986 34.0062 14.7594 33.7458C15.0808 33.2065 15.1187 32.9276 14.8823 32.8532C14.7026 32.7974 14.5892 32.7509 13.8895 32.4533C13.6437 32.3417 13.3884 32.2581 13.3222 32.2581C13.2466 32.2581 13.152 32.2209 13.1048 32.1744C13.048 32.1279 12.7738 31.9977 12.4902 31.8861C12.2065 31.7745 11.8472 31.6257 11.6865 31.5606C11.5352 31.4956 11.0625 31.3003 10.6465 31.1329C10.2304 30.9655 9.7955 30.7703 9.68204 30.6959C9.55913 30.6215 9.40785 30.5843 9.33221 30.6122C9.19038 30.668 8.47181 32.0721 7.80996 33.5785C7.74377 33.7458 7.60195 34.0713 7.49794 34.3038C7.29939 34.7408 7.03465 35.4103 6.54299 36.7214C6.3728 37.1584 6.17424 37.6513 6.0986 37.8187C6.03242 37.986 5.96623 38.172 5.96623 38.2371C5.96623 38.3766 5.41784 40.1154 5.24765 40.5153C5.17201 40.6826 5.11528 40.9151 5.11528 41.0267C5.11528 41.1383 5.05855 41.3893 4.98291 41.6032C4.85054 41.9752 4.68035 42.6633 4.41561 43.9279C4.33997 44.2812 4.2076 44.8949 4.12251 45.2762C3.99014 45.9085 3.98068 47.8984 3.99959 65.3613L4.02796 84.749H49.9319H95.8359L95.8643 65.3613C95.8832 50.874 95.8643 45.8713 95.7792 45.5551C95.7225 45.3227 95.6185 44.8391 95.5523 44.4858C95.4861 44.1231 95.3537 43.5373 95.2686 43.184C95.1835 42.8213 95.0701 42.3564 95.0228 42.1332C94.985 41.9194 94.8999 41.659 94.8431 41.566C94.7959 41.4637 94.7486 41.3057 94.7486 41.2034C94.7486 41.1011 94.6351 40.6919 94.5028 40.2921C94.3704 39.8923 94.2191 39.4087 94.1813 39.2321C94.1057 38.9252 93.4816 37.1863 93.0467 36.0705C92.6969 35.1592 92.5645 34.8245 92.4794 34.5548C92.4321 34.406 92.3565 34.2387 92.3092 34.1829C92.2619 34.1178 92.1863 33.969 92.1485 33.8388C92.1106 33.7086 91.7892 33.0112 91.4299 32.2859C91.0706 31.57 90.7775 30.9283 90.7775 30.8726C90.7775 30.8168 90.6924 30.7331 90.5979 30.6773C90.456 30.6122 90.248 30.6587 89.6713 30.9097C88.6785 31.3561 88.6312 31.3747 88.0356 31.6071C87.7519 31.7094 87.4115 31.8489 87.2792 31.9047C87.1468 31.9605 86.901 32.0628 86.7402 32.1279C86.57 32.2023 86.2864 32.3138 86.1256 32.3882C85.6056 32.6114 85.1612 32.7974 84.991 32.8532C84.7358 32.9276 84.783 33.1507 85.2841 34.1643C85.5394 34.6757 85.8042 35.2429 85.8893 35.4196C85.9649 35.5963 86.1351 35.9775 86.2675 36.2565C86.6551 37.0841 87.1373 38.2836 87.525 39.418C87.6573 39.7993 87.7992 40.1991 87.837 40.3014C87.8843 40.4037 87.9788 40.7198 88.0639 40.9988C88.149 41.2778 88.3287 41.8636 88.4705 42.3006C88.8487 43.528 89.2647 45.2948 89.2931 45.7876L89.312 46.0666L71.546 46.0945C53.8747 46.1131 53.7707 46.1131 53.5721 45.9271C53.3357 45.7039 52.8441 44.7555 52.6361 44.1231C52.3051 43.1003 52.4848 41.5381 53.0804 40.3758C53.4114 39.7528 53.7612 38.7578 53.9976 37.8651C54.1489 37.2607 54.1867 36.8144 54.1867 35.587C54.1867 33.9783 54.2245 34.2015 53.5059 31.4677C53.2412 30.4355 53.2223 27.804 53.4776 26.7718C53.7612 25.6095 54.1678 24.596 54.9053 23.2383C55.2646 22.5781 56.3708 21.2205 57.1366 20.4859C59.1222 18.5797 61.5332 17.7428 63.793 18.1613C64.2562 18.2543 64.7668 18.3658 64.9181 18.4216C65.4098 18.5983 66.0432 18.868 66.1945 18.961C66.2702 19.0168 66.4214 19.0911 66.5254 19.1376C67.2913 19.4817 68.6055 20.9323 69.1445 22.0295C69.9482 23.6661 69.9671 25.8327 69.2012 27.0601C68.8892 27.5622 68.1517 28.2131 67.5844 28.4828C67.2629 28.6316 66.9982 28.6688 66.1472 28.6688C65.1639 28.6781 65.0788 28.6595 64.5966 28.3991C63.9726 28.0644 63.1689 27.3019 63.1689 27.0508C63.1689 26.8834 63.2351 26.8648 63.9064 26.8648C64.5777 26.8648 64.9654 26.7811 65.8163 26.4743C66.1756 26.3441 67.1495 25.7304 67.3197 25.5258C67.575 25.2283 66.4876 24.8191 65.4192 24.8191C64.5683 24.8191 64.3886 24.7261 64.5777 24.4286C64.9654 23.8335 65.1639 23.3499 65.2963 22.7548C65.4098 22.2248 65.4098 22.0667 65.3152 22.0109C65.1545 21.9086 65.0316 21.9179 64.8235 22.0667C64.7195 22.1318 64.521 22.2155 64.3886 22.2434C64.2562 22.2806 63.8402 22.5595 63.4715 22.8664C63.0555 23.2011 62.7718 23.3778 62.7529 23.3127C62.734 23.2476 62.6584 22.9594 62.5733 22.6804C62.4882 22.4015 62.3936 22.0667 62.3558 21.9365C62.318 21.8064 62.1951 21.5553 62.0816 21.3786C61.9681 21.2019 61.8547 20.9788 61.8169 20.8858C61.7129 20.5975 61.5143 20.6998 61.2023 21.2019C61.0888 21.3879 60.9943 21.6204 60.9943 21.7227C60.9943 21.8157 60.947 21.9458 60.8808 22.0109C60.8241 22.0667 60.7484 22.4015 60.7201 22.7455C60.6539 23.508 60.531 23.5638 60.0015 23.0989C59.5098 22.6711 58.6684 22.2434 58.2523 22.1969L57.9214 22.169L57.9309 22.5967C57.9498 23.0431 58.3942 24.0845 58.7818 24.596C58.9047 24.754 58.9804 24.9121 58.9425 24.94C58.9142 24.9772 58.5738 25.0051 58.1861 25.0051C57.2596 25.0051 56.0777 25.3863 56.0777 25.6932C56.0871 25.935 57.7985 26.8648 58.2429 26.8648C58.328 26.8648 58.4509 26.9113 58.5171 26.9764C58.6022 27.0601 58.4792 27.2368 58.016 27.7203C57.4108 28.3526 56.8719 29.2081 56.9759 29.3755C57.1366 29.6358 58.6967 29.3755 59.4153 28.9756C59.888 28.7153 60.6161 28.148 60.7106 27.9807C60.8808 27.6738 61.2117 27.7482 61.4198 28.1387C61.779 28.8082 62.7718 29.7102 63.6606 30.1659C64.1144 30.3983 64.6155 30.5843 64.7668 30.5843C65.1545 30.5843 65.5327 30.7424 65.5327 30.9004C65.5327 31.0399 64.8141 31.3933 63.6417 31.8396C62.9515 32.1 62.6962 32.2023 61.7412 32.6579C61.2401 32.8997 60.7957 33.0949 60.7484 33.0949C60.7012 33.0949 60.5404 33.16 60.3797 33.2437C59.9826 33.4576 58.4131 33.4576 58.016 33.2437C57.8647 33.16 57.685 33.0949 57.6378 33.0949C57.581 33.0949 57.3163 32.8997 57.0421 32.6672C56.7679 32.4347 56.5032 32.2766 56.4464 32.3138C56.2762 32.4068 56.3992 33.4576 56.6261 33.8853C56.8246 34.2759 57.1745 34.6292 57.6188 34.9082C57.7607 34.9919 57.8741 35.1127 57.8741 35.1592C57.8741 35.215 57.7039 35.5033 57.4959 35.7915C57.0326 36.4703 56.8624 36.8609 56.6923 37.6885C56.5126 38.5161 56.5126 38.9252 56.6923 39.7435C57.1556 41.9194 58.8858 43.4815 61.0416 43.6582C62.9042 43.8163 64.7006 42.8399 65.6083 41.1848C65.684 41.0546 65.788 40.6362 65.8541 40.2549C66.0622 38.9345 65.6461 37.5211 64.7857 36.647C64.3886 36.2565 64.1144 36.1449 64.1144 36.3774C64.1144 36.5354 63.8497 37.0748 63.7457 37.1399C63.6984 37.1584 63.462 37.0469 63.2162 36.8795C62.3558 36.303 62.2234 36.2379 62.1667 36.396C62.1383 36.4703 62.1572 36.8516 62.2045 37.2514C62.2612 37.642 62.2802 38.0046 62.2518 38.0511C62.2234 38.0976 61.9776 38.1069 61.7034 38.0697C61.4292 38.0418 61.1739 38.0511 61.1456 38.0976C61.0794 38.2092 61.3914 39.0368 61.7129 39.5854C61.8547 39.8272 62.1951 40.2363 62.4693 40.4874C62.7529 40.7477 62.9798 41.0081 62.9798 41.0546C62.9798 41.2406 62.6584 41.4265 62.0627 41.6032C61.5048 41.7613 61.4481 41.7613 60.8903 41.6032C60.1622 41.4079 59.6895 41.1197 59.3207 40.6547C58.7062 39.8923 58.5076 39.1577 58.6589 38.1906C58.848 36.926 60.219 35.5498 62.2234 34.6106C63.3864 34.0713 63.7173 33.9318 63.8497 33.9318C63.9253 33.9318 64.0672 33.8667 64.1712 33.7923C64.2657 33.7179 64.4075 33.6529 64.4643 33.6529C64.5777 33.6529 65.2396 33.3739 66.1945 32.9276C66.3742 32.8439 66.7051 32.6579 66.932 32.5184C67.1589 32.3789 67.4237 32.2581 67.5371 32.2581C67.6979 32.2581 67.7168 32.2952 67.66 32.5091C67.6222 32.6579 67.5655 33.5971 67.5466 34.6199C67.5088 36.1263 67.5277 36.5447 67.6506 36.9167C67.7357 37.1584 67.8019 37.4281 67.8019 37.5025C67.8019 37.5769 67.8586 37.7815 67.9342 37.9488C68.6812 39.6598 68.9365 40.3944 68.9365 40.8407C68.9365 41.7148 68.2841 42.8585 67.5371 43.2863C66.9793 43.6117 67.1022 43.7326 67.9437 43.6675C68.8514 43.6024 69.5605 43.2677 70.2318 42.5982L70.7424 42.0774L70.9977 42.2355C71.7446 42.7005 72.5199 43.091 73.2101 43.3514C73.9854 43.6303 74.0043 43.6303 75.8859 43.6396C77.7674 43.6396 77.7863 43.6396 78.8169 43.3235C79.3937 43.1561 79.9232 42.9794 79.9988 42.9422C80.8592 42.4959 83.223 42.375 84.3008 42.7098C84.9249 42.905 85.842 43.3142 85.9176 43.435C85.946 43.4722 86.0027 43.5094 86.0595 43.5094C86.2202 43.5094 86.1446 43.1282 85.8514 42.5145C85.5583 41.8915 84.8114 41.0639 84.3386 40.8407C83.7619 40.5618 83.2135 40.3479 83.0717 40.3479C82.8164 40.3479 82.8069 40.1061 83.0433 39.6784C83.4499 38.9717 83.5917 38.3766 83.5917 37.4281C83.5917 36.9446 83.5539 36.5168 83.4972 36.4889C83.4499 36.461 83.4026 36.3495 83.4026 36.2472C83.4026 35.8659 82.7313 34.778 82.1829 34.2852C81.5211 33.6807 80.4243 33.1321 79.7246 33.0577C78.9588 32.9833 78.8831 32.8625 79.1573 32.193C79.3559 31.728 79.3842 31.5049 79.3748 30.5843C79.3748 29.7195 79.337 29.4406 79.1857 29.0965L78.9871 28.6874L78.5617 29.1058C78.174 29.487 77.654 30.389 77.4932 30.9283C77.4081 31.2166 77.2096 31.198 77.0016 30.8911C76.5099 30.1659 75.2051 29.1337 75.016 29.3197C74.9782 29.3569 74.9404 29.7009 74.9498 30.0729C74.9498 30.7331 75.0633 31.2538 75.3186 31.8489C75.3942 32.0163 75.4226 32.1744 75.3942 32.2023C75.2902 32.2952 74.9404 32.2673 74.8175 32.1465C74.6946 32.0256 73.0588 31.9233 72.6712 32.0163C72.5294 32.0535 72.4348 32.1372 72.4348 32.2488C72.4348 32.5928 73.6545 33.7272 74.2596 33.9597C74.3447 33.9876 74.4204 34.1085 74.4204 34.2108C74.4204 34.3131 74.3447 34.4246 74.2596 34.4525C74.1651 34.4804 74.0233 34.5455 73.9476 34.592C73.872 34.6385 73.7112 34.7129 73.5883 34.7687C73.333 34.871 72.4632 35.6614 72.3308 35.9031C72.2646 36.0333 72.3024 36.0891 72.5199 36.21C72.8603 36.3774 74.3258 36.4053 74.7891 36.2472C75.224 36.0984 75.328 36.2286 75.1295 36.6842C74.9309 37.1399 74.6095 38.3673 74.6095 38.6741C74.6095 39.1577 74.7418 39.2135 75.2902 38.9252C75.7913 38.6741 76.5856 37.9953 76.8503 37.5862C77.0961 37.2235 77.115 37.2421 77.5972 38.3952C77.8809 39.0647 78.4198 39.79 78.6373 39.79C78.7035 39.79 78.8548 39.5947 78.9682 39.3436C79.1479 38.9717 79.1762 38.7392 79.1857 37.7908C79.1857 36.6284 79.1668 36.554 78.6562 35.5498C78.382 35.0291 78.4766 34.9175 79.1384 34.9826C80.5661 35.1034 81.5494 36.1635 81.54 37.5676C81.54 38.0604 81.4832 38.2929 81.2374 38.7857C80.4054 40.4409 78.7318 41.566 76.7274 41.8357C74.2218 42.1704 71.6311 40.8035 70.3925 38.4882C70.0711 37.893 69.8631 37.363 69.6456 36.5819C69.4565 35.8938 69.4943 33.6064 69.7212 32.5835C69.9482 31.5328 70.0805 31.0213 70.2129 30.7238C70.2791 30.5657 70.3642 30.3425 70.3925 30.2123C70.4493 29.9427 70.9504 28.5386 71.0355 28.3898C71.0733 28.334 71.1395 28.1294 71.1962 27.9249C71.3948 27.0973 71.6784 26.4464 71.8391 26.4464C71.8959 26.4464 72.1039 26.5952 72.3119 26.7718C73.8058 28.1294 75.7819 28.3712 77.1718 27.367C77.427 27.1903 77.6351 26.9578 77.6351 26.8741C77.6351 26.6882 76.9921 26.0651 76.5005 25.7769C75.9426 25.4514 74.9782 25.2469 74.2785 25.3119C73.6923 25.3677 73.664 25.3584 73.3709 25.0795C72.6334 24.3449 72.0661 23.4336 71.0355 21.2856C70.1183 19.3794 68.5015 17.7893 66.6484 16.9431C65.6083 16.4689 64.3981 16.1714 63.1689 16.0877L62.3652 16.0319L62.3369 15.7529C62.318 15.5948 62.2423 15.2508 62.1667 14.9811C62.006 14.4418 61.4481 13.7909 60.9281 13.5305C60.5877 13.3632 60.5783 13.3632 60.4932 13.4376ZM19.3734 57.5876C19.3829 58.6663 19.3545 59.4845 19.3072 59.531C19.2599 59.5775 18.7683 59.6147 18.2104 59.6054C17.5581 59.5961 17.1515 59.624 17.0664 59.6984C16.9529 59.7914 16.934 60.7027 16.934 65.4543C16.934 70.2059 16.9529 71.1172 17.0664 71.2102C17.1515 71.2846 17.5486 71.3125 18.1915 71.3032C18.7399 71.2939 19.2316 71.3217 19.2883 71.3496C19.4585 71.4519 19.4301 74.9761 19.2599 75.1156C19.1087 75.2365 10.6654 75.2272 10.5424 75.097C10.4479 75.004 10.3912 72.3725 10.4668 71.7495L10.5235 71.3125H11.573C12.1593 71.3125 12.6887 71.2753 12.7549 71.2381C12.9251 71.1265 12.9251 59.7821 12.7455 59.6705C12.6887 59.6333 12.1593 59.5961 11.573 59.5961H10.5235L10.4668 59.2428C10.3912 58.7685 10.4479 55.9418 10.5424 55.8023C10.5992 55.7186 11.6109 55.6907 14.9768 55.7093L19.345 55.7372L19.3734 57.5876ZM32.2417 55.8209C32.3173 55.9046 32.3457 56.4997 32.3267 57.7457L32.2984 59.5496L31.1354 59.5775C29.9914 59.6054 29.9725 59.6054 29.8874 59.8379C29.8306 59.9774 29.7928 62.2277 29.7928 65.4543C29.7928 68.6809 29.8306 70.9312 29.8874 71.0707C29.9725 71.3032 29.9914 71.3032 31.1354 71.331L32.2984 71.3589L32.3173 73.1257C32.3362 74.1392 32.3078 74.9482 32.2511 75.0319C32.1187 75.2458 23.4958 75.2458 23.3634 75.0319C23.2594 74.8645 23.2405 71.6007 23.3445 71.4333C23.3823 71.3682 23.8173 71.3217 24.5169 71.2939C25.122 71.2846 25.6421 71.2381 25.6799 71.2009C25.7177 71.1637 25.7461 68.5786 25.7461 65.445C25.7366 60.8422 25.7177 59.7356 25.6137 59.6798C25.5475 59.6333 25.018 59.5961 24.4413 59.5961C23.562 59.5961 23.3729 59.5682 23.3256 59.4474C23.2972 59.3637 23.2689 58.5547 23.2689 57.6434C23.2689 56.2579 23.2972 55.9604 23.4201 55.8395C23.5525 55.7093 24.082 55.6907 27.8451 55.6907C31.3718 55.6907 32.1566 55.7093 32.2417 55.8209ZM45.1572 55.9046C45.2328 56.0254 45.403 56.4346 45.5354 56.8158C45.6677 57.1971 45.819 57.5876 45.8568 57.6899C45.9041 57.7922 46.0743 58.2478 46.2445 58.7128C46.4052 59.1684 46.6038 59.6891 46.6794 59.8565C46.7551 60.0239 46.8118 60.2005 46.8118 60.2563C46.8118 60.3121 46.8685 60.4888 46.9442 60.6469C47.0198 60.8143 47.0954 61.0281 47.1238 61.1304C47.1522 61.2327 47.3318 61.7348 47.5209 62.2463C47.71 62.7577 47.9086 63.3249 47.9653 63.5016C48.0126 63.6782 48.0882 63.8642 48.1166 63.92C48.1544 63.9665 48.353 64.5151 48.5704 65.1288C49.7617 68.495 49.7712 68.5321 49.913 68.5043C50.0454 68.4764 50.2629 67.9463 50.9247 66.0587C51.2462 65.1474 51.388 64.7755 51.4542 64.6639C51.492 64.6081 51.5487 64.4221 51.5866 64.2455C51.6244 64.0688 51.6906 63.8735 51.7284 63.827C51.7662 63.7712 51.8513 63.5853 51.8986 63.4086C51.9553 63.2319 52.1444 62.6833 52.3241 62.1998C52.5037 61.7162 52.7401 61.0467 52.8535 60.712C52.967 60.3772 53.0994 60.0239 53.1466 59.9216C53.1939 59.8193 53.3263 59.466 53.4397 59.1312C53.5437 58.7964 53.695 58.3966 53.7612 58.2478C53.8274 58.0897 54.0354 57.5411 54.215 57.0111C54.3947 56.4904 54.6122 55.979 54.7067 55.8767C54.8769 55.7 55.0093 55.6907 59.16 55.6907C63.3297 55.6907 63.4526 55.7 63.5471 55.8767C63.6133 55.9882 63.6322 56.7042 63.6228 57.8015L63.5944 59.5496L62.4598 59.5961C61.8358 59.624 61.2685 59.6798 61.2117 59.717C61.1172 59.7728 61.0888 61.0281 61.0888 65.4543C61.0888 69.8805 61.1172 71.1358 61.2117 71.1916C61.2685 71.2288 61.8358 71.2846 62.4598 71.3125L63.5944 71.3589L63.6228 73.1443C63.6417 74.6693 63.6228 74.9389 63.4904 75.0691C63.3675 75.1993 62.9231 75.2179 59.8597 75.2179C57.8079 75.2179 56.2762 75.1807 56.125 75.1249L55.8886 75.0319L55.9075 73.2001L55.9359 71.3589L56.4275 71.331C56.6923 71.3125 56.957 71.2474 57.0137 71.1823C57.1556 71.0149 57.1177 61.4652 56.9759 61.428C56.9286 61.4187 56.7774 61.7255 56.645 62.1068C56.5126 62.488 56.3802 62.8414 56.3424 62.8972C56.3141 62.9437 56.2479 63.1389 56.1911 63.3156C56.1344 63.4923 55.9359 64.0595 55.7468 64.5709C55.5577 65.0823 55.3213 65.7518 55.2173 66.0587C55.1133 66.3656 54.9904 66.7003 54.9431 66.8026C54.8958 66.9049 54.7634 67.2582 54.65 67.593C54.546 67.9277 54.3947 68.3276 54.3191 68.495C54.2434 68.653 54.1867 68.8204 54.1867 68.8576C54.1867 68.932 53.6572 70.3919 53.5154 70.708C53.4681 70.8103 53.3263 71.2102 53.1939 71.5914C52.9197 72.4004 52.4659 73.665 52.3146 74.037C52.2484 74.1857 52.2011 74.3345 52.2011 74.381C52.2011 74.6135 51.8513 75.1342 51.6811 75.1807C51.3029 75.2737 48.0504 75.1807 47.9464 75.0691C47.8518 74.9761 47.5115 74.0742 47.0576 72.7537C46.982 72.5492 46.7929 72.0284 46.6227 71.5914C46.462 71.1544 46.2918 70.6708 46.235 70.5221C46.1878 70.364 46.1121 70.1594 46.0648 70.0571C46.0081 69.9548 45.8663 69.555 45.7339 69.1738C45.4692 68.3927 45.0343 67.1559 44.9492 66.9421C44.8073 66.6073 44.3346 65.2869 44.2589 65.0359C44.1644 64.7197 43.9091 64.013 43.7957 63.734C43.7578 63.6318 43.6538 63.3993 43.5782 63.2226C43.5025 63.0459 43.3418 62.5717 43.2189 62.1812C42.7651 60.7585 42.7461 60.9351 42.7461 66.2912V71.2195L42.9636 71.266C43.0771 71.2846 43.3418 71.3217 43.5498 71.331L43.928 71.3589L43.9564 73.2001L43.9753 75.0319L43.7389 75.1249C43.5876 75.1807 42.0465 75.2179 39.9664 75.2179C37.0826 75.2179 36.4113 75.19 36.3262 75.0877C36.2506 75.004 36.2222 74.4089 36.2411 73.1629L36.2695 71.3589L37.4041 71.3125L38.5387 71.266V65.4543V59.6426L37.4041 59.5961L36.2695 59.5496L36.2411 57.7364C36.2317 56.7414 36.2411 55.8767 36.26 55.8116C36.2978 55.7186 37.215 55.6907 40.6566 55.6907H45.0153L45.1572 55.9046ZM84.1401 55.7651C84.2252 55.8302 84.2536 56.2765 84.2346 57.6992L84.2063 59.5496L83.327 59.5775C82.6462 59.5961 82.4382 59.6333 82.3909 59.7449C82.3436 59.8751 82.5327 60.3865 83.0433 61.5489C83.1473 61.7813 83.2608 62.051 83.3081 62.1533C83.3459 62.2556 83.4782 62.5717 83.5917 62.8507C83.7052 63.1296 83.8943 63.5667 84.0172 63.827C84.1306 64.0781 84.3197 64.5244 84.4332 64.8034C84.5467 65.0823 84.679 65.3985 84.7263 65.5008C84.8019 65.6589 85.01 66.1424 85.2841 66.8026C85.3314 66.9049 85.5678 67.4721 85.8136 68.0579C86.05 68.6437 86.3147 69.2481 86.3809 69.4062C86.4566 69.555 86.6362 69.9734 86.7969 70.3361C86.9577 70.6894 87.1279 71.0521 87.1751 71.1265C87.2319 71.2381 87.4872 71.2753 88.3097 71.2939L89.3592 71.3217L89.3403 73.2466L89.312 75.1714H84.9154H80.5188L80.4905 73.321C80.481 72.2423 80.5094 71.424 80.5567 71.3775C80.6039 71.331 81.0956 71.2939 81.644 71.3032C82.4193 71.3217 82.6557 71.2939 82.7029 71.1916C82.7597 71.0428 81.8331 68.8855 81.6723 68.7832C81.6062 68.746 79.8948 68.7088 77.8525 68.7088H74.1462L73.9571 68.9506C73.8436 69.0901 73.7585 69.2481 73.7585 69.3225C73.7585 69.3876 73.7018 69.555 73.6261 69.7038C73.5505 69.8433 73.4465 70.0664 73.3992 70.1966C73.3425 70.3268 73.229 70.5872 73.1345 70.7824C73.0494 70.9777 73.0116 71.1637 73.0399 71.2009C73.0778 71.2381 73.5883 71.2846 74.1651 71.3125L75.224 71.3589L75.2524 73.1629C75.2713 74.4089 75.243 75.004 75.1673 75.0877C75.0822 75.1993 74.2974 75.2179 70.7802 75.2179C67.2629 75.2179 66.4782 75.1993 66.3931 75.0877C66.3174 75.004 66.2891 74.4089 66.308 73.1629L66.3363 71.3589L67.4142 71.3125L68.4921 71.266L68.6623 70.9684C68.7568 70.8103 68.9837 70.3082 69.1728 69.8526C69.3714 69.4062 69.5794 68.9041 69.6456 68.7553C69.9103 68.1416 69.986 67.9649 70.4493 66.8491C70.9882 65.5659 71.0071 65.5194 71.3002 64.8499C71.5933 64.1804 71.6217 64.1339 72.1512 62.8507C72.4254 62.2091 72.709 61.5489 72.7752 61.3908C72.8508 61.2234 72.9737 60.9537 73.0494 60.7864C73.1156 60.619 73.2479 60.3214 73.333 60.1262C73.4181 59.9402 73.456 59.7356 73.4276 59.6891C73.3992 59.6333 72.9737 59.5961 72.4821 59.5961H71.5933L71.5366 59.2893C71.4988 59.1219 71.4893 58.285 71.5082 57.4295C71.5271 56.1649 71.565 55.8488 71.6784 55.7837C71.8486 55.6721 83.9604 55.6628 84.1401 55.7651Z" fill="#050B5C"/>
<path d="M77.6447 60.2191C77.5218 60.5539 77.3043 61.0746 77.0112 61.7069C76.9356 61.865 76.8789 62.0138 76.8789 62.0416C76.8789 62.0881 76.6425 62.6182 76.217 63.548C75.9712 64.0781 75.7632 64.7011 75.8105 64.7476C75.9145 64.8405 79.8856 64.8127 79.9517 64.7104C79.9801 64.6639 79.9234 64.4314 79.8099 64.2082C79.7059 63.9758 79.6208 63.7712 79.6208 63.7433C79.6208 63.7247 79.4885 63.4179 79.3277 63.0645C78.9495 62.2462 78.8739 62.0695 78.3822 60.8793C78.1553 60.3307 77.9189 59.8751 77.8716 59.8751C77.8149 59.8751 77.7109 60.0331 77.6447 60.2191Z" fill="#050B5C"/>
<path d="M35.7024 15.4181C33.6979 16.0318 32.4499 17.6125 32.4404 19.5281C32.4404 21.4529 33.7358 23.0895 35.7591 23.6939C36.1941 23.824 37.4232 23.824 37.9905 23.6939C38.8793 23.48 39.7208 23.2196 39.768 23.1359C39.8059 23.0895 39.9193 23.0523 40.0328 23.0523C40.1462 23.043 40.411 22.9686 40.619 22.8663C40.827 22.764 41.0539 22.6896 41.1201 22.6803C41.1863 22.6803 41.3092 22.6431 41.4038 22.5966C41.8671 22.3642 42.302 22.2154 42.5195 22.2154C42.6424 22.2154 42.9071 22.1503 43.0962 22.0759C43.342 21.9736 43.7959 21.9364 44.7792 21.9364C45.7625 21.9364 46.2164 21.9736 46.4622 22.0759C46.6513 22.1503 46.916 22.2154 47.0389 22.2154C47.2564 22.2154 47.6913 22.3642 48.1641 22.6059C48.2586 22.6524 48.3721 22.6617 48.4194 22.6338C48.4761 22.5966 48.5139 22.141 48.5139 21.611C48.5139 20.6439 48.5139 20.6346 48.2586 20.5044C48.1073 20.4393 47.6441 20.2906 47.2186 20.179C46.1218 19.9 43.4271 19.9 42.3682 20.1697C41.9805 20.272 41.574 20.3928 41.4699 20.4393C41.3659 20.4858 41.0728 20.5974 40.8081 20.6811C40.0422 20.9322 39.3048 21.2204 39.2007 21.3041C39.1535 21.3413 39.0306 21.3785 38.9171 21.3785C38.8131 21.3785 38.6051 21.4529 38.4443 21.5366C38.2269 21.6575 37.9054 21.6947 37.0734 21.6947C36.0144 21.704 35.9766 21.6947 35.5606 21.425C35.3337 21.2669 35.0122 20.9508 34.8515 20.7276C34.5962 20.3463 34.5678 20.2441 34.5678 19.5467C34.5678 18.5889 34.6624 18.468 35.154 18.7656C36.1184 19.3235 36.2981 19.37 37.4988 19.3793H38.6334L38.6051 19.1654C38.5956 19.0445 38.5011 18.84 38.3971 18.7098C38.3025 18.5889 38.2363 18.4308 38.2647 18.3657C38.312 18.2448 38.832 18.031 39.0873 18.031C39.1724 18.031 39.3898 17.938 39.5789 17.8357C39.8815 17.659 39.9004 17.6218 39.7775 17.4824C39.7019 17.3987 39.3993 17.2127 39.1062 17.0639C38.8131 16.9244 38.5484 16.7385 38.52 16.6641C38.4916 16.5897 38.5956 16.3944 38.7753 16.2177C38.9549 16.0411 39.0589 15.8458 39.0306 15.7714C38.8604 15.3344 36.7046 15.1112 35.7024 15.4181Z" fill="#050B5C"/>
<path d="M19.8084 16.3574C18.6927 17.4267 18.2294 17.9196 17.3123 18.961C16.9719 19.3423 16.5559 19.8165 16.3763 20.0118C16.1966 20.1977 15.9791 20.4581 15.9035 20.579C15.8184 20.6999 15.5631 21.0253 15.3362 21.295C15.1093 21.5739 14.8445 21.8994 14.75 22.0296C14.6554 22.1597 14.3907 22.4945 14.1732 22.7735C13.9463 23.0524 13.6627 23.4337 13.5398 23.6103C13.4168 23.787 13.1332 24.1869 12.9157 24.4937C12.4241 25.1818 10.8167 27.7204 10.6749 28.0272C10.5236 28.362 10.6182 28.4735 11.2233 28.7153C11.5353 28.8269 11.923 28.985 12.0837 29.0594C12.2539 29.1338 12.5564 29.2639 12.7455 29.3476C12.9441 29.4313 13.2183 29.5522 13.3601 29.6266C13.4925 29.6917 13.6532 29.7475 13.7005 29.7475C13.7572 29.7475 14.0881 29.8776 14.4474 30.0357C15.2322 30.3798 15.5537 30.5193 16.0075 30.7052L16.3573 30.854L16.7072 30.2775C17.9174 28.2876 20.6594 24.5588 21.4347 23.8428C21.4819 23.787 21.8034 23.4337 22.1343 23.0524C22.4653 22.6712 23.2311 21.8622 23.8362 21.2578C24.4319 20.6534 24.9425 20.1419 24.9519 20.1233C25.0087 20.0675 24.8385 19.8351 24.2523 19.1842C23.9402 18.8308 23.3162 18.1334 22.8624 17.6406C22.418 17.1385 21.9074 16.5805 21.7278 16.3853C21.5481 16.19 21.2739 15.8831 21.1227 15.7065L20.8296 15.3903L19.8084 16.3574Z" fill="#050B5C"/>
<path d="M78.231 16.2367C77.815 16.6924 77.3517 17.1945 77.2004 17.3712C77.0491 17.5479 76.7938 17.8454 76.6236 18.0221C74.5908 20.2724 74.7137 19.9283 75.6498 20.8954C76.0847 21.3417 76.5858 21.8438 76.7655 22.0205C76.9451 22.1879 77.3233 22.6063 77.6164 22.9504C77.9095 23.2851 78.2877 23.7129 78.4485 23.8895C78.8834 24.3452 80.1504 25.9074 80.4529 26.3537C80.5947 26.5583 80.9824 27.0976 81.3228 27.5625C81.6632 28.0182 82.117 28.6691 82.3155 28.9945C82.5236 29.32 82.7694 29.6919 82.8545 29.8314C82.949 29.9616 83.0625 30.1568 83.1192 30.2591C83.3461 30.7241 83.6771 30.9193 83.8283 30.6776C83.8567 30.6218 83.9702 30.5846 84.0742 30.5846C84.1782 30.5846 84.424 30.5009 84.6131 30.3986C85.1331 30.129 86.003 29.7477 86.1165 29.7477C86.1732 29.7477 86.4757 29.6175 86.7878 29.4687C87.1092 29.3107 87.3929 29.1898 87.4212 29.1898C87.4591 29.1898 87.6198 29.134 87.7805 29.0596C87.9507 28.9852 88.3289 28.8364 88.6409 28.7156C88.9435 28.5947 89.2177 28.4459 89.2366 28.3808C89.2839 28.2599 89.1231 27.8787 88.8111 27.4044C88.726 27.265 88.4613 26.8465 88.2344 26.4746C87.7994 25.7772 87.062 24.6613 86.9201 24.494C86.8823 24.4382 86.7027 24.1871 86.523 23.936C86.0881 23.313 84.5942 21.351 84.1214 20.7838C83.6582 20.2445 81.9184 18.2546 81.7104 18.0314C81.1526 17.4363 79.0914 15.4278 79.0441 15.4278C79.0063 15.4278 78.6376 15.7904 78.231 16.2367Z" fill="#050B5C"/>
<path d="M49.2705 34.1088C49.2705 36.3869 49.2894 36.8054 49.4029 36.7589C49.6014 36.6845 49.8945 35.7732 50.0269 34.8527C50.1687 33.9042 50.0458 32.8069 49.7054 31.9887C49.3083 31.0309 49.2705 31.1983 49.2705 34.1088Z" fill="#050B5C"/>
<path d="M13.1897 89.3334C12.3198 89.6216 11.7336 90.2167 11.6013 90.9513C11.5351 91.314 11.4594 91.3605 10.8354 91.4163C10.599 91.4442 10.5518 91.4814 10.5518 91.6766C10.5518 91.8812 10.599 91.9184 10.9961 91.9556C11.242 91.9835 11.4783 92.0393 11.5162 92.0858C11.554 92.123 11.6013 93.276 11.6107 94.6336C11.6202 96.0005 11.6391 97.1629 11.6391 97.2186C11.6391 97.386 11.9133 97.4511 12.1213 97.3488C12.2915 97.2558 12.3009 97.1257 12.3009 94.8382C12.3009 93.4992 12.3388 92.3275 12.3955 92.1974L12.49 91.9556H14.7309C15.9695 91.9556 17.0379 91.9928 17.1135 92.0393C17.1986 92.0951 17.2648 92.3368 17.2932 92.6902C17.331 93.1644 17.3121 93.2667 17.1703 93.3132C17.0757 93.3504 16.9339 93.3318 16.8488 93.276C15.9411 92.6251 14.6363 92.839 14.069 93.7223C13.861 94.0478 13.7665 94.894 13.8988 95.3589C14.2108 96.4933 15.7142 97.0234 16.6691 96.326C17.123 96.0005 17.2648 96.0935 17.2932 96.763C17.3215 97.3767 17.4539 97.5255 17.7943 97.3488C17.9645 97.2558 17.9739 97.1257 17.9739 94.708C17.9739 92.653 18.0023 92.1416 18.1063 92.0579C18.1914 91.9835 18.6736 91.9556 19.5907 91.9742L20.9522 92.0021V92.374V92.746L20.4795 92.7925C19.9406 92.8576 19.638 93.0156 19.4962 93.3225C19.3165 93.7037 19.3733 93.9827 19.7042 94.3082C19.9689 94.5685 20.0068 94.6522 19.9311 94.8196C19.8744 94.9312 19.7987 95.0242 19.7609 95.0242C19.6475 95.0242 19.3922 95.5356 19.3922 95.7681C19.3922 96.0842 19.7326 96.6421 20.0351 96.8095C20.2526 96.9397 20.5362 96.9769 21.217 96.9769C22.0585 96.9769 22.1247 96.9676 22.5123 96.6886C22.9094 96.4097 22.9283 96.4004 23.0513 96.5677C23.1269 96.67 23.1647 96.8188 23.1458 96.9025C23.0796 97.1443 23.2971 97.3674 23.5618 97.3302L23.7887 97.3023L23.836 94.7452C23.8644 93.3411 23.9211 92.1323 23.9589 92.0672C24.0062 91.9928 24.2804 91.9556 24.7342 91.9556C25.3299 91.9556 25.4528 91.9835 25.5379 92.1323C25.5947 92.2439 25.6325 93.276 25.6325 94.8196V97.3302L25.8972 97.3767C26.3794 97.4697 26.3889 97.4325 26.3889 94.6987C26.3889 92.6344 26.4172 92.1416 26.5212 92.0579C26.6063 91.9928 26.9184 91.9556 27.3533 91.9742L28.0435 92.0021L28.0908 94.6522C28.1191 96.1121 28.157 97.3116 28.1664 97.3302C28.1759 97.3488 28.3461 97.3488 28.5446 97.3302L28.8944 97.3023L28.9417 94.6522L28.989 92.0021H31.3527H33.7165L33.7449 92.5972C33.7827 93.369 33.7259 93.5271 33.499 93.3225C33.2721 93.1179 32.5819 92.8855 32.2037 92.8855C31.8255 92.8855 31.1258 93.1644 30.9084 93.4062C30.7098 93.6387 30.36 94.5034 30.36 94.7917C30.36 95.1357 30.7193 95.954 30.9556 96.1493C31.2109 96.3725 31.6269 96.5584 32.043 96.6328C32.3739 96.6979 33.1397 96.4933 33.395 96.2702C33.6692 96.0284 33.7543 96.1214 33.7827 96.7165L33.811 97.3023L34.1703 97.3302C34.3594 97.3488 34.5296 97.3488 34.5391 97.3302C34.5485 97.3116 34.5863 96.1121 34.6147 94.6522L34.662 92.0021L35.3806 91.9742C35.9006 91.9556 36.1275 91.9835 36.2032 92.0765C36.2788 92.1602 36.3261 93.0156 36.3355 94.7452L36.3639 97.293L36.6664 97.3581C36.865 97.3953 37.0068 97.3767 37.073 97.3023C37.1297 97.2372 37.177 96.1493 37.1865 94.5964L37.2148 92.0021L39.9946 91.9742C41.9612 91.9556 42.8122 91.9835 42.8973 92.0579C43.058 92.1881 43.0769 93.0807 42.9162 93.2388C42.8406 93.3132 42.3394 93.3504 41.2994 93.3504C39.9662 93.3504 39.7393 93.369 39.3989 93.5457C38.7938 93.8339 38.5858 94.2059 38.5858 94.9777V95.6193L39.0207 96.0191L39.4651 96.419H40.2121C40.8739 96.419 40.9968 96.3911 41.2805 96.1772C41.7343 95.8424 41.9423 95.2008 41.7911 94.6336C41.6209 94.0292 41.6965 93.9083 42.2638 93.9083C43.0107 93.9083 43.0297 93.9548 43.0297 95.7216C43.0297 97.0792 43.0486 97.2558 43.1998 97.3302C43.2849 97.3767 43.4646 97.386 43.597 97.3488L43.8333 97.293L43.8806 94.6522C43.909 93.1923 43.9468 91.9928 43.9562 91.9742C43.9657 91.9649 44.5897 91.9556 45.3461 91.9556C46.9346 91.9556 46.9535 91.9649 46.8211 92.8018C46.7266 93.3783 46.4618 93.6573 45.8378 93.8246C45.2799 93.9827 45.2138 94.085 45.3272 94.6708C45.4501 95.3496 45.6865 95.7588 46.1498 96.1121C46.528 96.4097 46.5753 96.419 47.4451 96.419C48.2015 96.419 48.3812 96.3911 48.5797 96.233C48.7121 96.1307 48.9201 96.047 49.043 96.047C49.2132 96.047 49.27 96.1121 49.3172 96.3446C49.3456 96.5119 49.3645 96.7351 49.355 96.8374C49.3078 97.2558 49.3645 97.3488 49.6292 97.3488C50.1114 97.3488 50.1209 97.3116 50.1209 94.6894C50.1209 93.3504 50.1493 92.1881 50.1776 92.1044C50.2249 91.9835 50.3856 91.9556 50.934 91.9556C51.6053 91.9556 51.6432 91.9649 51.7283 92.1974C51.785 92.3275 51.8228 93.4992 51.8228 94.8382C51.8228 97.1257 51.8323 97.2558 52.0024 97.3488C52.2105 97.4511 52.4752 97.386 52.4941 97.2186C52.5036 97.1629 52.513 96.0284 52.5225 94.6894C52.5319 92.7832 52.5603 92.2346 52.6643 92.1137C52.7683 91.9742 53.0141 91.9556 54.2811 91.9556C55.463 91.9556 55.7939 91.9835 55.8884 92.0858C55.9641 92.1881 55.9925 92.5879 55.9641 93.4248C55.9357 94.4569 55.9074 94.6615 55.7561 94.8289C55.3684 95.2473 54.6593 94.894 54.6593 94.271C54.6593 94.0664 54.612 94.0013 54.3756 93.9548C53.9974 93.8711 53.9029 93.9548 53.9029 94.3454C53.9029 94.708 54.1866 95.2287 54.4986 95.4426C54.82 95.6658 55.8979 95.6286 56.2099 95.3868C56.6638 95.0335 56.7394 94.7638 56.7394 93.4155C56.7394 92.5786 56.7772 92.1416 56.8529 92.0672C56.919 92.0021 57.2121 91.9556 57.5147 91.9556C57.9496 91.9556 58.0726 91.9928 58.1576 92.1323C58.2144 92.2439 58.2522 93.276 58.2522 94.8196V97.3302L58.5358 97.3674C58.6871 97.3953 58.8573 97.3674 58.914 97.3116C58.9708 97.2558 59.0086 96.2702 59.0086 94.6336V92.0486L59.2261 92.0021C59.3395 91.9742 59.7177 91.9556 60.0486 91.9742L60.6632 92.0021L60.7105 94.6522C60.7389 96.1121 60.7767 97.3116 60.7861 97.3302C60.7956 97.3488 60.9658 97.3488 61.1643 97.3302L61.5142 97.3023L61.5425 94.6987C61.5614 92.7646 61.5898 92.0858 61.6844 92.03C61.8356 91.937 62.9891 91.937 63.1404 92.03C63.235 92.0858 63.2633 92.7646 63.2823 94.6987L63.3106 97.293L63.5848 97.3581C64.1048 97.4976 64.1048 97.4697 64.1332 94.615L64.1616 92.0021L66.1187 91.9742L68.0759 91.9556L68.2272 92.1788C68.4163 92.467 68.3407 92.7739 68.057 92.8297C67.9436 92.8576 67.5086 92.9413 67.1021 93.0156C66.3173 93.1644 66.0147 93.3504 65.7595 93.8339C65.4947 94.3361 65.6744 95.3868 66.062 95.61C66.2606 95.7216 66.2228 96.0842 65.9864 96.3725C65.8256 96.577 65.7784 96.7537 65.7784 97.2093C65.7784 97.8324 65.9486 98.1578 66.4591 98.4833C66.7901 98.6971 67.6315 98.7064 67.9908 98.5019C68.3501 98.288 68.5676 98.381 68.5014 98.725C68.4352 99.0412 68.6338 99.2365 68.9552 99.19L69.1727 99.1621L69.2011 97.0048C69.22 94.9219 69.22 94.8475 69.0309 94.7452C68.8702 94.6615 68.7945 94.6894 68.6054 94.8754C68.473 95.0056 68.369 95.145 68.369 95.1822C68.369 95.3403 67.8017 95.5821 67.433 95.5821C67.121 95.5821 66.9697 95.517 66.7144 95.2845C66.1944 94.8289 66.2606 94.1873 66.8846 93.7223C66.9981 93.6387 67.4141 93.5736 68.0192 93.5457L68.9836 93.4899L69.012 92.839C69.0309 92.4856 69.0876 92.1416 69.1443 92.0765C69.22 91.9835 69.7589 91.9556 71.4514 91.9556C73.9664 91.9556 73.8529 91.9184 73.8529 92.7925C73.8529 93.3225 73.7206 93.4434 73.3613 93.2295C72.9263 92.9506 72.4252 92.8762 71.8768 93.0249C71.1299 93.2202 70.7422 93.713 70.6666 94.5592C70.5059 96.2609 72.0754 97.1814 73.5031 96.2051C73.7395 96.047 73.8529 96.2516 73.8529 96.8467C73.8529 97.3116 73.8624 97.3302 74.1366 97.3674C74.2879 97.3953 74.4581 97.3674 74.5148 97.3116C74.5715 97.2558 74.6093 96.6328 74.6093 95.7681V94.3082L74.9213 93.9548C75.2145 93.6294 75.2806 93.5922 75.7345 93.5922C76.1883 93.5829 76.2545 93.6108 76.5571 93.9269C76.8407 94.2431 76.8785 94.3361 76.8785 94.801C76.8785 95.2659 76.8502 95.3496 76.5571 95.6379C76.3112 95.8796 76.16 95.954 75.9047 95.954C75.6494 95.954 75.5548 96.0005 75.5076 96.14C75.3185 96.7258 76.368 96.7444 77.0865 96.1772C78.1833 95.3217 77.7957 93.3783 76.4625 92.997C76.0181 92.8762 75.3563 92.997 74.997 93.276C74.8646 93.3783 74.7322 93.4155 74.685 93.369C74.6377 93.3225 74.6093 92.997 74.6282 92.6437L74.6566 92.0021L76.8596 91.9742L79.0532 91.9556L79.1383 92.1602C79.1761 92.2811 79.2234 93.462 79.2234 94.7917C79.2328 96.1214 79.2423 97.2372 79.2423 97.2744C79.2423 97.3209 79.3936 97.3488 79.5732 97.3488C79.8285 97.3488 79.9041 97.3116 79.9041 97.1814C79.9041 97.0978 79.9041 95.9912 79.9041 94.7359C79.9041 93.4155 79.9419 92.3461 79.9892 92.1974L80.0932 91.9556H81.7762C82.9581 91.9556 83.497 91.9928 83.5727 92.0672C83.7523 92.2439 83.705 92.9041 83.4781 93.3504C83.2228 93.8432 82.9581 93.992 82.145 94.0757L81.5588 94.1408L81.5304 95.1078C81.5115 95.9261 81.5304 96.14 81.6911 96.4562C81.9748 97.0141 82.0882 97.135 82.5421 97.3116C83.5632 97.7115 84.8207 97.0513 84.8207 96.1028C84.8207 95.6193 84.2251 95.6751 84.0076 96.1865C83.7239 96.856 83.1094 96.9862 82.5893 96.4747C82.2679 96.1586 82.2584 96.14 82.2868 95.424L82.3152 94.6987H84.1589H86.0026L86.031 95.9261C86.0499 97.1071 86.0688 97.1721 86.2768 97.3023C86.3997 97.386 86.5699 97.4232 86.655 97.386C86.7874 97.3395 86.8063 97.0606 86.8063 94.7917C86.8063 91.9277 86.7968 91.9556 87.4776 91.9556C87.8369 91.9556 87.8558 91.937 87.8274 91.6952L87.799 91.4442L78.5142 91.4163L69.2389 91.3977L69.0782 90.9234C68.8702 90.3097 68.577 89.882 68.2272 89.6681C66.8941 88.8684 64.4925 89.0637 63.7361 90.0401C63.6604 90.1424 63.4997 90.4771 63.3957 90.784L63.1972 91.3512H57.9118H52.6359L52.2105 90.7468C51.5486 89.7797 51.1704 89.4729 50.5653 89.3985C49.8562 89.3055 49.7049 89.352 49.6671 89.6588C49.6482 89.7983 49.6671 89.9099 49.7143 89.9192C50.3478 89.9564 50.6315 90.0215 50.8489 90.1703C51.2839 90.4771 51.6337 90.9141 51.6337 91.1652V91.3977H47.6721C44.6181 91.3977 43.6915 91.3698 43.6159 91.2768C43.5686 91.221 43.474 90.9978 43.4173 90.7933C43.2944 90.3283 42.7176 89.7518 42.1314 89.51C41.5547 89.2683 40.9023 89.166 39.8717 89.166C37.7254 89.166 36.6286 89.7146 36.3639 90.942C36.3261 91.1187 36.241 91.2861 36.1842 91.3233C36.1275 91.3605 35.7493 91.3977 35.3522 91.3977C34.6336 91.3977 34.6147 91.3884 34.4729 91.1187C34.3972 90.9699 34.3311 90.7747 34.3311 90.691C34.3311 90.3934 33.6787 89.7425 33.1208 89.4822C32.6575 89.259 32.4401 89.2125 31.5229 89.1846C29.821 89.1195 28.8188 89.5286 28.3366 90.4771C28.2515 90.6445 28.1853 90.8677 28.1853 90.9792C28.1853 91.1001 28.1286 91.2396 28.0529 91.2954C27.9679 91.3698 26.5402 91.3884 22.9283 91.3791C18.0117 91.3512 17.9267 91.3512 17.8983 91.1652C17.8037 90.691 17.2081 89.7239 17.0001 89.7239C16.9433 89.7239 16.8299 89.6681 16.7542 89.603C16.2342 89.1753 14.1636 89.0172 13.1897 89.3334ZM16.0924 90.0401C16.7164 90.3469 17.0568 90.7375 17.0095 91.1001L16.9812 91.3512H14.712H12.4428L12.4144 91.0536C12.3671 90.6166 12.8966 90.0773 13.5584 89.882C14.3243 89.6495 15.4305 89.7146 16.0924 90.0401ZM32.3077 89.8727C32.9034 90.068 33.3572 90.4027 33.5463 90.8026C33.83 91.3791 33.7543 91.3977 31.2393 91.3977C29.3577 91.3977 29.0268 91.3791 28.9795 91.2582C28.8093 90.8305 29.4145 90.1238 30.152 89.882C30.7382 89.6867 31.7215 89.6867 32.3077 89.8727ZM41.3561 89.9099C42.0842 90.1331 42.434 90.3841 42.6231 90.8212C42.8689 91.3977 42.8595 91.407 39.8717 91.3791L37.2148 91.3512L37.1865 91.0164C37.1581 90.7189 37.2054 90.6352 37.5458 90.3469C37.7538 90.1703 38.1509 89.9564 38.4251 89.882C39.1626 89.6681 40.5997 89.6774 41.3561 89.9099ZM67.0642 89.882C67.9247 90.2074 68.5581 90.9234 68.2745 91.2582C68.1705 91.3791 67.8774 91.3977 66.1566 91.3791L64.1616 91.3512L64.1332 91.128C64.0954 90.8584 64.3601 90.3562 64.6249 90.1889C65.3529 89.7332 66.3551 89.603 67.0642 89.882ZM23.0702 92.1602C23.1931 92.5042 23.1174 95.1078 22.9756 95.5356C22.8811 95.7773 22.7109 95.9912 22.4367 96.1772C22.0868 96.419 21.9545 96.4562 21.3872 96.4562C20.7821 96.4655 20.7064 96.4469 20.4417 96.1958C19.8744 95.6565 20.2053 95.0149 21.0563 94.987C21.841 94.9684 21.8694 94.3733 21.0941 94.3733C20.6686 94.3733 20.1486 94.0013 20.1486 93.6944C20.1486 93.3597 20.5173 93.0714 20.9428 93.0714C21.6236 93.0714 21.7559 92.997 21.7559 92.6344C21.7559 92.0765 21.8883 91.9556 22.4745 91.9556C22.9189 91.9556 23.004 91.9835 23.0702 92.1602ZM49.2132 92.1602C49.4212 92.4949 49.3645 94.5034 49.1187 94.9777C48.8539 95.517 48.3055 95.8517 47.6815 95.861C46.8778 95.861 46.3578 95.5077 46.1404 94.8196C46.008 94.4011 46.1025 94.2338 46.528 94.1501C47.2277 94.0199 47.6626 93.4155 47.6626 92.5786C47.6626 92.3089 47.691 92.0486 47.7288 92.0207C47.7572 91.9835 48.0786 91.9556 48.4285 91.9556C48.9958 91.9556 49.0903 91.9835 49.2132 92.1602ZM85.9364 92.0672C86.0121 92.1416 86.0499 92.4949 86.0499 93.0435V93.9083H85.1611C84.6694 93.9083 84.244 93.8711 84.2156 93.8246C84.1872 93.7781 84.2251 93.5922 84.3007 93.4062C84.3763 93.2295 84.4425 92.8762 84.4425 92.6251C84.4425 92.3833 84.4898 92.1323 84.556 92.0672C84.6222 92.0021 84.9247 91.9556 85.2462 91.9556C85.5677 91.9556 85.8702 92.0021 85.9364 92.0672ZM16.7637 93.7688C17.123 94.0385 17.2743 94.6243 17.123 95.1543C16.9906 95.6286 16.8393 95.7959 16.3477 95.9912C16.0451 96.1214 15.9506 96.1214 15.544 96.0005C14.9956 95.8424 14.816 95.6751 14.6174 95.1264C14.4945 94.7731 14.4945 94.6987 14.6269 94.3918C14.7876 93.992 15.0145 93.7316 15.2793 93.6201C15.6007 93.4806 16.4895 93.5736 16.7637 93.7688ZM33.187 93.6666C33.603 93.8804 33.7638 94.2059 33.7638 94.8196C33.7638 95.2938 33.7259 95.3961 33.5085 95.6007C32.9695 96.0935 32.4401 96.1958 31.8917 95.9168C31.4 95.6658 31.2109 95.3403 31.2109 94.7545C31.2204 94.2059 31.3244 94.0013 31.7782 93.6944C32.0619 93.4992 32.8183 93.4806 33.187 93.6666ZM73.1249 93.6666C73.5787 93.8432 73.7962 94.2338 73.7962 94.8289C73.7962 95.2845 73.7678 95.3496 73.4464 95.6379C73.1438 95.9075 73.0303 95.954 72.6238 95.954C72.2172 95.954 72.0943 95.9075 71.8012 95.6472C71.4892 95.3589 71.4608 95.2938 71.4608 94.801C71.4608 94.3268 71.4986 94.2338 71.7728 93.9548C72.1889 93.5364 72.6049 93.4434 73.1249 93.6666ZM40.7415 94.0943C41.602 94.615 41.2427 95.8517 40.2215 95.861C39.2193 95.8703 38.86 94.5034 39.7488 94.0664C40.1553 93.8711 40.3728 93.8711 40.7415 94.0943ZM68.492 96.2051C68.6338 96.67 68.4825 97.4976 68.2083 97.8138C68.0003 98.0555 67.9152 98.0927 67.4708 98.0927C66.9981 98.0927 66.9413 98.0648 66.6766 97.7487C66.5159 97.5534 66.3835 97.3023 66.3835 97.1814C66.3835 96.67 66.9508 96.14 67.4897 96.14C67.641 96.14 67.849 96.0749 67.953 96.0005C68.2178 95.8052 68.3974 95.8703 68.492 96.2051Z" fill="#050B5C"/>
<path d="M88.5367 92.895C88.2815 92.988 88.168 93.3785 88.3098 93.6854C88.4327 93.9457 88.8771 93.9922 89.1135 93.7598C89.539 93.3506 89.0946 92.6904 88.5367 92.895Z" fill="#050B5C"/>
<path d="M88.4893 96.3908C88.3096 96.4373 88.1867 96.7628 88.2435 97.0418C88.2624 97.1347 88.3947 97.2649 88.5366 97.33C88.7635 97.4416 88.8297 97.4323 89.0377 97.3114C89.3686 97.0975 89.3591 96.5861 89.0282 96.4373C88.7729 96.3258 88.754 96.3165 88.4893 96.3908Z" fill="#050B5C"/>
</svg>
