<svg width="100" height="98" viewBox="0 0 100 98" fill="none" xmlns="http://www.w3.org/2000/svg">
<g clip-path="url(#clip0_6556_6148)">
<path d="M46.3832 2.20428C49.1285 2.13902 51.9074 1.96849 54.6295 2.40849L56.2779 9.32218C59.1474 9.81481 61.9558 10.6001 64.7032 11.558C66.4674 9.90955 68.1011 8.12007 69.9116 6.52428C72.4821 7.54744 74.9116 8.95586 77.179 10.5432L75.2106 17.3559C77.5053 19.1769 79.6421 21.1938 81.5579 23.4085C83.7748 22.659 85.9369 21.7369 88.1327 20.9201C89.8148 23.0906 91.2842 25.4211 92.5979 27.8317L87.6695 32.9053C88.6885 35.4422 89.7537 37.9727 90.3074 40.6632L97.4064 41.619C97.8747 44.2886 98.1316 46.9911 98.1748 49.7011L91.4421 51.9306C91.16 54.6759 90.8927 57.4422 90.1895 60.118C92.099 61.6253 94.1958 62.8801 96.0695 64.4338C95.2864 67.1369 94.1474 69.7222 92.8443 72.2127L85.9011 70.7117C84.8442 72.478 83.7264 74.2106 82.48 75.8527C80.1621 74.1285 77.9306 72.2927 75.7453 70.4043C80.8253 63.899 83.4421 55.4611 82.64 47.2253C82.08 40.6253 79.3874 34.2359 75.1158 29.179C70.3706 23.5264 63.6716 19.5201 56.4127 18.1348C52.1811 17.3348 47.7853 17.2653 43.5642 18.179C37.1411 19.4717 31.1727 22.819 26.6274 27.5264C21.4421 32.8422 18.1558 39.9874 17.5643 47.3959C16.7558 55.7517 19.8106 64.1432 24.8527 70.7306C24.6 70.9938 24.3369 71.2485 24.0506 71.4759C22.0737 73.0085 20.1811 74.6464 18.2148 76.1938C16.7832 74.5959 15.6358 72.7769 14.4843 70.9769C12.0969 71.198 9.70951 71.8443 7.30741 72.1474C7.02951 72.0969 6.97478 71.7495 6.8253 71.5538C5.66951 69.2211 4.73899 66.7832 3.96846 64.299C5.94109 62.9917 8.01899 61.8506 9.99162 60.5453C10.3095 60.379 10.0485 59.9895 10.0337 59.7306C9.38741 57.1074 8.96636 54.4211 8.93899 51.7138C6.61267 50.9706 4.25688 50.3159 1.90951 49.6422C1.82741 46.8695 2.08004 44.078 2.73478 41.3811C5.1757 41.1049 7.61309 40.7982 10.0464 40.4611C10.7264 37.7285 11.6043 35.0274 12.8379 32.4927C11.2043 30.6717 9.40214 29.0127 7.7432 27.2148C9.09478 24.6443 10.7032 22.2001 12.6211 20.0127L19.059 23.0443C21.0695 20.8969 23.2485 18.9074 25.5558 17.0822C24.8864 14.8317 24.0927 12.619 23.3769 10.3853C23.4969 10.0843 23.8527 9.97691 24.0927 9.78744C26.2421 8.47376 28.4085 7.15165 30.7327 6.16218C31.0295 5.95376 31.2358 6.35376 31.44 6.50323L35.8358 11.4253C38.5979 10.4001 41.48 9.75165 44.3874 9.30955C45.0948 6.95376 45.6864 4.56428 46.3832 2.20428ZM51.3221 11.9117L51.2021 14.9917L51.8969 14.9748C51.9158 13.9432 51.9958 12.9159 51.9874 11.8843L51.3221 11.9117ZM47.0506 12.0148L47.1706 14.6043C47.0927 15.0464 47.5074 15.1053 47.8464 15.0822C47.8127 14.3643 47.7853 13.6485 47.7095 12.9348C48.1369 13.5285 48.4948 14.1685 48.9095 14.7706C49.0674 15.0317 49.4337 14.9074 49.6821 14.9811C49.6927 13.9538 49.5958 12.9306 49.5664 11.9032L48.9369 11.9053C48.9516 12.5517 48.9916 13.198 49.0106 13.8443C48.5579 13.2401 48.16 12.598 47.7664 11.9538L47.0506 12.0148ZM52.6358 11.9222C52.5558 12.9348 52.3958 13.9432 52.3769 14.9601L52.9706 15.1032L53.1706 13.059C53.5558 13.7264 53.8127 14.459 54.1748 15.139C54.3993 15.1971 54.6318 15.2184 54.8632 15.2022C54.939 14.1853 55.0527 13.1706 55.1285 12.1517L54.4906 12.139C54.4421 12.8127 54.379 13.4864 54.2548 14.1517C53.9706 13.4317 53.7243 12.6864 53.299 12.0359L52.6358 11.9222ZM44.7221 12.3032L44.0779 15.4738L44.7369 15.3601C44.7958 15.139 44.8779 14.9285 44.9853 14.7285C45.3242 14.659 45.6695 14.638 46.0148 14.6043L46.2758 15.1727L47.0127 15.0738C46.4821 14.118 46.0127 13.1306 45.5243 12.1538L44.7221 12.3032ZM42.6379 12.6338C42.8085 13.6253 43.0295 14.6064 43.179 15.6022L43.8821 15.5685L43.3053 12.518L42.6379 12.6338ZM55.5769 13.3053C55.6106 14.0864 56.6021 14.1769 57.1158 14.5664C57.2674 15.3643 55.9874 15.0127 55.9158 14.4169L55.2716 14.3117C55.2274 15.3874 56.5327 15.9327 57.3958 15.4843C57.8843 15.238 58.0548 14.419 57.5769 14.0864C57.1285 13.779 56.619 13.5748 56.1579 13.2927L56.6569 12.9201C57.219 13.019 57.4043 13.7495 58.0548 13.6611C57.939 13.3411 57.9432 12.9411 57.6653 12.7011C57.0337 12.1095 55.5958 12.259 55.5769 13.3053ZM58.4 13.3664L59.2295 13.5453C59.0569 14.3517 58.84 15.1495 58.619 15.9432L59.2695 16.179C59.5039 15.3757 59.7111 14.5647 59.8906 13.7474L60.8253 13.9538L60.92 13.3685L58.4737 12.7664L58.4 13.3664ZM39.5916 13.3538L40.3621 16.3432C41.0864 16.1117 42.0485 16.1285 42.4716 15.3874C42.7348 14.5748 42.5179 13.419 41.6737 13.0317C40.9621 12.9074 40.2737 13.2022 39.5916 13.3538ZM61.2632 13.5138L60.3453 16.4422L61.0021 16.6527L61.92 13.7011L61.2632 13.5138ZM38.2674 13.7643L38.9032 15.638C38.3108 15.1666 37.7377 14.6714 37.1853 14.1538L36.4885 14.4401C36.8611 15.3917 37.179 16.3622 37.5137 17.3285L38.1221 17.0801L37.4569 15.1664C38.0632 15.6548 38.6464 16.1685 39.2232 16.6885L39.8842 16.4927C39.579 15.5201 39.2106 14.5685 38.9137 13.5938L38.2674 13.7643ZM62.2548 13.798L62.0632 14.3453L62.9074 14.6927C62.6421 15.4695 62.2653 16.2169 62.1032 17.0274L62.6169 17.238C63.0758 16.5369 63.2211 15.6759 63.5664 14.9138L64.4148 15.2317L64.6148 14.659L62.2548 13.798ZM30.4864 15.2295C30.2695 15.7474 30.8337 16.0695 31.1348 16.3853C29.0379 17.5538 27.059 18.9559 25.2843 20.5706C25.2716 21.1453 25.8695 20.7959 26.0716 20.5306L26.5348 21.1011L26.4127 21.7453L27.6232 21.7432L27.4253 21.1074L27.9853 20.6443C28.3242 21.0801 28.6379 21.5369 29.0337 21.9243C29.3053 21.7306 29.5664 21.4927 29.9306 21.539C29.8148 22.2022 29.2021 22.4106 28.6042 22.4317L28.619 22.7811C29.4127 23.0359 30.4864 22.4001 30.4 21.5095C30.219 20.9411 29.5642 20.9306 29.0948 21.0927L27.6232 19.2211L29.3474 17.9769L30.0253 19.0569L29.0695 19.1138L29.64 18.6317C29.3032 18.1727 28.8211 18.6169 28.6042 18.9601C28.2632 19.4506 28.6464 20.2464 29.2442 20.2695C29.7642 20.379 30.1179 19.9432 30.4716 19.6464L30.7895 20.2359L31.3011 19.878C30.8042 19.1474 30.339 18.3959 29.84 17.6674C30.3853 17.3348 30.92 16.9727 31.5116 16.7264C31.76 17.3601 30.419 17.2401 30.6337 17.9495C31.0779 18.5917 31.9769 18.4695 32.5179 18.019L32.4337 18.7306L31.4295 18.8338L31.4358 19.3832C32.1306 19.3327 32.8253 19.3285 33.5158 19.4464L33.6716 18.9474L32.9053 18.9643C33.0464 18.4548 33.2042 17.7138 32.6042 17.4401C32.1411 17.4759 31.7937 17.8695 31.3453 17.9874C31.3874 17.4674 31.9558 17.3495 32.3137 17.0969L31.9369 16.4527L32.4274 16.1727L32.2148 15.7264L31.5453 16.1411C31.3306 15.9685 31.1137 15.7959 30.9327 15.5874C31.0295 15.2738 31.2843 15.0401 31.4443 14.7601C31.1221 14.8717 30.6337 14.8506 30.4864 15.2295ZM35.299 14.8232C35.619 15.8274 36.0758 16.7769 36.4632 17.7538L37.1032 17.4906C36.7116 16.579 36.379 15.6422 35.9495 14.7474L35.299 14.8232ZM65.0211 14.8359C64.7285 15.5348 64.3432 16.198 64.1116 16.9222C63.7074 18.0759 65.72 19.0001 66.3221 17.9453C66.7032 17.2948 66.9516 16.579 67.3074 15.918C67.0927 15.8653 66.84 15.5117 66.64 15.7074C66.2695 16.3706 66.0085 17.0885 65.6464 17.758C65.3046 17.7156 64.9827 17.5744 64.72 17.3517C64.9579 16.5853 65.3032 15.8611 65.6632 15.1474L65.0211 14.8359ZM67.3979 16.6085L68.1979 17.0548C67.8148 17.779 67.3663 18.4674 67.0232 19.2127C67.2064 19.339 67.3937 19.4632 67.5853 19.5811L68.8064 17.4022L69.6632 17.8359L69.8506 17.299C69.1664 16.8548 68.4211 16.5159 67.7285 16.0885L67.3979 16.6085ZM68.6106 20.0759C69.139 20.5559 69.76 20.9327 70.3832 21.2759C70.6295 21.5011 71.0569 20.8674 70.6611 20.7832C70.2716 20.4969 69.859 20.2443 69.459 19.9769C69.5958 19.7938 69.7285 19.6043 69.8843 19.4338C70.3221 19.6548 70.72 19.9453 71.1369 20.2043L71.4232 19.6885L70.2106 18.9369L70.5074 18.4274C70.9516 18.7074 71.3937 18.9938 71.8316 19.2885L72.1874 18.8106L70.2737 17.5369C69.7221 18.3832 69.1264 19.2043 68.6106 20.0759ZM26.2021 18.5222L26.5874 18.9874L27.1285 18.5917L26.7474 18.0738L26.2021 18.5222ZM73.1264 20.5264C72.5727 20.8695 72.0864 21.4801 72.1516 22.1664C72.1453 23.1748 73.4106 23.9138 74.2842 23.4001C74.8548 23.0422 75.3348 22.4401 75.32 21.7369C75.28 20.7222 74.0127 19.9664 73.1264 20.5264ZM74.1243 24.3264L74.5832 24.838L75.5369 23.9243L76.4506 24.8401L76.8485 24.3769C76.5727 24.0717 76.1327 23.838 76.0064 23.438L76.3264 23.0274L77.3748 24.078L77.8843 23.7032L76.3158 22.1243C75.5285 22.8022 74.8758 23.6127 74.1243 24.3264ZM21.96 23.5011C20.9411 24.6885 19.8043 25.8148 19.0085 27.1601C19.1895 27.5201 19.4737 27.179 19.7074 27.0717C19.9727 27.2927 20.2611 27.4948 20.4969 27.7495C20.7537 28.2738 20.4569 28.7959 20.0674 29.1432C20.0043 28.718 20.1011 28.2001 19.7537 27.8738C19.5032 27.5938 19.0948 27.5917 18.7516 27.6464C18.32 27.7874 18.2169 28.2569 18.0674 28.6253C18.3495 29.1917 18.9285 29.2085 19.3979 28.8253L18.6485 28.4548C18.6485 27.9159 19.2695 28.0801 19.3895 28.459C19.5706 28.6906 19.3748 28.9643 19.3369 29.2106L18.6295 29.6506C18.7306 29.8064 18.8337 29.9622 18.939 30.1159C19.219 29.6022 19.7958 29.7285 20.2527 29.5643C20.7853 29.3053 21.0106 28.7159 21.1158 28.1706L21.8148 28.6548L22.0927 28.1411C21.3706 27.6359 20.6779 27.0885 19.9769 26.5538L20.3979 26.0801L22.4906 27.7664L22.8127 27.2759L20.7432 25.5832L22.3264 23.7938C22.4697 23.9493 22.608 24.1094 22.7411 24.2738C22.4716 24.7769 21.8674 25.1032 21.7411 25.6674C21.9643 26.078 22.5664 25.8127 22.9474 25.8717C22.8521 25.6187 22.7525 25.3674 22.6485 25.118C22.8174 24.9659 22.9923 24.8205 23.1727 24.6822C23.5811 24.9685 23.9074 25.3517 24.259 25.7032L24.64 25.2106C24.0274 24.6232 23.3958 24.0506 22.8043 23.4422L22.9874 22.9474C22.5264 22.6674 22.2527 23.2485 21.96 23.5011ZM78.8148 24.7159L78.3495 25.0948L78.9243 25.7959L77.0148 27.3959L77.4695 27.9138C78.1137 27.4127 78.699 26.8401 79.3706 26.3748C79.579 26.5622 79.7432 26.7917 79.9179 27.0127L80.4421 26.6548C79.8864 26.019 79.3558 25.3622 78.8148 24.7159ZM78.1706 28.8064L79.5664 30.739L80.0148 30.2864C79.6906 29.8738 79.379 29.4548 79.0674 29.0359L79.6337 28.5811C79.9293 28.9749 80.2163 29.375 80.4948 29.7811L80.9874 29.4169C80.7916 28.9727 79.859 28.4169 80.44 27.9685C80.9453 28.1138 81.1158 28.8043 81.5032 29.158L82.0358 28.9011L80.7032 27.0064C79.8358 27.5727 79.0021 28.1895 78.1706 28.8064ZM17.3327 29.6043C16.4106 31.1159 15.5621 32.6822 14.9116 34.3306L15.2611 34.6211L15.8064 33.4001L16.6358 33.7811C16.299 33.9769 15.8527 34.1201 15.9158 34.6043C16.7243 34.5095 17.5453 34.4359 18.3264 34.1874L18.3495 33.6317L17.1621 33.9432C16.9727 33.4253 16.5011 33.1348 16.1095 32.7874C16.2148 32.5369 16.339 32.299 16.4611 32.059C16.6843 32.2948 17.4737 32.4211 16.9579 32.8717L17.2843 33.2359L17.579 32.7095C18.0064 32.8885 18.3979 33.1517 18.8443 33.2843L19.1474 32.8485C18.3537 32.4106 17.5558 31.9832 16.7411 31.5874C17.019 31.1327 17.1895 30.5622 17.6106 30.2211C17.8361 30.3655 18.0495 30.5282 18.2485 30.7074C17.8779 30.8295 17.4737 30.9538 17.5411 31.4338C18.3495 31.3917 19.1706 31.3938 19.9664 31.2295L20.0169 30.7053L18.8253 30.8569C18.7032 30.358 18.3095 30.0211 17.9369 29.7032L17.9558 28.9748C17.6927 29.1243 17.4758 29.3369 17.3327 29.6043ZM80.1158 31.6211C80.2358 32.518 81.2127 33.0022 82.04 32.7117L81.6864 32.078C81.3432 32.1222 80.8485 32.0506 80.8 31.6295C80.6169 30.9053 81.4737 30.4738 82.0716 30.419C82.6527 30.5243 82.7474 31.198 82.4906 31.6464L82.8148 32.2127C83.3558 31.7264 83.4864 30.8969 83.0106 30.3159C82.1306 29.0801 79.8295 30.1643 80.1158 31.6211ZM15.0169 31.3453L15.5853 31.6485L15.9116 31.0864L15.3727 30.739L15.0169 31.3453ZM81.4927 33.3495C81.0506 33.4611 81.4211 33.8632 81.48 34.1243L82.7327 33.5011L83.2253 34.5222L81.9874 35.1432L82.3369 35.718C83.2548 35.2738 84.1832 34.8506 85.0821 34.3664L84.7685 33.7601L83.7558 34.2485L83.2653 33.2738L84.28 32.7264L83.9937 32.1348C83.1516 32.5243 82.3242 32.9411 81.4927 33.3495ZM82.48 36.1601C82.5853 36.3643 82.699 36.5643 82.8085 36.7664C83.4064 36.4947 84.0169 36.2516 84.6379 36.038C84.168 36.6497 83.6815 37.2485 83.179 37.8338L83.3853 38.5032C84.3706 38.1495 85.3432 37.7664 86.3137 37.3727L86.0421 36.8211C85.4085 37.0022 84.8085 37.278 84.1958 37.5138C84.6337 36.8801 85.2 36.3348 85.5937 35.6738L85.3664 35.0295C84.4106 35.4253 83.4421 35.7874 82.48 36.1601ZM13.5285 37.6169C12.6485 37.5222 11.6043 38.0043 11.6274 39.0106C11.6611 39.6843 12.4443 39.699 12.9495 39.7117C12.6587 40.6417 12.419 41.587 12.2316 42.5432C11.3621 43.1853 10.1243 44.0317 10.4864 45.2906C10.5937 45.8738 11.2843 45.8695 11.7411 45.8611C11.9095 46.9138 10.7895 47.238 10.1264 47.7622L10.4274 48.2759C10.819 47.899 11.2169 47.5306 11.6316 47.1811C11.5621 48.6632 11.6337 50.1495 11.6948 51.6317L10.299 52.5264L10.5727 53.0548C10.9685 52.6738 11.3769 52.299 11.8506 52.0169C11.6106 52.499 11.2358 52.8885 10.9264 53.3222C11.2779 53.979 11.5579 53.1222 11.7579 52.8464C12.0021 53.5959 11.9706 54.4022 12.2 55.1538L12.5116 55.2548L12.6506 54.7769C13.2443 54.6169 14.0148 54.5327 14.099 53.7706C14.3558 54.0548 14.6253 54.3285 14.9074 54.5895C15.3327 53.8801 14.3074 53.5559 13.9495 53.0864C14.3474 52.9517 15.3053 53.139 14.939 52.3853C14.0358 52.4106 13.1474 52.6106 12.2464 52.678L12.2021 52.0569C13.0701 51.9591 13.9397 51.877 14.8106 51.8106L14.8337 51.2001C13.9243 51.299 13.0148 51.419 12.099 51.4127L12.0948 49.7664L12.3558 49.7306C12.3853 50.0695 12.3306 50.4317 12.4653 50.7559C12.7832 51.0674 13.1621 50.718 13.4821 50.6085C13.7832 50.5853 14.1643 50.7117 14.36 50.4022C14.7853 49.7938 14.459 49.038 14.1327 48.4674L14.7453 48.4738L14.7158 47.878C13.8232 47.9411 12.9285 47.9685 12.0337 47.9495L12.1116 47.198L14.7958 47.3348L14.7811 46.7538C13.9032 46.7243 13.0295 46.6548 12.1516 46.6211L12.1537 45.8464C13.0421 45.9264 13.9264 46.0801 14.8211 46.0864L14.9369 45.5517L12.2506 45.2695L12.3664 44.4022L13.1264 44.5138C13.0779 45.4717 14.2527 44.6611 14.0737 44.1159C13.5453 43.9664 12.9979 43.8969 12.459 43.8064L12.6 43.0864C13.4906 43.2527 14.3727 43.4569 15.2632 43.6148L15.3474 43.0401C14.4666 42.8751 13.5898 42.6891 12.7179 42.4822C12.8824 41.8878 13.0333 41.2897 13.1706 40.6885C13.6421 40.798 14.1348 40.859 14.5727 41.0717C14.6632 41.3159 14.72 41.8317 14.3221 41.8085C13.8043 41.8611 13.8464 41.2695 13.7664 40.9369L13.3832 41.0569C13.0632 41.7664 13.7453 42.5727 14.4927 42.3138C15.0295 42.2169 15.1369 41.6359 15.139 41.1811L15.8106 41.3411L15.8927 40.8022C15.3474 40.5348 14.1706 40.6359 14.3874 39.718C14.9053 39.478 15.2316 40.1138 15.5874 40.3811C16.2358 39.8801 15.2758 39.0801 14.7011 39.1011C14.0527 39.0401 13.8379 39.7538 13.8316 40.2717L13.3453 40.1053L13.8021 38.3664C14.68 38.6317 15.5369 38.958 16.4085 39.2422L16.52 38.6948C15.7664 38.358 14.9664 38.1432 14.1916 37.8569C14.1053 37.6464 14.0064 37.4422 13.8948 37.2464L13.5285 37.6169ZM84.88 38.438C83.9874 38.6485 83.5074 39.7159 83.9495 40.5243C84.5811 42.0253 87.3095 41.2653 87.0443 39.6359C87.0042 38.5769 85.7874 38.0148 84.88 38.438ZM84.4295 42.0127L84.8674 44.1959L85.3958 44.0506C85.3916 43.5643 85.2421 43.0948 85.139 42.6253C85.92 42.3938 86.72 42.2401 87.5285 42.1306L87.4737 41.4064L84.4295 42.0127ZM85.9748 44.139C84.8885 44.3938 84.6695 45.9222 85.4169 46.638C86.219 47.3011 87.6632 47.0653 88.1264 46.1074C88.2969 45.5601 88.259 44.8674 87.8232 44.4506C87.3558 43.9538 86.5832 43.9811 85.9748 44.139ZM85.9706 47.518C85.2042 47.8738 85.0127 48.9895 85.5579 49.6148L85.3179 50.2611L87.0611 50.1959L86.9958 48.8948H86.4232L86.4842 49.6064C85.9853 49.4843 85.64 48.9664 85.9116 48.4759C86.3664 47.819 87.6358 47.8653 87.9158 48.678C87.88 49.2274 87.2948 49.5832 87.4 50.1748C88.5053 50.1348 88.7853 48.6422 88.1832 47.899C87.6695 47.2422 86.6842 47.2001 85.9706 47.518ZM85.3327 51.3138L85.3032 51.9706C85.7053 52.0127 86.1116 52.0274 86.5095 52.1138C87.1327 52.4127 87.6927 52.8295 88.3221 53.1222L88.3621 52.3706C87.9519 52.1649 87.5448 51.953 87.1411 51.7348L88.4253 51.1959L88.4127 50.3959C87.4337 50.8506 86.4864 51.638 85.3327 51.3138ZM84.9306 56.4085C85.1095 57.0338 85.9495 57.1495 86.4148 56.7685C86.7811 57.0843 87.3979 57.2969 87.7264 56.8106C88.0506 56.2064 88.0064 55.4759 88.1664 54.819C87.1685 54.6022 86.1516 54.4969 85.1495 54.3032C85.0021 54.9917 84.819 55.7011 84.9306 56.4085ZM85.139 57.4253C84.3411 57.6969 83.9832 58.7306 84.3327 59.4738C84.9179 60.6864 87.1916 60.7053 87.4064 59.2085C87.7895 57.9201 86.2295 57.0632 85.139 57.4253ZM13.48 59.2127L13.0127 58.7748L12.9221 59.1538C13.1411 60.2232 13.4864 61.2674 13.8169 62.3074C13.4 62.6485 12.9074 63.0274 12.8611 63.6106C12.7979 64.1285 13.0843 64.8359 13.6885 64.8527C14.0421 64.8043 14.299 64.5306 14.5874 64.3495C15.4611 66.3095 16.3727 68.2674 17.5621 70.0569L17.9516 70.2106L17.8716 69.5201L18.6337 69.1117L18.939 69.6485C18.5516 69.8864 18.2085 70.1853 17.9306 70.5453C18.0358 71.0274 18.4716 71.7411 19.0337 71.2948C19.539 70.9622 18.8211 70.6738 18.499 70.8738C18.6885 70.3959 19.24 69.958 19.6885 70.4506C20.0379 70.2169 19.9558 69.6717 20.0085 69.3011C19.6569 69.1096 19.1537 69.3895 18.96 68.8759L20.0779 68.1959L19.779 67.6674L17.4969 69.0695L17.1727 68.5243C17.9221 68.0822 18.7053 67.699 19.4274 67.2169L19.2443 66.6632L16.8737 68.0064L16.1369 66.5832C16.4338 66.4702 16.7376 66.376 17.0464 66.3011L16.8232 67.198L17.2611 67.4232C17.7116 66.6738 18.1074 65.8927 18.4358 65.0843L17.9243 64.8717L17.4548 66.0738C17.0021 65.5032 16.3832 65.7874 15.8421 66.0527C15.5474 65.318 15.2021 64.6064 14.9327 63.8632C15.8379 63.6927 15.5221 65.2864 16.4358 65.2148C17.2485 65.2401 17.459 64.259 17.7558 63.6759L17.3221 63.4674C17.0843 63.9706 16.8821 64.5938 16.2779 64.758L15.7832 63.6338L17.4274 62.9664L17.2021 62.4232L14.7306 63.419L14.4527 62.7369C15.2737 62.4064 16.1411 62.1895 16.9474 61.8232L16.8443 61.278L14.2737 62.1769C14.1727 61.7559 13.6274 61.0632 14.2674 60.8338C14.6442 60.6106 14.7916 61.1832 15 61.3832C15.2695 61.1727 15.6064 60.9916 15.7264 60.6485C15.92 60.1917 15.6485 59.7243 15.5116 59.2948C16.0379 59.3159 16.2127 59.0274 16.0443 58.5453L13.48 59.2127ZM83.8527 60.2506L83.6842 60.8738C84.3579 61.1011 85.0464 61.3074 85.6821 61.6338L83.5242 61.3432L83.2716 61.9643C83.8737 62.3538 84.4969 62.7159 85.0716 63.1474L83.1095 62.4653L82.8948 63.0611C83.8644 63.4238 84.8422 63.7642 85.8274 64.0822L86.1243 63.1811C85.4933 62.7704 84.8524 62.3752 84.2021 61.9959C84.9664 61.9959 85.7243 62.1074 86.4842 62.1727L86.7979 61.2759C85.8217 60.9184 84.8398 60.5766 83.8527 60.2506ZM82.0211 65.7201C82.1937 66.2569 82.8148 66.3853 83.2969 66.2295C83.5621 66.6717 84.1748 67.0001 84.6106 66.5727C85.0421 66.0464 85.2358 65.3727 85.5011 64.7559C84.5621 64.3601 83.6421 63.9264 82.7158 63.5096C82.4253 64.2169 81.88 64.9138 82.0211 65.7201ZM81.5937 65.8885L81.3032 66.5285L81.7306 66.979C81.4758 67.2927 81.3916 67.9643 80.8632 67.878C80.4632 67.7748 80.3537 68.2043 80.1685 68.4464L83.419 69.0043L83.8043 68.318C83.059 67.5159 82.3979 66.6359 81.5937 65.8885ZM79.4127 69.558C79.7369 69.7769 80.08 69.9727 80.3769 70.2317C80.8043 70.7769 81.0316 71.4443 81.4148 72.0211C81.6632 71.9369 81.7453 71.6506 81.9053 71.4674C81.6527 71.0822 81.4085 70.6927 81.1727 70.3011C81.6316 70.3538 82.0906 70.4148 82.5495 70.478L82.9685 69.7896C81.9137 69.6759 80.6948 69.8843 79.899 69.0148L79.4127 69.558ZM45.0316 14.1306L45.2274 13.0548L45.7116 14.0527L45.0316 14.1306ZM40.4021 13.7201C40.8021 13.6695 41.32 13.398 41.6127 13.8211C41.8906 14.259 42.0906 14.9664 41.6442 15.3601C41.4021 15.478 41.1411 15.5538 40.8885 15.638L40.4021 13.7201ZM29.1348 19.459C29.3853 19.3053 29.6379 19.2969 29.8948 19.438C30.0464 19.8632 28.9642 19.8927 29.1348 19.459Z" fill="white"/>
<path d="M26.4825 20.1012L27.1541 19.6401C27.3394 19.8317 27.5057 20.0422 27.6783 20.2486L27.072 20.8001L26.4825 20.1012ZM73.3373 21.2128C73.7352 20.8275 74.4699 20.9475 74.6278 21.5117C74.7541 22.137 74.2341 22.6991 73.691 22.918C73.469 22.941 73.2471 22.875 73.0738 22.7345C72.9005 22.594 72.7901 22.3904 72.7667 22.1686C72.8425 21.8001 73.0404 21.4486 73.3373 21.2128ZM50.1878 25.1075C51.3941 26.2001 51.9794 27.7728 52.4594 29.2843C53.3646 32.0886 53.3478 35.2128 52.2594 37.9622C51.9352 38.8128 51.3688 39.6212 50.5225 40.0107C49.9015 40.2086 49.3541 39.7286 48.9078 39.3665C47.9709 38.4149 47.5457 37.0843 47.3036 35.8022C46.7478 32.7433 47.5036 29.5812 48.9162 26.8549C49.2488 26.2107 49.6909 25.6317 50.1878 25.1075ZM44.392 25.5812C45.7752 25.8928 47.0025 27.0507 47.2678 28.4507C46.712 30.0128 46.3288 31.6359 46.1983 33.2907C46.0804 35.5917 46.6446 37.9833 48.1436 39.7812C45.9309 39.5728 44.3857 37.6443 43.7752 35.6422C43.0573 33.6928 43.5373 31.6043 43.8531 29.6254C44.1099 28.2886 44.2531 26.9349 44.392 25.5812ZM53.0299 28.1286C53.8467 27.1622 54.8762 26.1454 56.2173 26.0801C55.1815 29.2696 56.4467 32.6233 55.7815 35.857C55.5057 37.5433 54.5583 39.198 52.9941 39.9875C52.6973 40.2317 52.3646 40.038 52.0657 39.9201C53.1499 38.5012 53.7752 36.7665 53.9352 34.9938C54.2425 32.6717 53.7415 30.3328 53.0299 28.1286ZM39.832 28.057C41.1499 27.8886 42.0973 28.9959 42.7899 29.9538C42.4488 32.3496 42.1836 34.9307 43.3141 37.1707C43.9583 38.5959 45.2531 39.5307 46.5141 40.3686C45.0278 40.4633 43.5057 39.9243 42.4762 38.8359C41.4278 37.7117 40.6762 36.2991 40.3878 34.7833C39.9415 32.5643 40.2088 30.2843 39.832 28.057ZM56.8552 30.1475C57.3731 29.1959 58.4973 28.6822 59.5352 28.497C59.5962 29.417 59.3604 30.3159 59.2741 31.2275C58.9773 33.5538 58.8425 36.0149 57.5878 38.0717C56.8425 39.3875 55.4846 40.337 53.9625 40.4696C54.6973 39.7454 55.5183 39.0717 55.9583 38.1117C57.2257 35.6528 56.9899 32.8128 56.8552 30.1475ZM36.0467 30.2865C37.3541 30.1707 38.7162 30.9349 39.2657 32.1286C39.2657 34.6528 39.9541 37.2907 41.7288 39.1601C42.3815 39.8928 43.232 40.3938 44.0257 40.9559C41.9246 41.038 39.9857 39.7286 38.952 37.9538C38.0025 36.1875 37.5794 34.2022 37.0067 32.2949C36.7815 31.5833 36.3436 30.9665 36.0467 30.2865ZM60.1267 31.7812C60.952 31.1875 61.9688 30.8296 62.9941 30.9517C62.5794 31.7854 62.1057 32.6001 61.8657 33.5075C61.3983 35.1643 61.0446 36.9222 59.9562 38.3075C59.0952 39.5349 57.8762 40.7033 56.2846 40.7517C57.6971 39.6132 58.735 38.0766 59.2636 36.3412C59.6825 34.8486 59.8173 33.2928 60.1267 31.7812ZM33.5352 33.697C34.6194 33.1896 36.0741 33.438 36.8194 34.4001C37.3667 35.9664 37.6404 37.6928 38.712 39.0191C39.2888 39.7938 40.0762 40.3643 40.8341 40.9475C39.5162 41.0338 38.0909 40.7222 37.1562 39.7286C35.8825 38.3833 35.5878 36.457 34.5794 34.9433C34.2636 34.5012 33.8783 34.118 33.5352 33.697ZM62.6952 34.9538C63.4383 34.2907 64.4573 33.8422 65.4657 34.0549C65.0678 34.6717 64.6067 35.2465 64.2425 35.8822C63.5225 37.118 63.0194 38.4991 62.0488 39.5749C61.5325 40.1566 60.8877 40.6102 60.1657 40.8996C59.4436 41.189 58.6641 41.3063 57.8888 41.2422C59.3541 40.3054 60.5309 38.9686 61.3878 37.4633C61.8615 36.6443 61.9478 35.6001 62.6952 34.9538ZM12.013 38.9391C12.1562 38.2949 12.7794 38.057 13.3857 38.1875L13.1078 39.1707C12.7288 39.1664 12.352 39.1201 12.013 38.9391ZM85.3036 39.0338C85.6973 38.918 86.1983 39.0107 86.3773 39.4275C86.8467 40.5307 84.6741 41.2107 84.4299 40.0549C84.2741 39.5075 84.8341 39.118 85.3036 39.0338ZM48.9352 41.0212C50.2131 40.7833 51.6257 40.8696 52.7267 41.6212C53.7541 42.3012 54.632 43.4086 54.6657 44.6843C54.6594 46.177 52.9562 47.1812 51.592 46.8633C51.0594 46.8254 50.6299 46.4359 50.1288 46.3412C49.3162 46.6317 48.4594 46.9959 47.5773 46.7917C46.2131 46.5749 45.1394 44.9959 45.7394 43.6759C46.3267 42.3728 47.4783 41.2443 48.9352 41.0212ZM39.8067 42.1265C41.7899 41.4759 43.9141 41.7622 45.9625 41.7349C45.3815 42.4907 44.9752 43.3559 44.5562 44.2043C44.192 45.0486 43.2152 45.3117 42.432 45.6149C40.512 46.1791 38.3815 46.3559 36.4594 45.7117C37.8994 44.8275 38.1331 42.7391 39.8067 42.1265ZM54.5394 41.8359C55.8025 41.9707 57.0636 42.1391 58.3352 42.177C58.8762 42.2022 59.4488 42.3349 59.8552 42.7159C60.7225 43.4928 61.2531 44.5538 62.0025 45.4317C62.4278 45.9222 62.9983 46.2486 63.4678 46.6907C61.1794 47.9686 58.3246 47.377 56.1057 46.2317C55.7099 45.9959 55.8067 45.4717 55.7246 45.0886C55.6531 43.9075 55.0509 42.8696 54.5394 41.8359ZM10.8888 44.9201C10.832 44.177 11.5709 43.7307 12.0573 43.297L11.7604 45.3643C11.4488 45.3075 10.8867 45.3875 10.8888 44.9201ZM86.1857 44.798C86.7773 44.5707 87.6594 44.7686 87.6594 45.5391C87.4762 46.3307 86.3625 46.5517 85.771 46.0843C85.3646 45.6528 85.6088 44.9117 86.1857 44.798ZM44.1646 47.3643C44.2341 46.7328 43.832 45.7854 44.6446 45.5243C44.6804 46.177 44.9352 47.0549 44.1646 47.3643ZM42.9752 46.2296L43.6109 45.9812L43.6425 47.678L42.9794 47.9117L42.9752 46.2296ZM41.912 46.3938L42.4973 46.3643V47.8528C42.5731 48.2107 42.1141 48.198 41.9078 48.318L41.912 46.3938ZM37.0362 46.7138L37.9015 46.8107L37.8762 47.5328C37.5541 47.3054 37.2362 47.0591 37.0362 46.7138ZM40.6909 46.6486L41.3183 46.5686C41.3878 47.1328 41.4067 47.7012 41.4109 48.2696L40.733 48.4338C40.6509 47.8422 40.6467 47.2443 40.6909 46.6486ZM38.3962 46.8296L39.0783 46.8275L39.0804 48.0864L38.3857 47.8107L38.3962 46.8296ZM39.5794 46.8022L40.2109 46.758V48.318L39.5794 48.257V46.8022ZM45.9541 47.0949L46.512 47.2843L46.5246 48.2928L45.9815 47.7643L45.9541 47.0949ZM53.7604 47.278L54.3415 47.0107C54.3604 47.3791 54.4004 47.7517 54.3562 48.1201C54.192 48.3391 53.9709 48.5054 53.7731 48.6907L53.7604 47.278ZM55.7352 47.2991C55.9331 46.9475 56.2446 47.3791 56.4931 47.4359L56.451 48.6591L55.7962 48.2359C55.6657 47.9475 55.7225 47.6043 55.7352 47.2991ZM47.1667 47.4443L47.7794 47.5033L47.7667 49.1243L47.1331 48.7349L47.1667 47.4443ZM49.7667 47.6907L50.1309 47.3643L50.5857 47.6022L50.5815 49.6654L49.6952 49.6359L49.7667 47.6907ZM51.1815 47.6675L51.8867 47.5286C52.0025 48.1749 51.9857 48.8359 51.9752 49.4907L51.1562 49.6149L51.1815 47.6675ZM52.4994 47.4717L53.2341 47.4086L53.2383 49.1264L52.4973 49.3391L52.4994 47.4717Z" fill="white"/>
<path d="M48.3617 47.6147L49.1849 47.6821L49.1765 49.5242L48.3891 49.3411L48.3617 47.6147ZM56.9849 47.6842L57.7365 47.9032L57.7428 49.0147L57.0354 48.8358C56.9638 48.4547 56.9933 48.0674 56.9849 47.6842ZM61.448 48.4716C61.4923 47.8316 62.1828 47.8821 62.6523 47.7832C62.3407 48.1432 61.968 48.5116 61.448 48.4716ZM58.2523 48.0842L58.928 48.1011L58.9112 49.2295L58.2438 49.0421L58.2523 48.0842ZM59.448 48.2L60.0565 48.2147L60.0544 49.0863L59.4628 49.1958L59.448 48.2ZM60.5828 48.1537L61.0144 48.0884L61.0628 48.8569L60.5554 48.9937L60.5828 48.1537ZM12.0186 48.5305C12.5322 48.5326 13.0543 48.4737 13.5617 48.5726C13.8691 48.9663 14.3891 49.6358 13.8543 50.0674C13.4628 49.9326 13.5638 49.4842 13.4901 49.1684C12.9343 49.3284 13.1743 49.9305 13.1175 50.3516C12.5849 50.2253 12.867 49.5495 12.7701 49.1579L12.147 49.1726L12.0186 48.5305ZM49.7049 50.4147L50.6396 50.4611C50.288 51.6716 49.8859 52.8926 49.8754 54.1663C49.8165 55.3284 50.0396 56.4758 50.2417 57.6126C49.808 57.5432 49.147 57.4253 49.0754 56.8947C48.6565 54.739 48.768 52.4232 49.7049 50.4147ZM12.3743 53.3011C12.7238 53.2063 13.088 53.1832 13.448 53.1432C13.5112 53.3895 13.6396 53.6337 13.608 53.8969C13.2564 54.0926 12.8396 54.1032 12.4522 54.1811C12.4207 53.8884 12.368 53.5958 12.3743 53.3011ZM85.5596 55.0526L86.3491 55.1811L86.0817 56.3158C85.2838 56.3832 85.5112 55.5663 85.5596 55.0526ZM86.848 55.28L87.5028 55.3347L87.2459 56.4569C86.5933 56.3811 86.8207 55.7495 86.848 55.28ZM50.3407 58.1853C52.347 56.8716 55.0038 56.7011 57.2059 57.6063C58.6354 58.1558 60.168 58.4379 61.7007 58.2884C62.9322 60.4232 64.3617 62.4547 65.4333 64.6737C62.168 64.8063 59.0354 63.5895 55.7828 63.5537C54.6607 63.5411 53.5154 63.5453 52.4354 63.88C51.6017 64.1095 50.8796 64.6021 50.0922 64.9411C50.067 62.6842 50.3849 60.4421 50.3407 58.1853ZM51.3912 58.6695L51.6901 59.0842C52.0449 58.9402 52.4014 58.8006 52.7596 58.6653L52.5449 58.2442L51.3912 58.6695ZM53.0144 58.2C53.1007 58.7158 53.6249 58.6442 54.0228 58.7053L54.0712 58.2147C53.7175 58.2021 53.3659 58.1937 53.0144 58.2ZM54.6101 58.2295L54.5512 58.6884C54.9365 58.7642 55.3196 58.8463 55.7049 58.9284L55.7533 58.4463L54.6101 58.2295ZM56.0944 58.6337L56.107 59.0779L56.9807 59.1558L56.9491 58.6947L56.0944 58.6337ZM57.5659 58.8274L57.5196 59.28L58.5301 59.4253C58.5701 59.3284 58.6544 59.1369 58.6965 59.04C58.3238 58.939 57.9449 58.8737 57.5659 58.8274ZM59.1891 59.5263L60.1638 59.5137C60.1828 58.8653 59.0228 58.8337 59.1891 59.5263ZM51.5849 59.7347L51.9007 60.1263C52.4144 59.9326 52.9512 59.8147 53.4944 59.7369L53.5449 59.3032C52.8689 59.311 52.2017 59.4579 51.5849 59.7347ZM54.1491 59.2695L54.1533 59.76L55.1386 59.8863L55.2186 59.4211L54.1491 59.2695ZM55.8144 59.5095L55.6354 59.9453L56.7344 60.179L56.8017 59.7095L55.8144 59.5095ZM57.2438 60.2295L58.4859 60.4L58.5386 59.9158L57.4017 59.7769L57.2438 60.2295ZM59.3028 60.0084C59.2417 60.1158 59.1238 60.3326 59.0649 60.4421C59.6375 60.5326 60.2186 60.5769 60.7996 60.5937L60.7259 60.1558C60.2501 60.1053 59.7786 60.0211 59.3028 60.0084ZM53.5112 60.3537L53.5596 60.8295L54.7954 60.8316L54.8354 60.36C54.3933 60.3369 53.9512 60.3369 53.5112 60.3537ZM52.5133 60.5916C52.2691 60.6947 51.9007 60.7221 51.8375 61.0337C52.1638 61.4316 52.6228 61.12 52.9912 60.9726C53.0838 60.6821 52.787 60.3832 52.5133 60.5916ZM55.328 60.4105C55.1112 61.12 55.9322 60.9621 56.3596 61.0842L56.3996 60.5916L55.328 60.4105ZM56.7954 60.699C56.6901 61.419 57.4754 61.2758 57.9407 61.3958C58.1428 60.6505 57.2312 60.8421 56.7954 60.699ZM58.547 60.9663L58.5259 61.4695C58.9701 61.4337 59.9049 61.9179 59.8354 61.1263L58.547 60.9663ZM60.4059 61.1263L60.3133 61.6168C60.787 61.6084 61.467 61.8674 61.7807 61.3895C61.5322 60.9305 60.8417 61.2358 60.4059 61.1263ZM53.928 61.4021L53.9154 61.9347L54.9533 61.9011L54.9301 61.36L53.928 61.4021ZM51.9386 61.9558L52.4165 62.4042C52.8122 62.179 53.5575 62.1305 53.2649 61.4863C52.8101 61.6063 52.368 61.7684 51.9386 61.9558ZM55.427 62.0042L56.5701 62.1411L56.5975 61.6358L55.6249 61.44L55.427 62.0042ZM57.107 61.7769L57.0312 62.3116L58.3975 62.5053L58.4691 61.9874L57.107 61.7769ZM58.9975 62.0337L58.8733 62.5853C59.3382 62.6344 59.8043 62.6709 60.2712 62.6947L60.2501 62.1832C59.8319 62.1398 59.4143 62.09 58.9975 62.0337ZM60.7428 62.6421C61.0649 63.0547 61.7007 62.8568 62.1617 62.9453L62.1449 62.4316C61.688 62.4905 60.928 62 60.7428 62.6421ZM44.4228 57.5432C46.1659 57.1305 48.1407 57.1579 49.6649 58.2084L49.3617 64.8463C47.5133 63.6947 45.2901 63.3011 43.1386 63.5411C39.8607 63.7011 36.6733 64.7895 33.3743 64.6463C33.6607 64.1642 33.9996 63.72 34.3533 63.2884L38.5912 57.9726C40.5428 58.0779 42.5175 58.0084 44.4228 57.5432ZM45.8207 58.3305C45.747 58.9137 46.4228 58.6969 46.7765 58.7895C46.9786 58.1558 46.208 58.1958 45.8207 58.3305ZM44.1659 59.019C44.6144 58.955 45.0582 58.8615 45.4944 58.739L45.2333 58.3747C44.8122 58.4505 44.0565 58.3726 44.1659 59.019ZM47.1638 58.7895C47.6059 58.979 48.2249 59.4547 48.5596 58.8569C48.1554 58.7537 47.2354 58.0295 47.1638 58.7895ZM42.8165 58.9916C42.9933 59.36 43.467 59.1347 43.7849 59.1811L43.7238 58.6526C43.4207 58.7495 43.008 58.6884 42.8165 58.9916ZM39.8565 58.8947L39.8228 59.3684L40.5849 59.3621L40.568 58.8947H39.8565ZM41.2859 58.88L41.267 59.3874C41.6375 59.3369 42.067 59.4505 42.3954 59.2337C42.3533 58.6568 41.6607 58.9705 41.2859 58.88ZM44.6565 59.4863L44.728 59.9684C45.0628 59.8526 45.7617 60.04 45.7828 59.539C45.4712 59.2863 45.0207 59.5011 44.6565 59.4863ZM46.3175 59.3895L46.3154 59.8505C46.8796 59.9242 47.4228 60.099 47.9744 60.24L48.3154 59.8947C47.688 59.5937 47.0101 59.4295 46.3175 59.3895ZM43.0522 59.76L43.0965 60.2211C43.5007 60.1705 43.9028 60.1032 44.3028 60.0126C44.1007 59.419 43.5049 59.7158 43.0522 59.76ZM39.0249 59.9347L38.9407 60.4147C39.5554 60.4442 40.1722 60.4884 40.787 60.4126L40.6922 60.0105C40.1343 60 39.5786 59.9663 39.0249 59.9347ZM41.3575 59.9305L41.368 60.4169L42.6291 60.2926C42.6122 59.5537 41.8207 59.9684 41.3575 59.9305ZM43.3365 60.7074L43.5386 61.2042C43.9238 61.0737 44.6586 61.1263 44.4501 60.5032L43.3365 60.7074ZM44.8396 60.5326C45.0544 61.1326 45.7175 60.9179 46.2122 60.9579L46.3091 60.4779C45.8186 60.4656 45.3278 60.4839 44.8396 60.5326ZM41.7533 60.9958L41.9533 61.44L43.0122 61.2737L42.8944 60.7621L41.7533 60.9958ZM46.7175 61.0737C47.1554 61.2421 47.7512 61.6674 48.0017 61.0232C47.648 60.88 47.2901 60.7432 46.9301 60.6168L46.7175 61.0737ZM39.9322 61.1369C39.9638 61.8905 40.8122 61.4653 41.2796 61.52L41.2165 61.0126L39.9322 61.1369ZM38.0522 61.1053C37.987 61.8695 38.9154 61.4969 39.3701 61.6379C39.3828 61.4674 39.4628 61.2905 39.387 61.1263C38.9428 61.0905 38.4965 61.1011 38.0522 61.1053ZM44.6754 61.5432L44.8586 62.0295C45.1575 62.0295 45.4586 62.0358 45.7596 62.0442L45.8501 61.5221C45.4586 61.4779 45.0628 61.4716 44.6754 61.5432ZM43.0965 61.7074L43.2249 62.259L44.3112 62.0505L44.1701 61.5368L43.0965 61.7074ZM46.5322 61.6042L46.328 62.0947L47.3617 62.5326L47.7344 62.0863C47.3401 61.9099 46.9391 61.7491 46.5322 61.6042ZM41.2628 62.0042L41.3091 62.5453C41.7807 62.4905 42.248 62.419 42.7154 62.3347L42.5659 61.8379L41.2628 62.0042ZM39.3849 62.1937L39.4544 62.7074L40.8291 62.5937L40.768 62.0695L39.3849 62.1937ZM37.3175 62.2126L37.3196 62.7747C37.8456 62.7892 38.372 62.7751 38.8965 62.7326L38.8944 62.2147L37.3175 62.2126ZM85.1133 58.1769C85.7701 57.7642 87.1344 58.2695 86.7996 59.1937C86.528 59.88 85.5891 59.7453 85.0986 59.3853C84.667 59.1179 84.7175 58.4505 85.1133 58.1769ZM13.5701 59.8021L14.9364 59.4337C15.1933 59.7832 15.5301 60.1874 15.2017 60.6168C14.8207 60.0779 14.2017 60.1916 13.7007 60.4758L13.5701 59.8021ZM13.9891 62.8337L14.3722 63.8484C14.0733 63.9895 13.7007 64.5284 13.3975 64.12C12.9743 63.6211 13.6712 63.1537 13.9891 62.8337ZM36.0101 65.1011C38.8207 64.7937 41.5849 63.9958 44.4312 64.0505C45.7786 64.0569 47.1638 64.2737 48.3554 64.9326C48.6122 65.0421 48.8017 65.2442 48.8691 65.52C48.2101 65.299 47.5954 64.9558 46.9217 64.7726C45.488 64.3705 43.9765 64.3895 42.507 64.5368C39.9154 64.8695 37.3365 65.3284 34.728 65.5011C34.147 65.5011 33.4944 65.619 33.0207 65.2C34.0165 65.1642 35.0165 65.2084 36.0101 65.1011ZM50.7259 65.3032C52.2417 64.219 54.1912 63.9811 56.008 64.0737C59.2501 64.2863 62.4038 65.36 65.6733 65.2379L65.2607 65.48C62.0586 65.6737 58.9828 64.3811 55.7828 64.4421C54.1133 64.379 52.4459 64.88 51.0733 65.8274C50.9323 65.6674 50.8165 65.4926 50.7259 65.3032ZM82.9638 64.3453L83.6628 64.6779L83.0691 65.7221C82.3638 65.4969 82.7301 64.8063 82.9638 64.3453ZM36.1828 65.7958C39.4817 65.5242 42.7617 64.4884 46.0901 64.9874C46.9133 65.1558 47.8354 65.3284 48.4101 66C47.4986 65.7642 46.6186 65.3705 45.6712 65.2947C42.2817 64.859 38.9554 65.9074 35.5933 66.1305C34.9259 66.1411 34.2501 66.1747 33.5912 66.04C34.4459 65.88 35.3196 65.8926 36.1828 65.7958ZM53.1744 65.2316C54.5617 64.76 56.048 64.8884 57.4859 64.9242C60.0944 65.2 62.6459 66.0316 65.2923 65.8884C64.6572 66.0745 63.9903 66.1254 63.3344 66.0379C60.2691 65.8126 57.2038 64.6821 54.1217 65.4042C53.107 65.5684 52.2396 66.16 51.2544 66.4126C51.6544 65.7242 52.4754 65.4926 53.1744 65.2316ZM84.1091 64.9284L84.7344 65.1305C84.5428 65.48 84.4207 65.92 84.0396 66.1158C83.6291 65.8 84.0186 65.3053 84.1091 64.9284ZM33.8733 66.539C37.2165 66.7158 40.4565 65.6569 43.7828 65.5474C45.2522 65.5263 46.7386 65.779 48.0775 66.3979L47.8565 66.8737C46.3322 66.4147 44.7701 66.0021 43.168 66.0211C41.2459 66.1053 39.3975 66.7411 37.4733 66.8C36.2733 66.8505 35.0333 66.8842 33.8733 66.539ZM49.7365 65.4526C50.5344 66.1937 51.2186 67.1705 51.3744 68.2653C51.2649 69.0358 50.3007 69.0947 49.6859 69.0926C49.1007 69.1516 48.3259 68.9495 48.2059 68.2863C48.227 67.1579 49.067 66.2821 49.7365 65.4526ZM53.9828 65.8611C57.7807 64.9453 61.5301 66.7221 65.347 66.4505C65.1744 66.6632 64.9301 66.8147 64.6438 66.7853C63.4207 66.8842 62.2165 66.6337 61.0207 66.4126C58.7196 66.0884 56.3533 65.819 54.0544 66.3116C53.2523 66.4653 52.4986 66.779 51.7217 67.0147C52.2228 66.2716 53.1828 66.1074 53.9828 65.8611ZM39.1575 67.0442C40.7701 66.7937 42.3807 66.339 44.0291 66.4674C45.227 66.5832 46.427 66.8147 47.5617 67.2274L47.6565 67.6442C45.7007 67.1811 43.688 66.7958 41.6712 67.0442C39.2312 67.3495 36.7449 67.7726 34.2943 67.3263L34.0396 67.0821C35.7386 67.2737 37.4649 67.32 39.1575 67.0442ZM53.4922 66.8547C56.4628 65.9958 59.5786 66.5916 62.5575 67.0779C63.408 67.2484 64.2775 67.1958 65.1386 67.2316C64.8965 67.4821 64.5238 67.4611 64.2059 67.4842C61.667 67.5411 59.1723 66.8379 56.627 66.9705C54.9954 66.8821 53.4396 67.4274 51.848 67.6611C52.2375 67.1411 52.9196 67.0547 53.4922 66.8547ZM41.2459 67.4947C42.7996 67.3684 44.3849 67.3474 45.9196 67.6674C46.4901 67.7895 47.1091 67.84 47.5891 68.2105C46.2544 68.0105 44.9175 68.2358 43.5786 68.1895C40.427 68.1642 37.2754 68.2211 34.1238 68.1874L34.128 67.739C36.4944 68.1158 38.8944 67.8421 41.2459 67.4947ZM53.2375 67.8063C56.0649 67.1263 59.008 67.36 61.8565 67.7726C63.0165 67.9474 64.1912 67.8569 65.3596 67.8569L65.1765 68.1705C60.907 68.1979 56.6354 68.2 52.3638 68.1684C52.6375 68.0084 52.9238 67.8674 53.2375 67.8063ZM81.7828 68.0484L82.1786 67.4421L82.907 68.2632L81.7828 68.0484ZM21.6396 82.4337C34.7973 76.848 49.3275 75.3359 63.3533 78.0926C68.2796 79.0105 73.0459 80.6105 77.6817 82.4863C76.7638 84.6884 75.6859 86.8211 74.7112 89C66.9701 86.2147 58.7617 84.6547 50.5259 84.659C41.7344 84.5053 32.9386 85.9684 24.6059 88.7453C23.6122 86.6442 22.5301 84.5811 21.6396 82.4337ZM60.2438 77.9095L60.3533 78.5768C60.7996 78.8274 61.0333 79.2632 61.1407 79.7516C60.2396 79.6211 59.3386 79.5095 58.4354 79.4126L58.7175 80.0526C59.0712 80.1137 59.427 80.179 59.7765 80.2695C59.5217 80.5705 59.1386 80.6484 58.7765 80.7369L58.9154 81.3726C58.4438 81.5916 57.707 81.9432 57.3744 81.3242C57.6291 80.9011 58.1323 81.1347 58.5217 81.1053C58.4459 80.7495 58.2396 80.5684 57.8986 80.5663C58.0775 80.4105 58.4228 80.3621 58.4207 80.0716C58.4375 79.4337 57.587 79.1516 57.1323 79.5032C56.8165 79.8274 57.1344 80.2126 57.248 80.5495C57.1322 80.9011 56.8501 81.3032 57.1491 81.6463C57.4944 82.3074 58.6838 82.5053 59.0354 81.7663C59.3975 82.1726 59.9028 82.3263 60.4396 82.2716C60.3407 82.7305 60.7344 82.979 61.0186 83.2547L61.4501 80.4442C61.9781 80.532 62.5038 80.6324 63.027 80.7453C62.8523 81.1495 62.3807 81.1263 62.0207 81.2337C62.147 81.68 62.1091 82.2526 62.5112 82.5684C62.8038 82.84 63.227 82.8 63.5975 82.8442C63.488 83.2969 63.7975 83.5958 64.1028 83.8716L64.7596 81.139L65.8417 81.3579C65.7936 81.621 65.7232 81.8794 65.6312 82.1305C65.5259 82.3368 65.147 82.4926 65.3133 82.7579C65.4501 82.9979 65.5428 83.4716 65.8944 83.4232L66.2796 83.0695L67.147 83.2695L66.9217 84.0484L67.1301 84.3558C66.8944 84.5495 66.8459 84.9432 67.1659 85.0842C67.6775 85.3705 67.867 85.9474 68.2038 86.3937C68.1175 85.76 67.8607 85.1642 67.4775 84.6547C67.6965 83.7558 67.9301 82.859 68.2228 81.9811L68.9238 82.1916L68.827 81.5137C66.3891 80.8505 63.9323 80.2442 61.4417 79.8147C61.2396 79.0863 61.147 78.08 60.2438 77.9095ZM43.1196 79.3347C43.267 79.6126 43.3722 79.9726 43.7617 79.9537C43.848 80.4358 43.7638 81.0084 44.1154 81.4042C44.4965 81.7411 45.0122 81.6926 45.467 81.5663C45.4459 82.0821 45.7386 82.4147 46.2186 82.5832C46.1933 81.6274 46.0965 80.6758 46.1154 79.72L47.2333 79.7369L47.1912 80.4758L46.4438 80.4063C46.5091 81.2863 47.2944 81.8484 47.8228 82.4758C48.5491 82.1453 47.368 81.6526 47.467 81.2695C48.0101 80.9074 47.8859 80.2463 47.8965 79.6863L48.808 79.68C48.7954 80.1179 48.8544 80.6084 48.4522 80.9032C48.6974 81.2101 48.9679 81.496 49.2607 81.7579L49.568 81.1853L50.4354 81.2169L50.4038 82.0211L51.0986 82.4379L51.1028 79.6274L51.7659 79.6442C51.7596 80.0905 51.7554 80.5558 51.4291 80.9032C51.5154 81.2821 51.8817 81.5032 52.147 81.7579L52.4986 81.259L53.2922 81.2611C53.3154 81.6568 53.2733 82.1011 53.6101 82.3895L53.2312 82.4042L53.4944 82.899C54.1912 82.8969 54.5238 83.5516 55.0354 83.9032C54.8123 83.3284 54.3912 82.8674 53.9575 82.4421L54.0586 79.7305L54.7744 79.7369L54.4838 79.1032C50.6965 79.0042 46.8986 79.0379 43.1196 79.3347ZM30.0817 82.2147L30.6543 82.68C31.3828 82.3537 32.1196 81.9979 32.9259 81.9305C32.4817 82.5832 31.2712 82.3684 31.1007 83.1747C31.5807 83.1432 32.1238 83.1747 32.2501 83.7347L31.4817 83.84L31.5807 84.4105C32.1112 84.5347 32.627 84.7074 33.1112 84.9558C33.2459 84.6084 32.8859 84.4821 32.7259 84.2695C32.827 83.8884 32.8986 83.5074 32.5786 83.2063C32.2733 82.9116 32.8775 82.8463 33.0165 82.7179L33.5028 84.1663L34.2586 84.3642L33.4122 81.6947L33.9322 81.5011L34.5533 83.8126L35.3428 84.0632C35.0775 83.1558 34.8375 82.24 34.5975 81.3263L36.947 80.779L37.0901 81.3537C36.5322 81.4779 35.9596 81.5642 35.4228 81.7663C35.0291 82.2274 35.768 82.6232 36.1407 82.7937C36.1954 82.1916 36.6522 81.9874 37.1933 81.9516L37.3996 83.1116L38.1638 83.4716L37.6607 80.6821L38.368 80.5558C38.4249 80.9937 38.627 81.4947 38.1849 81.8084C38.4578 82.1165 38.7801 82.3769 39.1386 82.579L39.3428 81.9979L40.1638 81.88C40.2438 82.2253 40.2817 82.6021 40.5365 82.8737C40.5722 83.0863 40.5828 83.4274 40.8733 83.4379C41.4754 83.4779 41.9133 83.9011 42.3744 84.2421C42.1428 83.6274 41.5849 83.2316 41.0354 82.9221C40.8965 82.0316 40.7954 81.1326 40.6754 80.24L41.3596 80.1116L41.027 79.5747C37.2901 79.9979 33.5596 80.7453 30.0817 82.2147ZM44.4438 79.8821L45.408 79.7642L45.4207 80.8316C45.1765 80.9748 44.9386 81.1348 44.6775 81.24C44.3954 80.8842 44.5386 80.3179 44.4438 79.8821ZM49.4649 79.6232L50.4375 79.6505L50.4207 80.5747L49.4901 80.6063L49.4649 79.6232ZM52.4291 79.6716L53.3744 79.6905V80.6274L52.4207 80.64L52.4291 79.6716ZM57.7133 79.699C58.1807 79.579 58.1007 80.3832 57.6691 80.2758C57.3322 80.2211 57.4165 79.739 57.7133 79.699ZM39.0249 80.4863L39.9786 80.299L40.1449 81.24L39.1786 81.4021L39.0249 80.4863ZM60.0754 80.2442L60.7975 80.3369C60.7259 80.7074 60.6754 81.0863 60.5533 81.4484C60.1554 81.7305 59.6628 81.6147 59.2354 81.4863C59.6522 81.1326 60.2986 80.9221 60.0754 80.2442ZM63.4207 80.8021L64.1407 80.9937C63.9491 81.36 64.0417 82 63.547 82.1242C63.1554 82.3032 62.7386 82.1116 62.4501 81.8379C63.0059 81.7179 63.5028 81.4632 63.4207 80.8021ZM66.3259 82.4863L66.4965 81.5095L67.5617 81.8021L67.347 82.6526L66.3259 82.4863ZM20.5701 86.5537L21.4775 86.1474C22.7154 88.6863 23.9196 91.2421 25.0312 93.8379L24.3722 94.1221L20.5701 86.5537ZM74.2775 93.8842L77.8438 86.1853L78.7617 86.6063L74.9575 94.1832L74.2775 93.8842ZM18.9533 87.36L19.8165 86.9158L23.5912 94.3958L22.8354 94.7642C21.5133 92.3116 20.1975 89.8526 18.9533 87.36ZM79.1596 87.6442C79.2796 87.4274 79.3701 87.1811 79.5596 87.0147C79.8502 87.1369 80.1259 87.2884 80.408 87.4337L76.5386 94.7916L75.747 94.5053C76.8122 92.1832 78.0207 89.9284 79.1596 87.6442ZM17.4859 88.24C17.688 88.0358 17.9596 87.9284 18.208 87.7979L22.0017 95.0653L21.3175 95.4337L17.4859 88.24ZM77.467 95C78.6417 92.6021 79.9217 90.2505 81.187 87.8969L81.7344 88.2653C80.5196 90.6737 79.2017 93.0295 77.9344 95.4105L77.467 95ZM24.5996 90.8126L25.6291 91.0484L26.5386 93.2737L25.8333 93.5747C25.408 92.659 24.9659 91.7516 24.5996 90.8126ZM73.7028 91.0674L74.7491 90.84C74.3701 91.7811 73.9259 92.6947 73.4923 93.6105L72.7828 93.3347C73.0523 92.5642 73.3807 91.8169 73.7028 91.0674ZM26.6628 91.2716L27.5701 91.4737C27.7638 91.9032 27.9301 92.3474 28.0438 92.8063L27.3091 93.0063C27.0649 92.4379 26.8249 91.8674 26.6628 91.2716ZM71.7344 91.5747C72.0186 91.3937 72.3807 91.4063 72.6986 91.3179L71.9954 93.0569L71.2733 92.8505C71.3996 92.4169 71.4986 91.9642 71.7344 91.5747ZM28.6059 91.7032C29.1386 91.8147 29.6986 91.8653 30.1912 92.12L28.8375 92.5137L28.6059 91.7032ZM69.0396 92.1516C69.6017 91.9726 70.1765 91.84 70.7638 91.7705L70.4649 92.5474L69.0396 92.1516Z" fill="white"/>
<path d="M48.2737 0.262939H51.2779C52.8632 0.355571 54.4505 0.452413 56.0253 0.669255L57.7305 7.73031C59.9146 8.16251 62.0675 8.73993 64.1747 9.45873L69.4863 4.2861C72.92 5.75136 76.2484 7.51768 79.2253 9.77873L77.24 16.6545C78.9705 18.0608 80.5474 19.6398 82.0737 21.2629L88.659 18.7303C91.04 21.6082 93.0505 24.785 94.779 28.0945L89.7453 33.3093C90.5326 35.1703 91.2442 37.065 91.7516 39.0229C94.1326 39.3387 96.52 39.6145 98.8884 40.0124C99.6463 43.524 99.9116 47.1156 100 50.6966V50.9724L93.0653 53.3072C92.8926 55.3345 92.5979 57.3493 92.1979 59.3429C94.1726 60.8061 96.2526 62.1366 98.1095 63.7535C97.1221 67.4293 95.5853 70.9345 93.7684 74.2714L86.7768 72.7303C85.5305 74.6945 84.1789 76.5914 82.7242 78.4082L78.5621 75.1619L73.0968 70.6061C73.9137 69.5977 74.7895 68.6377 75.5158 67.5598C78.9811 62.3872 81.0021 56.1893 80.8989 49.9408C80.8781 43.801 79.0024 37.8108 75.5179 32.7556C71.5642 26.9682 65.5937 22.5745 58.8589 20.6082C52.661 18.7703 45.8737 18.865 39.7853 21.0861C33.3432 23.3429 27.7558 27.8566 24.0589 33.5808C22.6358 35.8124 21.5305 38.244 20.6863 40.7514C19.4695 44.3893 19.0632 48.265 19.2568 52.084C19.8821 59.0524 22.8716 65.7114 27.3811 71.0293L17.8821 78.7535C16.4716 77.0061 15.0211 75.2798 13.8232 73.3745C13.6695 73.2082 13.5558 72.8356 13.2589 72.9472L6.15158 74.1956C4.24842 70.8103 2.82526 67.1703 1.78737 63.4314L8.05895 59.5724C7.60421 57.4124 7.25053 55.2314 7.09053 53.0293L0.0736842 50.9745L0 50.2861V48.3303C0.115789 45.4377 0.465263 42.5535 1.14737 39.7366L8.51368 38.8272C9.12842 36.8019 9.76842 34.7787 10.6147 32.8377C8.92842 31.0335 7.18737 29.2798 5.46316 27.5114C7.25474 23.9977 9.39579 20.625 12.1368 17.7703L18.5874 20.844C20.1158 19.2882 21.7495 17.8419 23.3916 16.4061L21.1284 9.51557C24.4105 7.34294 27.7958 5.25873 31.4758 3.82505L36.3537 9.27978C38.4863 8.51768 40.7221 8.13452 42.9137 7.62294C43.6253 5.27557 44.2358 2.89452 44.8989 0.530308C46.0214 0.412789 47.1467 0.323638 48.2737 0.262939ZM46.3832 2.20399C45.6863 4.56399 45.0947 6.95347 44.3874 9.30926C41.48 9.75136 38.5979 10.3998 35.8358 11.425C34.3347 9.81873 32.9158 8.13662 31.44 6.50294C31.2358 6.35347 31.0295 5.95347 30.7326 6.16189C28.4084 7.15136 26.2421 8.47347 24.0926 9.78715C23.8526 9.97662 23.4968 10.084 23.3768 10.385C24.0926 12.6187 24.8863 14.8314 25.5558 17.0819C23.2484 18.9072 21.0695 20.8966 19.0589 23.044C16.8947 22.0714 14.7579 21.0419 12.6211 20.0124C10.7032 22.1998 9.09474 24.644 7.74316 27.2145C9.40211 29.0124 11.2042 30.6714 12.8379 32.4924C11.6042 35.0272 10.7263 37.7282 10.0463 40.4608C7.61305 40.7979 5.17566 41.1046 2.73474 41.3808C2.08 44.0777 1.82737 46.8693 1.90947 49.6419L8.93895 51.7135C8.96632 54.4208 9.38737 57.1072 10.0337 59.7303C10.0484 59.9893 10.3095 60.3787 9.99158 60.545C8.01895 61.8503 5.94105 62.9914 3.96842 64.2987C4.73895 66.7829 5.66947 69.2208 6.82526 71.5535C6.97474 71.7493 7.02947 72.0966 7.30737 72.1472C9.70947 71.844 12.0968 71.1977 14.4842 70.9766C15.6358 72.7766 16.7832 74.5956 18.2147 76.1935L24.0505 71.4756C24.3368 71.2482 24.6 70.9935 24.8526 70.7303C19.8105 64.1429 16.7558 55.7514 17.5642 47.3956C18.1558 39.9872 21.4421 32.8419 26.6274 27.5261C31.1726 22.8187 37.1411 19.4714 43.5642 18.1787C47.7853 17.265 52.181 17.3345 56.4126 18.1345C63.6716 19.5198 70.3705 23.5261 75.1158 29.1787C79.3874 34.2356 82.08 40.625 82.64 47.225C83.4421 55.4608 80.8253 63.8987 75.7453 70.404C77.9305 72.2924 80.1621 74.1282 82.48 75.8524C83.7263 74.2103 84.8442 72.4777 85.9011 70.7114L92.8442 72.2124C94.1474 69.7219 95.2863 67.1366 96.0695 64.4335C94.1958 62.8798 92.0989 61.625 90.1895 60.1177C90.8926 57.4419 91.16 54.6756 91.4421 51.9303L98.1747 49.7008C98.1316 46.9908 97.8747 44.2884 97.4063 41.6187L90.3074 40.6629C89.7537 37.9724 88.6884 35.4419 87.6695 32.905L92.5979 27.8314C91.2842 25.4208 89.8147 23.0903 88.1326 20.9198C85.9368 21.7366 83.7747 22.6587 81.5579 23.4082C79.6421 21.1935 77.5053 19.1766 75.2105 17.3556L77.1789 10.5429C74.9116 8.95557 72.4821 7.54715 69.9116 6.52399C68.1011 8.11978 66.4674 9.90926 64.7032 11.5577C61.9558 10.5998 59.1474 9.81452 56.2779 9.32189L54.6295 2.4082C51.9074 1.9682 49.1284 2.13873 46.3832 2.20399ZM51.3221 11.9114L51.9874 11.884C51.9958 12.9156 51.9158 13.9429 51.8968 14.9745L51.2021 14.9914L51.3221 11.9114ZM47.0505 12.0145L47.7663 11.9535C48.16 12.5977 48.5579 13.2398 49.0105 13.844L48.9368 11.905L49.5663 11.9029C49.5958 12.9303 49.6926 13.9535 49.6821 14.9808C49.4337 14.9072 49.0674 15.0314 48.9095 14.7703C48.4947 14.1682 48.1368 13.5282 47.7095 12.9345C47.7853 13.6482 47.8126 14.364 47.8463 15.0819C47.5074 15.105 47.0926 15.0461 47.1705 14.604L47.0505 12.0145ZM52.6358 11.9219L53.2989 12.0356C53.7242 12.6861 53.9705 13.4314 54.2547 14.1514C54.3789 13.4861 54.4421 12.8124 54.4905 12.1387L55.1284 12.1514L54.8632 15.2019C54.6318 15.2182 54.3993 15.1968 54.1747 15.1387C53.8126 14.4587 53.5558 13.7261 53.1705 13.0587L52.9705 15.1029L52.3768 14.9598C52.3958 13.9429 52.5558 12.9345 52.6358 11.9219ZM44.7221 12.3029L45.5242 12.1535C46.0126 13.1303 46.4821 14.1177 47.0126 15.0735L46.2758 15.1724L46.0147 14.604C45.6695 14.6377 45.3242 14.6587 44.9853 14.7282C44.8779 14.9282 44.7958 15.1387 44.7368 15.3598L44.0779 15.4735C44.2758 14.4145 44.5221 13.364 44.7221 12.3029ZM45.0316 14.1303L45.7116 14.0524C45.5595 13.7153 45.3981 13.3826 45.2274 13.0545C45.1474 13.4103 45.0863 13.7703 45.0316 14.1303ZM42.6379 12.6335L43.3053 12.5177L43.8821 15.5682L43.1789 15.6019C43.0295 14.6061 42.8084 13.625 42.6379 12.6335ZM55.5768 13.305C55.5958 12.2587 57.0337 12.1093 57.6653 12.7008C57.9432 12.9408 57.9389 13.3408 58.0547 13.6608C57.4042 13.7493 57.2189 13.0187 56.6568 12.9198L56.1579 13.2924C56.6189 13.5745 57.1284 13.7787 57.5768 14.0861C58.0547 14.4187 57.8842 15.2377 57.3958 15.484C56.5326 15.9324 55.2274 15.3872 55.2716 14.3114L55.9158 14.4166C55.9874 15.0124 57.2674 15.364 57.1158 14.5661C56.6021 14.1766 55.6105 14.0861 55.5768 13.305ZM58.4 13.3661L58.4737 12.7661L60.92 13.3682L60.8253 13.9535L59.8905 13.7472C59.711 14.5645 59.5039 15.3754 59.2695 16.1787L58.6189 15.9429C58.84 15.1493 59.0568 14.3514 59.2295 13.545L58.4 13.3661ZM39.5916 13.3535C40.2737 13.2019 40.9621 12.9072 41.6737 13.0314C42.5179 13.4187 42.7347 14.5745 42.4716 15.3872C42.0484 16.1282 41.0863 16.1114 40.3621 16.3429L39.5916 13.3535ZM40.4021 13.7198L40.8884 15.6377C41.1411 15.5535 41.4021 15.4777 41.6442 15.3598C42.0905 14.9661 41.8905 14.2587 41.6126 13.8208C41.32 13.3977 40.8021 13.6693 40.4021 13.7198ZM61.2632 13.5135L61.92 13.7008L61.0021 16.6524L60.3453 16.4419L61.2632 13.5135ZM38.2674 13.764L38.9137 13.5935C39.2105 14.5682 39.5789 15.5198 39.8842 16.4924L39.2232 16.6882C38.6463 16.1682 38.0632 15.6545 37.4568 15.1661L38.1221 17.0798L37.5137 17.3282L36.4884 14.4398C36.7179 14.3408 36.9516 14.2482 37.1853 14.1535C37.7377 14.6712 38.3108 15.1663 38.9032 15.6377C38.701 15.0103 38.48 14.3893 38.2674 13.764ZM62.2547 13.7977L64.6147 14.6587L64.4147 15.2314L63.5663 14.9135C63.2211 15.6756 63.0758 16.5366 62.6168 17.2377L62.1032 17.0272C62.2653 16.2166 62.6421 15.4693 62.9074 14.6924L62.0632 14.345L62.2547 13.7977ZM30.4863 15.2293C30.6337 14.8503 31.1221 14.8714 31.4442 14.7598C31.2842 15.0398 31.0295 15.2735 30.9326 15.5872C31.1137 15.7956 31.3305 15.9682 31.5453 16.1408L32.2147 15.7261L32.4274 16.1724L31.9368 16.4524L32.3137 17.0966C31.9558 17.3493 31.3874 17.4672 31.3453 17.9872C31.7937 17.8693 32.1411 17.4756 32.6042 17.4398C33.2042 17.7135 33.0463 18.4545 32.9053 18.964L33.6716 18.9472L33.5158 19.4461C32.8253 19.3282 32.1305 19.3324 31.4358 19.3829L31.4295 18.8335L32.4337 18.7303L32.5179 18.0187C31.9768 18.4693 31.0779 18.5914 30.6337 17.9493C30.4189 17.2398 31.76 17.3598 31.5116 16.7261C30.92 16.9724 30.3853 17.3345 29.84 17.6672C30.3389 18.3956 30.8042 19.1472 31.3011 19.8777L30.7895 20.2356L30.4716 19.6461C30.1179 19.9429 29.7642 20.3787 29.2442 20.2693C28.6463 20.2461 28.2632 19.4503 28.6042 18.9598C28.8211 18.6166 29.3032 18.1724 29.64 18.6314L29.0695 19.1135L30.0253 19.0566L29.3474 17.9766L27.6232 19.2208C28.1074 19.8503 28.6021 20.4693 29.0947 21.0924C29.5642 20.9303 30.2189 20.9408 30.4 21.5093C30.4863 22.3998 29.4126 23.0356 28.6189 22.7808L28.6042 22.4314C29.2021 22.4103 29.8147 22.2019 29.9305 21.5387C29.5663 21.4924 29.3053 21.7303 29.0337 21.924C28.6379 21.5366 28.3242 21.0798 27.9853 20.644L27.4253 21.1072L27.6232 21.7429C27.2197 21.75 26.8161 21.7507 26.4126 21.745L26.5347 21.1008L26.0716 20.5303C25.8695 20.7956 25.2716 21.145 25.2842 20.5703C27.0589 18.9556 29.0379 17.5535 31.1347 16.385C30.8337 16.0693 30.2695 15.7472 30.4863 15.2293ZM29.1347 19.4587C28.9642 19.8924 30.0463 19.8629 29.8947 19.4377C29.6379 19.2966 29.3853 19.305 29.1347 19.4587ZM26.4821 20.1008L27.0716 20.7998L27.6779 20.2482C27.5053 20.0419 27.3389 19.8314 27.1537 19.6398C26.9179 19.7766 26.7032 19.9408 26.4821 20.1008ZM35.2989 14.8229L35.9495 14.7472C36.3789 15.6419 36.7116 16.5787 37.1032 17.4903L36.4632 17.7535C36.0758 16.7766 35.6189 15.8272 35.2989 14.8229ZM65.0211 14.8356L65.6632 15.1472C65.3032 15.8608 64.9579 16.585 64.72 17.3514C64.9826 17.5741 65.3046 17.7153 65.6463 17.7577C66.0084 17.0882 66.2695 16.3703 66.64 15.7072C66.84 15.5114 67.0926 15.865 67.3074 15.9177C66.9516 16.5787 66.7032 17.2945 66.3221 17.945C65.72 18.9998 63.7074 18.0756 64.1116 16.9219C64.3432 16.1977 64.7284 15.5345 65.0211 14.8356ZM67.3979 16.6082L67.7284 16.0882C68.4211 16.5156 69.1663 16.8545 69.8505 17.2987L69.6632 17.8356L68.8063 17.4019L67.5853 19.5808C67.3937 19.4629 67.2063 19.3387 67.0232 19.2124C67.3663 18.4672 67.8147 17.7787 68.1979 17.0545L67.3979 16.6082Z" fill="#004F9F"/>
<path d="M68.6102 20.0758C69.126 19.2042 69.7218 18.3832 70.2733 17.5369L72.187 18.8105L71.8312 19.2884C71.3933 18.9937 70.9512 18.7074 70.507 18.4274L70.2102 18.9369L71.4228 19.6884L71.1365 20.2042C70.7197 19.9453 70.3218 19.6548 69.8839 19.4337C69.7281 19.6042 69.5954 19.7937 69.4586 19.9769C69.8586 20.2442 70.2712 20.4969 70.6607 20.7832C71.0565 20.8674 70.6291 21.5011 70.3828 21.2758C69.7597 20.9327 69.1386 20.5558 68.6102 20.0758ZM26.2018 18.5221L26.747 18.0737L27.1281 18.5916L26.587 18.9874L26.2018 18.5221ZM73.126 20.5263C74.0123 19.9663 75.2797 20.7221 75.3197 21.7369C75.3344 22.44 74.8544 23.0421 74.2839 23.4C73.4102 23.9137 72.1449 23.1748 72.1512 22.1663C72.086 21.48 72.5723 20.8695 73.126 20.5263ZM73.3365 21.2127C73.0397 21.4484 72.8418 21.8 72.766 22.1684C72.7893 22.3903 72.8998 22.5938 73.073 22.7344C73.2463 22.8749 73.4683 22.9409 73.6902 22.9179C74.2333 22.699 74.7533 22.1369 74.627 21.5116C74.4691 20.9474 73.7344 20.8274 73.3365 21.2127ZM74.1239 24.3263C74.8754 23.6127 75.5281 22.8021 76.3154 22.1242L77.8839 23.7032L77.3744 24.0779L76.326 23.0274L76.006 23.4379C76.1323 23.8379 76.5723 24.0716 76.8481 24.3769L76.4502 24.84L75.5365 23.9242L74.5828 24.8379L74.1239 24.3263ZM21.9597 23.5011C22.2523 23.2484 22.526 22.6674 22.987 22.9474L22.8039 23.4421C23.3954 24.0506 24.027 24.6232 24.6397 25.2106L24.2586 25.7032C23.907 25.3516 23.5807 24.9684 23.1723 24.6821C22.9919 24.8205 22.8171 24.9659 22.6481 25.1179L22.947 25.8716C22.566 25.8127 21.9639 26.0779 21.7407 25.6674C21.867 25.1032 22.4712 24.7769 22.7407 24.2737C22.6076 24.1093 22.4693 23.9493 22.326 23.7937L20.7428 25.5832L22.8123 27.2758L22.4902 27.7663C21.7828 27.2169 21.0923 26.6463 20.3976 26.08L19.9765 26.5537C20.6776 27.0884 21.3702 27.6358 22.0923 28.1411L21.8144 28.6548L21.1155 28.1706C21.0102 28.7158 20.7849 29.3053 20.2523 29.5642C19.7954 29.7284 19.2186 29.6021 18.9386 30.1158L18.6291 29.6506L19.3365 29.2106C19.3744 28.9642 19.5702 28.6906 19.3891 28.459C19.2691 28.08 18.6481 27.9158 18.6481 28.4548L19.3976 28.8253C18.9281 29.2084 18.3491 29.1916 18.067 28.6253C18.2165 28.2569 18.3197 27.7874 18.7512 27.6463C19.0944 27.5916 19.5028 27.5937 19.7533 27.8737C20.1007 28.2 20.0039 28.7179 20.067 29.1432C20.4565 28.7958 20.7533 28.2737 20.4965 27.7495C20.2607 27.4948 19.9723 27.2927 19.707 27.0716C19.4733 27.179 19.1891 27.52 19.0081 27.16C19.8039 25.8148 20.9407 24.6884 21.9597 23.5011ZM47.8986 26.6969C48.6165 25.5137 49.2649 24.2632 50.2418 23.2674C51.1576 24.4084 51.9597 25.64 52.5955 26.9621C53.8733 25.5979 55.747 24.6442 57.6523 25.1158C57.267 26.1958 57.0312 27.3221 56.9112 28.4632C58.1154 27.7074 59.6418 27.0884 61.0502 27.6358C60.6986 28.5748 60.4565 29.5474 60.2944 30.5369C61.6312 30.0884 63.3007 29.5684 64.5449 30.5179C63.8418 31.3979 63.1681 32.32 62.8502 33.4169C64.0712 32.9516 65.4902 32.7811 66.7133 33.3306C67.0881 33.4842 67.3407 33.8084 67.5323 34.1516C65.3512 35.0316 64.5575 37.4021 63.366 39.219C62.5997 40.4779 61.3702 41.4232 59.9533 41.8316C60.3702 42.1621 60.8123 42.4737 61.147 42.8948C61.7997 43.6569 62.1639 44.6463 62.9576 45.2885C63.5618 45.8506 64.4481 45.7474 65.2039 45.9011C64.8333 47.2948 63.6902 48.3179 62.5175 49.0674C60.5828 50.2821 58.1344 50.1663 56.027 49.5053C55.5597 49.3748 55.1912 49.0548 54.8418 48.7348C54.2018 49.8737 52.8565 50.1474 51.707 50.48C50.7976 52.4653 50.6207 54.7642 51.0712 56.8906C52.1323 56.6337 53.1933 56.3285 54.2965 56.3242C56.2186 56.2358 57.9154 57.3263 59.787 57.5516C60.5512 57.6737 61.3239 57.579 62.086 57.499L66.5491 65.0527C66.2018 65.7916 65.7618 66.5663 65.8544 67.4127C65.9407 68.0653 66.5428 68.4316 66.9597 68.8716H52.6397C51.7007 69.5095 50.6312 70.0548 49.4565 69.9348C48.4986 69.9264 47.6881 69.3937 46.9091 68.9032C45.9491 68.7411 44.966 68.899 43.9954 68.8948C40.2754 68.8948 36.5533 68.8948 32.8333 68.8927C33.0818 68.4442 33.5344 67.9958 33.4018 67.4379C33.1786 66.5474 32.5491 65.8442 32.0565 65.0927C34.0881 62.4274 36.2102 59.8337 38.3091 57.2211C40.4186 57.4337 42.5576 57.259 44.6165 56.7748C45.747 56.52 46.9218 56.5179 48.0586 56.7327C47.7302 54.5853 47.8733 52.3537 48.6923 50.3285C47.9197 50.0653 47.1281 49.8316 46.427 49.4106C45.9533 49.12 45.5955 48.6863 45.1618 48.3474C43.4333 48.84 41.6565 49.5811 39.8186 49.16C37.8691 48.6674 35.9007 47.4842 35.107 45.5516C35.7491 45.1474 36.4502 44.7537 36.8102 44.0527C37.3007 43.1221 37.9597 42.2969 38.7491 41.6021C37.8502 41.3032 36.9807 40.8485 36.3597 40.1158C35.1786 38.7558 34.9112 36.8779 33.8481 35.4421C33.4544 34.8127 32.8039 34.4253 32.2081 34.0148C32.8481 32.419 34.7976 32.2127 36.2481 32.6695C35.9512 31.7179 35.4081 30.88 34.7197 30.1663C34.3323 29.8758 34.8354 29.5853 35.1133 29.5053C36.547 29.0611 38.1323 29.5663 39.1828 30.6C39.1176 29.3958 38.7197 28.2569 38.3323 27.1263C39.9891 26.6421 41.7954 27.2821 42.9554 28.5158C43.1723 27.2148 43.486 25.8674 43.086 24.5684C44.9091 24.4632 46.8312 25.1558 47.8986 26.6969ZM50.187 25.1074C49.6902 25.6316 49.2481 26.2106 48.9154 26.8548C47.5028 29.5811 46.747 32.7432 47.3028 35.8021C47.5449 37.0842 47.9702 38.4148 48.907 39.3663C49.3533 39.7285 49.9007 40.2085 50.5218 40.0106C51.3681 39.6211 51.9344 38.8127 52.2586 37.9621C53.347 35.2127 53.3639 32.0884 52.4586 29.2842C51.9786 27.7727 51.3933 26.2 50.187 25.1074ZM44.3912 25.5811C44.2523 26.9348 44.1091 28.2884 43.8523 29.6253C43.5365 31.6042 43.0565 33.6927 43.7744 35.6421C44.3849 37.6442 45.9302 39.5727 48.1428 39.7811C46.6439 37.9832 46.0797 35.5916 46.1976 33.2906C46.3281 31.6358 46.7112 30.0127 47.267 28.4506C47.0018 27.0506 45.7744 25.8927 44.3912 25.5811ZM53.0291 28.1284C53.7407 30.3327 54.2418 32.6716 53.9344 34.9937C53.7744 36.7663 53.1491 38.5011 52.0649 39.92C52.3639 40.0379 52.6965 40.2316 52.9933 39.9874C54.5576 39.1979 55.5049 37.5432 55.7807 35.8569C56.446 32.6232 55.1807 29.2695 56.2165 26.08C54.8754 26.1453 53.846 27.1621 53.0291 28.1284ZM39.8312 28.0569C40.2081 30.2842 39.9407 32.5642 40.387 34.7832C40.6754 36.299 41.427 37.7116 42.4754 38.8358C43.5049 39.9242 45.027 40.4632 46.5133 40.3685C45.2523 39.5306 43.9576 38.5958 43.3133 37.1706C42.1828 34.9306 42.4481 32.3495 42.7891 29.9537C42.0965 28.9958 41.1491 27.8884 39.8312 28.0569ZM56.8544 30.1474C56.9891 32.8127 57.2249 35.6527 55.9576 38.1116C55.5175 39.0716 54.6965 39.7453 53.9618 40.4695C55.4839 40.3369 56.8418 39.3874 57.587 38.0716C58.8418 36.0148 58.9765 33.5537 59.2733 31.2274C59.3597 30.3158 59.5954 29.4169 59.5344 28.4969C58.4965 28.6821 57.3723 29.1958 56.8544 30.1474ZM36.046 30.2863C36.3428 30.9663 36.7807 31.5832 37.006 32.2948C37.5786 34.2021 38.0018 36.1874 38.9512 37.9537C39.9849 39.7284 41.9239 41.0379 44.0249 40.9558C43.2312 40.3937 42.3807 39.8927 41.7281 39.16C39.9533 37.2906 39.2649 34.6527 39.2649 32.1284C38.7154 30.9348 37.3533 30.1706 36.046 30.2863ZM60.126 31.7811C59.8165 33.2927 59.6818 34.8484 59.2628 36.3411C58.7342 38.0765 57.6964 39.6131 56.2839 40.7516C57.8754 40.7032 59.0944 39.5348 59.9554 38.3074C61.0439 36.9221 61.3975 35.1642 61.8649 33.5074C62.1049 32.6 62.5786 31.7853 62.9933 30.9516C61.9681 30.8295 60.9512 31.1874 60.126 31.7811ZM33.5344 33.6969C33.8776 34.1179 34.2628 34.5011 34.5786 34.9432C35.587 36.4569 35.8818 38.3832 37.1555 39.7285C38.0902 40.7221 39.5155 41.0337 40.8333 40.9474C40.0755 40.3642 39.2881 39.7937 38.7112 39.019C37.6397 37.6927 37.366 35.9663 36.8186 34.4C36.0733 33.4379 34.6186 33.1895 33.5344 33.6969ZM62.6944 34.9537C61.947 35.6 61.8607 36.6442 61.387 37.4632C60.5302 38.9684 59.3533 40.3053 57.8881 41.2421C58.6633 41.3062 59.4428 41.1889 60.1649 40.8995C60.8869 40.6101 61.5317 40.1565 62.0481 39.5748C63.0186 38.499 63.5218 37.1179 64.2418 35.8821C64.606 35.2463 65.067 34.6716 65.4649 34.0548C64.4565 33.8421 63.4375 34.2906 62.6944 34.9537ZM48.9344 41.0211C47.4776 41.2442 46.326 42.3727 45.7386 43.6758C45.1386 44.9958 46.2123 46.5748 47.5765 46.7916C48.4586 46.9958 49.3154 46.6316 50.1281 46.3411C50.6291 46.4358 51.0586 46.8253 51.5912 46.8632C52.9554 47.1811 54.6586 46.1769 54.6649 44.6842C54.6312 43.4085 53.7533 42.3011 52.726 41.6211C51.6249 40.8695 50.2123 40.7832 48.9344 41.0211ZM39.806 42.1263C38.1323 42.739 37.8986 44.8274 36.4586 45.7116C38.3807 46.3558 40.5112 46.179 42.4312 45.6148C43.2144 45.3116 44.1912 45.0485 44.5555 44.2042C44.9744 43.3558 45.3807 42.4906 45.9618 41.7348C43.9133 41.7621 41.7891 41.4758 39.806 42.1263ZM54.5386 41.8358C55.0502 42.8695 55.6523 43.9074 55.7239 45.0885C55.806 45.4716 55.7091 45.9958 56.1049 46.2316C58.3239 47.3769 61.1786 47.9685 63.467 46.6906C62.9976 46.2485 62.427 45.9221 62.0018 45.4316C61.2523 44.5537 60.7218 43.4927 59.8544 42.7158C59.4481 42.3348 58.8754 42.2021 58.3344 42.1769C57.0628 42.139 55.8018 41.9706 54.5386 41.8358ZM44.1639 47.3642C44.9344 47.0548 44.6797 46.1769 44.6439 45.5242C43.8312 45.7853 44.2333 46.7327 44.1639 47.3642ZM42.9744 46.2295L42.9786 47.9116L43.6418 47.6779C43.6397 47.1116 43.6333 46.5474 43.6102 45.9811L42.9744 46.2295ZM41.9112 46.3937C41.8898 47.0349 41.8884 47.6766 41.907 48.3179C42.1133 48.1979 42.5723 48.2106 42.4965 47.8527C42.5197 47.3558 42.5007 46.859 42.4965 46.3642L41.9112 46.3937ZM37.0354 46.7137C37.2354 47.059 37.5533 47.3053 37.8754 47.5327L37.9007 46.8106L37.0354 46.7137ZM40.6902 46.6485C40.646 47.2442 40.6502 47.8421 40.7323 48.4337L41.4102 48.2695C41.406 47.7011 41.387 47.1327 41.3176 46.5685L40.6902 46.6485ZM38.3954 46.8295L38.3849 47.8106L39.0797 48.0863L39.0776 46.8274L38.3954 46.8295ZM39.5786 46.8021V48.2569L40.2102 48.3179V46.7579L39.5786 46.8021ZM45.9533 47.0948L45.9807 47.7642L46.5239 48.2927L46.5112 47.2842L45.9533 47.0948ZM53.7597 47.2779C53.7565 47.7488 53.7607 48.2198 53.7723 48.6906C53.9702 48.5053 54.1912 48.339 54.3554 48.12C54.3997 47.7516 54.3597 47.379 54.3407 47.0106L53.7597 47.2779ZM55.7344 47.299C55.7218 47.6042 55.6649 47.9474 55.7954 48.2358C55.9997 48.3958 56.227 48.5221 56.4502 48.659L56.4923 47.4358C56.2439 47.379 55.9323 46.9474 55.7344 47.299ZM47.166 47.4442L47.1323 48.7348L47.766 49.1242C47.787 48.5832 47.7891 48.0421 47.7786 47.5032L47.166 47.4442ZM49.766 47.6906C49.7597 48.339 49.726 48.9874 49.6944 49.6358L50.5807 49.6653L50.5849 47.6021L50.1302 47.3642L49.766 47.6906ZM51.1807 47.6674L51.1554 49.6148L51.9744 49.4906C51.9849 48.8358 52.0018 48.1748 51.886 47.5285L51.1807 47.6674ZM52.4986 47.4716L52.4965 49.339L53.2376 49.1263L53.2333 47.4085L52.4986 47.4716ZM48.3618 47.6148C48.3597 48.1895 48.366 48.7663 48.3891 49.3411L49.1765 49.5242C49.187 48.9116 49.187 48.2969 49.1849 47.6821L48.3618 47.6148ZM56.9849 47.6842C56.9933 48.0674 56.9639 48.4548 57.0354 48.8358L57.7428 49.0148L57.7365 47.9032L56.9849 47.6842ZM61.4481 48.4716C61.9681 48.5116 62.3407 48.1432 62.6523 47.7832C62.1828 47.8821 61.4923 47.8316 61.4481 48.4716ZM58.2523 48.0842L58.2439 49.0421L58.9112 49.2295C58.9281 48.8527 58.9323 48.4758 58.9281 48.1011L58.2523 48.0842ZM59.4481 48.2L59.4628 49.1958L60.0544 49.0863L60.0565 48.2148L59.4481 48.2ZM60.5828 48.1537L60.5555 48.9937L61.0628 48.8569L61.0144 48.0885L60.5828 48.1537ZM49.7049 50.4148C48.7681 52.4232 48.6565 54.739 49.0755 56.8948C49.147 57.4253 49.8081 57.5432 50.2418 57.6127C50.0397 56.4758 49.8165 55.3285 49.8754 54.1664C49.886 52.8927 50.2881 51.6716 50.6397 50.4611L49.7049 50.4148ZM50.3407 58.1853C50.3849 60.4421 50.067 62.6842 50.0923 64.9411C50.8797 64.6021 51.6018 64.1095 52.4354 63.88C53.5154 63.5453 54.6607 63.5411 55.7828 63.5537C59.0354 63.5895 62.1681 64.8064 65.4333 64.6737C64.3618 62.4548 62.9323 60.4232 61.7007 58.2885C60.1681 58.4379 58.6354 58.1558 57.206 57.6063C55.0039 56.7011 52.347 56.8716 50.3407 58.1853ZM44.4228 57.5432C42.5176 58.0085 40.5428 58.0779 38.5912 57.9727L34.3533 63.2885C33.9997 63.72 33.6607 64.1642 33.3744 64.6464C36.6733 64.7895 39.8607 63.7011 43.1386 63.5411C45.2902 63.3011 47.5133 63.6948 49.3618 64.8463L49.6649 58.2085C48.1407 57.1579 46.166 57.1306 44.4228 57.5432ZM36.0102 65.1011C35.0165 65.2085 34.0165 65.1642 33.0207 65.2C33.4944 65.619 34.147 65.5011 34.7281 65.5011C37.3365 65.3285 39.9154 64.8695 42.507 64.5369C43.9765 64.3895 45.4881 64.3706 46.9218 64.7727C47.5954 64.9558 48.2102 65.299 48.8691 65.52C48.8018 65.2442 48.6123 65.0421 48.3554 64.9327C47.1639 64.2737 45.7786 64.0569 44.4312 64.0506C41.5849 63.9958 38.8207 64.7937 36.0102 65.1011ZM50.726 65.3032C50.8165 65.4927 50.9323 65.6674 51.0733 65.8274C52.446 64.88 54.1133 64.379 55.7828 64.4421C58.9828 64.3811 62.0586 65.6737 65.2607 65.48L65.6733 65.2379C62.4039 65.36 59.2502 64.2864 56.0081 64.0737C54.1912 63.9811 52.2418 64.219 50.726 65.3032ZM36.1828 65.7958C35.3197 65.8927 34.446 65.88 33.5912 66.04C34.2502 66.1748 34.926 66.1411 35.5933 66.1306C38.9555 65.9074 42.2818 64.859 45.6712 65.2948C46.6186 65.3706 47.4986 65.7642 48.4102 66C47.8354 65.3285 46.9133 65.1558 46.0902 64.9874C42.7618 64.4885 39.4818 65.5242 36.1828 65.7958ZM53.1744 65.2316C52.4754 65.4927 51.6544 65.7242 51.2544 66.4127C52.2397 66.16 53.107 65.5685 54.1218 65.4043C57.2039 64.6821 60.2691 65.8127 63.3344 66.0379C63.9903 66.1254 64.6573 66.0745 65.2923 65.8885C62.646 66.0316 60.0944 65.2 57.486 64.9243C56.0481 64.8885 54.5618 64.76 53.1744 65.2316ZM33.8733 66.539C35.0333 66.8842 36.2733 66.8506 37.4733 66.8C39.3976 66.7411 41.246 66.1053 43.1681 66.0211C44.7702 66.0021 46.3323 66.4148 47.8565 66.8737L48.0775 66.3979C46.7386 65.779 45.2523 65.5264 43.7828 65.5474C40.4565 65.6569 37.2165 66.7158 33.8733 66.539ZM49.7365 65.4527C49.067 66.2821 48.227 67.1579 48.206 68.2864C48.326 68.9495 49.1007 69.1516 49.686 69.0927C50.3007 69.0948 51.2649 69.0358 51.3744 68.2653C51.2186 67.1706 50.5344 66.1937 49.7365 65.4527ZM53.9828 65.8611C53.1828 66.1074 52.2228 66.2716 51.7218 67.0148C52.4986 66.779 53.2523 66.4653 54.0544 66.3116C56.3533 65.819 58.7197 66.0885 61.0207 66.4127C62.2165 66.6337 63.4207 66.8843 64.6439 66.7853C64.9302 66.8148 65.1744 66.6632 65.347 66.4506C61.5302 66.7221 57.7807 64.9453 53.9828 65.8611ZM39.1576 67.0442C37.4649 67.32 35.7386 67.2737 34.0397 67.0821L34.2944 67.3264C36.7449 67.7727 39.2312 67.3495 41.6712 67.0442C43.6881 66.7958 45.7007 67.1811 47.6565 67.6442L47.5618 67.2274C46.427 66.8148 45.227 66.5832 44.0291 66.4674C42.3807 66.339 40.7702 66.7937 39.1576 67.0442ZM53.4923 66.8548C52.9197 67.0548 52.2376 67.1411 51.8481 67.6611C53.4397 67.4274 54.9954 66.8821 56.627 66.9706C59.1723 66.8379 61.667 67.5411 64.206 67.4842C64.5239 67.4611 64.8965 67.4821 65.1386 67.2316C64.2775 67.1958 63.4081 67.2485 62.5575 67.0779C59.5786 66.5916 56.4628 65.9958 53.4923 66.8548ZM41.246 67.4948C38.8944 67.8421 36.4944 68.1158 34.1281 67.739L34.1239 68.1874L43.5786 68.1895C44.9176 68.2358 46.2544 68.0106 47.5891 68.2106C47.1091 67.84 46.4902 67.7895 45.9197 67.6674C44.3849 67.3474 42.7997 67.3685 41.246 67.4948ZM53.2376 67.8064C52.9239 67.8674 52.6376 68.0085 52.3639 68.1685L65.1765 68.1706L65.3597 67.8569C64.1912 67.8569 63.0165 67.9474 61.8565 67.7727C59.0081 67.36 56.0649 67.1264 53.2376 67.8064ZM78.8144 24.7158L80.4418 26.6548L79.9175 27.0127C79.7428 26.7916 79.5786 26.5621 79.3702 26.3748C78.6986 26.84 78.1133 27.4127 77.4691 27.9137L77.0144 27.3958L78.9239 25.7958L78.3491 25.0948L78.8144 24.7158ZM78.1702 28.8063C79.0018 28.1895 79.8354 27.5727 80.7028 27.0063L82.0354 28.9011L81.5028 29.1579C81.1154 28.8042 80.9449 28.1137 80.4397 27.9684C79.8586 28.4169 80.7912 28.9727 80.987 29.4169L80.4944 29.7811C80.216 29.375 79.9289 28.9749 79.6333 28.5811L79.067 29.0358L80.0144 30.2863L79.566 30.739L78.1702 28.8063ZM17.3323 29.6042C17.4755 29.3369 17.6923 29.1242 17.9555 28.9748L17.9365 29.7032C18.3091 30.0211 18.7028 30.3579 18.8249 30.8569L20.0165 30.7053L19.966 31.2295C19.1702 31.3937 18.3491 31.3916 17.5407 31.4337C17.4733 30.9537 17.8776 30.8295 18.2481 30.7074C18.0491 30.5281 17.8357 30.3655 17.6102 30.2211C17.1891 30.5621 17.0186 31.1327 16.7407 31.5874C17.5554 31.9832 18.3533 32.4106 19.147 32.8484L18.8439 33.2842C18.3976 33.1516 18.006 32.8884 17.5786 32.7095L17.2839 33.2358C17.1734 33.1159 17.0646 32.9945 16.9576 32.8716C17.4733 32.4211 16.6839 32.2948 16.4607 32.059C16.3386 32.299 16.2144 32.5369 16.1091 32.7874C16.5007 33.1348 16.9723 33.4253 17.1618 33.9432L18.3491 33.6316L18.326 34.1874C17.5449 34.4358 16.7239 34.5095 15.9155 34.6042C15.8523 34.12 16.2986 33.9769 16.6354 33.7811L15.806 33.4L15.2607 34.6211L14.9112 34.3306C15.5618 32.6821 16.4102 31.1158 17.3323 29.6042ZM80.1154 31.6211C79.8291 30.1642 82.1302 29.08 83.0102 30.3158C83.486 30.8969 83.3554 31.7263 82.8144 32.2127L82.4902 31.6463C82.747 31.1979 82.6523 30.5242 82.0712 30.419C81.4733 30.4737 80.6165 30.9053 80.7997 31.6295C80.8481 32.0506 81.3428 32.1221 81.686 32.0779L82.0397 32.7116C81.2123 33.0021 80.2354 32.5179 80.1154 31.6211ZM15.0165 31.3453L15.3723 30.739L15.9112 31.0863L15.5849 31.6484L15.0165 31.3453ZM81.4923 33.3495L83.9933 32.1348L84.2797 32.7263L83.2649 33.2737L83.7554 34.2484L84.7681 33.76L85.0818 34.3663C84.1828 34.8506 83.2544 35.2737 82.3365 35.7179L81.987 35.1432L83.2249 34.5221L82.7323 33.5011L81.4797 34.1242C81.4207 33.8632 81.0502 33.4611 81.4923 33.3495ZM82.4797 36.16L85.366 35.0295L85.5933 35.6737C85.1997 36.3348 84.6333 36.88 84.1954 37.5137C84.8081 37.2779 85.4081 37.0021 86.0418 36.8211L86.3133 37.3727L83.3849 38.5032L83.1786 37.8337C83.6812 37.2485 84.1676 36.6497 84.6376 36.0379C84.0165 36.2515 83.406 36.4946 82.8081 36.7663L82.4797 36.16ZM13.5281 37.6169L13.8944 37.2463C14.006 37.4421 14.1049 37.6463 14.1912 37.8569C14.966 38.1432 15.766 38.3579 16.5197 38.6948L16.4081 39.2421C15.5365 38.9579 14.6797 38.6316 13.8018 38.3663L13.3449 40.1053L13.8312 40.2716C13.8376 39.7537 14.0523 39.04 14.7007 39.1011C15.2755 39.08 16.2355 39.88 15.587 40.3811C15.2312 40.1137 14.9049 39.4779 14.387 39.7179C14.1702 40.6358 15.347 40.5348 15.8923 40.8021L15.8102 41.3411L15.1386 41.1811C15.1365 41.6358 15.0291 42.2169 14.4923 42.3137C13.7449 42.5727 13.0628 41.7663 13.3828 41.0569L13.766 40.9369C13.846 41.2695 13.8039 41.8611 14.3218 41.8085C14.7197 41.8316 14.6628 41.3158 14.5723 41.0716C14.1344 40.859 13.6418 40.7979 13.1702 40.6885C13.0329 41.2897 12.882 41.8878 12.7176 42.4821C13.5895 42.6891 14.4662 42.8751 15.347 43.04L15.2628 43.6148C14.3723 43.4569 13.4902 43.2527 12.5997 43.0863L12.4586 43.8063C12.9976 43.8969 13.5449 43.9663 14.0733 44.1158C14.2523 44.6611 13.0776 45.4716 13.126 44.5137L12.366 44.4021L12.2502 45.2695L14.9365 45.5516L14.8207 46.0863C13.926 46.08 13.0418 45.9263 12.1533 45.8463L12.1512 46.6211L14.7807 46.7537L14.7955 47.3348L12.1112 47.1979L12.0333 47.9495C12.9281 47.9685 13.8228 47.9411 14.7155 47.8779L14.7449 48.4737C14.5912 48.4737 14.286 48.4695 14.1323 48.4674C14.4586 49.0379 14.7849 49.7937 14.3597 50.4021C14.1639 50.7116 13.7828 50.5853 13.4818 50.6085C13.1618 50.7179 12.7828 51.0674 12.4649 50.7558C12.3302 50.4316 12.3849 50.0695 12.3555 49.7306L12.0944 49.7663L12.0986 51.4127C13.0144 51.419 13.9239 51.299 14.8333 51.2L14.8102 51.8106L12.2018 52.0569L12.246 52.6779C13.147 52.6106 14.0355 52.4106 14.9386 52.3853C15.3049 53.139 14.347 52.9516 13.9491 53.0863C14.307 53.5558 15.3323 53.88 14.907 54.5895C14.6249 54.3285 14.3555 54.0548 14.0986 53.7706C14.0144 54.5327 13.2439 54.6169 12.6502 54.7769L12.5112 55.2548L12.1997 55.1537C11.9702 54.4021 12.0018 53.5958 11.7576 52.8463C11.5576 53.1221 11.2776 53.979 10.926 53.3221C11.2355 52.8885 11.6102 52.499 11.8502 52.0169C11.3765 52.299 10.9681 52.6737 10.5723 53.0548L10.2986 52.5263L11.6944 51.6316C11.6333 50.1495 11.5618 48.6632 11.6312 47.1811C11.2165 47.5306 10.8186 47.899 10.427 48.2758L10.126 47.7621C10.7891 47.2379 11.9091 46.9137 11.7407 45.8611C11.2839 45.8695 10.5933 45.8737 10.486 45.2906C10.1239 44.0316 11.3618 43.1853 12.2312 42.5432C12.4186 41.5869 12.6583 40.6416 12.9491 39.7116C12.4439 39.699 11.6607 39.6842 11.627 39.0106C11.6039 38.0042 12.6481 37.5221 13.5281 37.6169ZM12.0123 38.939C12.3512 39.12 12.7281 39.1663 13.107 39.1706L13.3849 38.1874C12.7786 38.0569 12.1555 38.2948 12.0123 38.939ZM10.8881 44.92C10.886 45.3874 11.4481 45.3074 11.7597 45.3642C11.846 44.6737 11.9555 43.9853 12.0565 43.2969C11.5702 43.7306 10.8312 44.1769 10.8881 44.92ZM12.0186 48.5306L12.147 49.1727L12.7702 49.1579C12.867 49.5495 12.5849 50.2253 13.1176 50.3516C13.1744 49.9306 12.9344 49.3285 13.4902 49.1685C13.5639 49.4842 13.4628 49.9327 13.8544 50.0674C14.3891 49.6358 13.8691 48.9663 13.5618 48.5727C13.0544 48.4737 12.5323 48.5327 12.0186 48.5306ZM12.3744 53.3011C12.3681 53.5958 12.4207 53.8885 12.4523 54.1811C12.8397 54.1032 13.2565 54.0927 13.6081 53.8969C13.6397 53.6337 13.5112 53.3895 13.4481 53.1432C13.0881 53.1832 12.7239 53.2063 12.3744 53.3011ZM84.8797 38.4379C85.787 38.0148 87.0039 38.5769 87.0439 39.6358C87.3091 41.2653 84.5807 42.0253 83.9491 40.5242C83.507 39.7158 83.987 38.6485 84.8797 38.4379ZM85.3028 39.0337C84.8333 39.1179 84.2733 39.5074 84.4291 40.0548C84.6733 41.2106 86.846 40.5306 86.3765 39.4274C86.1975 39.0106 85.6965 38.9179 85.3028 39.0337ZM84.4291 42.0127C85.446 41.8253 86.4565 41.6063 87.4733 41.4063L87.5281 42.1306C86.7197 42.24 85.9197 42.3937 85.1386 42.6253C85.2418 43.0948 85.3912 43.5642 85.3954 44.0506L84.867 44.1958L84.4291 42.0127Z" fill="#004F9F"/>
<path d="M85.9748 44.139C86.5832 43.9811 87.3559 43.9537 87.8232 44.4506C88.259 44.8674 88.2969 45.56 88.1264 46.1074C87.6632 47.0653 86.219 47.3011 85.4169 46.6379C84.6695 45.9221 84.8885 44.3937 85.9748 44.139ZM86.1853 44.7979C85.6085 44.9116 85.3643 45.6527 85.7706 46.0842C86.3622 46.5516 87.4759 46.3306 87.659 45.539C87.659 44.7684 86.7769 44.5705 86.1853 44.7979ZM85.9706 47.5179C86.6843 47.2 87.6695 47.2421 88.1832 47.899C88.7853 48.6421 88.5053 50.1348 87.4001 50.1748C87.2948 49.5832 87.8801 49.2274 87.9159 48.6779C87.6359 47.8653 86.3664 47.819 85.9116 48.4758C85.6401 48.9663 85.9853 49.4842 86.4843 49.6063L86.4232 48.8948H86.9959L87.0611 50.1958L85.318 50.2611L85.558 49.6148C85.0127 48.9895 85.2043 47.8737 85.9706 47.5179ZM85.3327 51.3137C86.4864 51.6379 87.4337 50.8506 88.4127 50.3958L88.4253 51.1958L87.1411 51.7348C87.5449 51.9529 87.9519 52.1649 88.3622 52.3706L88.3222 53.1221C87.6927 52.8295 87.1327 52.4127 86.5095 52.1137C86.1116 52.0274 85.7053 52.0127 85.3032 51.9706L85.3327 51.3137ZM84.9306 56.4084C84.819 55.7011 85.0022 54.9916 85.1495 54.3032C86.1516 54.4969 87.1685 54.6021 88.1664 54.819C88.0064 55.4758 88.0506 56.2063 87.7264 56.8106C87.398 57.2969 86.7811 57.0842 86.4148 56.7684C85.9495 57.1495 85.1095 57.0337 84.9306 56.4084ZM85.5601 55.0527C85.5116 55.5663 85.2843 56.3832 86.0822 56.3158C86.179 55.939 86.2653 55.56 86.3495 55.1811L85.5601 55.0527ZM86.8485 55.28C86.8211 55.7495 86.5938 56.3811 87.2464 56.4569C87.339 56.0842 87.4253 55.7095 87.5032 55.3348L86.8485 55.28ZM85.139 57.4253C86.2295 57.0632 87.7895 57.92 87.4064 59.2084C87.1916 60.7053 84.918 60.6863 84.3327 59.4737C83.9832 58.7306 84.3411 57.6969 85.139 57.4253ZM85.1138 58.1769C84.718 58.4506 84.6674 59.1179 85.099 59.3853C85.5895 59.7453 86.5285 59.88 86.8001 59.1937C87.1348 58.2695 85.7706 57.7642 85.1138 58.1769ZM45.8211 58.3306C46.2085 58.1958 46.979 58.1558 46.7769 58.7895C46.4232 58.6969 45.7474 58.9137 45.8211 58.3306ZM51.3916 58.6695L52.5453 58.2442L52.7601 58.6653L51.6906 59.0842L51.3916 58.6695ZM53.0148 58.2L54.0716 58.2148L54.0232 58.7053C53.6253 58.6442 53.1011 58.7158 53.0148 58.2ZM54.6106 58.2295L55.7537 58.4463L55.7053 58.9284L54.5516 58.6884L54.6106 58.2295ZM44.1664 59.019C44.0569 58.3727 44.8127 58.4506 45.2338 58.3748L45.4948 58.739C45.0587 58.8615 44.6149 58.955 44.1664 59.019ZM47.1643 58.7895C47.2359 58.0295 48.1559 58.7537 48.5601 58.8569C48.2253 59.4548 47.6064 58.979 47.1643 58.7895ZM13.4801 59.2127L16.0443 58.5453C16.2127 59.0274 16.038 59.3158 15.5116 59.2948C15.6485 59.7242 15.9201 60.1916 15.7264 60.6484C15.6064 60.9916 15.2695 61.1727 15.0001 61.3832C14.7916 61.1832 14.6443 60.6106 14.2674 60.8337C13.6274 61.0632 14.1727 61.7558 14.2738 62.1769C15.1222 61.8527 15.9832 61.5621 16.8443 61.2779L16.9474 61.8232C16.1411 62.1895 15.2738 62.4063 14.4527 62.7369L14.7306 63.419L17.2022 62.4232L17.4274 62.9663L15.7832 63.6337L16.278 64.7579C16.8822 64.5937 17.0843 63.9706 17.3222 63.4674L17.7559 63.6758C17.459 64.259 17.2485 65.24 16.4359 65.2148C15.5222 65.2863 15.838 63.6927 14.9327 63.8632C15.2022 64.6063 15.5474 65.3179 15.8422 66.0527C16.3832 65.7874 17.0022 65.5032 17.4548 66.0737L17.9243 64.8716L18.4359 65.0842C18.1074 65.8927 17.7116 66.6737 17.2611 67.4232L16.8232 67.1979C16.9026 66.9002 16.977 66.6012 17.0464 66.3011C16.7376 66.376 16.4339 66.4702 16.1369 66.5832L16.8738 68.0063L19.2443 66.6632L19.4274 67.2169C18.7053 67.699 17.9222 68.0821 17.1727 68.5242L17.4969 69.0695L19.779 67.6674L20.078 68.1958L18.9601 68.8758C19.1538 69.3895 19.6569 69.1095 20.0085 69.3011C19.9559 69.6716 20.038 70.2169 19.6885 70.4506C19.2401 69.9579 18.6885 70.3958 18.499 70.8737C18.8211 70.6737 19.539 70.9621 19.0338 71.2948C18.4716 71.7411 18.0359 71.0274 17.9306 70.5453C18.2085 70.1853 18.5516 69.8863 18.939 69.6484L18.6338 69.1116L17.8716 69.52L17.9516 70.2106L17.5622 70.0569C16.3727 68.2674 15.4611 66.3095 14.5874 64.3495C14.299 64.5306 14.0422 64.8042 13.6885 64.8527C13.0843 64.8358 12.798 64.1284 12.8611 63.6106C12.9074 63.0274 13.4001 62.6484 13.8169 62.3074C13.4864 61.2674 13.1411 60.2232 12.9222 59.1537L13.0127 58.7748L13.4801 59.2127ZM13.5706 59.8021L13.7011 60.4758C14.2022 60.1916 14.8211 60.0779 15.2022 60.6169C15.5306 60.1874 15.1938 59.7832 14.9369 59.4337L13.5706 59.8021ZM13.9895 62.8337C13.6716 63.1537 12.9748 63.6211 13.398 64.12C13.7011 64.5285 14.0738 63.9895 14.3727 63.8484L13.9895 62.8337ZM42.8169 58.9916C43.0085 58.6884 43.4211 58.7495 43.7243 58.6527L43.7853 59.1811C43.4674 59.1348 42.9938 59.36 42.8169 58.9916ZM56.0948 58.6337L56.9495 58.6948L56.9811 59.1558L56.1074 59.0779L56.0948 58.6337ZM39.8569 58.8948H40.5685L40.5853 59.3621L39.8232 59.3684L39.8569 58.8948ZM41.2864 58.88C41.6611 58.9706 42.3538 58.6569 42.3959 59.2337C42.0674 59.4506 41.638 59.3369 41.2674 59.3874L41.2864 58.88ZM57.5664 58.8274C57.9453 58.8737 58.3243 58.939 58.6969 59.04L58.5306 59.4253L57.5201 59.28L57.5664 58.8274ZM59.1895 59.5263C59.0232 58.8337 60.1832 58.8653 60.1643 59.5137L59.1895 59.5263ZM51.5853 59.7348C52.2021 59.4579 52.8693 59.311 53.5453 59.3032L53.4948 59.7369C52.9516 59.8148 52.4148 59.9327 51.9011 60.1263L51.5853 59.7348ZM54.1495 59.2695L55.219 59.4211L55.139 59.8863L54.1538 59.76L54.1495 59.2695ZM44.6569 59.4863C45.0211 59.5011 45.4716 59.2863 45.7832 59.539C45.7622 60.04 45.0632 59.8527 44.7285 59.9684L44.6569 59.4863ZM46.318 59.3895C47.0106 59.4295 47.6885 59.5937 48.3159 59.8948L47.9748 60.24C47.4232 60.099 46.8801 59.9242 46.3159 59.8506L46.318 59.3895ZM55.8148 59.5095L56.8022 59.7095L56.7348 60.179L55.6359 59.9453L55.8148 59.5095ZM43.0527 59.76C43.5053 59.7158 44.1011 59.419 44.3032 60.0127C43.9032 60.1032 43.5011 60.1706 43.0969 60.2211L43.0527 59.76ZM39.0253 59.9348L40.6927 60.0106L40.7874 60.4127C40.1727 60.4884 39.5559 60.4442 38.9411 60.4148L39.0253 59.9348ZM41.358 59.9306C41.8211 59.9685 42.6127 59.5537 42.6295 60.2927L41.3685 60.4169L41.358 59.9306ZM57.2443 60.2295L57.4022 59.7769L58.539 59.9158L58.4864 60.4L57.2443 60.2295ZM59.3032 60.0085C59.779 60.0211 60.2506 60.1053 60.7264 60.1558L60.8001 60.5937C60.219 60.5769 59.638 60.5327 59.0653 60.4421L59.3032 60.0085ZM53.5116 60.3537L54.8359 60.36L54.7959 60.8316C54.3832 60.8358 53.9706 60.8337 53.5601 60.8295L53.5116 60.3537ZM83.8527 60.2506L86.798 61.2758L86.4843 62.1727C85.7243 62.1074 84.9664 61.9958 84.2022 61.9958C84.8524 62.3752 85.4933 62.7704 86.1243 63.1811L85.8274 64.0821C84.8422 63.7642 83.8644 63.4237 82.8948 63.0611L83.1095 62.4653L85.0716 63.1474C84.4969 62.7158 83.8737 62.3537 83.2716 61.9642L83.5243 61.3432L85.6822 61.6337C85.0464 61.3074 84.358 61.1011 83.6843 60.8737L83.8527 60.2506ZM43.3369 60.7074L44.4506 60.5032C44.659 61.1263 43.9243 61.0737 43.539 61.2042L43.3369 60.7074ZM44.8401 60.5327C45.3283 60.4839 45.8191 60.4656 46.3095 60.4779L46.2127 60.9579C45.718 60.9179 45.0548 61.1327 44.8401 60.5327ZM52.5138 60.5916C52.7874 60.3832 53.0843 60.6821 52.9916 60.9727C52.6232 61.12 52.1643 61.4316 51.838 61.0337C51.9011 60.7221 52.2695 60.6948 52.5138 60.5916ZM55.3285 60.4106L56.4001 60.5916L56.3601 61.0842C55.9327 60.9621 55.1116 61.12 55.3285 60.4106ZM41.7538 60.9958L42.8948 60.7621L43.0127 61.2737L41.9538 61.44L41.7538 60.9958ZM46.718 61.0737L46.9306 60.6169L48.0022 61.0232C47.7516 61.6674 47.1559 61.2421 46.718 61.0737ZM56.7959 60.699C57.2316 60.8421 58.1432 60.6506 57.9411 61.3958C57.4759 61.2758 56.6906 61.419 56.7959 60.699ZM39.9327 61.1369L41.2169 61.0127L41.2801 61.52C40.8127 61.4653 39.9643 61.8906 39.9327 61.1369ZM58.5474 60.9663L59.8359 61.1263C59.9053 61.9179 58.9706 61.4337 58.5264 61.4695L58.5474 60.9663ZM38.0527 61.1053L39.3874 61.1263C39.4632 61.2906 39.3832 61.4674 39.3706 61.6379C38.9159 61.4969 37.9874 61.8695 38.0527 61.1053ZM60.4064 61.1263C60.8422 61.2358 61.5327 60.9306 61.7811 61.3895C61.4674 61.8674 60.7874 61.6084 60.3138 61.6169L60.4064 61.1263ZM44.6759 61.5432C45.0632 61.4716 45.459 61.4779 45.8506 61.5221L45.7601 62.0442L44.859 62.0295L44.6759 61.5432ZM53.9285 61.4021L54.9306 61.36L54.9538 61.9011L53.9159 61.9348L53.9285 61.4021ZM43.0969 61.7074L44.1706 61.5369L44.3116 62.0506L43.2253 62.259L43.0969 61.7074ZM46.5327 61.6042L47.7348 62.0863L47.3622 62.5327L46.3285 62.0948L46.5327 61.6042ZM51.939 61.9558C52.3685 61.7685 52.8106 61.6063 53.2653 61.4863C53.558 62.1306 52.8127 62.179 52.4169 62.4042L51.939 61.9558ZM55.4274 62.0042L55.6253 61.44L56.598 61.6358L56.5706 62.1411L55.4274 62.0042ZM41.2632 62.0042L42.5664 61.8379L42.7159 62.3348L41.3095 62.5453L41.2632 62.0042Z" fill="#004F9F"/>
<path d="M57.1075 61.7769L58.4697 61.9874L58.3981 62.5053L57.0318 62.3116L57.1075 61.7769ZM39.3854 62.1937L40.7686 62.0695L40.8297 62.5937L39.4549 62.7074L39.3854 62.1937ZM58.9981 62.0337L60.2507 62.1832L60.2718 62.6947L58.8739 62.5853L58.9981 62.0337ZM37.3181 62.2126L38.8949 62.2147L38.897 62.7326L37.3202 62.7747L37.3181 62.2126ZM60.7433 62.6421C60.9286 62 61.6886 62.4905 62.1454 62.4316L62.1623 62.9453C61.7012 62.8569 61.0654 63.0547 60.7433 62.6421ZM82.0212 65.72C81.8802 64.9137 82.4254 64.2169 82.716 63.5095L85.5012 64.7558C85.236 65.3726 85.0423 66.0463 84.6107 66.5726C84.1749 67 83.5623 66.6716 83.297 66.2295C82.8149 66.3853 82.1939 66.2569 82.0212 65.72ZM82.9644 64.3453C82.7307 64.8063 82.3644 65.4969 83.0696 65.7221C83.2782 65.3802 83.4762 65.032 83.6633 64.6779L82.9644 64.3453ZM84.1096 64.9284C84.0191 65.3053 83.6296 65.8 84.0402 66.1158C84.4212 65.92 84.5433 65.48 84.7349 65.1305L84.1096 64.9284ZM81.5939 65.8884C82.3981 66.6358 83.0591 67.5158 83.8044 68.3179L83.4191 69.0042L80.1686 68.4463C80.3539 68.2042 80.4633 67.7748 80.8633 67.8779C81.3918 67.9642 81.476 67.2926 81.7307 66.979L81.3033 66.5284L81.5939 65.8884ZM81.7833 68.0484L82.9075 68.2632L82.1791 67.4421L81.7833 68.0484ZM79.4128 69.5579L79.8991 69.0148C80.6949 69.8842 81.9139 69.6758 82.9686 69.7895L82.5496 70.4779L81.1728 70.3011C81.4086 70.6926 81.6528 71.0821 81.9054 71.4674C81.7454 71.6505 81.6633 71.9369 81.4149 72.0211C81.0318 71.4442 80.8044 70.7769 80.377 70.2316C80.0802 69.9726 79.737 69.7769 79.4128 69.5579ZM19.2507 81.6084C27.9202 77.6 37.3981 75.3832 46.9391 75.0379C58.2739 74.6211 69.6718 76.9411 79.9897 81.6316C79.5749 82.6548 79.0886 83.6442 78.6275 84.6463C80.5749 85.4358 82.4023 86.4863 84.1707 87.6148C82.3433 90.9874 80.6233 94.4211 78.6928 97.7369H78.5939C78.0612 97.3621 77.4612 97.1053 76.8675 96.8526C73.7433 95.4863 70.537 94.2758 67.2191 93.4716C66.956 93.3747 66.6297 93.3663 66.4275 93.16C66.7012 91.6253 67.1665 90.1326 67.5181 88.6148C55.8633 85.5726 43.4781 85.7116 31.7875 88.4884L32.9433 93.2C29.4324 94.0542 26.007 95.2275 22.7097 96.7053C22.0423 97.0148 21.3054 97.2337 20.7539 97.7369H20.4844L20.4739 97.5979C18.756 94.2358 16.9244 90.9284 15.1328 87.6042C16.8654 86.419 18.737 85.4484 20.6591 84.6105L19.2507 81.6084ZM21.6402 82.4337C22.5307 84.5811 23.6128 86.6442 24.6065 88.7453C32.9391 85.9684 41.7349 84.5053 50.5265 84.659C58.7623 84.6548 66.9707 86.2148 74.7118 89L77.6823 82.4863C73.0465 80.6105 68.2802 79.0105 63.3539 78.0926C49.328 75.3359 34.7978 76.848 21.6402 82.4337ZM20.5707 86.5537L24.3728 94.1221L25.0318 93.8379C23.9202 91.2421 22.716 88.6863 21.4781 86.1474L20.5707 86.5537ZM74.2781 93.8842L74.9581 94.1832L78.7623 86.6063L77.8444 86.1853L74.2781 93.8842ZM18.9539 87.36C20.1981 89.8526 21.5139 92.3116 22.836 94.7642L23.5918 94.3958L19.817 86.9158L18.9539 87.36ZM79.1602 87.6442C78.0212 89.9284 76.8128 92.1832 75.7475 94.5053L76.5391 94.7916L80.4086 87.4337C80.1265 87.2884 79.8507 87.1369 79.5602 87.0148C79.3707 87.1811 79.2802 87.4274 79.1602 87.6442ZM17.4865 88.24L21.3181 95.4337L22.0023 95.0653L18.2086 87.7979C17.9602 87.9284 17.6886 88.0358 17.4865 88.24ZM77.4675 95L77.9349 95.4105L81.7349 88.2653L81.1875 87.8969C79.9223 90.2505 78.6423 92.6021 77.4675 95ZM24.6002 90.8126C24.9665 91.7516 25.4086 92.659 25.8339 93.5748L26.5391 93.2737C26.2507 92.5263 25.9433 91.7853 25.6297 91.0484L24.6002 90.8126ZM73.7033 91.0674C73.3812 91.8169 73.0528 92.5642 72.7833 93.3347L73.4928 93.6105C73.9265 92.6947 74.3707 91.7811 74.7496 90.84L73.7033 91.0674ZM26.6633 91.2716C26.8254 91.8674 27.0654 92.4379 27.3097 93.0063L28.0444 92.8063C27.9307 92.3474 27.7644 91.9032 27.5707 91.4737L26.6633 91.2716ZM71.7349 91.5748C71.4991 91.9642 71.4002 92.4169 71.2739 92.8505L71.996 93.0569C72.2423 92.4821 72.4844 91.9053 72.6991 91.3179C72.3812 91.4063 72.0191 91.3937 71.7349 91.5748ZM28.6065 91.7032C28.6791 91.9746 28.7563 92.2449 28.8381 92.5137C29.2921 92.3923 29.7435 92.2611 30.1918 92.12C29.6991 91.8653 29.1391 91.8147 28.6065 91.7032ZM69.0402 92.1516L70.4654 92.5474L70.7644 91.7705C70.177 91.84 69.6023 91.9726 69.0402 92.1516Z" fill="#004F9F"/>
<path d="M60.2441 77.9097C61.1473 78.0802 61.2399 79.0865 61.442 79.8149C63.9326 80.2444 66.3894 80.8507 68.8273 81.5139L68.9241 82.1918L68.2231 81.9812C67.9305 82.8591 67.6968 83.756 67.4778 84.6549C67.861 85.1644 68.1178 85.7602 68.2041 86.3939C67.8673 85.9476 67.6778 85.3707 67.1662 85.0844C66.8462 84.9434 66.8947 84.5497 67.1305 84.356L66.922 84.0486L67.1473 83.2697L66.2799 83.0697L65.8947 83.4234C65.5431 83.4718 65.4505 82.9981 65.3136 82.7581C65.1473 82.4928 65.5262 82.337 65.6315 82.1307C65.7235 81.8796 65.7939 81.6211 65.842 81.3581L64.7599 81.1391C64.5536 82.0528 64.3199 82.9602 64.1031 83.8718C63.7978 83.596 63.4883 83.297 63.5978 82.8444C63.2273 82.8002 62.8041 82.8402 62.5115 82.5686C62.1094 82.2528 62.1473 81.6802 62.021 81.2339C62.381 81.1265 62.8526 81.1497 63.0273 80.7455C62.5042 80.6325 61.9784 80.5322 61.4505 80.4444L61.0189 83.2549C60.7347 82.9791 60.341 82.7307 60.4399 82.2718C59.9031 82.3265 59.3978 82.1728 59.0357 81.7665C58.6841 82.5055 57.4947 82.3076 57.1494 81.6465C56.8505 81.3034 57.1326 80.9012 57.2483 80.5497C57.1347 80.2128 56.8168 79.8276 57.1326 79.5034C57.5873 79.1518 58.4378 79.4339 58.421 80.0718C58.4231 80.3623 58.0778 80.4107 57.8989 80.5665C58.2399 80.5686 58.4462 80.7497 58.522 81.1055C58.1326 81.1349 57.6294 80.9012 57.3747 81.3244C57.7073 81.9434 58.4441 81.5918 58.9157 81.3728L58.7768 80.737C59.1389 80.6486 59.522 80.5707 59.7768 80.2697C59.4273 80.1791 59.0715 80.1139 58.7178 80.0528L58.4357 79.4128L61.141 79.7518C61.0336 79.2634 60.7999 78.8276 60.3536 78.577L60.2441 77.9097ZM57.7136 79.6991C57.4168 79.7391 57.3326 80.2212 57.6694 80.276C58.101 80.3834 58.181 79.5791 57.7136 79.6991ZM60.0757 80.2444C60.2989 80.9223 59.6526 81.1328 59.2357 81.4865C59.6631 81.6149 60.1557 81.7307 60.5536 81.4486C60.6757 81.0865 60.7262 80.7076 60.7978 80.337L60.0757 80.2444ZM63.421 80.8023C63.5031 81.4634 63.0062 81.7181 62.4505 81.8381C62.7389 82.1118 63.1557 82.3034 63.5473 82.1244C64.042 82.0002 63.9494 81.3602 64.141 80.9939L63.421 80.8023ZM66.3262 82.4865L67.3473 82.6528L67.562 81.8023L66.4968 81.5097C66.4357 81.8339 66.3768 82.1581 66.3262 82.4865ZM43.1199 79.3349C46.8989 79.0381 50.6968 79.0044 54.4841 79.1033L54.7747 79.737L54.0589 79.7307C54.0441 80.636 53.9999 81.5391 53.9578 82.4423C54.3915 82.8676 54.8126 83.3286 55.0357 83.9034C54.5241 83.5518 54.1915 82.897 53.4947 82.8991L53.2315 82.4044L53.6105 82.3897C53.2736 82.1012 53.3157 81.657 53.2926 81.2612L52.4989 81.2591L52.1473 81.7581C51.882 81.5034 51.5157 81.2823 51.4294 80.9034C51.7557 80.556 51.7599 80.0907 51.7662 79.6444L51.1031 79.6276L51.0989 82.4381L50.4041 82.0212L50.4357 81.217L49.5683 81.1855L49.261 81.7581C48.9682 81.4962 48.6978 81.2103 48.4526 80.9034C48.8547 80.6086 48.7957 80.1181 48.8083 79.6802L47.8968 79.6865C47.8862 80.2465 48.0105 80.9076 47.4673 81.2697C47.3683 81.6528 48.5494 82.1455 47.8231 82.476C47.2947 81.8486 46.5094 81.2865 46.4441 80.4065L47.1915 80.476L47.2336 79.737L46.1157 79.7202C46.0968 80.676 46.1936 81.6276 46.2189 82.5833C45.7389 82.4149 45.4462 82.0823 45.4673 81.5665C45.0126 81.6928 44.4968 81.7412 44.1157 81.4044C43.7641 81.0086 43.8483 80.436 43.762 79.9539C43.3726 79.9728 43.2673 79.6128 43.1199 79.3349ZM44.4441 79.8823C44.5389 80.3181 44.3957 80.8844 44.6778 81.2402C44.9389 81.1349 45.1768 80.9749 45.421 80.8318L45.4083 79.7644L44.4441 79.8823ZM49.4652 79.6233L49.4905 80.6065L50.421 80.5749L50.4378 79.6507L49.4652 79.6233ZM52.4294 79.6718L52.421 80.6402L53.3747 80.6276V79.6907L52.4294 79.6718ZM30.082 82.2149C33.5599 80.7455 37.2905 79.9981 41.0273 79.5749L41.3599 80.1118L40.6757 80.2402L41.0357 82.9223C41.5852 83.2318 42.1431 83.6276 42.3747 84.2423C41.9136 83.9012 41.4757 83.4781 40.8736 83.4381C40.5831 83.4276 40.5726 83.0865 40.5368 82.8739C40.282 82.6023 40.2441 82.2255 40.1641 81.8802L39.3431 81.9981L39.1389 82.5791C38.7804 82.377 38.4581 82.1166 38.1852 81.8086C38.6273 81.4949 38.4252 80.9939 38.3683 80.556L37.661 80.6823C37.8126 81.6149 37.9978 82.5412 38.1641 83.4718L37.3999 83.1118L37.1936 81.9518C36.6526 81.9876 36.1957 82.1918 36.141 82.7939C35.7683 82.6233 35.0294 82.2276 35.4231 81.7665C35.9599 81.5644 36.5326 81.4781 37.0905 81.3539L36.9473 80.7791L34.5978 81.3265L35.3431 84.0633L34.5536 83.8128L33.9326 81.5012L33.4126 81.6949L34.2589 84.3644L33.5031 84.1665C33.3283 83.6865 33.1705 83.2023 33.0168 82.7181C32.8778 82.8465 32.2736 82.9118 32.5789 83.2065C32.8989 83.5076 32.8273 83.8886 32.7262 84.2697C32.8862 84.4823 33.2462 84.6086 33.1115 84.956C32.6273 84.7076 32.1115 84.5349 31.581 84.4107L31.482 83.8402L32.2505 83.7349C32.1241 83.1749 31.581 83.1433 31.101 83.1749C31.2715 82.3686 32.482 82.5834 32.9262 81.9307C32.1199 81.9981 31.3831 82.3539 30.6547 82.6802L30.082 82.2149ZM39.0252 80.4865L39.1789 81.4023L40.1452 81.2402L39.9789 80.2991L39.0252 80.4865Z" fill="#004F9F"/>
</g>
<defs>
<clipPath id="clip0_6556_6148">
<rect width="100" height="97.5" fill="white" transform="translate(0 0.25)"/>
</clipPath>
</defs>
</svg>
