<svg width="2540" height="1574" viewBox="0 0 2540 1574" fill="none" xmlns="http://www.w3.org/2000/svg">
<path d="M2233.31 131.884C2161.91 50.8113 2057.33 -0.253003 1940.8 0.000942803C1727.06 0.466511 1550.74 179.35 1553.09 393.215C1553.32 413.975 1555.18 434.333 1558.52 454.205C1568.38 512.506 1565.38 572.459 1546.79 628.581C1537.29 657.319 1531.98 687.962 1531.56 719.79C1529.4 887.818 1666.03 1026.41 1833.99 1026.41C1871.45 1026.41 1907.32 1019.59 1940.41 1007.13C2005.22 982.73 2073.99 970.858 2143.21 971.535C2144.55 971.535 2145.86 971.535 2147.19 971.535C2362.28 971.535 2540.12 793.201 2539.7 577.982C2539.42 446.121 2474.22 329.517 2374.35 258.497C2322.67 221.738 2275.23 179.456 2233.31 131.841V131.884Z" fill="#F8F8F8"/>
<path d="M887.347 442.217C797.067 339.707 664.829 275.14 517.483 275.461C247.232 276.049 24.2865 502.235 27.2549 772.653C27.549 798.902 29.9023 824.644 34.1275 849.769C46.5891 923.488 42.7918 999.294 19.2859 1070.26C7.27885 1106.59 0.566696 1145.34 0.0318631 1185.58C-2.69579 1398.04 170.055 1573.28 382.438 1573.28C429.797 1573.28 475.151 1564.67 517.002 1548.9C598.938 1518.05 685.902 1503.04 773.427 1503.9C775.112 1503.9 776.77 1503.9 778.455 1503.9C1050.42 1503.9 1275.29 1278.41 1274.75 1006.28C1274.41 839.548 1191.96 692.111 1065.69 602.311C1000.33 555.832 940.349 502.369 887.347 442.164V442.217Z" fill="#F8F8F8"/>
</svg>
