<svg width="209" height="185" viewBox="0 0 209 185" fill="none" xmlns="http://www.w3.org/2000/svg">
<path d="M165.766 16.0573C148.995 0.776771 124.43 -8.84786 97.0575 -8.79999C46.8538 -8.71224 5.43791 25.0039 5.98932 65.3132C6.04397 69.2261 6.48113 73.0632 7.26603 76.8085C9.58098 87.7973 8.87557 99.0972 4.50894 109.675C2.27844 115.092 1.03154 120.867 0.932189 126.866C0.425482 158.536 32.5169 184.658 71.9705 184.658C80.7684 184.658 89.1936 183.373 96.9681 181.024C112.189 176.425 128.344 174.188 144.604 174.315C144.916 174.315 145.224 174.315 145.537 174.315C196.059 174.315 237.833 140.703 237.733 100.138C237.669 75.2849 222.353 53.3074 198.896 39.9214C186.755 32.9932 175.612 25.0238 165.766 16.0493V16.0573Z" fill="#EDEDED"/>
</svg>
