<svg width="839" height="1271" viewBox="0 0 839 1271" fill="none" xmlns="http://www.w3.org/2000/svg">
<path d="M451.347 167.292C361.067 64.7818 228.829 0.21458 81.4829 0.535677C-188.768 1.12435 -411.713 227.31 -408.745 497.728C-408.451 523.977 -406.098 549.719 -401.873 574.844C-389.411 648.563 -393.208 724.369 -416.714 795.331C-428.721 831.668 -435.433 870.414 -435.968 910.658C-438.696 1123.12 -265.945 1298.36 -53.5625 1298.36C-6.203 1298.36 39.1509 1289.74 81.0016 1273.98C162.938 1243.13 249.902 1228.12 337.427 1228.97C339.112 1228.97 340.77 1228.97 342.455 1228.97C614.417 1228.97 839.288 1003.48 838.753 731.352C838.405 564.623 755.961 417.186 629.687 327.386C564.33 280.907 504.349 227.444 451.347 167.239V167.292Z" fill="#F8F8F8"/>
</svg>
