<?xml version="1.0" encoding="utf-8"?>
<!-- Uploaded to: SVG Repo, www.svgrepo.com, Generator: SVG Repo Mixer Tools -->
<svg width="800px" height="800px" viewBox="0 -53.72 431.871 431.871" xmlns="http://www.w3.org/2000/svg"><defs><style>.a{fill:#ffffff;}.b{fill:#957f6e;}.c{fill:#211715;}.d{fill:#bdbdbd;}.e{fill:#7a7473;}.f{fill:#3f88c9;}</style></defs><path class="a" d="M72.324,2.615C40.217,5.036,14.07,27.666,5.771,58.879c-12.166,45.751,8.671,82.255,53.893,94.279,14.448,3.842,27.8,4.374,39.716,1.912,6.669,5.054,11.4,8.442,20.247,14.33.185-10,.259-14.333.165-22.329,15.83-9.638,27.459-26.351,33.474-48.973C163.845,58.314,142.448,16.747,99,5.193A80.116,80.116,0,0,0,72.324,2.615Z"/><path class="a" d="M112.927,69.328a4.865,4.865,0,0,1,3.892-1.138,4.591,4.591,0,0,1,3.3,2.2A6.486,6.486,0,0,1,120.8,73a19.459,19.459,0,0,1-1.984,10.315,12.381,12.381,0,0,1-3.2,4.2,8.206,8.206,0,0,1-3.813,1.719s-.238.036-.653.1c-.313,1.17-.664,2.156-.837,2.68-1.106,3-7.28,13.37-15.064,17.2a43.444,43.444,0,0,0,.62,5.205c.38,2.18.26,4.14,3.29,5.23.21.07,8.82,4.17,9.12,4.3,0,0-2.441,16.54-28,16.54s-28.352-16.074-28.352-16.074c.584-.2,10.187-4.691,10.388-4.763,3.036-1.1,2.917-3.049,3.3-5.232a41.408,41.408,0,0,0,.6-4.84,28.151,28.151,0,0,1-9.9-7.85A33.153,33.153,0,0,1,49.984,89.3a7.828,7.828,0,0,1-5.023-1.792,12.381,12.381,0,0,1-3.2-4.2A19.469,19.469,0,0,1,39.779,73a6.486,6.486,0,0,1,.68-2.612,4.591,4.591,0,0,1,3.3-2.2,4.864,4.864,0,0,1,3.892,1.138S46.809,39.768,79.4,40.34C113.174,40.932,112.927,69.328,112.927,69.328Z"/><path class="a" d="M321.889,273.8c-26.082.085-55.7.17-74.889.233,2.324,13.417,4.8,27.653,7.514,43.184l.655,3.1c8.939-4.948,38.99-22.419,54.129-31.711,0,0,7.485-4.893,13.429-8.835C322.6,278.458,322.327,276.347,321.889,273.8Z"/><path class="b" d="M342.93,145.638c10.482-3.886,10.655-10.482,10.738-14.321a40.487,40.487,0,0,0-2.064-13.911c-1.856-6.152-5.259-18.642-4.825-40.728h0c.789-6.374.494-15.634.351-19.193-.5-12.34-5.717-26.285-13.628-34.212-.074-.074-.161-.154-.25-.233l-6.465-5.032c-.151-.111-.3-.215-.465-.322a46.453,46.453,0,0,0-10.047-5.08,60.8,60.8,0,0,0-22.81-4.177A53.679,53.679,0,0,0,258.157,21.1C245.118,32.6,238.276,48.415,240.285,74.562c2.811,19.631-4.438,40.994-2.972,57.181.425,4.855,2.846,10.7,9.569,15.316Z"/><path class="a" d="M328.6,76.455c2.728-2.665,7.419-2.672,10.53-.466a11.744,11.744,0,0,1,4.518,10,19.4,19.4,0,0,1-4.063,10.514,28,28,0,0,1-11.742,9,54.356,54.356,0,0,1-10.777,13.49A43.9,43.9,0,0,1,300.1,129.264a40.533,40.533,0,0,1-22.535.451,40,40,0,0,1-11.273-4.892,38.642,38.642,0,0,1-10.241-10.046,52.457,52.457,0,0,1-7.836-15.532,72.687,72.687,0,0,1-3.235-15.561c-.372-3.218-.487-5.119-.544-7.147,7.216-4.94,16.172-8.605,23.241-10.878,13.65-4.389,25.355-11.888,30.448-17.91,3.61,10.615,16.375,23.726,23.792,25.109Z"/><path class="a" d="M335.065,134.937c-4-2.33-11.07-7.8-12-9.68a41.609,41.609,0,0,1-3.531-8.65c-.881.908-1.714,1.7-2.469,2.386A43.9,43.9,0,0,1,300.1,129.264a40.533,40.533,0,0,1-22.535.451c-.157-.042-.312-.085-.463-.123a6.287,6.287,0,0,1-1.764,1.195c-5.34,2.36-8.83,3.52-12.79,5.23,0,0,.8,6.023,5.184,8.656a39.687,39.687,0,0,0,16.836,5.649,92.685,92.685,0,0,0,27.574-1.578s9.368-2.293,16.257-7.182A44.942,44.942,0,0,0,335.065,134.937Z"/><path class="c" d="M317.267,117.422a44.78,44.78,0,0,0,3,7.583,12.325,12.325,0,0,0,1.561,2.624,17.093,17.093,0,0,0,1.6,1.639,61.818,61.818,0,0,0,10.421,7.741c2.669,1.567,5.088-2.58,2.422-4.145a54.328,54.328,0,0,1-9.3-6.853c-.549-.5-1.074-1.016-1.573-1.564-.047-.053-.093-.106-.138-.16q-.24-.3.14.187c-.051-.012-.161-.229-.181-.268-.22-.45-.453-.895-.674-1.344a36.761,36.761,0,0,1-2.656-6.716c-.834-2.969-5.467-1.708-4.629,1.276Z"/><path class="c" d="M263.757,138.089l.388-.166c.619-.265-.258.1.1-.042.255-.1.509-.211.763-.316q.855-.348,1.714-.687c1.152-.455,2.307-.9,3.459-1.36q2.067-.819,4.116-1.687a15.439,15.439,0,0,0,4.376-2.427,2.413,2.413,0,0,0,0-3.394,2.459,2.459,0,0,0-3.394,0c-.072.062-.289.239-.088.088-.13.1-.27.187-.409.272a8.779,8.779,0,0,1-1.048.516q-.5.22-1.01.439l-.61.26c.223-.095-.076.031-.138.057q-1.836.765-3.687,1.491c-2.327.917-4.657,1.822-6.955,2.811a2.407,2.407,0,0,0-.861,3.284,2.476,2.476,0,0,0,3.284.861Z"/><path class="c" d="M328,15.935c-5.9-4.209-13.191-6.892-20.24-8.421a65.407,65.407,0,0,0-24.08-.7,54.618,54.618,0,0,0-32.108,17.44c-8.152,9.178-12.35,20.612-13.6,32.724a89.744,89.744,0,0,0-.419,10.912c.078,4.07.632,8.069.861,12.123.46,8.17-.464,16.341-1.516,24.431-.988,7.589-2.222,15.224-2.189,22.9a30.234,30.234,0,0,0,1.149,9.266,23.118,23.118,0,0,0,5.181,8.63,29.439,29.439,0,0,0,4.625,3.894,2.422,2.422,0,0,0,3.284-.861,2.449,2.449,0,0,0-.861-3.284,20.67,20.67,0,0,1-6.6-7.3,17.789,17.789,0,0,1-1.871-7.207c-.446-7.117.537-14.271,1.463-21.312,1.023-7.778,2.131-15.572,2.249-23.429.06-4-.392-7.878-.693-11.846a102.715,102.715,0,0,1-.242-11.248c.395-11.5,3.253-22.789,10.2-32.107A49.147,49.147,0,0,1,279.221,12.68a58.376,58.376,0,0,1,41.446,4.455,43.481,43.481,0,0,1,4.913,2.944,2.419,2.419,0,0,0,3.284-.861A2.452,2.452,0,0,0,328,15.935Z"/><path class="c" d="M343.568,147.952c5.083-1.927,9.686-5,11.58-10.313,1.53-4.286,1.093-9.6.417-13.96-.654-4.225-2.142-8.255-3.156-12.4a104.822,104.822,0,0,1-2.254-12.5,162.1,162.1,0,0,1-.976-22.106l-1.762,2.315.005,0a2.529,2.529,0,0,0,1.761-2.314,108.473,108.473,0,0,0,.237-21.113,61.4,61.4,0,0,0-6.782-23.623,39.534,39.534,0,0,0-7.685-10.6c-2.26-2.1-5.662,1.285-3.394,3.394,5.308,4.938,8.658,12.161,10.743,18.987,2.032,6.652,2.531,13.346,2.6,20.256a98.781,98.781,0,0,1-.517,12.7l1.762-2.314h0a2.485,2.485,0,0,0-1.762,2.314,144.587,144.587,0,0,0,2.84,33.453c.684,3.136,1.6,6.192,2.473,9.276a38.791,38.791,0,0,1,1.578,9.616c.028,1.088.014,2.178-.029,3.266-.012.293-.026.585-.048.878-.013.184-.032.368-.048.552-.058.691.036-.1-.038.319a9.6,9.6,0,0,1-1.913,4.7,15.783,15.783,0,0,1-6.9,4.584,2.468,2.468,0,0,0-1.677,2.952,2.419,2.419,0,0,0,2.953,1.676Z"/><path class="c" d="M330.3,78.152c2.088-1.937,5.548-1.713,7.719-.018,2.6,2.032,3.542,5.637,3.165,8.8-.924,7.773-7.764,13.533-14.5,16.473a2.417,2.417,0,0,0-.861,3.284,2.463,2.463,0,0,0,3.284.861c7.083-3.091,13.156-8.616,15.848-15.983,2.541-6.955.471-16.03-7.014-18.877A10.738,10.738,0,0,0,326.9,74.758c-2.269,2.105,1.131,5.493,3.394,3.394Z"/><path class="c" d="M326.584,104.328a80.031,80.031,0,0,1-11.209,4.842c-4.063,1.349-8.259,2.2-12.429,3.142-3.012.678-1.737,5.307,1.276,4.628a123.255,123.255,0,0,0,12.793-3.264,90.435,90.435,0,0,0,11.992-5.2c2.75-1.409.324-5.552-2.423-4.145Z"/><path class="c" d="M297.762,111.874a4.339,4.339,0,0,0-.26,6.364,6.675,6.675,0,0,0,5.5,1.5c2.114-.3,4.727-2.675,4.8-5.084.075-2.336-2.894-4.01-5.494-4.283A5.426,5.426,0,0,0,297.762,111.874Z"/><path class="c" d="M328.061,97.915a83.575,83.575,0,0,1-2.893,10.393A2.3,2.3,0,0,0,326.4,110.6a9.3,9.3,0,0,0,4.148,1.111,2.529,2.529,0,0,0,2.445-.944,42.7,42.7,0,0,0,3.188-11.811Z"/><path class="c" d="M323.843,110.6a22.3,22.3,0,0,0,6.519-8.357,2.614,2.614,0,0,0,.242-1.85,2.452,2.452,0,0,0-1.1-1.434,2.423,2.423,0,0,0-1.849-.242,2.335,2.335,0,0,0-1.435,1.1A20.822,20.822,0,0,1,325.089,102q-.332.555-.7,1.089-.163.24-.335.476c-.064.087-.129.173-.192.26-.24.328.282-.355.1-.127a21.521,21.521,0,0,1-3.516,3.507,2.4,2.4,0,0,0-.7,1.7,2.442,2.442,0,0,0,.7,1.7,2.415,2.415,0,0,0,1.7.7,2.8,2.8,0,0,0,1.7-.7Z"/><path class="a" d="M338.969,86.215a12.072,12.072,0,0,1,1.586,7.2,11.176,11.176,0,0,1-2.159,6.445,6.1,6.1,0,0,1-6.626,1.9,7.085,7.085,0,0,1-2.919-2.331,11.527,11.527,0,0,1-1.983-10.095,8.171,8.171,0,0,1,4.1-5.463c2.272-1.12,6.491-.665,8.006,2.341"/><path class="c" d="M336.9,87.427a11.06,11.06,0,0,1,.6,9.241,4.7,4.7,0,0,1-2.234,2.681c-.424.228-.168.068-.067.032-.143.051-.287.1-.433.139-.178.05-.36.083-.54.126-.369.089.369-.021,0,0a7.793,7.793,0,0,1-.917.019c-.127-.007-.255-.018-.382-.032.291.032.316.065.022-.023-.13-.039-.262-.072-.393-.112.118.036.428.234-.08-.042-.161-.087-.32-.176-.475-.275-.4-.256-.259-.179-.169-.108a6.657,6.657,0,0,1-1.431-1.586,9.009,9.009,0,0,1-1.5-4.2,9.506,9.506,0,0,1,.628-4.393c.147-.391-.122.249.055-.132q.135-.293.29-.573a7.459,7.459,0,0,1,.553-.872c-.068.091-.2.23.114-.123.116-.129.236-.257.362-.378a2.922,2.922,0,0,1,.786-.6,5.144,5.144,0,0,0,.488-.266c-.355.271-.16.057.091-.023a6.006,6.006,0,0,1,.935-.216c-.11.017-.481.018-.038.022.206,0,.412-.017.619-.012.14,0,.279.016.419.021.623.02-.406-.127.2.029.348.09.688.17,1.029.287-.434-.149.364.2.486.268.1.055.472.338.125.058.14.113.264.242.395.365.084.079.357.45.112.1a5.66,5.66,0,0,1,.347.58A2.4,2.4,0,1,0,341.041,85c-1.845-3.452-6.412-4.876-10.052-3.71-4.44,1.423-6.642,6.061-6.9,10.43-.261,4.409,1.852,9.767,5.96,11.881a8.528,8.528,0,0,0,10.917-3.211,14.785,14.785,0,0,0,2.014-7.42A14.537,14.537,0,0,0,341.041,85c-1.561-2.664-5.711-.251-4.144,2.423Z"/><path class="c" d="M295.808,48.387c2.235,6.437,6.41,12.187,11.086,17.075a49.269,49.269,0,0,0,7.346,6.367,19.293,19.293,0,0,0,7.037,3.343,2.46,2.46,0,0,0,2.952-1.676,2.422,2.422,0,0,0-1.676-2.952,15.171,15.171,0,0,1-5.891-2.86,43.119,43.119,0,0,1-6.374-5.616c-4.081-4.269-7.9-9.325-9.851-14.957a2.458,2.458,0,0,0-2.952-1.676,2.423,2.423,0,0,0-1.677,2.952Z"/><path class="c" d="M296.426,46.052c-4.463,5.218-10.644,8.97-16.695,12.056-7.6,3.878-15.859,5.992-23.66,9.4a79.16,79.16,0,0,0-12.838,6.952c-2.541,1.725-.142,5.886,2.423,4.145a89.261,89.261,0,0,1,22.657-10.629,87.467,87.467,0,0,0,23.12-11.254,44.3,44.3,0,0,0,8.387-7.273,2.462,2.462,0,0,0,0-3.394,2.421,2.421,0,0,0-3.394,0Z"/><path class="d" d="M390,246.353c-1.287-22.968-8.842-60.745-13.172-77.466-1.082-4.178-2.159-8.392-4.693-11.886a35.6,35.6,0,0,0-13.388-11.787c-6.981-3.735-18.035-8.686-26.589-12.9-.348-.49-.715-.982-1.1-1.471a35.381,35.381,0,0,0-7.017-6.775c-3.081,5.876-6.56,14.462-10.355,21.806-5.728,11.086-16.932,44.57-19.833,52.9-1.572,4.515-2.765,9.038-4.477,14.136l-1.044-2.017a186.529,186.529,0,0,1-6.9-21.776,171.181,171.181,0,0,1-4.324-27.107,279.685,279.685,0,0,1-.128-32.462c-1.327-.374-2.556-.792-3.671-1.217-11.49,9.52-30.609,11.79-38.919,25.609a43.405,43.405,0,0,0-4.08,10.7c-.76,2.7-6.75,26.25-7.51,28.95l-5.776,21.26-.387,1.427c6.531.207,11.941.376,15.641.488a5.992,5.992,0,0,1,5.725,4.986c1.6,9.364,3.226,18.852,4.919,28.681,6.006-9.107,9.838-18.257,14.312-27.02,1.8,3.652,3.885,7.175,5.589,10.873a48.284,48.284,0,0,1,2.554,7.111c.13.46.284.91.457,1.357.888,2.3.969,5.89,2.08,9.89h47.727c4.928,9.639,7.065,25.453,7.162,28.16,5.037-.074,28.5-.444,36.094-1.217,5.992-.61,12.136-.745,17.752-2.921S387.392,270.2,389,264.393a52.793,52.793,0,0,0,1.042-16.617"/><path class="a" d="M299.456,150.5a91.24,91.24,0,0,1-14.89-.177,39.317,39.317,0,0,1-7.976-1.624c.048,4.445.209,8.888.52,13.32a171.181,171.181,0,0,0,4.324,27.107,186.529,186.529,0,0,0,6.9,21.776l1.015,2.1c1.729-5.13,2.925-9.677,4.506-14.216,2.686-7.716,12.49-36.992,18.477-50.077A96.062,96.062,0,0,1,299.456,150.5Z"/><path class="a" d="M71.893,121.012a29.321,29.321,0,0,1-8.409-6.918c-2.624,2.412-3.254,4.217-5.195,7.831,3.585,10.691,7.594,22.6,11.43,33.407a85.9,85.9,0,0,0,20.883.986c4.088-11.366,8.7-24.071,11.6-35.592-1.482-2.846-2.244-4.5-4.562-6.632-2.387,3.21-7.84,7.219-14.374,9.847A3.708,3.708,0,0,0,82,124.66c-.156.291.148.547.291.776a10.338,10.338,0,0,0,1.025,1.077c-2.053,0-3.579.008-5.509.011a10.533,10.533,0,0,0,1.034-1.088c.143-.229.448-.485.291-.776a3.7,3.7,0,0,0-1.27-.719A45.07,45.07,0,0,1,71.893,121.012Z"/><path class="a" d="M315.164,252.476c-3.345.088-5.569.99-9.541.012-5.64-1.38-8.393-3.889-14.073-5.119-4.45-.96-9.01.88-13.08,2.95a105.827,105.827,0,0,0-14.37,8.82c-1.14.83-5.52,4.18-6.53,5.18a11.906,11.906,0,0,0-2.23,2.72c-.37.75-.9,2.84-.06,4.08a4.339,4.339,0,0,0,4.54,1.69l1.152-.243-.885,1.124a4.827,4.827,0,0,0-1.229,3.1c0,.112,0,.226,0,.343a3.9,3.9,0,0,0,.862,2.33,3.977,3.977,0,0,0,3.219.949,10.958,10.958,0,0,0,3.209-1.064l1.653-.767a5.943,5.943,0,0,0-1.067,2.8,3.827,3.827,0,0,0,3.219,3.986c2.082.365,3.57-.617,5.355-1.747,5.492-3.477,10.793-7.486,16.3-10.91-3.324,4.247-4.6,7.663-7.606,12.269-.624.957-.92,3.411.345,4.484,1.924,1.633,4.285-.1,5-.674A85.145,85.145,0,0,0,300,278.817a15.177,15.177,0,0,0,11.676.05c4.153-1.722,7.761-3.958,9.188-4.558l.693-.207a3.777,3.777,0,0,0,.365-.133c-1.062-6.25-3.115-15.233-6.374-21.509C315.417,252.468,315.294,252.463,315.164,252.476Z"/><path class="e" d="M96.662,48.982c4.924,1.236,8.029,4.3,10.59,8.2a25.836,25.836,0,0,1,3.8,9.549l1.874,2.6a4.865,4.865,0,0,1,3.892-1.138,4.761,4.761,0,0,1,1.154.326,36.973,36.973,0,0,0,.011-23.729c-2.1-5.875-6.271-13.071-12.062-15.834L99.64,24.2a26.553,26.553,0,0,0-10.206-5.487A34.407,34.407,0,0,0,77.586,17.43c-9.5.693-17.626,4.137-24.045,11.068l-4.969,6.285c-6.493,7.285-9.984,17.924-6.213,33.842a4.926,4.926,0,0,1,1.4-.435,4.864,4.864,0,0,1,3.892,1.138l3.165-2.421c4.031-1.17,6.427-4.45,8.366-8.28,1.4-2.767,2.235-6,4.632-7.971a12.069,12.069,0,0,1,6.537-2.225,49.38,49.38,0,0,1,11.061.155Z"/><path class="c" d="M339.959,203.346q5.326,19.565,9.72,39.366c.669,3.015,5.3,1.739,4.629-1.276q-4.393-19.8-9.72-39.366c-.81-2.977-5.442-1.713-4.629,1.276Z"/><path class="c" d="M322.194,245.137c12.944,1.159,26.1-.249,39.037-.963,3.072-.169,3.092-4.971,0-4.8-12.932.714-26.093,2.122-39.037.963a2.419,2.419,0,0,0-2.4,2.4,2.45,2.45,0,0,0,2.4,2.4Z"/><path class="c" d="M248.405,187.673a35.179,35.179,0,0,1,.685,6.2c.187,2.311.318,4.627.476,6.94a83.412,83.412,0,0,0,1.785,13.656,55.085,55.085,0,0,0,5.152,12.779c2.079,3.953,4.312,7.829,5.73,12.083a50.531,50.531,0,0,1,1.953,6.647c.455,2.447.768,4.905,1.415,7.314.8,2.98,5.433,1.716,4.629-1.276-.581-2.162-.91-4.362-1.284-6.567a47.007,47.007,0,0,0-1.518-5.593,68.384,68.384,0,0,0-5.5-12.628,63.061,63.061,0,0,1-5.482-12.258,65.093,65.093,0,0,1-2.012-13.231c-.188-2.622-.33-5.246-.541-7.866a42.4,42.4,0,0,0-.856-7.473c-.793-2.983-5.424-1.718-4.629,1.276Z"/><path class="c" d="M254.955,222.619c-4.009,7.916-7.6,16.04-12.21,23.636-1.608,2.647,2.542,5.062,4.144,2.423,4.613-7.6,8.2-15.72,12.21-23.636,1.392-2.749-2.747-5.182-4.144-2.423Z"/><path class="c" d="M259.182,270.5a2.382,2.382,0,0,1-1.492-.274c-.667-.456-.484-1.209-.281-1.9.148-.5.059-.19,0-.072a4.241,4.241,0,0,1,.366-.62,9.849,9.849,0,0,1,1.024-1.148,19.359,19.359,0,0,1,1.556-1.419,103.09,103.09,0,0,1,9.46-6.964c4.531-2.958,9.449-6.078,14.624-7.759a13.116,13.116,0,0,1,7.763-.343,45.457,45.457,0,0,1,6.52,2.549,30.5,30.5,0,0,0,8.35,2.633c2.706.355,5.31-.194,8.008-.3,3.079-.123,3.094-4.923,0-4.8-2.557.1-5.132.736-7.69.332a31.585,31.585,0,0,1-7.912-2.76,31.667,31.667,0,0,0-8.156-2.747,18.652,18.652,0,0,0-9.422,1.257,81.525,81.525,0,0,0-17.156,9.581,63.635,63.635,0,0,0-9.339,7.347c-2.077,2.135-3.689,5.016-2.723,8.092,1.034,3.292,4.665,4.5,7.773,3.943a2.42,2.42,0,0,0,1.676-2.952,2.452,2.452,0,0,0-2.952-1.676Z"/><path class="c" d="M276.252,258.21a120.867,120.867,0,0,0-12.732,9.011c-3.5,2.778-8.323,6.483-6.787,11.627a5.392,5.392,0,0,0,4.239,3.839c2.282.427,4.338-.33,6.388-1.269a2.42,2.42,0,0,0,.861-3.284,2.457,2.457,0,0,0-3.284-.861,10.343,10.343,0,0,1-1.8.659,2.338,2.338,0,0,1-1.163.071c-.106-.024-.608-.228-.444-.145.135.068-.087-.1-.13-.184a2.015,2.015,0,0,1-.123-1.181c-.029.219.093-.338.121-.418-.057.161.213-.4.3-.527.134-.207.412-.806.653-.935-.143.076-.395.459-.1.147.1-.11.2-.225.3-.335.23-.244.471-.479.714-.709a81.536,81.536,0,0,1,9.721-7.6c1.859-1.307,3.742-2.587,5.69-3.757,2.645-1.589.235-5.741-2.422-4.145Z"/><path class="c" d="M284.1,263.171c-3.626,2.281-7.115,4.76-10.605,7.241-3.181,2.261-6.636,4.372-8.363,8.042-1.639,3.486-.395,7.64,3.4,9.007,4.078,1.468,7.849-1.628,11.031-3.756,4.172-2.791,8.238-5.737,12.474-8.431,2.6-1.653.195-5.808-2.422-4.144-3.98,2.53-7.81,5.283-11.718,7.921a37.617,37.617,0,0,1-5.858,3.7c-.916.391-2.258.447-2.733-.443-.535-1,.212-2.115.994-3.158a20.4,20.4,0,0,1,4.873-4.071c3.739-2.653,7.464-5.325,11.346-7.768,2.609-1.641.2-5.8-2.422-4.144Z"/><path class="c" d="M288.83,272.441a76.638,76.638,0,0,0-4.589,7.505c-1.366,2.406-3.384,4.692-3.15,7.631a5.24,5.24,0,0,0,2.264,4.125,5.41,5.41,0,0,0,4.689.529,10.52,10.52,0,0,0,3.245-1.942q1.861-1.5,3.658-3.08a81.776,81.776,0,0,0,7.2-7.2,2.457,2.457,0,0,0,0-3.394,2.421,2.421,0,0,0-3.394,0q-2.568,2.912-5.4,5.571-1.473,1.375-3.007,2.682-.741.632-1.492,1.25-.416.342-.834.68a2.421,2.421,0,0,1-.364.293c.152-.077.476-.337.129-.1a11.206,11.206,0,0,1-1.007.612c-.356.191.2-.006-.21.07-.142.027-.278.08-.422.1.336-.056.087.043-.019-.029.024.016.528.193-.032-.007-.013,0-.34-.15-.159-.054.274.144-.152-.28.115.146-.148-.236-.131-.452-.087-.116a2.325,2.325,0,0,1-.075-.284c-.037-.177-.034-.127.007.148l-.015-.2c0-.2,0-.4.008-.6.008-.454.013-.032-.01.062.022-.09.033-.182.06-.27s.054-.173.072-.257c.085-.4-.014.039-.065.122.162-.261.319-.525.485-.785.709-1.114,1.377-2.253,2.028-3.4a74.625,74.625,0,0,1,4.52-7.385,2.417,2.417,0,0,0-.861-3.284,2.454,2.454,0,0,0-3.283.861Z"/><path class="c" d="M300.776,281.654a18.258,18.258,0,0,0,12.61-.927c2.981-1.282,5.719-3.059,8.686-4.346a2.414,2.414,0,0,0,.861-3.283,2.461,2.461,0,0,0-3.283-.862c-2.636,1.144-5.08,2.721-7.7,3.911a13.764,13.764,0,0,1-9.9.878c-2.967-.884-4.234,3.748-1.276,4.629Z"/><path class="c" d="M387.732,248.414c-.045-.32.032.328.04.418.033.344.057.689.076,1.033.044.765.061,1.531.063,2.3,0,1.628-.066,3.257-.191,4.88a26.734,26.734,0,0,1-1.513,8.153c-2.629,6.313-9.487,9.527-15.814,10.725-3.816.723-7.716.907-11.576,1.282-1.968.191-3.943.3-5.918.4-5.377.267-10.76.414-16.142.543q-6.975.166-13.952.267l2.4,2.4a69.442,69.442,0,0,0-1.5-10.351,81.967,81.967,0,0,0-4.352-15.38,31.735,31.735,0,0,0-4.036-7.48,2.48,2.48,0,0,0-3.283-.861,2.416,2.416,0,0,0-.861,3.284c3.829,4.962,5.565,11.423,6.984,17.437q1.017,4.311,1.7,8.694.136.873.257,1.75c-.085-.617.026.209.04.321.029.229.057.457.083.686.072.631.142,1.265.168,1.9a2.438,2.438,0,0,0,2.4,2.4c9.943-.146,19.894-.312,29.827-.8a142.535,142.535,0,0,0,18.816-1.825c7.265-1.339,14.634-5.095,18.316-11.784,1.807-3.283,2.315-6.993,2.663-10.672a47.07,47.07,0,0,0-.067-10.995,2.415,2.415,0,0,0-2.952-1.677,2.465,2.465,0,0,0-1.676,2.953Z"/><path class="a" d="M105.849,217.665c4.818,28.211,9.905,57.617,16.392,94.853a4.138,4.138,0,0,0,3.7,3.417c22.379,1.992,98.063,5.27,124.379,6.12a4.128,4.128,0,0,0,4.2-4.842c-6.477-37.082-11.624-66.851-16.509-95.454a5.992,5.992,0,0,0-5.725-4.986c-21.584-.653-101.35-3.247-122.244-3.92A4.115,4.115,0,0,0,105.849,217.665Z"/><path class="c" d="M103.534,218.3q4.929,28.846,9.932,57.682,2.883,16.634,5.78,33.263c.459,2.633.576,5.5,2.7,7.412,1.505,1.356,3.3,1.619,5.227,1.781,2.221.187,4.443.35,6.666.5,13.5.939,27.029,1.62,40.549,2.288q23.493,1.159,46.993,2.123,9.775.4,19.553.771,3.885.142,7.77.275a8.974,8.974,0,0,0,5-.811,6.608,6.608,0,0,0,3.273-5.712,27.347,27.347,0,0,0-.662-4.242l-.8-4.59q-.762-4.366-1.522-8.733-1.417-8.136-2.831-16.274-2.659-15.312-5.3-30.629-2.471-14.335-4.923-28.676c-.377-2.205-.53-4.56-1.771-6.488a8.373,8.373,0,0,0-5.573-3.729,50.756,50.756,0,0,0-6.656-.309q-18.638-.579-37.273-1.184-22.629-.728-45.256-1.46-16.674-.54-33.348-1.079a7.582,7.582,0,0,0-4.756,1.055,6.524,6.524,0,0,0-2.855,6.124,2.478,2.478,0,0,0,2.4,2.4,2.415,2.415,0,0,0,2.4-2.4c-.193-1.5.51-2.436,2.051-2.4.858.018,1.715.056,2.572.083l6.512.211,17.231.558q21.481.695,42.964,1.387,19.938.642,39.876,1.275l7.207.226c1.908.059,3.89-.031,5.788.182a3.625,3.625,0,0,1,3.089,2.553,53.727,53.727,0,0,1,1.193,6.756q1.156,6.759,2.318,13.518,5.159,30.03,10.394,60.046.72,4.132,1.442,8.267.357,2.051.716,4.1c.2,1.138.766,2.63.566,3.78-.23,1.325-1.418,1.464-2.554,1.426q-1.673-.054-3.345-.113-8.631-.3-17.258-.652-22.254-.89-44.5-1.945c-14.172-.671-28.344-1.374-42.506-2.245-4.894-.3-9.789-.614-14.675-1.023-1-.084-2.086-.052-2.6-1.105A15.548,15.548,0,0,1,124,308.7l-.756-4.341q-1.434-8.234-2.864-16.467-5.026-28.944-10-57.9-1.113-6.484-2.22-12.969a2.42,2.42,0,0,0-2.952-1.677A2.457,2.457,0,0,0,103.534,218.3Z"/><path class="c" d="M308.087,286.528c-15.77,9.675-31.776,18.988-47.842,28.161-2.55,1.456-5.1,2.923-7.683,4.313-2.722,1.462-.3,5.608,2.422,4.144,5.8-3.118,11.481-6.478,17.18-9.778q12.947-7.5,25.81-15.141,6.288-3.742,12.535-7.554c2.629-1.613.221-5.766-2.422-4.145Z"/><path class="c" d="M55.331,276.23q8.344,0,16.69-.027l26.385-.043q3.351,0,6.7-.01c3.089,0,3.094-4.8,0-4.8q-8.625,0-17.252.027l-26.229.043q-3.149,0-6.3.01c-3.089,0-3.094,4.8,0,4.8Z"/><path class="c" d="M396.063,276.23c9.6,0,19.2-.047,28.794-.07,1.565,0,3.13-.009,4.7-.01,3.088,0,3.094-4.8,0-4.8-9.733,0-19.467.046-29.2.07-1.43,0-2.86.009-4.29.01-3.088,0-3.094,4.8,0,4.8Z"/><path class="f" d="M74.439,131.95c-.1-.48-.2-.99-.311-1.569.512-.532,1.017-1.067,1.5-1.6.909-1,1.637-1.729,2.171-2.259,1.931,0,3.457-.006,5.51-.012.535.53,1.267,1.265,2.184,2.271.625.687,1.283,1.375,1.944,2.058-.277,1.223-.573,2.453-1.037,3.874a12.341,12.341,0,0,0-.77,3.48c-.01.52,1.26,8.97,2.66,18.27a84.653,84.653,0,0,1-14.939-.6c1.139-8.949,2.319-17.578,2.319-17.878a8.189,8.189,0,0,0-.32-1.97c-.08-.3-.15-.58-.22-.88C74.86,133.953,74.658,133.03,74.439,131.95Z"/><path class="c" d="M63.816,109.68a34.65,34.65,0,0,1-.485,3.958,24.206,24.206,0,0,1-.452,2.524c-.027.1-.063.193-.09.291-.095.341-.044-.152.073-.153-.016,0-.253.45-.26.466-.109.258.328-.268.088-.11a1.442,1.442,0,0,0-.168.18c-.082.081-.168.155-.255.23.251-.215.18-.131-.052,0-.1.053-.658.35-.3.185-.254.118-.588.234-.822.337l-.262.118c-2.406,1.094-4.8,2.225-7.2,3.33q-.93.427-1.863.851c-.222.1-.444.2-.666.3-.493.223.64-.242.194-.083a2.4,2.4,0,1,0,1.276,4.629c1.019-.365,2.006-.873,2.989-1.323q2.214-1.017,4.424-2.045l3.266-1.511a1.1,1.1,0,0,1,.262-.118c.044-.006-.869.351-.439.19.208-.078.411-.167.616-.253a7.243,7.243,0,0,0,1.034-.51,6.336,6.336,0,0,0,2.587-3.148,13.489,13.489,0,0,0,.6-2.787c.3-1.84.583-3.681.71-5.544a2.413,2.413,0,0,0-2.4-2.4,2.459,2.459,0,0,0-2.4,2.4Z"/><path class="c" d="M92.852,109.208a56.614,56.614,0,0,0,1,7.671,6.606,6.606,0,0,0,4.673,5.084c-1.111-.323-.183-.066.168.1q.786.367,1.57.739,2.035.962,4.069,1.927c.912.432,1.817.885,2.74,1.294a2.462,2.462,0,0,0,3.283-.861,2.427,2.427,0,0,0-.861-3.284c-2-.885-3.956-1.871-5.931-2.806-.959-.453-1.916-.912-2.88-1.355-.088-.041-.177-.082-.266-.121-.2-.09-.41-.177-.616-.26-.008,0-.379-.163-.16-.06s-.263-.146-.307-.172c-.085-.049-.168-.115-.255-.159-.284-.142.211.278.043.038-.133-.191-.412-.471-.135-.07a3.558,3.558,0,0,0-.289-.47c-.187-.188.151.188.081.22-.006,0-.116-.328-.128-.367a22.008,22.008,0,0,1-.512-2.787,38.02,38.02,0,0,1-.486-4.3,2.4,2.4,0,0,0-4.8,0Z"/><path class="c" d="M114.624,71.026a2.38,2.38,0,0,1,3.346.441,5.243,5.243,0,0,1,.5,2.663,16.157,16.157,0,0,1-.223,3.317c-.719,3.938-2.692,8.681-7.074,9.466a2.421,2.421,0,0,0-1.676,2.953,2.454,2.454,0,0,0,2.952,1.676c6.929-1.243,10.239-9.052,10.761-15.333.272-3.275-.034-6.953-2.86-9.064a7.3,7.3,0,0,0-9.115.486,2.42,2.42,0,0,0,0,3.395,2.453,2.453,0,0,0,3.394,0Z"/><path class="c" d="M109.356,85.607a18.137,18.137,0,0,1-1.06,4.887c-.1.293-.209.582-.294.878-.046.161-.239.553.054-.105-.155.347-.314.69-.484,1.028a41.688,41.688,0,0,1-3.595,5.779c-3.1,4.257-7.349,8.76-12.6,9.993-3.006.705-1.734,5.335,1.276,4.629,6.472-1.519,11.488-6.8,15.295-11.959,3.283-4.445,5.982-9.483,6.211-15.13.125-3.089-4.675-3.084-4.8,0Z"/><path class="c" d="M49.35,67.631a7.305,7.305,0,0,0-9.114-.486c-2.83,2.1-3.132,5.8-2.86,9.064C37.9,82.49,41.207,90.3,48.136,91.542a2.469,2.469,0,0,0,2.953-1.676,2.422,2.422,0,0,0-1.677-2.953c-4.382-.785-6.354-5.528-7.073-9.466a15.974,15.974,0,0,1-.227-3.127,6.1,6.1,0,0,1,.419-2.723,2.36,2.36,0,0,1,3.425-.571,2.468,2.468,0,0,0,3.394,0,2.421,2.421,0,0,0,0-3.395Z"/><path class="c" d="M46.986,87.129c2.693,12.655,11.927,25.088,25.566,26.553a2.417,2.417,0,0,0,2.4-2.4,2.455,2.455,0,0,0-2.4-2.4C67.089,108.3,62.44,105,58.86,101a32.415,32.415,0,0,1-7.245-15.15c-.643-3.019-5.271-1.742-4.629,1.276Z"/><path class="c" d="M78.194,79.638c-.261,1-.5,2-.667,3.02a4.393,4.393,0,0,0-.016,1.946,2.9,2.9,0,0,0,1.521,1.873,4.017,4.017,0,0,0,1.922.478c.416-.018.813-.12,1.222-.175a2.69,2.69,0,0,0,1.434-1.1,2.4,2.4,0,0,0-.861-3.284l-.573-.242a2.423,2.423,0,0,0-1.276,0c-.149.02-.3.057-.445.077l.638-.085a1.683,1.683,0,0,1-.4,0l.638.086a1.782,1.782,0,0,1-.421-.123l.574.242a1.989,1.989,0,0,1-.25-.132l.486.375a.71.71,0,0,1-.1-.1l.376.486a.815.815,0,0,1-.069-.126l.242.573a1.02,1.02,0,0,1-.048-.2l.085.638a1.979,1.979,0,0,1,.012-.435l-.085.638a29.352,29.352,0,0,1,.689-3.154,2.5,2.5,0,0,0-.242-1.849A2.4,2.4,0,0,0,79.3,78.2a2.483,2.483,0,0,0-1.1,1.434Z"/><path class="c" d="M62.905,71.776c-.526,1.711-.183,5.648,3.059,5.983,4.285-.026,4.513-4.786,3.071-7.023C67.854,68.9,64.381,68.141,62.905,71.776Z"/><path class="c" d="M97.221,71.776c.527,1.711.184,5.648-3.058,5.983-4.286-.026-4.514-4.786-3.071-7.024C92.273,68.9,95.745,68.141,97.221,71.776Z"/><path class="c" d="M83.014,101.969a16.381,16.381,0,0,0,2.267-1.847,23.67,23.67,0,0,0,1.868-2.287c1.161-1.607,2.645-4.107,1.4-6.028A3.518,3.518,0,0,0,85.4,90.282q-.924,0-1.847-.006-2.145-.006-4.288-.015-2.162-.007-4.324-.014a2.4,2.4,0,0,0,0,4.8q4.383.011,8.767.03l1.878.006h.236A1.589,1.589,0,0,1,84.3,93.922l-.01-.818c-.041.124-.084.247-.13.369q-.15.381.015-.03c-.04.09-.083.178-.127.266-.1.208-.211.411-.327.611-.235.407-.5.789-.771,1.175-.317.454.206-.231-.122.157-.175.208-.347.419-.526.623-.3.342-.618.663-.946.98-.354.342.355-.244-.094.079-.224.16-.445.325-.666.49a2.462,2.462,0,0,0-.861,3.284,2.426,2.426,0,0,0,3.284.861Z"/><path class="c" d="M76.123,140.289c3.074,0,6.147-.068,9.221-.07a2.4,2.4,0,1,0,0-4.8c-3.074,0-6.147.068-9.221.07a2.4,2.4,0,0,0,0,4.8Z"/><path class="c" d="M71.959,131.761c.238,1.2.487,2.391.761,3.581a11.165,11.165,0,0,1,.55,2.686,29.787,29.787,0,0,1-.388,3.06c-.647,4.925-1.3,9.848-1.929,14.775a2.413,2.413,0,0,0,2.4,2.4,2.459,2.459,0,0,0,2.4-2.4c.64-5.019,1.308-10.035,1.966-15.053A27.557,27.557,0,0,0,78.073,138a15.119,15.119,0,0,0-.675-3.715c-.293-1.261-.558-2.527-.81-3.8a2.4,2.4,0,0,0-4.629,1.276Z"/><path class="c" d="M83.136,124.113q-2.734,0-5.469.012a2.477,2.477,0,0,0-1.7.7,2.4,2.4,0,0,0,1.7,4.1q2.734-.006,5.469-.012a2.477,2.477,0,0,0,1.7-.7,2.4,2.4,0,0,0-1.7-4.1Z"/><path class="c" d="M90.608,155.825c-.719-4.772-1.444-9.544-2.136-14.32q-.153-1.066-.3-2.132c-.01-.076-.087-.645-.035-.251.045.341,0-.02-.011-.089-.021-.18-.053-.36-.065-.541-.132-1.882.935-3.905,1.39-5.711.754-3-3.874-4.274-4.629-1.276-.557,2.212-1.694,4.544-1.574,6.865.066,1.282.335,2.578.518,3.848.713,4.965,1.469,9.923,2.216,14.883a2.417,2.417,0,0,0,2.952,1.677,2.463,2.463,0,0,0,1.677-2.953Z"/><path class="a" d="M91.887,135.584a64.007,64.007,0,0,0,9.9-15.669,17.858,17.858,0,0,0-4.141-5.821c-2.387,3.21-7.84,7.219-14.374,9.847A3.708,3.708,0,0,0,82,124.66c-.156.291.148.547.291.776.225.36,1.329,1.283,3.208,3.345C87.627,131.12,90.123,133.477,91.887,135.584Z"/><path class="a" d="M69.24,135.584a63.981,63.981,0,0,1-9.9-15.669,17.888,17.888,0,0,1,4.141-5.821c2.388,3.21,7.84,7.219,14.375,9.847a3.7,3.7,0,0,1,1.27.719c.157.291-.148.547-.291.776-.225.36-1.328,1.283-3.207,3.345C73.5,131.12,71,133.477,69.24,135.584Z"/><path class="c" d="M93.584,137.282a69.1,69.1,0,0,0,8.266-12.075q.843-1.594,1.609-3.229a4.171,4.171,0,0,0,.682-2.382,6.208,6.208,0,0,0-.823-1.918,20.074,20.074,0,0,0-3.979-5.281,2.445,2.445,0,0,0-3.769.485c.266-.351-.31.362-.365.425-.168.191-.341.378-.516.562-.447.467-.917.912-1.4,1.341a29.661,29.661,0,0,1-3.335,2.527,43.584,43.584,0,0,1-4.391,2.543,49.532,49.532,0,0,0-4.555,2.115c-1.919,1.236-1.653,3.325-.323,4.864.644.745,1.4,1.4,2.08,2.114,2.5,2.6,5.1,5.159,7.425,7.909a2.421,2.421,0,0,0,3.394,0,2.452,2.452,0,0,0,0-3.4c-1.884-2.224-4.006-4.229-5.987-6.365-.837-.9-1.672-1.8-2.544-2.666-.246-.244-.488-.491-.736-.733a1.885,1.885,0,0,1-.238-.259l.282.361a2.4,2.4,0,0,1-.317-.5l.327,1.212.026-.28-.7,1.7c-.322.337.406-.174.574-.249.544-.242,1.1-.459,1.645-.7q1.219-.541,2.408-1.154a43.17,43.17,0,0,0,4.623-2.754,28.593,28.593,0,0,0,6.771-6.195l-3.77.486a18.551,18.551,0,0,1,3.766,5.335V118.7a67.385,67.385,0,0,1-9.521,15.183,2.467,2.467,0,0,0,0,3.4A2.421,2.421,0,0,0,93.584,137.282Z"/><path class="c" d="M70.937,133.887A67.385,67.385,0,0,1,61.416,118.7v2.422a18.548,18.548,0,0,1,3.765-5.335l-3.769-.486a28.574,28.574,0,0,0,6.771,6.195,43.17,43.17,0,0,0,4.623,2.754q1.186.612,2.408,1.154c.545.241,1.1.458,1.645.7.168.075.9.586.573.249l-.7-1.7.026.28.328-1.212a1.777,1.777,0,0,1-.23.378q-.267.362.2-.242a1.887,1.887,0,0,1-.239.259c-.221.213-.434.434-.651.65-.9.894-1.765,1.819-2.628,2.749-1.981,2.136-4.1,4.141-5.987,6.365a2.464,2.464,0,0,0,0,3.4,2.421,2.421,0,0,0,3.394,0c2.329-2.75,4.929-5.31,7.424-7.909,1.735-1.807,5.2-4.758,1.758-6.978a49.532,49.532,0,0,0-4.555-2.115,43.175,43.175,0,0,1-4.391-2.543,29.57,29.57,0,0,1-3.335-2.527c-.484-.429-.953-.874-1.4-1.341q-.264-.276-.516-.562c-.056-.063-.632-.776-.365-.425a2.446,2.446,0,0,0-3.77-.485,19.853,19.853,0,0,0-3.9,5.141,8.881,8.881,0,0,0-.855,1.739,3.593,3.593,0,0,0,.559,2.533q.806,1.718,1.688,3.4a69.156,69.156,0,0,0,8.267,12.075,2.42,2.42,0,0,0,3.394,0A2.453,2.453,0,0,0,70.937,133.887Z"/><path class="c" d="M325.3,131.518c8.691,4.635,17.753,8.547,26.59,12.89,3.987,1.959,8.176,3.884,11.634,6.714,3.784,3.1,7.322,7.185,9.047,11.8a103.428,103.428,0,0,1,3.386,12.427q1.383,5.85,2.614,11.736,3,14.226,5.347,28.582a297.169,297.169,0,0,1,3.688,30.684c.175,3.071,4.976,3.092,4.8,0-.539-9.45-1.815-18.861-3.264-28.21-1.521-9.814-3.313-19.587-5.314-29.314-1.674-8.137-3.347-16.353-5.692-24.329a29.8,29.8,0,0,0-3.435-8,42.573,42.573,0,0,0-5.2-6.409,43.609,43.609,0,0,0-11.482-7.967c-9.987-5.138-20.382-9.462-30.294-14.749-2.725-1.453-5.152,2.689-2.423,4.145Z"/><path class="c" d="M276.511,151.183a61.444,61.444,0,0,0,18.3,1.922,99.53,99.53,0,0,0,17.971-2.047,2.4,2.4,0,1,0-1.276-4.628,92.391,92.391,0,0,1-16.695,1.875,56.909,56.909,0,0,1-17.02-1.75c-2.972-.864-4.241,3.766-1.276,4.628Z"/><path class="c" d="M104.711,31.025c5.568,2.746,9.061,8.959,11.035,14.616a34.291,34.291,0,0,1,.132,21.6c-.951,2.946,3.683,4.208,4.629,1.276a38.669,38.669,0,0,0-.266-24.522c-2.407-6.652-6.524-13.864-13.108-17.11a2.46,2.46,0,0,0-3.283.861,2.42,2.42,0,0,0,.861,3.283Z"/><path class="c" d="M46.874,33.086a32.876,32.876,0,0,0-7.5,14.432c-1.573,6.885-1.03,14.012.469,20.857.661,3.016,5.289,1.74,4.629-1.276C43.16,61.12,42.625,54.814,44,48.794A28.039,28.039,0,0,1,50.269,36.48c2.038-2.308-1.345-5.715-3.395-3.394Z"/><path class="c" d="M101.337,22.505c-5.388-5.053-13.258-7.334-20.5-7.546a39.74,39.74,0,0,0-19.969,4.759,36.56,36.56,0,0,0-9.02,7.083c-2.109,2.254,1.278,5.655,3.394,3.394A32.909,32.909,0,0,1,74.872,20.113C82.6,19,92.029,20.353,97.943,25.9c2.252,2.112,5.653-1.276,3.394-3.394Z"/><path class="d" d="M276.906,131.305a273.4,273.4,0,0,0,.2,30.713,171.181,171.181,0,0,0,4.324,27.107,186.529,186.529,0,0,0,6.9,21.776s.429.934,1,2.161c-.494,1.465-1.031,2.978-1.632,4.552-.323,2.471-.058,4.157.305,7.514l-9.834-19.266c-7.067-14.538-13.217-30.611-19.411-48.057a1.213,1.213,0,0,1,.219-1.2,65.682,65.682,0,0,1,5.518-5.473,28.683,28.683,0,0,1,.186-4.514,22.154,22.154,0,0,1,1.3-6.783s3.083-6.6,6.75-8.27S276.906,131.305,276.906,131.305Z"/><path class="c" d="M96.024,51.3a13.056,13.056,0,0,1,4.726,2.184c.083.059.447.336.2.145.193.152.382.312.567.473q.463.405.9.842.481.481.929,1c.136.157.271.315.4.475-.009-.011.452.568.249.3a24.263,24.263,0,0,1,4.737,10.649,2.422,2.422,0,0,0,2.952,1.676,2.453,2.453,0,0,0,1.676-2.953c-1.576-8.506-7.341-17.157-16.067-19.421A2.4,2.4,0,0,0,96.024,51.3Z"/><path class="c" d="M92.6,48.263a12.5,12.5,0,0,0-6.589-7.55,17.571,17.571,0,0,0-11.4-1.482,2.415,2.415,0,0,0-1.676,2.953,2.461,2.461,0,0,0,2.952,1.676,9.883,9.883,0,0,1,1.968-.221c.4-.012.8-.009,1.193.012.174.009.347.024.521.037.1.007.4.038.134,0a12.837,12.837,0,0,1,2.12.475c.366.112.726.238,1.082.375.073.029.359.154.132.054.186.082.369.17.551.26A14,14,0,0,1,85.3,45.885c.114.079.269.205.07.046.12.1.239.2.355.3q.387.339.743.711c.1.11.2.221.3.335.027.031.31.373.167.19-.167-.214.174.251.2.3.081.121.16.245.235.371.148.249.281.507.4.769-.192-.407,0,.035.037.127.058.169.107.34.154.513A2.4,2.4,0,0,0,92.6,48.263Z"/><path class="c" d="M82.052,46.272a49.75,49.75,0,0,0-10.956-.31c-3.737.314-7.629,1.128-10.131,4.174-3.775,4.6-4.294,12.449-10.785,14.457-2.942.91-1.687,5.545,1.276,4.628a14.667,14.667,0,0,0,7.525-5.6c1.909-2.594,2.935-5.561,4.385-8.4a7.182,7.182,0,0,1,2.669-3.189,11.277,11.277,0,0,1,4.5-1.217,44.106,44.106,0,0,1,10.239.087,2.484,2.484,0,0,0,2.953-1.677,2.416,2.416,0,0,0-1.677-2.952Z"/><path class="c" d="M41.683,87.761c-.01,5.9-.62,12.078.8,17.865,1.211,4.919,5.531,7.766,9.9,9.725a2.474,2.474,0,0,0,3.284-.861,2.418,2.418,0,0,0-.861-3.283,22.87,22.87,0,0,1-4.929-2.765,7.681,7.681,0,0,1-2.924-4.819c-1.061-5.15-.479-10.643-.47-15.862.005-3.089-4.795-3.093-4.8,0Z"/><path class="c" d="M56.8,108.8a4,4,0,0,1,.87,5.811,6.161,6.161,0,0,1-4.9,1.921c-1.969-.064-4.6-1.985-4.91-4.187-.3-2.135,2.256-3.964,4.614-4.473A5.009,5.009,0,0,1,56.8,108.8Z"/><path class="a" d="M43.543,63.764c-4.4.78-6.229,6.736-5.872,11.81.339,4.8,1.614,9.938,5.8,12.364,1.654.749,4.154,1.124,5.61-.449s1.78-3.924,1.907-6.116a58.248,58.248,0,0,0-.482-11.548c-.3-2.144-.741-3.717-2.348-5.073A5.748,5.748,0,0,0,43.543,63.764Z"/><path class="c" d="M42.905,61.449c-4.813.988-6.955,6.026-7.51,10.416a22.474,22.474,0,0,0,2.629,13.928,10.741,10.741,0,0,0,5.5,4.731A7.02,7.02,0,0,0,50.66,89.3c1.971-1.9,2.493-4.772,2.692-7.378a55.363,55.363,0,0,0-.12-9.338c-.276-2.949-.488-6.14-2.423-8.533-1.981-2.451-4.912-3.074-7.9-2.6A2.418,2.418,0,0,0,41.229,64.4a2.459,2.459,0,0,0,2.952,1.676,3.252,3.252,0,0,1,3.131,1.283c.951,1.409.966,3.582,1.12,5.225a58.013,58.013,0,0,1,.235,6.938,13.994,13.994,0,0,1-.765,5.442c-1.413,3.042-4.853-.058-5.9-1.88a18.157,18.157,0,0,1-1.956-9.529A12.244,12.244,0,0,1,41.159,68.7a4.176,4.176,0,0,1,3.022-2.625,2.4,2.4,0,1,0-1.276-4.629Z"/><path class="d" d="M95.381,155.776q-2.355.345-4.78.54c4.222-11.735,9-24.9,11.889-36.714.605.453,5.97,4.444,5.97,4.445,1.746.844,8.062,3.487,12.236,5.2,4.609,2.075,8.533,3.919,13.007,6.379a64.672,64.672,0,0,1-13.911,11.444c.094,8,.02,12.329-.165,22.329-8.852-5.888-13.578-9.276-20.247-14.33Q97.406,155.478,95.381,155.776Z"/><path class="d" d="M31.138,133.08c-1.842.906-3.691,1.858-5.559,2.884,8.976,7.69,20.417,13.56,34.085,17.194q5.121,1.362,10.056,2.174c-4.109-11.574-8.416-24.411-12.189-35.662-.025.021-.052.041-.052.041L51.4,124.293c-1.99.892-7.672,3.157-12.046,4.955C36.6,130.486,33.878,131.732,31.138,133.08Z"/><path class="c" d="M72.324.215a76.763,76.763,0,0,0-46.56,20.412C12.891,32.7,4.95,48.743,1.7,65.97c-2.975,15.755-2.282,32.2,4.046,47.076,5.935,13.947,16.688,25.261,29.728,32.839a96.013,96.013,0,0,0,23.555,9.588,92.824,92.824,0,0,0,33.452,3.07q3.8-.4,7.541-1.158l-1.85-.242c6.6,5,13.358,9.743,20.248,14.33a2.42,2.42,0,0,0,3.611-2.073c.138-7.443.251-14.884.165-22.329L121,149.143c11.8-7.225,20.921-18.034,27.074-30.35,6.344-12.7,10.3-26.938,10.261-41.19a77.832,77.832,0,0,0-9.178-36.491,76.391,76.391,0,0,0-25.807-27.841A84.457,84.457,0,0,0,78.922.005c-2.2-.025-4.4.051-6.6.21a2.458,2.458,0,0,0-2.4,2.4,2.42,2.42,0,0,0,2.4,2.4A79.727,79.727,0,0,1,120.5,17.141a71.648,71.648,0,0,1,26.174,29.68,73.621,73.621,0,0,1,6.48,38.692,88.769,88.769,0,0,1-5.368,21.949A85.066,85.066,0,0,1,136.9,128,64.415,64.415,0,0,1,122.222,142.6q-1.027.726-2.082,1.412c-.983.639-2.325,1.189-2.663,2.416a11.111,11.111,0,0,0-.062,2.9q.012,1.471.016,2.944c.009,3.482-.029,6.964-.085,10.446q-.054,3.339-.119,6.677l3.611-2.072c-4.366-2.906-8.706-5.851-12.959-8.922q-2.9-2.1-5.758-4.252c-.455-.343-.9-.73-1.374-1.038a2.963,2.963,0,0,0-2.4-.279c-1.343.245-2.681.5-4.035.687-11.48,1.57-23.223.227-34.358-2.774-15.958-4.3-31.021-12.489-41.458-25.544C8.8,113.078,4.471,97.573,4.767,82.114,5.106,64.412,10.509,46.3,21.558,32.3A72.245,72.245,0,0,1,65.9,5.8c2.128-.366,4.267-.617,6.42-.784a2.461,2.461,0,0,0,2.4-2.4A2.419,2.419,0,0,0,72.324.215Z"/><path class="c" d="M92.915,156.957c4.353-12.1,8.816-24.216,11.889-36.717l-3.525,1.434q2.333,1.746,4.674,3.481a22.152,22.152,0,0,0,4.759,2.5c7.057,3.022,14.118,5.916,20.889,9.562,2.72,1.464,5.146-2.679,2.423-4.145-6.77-3.645-13.833-6.54-20.889-9.562a21.839,21.839,0,0,1-4.674-2.433q-2.38-1.771-4.76-3.545a2.413,2.413,0,0,0-3.525,1.435c-3.074,12.5-7.537,24.619-11.89,36.717a2.422,2.422,0,0,0,1.676,2.952,2.45,2.45,0,0,0,2.953-1.676Z"/><path class="c" d="M72.037,154.7c-4.2-11.843-8.2-23.757-12.191-35.67a2.44,2.44,0,0,0-4.012-1.059c.871-.681.264-.206.054-.048-.323.242-.645.486-.967.729l-2.67,2.011c-.636.479-1.261,1.034-1.935,1.458a13.122,13.122,0,0,1-2.333,1.031A246.457,246.457,0,0,0,25.268,133.4c-2.724,1.46-.3,5.605,2.422,4.145,7.271-3.9,14.849-6.961,22.448-10.129a15.611,15.611,0,0,0,2.67-1.2c.71-.472,1.375-1.036,2.056-1.549,1.456-1.1,2.928-2.176,4.364-3.3l-4.011-1.059c4,11.913,7.99,23.827,12.191,35.67a2.461,2.461,0,0,0,2.952,1.676,2.422,2.422,0,0,0,1.677-2.952Z"/><path class="c" d="M264.986,147.579c-1.467,1.183-2.876,2.438-4.238,3.741-1.339,1.28-3.111,2.706-4.02,4.339-1.158,2.078.4,4.707,1.112,6.7q1.182,3.288,2.387,6.567c3.1,8.417,6.353,16.779,9.888,25.024q2.842,6.628,5.981,13.125a2.422,2.422,0,0,0,3.283.861,2.45,2.45,0,0,0,.861-3.284c-7.171-14.782-12.992-30.174-18.511-45.635a11.446,11.446,0,0,0-.658-1.848c.362.041-.69,1-.028.717.187-.08.525-.574.65-.707.7-.743,1.416-1.466,2.149-2.175,1.455-1.406,2.963-2.759,4.538-4.029a2.415,2.415,0,0,0,0-3.394,2.456,2.456,0,0,0-3.394,0Z"/><path class="c" d="M267.08,146.615q.039-1.092.179-2.175l-.086.638a22.756,22.756,0,0,1,1.121-4.608,2.4,2.4,0,0,0-1.676-2.953,2.463,2.463,0,0,0-2.953,1.677,24.766,24.766,0,0,0-1.385,7.421,2.419,2.419,0,0,0,2.4,2.4,2.45,2.45,0,0,0,2.4-2.4Z"/><path class="d" d="M288,225.128c-.363-3.357-.628-5.043-.305-7.514,2.719-7.115,4.119-12.98,6.157-18.832,2.9-8.333,14.105-41.817,19.833-52.9,3.8-7.344,7.274-15.93,10.355-21.806a35.381,35.381,0,0,1,7.017,6.775c3.911,4.967,5.864,10.078,5.816,12.559-.008.4-8.946,3.962-11.717,5.219a101.076,101.076,0,0,1,9.72,8.571,2.992,2.992,0,0,1,.332,3.91c-5.854,7.551-23.41,33.926-33.662,46.68Z"/><path class="c" d="M322.831,126.146a33.1,33.1,0,0,1,8.315,8.964,27.012,27.012,0,0,1,2.466,4.745,17.491,17.491,0,0,1,.663,2.086,9.177,9.177,0,0,1,.206,1.026c-.037-.25-.041-.237-.014.038,0,.346.027.276.086-.213l.617-1.059c.41-.5.335-.237-.1,0-.37.2-.755.369-1.136.544-1.112.508-2.238.986-3.363,1.464-2.116.9-4.443,1.834-6.626,2.818-1.812.817-1.288,3.2,0,4.144a70.643,70.643,0,0,1,5.946,5.053c.965.886,1.919,1.785,2.85,2.706.855.847.73,1,.11,1.808-2.089,2.736-4.063,5.561-6.045,8.375-5.9,8.384-11.718,16.83-17.719,25.145-3.025,4.192-6.065,8.351-9.238,12.305a2.474,2.474,0,0,0,0,3.394,2.416,2.416,0,0,0,3.394,0c6.7-8.347,12.816-17.161,18.956-25.92,2.974-4.244,5.932-8.5,8.917-12.735q1.774-2.52,3.573-5.021.672-.928,1.354-1.852.324-.436.651-.872l.3-.4q.238-.312-.091.116a7.68,7.68,0,0,0,.579-.789,5.455,5.455,0,0,0-.086-5.456,18.791,18.791,0,0,0-3.554-3.686,83.559,83.559,0,0,0-7.476-6.319V150.7c2.549-1.149,4.97-2.1,7.682-3.268,2.077-.891,5.268-1.662,5.215-4.425-.072-3.74-2.242-7.656-4.22-10.7A39.372,39.372,0,0,0,325.253,122a2.416,2.416,0,0,0-3.283.861,2.455,2.455,0,0,0,.861,3.284Z"/><path class="c" d="M321.97,122.862c-2.073,3.975-3.873,8.088-5.736,12.163-1.72,3.763-3.593,7.442-5.377,11.172-2.613,5.461-4.768,11.155-6.9,16.817-4.278,11.374-8.182,22.88-12.154,34.363-1.461,4.227-2.685,8.527-4.048,12.785q-.659,2.055-1.373,4.091a16.563,16.563,0,0,0-1.164,4.048,34.319,34.319,0,0,0,.382,6.827,2.471,2.471,0,0,0,2.4,2.4,2.415,2.415,0,0,0,2.4-2.4,40.208,40.208,0,0,1-.436-6.01,8.426,8.426,0,0,1,.726-2.695q.708-1.954,1.353-3.932c1.379-4.214,2.55-8.5,3.991-12.689q2.341-6.819,4.7-13.633c2.244-6.466,4.525-12.919,6.9-19.336,2.12-5.717,4.284-11.48,6.691-16.77,1.685-3.7,3.6-7.295,5.305-10.991,2.125-4.61,4.132-9.284,6.48-13.787,1.427-2.736-2.714-5.166-4.144-2.423Z"/><path class="c" d="M274.506,131.305a245.471,245.471,0,0,0,.583,35.129A165.584,165.584,0,0,0,281.069,197c1.467,4.9,3.1,9.766,4.95,14.541a2.47,2.47,0,0,0,2.952,1.676,2.417,2.417,0,0,0,1.677-2.952,172.27,172.27,0,0,1-7.9-26.291,174.024,174.024,0,0,1-3.722-32.846c-.134-6.608,0-13.218.278-19.821.129-3.089-4.671-3.083-4.8,0Z"/><path class="c" d="M271.615,126.641c-7.5,6.149-17.222,8.883-25.57,13.61a38.857,38.857,0,0,0-11.44,9.246c-3.486,4.373-5.249,9.526-6.7,14.863-2.912,10.684-5.475,21.463-8.379,32.15l-4.811,17.71c-.811,2.985,3.818,4.258,4.628,1.276,2.493-9.176,5.044-18.337,7.422-27.543,1.79-6.931,3.547-13.871,5.364-20.8,1.077-4.1,2.142-8.334,4.338-12a29.124,29.124,0,0,1,9.71-9.4c9.291-5.857,20.258-8.692,28.835-15.728a2.418,2.418,0,0,0,0-3.395,2.456,2.456,0,0,0-3.394,0Z"/><path class="c" d="M242.052,77.117a82.015,82.015,0,0,0,4.891,25.734c3.117,8.314,8.219,16.447,15.278,21.979,13.866,10.865,34.229,11.4,48.922,1.879a58.862,58.862,0,0,0,18.792-20.032c1.536-2.686-2.609-5.107-4.145-2.423a54.914,54.914,0,0,1-14.708,16.663A38.221,38.221,0,0,1,267.57,122.8c-6.9-4.461-12.048-11.761-15.219-19.246a74.952,74.952,0,0,1-5.5-26.432c-.112-3.079-4.913-3.094-4.8,0Z"/><path class="c" d="M279.038,93.047a23.763,23.763,0,0,0-.859,2.517c-.42,1.424-.924,3.214.268,4.419a3.957,3.957,0,0,0,.88.637,4.215,4.215,0,0,0,1.036.4,7.176,7.176,0,0,0,1.479.1,2.4,2.4,0,0,0,2.4-2.4,2.429,2.429,0,0,0-.7-1.7,2.519,2.519,0,0,0-1.7-.7,6.168,6.168,0,0,1-.781-.005l.638.086a1.975,1.975,0,0,1-.384-.108l.574.242a2.589,2.589,0,0,1-.516-.308l.486.375a.1.1,0,0,1-.017-.018l.375.486a.2.2,0,0,1-.021-.038l.242.573a.4.4,0,0,1-.022-.091l.086.638a1.589,1.589,0,0,1,.015-.377l-.086.638a13.513,13.513,0,0,1,.583-2.251c.2-.619.4-1.244.653-1.844a2.4,2.4,0,0,0-.242-1.849,2.4,2.4,0,0,0-3.284-.861l-.486.375a2.407,2.407,0,0,0-.617,1.059Z"/><path class="c" d="M261.071,82.511c-.679,2.131-.376,7.069,3.507,7.563,5.146.068,5.55-5.887,3.88-8.723C267.091,79.029,262.943,77.994,261.071,82.511Z"/><path class="c" d="M305.227,82.692c.643,2.252.088,7.392-4.162,7.743-5.605-.15-5.774-6.382-3.827-9.27C298.832,78.8,303.4,77.9,305.227,82.692Z"/><path class="c" d="M288.616,119.081a19.55,19.55,0,0,0,4.012-5.129c1.175-2.2,2.713-5.767-.1-7.434-1.387-.823-3.3-.412-4.829-.277-1.634.144-3.267.315-4.9.5-1.829.21-3.656.436-5.476.71a2.407,2.407,0,0,0-1.677,2.952,2.475,2.475,0,0,0,2.953,1.676q.5-.075,1-.144c.7-.1-.289.036.169-.023l.515-.067q1.305-.167,2.614-.315c1.772-.2,3.547-.386,5.324-.535.706-.059,1.412-.114,2.119-.15a1.532,1.532,0,0,0,.366-.018,1.345,1.345,0,0,1-.885-.378,1.568,1.568,0,0,1-.442-1.274,3.8,3.8,0,0,0-.2.722q-.076.24-.162.475c-.109.27-.122.313-.041.13a16.469,16.469,0,0,1-1.778,3.086c-.147.209-.293.42-.45.622.237-.3-.213.231-.269.289-.4.417-.842.793-1.265,1.187a2.421,2.421,0,0,0,0,3.394,2.452,2.452,0,0,0,3.395,0Z"/></svg>