<svg width="213" height="6" viewBox="0 0 213 6" fill="none" xmlns="http://www.w3.org/2000/svg">
<path d="M0.652669 2.99756C0.652669 4.47032 1.84658 5.66423 3.31934 5.66423C4.7921 5.66423 5.986 4.47032 5.986 2.99756C5.986 1.5248 4.7921 0.330892 3.31934 0.330892C1.84658 0.330892 0.652669 1.5248 0.652669 2.99756ZM206.789 2.99756C206.789 4.47032 207.983 5.66423 209.455 5.66423C210.928 5.66423 212.122 4.47032 212.122 2.99756C212.122 1.5248 210.928 0.330892 209.455 0.330892C207.983 0.330892 206.789 1.5248 206.789 2.99756ZM3.31934 3.49756H209.455V2.49756H3.31934V3.49756Z" fill="#FFD600"/>
</svg>
