<svg width="40" height="40" viewBox="0 0 40 40" fill="none" xmlns="http://www.w3.org/2000/svg">
<mask id="mask0_325_159" style="mask-type:alpha" maskUnits="userSpaceOnUse" x="0" y="0" width="40" height="40">
<circle cx="19.9984" cy="20.1136" r="19.3715" fill="white" stroke="#DBDBDB"/>
</mask>
<g mask="url(#mask0_325_159)">
<path d="M39.3699 20.1136C39.3699 30.8121 30.697 39.485 19.9984 39.485C9.29985 39.485 0.626953 30.8121 0.626953 20.1136C0.626953 9.41502 9.29985 0.742126 19.9984 0.742126C30.697 0.742126 39.3699 9.41502 39.3699 20.1136Z" fill="white" stroke="#DBDBDB"/>
<path d="M7.10899 36.0948C3.9125 34.24 0.571148 32.5509 -3.02256 31.7465C-3.52727 31.633 -4.04601 31.5384 -4.55539 31.6188C-5.06477 31.6992 -5.56947 31.9831 -5.79379 32.4515C-6.10222 33.0997 -5.80314 33.871 -5.41059 34.4719C-4.54604 35.792 -3.25156 36.7572 -1.94773 37.6325C1.62262 40.0314 5.464 41.9855 9.29138 43.9301C8.80536 41.1717 7.85202 38.7964 7.11833 36.0948" fill="#204AF5"/>
<path d="M30.9453 40.8306C31.9874 44.4076 33.2492 47.9656 35.2961 51.0648C35.5812 51.5001 35.8943 51.9306 36.3149 52.2334C36.7354 52.5315 37.2962 52.6829 37.7822 52.4984C38.4458 52.2476 38.759 51.4764 38.8851 50.7714C39.1609 49.21 38.8851 47.6108 38.5393 46.0636C37.5953 41.8336 36.156 37.7314 34.7213 33.6434C33.1885 35.9761 32.2585 38.3607 30.9453 40.8258" fill="#204AF5"/>
<path d="M6.38721 33.6293C6.38721 33.6293 6.63957 58.3986 20.3695 58.8859C34.0994 59.3685 34.6742 33.809 34.6742 33.6293C34.6742 33.6293 33.0526 29.934 20.5331 30.0806C8.01348 30.2273 6.39188 33.6293 6.39188 33.6293H6.38721Z" fill="#204AF5"/>
<path d="M24.6267 43.466C24.4351 46.1062 22.1686 48.0887 19.5609 47.8947C16.9533 47.7007 14.9952 45.4059 15.1868 42.7657C15.3784 40.1256 17.6449 38.1431 20.2526 38.3371C22.8602 38.5311 24.8183 40.8258 24.6267 43.466Z" fill="#263238"/>
<path d="M23.3465 43.3714C23.2063 45.2971 21.5567 46.7402 19.6547 46.5982C17.7527 46.4563 16.3273 44.7861 16.4675 42.8604C16.6077 40.9347 18.2574 39.4916 20.1594 39.6335C22.0614 39.7755 23.4867 41.4457 23.3465 43.3714Z" fill="white"/>
<path d="M6.33134 33.6056C6.33134 33.6056 6.3547 33.6103 6.40143 33.6292C6.45284 33.6482 6.52294 33.6718 6.60706 33.7002C6.79399 33.7665 7.06037 33.8611 7.40151 33.9841C7.57442 34.0456 7.76601 34.1166 7.97631 34.1923C8.1866 34.2633 8.42027 34.3295 8.66795 34.4099C9.16799 34.5614 9.72878 34.7553 10.3643 34.9067C10.6821 34.9872 11.0139 35.0771 11.3597 35.167C11.7055 35.2569 12.0747 35.3231 12.4486 35.4036C13.201 35.5786 14.0141 35.6969 14.8693 35.8389C16.5844 36.0754 18.4817 36.2363 20.4819 36.2458C22.482 36.2363 24.3793 36.0754 26.0944 35.8389C26.9496 35.6969 27.7628 35.5786 28.5151 35.4083C28.889 35.3279 29.2582 35.2616 29.604 35.1717C29.9498 35.0818 30.2816 34.9966 30.5994 34.9115C31.235 34.7601 31.8004 34.5661 32.2958 34.4147C32.5435 34.3342 32.7771 34.268 32.9874 34.197C33.1977 34.1213 33.3893 34.0504 33.5622 33.9888C33.9034 33.8658 34.1697 33.7712 34.3567 33.705C34.4455 33.6766 34.5156 33.6529 34.5623 33.634C34.609 33.6198 34.6324 33.6103 34.6324 33.6151C34.6324 33.6151 34.609 33.6292 34.5623 33.6434C34.5109 33.6624 34.4455 33.6908 34.3567 33.7239C34.1697 33.7949 33.908 33.8942 33.5669 34.0267C33.394 34.0929 33.2024 34.1639 32.9968 34.2443C32.7865 34.32 32.5528 34.3863 32.3051 34.4715C31.8098 34.6276 31.249 34.8263 30.6087 34.9825C30.291 35.0676 29.9592 35.1575 29.6134 35.2474C29.2675 35.3373 28.8983 35.4036 28.5245 35.4887C27.7721 35.6685 26.959 35.7868 26.1038 35.9335C24.384 36.1748 22.482 36.3404 20.4772 36.3451C18.477 36.3357 16.5704 36.1701 14.8553 35.9288C14.0001 35.7868 13.1823 35.6638 12.4346 35.484C12.056 35.3988 11.6915 35.3326 11.3457 35.2427C10.9999 35.1528 10.6681 35.0629 10.3503 34.9777C9.71476 34.8216 9.15397 34.6229 8.65393 34.4667C8.40625 34.3863 8.17258 34.3153 7.96229 34.2396C7.75199 34.1592 7.56506 34.0882 7.39216 34.022C7.05101 33.8942 6.78931 33.7901 6.60238 33.7191C6.51826 33.686 6.44816 33.6576 6.39676 33.6387C6.35002 33.6198 6.32666 33.6103 6.32666 33.6103L6.33134 33.6056Z" fill="#263238"/>
<g opacity="0.3">
<path d="M6.38749 33.6293C6.38749 33.6293 8.0091 30.2226 20.5287 30.0806C33.0482 29.934 34.6698 33.6293 34.6698 33.6293C34.6698 33.6293 22.0381 39.9363 6.38281 33.6293H6.38749Z" fill="black"/>
</g>
<path d="M10.6915 51.254C10.6915 51.254 10.6821 51.2446 10.6681 51.2162C10.6494 51.1878 10.6307 51.1499 10.6074 51.1026C10.5513 50.9938 10.4765 50.8518 10.3831 50.6673C10.3363 50.5727 10.2802 50.4686 10.2242 50.3503C10.1681 50.232 10.112 50.1043 10.0466 49.9671C9.9204 49.6926 9.77554 49.3804 9.64001 49.0255C9.56991 48.8504 9.49515 48.6659 9.41571 48.4719C9.34561 48.2779 9.27083 48.0745 9.19139 47.8663C9.0325 47.4499 8.89697 46.991 8.73341 46.5131C8.43899 45.5526 8.15393 44.4833 7.90157 43.3477C7.65389 42.2122 7.46696 41.1239 7.31742 40.1256C7.1819 39.1272 7.06974 38.2282 7.01366 37.4712C6.97628 37.0927 6.95758 36.7473 6.93889 36.4492C6.9202 36.1464 6.90618 35.8862 6.89683 35.6732C6.89216 35.4651 6.88281 35.3042 6.88281 35.1812C6.88281 35.1291 6.88281 35.0865 6.88281 35.0534C6.88281 35.025 6.88281 35.0108 6.88281 35.0108C6.88281 35.0108 6.88281 35.025 6.89215 35.0534C6.89215 35.0865 6.89684 35.1291 6.90151 35.1812C6.91086 35.2995 6.92021 35.4651 6.93423 35.6685C6.94825 35.8814 6.96694 36.1417 6.9903 36.4397C7.01367 36.7426 7.04171 37.0832 7.07909 37.4617C7.14919 38.2188 7.26134 39.1178 7.40621 40.1114C7.56043 41.105 7.75203 42.1932 7.99504 43.3241C8.2474 44.4549 8.52779 45.5195 8.81753 46.4847C8.97642 46.9626 9.10727 47.4215 9.26616 47.8379C9.34093 48.0461 9.41103 48.2495 9.48112 48.4482C9.5559 48.6422 9.63067 48.8268 9.70077 49.0018C9.83629 49.3567 9.97181 49.669 10.0933 49.9434C10.1541 50.0806 10.2102 50.2084 10.2616 50.3266C10.3176 50.4402 10.369 50.549 10.4158 50.6437C10.5046 50.8282 10.5747 50.9749 10.6261 51.0837C10.6448 51.131 10.6635 51.1689 10.6775 51.1972C10.6868 51.2256 10.6962 51.2398 10.6915 51.2398V51.254Z" fill="white"/>
<path d="M20.1688 48.4719C20.1688 48.4719 20.122 48.4814 20.0379 48.4861C19.9538 48.4861 19.823 48.505 19.6594 48.4956C19.3323 48.4956 18.8556 48.4435 18.2901 48.2732C18.0098 48.188 17.7107 48.065 17.3976 47.9089C17.0938 47.7433 16.7713 47.554 16.4723 47.3032C15.8601 46.8159 15.2946 46.1346 14.9301 45.2971C14.5749 44.4549 14.4721 43.5701 14.5375 42.7847C14.5656 42.392 14.645 42.0229 14.7338 41.687C14.8366 41.351 14.9488 41.0482 15.0796 40.7785C15.3413 40.2439 15.6264 39.8559 15.8507 39.6146C15.9535 39.4868 16.0563 39.4064 16.1171 39.3449C16.1779 39.2834 16.2152 39.255 16.2152 39.2597C16.2246 39.2692 16.0891 39.3922 15.8788 39.643C15.6638 39.8937 15.3928 40.2817 15.1404 40.8116C15.0142 41.0766 14.9067 41.3794 14.8086 41.7106C14.7245 42.0466 14.6497 42.4062 14.6263 42.7941C14.5656 43.5654 14.6731 44.436 15.0189 45.2592C15.3787 46.0778 15.9302 46.7497 16.5283 47.2323C16.8228 47.4783 17.1359 47.6676 17.4349 47.8379C17.7387 47.994 18.0331 48.1218 18.3088 48.207C18.8603 48.382 19.3323 48.4483 19.6594 48.4577C19.9819 48.4719 20.1641 48.4577 20.1641 48.4719H20.1688Z" fill="white"/>
<path d="M19.58 7.87104C19.58 7.87104 7.61182 7.72437 5.71449 18.2235C3.82183 28.718 13.944 28.9167 16.8555 29.1154C18.178 29.2053 21.0006 29.2148 23.4914 29.1722C29.0105 29.0776 32.908 27.994 34.2352 22.8131C34.3894 22.2074 34.4922 21.5876 34.5343 20.9583C34.8848 15.2758 31.0854 7.59662 19.58 7.87578V7.87104Z" fill="#204AF5"/>
<path d="M28.2626 23.8587L10.8736 24.1332C9.05101 24.1616 7.5509 22.6901 7.52286 20.8448C7.49482 18.9995 8.9482 17.4807 10.7708 17.4523L28.1598 17.1779C29.9824 17.1495 31.4825 18.621 31.5105 20.4663C31.5386 22.3115 30.0852 23.8303 28.2626 23.8587Z" fill="#263238"/>
<path d="M14.4813 20.4804C14.3691 21.0624 13.813 21.4409 13.2382 21.3274C12.6634 21.2138 12.2896 20.6508 12.4017 20.0688C12.5139 19.4868 13.07 19.1083 13.6448 19.2219C14.2196 19.3354 14.5935 19.8985 14.4813 20.4804Z" fill="white"/>
<path d="M26.6317 20.2817C26.5195 20.8637 25.9634 21.2422 25.3886 21.1287C24.8138 21.0151 24.4399 20.4521 24.5521 19.8701C24.6643 19.2881 25.2204 18.9096 25.7952 19.0232C26.37 19.1367 26.7438 19.6998 26.6317 20.2817Z" fill="white"/>
<path d="M17.5235 19.9836C17.603 19.9931 17.5609 20.3669 17.7946 20.8637C17.9068 21.1097 18.0937 21.3842 18.3554 21.6113C18.6171 21.8431 18.9676 22.0182 19.3508 22.056C19.734 22.0892 20.1125 21.9756 20.4116 21.8005C20.7107 21.6207 20.9444 21.3889 21.0986 21.1665C21.4164 20.717 21.4444 20.3432 21.5238 20.348C21.5565 20.348 21.5846 20.4426 21.5846 20.6224C21.5846 20.7975 21.5332 21.0577 21.393 21.3463C21.2528 21.6349 21.0051 21.9425 20.6499 22.1838C20.2994 22.4251 19.8228 22.5907 19.3087 22.5481C18.7993 22.4961 18.3601 22.2453 18.0563 21.9472C17.7479 21.6444 17.5609 21.2943 17.4768 20.9867C17.388 20.6792 17.3834 20.4142 17.4161 20.2391C17.4488 20.0641 17.4955 19.9789 17.5282 19.9836H17.5235Z" fill="white"/>
<path d="M18.0656 8.65648C18.0656 8.65648 18.0516 8.65648 18.0236 8.66594C17.9909 8.66594 17.9488 8.67067 17.8974 8.67541C17.7853 8.68487 17.6217 8.6896 17.4114 8.71799C16.9908 8.75584 16.3833 8.84101 15.6449 9.01607C14.9065 9.18641 14.0467 9.47029 13.1401 9.8914C12.2335 10.3172 11.2895 10.8945 10.3969 11.6373C9.50896 12.3849 8.76592 13.2129 8.18177 14.0362C7.59762 14.8595 7.16301 15.6591 6.85458 16.3593C6.54614 17.0596 6.34987 17.6463 6.23304 18.0579C6.16762 18.2614 6.13489 18.427 6.10218 18.5311C6.08816 18.5784 6.07882 18.621 6.0648 18.6541C6.05545 18.6825 6.05078 18.6967 6.05078 18.6967C6.05078 18.6967 6.05079 18.6825 6.05546 18.6541C6.06013 18.621 6.06948 18.5784 6.0835 18.5264C6.11154 18.4175 6.13957 18.2519 6.19565 18.0437C6.30313 17.6274 6.49006 17.0312 6.79382 16.3262C7.09291 15.6212 7.52752 14.8074 8.11168 13.9794C8.69583 13.1514 9.44355 12.3092 10.3361 11.5569C11.2334 10.8093 12.1914 10.2273 13.1074 9.80623C14.0233 9.3804 14.8925 9.10597 15.6356 8.9451C16.3786 8.7795 16.9908 8.7038 17.4161 8.68014C17.6264 8.66121 17.7946 8.66121 17.9068 8.65648C17.9582 8.65648 18.0002 8.65648 18.0329 8.65648C18.061 8.65648 18.075 8.65648 18.075 8.65648H18.0656Z" fill="white"/>
<path d="M6.34962 23.1963C6.34962 23.1963 6.2655 23.0591 6.18138 22.8178C6.09259 22.5765 5.99913 22.2358 5.93838 21.8478C5.87763 21.4599 5.86828 21.105 5.87762 20.8495C5.88697 20.594 5.91501 20.4379 5.92436 20.4379C5.95707 20.4379 5.91033 21.0719 6.03183 21.8337C6.14866 22.5954 6.37766 23.1869 6.34962 23.1963Z" fill="white"/>
<path d="M25.3887 16.5628C25.3887 16.5912 23.0988 16.6101 20.2715 16.6101C17.4442 16.6101 15.1543 16.5864 15.1543 16.5628C15.1543 16.5391 17.4442 16.5155 20.2715 16.5155C23.0988 16.5155 25.3887 16.5391 25.3887 16.5628Z" fill="white"/>
<path d="M16.659 28.3726C16.659 28.3726 16.6309 28.382 16.5749 28.3868C16.5048 28.3915 16.4253 28.401 16.3272 28.4104C16.2197 28.4199 16.0842 28.4294 15.93 28.4294C15.7757 28.4294 15.5981 28.4435 15.4065 28.4341C15.0187 28.4341 14.556 28.4057 14.042 28.3489C13.5326 28.2874 12.9718 28.1975 12.3923 28.0603C11.8128 27.9183 11.2708 27.748 10.7894 27.5729C10.3081 27.3884 9.87813 27.2039 9.53231 27.0288C9.35473 26.9484 9.20051 26.8585 9.06499 26.7875C8.92946 26.7166 8.81262 26.6456 8.71916 26.5888C8.63504 26.5368 8.56495 26.4942 8.5042 26.4563C8.45746 26.4232 8.42943 26.409 8.4341 26.4043C8.43877 26.3995 8.46213 26.4137 8.51354 26.4374C8.57429 26.4705 8.64907 26.5084 8.73786 26.551C8.83132 26.603 8.95283 26.6645 9.08835 26.7307C9.22855 26.797 9.38277 26.8822 9.56035 26.9579C9.91084 27.1235 10.3361 27.3033 10.8174 27.4783C11.2988 27.6487 11.8409 27.8143 12.4157 27.9562C12.9905 28.0934 13.5466 28.1833 14.056 28.2496C14.5654 28.3111 15.0233 28.3442 15.4112 28.3536C15.6028 28.3631 15.7804 28.3584 15.9346 28.3631C16.0888 28.3631 16.2197 28.3631 16.3319 28.3631C16.43 28.3631 16.5141 28.3631 16.5795 28.3631C16.6356 28.3631 16.6683 28.3631 16.6683 28.3678L16.659 28.3726Z" fill="white"/>
<path d="M31.2954 35.1386C31.2954 35.1386 31.2814 35.1481 31.2487 35.1575C31.2113 35.1717 31.1692 35.1859 31.1131 35.2096C30.9869 35.2569 30.814 35.3184 30.5944 35.3988C30.3701 35.4793 30.0944 35.5786 29.7672 35.6732C29.4401 35.7726 29.0756 35.8956 28.6597 35.9997C28.4541 36.0565 28.2344 36.1133 28.0101 36.1748C27.7858 36.2363 27.5475 36.2836 27.2998 36.3404C26.8091 36.4587 26.281 36.5533 25.7249 36.6621C24.608 36.8514 23.3743 37.0123 22.0704 37.0974C20.7666 37.1731 19.5188 37.1684 18.3879 37.1164C17.8225 37.0785 17.2851 37.0501 16.785 36.9933C16.5327 36.9649 16.2943 36.946 16.0607 36.9176C15.8317 36.8845 15.6074 36.8561 15.3971 36.8277C14.9718 36.7757 14.5933 36.7 14.2568 36.6432C13.9203 36.5864 13.6353 36.5249 13.4016 36.4729C13.1726 36.4208 12.995 36.383 12.8642 36.3498C12.8081 36.3357 12.7614 36.3262 12.724 36.3167C12.6913 36.3073 12.6772 36.3025 12.6772 36.3025C12.6772 36.3025 12.6959 36.3025 12.724 36.3073C12.7614 36.312 12.8081 36.3215 12.8642 36.3309C12.995 36.3546 13.1773 36.3924 13.4063 36.435C13.6399 36.4823 13.9297 36.5391 14.2615 36.5864C14.5979 36.6385 14.9765 36.7094 15.4017 36.7568C15.612 36.7851 15.8363 36.8135 16.0653 36.8419C16.2943 36.8703 16.5373 36.8892 16.7897 36.9129C17.2897 36.9697 17.8271 36.9933 18.3879 37.0265C19.5142 37.0738 20.7573 37.0738 22.0611 36.9981C23.3602 36.9129 24.594 36.7568 25.7062 36.5722C26.2623 36.4681 26.7904 36.3782 27.2811 36.2599C27.5241 36.2032 27.7624 36.1559 27.9914 36.0991C28.2157 36.0423 28.4354 35.9855 28.641 35.9335C29.0569 35.8341 29.4261 35.7158 29.7532 35.6212C30.0803 35.5313 30.3607 35.4367 30.5851 35.361C30.8094 35.29 30.9823 35.2332 31.1084 35.1906C31.1645 35.1717 31.2113 35.1622 31.244 35.1481C31.2767 35.1386 31.2907 35.1339 31.2907 35.1386H31.2954Z" fill="white"/>
</g>
</svg>
