<svg width="92" height="92" viewBox="0 0 92 92" fill="none" xmlns="http://www.w3.org/2000/svg">
<mask id="mask0_325_155" style="mask-type:alpha" maskUnits="userSpaceOnUse" x="0" y="0" width="93" height="92">
<circle cx="46.4368" cy="46.0786" r="45.0658" fill="white" stroke="#DBDBDB"/>
</mask>
<g mask="url(#mask0_325_155)">
<path d="M91.5026 46.0786C91.5026 70.9677 71.326 91.1443 46.4368 91.1443C21.5477 91.1443 1.37109 70.9677 1.37109 46.0786C1.37109 21.1894 21.5477 1.01282 46.4368 1.01282C71.326 1.01282 91.5026 21.1894 91.5026 46.0786Z" fill="white" stroke="#DBDBDB"/>
<path d="M16.8814 82.7238C9.5518 78.4709 1.88999 74.5976 -6.35048 72.7532C-7.50779 72.4928 -8.69726 72.2758 -9.86528 72.4603C-11.0333 72.6447 -12.1906 73.2957 -12.705 74.3698C-13.4122 75.8561 -12.7264 77.6246 -11.8263 79.0025C-9.84385 82.0295 -6.87557 84.2428 -3.88585 86.2499C4.30104 91.7505 13.1094 96.2314 21.8857 100.69C20.7713 94.3653 18.5852 88.9189 16.9028 82.7238" fill="#204AF5"/>
<path d="M71.5381 93.5832C73.9277 101.785 76.821 109.944 81.5145 117.05C82.1682 118.049 82.8862 119.036 83.8506 119.73C84.815 120.414 86.1009 120.761 87.2153 120.338C88.737 119.763 89.455 117.994 89.7443 116.378C90.3765 112.797 89.7443 109.13 88.9513 105.583C86.7867 95.8832 83.4863 86.4768 80.1965 77.1029C76.6817 82.4517 74.5492 87.9198 71.5381 93.5723" fill="#204AF5"/>
<path d="M15.2266 77.0703C15.2266 77.0703 15.8052 133.867 47.2883 134.985C78.7714 136.091 80.0895 77.4826 80.0895 77.0703C80.0895 77.0703 76.3711 68.5969 47.6634 68.9333C18.9557 69.2696 15.2373 77.0703 15.2373 77.0703H15.2266Z" fill="#204AF5"/>
<path d="M57.0507 99.6263C56.6113 105.68 51.4141 110.226 45.4347 109.781C39.4553 109.337 34.9653 104.075 35.4047 98.0206C35.844 91.9666 41.0412 87.4207 47.0207 87.8655C53.0001 88.3103 57.49 93.5723 57.0507 99.6263Z" fill="#263238"/>
<path d="M54.1144 99.4093C53.7929 103.825 50.0102 107.134 45.6488 106.809C41.2875 106.483 38.0192 102.653 38.3407 98.2376C38.6621 93.8218 42.4448 90.5128 46.8062 90.8383C51.1675 91.1637 54.4358 94.9936 54.1144 99.4093Z" fill="white"/>
<path d="M15.0981 77.0161C15.0981 77.0161 15.1517 77.0269 15.2589 77.0703C15.3767 77.1137 15.5375 77.168 15.7304 77.2331C16.159 77.385 16.7698 77.602 17.5521 77.884C17.9485 78.0251 18.3879 78.1878 18.8701 78.3614C19.3523 78.5242 19.8881 78.6761 20.456 78.8605C21.6026 79.2077 22.8885 79.6525 24.3459 79.9997C25.0746 80.1841 25.8354 80.3903 26.6283 80.5964C27.4213 80.8025 28.2679 80.9544 29.1251 81.1389C30.8504 81.5403 32.7149 81.8115 34.6759 82.137C38.6086 82.6795 42.9593 83.0484 47.5457 83.0701C52.132 83.0484 56.4827 82.6795 60.4154 82.137C62.3764 81.8115 64.2409 81.5403 65.9662 81.1497C66.8234 80.9653 67.67 80.8134 68.4629 80.6073C69.2559 80.4011 70.0167 80.2058 70.7454 80.0105C72.2028 79.6634 73.4994 79.2185 74.6353 78.8713C75.2032 78.6869 75.739 78.535 76.2212 78.3723C76.7034 78.1987 77.1428 78.0359 77.5392 77.8949C78.3215 77.6128 78.9323 77.3958 79.3609 77.2439C79.5646 77.1788 79.7253 77.1246 79.8325 77.0812C79.9396 77.0486 79.9932 77.0269 79.9932 77.0378C79.9932 77.0378 79.9396 77.0703 79.8325 77.1029C79.7146 77.1463 79.5646 77.2114 79.3609 77.2873C78.9323 77.4501 78.3322 77.6779 77.55 77.9817C77.1535 78.1336 76.7141 78.2963 76.2426 78.4808C75.7604 78.6544 75.2246 78.8062 74.6567 79.0015C73.5208 79.3596 72.2349 79.8152 70.7668 80.1733C70.0382 80.3686 69.2774 80.5747 68.4844 80.7808C67.6914 80.987 66.8449 81.1389 65.9876 81.3342C64.2623 81.7464 62.3978 82.0177 60.4368 82.354C56.4934 82.9073 52.132 83.2871 47.5349 83.2979C42.9486 83.2762 38.5765 82.8965 34.6438 82.3432C32.6828 82.0177 30.8075 81.7356 29.093 81.3233C28.225 81.128 27.3892 80.9761 26.5962 80.77C25.8032 80.5638 25.0424 80.3577 24.3137 80.1624C22.8564 79.8044 21.5705 79.3487 20.4239 78.9907C19.856 78.8062 19.3202 78.6435 18.8379 78.4699C18.3557 78.2855 17.9271 78.1227 17.5306 77.9708C16.7484 77.6779 16.1483 77.4392 15.7196 77.2765C15.5267 77.2005 15.366 77.1354 15.2481 77.092C15.141 77.0486 15.0874 77.0269 15.0874 77.0269L15.0981 77.0161Z" fill="#263238"/>
<g opacity="0.3">
<path d="M15.2265 77.0703C15.2265 77.0703 18.9449 69.2588 47.6526 68.9333C76.3604 68.5969 80.0787 77.0703 80.0787 77.0703C80.0787 77.0703 51.1138 91.5326 15.2158 77.0703H15.2265Z" fill="black"/>
</g>
<path d="M25.0957 117.484C25.0957 117.484 25.0743 117.463 25.0421 117.398C24.9993 117.333 24.9564 117.246 24.9028 117.137C24.7742 116.888 24.6028 116.562 24.3884 116.139C24.2813 115.922 24.1527 115.683 24.0241 115.412C23.8955 115.141 23.7669 114.848 23.6169 114.533C23.3276 113.904 22.9954 113.188 22.6846 112.374C22.5239 111.973 22.3525 111.55 22.1703 111.105C22.0096 110.66 21.8381 110.194 21.6559 109.716C21.2916 108.761 20.9808 107.709 20.6058 106.613C19.9307 104.411 19.277 101.959 18.6983 99.355C18.1304 96.7512 17.7018 94.2558 17.3589 91.9666C17.0481 89.6773 16.7909 87.616 16.6623 85.8801C16.5766 85.0121 16.5338 84.2201 16.4909 83.5366C16.448 82.8422 16.4159 82.2455 16.3945 81.7573C16.3837 81.2799 16.3623 80.911 16.3623 80.6289C16.3623 80.5096 16.3623 80.412 16.3623 80.336C16.3623 80.2709 16.3623 80.2384 16.3623 80.2384C16.3623 80.2384 16.3623 80.2709 16.3837 80.336C16.3837 80.412 16.3945 80.5096 16.4052 80.6289C16.4266 80.9002 16.448 81.2799 16.4802 81.7464C16.5123 82.2346 16.5552 82.8314 16.6088 83.5149C16.6624 84.2092 16.7267 84.9904 16.8124 85.8584C16.9731 87.5943 17.2303 89.6556 17.5625 91.934C17.9161 94.2124 18.3555 96.7078 18.9127 99.3008C19.4913 101.894 20.1343 104.335 20.7987 106.548C21.163 107.644 21.463 108.696 21.8274 109.651C21.9988 110.129 22.1596 110.595 22.3203 111.051C22.4918 111.496 22.6632 111.919 22.8239 112.32C23.1347 113.134 23.4455 113.85 23.7241 114.479C23.8634 114.794 23.992 115.087 24.1099 115.358C24.2385 115.618 24.3563 115.868 24.4635 116.085C24.6671 116.508 24.8278 116.844 24.9457 117.094C24.9886 117.202 25.0314 117.289 25.0636 117.354C25.085 117.419 25.1064 117.452 25.0957 117.452V117.484Z" fill="white"/>
<path d="M46.8276 111.105C46.8276 111.105 46.7204 111.127 46.5275 111.138C46.3346 111.138 46.0346 111.181 45.6595 111.159C44.9094 111.159 43.8164 111.04 42.5198 110.649C41.8769 110.454 41.191 110.172 40.4731 109.814C39.7765 109.434 39.0371 109 38.3513 108.425C36.9476 107.308 35.651 105.745 34.8151 103.825C34.0007 101.894 33.765 99.865 33.915 98.064C33.9793 97.1635 34.1614 96.3172 34.365 95.5469C34.6008 94.7766 34.858 94.0822 35.158 93.4638C35.7581 92.2378 36.4118 91.3482 36.9261 90.7949C37.1619 90.5019 37.3976 90.3175 37.5369 90.1764C37.6763 90.0354 37.762 89.9703 37.762 89.9812C37.7834 90.0028 37.4726 90.2849 36.9904 90.86C36.4975 91.435 35.876 92.3246 35.2973 93.5398C35.008 94.1473 34.7615 94.8417 34.5365 95.6011C34.3436 96.3715 34.1722 97.196 34.1186 98.0857C33.9793 99.8541 34.2257 101.85 35.0187 103.738C35.8438 105.615 37.1083 107.156 38.4799 108.262C39.155 108.827 39.873 109.261 40.5588 109.651C41.2553 110.009 41.9304 110.302 42.5627 110.497C43.8271 110.899 44.9094 111.051 45.6595 111.072C46.3989 111.105 46.8169 111.072 46.8169 111.105H46.8276Z" fill="white"/>
<path d="M45.4775 18.0061C45.4775 18.0061 18.0342 17.6698 13.6836 41.7446C9.34368 65.8086 32.5542 66.2643 39.2301 66.72C42.2627 66.9261 48.7351 66.9478 54.4466 66.8502C67.102 66.6332 76.039 64.1487 79.0823 52.2686C79.4359 50.8798 79.6717 49.4586 79.7681 48.0156C80.5718 34.9855 71.8598 17.3768 45.4775 18.017V18.0061Z" fill="#204AF5"/>
<path d="M65.3874 54.6663L25.5138 55.2956C21.3346 55.3607 17.8948 51.9865 17.8305 47.7552C17.7662 43.5239 21.0988 40.0413 25.278 39.9762L65.1516 39.3469C69.3308 39.2818 72.7706 42.656 72.8349 46.8873C72.8992 51.1185 69.5665 54.6012 65.3874 54.6663Z" fill="#263238"/>
<path d="M33.7863 46.9198C33.5291 48.2543 32.2539 49.1222 30.9359 48.8619C29.6178 48.6015 28.7606 47.3104 29.0177 45.9759C29.2749 44.6414 30.5501 43.7735 31.8682 44.0339C33.1862 44.2942 34.0435 45.5853 33.7863 46.9198Z" fill="white"/>
<path d="M61.6471 46.4641C61.39 47.7986 60.1148 48.6666 58.7967 48.4062C57.4787 48.1458 56.6214 46.8547 56.8786 45.5202C57.1358 44.1858 58.4109 43.3178 59.729 43.5782C61.047 43.8386 61.9043 45.1297 61.6471 46.4641Z" fill="white"/>
<path d="M40.7623 45.7806C40.9444 45.8023 40.848 46.6594 41.3838 47.7986C41.641 48.3628 42.0696 48.992 42.6697 49.5128C43.2698 50.0444 44.0735 50.4459 44.9522 50.5327C45.8309 50.6086 46.6989 50.3482 47.3847 49.9468C48.0705 49.5345 48.6063 49.0029 48.9599 48.493C49.6886 47.4623 49.7528 46.6052 49.935 46.616C50.01 46.616 50.0743 46.833 50.0743 47.2453C50.0743 47.6467 49.9564 48.2434 49.635 48.9052C49.3135 49.5671 48.7456 50.2723 47.9312 50.8256C47.1275 51.3789 46.0345 51.7586 44.8557 51.661C43.6877 51.5417 42.6804 50.9666 41.9839 50.2831C41.2766 49.5888 40.848 48.7859 40.6551 48.0807C40.4515 47.3755 40.4408 46.7679 40.5158 46.3665C40.5908 45.9651 40.698 45.7698 40.773 45.7806H40.7623Z" fill="white"/>
<path d="M42.0055 19.8071C42.0055 19.8071 41.9733 19.8071 41.909 19.8288C41.834 19.8288 41.7376 19.8397 41.6197 19.8505C41.3625 19.8722 40.9875 19.8831 40.5053 19.9482C39.5408 20.035 38.1478 20.2303 36.4547 20.6317C34.7616 21.0223 32.7899 21.6732 30.711 22.6388C28.6321 23.6153 26.4675 24.9389 24.4208 26.6423C22.3848 28.3565 20.681 30.2551 19.3415 32.1429C18.002 34.0307 17.0054 35.8643 16.2982 37.47C15.591 39.0757 15.1409 40.421 14.873 41.3649C14.723 41.8314 14.6479 42.2112 14.5729 42.4499C14.5408 42.5584 14.5194 42.656 14.4872 42.7319C14.4658 42.797 14.4551 42.8296 14.4551 42.8296C14.4551 42.8296 14.4551 42.797 14.4658 42.7319C14.4765 42.656 14.4979 42.5584 14.5301 42.439C14.5944 42.1895 14.6587 41.8097 14.7873 41.3324C15.0337 40.3776 15.4624 39.0106 16.1589 37.394C16.8447 35.7775 17.8413 33.9114 19.1808 32.0127C20.5202 30.1141 22.2348 28.1829 24.2815 26.4578C26.3389 24.7436 28.5357 23.4091 30.636 22.4435C32.7363 21.4671 34.7294 20.8378 36.4333 20.4689C38.1371 20.0892 39.5408 19.9156 40.516 19.8614C40.9982 19.818 41.3839 19.818 41.6411 19.8071C41.759 19.8071 41.8555 19.8071 41.9305 19.8071C41.9948 19.8071 42.0269 19.8071 42.0269 19.8071H42.0055Z" fill="white"/>
<path d="M15.1407 53.1474C15.1407 53.1474 14.9478 52.8327 14.7549 52.2794C14.5513 51.7261 14.337 50.9449 14.1977 50.0553C14.0584 49.1656 14.037 48.3519 14.0584 47.7661C14.0798 47.1802 14.1441 46.8222 14.1656 46.8222C14.2406 46.8222 14.1334 48.276 14.412 50.0227C14.6799 51.7695 15.205 53.1257 15.1407 53.1474Z" fill="white"/>
<path d="M58.7972 37.9365C58.7972 38.0016 53.5465 38.045 47.0634 38.045C40.5803 38.045 35.3296 37.9907 35.3296 37.9365C35.3296 37.8822 40.5803 37.828 47.0634 37.828C53.5465 37.828 58.7972 37.8822 58.7972 37.9365Z" fill="white"/>
<path d="M38.78 65.0166C38.78 65.0166 38.7157 65.0383 38.5871 65.0492C38.4263 65.06 38.2442 65.0817 38.0191 65.1034C37.7727 65.1251 37.4619 65.1468 37.1083 65.1468C36.7547 65.1468 36.3475 65.1794 35.9081 65.1577C35.0187 65.1577 33.9578 65.0926 32.7791 64.9624C31.6111 64.8214 30.3252 64.6152 28.9964 64.3006C27.6677 63.9751 26.4246 63.5845 25.3209 63.1831C24.2172 62.76 23.2313 62.3368 22.4383 61.9354C22.0311 61.751 21.6775 61.5448 21.3667 61.3821C21.056 61.2194 20.7881 61.0566 20.5738 60.9264C20.3809 60.8071 20.2201 60.7094 20.0808 60.6226C19.9737 60.5467 19.9094 60.5141 19.9201 60.5033C19.9308 60.4924 19.9844 60.525 20.1023 60.5792C20.2416 60.6552 20.413 60.742 20.6166 60.8396C20.8309 60.959 21.1096 61.1 21.4203 61.2519C21.7418 61.4038 22.0954 61.5991 22.5026 61.7727C23.3063 62.1524 24.2815 62.5647 25.3852 62.9661C26.4889 63.3567 27.7319 63.7364 29.05 64.0619C30.368 64.3765 31.6432 64.5827 32.8112 64.7346C33.9793 64.8756 35.0294 64.9515 35.9188 64.9732C36.3582 64.9949 36.7654 64.9841 37.119 64.9949C37.4726 64.9949 37.7727 64.9949 38.0299 64.9949C38.2549 64.9949 38.4478 64.9949 38.5978 64.9949C38.7264 64.9949 38.8014 64.9949 38.8014 65.0058L38.78 65.0166Z" fill="white"/>
<path d="M72.3418 80.5313C72.3418 80.5313 72.3096 80.553 72.2346 80.5747C72.1489 80.6072 72.0524 80.6398 71.9239 80.694C71.6345 80.8025 71.238 80.9436 70.7344 81.128C70.22 81.3124 69.5878 81.5403 68.8377 81.7573C68.0876 81.9851 67.2518 82.2672 66.298 82.5059C65.8265 82.6361 65.3229 82.7663 64.8085 82.9073C64.2942 83.0484 63.7477 83.1568 63.1797 83.287C62.0546 83.5583 60.8437 83.7753 59.5685 84.0248C57.0074 84.4588 54.1784 84.8277 51.1887 85.023C48.199 85.1965 45.3379 85.1857 42.7446 85.0664C41.448 84.9796 40.2157 84.9145 39.0691 84.7843C38.4905 84.7192 37.944 84.6758 37.4082 84.6107C36.8831 84.5347 36.3687 84.4696 35.8865 84.4045C34.9114 84.2852 34.0434 84.1116 33.2719 83.9814C32.5003 83.8512 31.8467 83.7102 31.3109 83.5908C30.7858 83.4715 30.3786 83.3847 30.0785 83.3087C29.9499 83.2762 29.8428 83.2545 29.7571 83.2328C29.6821 83.2111 29.6499 83.2003 29.6499 83.2003C29.6499 83.2003 29.6928 83.2002 29.7571 83.2111C29.8428 83.2219 29.9499 83.2436 30.0785 83.2653C30.3786 83.3196 30.7965 83.4064 31.3216 83.504C31.8574 83.6125 32.5218 83.7427 33.2826 83.8512C34.0541 83.9706 34.9221 84.1333 35.8972 84.2418C36.3795 84.3069 36.8938 84.372 37.4189 84.4371C37.944 84.5022 38.5012 84.5456 39.0799 84.5998C40.2264 84.73 41.4587 84.7843 42.7446 84.8602C45.3272 84.9687 48.1776 84.9687 51.1673 84.7951C54.1463 84.5998 56.9753 84.2418 59.5256 83.8187C60.8008 83.58 62.0117 83.3738 63.1369 83.1026C63.6941 82.9724 64.2406 82.8639 64.7657 82.7337C65.2801 82.6035 65.7837 82.4733 66.2552 82.354C67.2089 82.1262 68.0554 81.8549 68.8055 81.6379C69.5557 81.4318 70.1986 81.2148 70.713 81.0412C71.2273 80.8785 71.6238 80.7483 71.9131 80.6506C72.0417 80.6072 72.1489 80.5855 72.2239 80.553C72.2989 80.5313 72.3311 80.5204 72.3311 80.5313H72.3418Z" fill="white"/>
</g>
</svg>
